<?xml version="1.0" encoding="utf-8"?>
<!-- Generator: Adobe Illustrator 16.0.0, SVG Export Plug-In . SVG Version: 6.00 Build 0)  -->
<!DOCTYPE svg PUBLIC "-//W3C//DTD SVG 1.1//EN" "http://www.w3.org/Graphics/SVG/1.1/DTD/svg11.dtd">
<svg version="1.1" id="Capa_1" xmlns="http://www.w3.org/2000/svg" xmlns:xlink="http://www.w3.org/1999/xlink" x="0px" y="0px"
	 width="500px" height="500px" viewBox="-200.771 -217.502 500 500" enable-background="new -200.771 -217.502 500 500"
	 xml:space="preserve">
<g id="Layer_1">
	<g>
		<path fill="#FF994F" stroke="#FFFFFF" stroke-width="2" stroke-miterlimit="10" d="M189.314,64.289H-93.314l-29.561,96.132h341.75
			L189.314,64.289z M-3.368,132.857l-13.32-7.006l-13.324,7.006l2.544-14.835l-10.779-10.513l14.894-2.157l6.665-13.499
			l6.661,13.499l14.894,2.157l-10.779,10.513L-3.368,132.857z M70.057,146.29L48,134.697L25.945,146.29l4.212-24.552l-17.839-17.393
			l24.653-3.584L48,78.419l11.028,22.342l24.653,3.584l-17.839,17.393L70.057,146.29z M126.014,132.857l-13.325-7.006l-13.318,7.006
			l2.544-14.835l-10.78-10.513l14.894-2.157l6.661-13.499l6.664,13.499l14.894,2.157l-10.777,10.513L126.014,132.857z"/>
		<path fill="#FF994F" stroke="#FFFFFF" stroke-width="2" stroke-miterlimit="10" d="M-31.967-1.657c0.01,0,0.024,0,0.045,0
			c0,0,0.011,0,0.018,0c0.009,0,0.009,0,0.016,0h0.007c0.011,0,0.018,0,0.024,0c0.014,0,0.024,0,0.047,0
			C-15.735-1.414-5.963-15.486-5.712-38.686c0.167-16.096-9.815-25.298-26.074-25.73v-0.003c-0.024,0-0.047,0-0.072,0l0,0
			c-0.014,0-0.021,0-0.031,0c-0.016,0-0.029,0-0.029,0h-0.004c-0.028,0-0.054,0-0.075,0v0.003
			c-16.256,0.432-26.237,9.637-26.077,25.73C-57.823-15.483-48.047-1.406-31.967-1.657z"/>
		<path fill="#FF994F" stroke="#FFFFFF" stroke-width="2" stroke-miterlimit="10" d="M47.929-1.657c0.014,0,0.024,0,0.04,0
			c0.007,0,0.01,0,0.024,0H48c0.007,0,0.007,0,0.014,0c0.007,0,0.018,0,0.026,0c0.014,0,0.024,0,0.038,0
			C64.159-1.414,73.933-15.486,74.18-38.686c0.168-16.096-9.822-25.298-26.081-25.73v-0.003c-0.017,0-0.042,0-0.064,0l0,0
			c-0.014,0-0.024,0-0.038,0c-0.007,0-0.021,0-0.032,0l0,0c-0.026,0-0.047,0-0.071,0v0.003c-16.258,0.432-26.241,9.637-26.073,25.73
			C22.073-15.483,31.853-1.406,47.929-1.657z"/>
		<path fill="#FF994F" stroke="#FFFFFF" stroke-width="2" stroke-miterlimit="10" d="M127.818-1.657c0.018,0,0.035,0,0.049,0
			c0.008,0,0.015,0,0.015,0c0.01,0,0.01,0,0.021,0c0,0,0.007,0,0.014,0c0.008,0,0.008,0,0.015,0c0.021,0,0.034,0,0.052,0
			c16.079,0.244,25.846-13.829,26.104-37.029c0.16-16.096-9.822-25.298-26.082-25.73v-0.003c-0.024,0-0.046,0-0.073,0l0,0
			c-0.007,0-0.021,0-0.035,0s-0.024,0-0.031,0l0,0c-0.024,0-0.053,0-0.073,0v0.003c-16.26,0.432-26.243,9.637-26.082,25.73
			C101.974-15.483,111.743-1.406,127.818-1.657z"/>
		<path fill="#FF994F" stroke="#FFFFFF" stroke-width="2" stroke-miterlimit="10" d="M-31.892,14.739l5.999,37.463l15.397,0.01
			c-0.007,0.007-0.007,0.021-0.007,0.028L8.05,52.226l18.555,0.014c0-0.007,0-0.021,0-0.028L42,52.202l6-37.463l6.004,37.463
			l15.394,0.01c0,0.007,0,0.021,0,0.028l18.554-0.014l18.557,0.014c0-0.007,0-0.021-0.007-0.028l15.393-0.01l5.998-37.463
			l6.006,37.463l52.499,0.038c-0.014-1.857-0.509-3.709-1.491-5.354l-20.119-33.64c-1.224-2.042-3.036-3.485-5.078-4.329
			L145.93,2.571l-6.626-5.587L127.916,8.304L116.498-3.017l-6.623,5.587L96.094,8.918c-2.043,0.843-3.849,2.287-5.075,4.329
			l-3.054,5.113l-3.061-5.113c-1.216-2.042-3.025-3.485-5.067-4.329L66.048,2.571l-6.622-5.587L48.043,8.304L36.625-3.017L30,2.571
			L16.198,8.918c-2.041,0.836-3.855,2.283-5.071,4.326l-3.059,5.113l-3.059-5.113c-1.218-2.043-3.031-3.489-5.071-4.326
			l-13.782-6.351l-6.631-5.59L-31.861,8.304L-43.276-3.023l-6.624,5.59l-13.815,6.344c-2.042,0.844-3.848,2.287-5.073,4.329
			l-20.115,33.639c-0.984,1.652-1.481,3.504-1.492,5.357l52.502-0.042L-31.892,14.739z"/>
	</g>
</g>
<g id="Layer_2">
</g>
<g>
	<g opacity="0.9">
		<path fill="#FFFFFF" d="M51.219,170.965c-113.744,0-206.007-3.034-206.007-6.775c0-3.737,92.263-6.77,206.007-6.77
			c113.744,0,205.993,3.033,205.993,6.77C257.212,167.931,164.963,170.965,51.219,170.965L51.219,170.965z"/>
		<path fill="#FEFEFE" d="M51.245,170.885c-112.661,0-204.046-3.002-204.046-6.704c0-3.699,91.384-6.7,204.046-6.7
			c112.661,0,204.032,3.001,204.032,6.7C255.276,167.882,163.906,170.885,51.245,170.885L51.245,170.885z"/>
		<path fill="#FDFDFD" d="M51.271,170.804c-111.58,0-202.085-2.971-202.085-6.633c0-3.66,90.506-6.629,202.085-6.629
			c111.577,0,202.069,2.969,202.069,6.629C253.341,167.833,162.848,170.804,51.271,170.804L51.271,170.804z"/>
		<path fill="#FCFCFC" d="M51.296,170.723c-110.496,0-200.123-2.938-200.123-6.563c0-3.621,89.628-6.559,200.123-6.559
			s200.109,2.938,200.109,6.559C251.405,167.785,161.791,170.723,51.296,170.723L51.296,170.723z"/>
		<path fill="#FBFBFB" d="M51.322,170.642c-109.414,0-198.162-2.907-198.162-6.492c0-3.582,88.749-6.486,198.162-6.486
			c109.412,0,198.147,2.905,198.147,6.486C249.47,167.735,160.734,170.642,51.322,170.642L51.322,170.642z"/>
		<path fill="#FAFAFA" d="M51.348,170.562c-108.33,0-196.201-2.876-196.201-6.421c0-3.543,87.871-6.417,196.201-6.417
			c108.328,0,196.187,2.874,196.187,6.417C247.534,167.686,159.676,170.562,51.348,170.562L51.348,170.562z"/>
		<path fill="#F9F9F9" d="M51.374,170.481c-107.247,0-194.239-2.844-194.239-6.35c0-3.504,86.992-6.347,194.239-6.347
			c107.245,0,194.225,2.843,194.225,6.347C245.599,167.637,158.619,170.481,51.374,170.481L51.374,170.481z"/>
		<path fill="#F8F8F8" d="M51.398,170.4c-106.164,0-192.277-2.812-192.277-6.278c0-3.466,86.114-6.275,192.277-6.275
			c106.162,0,192.265,2.811,192.265,6.275C243.663,167.588,157.562,170.4,51.398,170.4L51.398,170.4z"/>
		<path fill="#F7F7F7" d="M51.425,170.32c-105.081,0-190.317-2.779-190.317-6.208c0-3.426,85.235-6.205,190.317-6.205
			c105.079,0,190.302,2.779,190.302,6.205C241.728,167.54,156.504,170.32,51.425,170.32L51.425,170.32z"/>
		<path fill="#F6F6F6" d="M51.451,170.239c-103.998,0-188.355-2.749-188.355-6.137c0-3.387,84.357-6.134,188.355-6.134
			c103.996,0,188.341,2.747,188.341,6.134C239.792,167.49,155.447,170.239,51.451,170.239L51.451,170.239z"/>
		<path fill="#F5F5F5" d="M51.477,170.158c-102.916,0-186.394-2.717-186.394-6.066c0-3.348,83.479-6.063,186.394-6.063
			c102.913,0,186.38,2.717,186.38,6.063C237.855,167.441,154.39,170.158,51.477,170.158L51.477,170.158z"/>
		<path fill="#F4F4F4" d="M51.503,170.078c-101.833,0-184.433-2.686-184.433-5.996c0-3.31,82.6-5.992,184.433-5.992
			c101.83,0,184.418,2.684,184.418,5.992C235.921,167.392,153.332,170.078,51.503,170.078L51.503,170.078z"/>
		<path fill="#F3F3F3" d="M51.527,169.998c-100.75,0-182.472-2.654-182.472-5.926c0-3.27,81.722-5.922,182.472-5.922
			c100.747,0,182.458,2.652,182.458,5.922C233.985,167.343,152.274,169.998,51.527,169.998L51.527,169.998z"/>
		<path fill="#F2F2F2" d="M51.554,169.917c-99.667,0-180.51-2.622-180.51-5.854c0-3.23,80.843-5.851,180.51-5.851
			c99.664,0,180.496,2.62,180.496,5.851C232.05,167.294,151.218,169.917,51.554,169.917L51.554,169.917z"/>
		<path fill="#F1F1F1" d="M51.58,169.835c-98.584,0-178.549-2.59-178.549-5.783c0-3.192,79.965-5.78,178.549-5.78
			c98.581,0,178.534,2.589,178.534,5.78C230.114,167.246,150.161,169.835,51.58,169.835L51.58,169.835z"/>
		<path fill="#F0F0F0" d="M51.605,169.755c-97.5,0-176.587-2.559-176.587-5.712s79.087-5.71,176.587-5.71
			c97.498,0,176.573,2.557,176.573,5.71C228.179,167.196,149.103,169.755,51.605,169.755L51.605,169.755z"/>
		<path fill="#EFEFEF" d="M51.631,169.674c-96.418,0-174.626-2.527-174.626-5.642c0-3.113,78.208-5.639,174.626-5.639
			c96.414,0,174.612,2.525,174.612,5.639C226.243,167.147,148.046,169.674,51.631,169.674L51.631,169.674z"/>
		<path fill="#EEEEEE" d="M51.656,169.593c-95.334,0-172.665-2.495-172.665-5.571c0-3.075,77.33-5.567,172.665-5.567
			c95.332,0,172.65,2.493,172.65,5.567C224.308,167.098,146.989,169.593,51.656,169.593L51.656,169.593z"/>
		<path fill="#EDEDED" d="M51.684,169.513c-94.253,0-170.705-2.463-170.705-5.5c0-3.036,76.451-5.498,170.705-5.498
			c94.247,0,170.688,2.462,170.688,5.498S145.931,169.513,51.684,169.513L51.684,169.513z"/>
		<path fill="#ECECEC" d="M51.709,169.432c-93.17,0-168.742-2.431-168.742-5.429c0-2.997,75.573-5.428,168.742-5.428
			c93.165,0,168.728,2.431,168.728,5.428C220.436,167,144.874,169.432,51.709,169.432L51.709,169.432z"/>
		<path fill="#EBEBEB" d="M51.733,169.351c-92.086,0-166.78-2.4-166.78-5.357c0-2.959,74.694-5.356,166.78-5.356
			c92.082,0,166.767,2.399,166.767,5.356C218.501,166.951,143.817,169.351,51.733,169.351L51.733,169.351z"/>
		<path fill="#EAEAEA" d="M51.76,169.27c-91.004,0-164.82-2.368-164.82-5.287s73.816-5.285,164.82-5.285
			c90.999,0,164.805,2.367,164.805,5.285C216.564,166.902,142.759,169.27,51.76,169.27L51.76,169.27z"/>
		<path fill="#E9E9E9" d="M51.786,169.19c-89.921,0-162.859-2.336-162.859-5.216s72.938-5.215,162.859-5.215
			c89.916,0,162.844,2.335,162.844,5.215C214.63,166.853,141.702,169.19,51.786,169.19L51.786,169.19z"/>
		<path fill="#E8E8E8" d="M51.812,169.109c-88.837,0-160.896-2.305-160.896-5.146s72.059-5.145,160.896-5.145
			c88.833,0,160.883,2.304,160.883,5.145S140.645,169.109,51.812,169.109L51.812,169.109z"/>
		<path fill="#E7E7E7" d="M51.838,169.028c-87.755,0-158.936-2.272-158.936-5.074c0-2.803,71.181-5.073,158.936-5.073
			c87.75,0,158.921,2.271,158.921,5.073S139.587,169.028,51.838,169.028L51.838,169.028z"/>
		<path fill="#E6E6E6" d="M51.862,168.948c-86.671,0-156.975-2.24-156.975-5.004c0-2.763,70.302-5.003,156.975-5.003
			c86.668,0,156.961,2.24,156.961,5.003S138.53,168.948,51.862,168.948L51.862,168.948z"/>
		<path fill="#E5E5E5" d="M51.889,168.867c-85.589,0-155.013-2.209-155.013-4.933s69.424-4.932,155.013-4.932
			c85.584,0,154.998,2.208,154.998,4.932C206.888,166.657,137.473,168.867,51.889,168.867L51.889,168.867z"/>
		<path fill="#E4E4E4" d="M51.915,168.787c-84.507,0-153.052-2.179-153.052-4.862c0-2.686,68.546-4.861,153.052-4.861
			c84.501,0,153.037,2.177,153.037,4.861C204.952,166.608,136.415,168.787,51.915,168.787L51.915,168.787z"/>
		<path fill="#E3E3E3" d="M51.94,168.706c-83.423,0-151.09-2.146-151.09-4.791c0-2.646,67.667-4.79,151.09-4.79
			c83.418,0,151.076,2.145,151.076,4.79C203.016,166.559,135.358,168.706,51.94,168.706L51.94,168.706z"/>
		<path fill="#E2E2E2" d="M51.966,168.625c-82.341,0-149.129-2.114-149.129-4.721s66.789-4.72,149.129-4.72
			c82.334,0,149.114,2.113,149.114,4.72C201.081,166.51,134.301,168.625,51.966,168.625L51.966,168.625z"/>
		<path fill="#E1E1E1" d="M51.991,168.544c-81.257,0-147.167-2.083-147.167-4.65c0-2.566,65.91-4.648,147.167-4.648
			c81.252,0,147.153,2.082,147.153,4.648C199.145,166.462,133.243,168.544,51.991,168.544L51.991,168.544z"/>
		<path fill="#E0E0E0" d="M52.019,168.463c-80.176,0-145.208-2.051-145.208-4.579c0-2.529,65.032-4.578,145.208-4.578
			c80.167,0,145.191,2.05,145.191,4.578C197.21,166.414,132.186,168.463,52.019,168.463L52.019,168.463z"/>
		<path fill="#DFDFDF" d="M52.044,168.383c-79.092,0-143.246-2.02-143.246-4.508c0-2.49,64.153-4.509,143.246-4.509
			c79.085,0,143.23,2.019,143.23,4.509C195.274,166.364,131.129,168.383,52.044,168.383L52.044,168.383z"/>
		<path fill="#DEDEDE" d="M52.069,168.302c-78.009,0-141.284-1.987-141.284-4.438c0-2.449,63.275-4.437,141.284-4.437
			c78.002,0,141.269,1.986,141.269,4.437C193.339,166.315,130.071,168.302,52.069,168.302L52.069,168.302z"/>
		<path fill="#DDDDDD" d="M52.095,168.221c-76.926,0-139.323-1.956-139.323-4.366c0-2.411,62.397-4.366,139.323-4.366
			c76.919,0,139.309,1.955,139.309,4.366S129.014,168.221,52.095,168.221L52.095,168.221z"/>
		<path fill="#DCDCDC" d="M52.121,168.141c-75.843,0-137.362-1.924-137.362-4.295c0-2.372,61.518-4.296,137.362-4.296
			c75.836,0,137.347,1.923,137.347,4.296C189.468,166.217,127.957,168.141,52.121,168.141L52.121,168.141z"/>
		<path fill="#DBDBDB" d="M52.147,168.06c-74.762,0-135.4-1.892-135.4-4.224c0-2.333,60.64-4.226,135.4-4.226
			c74.752,0,135.385,1.892,135.385,4.226C187.532,166.168,126.899,168.06,52.147,168.06L52.147,168.06z"/>
		<path fill="#DADADA" d="M52.173,167.979c-73.678,0-133.439-1.86-133.439-4.154s59.761-4.153,133.439-4.153
			c73.67,0,133.424,1.859,133.424,4.153C185.596,166.12,125.842,167.979,52.173,167.979L52.173,167.979z"/>
		<path fill="#D9D9D9" d="M52.198,167.898c-72.595,0-131.479-1.829-131.479-4.083c0-2.255,58.883-4.083,131.479-4.083
			c72.587,0,131.463,1.828,131.463,4.083S124.785,167.898,52.198,167.898L52.198,167.898z"/>
		<path fill="#D9D9D9" d="M52.224,167.818c-71.512,0-129.516-1.797-129.516-4.012c0-2.216,58.005-4.013,129.516-4.013
			c71.504,0,129.501,1.796,129.501,4.013C181.725,166.021,123.728,167.818,52.224,167.818L52.224,167.818z"/>
		<path fill="#D8D8D8" d="M52.25,167.737c-70.429,0-127.555-1.765-127.555-3.94c0-2.177,57.126-3.942,127.555-3.942
			c70.42,0,127.54,1.766,127.54,3.942C179.79,165.972,122.67,167.737,52.25,167.737L52.25,167.737z"/>
		<path fill="#D7D7D7" d="M52.276,167.656c-69.347,0-125.594-1.733-125.594-3.869c0-2.139,56.248-3.871,125.594-3.871
			c69.337,0,125.578,1.732,125.578,3.871C177.854,165.923,121.613,167.656,52.276,167.656L52.276,167.656z"/>
		<path fill="#D6D6D6" d="M52.301,167.576c-68.263,0-123.633-1.701-123.633-3.799c0-2.099,55.369-3.801,123.633-3.801
			c68.254,0,123.617,1.701,123.617,3.801C175.919,165.875,120.556,167.576,52.301,167.576L52.301,167.576z"/>
		<path fill="#D5D5D5" d="M52.327,167.496c-67.18,0-121.671-1.671-121.671-3.729c0-2.06,54.491-3.729,121.671-3.729
			c67.171,0,121.656,1.669,121.656,3.729C173.983,165.825,119.498,167.496,52.327,167.496L52.327,167.496z"/>
		<path fill="#D4D4D4" d="M52.353,167.415c-66.098,0-119.709-1.639-119.709-3.658c0-2.021,53.612-3.659,119.709-3.659
			c66.088,0,119.695,1.638,119.695,3.659C172.048,165.776,118.44,167.415,52.353,167.415L52.353,167.415z"/>
		<path fill="#D3D3D3" d="M52.379,167.333c-65.015,0-117.749-1.607-117.749-3.587c0-1.982,52.734-3.589,117.749-3.589
			c65.005,0,117.733,1.606,117.733,3.589C170.112,165.727,117.384,167.333,52.379,167.333L52.379,167.333z"/>
		<path fill="#D2D2D2" d="M52.403,167.253c-63.932,0-115.787-1.575-115.787-3.517c0-1.942,51.856-3.518,115.787-3.518
			c63.923,0,115.772,1.574,115.772,3.518C168.176,165.678,116.326,167.253,52.403,167.253L52.403,167.253z"/>
		<path fill="#D1D1D1" d="M52.43,167.172c-62.849,0-113.826-1.543-113.826-3.445c0-1.904,50.977-3.447,113.826-3.447
			c62.839,0,113.812,1.543,113.812,3.447C166.241,165.629,115.269,167.172,52.43,167.172L52.43,167.172z"/>
		<path fill="#D0D0D0" d="M52.456,167.091c-61.766,0-111.865-1.512-111.865-3.374c0-1.865,50.099-3.376,111.865-3.376
			c61.756,0,111.849,1.511,111.849,3.376C164.305,165.581,114.212,167.091,52.456,167.091L52.456,167.091z"/>
		<path fill="#CFCFCF" d="M52.481,167.011c-60.683,0-109.902-1.48-109.902-3.303c0-1.826,49.22-3.307,109.902-3.307
			c60.674,0,109.889,1.479,109.889,3.307C162.37,165.531,113.154,167.011,52.481,167.011L52.481,167.011z"/>
		<path fill="#CECECE" d="M52.508,166.93c-59.6,0-107.942-1.448-107.942-3.233c0-1.786,48.342-3.234,107.942-3.234
			c59.59,0,107.927,1.448,107.927,3.234C160.434,165.482,112.097,166.93,52.508,166.93L52.508,166.93z"/>
		<path fill="#CDCDCD" d="M52.532,166.849c-58.516,0-105.98-1.416-105.98-3.162c0-1.748,47.464-3.164,105.98-3.164
			c58.507,0,105.966,1.416,105.966,3.164C158.499,165.433,111.04,166.849,52.532,166.849L52.532,166.849z"/>
		<path fill="#CCCCCC" d="M52.56,166.769c-57.435,0-104.021-1.385-104.021-3.091c0-1.709,46.585-3.094,104.021-3.094
			c57.422,0,104.003,1.384,104.003,3.094C156.563,165.384,109.981,166.769,52.56,166.769L52.56,166.769z"/>
		<path fill="#CBCBCB" d="M52.585,166.688c-56.352,0-102.058-1.353-102.058-3.02c0-1.67,45.707-3.023,102.058-3.023
			c56.34,0,102.043,1.353,102.043,3.023C154.627,165.335,108.925,166.688,52.585,166.688L52.585,166.688z"/>
		<path fill="#CACACA" d="M52.61,166.607c-55.269,0-100.097-1.32-100.097-2.949c0-1.631,44.828-2.951,100.097-2.951
			c55.258,0,100.082,1.32,100.082,2.951C152.692,165.287,107.868,166.607,52.61,166.607L52.61,166.607z"/>
		<path fill="#C9C9C9" d="M52.636,166.526c-54.186,0-98.136-1.29-98.136-2.878c0-1.592,43.95-2.881,98.136-2.881
			c54.174,0,98.12,1.289,98.12,2.881C150.756,165.237,106.81,166.526,52.636,166.526L52.636,166.526z"/>
		<path fill="#C8C8C8" d="M52.662,166.446c-53.103,0-96.174-1.258-96.174-2.807c0-1.553,43.071-2.811,96.174-2.811
			c53.091,0,96.159,1.257,96.159,2.811C148.821,165.188,105.753,166.446,52.662,166.446L52.662,166.446z"/>
		<path fill="#C7C7C7" d="M52.688,166.365c-52.021,0-94.213-1.226-94.213-2.736c0-1.515,42.193-2.74,94.213-2.74
			c52.008,0,94.196,1.226,94.196,2.74C146.885,165.139,104.696,166.365,52.688,166.365L52.688,166.365z"/>
		<path fill="#C6C6C6" d="M52.714,166.285c-50.937,0-92.252-1.194-92.252-2.666c0-1.476,41.315-2.67,92.252-2.67
			c50.925,0,92.236,1.194,92.236,2.67C144.95,165.09,103.639,166.285,52.714,166.285L52.714,166.285z"/>
		<path fill="#C5C5C5" d="M52.739,166.205c-49.854,0-90.291-1.163-90.291-2.596c0-1.436,40.436-2.599,90.291-2.599
			c49.842,0,90.274,1.162,90.274,2.599C143.014,165.042,102.581,166.205,52.739,166.205L52.739,166.205z"/>
		<path fill="#C4C4C4" d="M52.765,166.124c-48.771,0-88.329-1.132-88.329-2.524c0-1.396,39.558-2.528,88.329-2.528
			c48.76,0,88.313,1.132,88.313,2.528C141.079,164.992,101.524,166.124,52.765,166.124L52.765,166.124z"/>
		<path fill="#C3C3C3" d="M52.791,166.042c-47.689,0-86.368-1.1-86.368-2.453c0-1.358,38.679-2.457,86.368-2.457
			c47.676,0,86.352,1.099,86.352,2.457C139.143,164.943,100.467,166.042,52.791,166.042L52.791,166.042z"/>
		<path fill="#C2C2C2" d="M52.817,165.962c-46.606,0-84.407-1.068-84.407-2.382c0-1.319,37.801-2.387,84.407-2.387
			c46.593,0,84.391,1.067,84.391,2.387C137.207,164.894,99.409,165.962,52.817,165.962L52.817,165.962z"/>
		<path fill="#C1C1C1" d="M52.842,165.881c-45.523,0-82.445-1.036-82.445-2.312c0-1.279,36.922-2.315,82.445-2.315
			c45.509,0,82.429,1.035,82.429,2.315C135.271,164.845,98.353,165.881,52.842,165.881L52.842,165.881z"/>
		<path fill="#C0C0C0" d="M52.868,165.8c-44.44,0-80.484-1.004-80.484-2.241c0-1.241,36.044-2.245,80.484-2.245
			c44.426,0,80.468,1.004,80.468,2.245C133.336,164.796,97.295,165.8,52.868,165.8L52.868,165.8z"/>
		<path fill="#BFBFBF" d="M52.894,165.719c-43.356,0-78.522-0.972-78.522-2.17c0-1.202,35.166-2.174,78.522-2.174
			c43.344,0,78.508,0.972,78.508,2.174C131.401,164.748,96.237,165.719,52.894,165.719L52.894,165.719z"/>
		<path fill="#BEBEBE" d="M52.92,165.639c-42.274,0-76.561-0.941-76.561-2.099c0-1.163,34.287-2.104,76.561-2.104
			c42.26,0,76.545,0.94,76.545,2.104C129.465,164.698,95.18,165.639,52.92,165.639L52.92,165.639z"/>
		<path fill="#BDBDBD" d="M52.946,165.558c-41.191,0-74.601-0.909-74.601-2.028c0-1.124,33.409-2.032,74.601-2.032
			c41.177,0,74.584,0.908,74.584,2.032C127.53,164.649,94.123,165.558,52.946,165.558L52.946,165.558z"/>
		<path fill="#BCBCBC" d="M52.971,165.477c-40.108,0-72.639-0.877-72.639-1.957c0-1.085,32.53-1.962,72.639-1.962
			c40.095,0,72.623,0.877,72.623,1.962C125.594,164.6,93.065,165.477,52.971,165.477L52.971,165.477z"/>
		<path fill="#BBBBBB" d="M52.997,165.397c-39.025,0-70.677-0.845-70.677-1.886c0-1.046,31.652-1.891,70.677-1.891
			c39.011,0,70.661,0.845,70.661,1.891C123.659,164.551,92.008,165.397,52.997,165.397L52.997,165.397z"/>
		<path fill="#BABABA" d="M53.022,165.316c-37.942,0-68.715-0.813-68.715-1.814c0-1.007,30.774-1.821,68.715-1.821
			c37.929,0,68.7,0.813,68.7,1.821C121.723,164.502,90.951,165.316,53.022,165.316L53.022,165.316z"/>
		<path fill="#B9B9B9" d="M53.049,165.235c-36.86,0-66.755-0.781-66.755-1.745c0-0.968,29.895-1.75,66.755-1.75
			c36.845,0,66.739,0.782,66.739,1.75C119.787,164.454,89.894,165.235,53.049,165.235L53.049,165.235z"/>
		<path fill="#B8B8B8" d="M53.073,165.154c-35.776,0-64.793-0.75-64.793-1.674c0-0.929,29.017-1.679,64.793-1.679
			c35.763,0,64.778,0.75,64.778,1.679C117.852,164.404,88.836,165.154,53.073,165.154L53.073,165.154z"/>
		<path fill="#B7B7B7" d="M53.101,165.074c-34.695,0-62.833-0.719-62.833-1.603c0-0.89,28.138-1.609,62.833-1.609
			c34.678,0,62.815,0.719,62.815,1.609C115.916,164.355,87.778,165.074,53.101,165.074L53.101,165.074z"/>
		<path fill="#B6B6B6" d="M53.126,164.994c-33.611,0-60.871-0.688-60.871-1.532c0-0.852,27.26-1.538,60.871-1.538
			c33.596,0,60.854,0.687,60.854,1.538C113.98,164.306,86.721,164.994,53.126,164.994L53.126,164.994z"/>
		<path fill="#B5B5B5" d="M53.151,164.913c-32.527,0-58.91-0.655-58.91-1.462c0-0.812,26.381-1.467,58.91-1.467
			c32.513,0,58.895,0.655,58.895,1.467C112.045,164.257,85.664,164.913,53.151,164.913L53.151,164.913z"/>
		<path fill="#B4B4B4" d="M53.177,164.833c-31.445,0-56.948-0.623-56.948-1.391c0-0.772,25.503-1.396,56.948-1.396
			c31.43,0,56.933,0.623,56.933,1.396C110.11,164.208,84.606,164.833,53.177,164.833L53.177,164.833z"/>
		<path fill="#B3B3B3" d="M53.203,164.751c-30.362,0-54.987-0.593-54.987-1.319c0-0.734,24.625-1.326,54.987-1.326
			c30.346,0,54.971,0.592,54.971,1.326C108.174,164.16,83.549,164.751,53.203,164.751L53.203,164.751z"/>
	</g>
</g>
</svg>
