<?xml version="1.0" encoding="utf-8"?>
<!-- Generator: Adobe Illustrator 16.0.0, SVG Export Plug-In . SVG Version: 6.00 Build 0)  -->
<!DOCTYPE svg PUBLIC "-//W3C//DTD SVG 1.1//EN" "http://www.w3.org/Graphics/SVG/1.1/DTD/svg11.dtd">
<svg version="1.1" id="Layer_1" xmlns="http://www.w3.org/2000/svg" xmlns:xlink="http://www.w3.org/1999/xlink" x="0px" y="0px"
	 width="500px" height="500px" viewBox="6 6 500 500" enable-background="new 6 6 500 500" xml:space="preserve">
<g>
	<path fill="#FF994F" stroke="#FFFFFF" stroke-width="7" stroke-miterlimit="10" d="M378.797,110.388
		c-3.55,0-7.074,0.289-10.549,0.862c-11.798-17.968-32.112-29.183-53.918-29.183c-12.305,0-24.334,3.545-34.624,10.104
		c-11.232-6.632-23.938-10.104-37.188-10.104c-40.491,0-73.434,32.974-73.434,73.505c0,3.612,0.267,7.163,0.771,10.637
		c-6.645,6.407-9.892,14.882-10.304,26.574c-0.001,0.045-0.002,0.089-0.002,0.135l0.038,0.001l-0.024,25.041l-0.008,0.002
		c-0.177,0.051-0.35,0.116-0.519,0.191c-2.596,1.168-3.955,0.642-4.279,6.097c-0.368,6.214,0.712,22.63,7.415,26.726
		c1.004,1.03,1.667,3.844,2.063,6.974c0.742,5.857,1.583,12.497,4.887,16.844c7.524,9.896,5.547,25.21,5.38,26.399
		c-0.026,0.018-0.063,0.039-0.111,0.063c-4.636,2.081-5.854,6.136-6.744,9.1l-0.456,1.472c-1.2,3.866-2.335,7.522-3.897,10.993
		c-0.21,0.302-1.117,1.02-2.291,1.463l-3.426,1.313c-21.656,8.302-44.048,16.885-64.844,28.381
		c-19.657,10.866-23.791,69.715-23.957,71.583c-0.101,1.122,0.276,2.234,1.037,3.065c0.761,0.831,1.835,1.305,2.961,1.305H216.21
		h143.436c1.125,0,2.2-0.474,2.961-1.305c0.76-0.831,1.137-1.943,1.037-3.065c-0.167-1.868-4.299-60.717-23.957-71.583
		c-20.796-11.496-43.188-20.079-64.844-28.381l-3.426-1.313c-1.175-0.445-2.083-1.161-2.291-1.463
		c-1.563-3.471-2.697-7.127-3.897-10.993l-0.455-1.472c-0.891-2.964-2.107-7.019-6.744-9.1c-0.048-0.023-0.084-0.045-0.111-0.063
		c-0.167-1.188-2.142-16.504,5.38-26.399c3.305-4.347,4.146-10.987,4.888-16.844c0.396-3.129,1.058-5.943,2.063-6.974
		c1.742-1.064,3.103-2.965,4.158-5.298c0.983,0.777,1.991,1.532,3.023,2.256c10.854,7.602,23.616,11.62,36.901,11.62
		c18.805,0,36.432-8.145,48.596-22.138c5.16,1.312,10.472,1.974,15.871,1.974c35.532,0,64.44-28.936,64.44-64.502
		C443.236,139.322,414.328,110.388,378.797,110.388z M378.797,217.635c-5.461,0-10.778-1.018-15.803-3.025l-8.208-3.278l-4.89,7.36
		c-7.947,11.965-21.245,19.108-35.567,19.108c-17.543,0-33.559-11.015-39.854-27.409l-1.613-4.203l0.004-13.266
		c-0.004-3.153-0.198-6.048-0.581-8.698c0.862,0.213,1.761,0.337,2.691,0.337c6.206,0,11.238-5.031,11.238-11.239
		c0-6.207-5.032-11.239-11.238-11.239c-4.331,0-8.083,2.453-9.96,6.041c-0.514-0.493-1.043-0.967-1.607-1.402
		c-2.81-2.164-6.036-4.189-9.155-6.148c-4.318-2.71-8.783-5.513-10.4-7.706c-3.531-4.788-15.25-5.305-20.125-5.305
		c-5.75,0-18.438,0.757-32.847,6.395c0.857-27.79,23.683-50.136,51.638-50.136c11.261,0,21.96,3.561,30.944,10.299l6.899,5.174
		l6.611-5.536c7.65-6.408,17.366-9.937,27.357-9.937c16.436,0,31.594,9.624,38.618,24.52l4.044,8.574l9.047-2.833
		c4.112-1.288,8.403-1.94,12.758-1.94c23.536,0,42.684,19.176,42.684,42.745C421.481,198.458,402.334,217.635,378.797,217.635z"/>
	<circle fill="#FF994F" stroke="#FFFFFF" stroke-width="7" stroke-miterlimit="10" cx="356.552" cy="279.657" r="17.945"/>
	<circle fill="#FF994F" stroke="#FFFFFF" stroke-width="7" stroke-miterlimit="10" cx="303.568" cy="296.978" r="11.524"/>
	<circle fill="#FF994F" stroke="#FFFFFF" stroke-width="7" stroke-miterlimit="10" cx="311.101" cy="173.322" r="11.239"/>
	<circle fill="#FF994F" stroke="#FFFFFF" stroke-width="7" stroke-miterlimit="10" cx="347.226" cy="173.322" r="11.239"/>
</g>
<g>
	<g opacity="0.9">
		<path fill="#FFFFFF" d="M225.038,447.476c-113.744,0-206.007-3.034-206.007-6.775c0-3.737,92.263-6.77,206.007-6.77
			c113.744,0,205.993,3.033,205.993,6.77C431.031,444.441,338.782,447.476,225.038,447.476L225.038,447.476z"/>
		<path fill="#FEFEFE" d="M225.064,447.396c-112.661,0-204.046-3.002-204.046-6.704c0-3.699,91.384-6.7,204.046-6.7
			c112.661,0,204.032,3.001,204.032,6.7C429.096,444.393,337.726,447.396,225.064,447.396L225.064,447.396z"/>
		<path fill="#FDFDFD" d="M225.09,447.314c-111.579,0-202.085-2.971-202.085-6.633c0-3.66,90.506-6.629,202.085-6.629
			c111.578,0,202.07,2.969,202.07,6.629C427.16,444.344,336.667,447.314,225.09,447.314L225.09,447.314z"/>
		<path fill="#FCFCFC" d="M225.115,447.233c-110.496,0-200.123-2.938-200.123-6.563c0-3.621,89.628-6.559,200.123-6.559
			s200.109,2.938,200.109,6.559C425.225,444.295,335.61,447.233,225.115,447.233L225.115,447.233z"/>
		<path fill="#FBFBFB" d="M225.141,447.152c-109.413,0-198.162-2.907-198.162-6.492c0-3.582,88.749-6.486,198.162-6.486
			c109.413,0,198.148,2.905,198.148,6.486C423.289,444.245,334.554,447.152,225.141,447.152L225.141,447.152z"/>
		<path fill="#FAFAFA" d="M225.167,447.072c-108.33,0-196.201-2.876-196.201-6.421c0-3.543,87.871-6.417,196.201-6.417
			c108.328,0,196.186,2.874,196.186,6.417C421.354,444.196,333.495,447.072,225.167,447.072L225.167,447.072z"/>
		<path fill="#F9F9F9" d="M225.193,446.991c-107.247,0-194.239-2.844-194.239-6.35c0-3.504,86.992-6.347,194.239-6.347
			c107.245,0,194.225,2.843,194.225,6.347C419.418,444.147,332.438,446.991,225.193,446.991L225.193,446.991z"/>
		<path fill="#F8F8F8" d="M225.218,446.91c-106.164,0-192.278-2.812-192.278-6.278c0-3.466,86.114-6.275,192.278-6.275
			c106.162,0,192.264,2.811,192.264,6.275C417.482,444.099,331.381,446.91,225.218,446.91L225.218,446.91z"/>
		<path fill="#F7F7F7" d="M225.244,446.83c-105.081,0-190.317-2.779-190.317-6.208c0-3.426,85.235-6.205,190.317-6.205
			c105.079,0,190.302,2.779,190.302,6.205C415.547,444.05,330.323,446.83,225.244,446.83L225.244,446.83z"/>
		<path fill="#F6F6F6" d="M225.27,446.749c-103.998,0-188.355-2.749-188.355-6.137c0-3.387,84.357-6.134,188.355-6.134
			c103.997,0,188.341,2.747,188.341,6.134C413.611,444,329.267,446.749,225.27,446.749L225.27,446.749z"/>
		<path fill="#F5F5F5" d="M225.296,446.668c-102.916,0-186.394-2.717-186.394-6.066c0-3.348,83.479-6.063,186.394-6.063
			c102.913,0,186.379,2.717,186.379,6.063C411.675,443.951,328.209,446.668,225.296,446.668L225.296,446.668z"/>
		<path fill="#F4F4F4" d="M225.322,446.588c-101.833,0-184.433-2.686-184.433-5.996c0-3.31,82.6-5.992,184.433-5.992
			c101.83,0,184.418,2.684,184.418,5.992C409.74,443.902,327.151,446.588,225.322,446.588L225.322,446.588z"/>
		<path fill="#F3F3F3" d="M225.347,446.508c-100.75,0-182.472-2.654-182.472-5.926c0-3.27,81.722-5.922,182.472-5.922
			c100.747,0,182.458,2.652,182.458,5.922C407.805,443.854,326.094,446.508,225.347,446.508L225.347,446.508z"/>
		<path fill="#F2F2F2" d="M225.373,446.427c-99.667,0-180.51-2.622-180.51-5.854c0-3.23,80.843-5.851,180.51-5.851
			c99.664,0,180.496,2.62,180.496,5.851C405.869,443.805,325.037,446.427,225.373,446.427L225.373,446.427z"/>
		<path fill="#F1F1F1" d="M225.399,446.346c-98.584,0-178.549-2.59-178.549-5.783c0-3.192,79.965-5.78,178.549-5.78
			c98.581,0,178.534,2.589,178.534,5.78C403.934,443.756,323.98,446.346,225.399,446.346L225.399,446.346z"/>
		<path fill="#F0F0F0" d="M225.425,446.266c-97.501,0-176.588-2.559-176.588-5.712s79.087-5.71,176.588-5.71
			c97.498,0,176.573,2.557,176.573,5.71C401.998,443.706,322.922,446.266,225.425,446.266L225.425,446.266z"/>
		<path fill="#EFEFEF" d="M225.45,446.185c-96.418,0-174.626-2.527-174.626-5.642c0-3.113,78.208-5.639,174.626-5.639
			c96.414,0,174.612,2.525,174.612,5.639C400.063,443.657,321.865,446.185,225.45,446.185L225.45,446.185z"/>
		<path fill="#EEEEEE" d="M225.476,446.104c-95.335,0-172.665-2.495-172.665-5.571c0-3.075,77.33-5.567,172.665-5.567
			c95.332,0,172.65,2.493,172.65,5.567C398.127,443.608,320.809,446.104,225.476,446.104L225.476,446.104z"/>
		<path fill="#EDEDED" d="M225.502,446.023c-94.252,0-170.704-2.463-170.704-5.5c0-3.036,76.451-5.498,170.704-5.498
			c94.248,0,170.689,2.462,170.689,5.498S319.75,446.023,225.502,446.023L225.502,446.023z"/>
		<path fill="#ECECEC" d="M225.528,445.942c-93.17,0-168.742-2.431-168.742-5.429c0-2.997,75.573-5.428,168.742-5.428
			c93.165,0,168.728,2.431,168.728,5.428C394.255,443.511,318.693,445.942,225.528,445.942L225.528,445.942z"/>
		<path fill="#EBEBEB" d="M225.553,445.861c-92.086,0-166.78-2.4-166.78-5.357c0-2.959,74.694-5.356,166.78-5.356
			c92.082,0,166.767,2.399,166.767,5.356C392.32,443.461,317.637,445.861,225.553,445.861L225.553,445.861z"/>
		<path fill="#EAEAEA" d="M225.579,445.78c-91.004,0-164.82-2.368-164.82-5.287s73.816-5.285,164.82-5.285
			c90.999,0,164.805,2.367,164.805,5.285C390.384,443.412,316.578,445.78,225.579,445.78L225.579,445.78z"/>
		<path fill="#E9E9E9" d="M225.605,445.7c-89.921,0-162.859-2.336-162.859-5.216s72.938-5.215,162.859-5.215
			c89.916,0,162.844,2.335,162.844,5.215C388.449,443.363,315.521,445.7,225.605,445.7L225.605,445.7z"/>
		<path fill="#E8E8E8" d="M225.631,445.619c-88.837,0-160.896-2.305-160.896-5.146s72.059-5.145,160.896-5.145
			c88.833,0,160.883,2.304,160.883,5.145S314.464,445.619,225.631,445.619L225.631,445.619z"/>
		<path fill="#E7E7E7" d="M225.657,445.538c-87.755,0-158.936-2.272-158.936-5.074c0-2.803,71.181-5.073,158.936-5.073
			c87.75,0,158.921,2.271,158.921,5.073S313.406,445.538,225.657,445.538L225.657,445.538z"/>
		<path fill="#E6E6E6" d="M225.682,445.458c-86.671,0-156.975-2.24-156.975-5.004c0-2.763,70.302-5.003,156.975-5.003
			c86.668,0,156.961,2.24,156.961,5.003S312.35,445.458,225.682,445.458L225.682,445.458z"/>
		<path fill="#E5E5E5" d="M225.708,445.377c-85.589,0-155.013-2.209-155.013-4.933s69.424-4.932,155.013-4.932
			c85.584,0,154.998,2.208,154.998,4.932C380.707,443.167,311.292,445.377,225.708,445.377L225.708,445.377z"/>
		<path fill="#E4E4E4" d="M225.734,445.297c-84.507,0-153.052-2.179-153.052-4.862c0-2.686,68.546-4.861,153.052-4.861
			c84.501,0,153.037,2.177,153.037,4.861C378.771,443.118,310.234,445.297,225.734,445.297L225.734,445.297z"/>
		<path fill="#E3E3E3" d="M225.76,445.216c-83.423,0-151.09-2.146-151.09-4.791c0-2.646,67.667-4.79,151.09-4.79
			c83.418,0,151.076,2.145,151.076,4.79C376.835,443.069,309.178,445.216,225.76,445.216L225.76,445.216z"/>
		<path fill="#E2E2E2" d="M225.785,445.136c-82.341,0-149.129-2.114-149.129-4.721s66.789-4.72,149.129-4.72
			c82.334,0,149.114,2.113,149.114,4.72C374.9,443.021,308.12,445.136,225.785,445.136L225.785,445.136z"/>
		<path fill="#E1E1E1" d="M225.811,445.055c-81.257,0-147.167-2.083-147.167-4.65c0-2.566,65.91-4.648,147.167-4.648
			c81.252,0,147.153,2.082,147.153,4.648C372.964,442.973,307.063,445.055,225.811,445.055L225.811,445.055z"/>
		<path fill="#E0E0E0" d="M225.838,444.974c-80.176,0-145.208-2.051-145.208-4.579c0-2.529,65.032-4.578,145.208-4.578
			c80.167,0,145.191,2.05,145.191,4.578C371.029,442.924,306.005,444.974,225.838,444.974L225.838,444.974z"/>
		<path fill="#DFDFDF" d="M225.863,444.894c-79.092,0-143.246-2.02-143.246-4.508c0-2.49,64.153-4.509,143.246-4.509
			c79.085,0,143.23,2.019,143.23,4.509C369.094,442.874,304.948,444.894,225.863,444.894L225.863,444.894z"/>
		<path fill="#DEDEDE" d="M225.889,444.813c-78.009,0-141.284-1.987-141.284-4.438c0-2.449,63.275-4.437,141.284-4.437
			c78.002,0,141.269,1.986,141.269,4.437C367.158,442.825,303.891,444.813,225.889,444.813L225.889,444.813z"/>
		<path fill="#DDDDDD" d="M225.914,444.731c-76.926,0-139.323-1.956-139.323-4.366c0-2.411,62.397-4.366,139.323-4.366
			c76.919,0,139.309,1.955,139.309,4.366S302.833,444.731,225.914,444.731L225.914,444.731z"/>
		<path fill="#DCDCDC" d="M225.94,444.651c-75.843,0-137.362-1.924-137.362-4.295c0-2.372,61.518-4.296,137.362-4.296
			c75.836,0,137.347,1.923,137.347,4.296C363.287,442.728,301.776,444.651,225.94,444.651L225.94,444.651z"/>
		<path fill="#DBDBDB" d="M225.967,444.57c-74.762,0-135.4-1.892-135.4-4.224c0-2.333,60.64-4.226,135.4-4.226
			c74.752,0,135.385,1.892,135.385,4.226C361.352,442.679,300.719,444.57,225.967,444.57L225.967,444.57z"/>
		<path fill="#DADADA" d="M225.992,444.489c-73.678,0-133.439-1.86-133.439-4.154s59.761-4.153,133.439-4.153
			c73.67,0,133.424,1.859,133.424,4.153C359.415,442.63,299.661,444.489,225.992,444.489L225.992,444.489z"/>
		<path fill="#D9D9D9" d="M226.018,444.408c-72.595,0-131.479-1.829-131.479-4.083c0-2.255,58.883-4.083,131.479-4.083
			c72.587,0,131.463,1.828,131.463,4.083S298.604,444.408,226.018,444.408L226.018,444.408z"/>
		<path fill="#D9D9D9" d="M226.043,444.328c-71.512,0-129.516-1.797-129.516-4.012c0-2.216,58.005-4.013,129.516-4.013
			c71.504,0,129.501,1.796,129.501,4.013C355.544,442.531,297.547,444.328,226.043,444.328L226.043,444.328z"/>
		<path fill="#D8D8D8" d="M226.069,444.247c-70.429,0-127.555-1.765-127.555-3.94c0-2.177,57.126-3.942,127.555-3.942
			c70.42,0,127.54,1.766,127.54,3.942C353.609,442.482,296.489,444.247,226.069,444.247L226.069,444.247z"/>
		<path fill="#D7D7D7" d="M226.096,444.166c-69.347,0-125.594-1.733-125.594-3.869c0-2.139,56.248-3.871,125.594-3.871
			c69.337,0,125.578,1.732,125.578,3.871C351.673,442.434,295.433,444.166,226.096,444.166L226.096,444.166z"/>
		<path fill="#D6D6D6" d="M226.12,444.086c-68.263,0-123.633-1.701-123.633-3.799c0-2.099,55.369-3.801,123.633-3.801
			c68.254,0,123.617,1.701,123.617,3.801C349.738,442.385,294.375,444.086,226.12,444.086L226.12,444.086z"/>
		<path fill="#D5D5D5" d="M226.146,444.006c-67.18,0-121.671-1.671-121.671-3.729c0-2.06,54.491-3.729,121.671-3.729
			c67.171,0,121.656,1.669,121.656,3.729C347.803,442.335,293.317,444.006,226.146,444.006L226.146,444.006z"/>
		<path fill="#D4D4D4" d="M226.172,443.925c-66.098,0-119.709-1.639-119.709-3.658c0-2.021,53.612-3.659,119.709-3.659
			c66.088,0,119.695,1.638,119.695,3.659C345.867,442.286,292.26,443.925,226.172,443.925L226.172,443.925z"/>
		<path fill="#D3D3D3" d="M226.198,443.844c-65.015,0-117.749-1.607-117.749-3.587c0-1.982,52.734-3.589,117.749-3.589
			c65.005,0,117.733,1.606,117.733,3.589C343.932,442.237,291.203,443.844,226.198,443.844L226.198,443.844z"/>
		<path fill="#D2D2D2" d="M226.223,443.764c-63.932,0-115.787-1.575-115.787-3.517c0-1.942,51.856-3.518,115.787-3.518
			c63.923,0,115.772,1.574,115.772,3.518C341.995,442.188,290.146,443.764,226.223,443.764L226.223,443.764z"/>
		<path fill="#D1D1D1" d="M226.249,443.683c-62.849,0-113.826-1.543-113.826-3.445c0-1.904,50.977-3.447,113.826-3.447
			c62.839,0,113.812,1.543,113.812,3.447C340.061,442.14,289.088,443.683,226.249,443.683L226.249,443.683z"/>
		<path fill="#D0D0D0" d="M226.275,443.602c-61.766,0-111.865-1.512-111.865-3.374c0-1.865,50.099-3.376,111.865-3.376
			c61.756,0,111.849,1.511,111.849,3.376C338.124,442.091,288.031,443.602,226.275,443.602L226.275,443.602z"/>
		<path fill="#CFCFCF" d="M226.301,443.521c-60.683,0-109.902-1.48-109.902-3.303c0-1.826,49.22-3.307,109.902-3.307
			c60.674,0,109.889,1.479,109.889,3.307C336.189,442.041,286.974,443.521,226.301,443.521L226.301,443.521z"/>
		<path fill="#CECECE" d="M226.327,443.44c-59.6,0-107.942-1.448-107.942-3.233c0-1.786,48.342-3.234,107.942-3.234
			c59.59,0,107.927,1.448,107.927,3.234C334.253,441.992,285.916,443.44,226.327,443.44L226.327,443.44z"/>
		<path fill="#CDCDCD" d="M226.352,443.359c-58.516,0-105.98-1.416-105.98-3.162c0-1.748,47.464-3.164,105.98-3.164
			c58.507,0,105.966,1.416,105.966,3.164C332.318,441.943,284.859,443.359,226.352,443.359L226.352,443.359z"/>
		<path fill="#CCCCCC" d="M226.379,443.279c-57.435,0-104.021-1.385-104.021-3.091c0-1.709,46.585-3.094,104.021-3.094
			c57.422,0,104.003,1.384,104.003,3.094C330.382,441.895,283.801,443.279,226.379,443.279L226.379,443.279z"/>
		<path fill="#CBCBCB" d="M226.404,443.198c-56.352,0-102.058-1.353-102.058-3.02c0-1.67,45.707-3.023,102.058-3.023
			c56.34,0,102.043,1.353,102.043,3.023C328.446,441.846,282.744,443.198,226.404,443.198L226.404,443.198z"/>
		<path fill="#CACACA" d="M226.43,443.117c-55.269,0-100.097-1.32-100.097-2.949c0-1.631,44.828-2.951,100.097-2.951
			c55.258,0,100.082,1.32,100.082,2.951C326.512,441.797,281.688,443.117,226.43,443.117L226.43,443.117z"/>
		<path fill="#C9C9C9" d="M226.455,443.036c-54.186,0-98.136-1.29-98.136-2.878c0-1.592,43.95-2.881,98.136-2.881
			c54.174,0,98.12,1.289,98.12,2.881C324.575,441.747,280.629,443.036,226.455,443.036L226.455,443.036z"/>
		<path fill="#C8C8C8" d="M226.481,442.956c-53.103,0-96.174-1.258-96.174-2.807c0-1.553,43.071-2.811,96.174-2.811
			c53.091,0,96.159,1.257,96.159,2.811C322.641,441.698,279.572,442.956,226.481,442.956L226.481,442.956z"/>
		<path fill="#C7C7C7" d="M226.508,442.875c-52.021,0-94.213-1.226-94.213-2.736c0-1.515,42.193-2.74,94.213-2.74
			c52.008,0,94.196,1.226,94.196,2.74C320.704,441.649,278.516,442.875,226.508,442.875L226.508,442.875z"/>
		<path fill="#C6C6C6" d="M226.533,442.795c-50.937,0-92.252-1.194-92.252-2.666c0-1.476,41.315-2.67,92.252-2.67
			c50.925,0,92.236,1.194,92.236,2.67C318.77,441.601,277.458,442.795,226.533,442.795L226.533,442.795z"/>
		<path fill="#C5C5C5" d="M226.559,442.715c-49.854,0-90.291-1.163-90.291-2.596c0-1.436,40.436-2.599,90.291-2.599
			c49.842,0,90.274,1.162,90.274,2.599C316.833,441.552,276.4,442.715,226.559,442.715L226.559,442.715z"/>
		<path fill="#C4C4C4" d="M226.584,442.634c-48.771,0-88.329-1.132-88.329-2.524c0-1.396,39.558-2.528,88.329-2.528
			c48.76,0,88.313,1.132,88.313,2.528C314.898,441.502,275.344,442.634,226.584,442.634L226.584,442.634z"/>
		<path fill="#C3C3C3" d="M226.61,442.553c-47.689,0-86.368-1.1-86.368-2.453c0-1.358,38.679-2.457,86.368-2.457
			c47.676,0,86.352,1.099,86.352,2.457C312.962,441.453,274.286,442.553,226.61,442.553L226.61,442.553z"/>
		<path fill="#C2C2C2" d="M226.637,442.473c-46.606,0-84.407-1.068-84.407-2.382c0-1.319,37.801-2.387,84.407-2.387
			c46.593,0,84.391,1.067,84.391,2.387C311.026,441.404,273.229,442.473,226.637,442.473L226.637,442.473z"/>
		<path fill="#C1C1C1" d="M226.661,442.392c-45.523,0-82.445-1.036-82.445-2.312c0-1.279,36.922-2.315,82.445-2.315
			c45.509,0,82.429,1.035,82.429,2.315C309.091,441.355,272.172,442.392,226.661,442.392L226.661,442.392z"/>
		<path fill="#C0C0C0" d="M226.688,442.311c-44.44,0-80.484-1.004-80.484-2.241c0-1.241,36.044-2.245,80.484-2.245
			c44.426,0,80.468,1.004,80.468,2.245C307.155,441.307,271.114,442.311,226.688,442.311L226.688,442.311z"/>
		<path fill="#BFBFBF" d="M226.713,442.229c-43.356,0-78.522-0.972-78.522-2.17c0-1.202,35.166-2.174,78.522-2.174
			c43.344,0,78.508,0.972,78.508,2.174C305.221,441.258,270.057,442.229,226.713,442.229L226.713,442.229z"/>
		<path fill="#BEBEBE" d="M226.739,442.149c-42.274,0-76.561-0.941-76.561-2.099c0-1.163,34.287-2.104,76.561-2.104
			c42.26,0,76.545,0.94,76.545,2.104C303.284,441.208,268.999,442.149,226.739,442.149L226.739,442.149z"/>
		<path fill="#BDBDBD" d="M226.766,442.068c-41.191,0-74.601-0.909-74.601-2.028c0-1.124,33.409-2.032,74.601-2.032
			c41.177,0,74.584,0.908,74.584,2.032C301.35,441.159,267.942,442.068,226.766,442.068L226.766,442.068z"/>
		<path fill="#BCBCBC" d="M226.79,441.987c-40.108,0-72.639-0.877-72.639-1.957c0-1.085,32.53-1.962,72.639-1.962
			c40.095,0,72.623,0.877,72.623,1.962C299.413,441.11,266.885,441.987,226.79,441.987L226.79,441.987z"/>
		<path fill="#BBBBBB" d="M226.816,441.907c-39.025,0-70.677-0.845-70.677-1.886c0-1.046,31.652-1.891,70.677-1.891
			c39.011,0,70.661,0.845,70.661,1.891C297.479,441.062,265.827,441.907,226.816,441.907L226.816,441.907z"/>
		<path fill="#BABABA" d="M226.842,441.826c-37.942,0-68.715-0.813-68.715-1.814c0-1.007,30.774-1.821,68.715-1.821
			c37.929,0,68.7,0.813,68.7,1.821C295.542,441.013,264.771,441.826,226.842,441.826L226.842,441.826z"/>
		<path fill="#B9B9B9" d="M226.868,441.745c-36.86,0-66.755-0.781-66.755-1.745c0-0.968,29.895-1.75,66.755-1.75
			c36.845,0,66.739,0.782,66.739,1.75C293.606,440.964,263.713,441.745,226.868,441.745L226.868,441.745z"/>
		<path fill="#B8B8B8" d="M226.893,441.664c-35.776,0-64.793-0.75-64.793-1.674c0-0.929,29.017-1.679,64.793-1.679
			c35.763,0,64.778,0.75,64.778,1.679C291.671,440.914,262.655,441.664,226.893,441.664L226.893,441.664z"/>
		<path fill="#B7B7B7" d="M226.92,441.584c-34.695,0-62.833-0.719-62.833-1.603c0-0.89,28.138-1.609,62.833-1.609
			c34.678,0,62.815,0.719,62.815,1.609C289.735,440.865,261.598,441.584,226.92,441.584L226.92,441.584z"/>
		<path fill="#B6B6B6" d="M226.945,441.504c-33.611,0-60.871-0.688-60.871-1.532c0-0.852,27.26-1.538,60.871-1.538
			c33.596,0,60.854,0.687,60.854,1.538C287.8,440.816,260.54,441.504,226.945,441.504L226.945,441.504z"/>
		<path fill="#B5B5B5" d="M226.971,441.423c-32.527,0-58.91-0.655-58.91-1.462c0-0.812,26.381-1.467,58.91-1.467
			c32.513,0,58.895,0.655,58.895,1.467C285.864,440.768,259.483,441.423,226.971,441.423L226.971,441.423z"/>
		<path fill="#B4B4B4" d="M226.996,441.343c-31.445,0-56.948-0.623-56.948-1.391c0-0.772,25.503-1.396,56.948-1.396
			c31.43,0,56.933,0.623,56.933,1.396C283.93,440.719,258.426,441.343,226.996,441.343L226.996,441.343z"/>
		<path fill="#B3B3B3" d="M227.022,441.262c-30.362,0-54.987-0.593-54.987-1.319c0-0.734,24.625-1.326,54.987-1.326
			c30.346,0,54.971,0.592,54.971,1.326C281.993,440.67,257.368,441.262,227.022,441.262L227.022,441.262z"/>
	</g>
</g>
</svg>
