<?xml version="1.0" encoding="utf-8"?>
<!-- Generator: Adobe Illustrator 16.0.0, SVG Export Plug-In . SVG Version: 6.00 Build 0)  -->
<!DOCTYPE svg PUBLIC "-//W3C//DTD SVG 1.1//EN" "http://www.w3.org/Graphics/SVG/1.1/DTD/svg11.dtd">
<svg version="1.1" id="Layer_1" xmlns="http://www.w3.org/2000/svg" xmlns:xlink="http://www.w3.org/1999/xlink" x="0px" y="0px"
	 width="500px" height="500px" viewBox="-233.955 -238.824 500 500" enable-background="new -233.955 -238.824 500 500"
	 xml:space="preserve">
<g>
	<path fill="#FF994F" stroke="#FFFFFF" stroke-width="0.5" stroke-miterlimit="10" d="M110.12,35.039
		c-1.389-12.697,4.674-20.387,7.022-22.821c2.153,13.149,13.526,23.241,27.289,23.241c13.063,0,23.94-9.058,26.892-21.227
		c2.229,3.973,6.02,12.104,5.115,20.807c23.111-0.194,11.717-26.601-4.48-29.52c-0.129-1.368-0.236-2.703-0.538-3.985
		c-0.97-8.368-8.433-25.351-29.874-24.813c-18.48,0.42-22.508,14.345-23.478,22.81c-0.657,2.089-1.066,4.254-1.206,6.516
		C92.782,10.226,95.442,34.651,110.12,35.039z M131.422-0.134c0,0,2.369,0.829,2.369,8.551c4.092,1.421,11.189-12.029,11.189-12.029
		V6.963c4.512,1.228,18.728-0.388,18.728-0.388l0.538,0.453c0.012,0.226,0.098,0.463,0.098,0.678
		c0,10.985-8.949,19.902-19.935,19.902c-10.791,0-19.589-8.701-19.837-19.46C128.525,6.715,131.422-0.134,131.422-0.134z"/>
	<polygon fill="#FF994F" stroke="#FFFFFF" stroke-width="0.5" stroke-miterlimit="10" points="150.581,39.11 138.917,39.11 
		129.139,39.11 100.525,73.582 106.76,82.004 128.094,57.526 129.333,67.239 125.348,73.938 148.093,79.398 164.28,75.069 
		159.142,67.239 160.101,55.307 176.793,77.674 187.875,74.928 161.382,39.11 	"/>
	<polygon fill="#FF994F" stroke="#FFFFFF" stroke-width="0.5" stroke-miterlimit="10" points="121.094,103.036 170.58,88.778 
		167.101,76.705 149.773,81.713 145.928,82.812 117.616,90.964 	"/>
	<polygon fill="#FF994F" stroke="#FFFFFF" stroke-width="0.5" stroke-miterlimit="10" points="122.634,75.317 119.77,87.561 
		122.096,88.1 146.779,81.013 	"/>
	<polygon fill="#FF994F" stroke="#FFFFFF" stroke-width="0.5" stroke-miterlimit="10" points="153.09,95.401 171.419,99.709 
		174.305,87.486 171.602,86.84 172.044,88.368 172.454,89.812 171.01,90.232 	"/>
	<polygon fill="#FF994F" stroke="#FFFFFF" stroke-width="0.5" stroke-miterlimit="10" points="20.19,101.453 71.695,86.614 
		68.055,74.045 50.005,79.258 24.358,86.646 16.572,88.897 	"/>
	<polygon fill="#FF994F" stroke="#FFFFFF" stroke-width="0.5" stroke-miterlimit="10" points="75.561,85.267 72.729,84.588 
		73.181,86.182 73.612,87.68 72.125,88.11 53.473,93.494 72.556,97.975 	"/>
	<polygon fill="#FF994F" stroke="#FFFFFF" stroke-width="0.5" stroke-miterlimit="10" points="21.8,72.614 18.801,85.332 
		21.235,85.913 46.904,78.514 	"/>
	<path fill="#FF994F" stroke="#FFFFFF" stroke-width="0.5" stroke-miterlimit="10" d="M18.677,2.515
		c0,13.914,11.254,25.19,25.189,25.19c13.893,0,25.136-11.266,25.136-25.19c0-8.691,3.037-16.628-3.64-21.151
		c-3.995-2.714-21.668-4.017-26.892-4.017c-6.214,0-14.259,5.062-18.637,8.766C14.385-9.267,18.677-5.196,18.677,2.515z
		 M26.313,0.038c4.631-0.851,7.775,0.7,7.775,0.7l7.732-3.769c0,0-3.909,5.686-0.388,3.758c7.861-2.66,16.66-1.551,21.13-0.689
		c0.172,1.013,0.301,2.014,0.301,3.037c0,10.361-8.249,18.75-18.447,18.75c-10.167,0-18.405-8.389-18.405-18.75
		C26.022,2.063,26.162,1.061,26.313,0.038z"/>
	<polygon fill="#FF994F" stroke="#FFFFFF" stroke-width="0.5" stroke-miterlimit="10" points="90.175,68.078 61.572,32.949 
		28.305,32.949 -6.566,71.202 0.757,78.74 25.688,57.428 25.838,72.053 48.455,77.363 64.663,73.485 64.781,58.214 84.737,78.719 	
		"/>
	<path fill="#FF994F" stroke="#FFFFFF" stroke-width="0.5" stroke-miterlimit="10" d="M-99.775-109.562
		c14.646,0,26.514,11.868,26.514,26.504c0,14.646-11.868,26.514-26.514,26.514c-14.641,0-26.509-11.868-26.509-26.514
		C-126.284-97.694-114.417-109.562-99.775-109.562z"/>
	<polygon fill="#FF994F" stroke="#FFFFFF" stroke-width="0.5" stroke-miterlimit="10" points="-126.106,59.679 -139.848,89.963 
		-131.545,93.732 -116.075,59.679 -93.4,59.679 -78.533,93.678 -70.176,90.016 -83.427,59.679 -73.805,59.679 -73.805,45.969 
		-126.117,45.969 -144.71,-28.383 -158,-25.044 -136.817,59.679 	"/>
	<path fill="#FF994F" stroke="#FFFFFF" stroke-width="0.5" stroke-miterlimit="10" d="M-112.795-48.306l-4.491,90.14h10.963h4.292
		h6.273h18.922h1.157h10.436h12.175v55.807h23.854V23.289h-1.922h-21.932H-68l0,0H-79.33l0.178-44.909l25.717,24.134l0.011-0.075
		l2.105-0.883l-3.769,4.835l43.88-3.575l38.145-49.065l-0.258,0.021L16.76-64.083L4.063-44.385l-20.962,1.69l-16.364,21.076
		l-19.74,8.207l-29.654-34.893H-112.795z M-42.778-1.987l23.036-9.596l-5.438-13.063l10.597-13.645l31.528-2.563L-13.615-1.556
		l-31.506,2.552L-42.778-1.987z"/>
	
		<rect x="-149.013" y="120.386" fill="#FF994F" stroke="#FFFFFF" stroke-width="0.5" stroke-miterlimit="10" width="334.734" height="11.028"/>
</g>
<g>
	<g opacity="0.9">
		<path fill="#FFFFFF" d="M18.808,144.959c-113.744,0-206.007-3.034-206.007-6.775c0-3.737,92.263-6.77,206.007-6.77
			c113.744,0,205.993,3.033,205.993,6.77C224.801,141.925,132.552,144.959,18.808,144.959L18.808,144.959z"/>
		<path fill="#FEFEFE" d="M18.834,144.879c-112.661,0-204.046-3.002-204.046-6.704c0-3.699,91.384-6.7,204.046-6.7
			c112.661,0,204.032,3.001,204.032,6.7C222.866,141.876,131.496,144.879,18.834,144.879L18.834,144.879z"/>
		<path fill="#FDFDFD" d="M18.86,144.798c-111.579,0-202.084-2.971-202.084-6.633c0-3.66,90.506-6.629,202.084-6.629
			c111.578,0,202.07,2.969,202.07,6.629C220.93,141.827,130.437,144.798,18.86,144.798L18.86,144.798z"/>
		<path fill="#FCFCFC" d="M18.885,144.717c-110.496,0-200.123-2.938-200.123-6.563c0-3.621,89.628-6.559,200.123-6.559
			s200.109,2.938,200.109,6.559C218.995,141.779,129.38,144.717,18.885,144.717L18.885,144.717z"/>
		<path fill="#FBFBFB" d="M18.911,144.636c-109.413,0-198.161-2.907-198.161-6.492c0-3.582,88.749-6.486,198.161-6.486
			c109.413,0,198.148,2.905,198.148,6.486C217.059,141.729,128.324,144.636,18.911,144.636L18.911,144.636z"/>
		<path fill="#FAFAFA" d="M18.938,144.556c-108.331,0-196.202-2.876-196.202-6.421c0-3.543,87.871-6.417,196.202-6.417
			c108.327,0,196.186,2.874,196.186,6.417C215.124,141.68,127.265,144.556,18.938,144.556L18.938,144.556z"/>
		<path fill="#F9F9F9" d="M18.963,144.475c-107.247,0-194.239-2.844-194.239-6.35c0-3.504,86.992-6.347,194.239-6.347
			c107.245,0,194.225,2.843,194.225,6.347C213.188,141.631,126.208,144.475,18.963,144.475L18.963,144.475z"/>
		<path fill="#F8F8F8" d="M18.989,144.394c-106.165,0-192.278-2.812-192.278-6.278c0-3.466,86.114-6.275,192.278-6.275
			c106.161,0,192.264,2.811,192.264,6.275C211.252,141.582,125.151,144.394,18.989,144.394L18.989,144.394z"/>
		<path fill="#F7F7F7" d="M19.014,144.314c-105.081,0-190.317-2.779-190.317-6.208c0-3.426,85.235-6.205,190.317-6.205
			c105.079,0,190.302,2.779,190.302,6.205C209.317,141.533,124.093,144.314,19.014,144.314L19.014,144.314z"/>
		<path fill="#F6F6F6" d="M19.04,144.233c-103.997,0-188.354-2.749-188.354-6.137c0-3.387,84.357-6.134,188.354-6.134
			s188.342,2.747,188.342,6.134C207.381,141.484,123.037,144.233,19.04,144.233L19.04,144.233z"/>
		<path fill="#F5F5F5" d="M19.067,144.152c-102.917,0-186.395-2.717-186.395-6.066c0-3.348,83.479-6.063,186.395-6.063
			c102.912,0,186.379,2.717,186.379,6.063C205.445,141.435,121.979,144.152,19.067,144.152L19.067,144.152z"/>
		<path fill="#F4F4F4" d="M19.092,144.072c-101.833,0-184.433-2.686-184.433-5.996c0-3.31,82.6-5.992,184.433-5.992
			c101.83,0,184.418,2.684,184.418,5.992C203.51,141.386,120.921,144.072,19.092,144.072L19.092,144.072z"/>
		<path fill="#F3F3F3" d="M19.118,143.991c-100.75,0-182.473-2.654-182.473-5.926c0-3.27,81.722-5.922,182.473-5.922
			c100.746,0,182.457,2.652,182.457,5.922C201.575,141.337,119.864,143.991,19.118,143.991L19.118,143.991z"/>
		<path fill="#F2F2F2" d="M19.143,143.91c-99.667,0-180.51-2.622-180.51-5.854c0-3.23,80.843-5.851,180.51-5.851
			c99.664,0,180.496,2.62,180.496,5.851C199.639,141.288,118.807,143.91,19.143,143.91L19.143,143.91z"/>
		<path fill="#F1F1F1" d="M19.169,143.829c-98.584,0-178.549-2.59-178.549-5.783c0-3.192,79.965-5.78,178.549-5.78
			c98.581,0,178.534,2.589,178.534,5.78C197.704,141.24,117.75,143.829,19.169,143.829L19.169,143.829z"/>
		<path fill="#F0F0F0" d="M19.196,143.749c-97.501,0-176.588-2.559-176.588-5.712s79.087-5.71,176.588-5.71
			c97.497,0,176.572,2.557,176.572,5.71C195.768,141.19,116.692,143.749,19.196,143.749L19.196,143.749z"/>
		<path fill="#EFEFEF" d="M19.22,143.668c-96.418,0-174.626-2.527-174.626-5.642c0-3.113,78.208-5.639,174.626-5.639
			c96.414,0,174.612,2.525,174.612,5.639C193.833,141.141,115.635,143.668,19.22,143.668L19.22,143.668z"/>
		<path fill="#EEEEEE" d="M19.247,143.587c-95.335,0-172.666-2.495-172.666-5.571c0-3.075,77.33-5.567,172.666-5.567
			c95.331,0,172.649,2.493,172.649,5.567C191.897,141.092,114.579,143.587,19.247,143.587L19.247,143.587z"/>
		<path fill="#EDEDED" d="M19.272,143.507c-94.252,0-170.704-2.463-170.704-5.5c0-3.036,76.451-5.498,170.704-5.498
			c94.248,0,170.689,2.462,170.689,5.498S113.52,143.507,19.272,143.507L19.272,143.507z"/>
		<path fill="#ECECEC" d="M19.298,143.426c-93.17,0-168.742-2.431-168.742-5.429c0-2.997,75.573-5.428,168.742-5.428
			c93.165,0,168.728,2.431,168.728,5.428C188.025,140.994,112.463,143.426,19.298,143.426L19.298,143.426z"/>
		<path fill="#EBEBEB" d="M19.323,143.345c-92.086,0-166.78-2.4-166.78-5.357c0-2.959,74.694-5.356,166.78-5.356
			c92.082,0,166.767,2.399,166.767,5.356C186.09,140.945,111.407,143.345,19.323,143.345L19.323,143.345z"/>
		<path fill="#EAEAEA" d="M19.349,143.264c-91.004,0-164.82-2.368-164.82-5.287s73.816-5.285,164.82-5.285
			c90.999,0,164.805,2.367,164.805,5.285C184.154,140.896,110.348,143.264,19.349,143.264L19.349,143.264z"/>
		<path fill="#E9E9E9" d="M19.375,143.184c-89.921,0-162.859-2.336-162.859-5.216s72.938-5.215,162.859-5.215
			c89.916,0,162.844,2.335,162.844,5.215C182.219,140.847,109.292,143.184,19.375,143.184L19.375,143.184z"/>
		<path fill="#E8E8E8" d="M19.401,143.103c-88.837,0-160.896-2.305-160.896-5.146s72.059-5.145,160.896-5.145
			c88.833,0,160.883,2.304,160.883,5.145S108.234,143.103,19.401,143.103L19.401,143.103z"/>
		<path fill="#E7E7E7" d="M19.427,143.022c-87.755,0-158.936-2.272-158.936-5.074c0-2.803,71.181-5.073,158.936-5.073
			c87.75,0,158.921,2.271,158.921,5.073S107.176,143.022,19.427,143.022L19.427,143.022z"/>
		<path fill="#E6E6E6" d="M19.452,142.942c-86.671,0-156.975-2.24-156.975-5.004c0-2.763,70.302-5.003,156.975-5.003
			c86.668,0,156.961,2.24,156.961,5.003S106.12,142.942,19.452,142.942L19.452,142.942z"/>
		<path fill="#E5E5E5" d="M19.478,142.861c-85.589,0-155.013-2.209-155.013-4.933s69.424-4.932,155.013-4.932
			c85.584,0,154.998,2.208,154.998,4.932C174.477,140.651,105.062,142.861,19.478,142.861L19.478,142.861z"/>
		<path fill="#E4E4E4" d="M19.504,142.781c-84.507,0-153.052-2.179-153.052-4.862c0-2.686,68.546-4.861,153.052-4.861
			c84.501,0,153.037,2.177,153.037,4.861C172.542,140.602,104.004,142.781,19.504,142.781L19.504,142.781z"/>
		<path fill="#E3E3E3" d="M19.53,142.699c-83.423,0-151.09-2.146-151.09-4.791c0-2.646,67.667-4.79,151.09-4.79
			c83.418,0,151.076,2.145,151.076,4.79C170.605,140.553,102.948,142.699,19.53,142.699L19.53,142.699z"/>
		<path fill="#E2E2E2" d="M19.555,142.619c-82.341,0-149.129-2.114-149.129-4.721s66.789-4.72,149.129-4.72
			c82.334,0,149.114,2.113,149.114,4.72C168.67,140.504,101.89,142.619,19.555,142.619L19.555,142.619z"/>
		<path fill="#E1E1E1" d="M19.581,142.538c-81.257,0-147.167-2.083-147.167-4.65c0-2.566,65.91-4.648,147.167-4.648
			c81.252,0,147.153,2.082,147.153,4.648C166.734,140.456,100.833,142.538,19.581,142.538L19.581,142.538z"/>
		<path fill="#E0E0E0" d="M19.608,142.457c-80.176,0-145.208-2.051-145.208-4.579c0-2.529,65.032-4.578,145.208-4.578
			c80.167,0,145.191,2.05,145.191,4.578C164.799,140.407,99.775,142.457,19.608,142.457L19.608,142.457z"/>
		<path fill="#DFDFDF" d="M19.633,142.377c-79.092,0-143.246-2.02-143.246-4.508c0-2.49,64.153-4.509,143.246-4.509
			c79.085,0,143.23,2.019,143.23,4.509C162.864,140.358,98.718,142.377,19.633,142.377L19.633,142.377z"/>
		<path fill="#DEDEDE" d="M19.659,142.296c-78.009,0-141.284-1.987-141.284-4.438c0-2.449,63.275-4.437,141.284-4.437
			c78.002,0,141.269,1.986,141.269,4.437C160.928,140.309,97.661,142.296,19.659,142.296L19.659,142.296z"/>
		<path fill="#DDDDDD" d="M19.684,142.215c-76.926,0-139.323-1.956-139.323-4.366c0-2.411,62.397-4.366,139.323-4.366
			c76.919,0,139.309,1.955,139.309,4.366S96.603,142.215,19.684,142.215L19.684,142.215z"/>
		<path fill="#DCDCDC" d="M19.71,142.135c-75.843,0-137.362-1.924-137.362-4.295c0-2.372,61.518-4.296,137.362-4.296
			c75.836,0,137.347,1.923,137.347,4.296C157.057,140.211,95.546,142.135,19.71,142.135L19.71,142.135z"/>
		<path fill="#DBDBDB" d="M19.737,142.054c-74.762,0-135.4-1.892-135.4-4.224c0-2.333,60.64-4.226,135.4-4.226
			c74.752,0,135.385,1.892,135.385,4.226C155.122,140.162,94.489,142.054,19.737,142.054L19.737,142.054z"/>
		<path fill="#DADADA" d="M19.762,141.973c-73.678,0-133.439-1.86-133.439-4.154s59.761-4.153,133.439-4.153
			c73.67,0,133.424,1.859,133.424,4.153C153.185,140.114,93.431,141.973,19.762,141.973L19.762,141.973z"/>
		<path fill="#D9D9D9" d="M19.788,141.892c-72.595,0-131.479-1.829-131.479-4.083c0-2.255,58.883-4.083,131.479-4.083
			c72.587,0,131.463,1.828,131.463,4.083S92.375,141.892,19.788,141.892L19.788,141.892z"/>
		<path fill="#D9D9D9" d="M19.813,141.812c-71.512,0-129.516-1.797-129.516-4.012c0-2.216,58.005-4.013,129.516-4.013
			c71.504,0,129.501,1.796,129.501,4.013C149.314,140.015,91.317,141.812,19.813,141.812L19.813,141.812z"/>
		<path fill="#D8D8D8" d="M19.839,141.731c-70.429,0-127.555-1.765-127.555-3.94c0-2.177,57.126-3.942,127.555-3.942
			c70.42,0,127.54,1.766,127.54,3.942C147.379,139.966,90.259,141.731,19.839,141.731L19.839,141.731z"/>
		<path fill="#D7D7D7" d="M19.866,141.65c-69.347,0-125.594-1.733-125.594-3.869c0-2.139,56.248-3.871,125.594-3.871
			c69.337,0,125.578,1.732,125.578,3.871C145.443,139.917,89.203,141.65,19.866,141.65L19.866,141.65z"/>
		<path fill="#D6D6D6" d="M19.89,141.57c-68.263,0-123.633-1.701-123.633-3.799c0-2.099,55.369-3.801,123.633-3.801
			c68.254,0,123.617,1.701,123.617,3.801C143.508,139.868,88.145,141.57,19.89,141.57L19.89,141.57z"/>
		<path fill="#D5D5D5" d="M19.917,141.49c-67.18,0-121.671-1.671-121.671-3.729c0-2.06,54.491-3.729,121.671-3.729
			c67.171,0,121.656,1.669,121.656,3.729C141.573,139.819,87.087,141.49,19.917,141.49L19.917,141.49z"/>
		<path fill="#D4D4D4" d="M19.942,141.408c-66.098,0-119.709-1.639-119.709-3.658c0-2.021,53.612-3.659,119.709-3.659
			c66.088,0,119.695,1.638,119.695,3.659C139.637,139.77,86.03,141.408,19.942,141.408L19.942,141.408z"/>
		<path fill="#D3D3D3" d="M19.968,141.327c-65.015,0-117.749-1.607-117.749-3.587c0-1.982,52.734-3.589,117.749-3.589
			c65.005,0,117.733,1.606,117.733,3.589C137.702,139.721,84.973,141.327,19.968,141.327L19.968,141.327z"/>
		<path fill="#D2D2D2" d="M19.993,141.247c-63.932,0-115.787-1.575-115.787-3.517c0-1.942,51.856-3.518,115.787-3.518
			c63.923,0,115.772,1.574,115.772,3.518C135.765,139.672,83.916,141.247,19.993,141.247L19.993,141.247z"/>
		<path fill="#D1D1D1" d="M20.019,141.166c-62.849,0-113.826-1.543-113.826-3.445c0-1.904,50.977-3.447,113.826-3.447
			c62.839,0,113.812,1.543,113.812,3.447C133.831,139.623,82.858,141.166,20.019,141.166L20.019,141.166z"/>
		<path fill="#D0D0D0" d="M20.045,141.085c-61.766,0-111.865-1.512-111.865-3.374c0-1.865,50.099-3.376,111.865-3.376
			c61.756,0,111.849,1.511,111.849,3.376C131.894,139.574,81.801,141.085,20.045,141.085L20.045,141.085z"/>
		<path fill="#CFCFCF" d="M20.071,141.005c-60.683,0-109.902-1.48-109.902-3.303c0-1.826,49.22-3.307,109.902-3.307
			c60.674,0,109.889,1.479,109.889,3.307C129.959,139.525,80.744,141.005,20.071,141.005L20.071,141.005z"/>
		<path fill="#CECECE" d="M20.097,140.924c-59.6,0-107.942-1.448-107.942-3.233c0-1.786,48.342-3.234,107.942-3.234
			c59.59,0,107.927,1.448,107.927,3.234C128.023,139.476,79.686,140.924,20.097,140.924L20.097,140.924z"/>
		<path fill="#CDCDCD" d="M20.122,140.843c-58.516,0-105.98-1.416-105.98-3.162c0-1.748,47.464-3.164,105.98-3.164
			c58.507,0,105.966,1.416,105.966,3.164C126.088,139.427,78.629,140.843,20.122,140.843L20.122,140.843z"/>
		<path fill="#CCCCCC" d="M20.149,140.763c-57.435,0-104.021-1.385-104.021-3.091c0-1.709,46.585-3.094,104.021-3.094
			c57.422,0,104.003,1.384,104.003,3.094C124.152,139.378,77.571,140.763,20.149,140.763L20.149,140.763z"/>
		<path fill="#CBCBCB" d="M20.174,140.682c-56.352,0-102.058-1.353-102.058-3.02c0-1.67,45.707-3.023,102.058-3.023
			c56.34,0,102.043,1.353,102.043,3.023C122.216,139.329,76.514,140.682,20.174,140.682L20.174,140.682z"/>
		<path fill="#CACACA" d="M20.2,140.601c-55.269,0-100.097-1.32-100.097-2.949c0-1.631,44.828-2.951,100.097-2.951
			c55.258,0,100.082,1.32,100.082,2.951C120.282,139.281,75.458,140.601,20.2,140.601L20.2,140.601z"/>
		<path fill="#C9C9C9" d="M20.225,140.52c-54.186,0-98.136-1.29-98.136-2.878c0-1.592,43.95-2.881,98.136-2.881
			c54.174,0,98.12,1.289,98.12,2.881C118.345,139.231,74.399,140.52,20.225,140.52L20.225,140.52z"/>
		<path fill="#C8C8C8" d="M20.251,140.44c-53.103,0-96.174-1.258-96.174-2.807c0-1.553,43.071-2.811,96.174-2.811
			c53.091,0,96.159,1.257,96.159,2.811C116.411,139.182,73.342,140.44,20.251,140.44L20.251,140.44z"/>
		<path fill="#C7C7C7" d="M20.278,140.359c-52.021,0-94.213-1.226-94.213-2.736c0-1.515,42.193-2.74,94.213-2.74
			c52.008,0,94.196,1.226,94.196,2.74C114.474,139.133,72.286,140.359,20.278,140.359L20.278,140.359z"/>
		<path fill="#C6C6C6" d="M20.303,140.279c-50.937,0-92.252-1.194-92.252-2.666c0-1.476,41.315-2.67,92.252-2.67
			c50.925,0,92.236,1.194,92.236,2.67C112.54,139.084,71.228,140.279,20.303,140.279L20.303,140.279z"/>
		<path fill="#C5C5C5" d="M20.329,140.198c-49.854,0-90.291-1.163-90.291-2.596c0-1.436,40.436-2.599,90.291-2.599
			c49.842,0,90.274,1.162,90.274,2.599C110.603,139.035,70.17,140.198,20.329,140.198L20.329,140.198z"/>
		<path fill="#C4C4C4" d="M20.354,140.117c-48.771,0-88.329-1.132-88.329-2.524c0-1.396,39.558-2.528,88.329-2.528
			c48.76,0,88.313,1.132,88.313,2.528C108.668,138.986,69.114,140.117,20.354,140.117L20.354,140.117z"/>
		<path fill="#C3C3C3" d="M20.38,140.036c-47.689,0-86.368-1.1-86.368-2.453c0-1.358,38.679-2.457,86.368-2.457
			c47.676,0,86.352,1.099,86.352,2.457C106.732,138.937,68.056,140.036,20.38,140.036L20.38,140.036z"/>
		<path fill="#C2C2C2" d="M20.407,139.956c-46.606,0-84.407-1.068-84.407-2.382c0-1.319,37.801-2.387,84.407-2.387
			c46.593,0,84.391,1.067,84.391,2.387C104.796,138.888,66.999,139.956,20.407,139.956L20.407,139.956z"/>
		<path fill="#C1C1C1" d="M20.431,139.875c-45.523,0-82.445-1.036-82.445-2.312c0-1.279,36.922-2.315,82.445-2.315
			c45.509,0,82.429,1.035,82.429,2.315C102.861,138.839,65.942,139.875,20.431,139.875L20.431,139.875z"/>
		<path fill="#C0C0C0" d="M20.458,139.794c-44.44,0-80.484-1.004-80.484-2.241c0-1.241,36.044-2.245,80.484-2.245
			c44.426,0,80.468,1.004,80.468,2.245C100.925,138.79,64.884,139.794,20.458,139.794L20.458,139.794z"/>
		<path fill="#BFBFBF" d="M20.483,139.713c-43.356,0-78.522-0.972-78.522-2.17c0-1.202,35.166-2.174,78.522-2.174
			c43.344,0,78.508,0.972,78.508,2.174C98.991,138.741,63.827,139.713,20.483,139.713L20.483,139.713z"/>
		<path fill="#BEBEBE" d="M20.509,139.633c-42.274,0-76.561-0.941-76.561-2.099c0-1.163,34.287-2.104,76.561-2.104
			c42.26,0,76.545,0.94,76.545,2.104C97.054,138.692,62.769,139.633,20.509,139.633L20.509,139.633z"/>
		<path fill="#BDBDBD" d="M20.536,139.552c-41.191,0-74.601-0.909-74.601-2.028c0-1.124,33.409-2.032,74.601-2.032
			c41.177,0,74.584,0.908,74.584,2.032C95.12,138.643,61.712,139.552,20.536,139.552L20.536,139.552z"/>
		<path fill="#BCBCBC" d="M20.56,139.471c-40.108,0-72.639-0.877-72.639-1.957c0-1.085,32.53-1.962,72.639-1.962
			c40.095,0,72.623,0.877,72.623,1.962C93.183,138.594,60.655,139.471,20.56,139.471L20.56,139.471z"/>
		<path fill="#BBBBBB" d="M20.586,139.391c-39.025,0-70.677-0.845-70.677-1.886c0-1.046,31.652-1.891,70.677-1.891
			c39.011,0,70.661,0.845,70.661,1.891C91.249,138.545,59.597,139.391,20.586,139.391L20.586,139.391z"/>
		<path fill="#BABABA" d="M20.612,139.31c-37.942,0-68.715-0.813-68.715-1.814c0-1.007,30.774-1.821,68.715-1.821
			c37.929,0,68.7,0.813,68.7,1.821C89.312,138.496,58.541,139.31,20.612,139.31L20.612,139.31z"/>
		<path fill="#B9B9B9" d="M20.638,139.229c-36.86,0-66.755-0.781-66.755-1.745c0-0.968,29.895-1.75,66.755-1.75
			c36.845,0,66.739,0.782,66.739,1.75C87.376,138.448,57.483,139.229,20.638,139.229L20.638,139.229z"/>
		<path fill="#B8B8B8" d="M20.663,139.148c-35.776,0-64.793-0.75-64.793-1.674c0-0.929,29.017-1.679,64.793-1.679
			c35.763,0,64.778,0.75,64.778,1.679C85.441,138.398,56.425,139.148,20.663,139.148L20.663,139.148z"/>
		<path fill="#B7B7B7" d="M20.69,139.068c-34.695,0-62.833-0.719-62.833-1.603c0-0.89,28.138-1.609,62.833-1.609
			c34.678,0,62.815,0.719,62.815,1.609C83.505,138.349,55.368,139.068,20.69,139.068L20.69,139.068z"/>
		<path fill="#B6B6B6" d="M20.715,138.988c-33.611,0-60.871-0.688-60.871-1.532c0-0.852,27.26-1.538,60.871-1.538
			c33.596,0,60.854,0.687,60.854,1.538C81.57,138.3,54.31,138.988,20.715,138.988L20.715,138.988z"/>
		<path fill="#B5B5B5" d="M20.741,138.906c-32.527,0-58.91-0.655-58.91-1.462c0-0.812,26.381-1.467,58.91-1.467
			c32.513,0,58.895,0.655,58.895,1.467C79.634,138.251,53.253,138.906,20.741,138.906L20.741,138.906z"/>
		<path fill="#B4B4B4" d="M20.766,138.826c-31.445,0-56.948-0.623-56.948-1.391c0-0.772,25.503-1.396,56.948-1.396
			c31.43,0,56.933,0.623,56.933,1.396C77.7,138.202,52.196,138.826,20.766,138.826L20.766,138.826z"/>
		<path fill="#B3B3B3" d="M20.792,138.745c-30.362,0-54.987-0.593-54.987-1.319c0-0.734,24.625-1.326,54.987-1.326
			c30.346,0,54.971,0.592,54.971,1.326C75.763,138.154,51.138,138.745,20.792,138.745L20.792,138.745z"/>
	</g>
</g>
</svg>
