<?xml version="1.0" encoding="utf-8"?>
<!-- Generator: Adobe Illustrator 16.0.0, SVG Export Plug-In . SVG Version: 6.00 Build 0)  -->
<!DOCTYPE svg PUBLIC "-//W3C//DTD SVG 1.1//EN" "http://www.w3.org/Graphics/SVG/1.1/DTD/svg11.dtd">
<svg version="1.1" id="Layer_1" xmlns="http://www.w3.org/2000/svg" xmlns:xlink="http://www.w3.org/1999/xlink" x="0px" y="0px"
	 width="500px" height="500px" viewBox="-235.428 -235.198 500 500" enable-background="new -235.428 -235.198 500 500"
	 xml:space="preserve">
<path fill="#FF994F" stroke="#FFFFFF" stroke-width="0.5" stroke-miterlimit="10" d="M-78.519-52.8
	c12.455,0,22.569-14.456,22.569-26.9c0-12.476-10.114-22.58-22.569-22.58c-12.476,0-22.58,10.104-22.58,22.58
	C-101.099-67.256-90.995-52.8-78.519-52.8z"/>
<path fill="#FF994F" stroke="#FFFFFF" stroke-width="0.5" stroke-miterlimit="10" d="M-34.324-37.073
	c-0.159-0.646-0.307-1.303-0.604-1.896c-0.243-0.445-0.582-0.794-0.879-1.197c-0.402-0.53-0.773-1.049-1.281-1.494
	c-0.402-0.339-0.879-0.54-1.334-0.815c-0.456-0.254-0.836-0.635-1.356-0.826c-0.815-0.286-18.777-6.735-35.288-7.572l-2.267,4.533
	h-0.053l6.005,46.822l-7.138,12.476l-7.149-12.476l6.016-46.822h-0.074l-2.267-4.533c-16.5,0.858-34.462,7.287-35.278,7.572
	c-0.519,0.191-0.9,0.572-1.366,0.837c-0.456,0.265-0.911,0.456-1.313,0.794c-0.53,0.445-0.9,0.985-1.303,1.525
	c-0.286,0.392-0.614,0.72-0.848,1.154c-0.317,0.604-0.455,1.26-0.635,1.928c-0.106,0.413-0.318,0.752-0.381,1.165l-7.138,64.265
	c-0.551,4.903,2.976,9.319,7.89,9.87c0.339,0.032,0.667,0.054,0.996,0.054c4.491,0,8.356-3.39,8.865-7.934l6.503-58.524
	c0.762-0.233,1.599-0.466,2.488-0.72v60.929l-7.106,88.349c-0.477,5.889,3.919,11.057,9.818,11.522
	c0.286,0.021,0.572,0.021,0.879,0.021c5.518,0,10.199-4.247,10.654-9.85l6.429-79.823c1.323,0.582,2.785,0.922,4.321,0.922
	c1.546,0,2.997-0.34,4.321-0.922l6.418,79.823c0.456,5.624,5.137,9.85,10.654,9.85c0.297,0,0.583,0,0.879-0.021
	c5.899-0.477,10.294-5.645,9.818-11.522l-7.106-88.349v-60.929c0.89,0.254,1.715,0.487,2.478,0.72l6.502,58.524
	c0.509,4.555,4.374,7.934,8.865,7.934c0.339,0,0.657-0.021,0.996-0.054c4.903-0.54,8.43-4.967,7.89-9.87l-7.138-64.265
	C-33.985-36.321-34.218-36.67-34.324-37.073z"/>
<path fill="#FF994F" stroke="#FFFFFF" stroke-width="0.5" stroke-miterlimit="10" d="M70.949-77.561
	c-0.043-0.445-0.223-0.805-0.308-1.08l-0.18-0.572c-0.181-0.614-0.318-1.26-0.688-1.938c-0.223-0.392-0.477-0.73-0.73-1.08
	l-0.34-0.456c-0.392-0.519-0.794-1.059-1.377-1.567c-0.349-0.296-0.74-0.508-1.144-0.73l-0.381-0.212
	c-0.138-0.085-0.243-0.169-0.371-0.254c-0.286-0.211-0.688-0.487-1.175-0.667c-1.896-0.678-18.46-6.471-34.378-7.541
	c11.057-3.061,19.095-16.141,19.095-27.6c0-13.196-10.738-23.936-23.924-23.936c-13.197,0-23.936,10.739-23.936,23.936
	c0,11.459,8.038,24.539,19.116,27.6c-15.929,1.08-32.493,6.863-34.378,7.541c-0.519,0.18-0.9,0.466-1.218,0.678
	c-0.127,0.085-0.254,0.19-0.381,0.254l-0.36,0.19c-0.36,0.201-0.752,0.413-1.123,0.72c-0.604,0.498-1.027,1.07-1.546,1.769
	l-0.223,0.286c-0.265,0.328-0.519,0.657-0.72,1.048c-0.35,0.657-0.509,1.303-0.667,1.938l1.229,0.614l-1.419-0.032
	c-0.105,0.275-0.243,0.625-0.286,1.049l-7.138,64.275c-0.307,2.732,0.466,5.422,2.192,7.551c1.716,2.15,4.162,3.495,6.895,3.802
	c5.603,0.561,10.729-3.484,11.343-9.077l6.28-56.523v57.921l-7.106,88.338c-0.254,3.199,0.752,6.334,2.849,8.801
	c2.076,2.457,4.999,3.951,8.229,4.215c6.704,0.467,12.444-4.532,12.984-11.066l6.28-78.097c2.044,0.55,4.193,0.55,6.228,0
	l6.291,78.097c0.497,6.206,5.761,11.099,11.988,11.099c0.317,0,0.657-0.021,0.995-0.042c3.199-0.254,6.111-1.758,8.229-4.227
	c2.118-2.478,3.082-5.592,2.839-8.811L51.44-9.579v-58.006l6.27,56.523c0.614,5.592,5.688,9.648,11.354,9.076
	c5.635-0.636,9.712-5.719,9.087-11.354L70.949-77.561z"/>
<path fill="#FFFFFF" stroke="#FF994F" stroke-width="0.5" stroke-miterlimit="10" d="M3.803-121.238
	c0-11.703,9.521-21.224,21.224-21.224s21.213,9.521,21.213,21.224c0,11.576-9.468,25.545-21.213,25.545
	C13.271-95.693,3.803-109.662,3.803-121.238z"/>
<polygon fill="#FFFFFF" stroke="#FF994F" stroke-width="0.5" stroke-miterlimit="10" points="30.767,-41.32 25.027,-31.29 
	19.297,-41.32 25.027,-86.002 "/>
<path fill="#FFFFFF" stroke="#FF994F" stroke-width="0.5" stroke-miterlimit="10" d="M68.703-4.633
	c-4.088,0.498-7.911-2.563-8.366-6.693l-6.503-58.535l-0.105-0.9l-5.095-1.472v62.825l7.096,88.348
	c0.223,2.479-0.593,4.904-2.202,6.811c-1.6,1.906-3.866,3.061-6.365,3.262c-5.115,0.359-9.67-3.495-10.094-8.578l-6.566-81.74
	l-1.736,0.773c-2.457,1.07-5.126,1.07-7.562,0l-1.748-0.773l-6.577,81.74c-0.381,4.829-4.491,8.621-9.309,8.621
	c-0.265,0-0.509-0.021-0.763-0.043c-2.489-0.201-4.755-1.355-6.376-3.262c-1.62-1.906-2.394-4.321-2.203-6.811L1.346-9.526v-62.719
	l-5.083,1.472l-6.599,59.436c-0.455,4.12-4.236,7.18-8.366,6.693c-2.013-0.233-3.813-1.218-5.073-2.796
	c-1.271-1.589-1.832-3.559-1.609-5.582l7.127-64.265c0.011-0.063,0.074-0.212,0.127-0.339c0.074-0.201,0.159-0.402,0.286-0.932
	c0.138-0.519,0.244-0.974,0.445-1.355c0.127-0.222,0.275-0.402,0.423-0.593l0.445-0.572c0.328-0.434,0.614-0.815,0.964-1.123
	c0.169-0.138,0.392-0.254,0.678-0.413l0.445-0.233c0.201-0.117,0.392-0.254,0.583-0.392c0.223-0.148,0.402-0.286,0.562-0.35
	c0.741-0.265,18.057-6.439,34.018-7.445l1.747,3.474L16.448-40.79l8.579,14.954l8.547-14.922l-6.006-46.78l1.737-3.453
	c15.95,1.006,33.266,7.181,33.997,7.446c0.158,0.053,0.338,0.201,0.561,0.339c0.212,0.138,0.393,0.275,0.583,0.392l0.455,0.244
	c0.243,0.138,0.509,0.254,0.678,0.413c0.36,0.296,0.646,0.678,1.102,1.292l0.297,0.371c0.159,0.233,0.317,0.402,0.455,0.614
	c0.201,0.392,0.286,0.837,0.509,1.621c0.053,0.233,0.148,0.445,0.232,0.657c0.043,0.138,0.106,0.275,0.106,0.349l7.159,64.265
	C75.873-8.838,72.855-5.099,68.703-4.633z"/>
<path fill="#FF994F" stroke="#FFFFFF" stroke-width="0.5" stroke-miterlimit="10" d="M128.573-52.8
	c12.444,0,22.569-14.456,22.569-26.9c0-12.476-10.125-22.58-22.569-22.58c-12.454,0-22.579,10.104-22.579,22.58
	C105.994-67.256,116.107-52.8,128.573-52.8z"/>
<path fill="#FF994F" stroke="#FFFFFF" stroke-width="0.5" stroke-miterlimit="10" d="M173.15-35.886
	c-0.043-0.434-0.275-0.784-0.382-1.186c-0.169-0.646-0.286-1.303-0.614-1.896c-0.243-0.445-0.572-0.794-0.89-1.197
	c-0.392-0.53-0.763-1.049-1.271-1.494c-0.402-0.339-0.879-0.54-1.335-0.815c-0.455-0.254-0.837-0.635-1.355-0.826
	c-0.805-0.286-18.756-6.735-35.278-7.572l-2.276,4.533h-0.063l6.016,46.822l-7.148,12.476l-7.117-12.476l5.994-46.822h-0.063
	l-2.267-4.533c-16.5,0.858-34.483,7.287-35.268,7.572c-0.54,0.191-0.91,0.572-1.377,0.837c-0.444,0.265-0.91,0.456-1.292,0.794
	c-0.529,0.445-0.911,0.985-1.334,1.525c-0.265,0.392-0.614,0.72-0.826,1.154c-0.308,0.604-0.466,1.26-0.636,1.928
	c-0.105,0.413-0.317,0.752-0.381,1.165l-7.139,64.265c-0.529,4.903,2.986,9.319,7.9,9.87c0.34,0.032,0.689,0.054,1.027,0.054
	c4.47,0,8.346-3.39,8.822-7.934l6.535-58.524c0.73-0.233,1.578-0.466,2.468-0.72v60.929l-7.106,88.349
	c-0.467,5.889,3.918,11.057,9.828,11.522c0.297,0.021,0.572,0.021,0.868,0.021c5.518,0,10.21-4.247,10.654-9.85l6.418-79.823
	c1.335,0.582,2.774,0.922,4.3,0.922c1.536,0,3.008-0.34,4.311-0.922l6.439,79.823c0.455,5.624,5.158,9.85,10.654,9.85
	c0.275,0,0.593,0,0.868-0.021c5.91-0.477,10.284-5.645,9.808-11.522l-7.096-88.349v-60.929c0.889,0.254,1.705,0.487,2.478,0.72
	l6.524,58.524c0.508,4.555,4.353,7.934,8.832,7.934c0.329,0,0.678-0.021,0.996-0.054c4.903-0.54,8.441-4.967,7.9-9.87L173.15-35.886
	z"/>
<polygon fill="#FF994F" stroke="#FFFFFF" stroke-width="0.5" stroke-miterlimit="10" points="-14.689,109.281 -14.689,138.724 
	13.801,169.204 68.184,112.173 68.184,83.017 13.96,139.9 "/>
<g>
	<g opacity="0.9">
		<path fill="#FFFFFF" d="M26.754,182.749c-113.743,0-206.006-3.034-206.006-6.775c0-3.737,92.263-6.77,206.006-6.77
			c113.744,0,205.994,3.033,205.994,6.77C232.748,179.715,140.498,182.749,26.754,182.749L26.754,182.749z"/>
		<path fill="#FEFEFE" d="M26.781,182.669c-112.662,0-204.047-3.002-204.047-6.704c0-3.699,91.384-6.7,204.047-6.7
			c112.66,0,204.031,3.001,204.031,6.7C230.812,179.666,139.441,182.669,26.781,182.669L26.781,182.669z"/>
		<path fill="#FDFDFD" d="M26.806,182.588c-111.579,0-202.085-2.971-202.085-6.633c0-3.66,90.506-6.629,202.085-6.629
			c111.578,0,202.07,2.969,202.07,6.629C228.877,179.617,138.383,182.588,26.806,182.588L26.806,182.588z"/>
		<path fill="#FCFCFC" d="M26.832,182.507c-110.497,0-200.124-2.938-200.124-6.563c0-3.621,89.628-6.559,200.124-6.559
			c110.494,0,200.109,2.938,200.109,6.559C226.941,179.569,137.326,182.507,26.832,182.507L26.832,182.507z"/>
		<path fill="#FBFBFB" d="M26.857,182.426c-109.413,0-198.162-2.907-198.162-6.492c0-3.582,88.749-6.486,198.162-6.486
			c109.412,0,198.148,2.905,198.148,6.486C225.006,179.519,136.269,182.426,26.857,182.426L26.857,182.426z"/>
		<path fill="#FAFAFA" d="M26.884,182.346c-108.33,0-196.201-2.876-196.201-6.421c0-3.543,87.871-6.417,196.201-6.417
			c108.327,0,196.187,2.874,196.187,6.417C223.07,179.47,135.211,182.346,26.884,182.346L26.884,182.346z"/>
		<path fill="#F9F9F9" d="M26.91,182.265c-107.248,0-194.24-2.844-194.24-6.35c0-3.504,86.992-6.347,194.24-6.347
			c107.244,0,194.225,2.843,194.225,6.347C221.135,179.421,134.154,182.265,26.91,182.265L26.91,182.265z"/>
		<path fill="#F8F8F8" d="M26.934,182.184c-106.164,0-192.278-2.812-192.278-6.278c0-3.466,86.114-6.275,192.278-6.275
			c106.161,0,192.265,2.811,192.265,6.275C219.199,179.372,133.097,182.184,26.934,182.184L26.934,182.184z"/>
		<path fill="#F7F7F7" d="M26.961,182.104c-105.082,0-190.317-2.779-190.317-6.208c0-3.426,85.235-6.205,190.317-6.205
			c105.078,0,190.301,2.779,190.301,6.205C217.263,179.323,132.039,182.104,26.961,182.104L26.961,182.104z"/>
		<path fill="#F6F6F6" d="M26.986,182.023c-103.998,0-188.355-2.749-188.355-6.137c0-3.387,84.357-6.134,188.355-6.134
			c103.996,0,188.342,2.747,188.342,6.134C215.328,179.274,130.982,182.023,26.986,182.023L26.986,182.023z"/>
		<path fill="#F5F5F5" d="M27.012,181.942c-102.916,0-186.394-2.717-186.394-6.066c0-3.348,83.479-6.063,186.394-6.063
			c102.913,0,186.38,2.717,186.38,6.063C213.39,179.225,129.926,181.942,27.012,181.942L27.012,181.942z"/>
		<path fill="#F4F4F4" d="M27.039,181.862c-101.833,0-184.434-2.686-184.434-5.996c0-3.31,82.6-5.992,184.434-5.992
			c101.83,0,184.418,2.684,184.418,5.992C211.457,179.176,128.867,181.862,27.039,181.862L27.039,181.862z"/>
		<path fill="#F3F3F3" d="M27.063,181.781c-100.75,0-182.472-2.654-182.472-5.926c0-3.27,81.722-5.922,182.472-5.922
			c100.747,0,182.458,2.652,182.458,5.922C209.521,179.127,127.81,181.781,27.063,181.781L27.063,181.781z"/>
		<path fill="#F2F2F2" d="M27.09,181.7c-99.667,0-180.51-2.622-180.51-5.854c0-3.23,80.843-5.851,180.51-5.851
			c99.664,0,180.496,2.62,180.496,5.851C207.586,179.078,126.754,181.7,27.09,181.7L27.09,181.7z"/>
		<path fill="#F1F1F1" d="M27.115,181.619c-98.583,0-178.549-2.59-178.549-5.783c0-3.192,79.965-5.78,178.549-5.78
			c98.582,0,178.535,2.589,178.535,5.78C205.65,179.03,125.697,181.619,27.115,181.619L27.115,181.619z"/>
		<path fill="#F0F0F0" d="M27.141,181.539c-97.501,0-176.588-2.559-176.588-5.712s79.087-5.71,176.588-5.71
			c97.497,0,176.573,2.557,176.573,5.71C203.715,178.98,124.638,181.539,27.141,181.539L27.141,181.539z"/>
		<path fill="#EFEFEF" d="M27.166,181.458c-96.417,0-174.625-2.527-174.625-5.642c0-3.113,78.208-5.639,174.625-5.639
			c96.414,0,174.613,2.525,174.613,5.639C201.779,178.931,123.582,181.458,27.166,181.458L27.166,181.458z"/>
		<path fill="#EEEEEE" d="M27.192,181.377c-95.335,0-172.665-2.495-172.665-5.571c0-3.075,77.33-5.567,172.665-5.567
			c95.331,0,172.649,2.493,172.649,5.567C199.844,178.882,122.525,181.377,27.192,181.377L27.192,181.377z"/>
		<path fill="#EDEDED" d="M27.219,181.297c-94.252,0-170.704-2.463-170.704-5.5c0-3.036,76.451-5.498,170.704-5.498
			c94.248,0,170.689,2.462,170.689,5.498S121.467,181.297,27.219,181.297L27.219,181.297z"/>
		<path fill="#ECECEC" d="M27.244,181.216c-93.169,0-168.742-2.431-168.742-5.429c0-2.997,75.573-5.428,168.742-5.428
			c93.166,0,168.729,2.431,168.729,5.428C195.97,178.784,120.41,181.216,27.244,181.216L27.244,181.216z"/>
		<path fill="#EBEBEB" d="M27.269,181.135c-92.087,0-166.781-2.4-166.781-5.357c0-2.959,74.694-5.356,166.781-5.356
			c92.082,0,166.766,2.399,166.766,5.356C194.037,178.735,119.353,181.135,27.269,181.135L27.269,181.135z"/>
		<path fill="#EAEAEA" d="M27.295,181.054c-91.003,0-164.819-2.368-164.819-5.287s73.816-5.285,164.819-5.285
			c91,0,164.805,2.367,164.805,5.285C192.099,178.686,118.295,181.054,27.295,181.054L27.295,181.054z"/>
		<path fill="#E9E9E9" d="M27.322,180.974c-89.922,0-162.86-2.336-162.86-5.216s72.938-5.215,162.86-5.215
			c89.916,0,162.844,2.335,162.844,5.215C190.166,178.637,117.238,180.974,27.322,180.974L27.322,180.974z"/>
		<path fill="#E8E8E8" d="M27.347,180.893c-88.838,0-160.897-2.305-160.897-5.146s72.059-5.145,160.897-5.145
			c88.832,0,160.883,2.304,160.883,5.145S116.179,180.893,27.347,180.893L27.347,180.893z"/>
		<path fill="#E7E7E7" d="M27.373,180.812c-87.754,0-158.936-2.272-158.936-5.074c0-2.803,71.181-5.073,158.936-5.073
			c87.75,0,158.922,2.271,158.922,5.073S115.123,180.812,27.373,180.812L27.373,180.812z"/>
		<path fill="#E6E6E6" d="M27.398,180.732c-86.672,0-156.975-2.24-156.975-5.004c0-2.763,70.302-5.003,156.975-5.003
			c86.668,0,156.961,2.24,156.961,5.003S114.066,180.732,27.398,180.732L27.398,180.732z"/>
		<path fill="#E5E5E5" d="M27.424,180.651c-85.588,0-155.012-2.209-155.012-4.933s69.424-4.932,155.012-4.932
			c85.584,0,154.998,2.208,154.998,4.932C182.424,178.441,113.008,180.651,27.424,180.651L27.424,180.651z"/>
		<path fill="#E4E4E4" d="M27.451,180.571c-84.508,0-153.053-2.179-153.053-4.862c0-2.686,68.546-4.861,153.053-4.861
			c84.5,0,153.037,2.177,153.037,4.861C180.488,178.392,111.951,180.571,27.451,180.571L27.451,180.571z"/>
		<path fill="#E3E3E3" d="M27.476,180.49c-83.424,0-151.091-2.146-151.091-4.791c0-2.646,67.667-4.79,151.091-4.79
			c83.418,0,151.076,2.145,151.076,4.79C178.551,178.343,110.894,180.49,27.476,180.49L27.476,180.49z"/>
		<path fill="#E2E2E2" d="M27.502,180.409c-82.341,0-149.129-2.114-149.129-4.721s66.789-4.72,149.129-4.72
			c82.334,0,149.113,2.113,149.113,4.72C176.617,178.294,109.836,180.409,27.502,180.409L27.502,180.409z"/>
		<path fill="#E1E1E1" d="M27.527,180.328c-81.258,0-147.168-2.083-147.168-4.65c0-2.566,65.91-4.648,147.168-4.648
			c81.252,0,147.152,2.082,147.152,4.648C174.679,178.246,108.779,180.328,27.527,180.328L27.527,180.328z"/>
		<path fill="#E0E0E0" d="M27.554,180.247c-80.176,0-145.208-2.051-145.208-4.579c0-2.529,65.032-4.578,145.208-4.578
			c80.166,0,145.191,2.05,145.191,4.578C172.746,178.198,107.72,180.247,27.554,180.247L27.554,180.247z"/>
		<path fill="#DFDFDF" d="M27.58,180.167c-79.092,0-143.247-2.02-143.247-4.508c0-2.49,64.153-4.509,143.247-4.509
			c79.084,0,143.23,2.019,143.23,4.509C170.81,178.148,106.664,180.167,27.58,180.167L27.58,180.167z"/>
		<path fill="#DEDEDE" d="M27.605,180.086c-78.01,0-141.285-1.987-141.285-4.438c0-2.449,63.275-4.437,141.285-4.437
			c78.002,0,141.268,1.986,141.268,4.437C168.875,178.099,105.607,180.086,27.605,180.086L27.605,180.086z"/>
		<path fill="#DDDDDD" d="M27.631,180.005c-76.926,0-139.323-1.956-139.323-4.366c0-2.411,62.397-4.366,139.323-4.366
			c76.918,0,139.309,1.955,139.309,4.366S104.549,180.005,27.631,180.005L27.631,180.005z"/>
		<path fill="#DCDCDC" d="M27.656,179.925c-75.843,0-137.362-1.924-137.362-4.295c0-2.372,61.518-4.296,137.362-4.296
			c75.836,0,137.348,1.923,137.348,4.296C165.004,178.001,103.492,179.925,27.656,179.925L27.656,179.925z"/>
		<path fill="#DBDBDB" d="M27.683,179.844c-74.762,0-135.401-1.892-135.401-4.224c0-2.333,60.64-4.226,135.401-4.226
			c74.752,0,135.385,1.892,135.385,4.226C163.068,177.952,102.435,179.844,27.683,179.844L27.683,179.844z"/>
		<path fill="#DADADA" d="M27.709,179.763c-73.678,0-133.439-1.86-133.439-4.154s59.761-4.153,133.439-4.153
			c73.67,0,133.424,1.859,133.424,4.153C161.131,177.904,101.377,179.763,27.709,179.763L27.709,179.763z"/>
		<path fill="#D9D9D9" d="M27.734,179.682c-72.596,0-131.479-1.829-131.479-4.083c0-2.255,58.883-4.083,131.479-4.083
			c72.586,0,131.463,1.828,131.463,4.083S100.32,179.682,27.734,179.682L27.734,179.682z"/>
		<path fill="#D9D9D9" d="M27.76,179.602c-71.512,0-129.516-1.797-129.516-4.012c0-2.216,58.005-4.013,129.516-4.013
			c71.504,0,129.5,1.796,129.5,4.013C157.26,177.805,99.263,179.602,27.76,179.602L27.76,179.602z"/>
		<path fill="#D8D8D8" d="M27.785,179.521c-70.429,0-127.555-1.765-127.555-3.94c0-2.177,57.126-3.942,127.555-3.942
			c70.42,0,127.541,1.766,127.541,3.942C155.326,177.756,98.205,179.521,27.785,179.521L27.785,179.521z"/>
		<path fill="#D7D7D7" d="M27.812,179.44c-69.347,0-125.595-1.733-125.595-3.869c0-2.139,56.248-3.871,125.595-3.871
			c69.336,0,125.578,1.732,125.578,3.871C153.388,177.707,97.148,179.44,27.812,179.44L27.812,179.44z"/>
		<path fill="#D6D6D6" d="M27.836,179.36c-68.262,0-123.632-1.701-123.632-3.799c0-2.099,55.369-3.801,123.632-3.801
			c68.254,0,123.617,1.701,123.617,3.801C151.455,177.658,96.092,179.36,27.836,179.36L27.836,179.36z"/>
		<path fill="#D5D5D5" d="M27.863,179.28c-67.181,0-121.672-1.671-121.672-3.729c0-2.06,54.491-3.729,121.672-3.729
			c67.17,0,121.656,1.669,121.656,3.729C149.519,177.609,95.033,179.28,27.863,179.28L27.863,179.28z"/>
		<path fill="#D4D4D4" d="M27.888,179.198c-66.098,0-119.71-1.639-119.71-3.658c0-2.021,53.612-3.659,119.71-3.659
			c66.088,0,119.695,1.638,119.695,3.659C147.584,177.56,93.976,179.198,27.888,179.198L27.888,179.198z"/>
		<path fill="#D3D3D3" d="M27.914,179.117c-65.015,0-117.749-1.607-117.749-3.587c0-1.982,52.734-3.589,117.749-3.589
			c65.006,0,117.734,1.606,117.734,3.589C145.648,177.511,92.92,179.117,27.914,179.117L27.914,179.117z"/>
		<path fill="#D2D2D2" d="M27.939,179.037c-63.932,0-115.787-1.575-115.787-3.517c0-1.942,51.856-3.518,115.787-3.518
			c63.922,0,115.771,1.574,115.771,3.518C143.711,177.462,91.861,179.037,27.939,179.037L27.939,179.037z"/>
		<path fill="#D1D1D1" d="M27.965,178.956c-62.848,0-113.825-1.543-113.825-3.445c0-1.904,50.977-3.447,113.825-3.447
			c62.84,0,113.813,1.543,113.813,3.447C141.777,177.413,90.804,178.956,27.965,178.956L27.965,178.956z"/>
		<path fill="#D0D0D0" d="M27.992,178.875c-61.767,0-111.866-1.512-111.866-3.374c0-1.865,50.099-3.376,111.866-3.376
			c61.756,0,111.848,1.511,111.848,3.376C139.84,177.365,89.748,178.875,27.992,178.875L27.992,178.875z"/>
		<path fill="#CFCFCF" d="M28.017,178.795c-60.683,0-109.903-1.48-109.903-3.303c0-1.826,49.22-3.307,109.903-3.307
			c60.674,0,109.889,1.479,109.889,3.307C137.906,177.315,88.689,178.795,28.017,178.795L28.017,178.795z"/>
		<path fill="#CECECE" d="M28.043,178.714c-59.6,0-107.941-1.448-107.941-3.233c0-1.786,48.342-3.234,107.941-3.234
			c59.59,0,107.928,1.448,107.928,3.234C135.969,177.266,87.633,178.714,28.043,178.714L28.043,178.714z"/>
		<path fill="#CDCDCD" d="M28.068,178.633c-58.517,0-105.981-1.416-105.981-3.162c0-1.748,47.464-3.164,105.981-3.164
			c58.506,0,105.965,1.416,105.965,3.164C134.035,177.217,86.576,178.633,28.068,178.633L28.068,178.633z"/>
		<path fill="#CCCCCC" d="M28.095,178.553c-57.435,0-104.021-1.385-104.021-3.091c0-1.709,46.585-3.094,104.021-3.094
			c57.422,0,104.002,1.384,104.002,3.094C132.097,177.168,85.517,178.553,28.095,178.553L28.095,178.553z"/>
		<path fill="#CBCBCB" d="M28.121,178.472c-56.353,0-102.059-1.353-102.059-3.02c0-1.67,45.707-3.023,102.059-3.023
			c56.34,0,102.043,1.353,102.043,3.023C130.162,177.119,84.461,178.472,28.121,178.472L28.121,178.472z"/>
		<path fill="#CACACA" d="M28.146,178.391c-55.269,0-100.097-1.32-100.097-2.949c0-1.631,44.828-2.951,100.097-2.951
			c55.258,0,100.082,1.32,100.082,2.951C128.228,177.071,83.404,178.391,28.146,178.391L28.146,178.391z"/>
		<path fill="#C9C9C9" d="M28.172,178.31c-54.187,0-98.136-1.29-98.136-2.878c0-1.592,43.95-2.881,98.136-2.881
			c54.174,0,98.119,1.289,98.119,2.881C126.291,177.021,82.345,178.31,28.172,178.31L28.172,178.31z"/>
		<path fill="#C8C8C8" d="M28.197,178.23c-53.103,0-96.174-1.258-96.174-2.807c0-1.553,43.071-2.811,96.174-2.811
			c53.092,0,96.16,1.257,96.16,2.811C124.357,176.972,81.289,178.23,28.197,178.23L28.197,178.23z"/>
		<path fill="#C7C7C7" d="M28.224,178.149c-52.021,0-94.214-1.226-94.214-2.736c0-1.515,42.193-2.74,94.214-2.74
			c52.008,0,94.195,1.226,94.195,2.74C122.42,176.923,80.232,178.149,28.224,178.149L28.224,178.149z"/>
		<path fill="#C6C6C6" d="M28.25,178.069c-50.938,0-92.252-1.194-92.252-2.666c0-1.476,41.315-2.67,92.252-2.67
			c50.924,0,92.236,1.194,92.236,2.67C120.486,176.874,79.174,178.069,28.25,178.069L28.25,178.069z"/>
		<path fill="#C5C5C5" d="M28.275,177.989c-49.855,0-90.291-1.163-90.291-2.596c0-1.436,40.436-2.599,90.291-2.599
			c49.842,0,90.273,1.162,90.273,2.599C118.549,176.825,78.117,177.989,28.275,177.989L28.275,177.989z"/>
		<path fill="#C4C4C4" d="M28.301,177.907c-48.771,0-88.329-1.132-88.329-2.524c0-1.396,39.558-2.528,88.329-2.528
			c48.76,0,88.313,1.132,88.313,2.528C116.615,176.776,77.06,177.907,28.301,177.907L28.301,177.907z"/>
		<path fill="#C3C3C3" d="M28.326,177.826c-47.688,0-86.368-1.1-86.368-2.453c0-1.358,38.679-2.457,86.368-2.457
			c47.676,0,86.352,1.099,86.352,2.457C114.677,176.727,76.002,177.826,28.326,177.826L28.326,177.826z"/>
		<path fill="#C2C2C2" d="M28.353,177.746c-46.607,0-84.408-1.068-84.408-2.382c0-1.319,37.801-2.387,84.408-2.387
			c46.592,0,84.391,1.067,84.391,2.387C112.742,176.678,74.945,177.746,28.353,177.746L28.353,177.746z"/>
		<path fill="#C1C1C1" d="M28.377,177.665c-45.522,0-82.444-1.036-82.444-2.312c0-1.279,36.922-2.315,82.444-2.315
			c45.51,0,82.43,1.035,82.43,2.315C110.806,176.629,73.888,177.665,28.377,177.665L28.377,177.665z"/>
		<path fill="#C0C0C0" d="M28.404,177.584c-44.441,0-80.485-1.004-80.485-2.241c0-1.241,36.044-2.245,80.485-2.245
			c44.426,0,80.467,1.004,80.467,2.245C108.871,176.58,72.83,177.584,28.404,177.584L28.404,177.584z"/>
		<path fill="#BFBFBF" d="M28.429,177.503c-43.357,0-78.523-0.972-78.523-2.17c0-1.202,35.166-2.174,78.523-2.174
			c43.344,0,78.508,0.972,78.508,2.174C106.937,176.531,71.773,177.503,28.429,177.503L28.429,177.503z"/>
		<path fill="#BEBEBE" d="M28.455,177.423c-42.273,0-76.561-0.941-76.561-2.099c0-1.163,34.287-2.104,76.561-2.104
			c42.26,0,76.545,0.94,76.545,2.104C105,176.482,70.715,177.423,28.455,177.423L28.455,177.423z"/>
		<path fill="#BDBDBD" d="M28.482,177.342c-41.192,0-74.601-0.909-74.601-2.028c0-1.124,33.409-2.032,74.601-2.032
			c41.176,0,74.584,0.908,74.584,2.032C103.066,176.433,69.658,177.342,28.482,177.342L28.482,177.342z"/>
		<path fill="#BCBCBC" d="M28.506,177.261c-40.107,0-72.638-0.877-72.638-1.957c0-1.085,32.53-1.962,72.638-1.962
			c40.096,0,72.623,0.877,72.623,1.962C101.129,176.384,68.601,177.261,28.506,177.261L28.506,177.261z"/>
		<path fill="#BBBBBB" d="M28.533,177.181c-39.026,0-70.678-0.845-70.678-1.886c0-1.046,31.652-1.891,70.678-1.891
			c39.01,0,70.66,0.845,70.66,1.891C99.195,176.335,67.543,177.181,28.533,177.181L28.533,177.181z"/>
		<path fill="#BABABA" d="M28.558,177.1c-37.943,0-68.716-0.813-68.716-1.814c0-1.007,30.774-1.821,68.716-1.821
			c37.928,0,68.699,0.813,68.699,1.821C97.258,176.286,66.486,177.1,28.558,177.1L28.558,177.1z"/>
		<path fill="#B9B9B9" d="M28.584,177.019c-36.859,0-66.754-0.781-66.754-1.745c0-0.968,29.895-1.75,66.754-1.75
			c36.846,0,66.74,0.782,66.74,1.75C95.322,176.238,65.429,177.019,28.584,177.019L28.584,177.019z"/>
		<path fill="#B8B8B8" d="M28.609,176.938c-35.777,0-64.794-0.75-64.794-1.674c0-0.929,29.017-1.679,64.794-1.679
			c35.762,0,64.777,0.75,64.777,1.679C93.386,176.188,64.371,176.938,28.609,176.938L28.609,176.938z"/>
		<path fill="#B7B7B7" d="M28.636,176.858c-34.695,0-62.833-0.719-62.833-1.603c0-0.89,28.138-1.609,62.833-1.609
			c34.678,0,62.814,0.719,62.814,1.609C91.451,176.139,63.314,176.858,28.636,176.858L28.636,176.858z"/>
		<path fill="#B6B6B6" d="M28.662,176.778c-33.611,0-60.872-0.688-60.872-1.532c0-0.852,27.26-1.538,60.872-1.538
			c33.596,0,60.854,0.687,60.854,1.538C89.515,176.09,62.256,176.778,28.662,176.778L28.662,176.778z"/>
		<path fill="#B5B5B5" d="M28.687,176.697c-32.528,0-58.91-0.655-58.91-1.462c0-0.812,26.381-1.467,58.91-1.467
			c32.512,0,58.895,0.655,58.895,1.467C87.58,176.041,61.199,176.697,28.687,176.697L28.687,176.697z"/>
		<path fill="#B4B4B4" d="M28.713,176.616c-31.445,0-56.948-0.623-56.948-1.391c0-0.772,25.503-1.396,56.948-1.396
			c31.43,0,56.932,0.623,56.932,1.396C85.646,175.992,60.142,176.616,28.713,176.616L28.713,176.616z"/>
		<path fill="#B3B3B3" d="M28.738,176.535c-30.362,0-54.987-0.593-54.987-1.319c0-0.734,24.625-1.326,54.987-1.326
			c30.346,0,54.971,0.592,54.971,1.326C83.709,175.944,59.084,176.535,28.738,176.535L28.738,176.535z"/>
	</g>
</g>
</svg>
