<?xml version="1.0" encoding="utf-8"?>
<!-- Generator: Adobe Illustrator 16.0.0, SVG Export Plug-In . SVG Version: 6.00 Build 0)  -->
<!DOCTYPE svg PUBLIC "-//W3C//DTD SVG 1.1//EN" "http://www.w3.org/Graphics/SVG/1.1/DTD/svg11.dtd">
<svg version="1.1" id="Layer_12" xmlns="http://www.w3.org/2000/svg" xmlns:xlink="http://www.w3.org/1999/xlink" x="0px" y="0px"
	 width="500px" height="500px" viewBox="-200 -200 500 500" enable-background="new -200 -200 500 500" xml:space="preserve">
<g>
	<path fill="#FF994F" stroke="#FFFFFF" stroke-width="2" stroke-miterlimit="10" d="M166.416,166.636V-97.647
		c0-1.022-0.829-1.853-1.854-1.853h-5.059H-44.09c-12.32,0-22.345,10.109-22.345,22.539v257.316c0,3.221,0.686,6.278,1.9,9.059
		c2.209,7.759,9.273,13.479,17.743,13.479h2.702h166.536h10.491c0.908,0,1.78-0.141,2.656-0.268c0.13,0.033,0.253,0.084,0.395,0.084
		c0.083,0,0.166,0,0.25,0c8.635,0,15.619-2.719,20.769-8.085C167.114,184.097,166.445,167.262,166.416,166.636z M98.174,55.397
		H67.602v75.968H32.397V55.397H1.825V20.191h30.573v-25.94h35.204v25.94h30.572V55.397z M132.938-81.219H-62.206
		c1.923-8.331,9.293-14.575,18.116-14.575h203.594c0.427,0,0.771,0.015,1.042,0.038c-0.662,0.814-1.791,1.959-2.696,2.868
		c-3.944,3.99-9.351,9.453-9.351,15.923v4.272C145.198-77.81,139.48-81.219,132.938-81.219z M154.332,192.059
		c-2.294,2.392-5.048,4.157-8.222,5.315c3.155-3.191,5.109-7.542,5.283-12.344c0.521-1.502,0.808-3.065,0.808-4.68V-76.961
		c0-4.947,4.787-9.788,8.283-13.319c0.84-0.847,1.585-1.61,2.223-2.324v259.327C162.717,166.882,163.351,182.667,154.332,192.059z"
		/>
	<path fill="#FF994F" stroke="#FFFFFF" stroke-width="2" stroke-miterlimit="10" d="M62.043-0.187H37.956v25.94H7.384v24.085h30.572
		v75.968h24.087V49.839h30.572V25.753H62.043V-0.187z M56.484,120.248h-12.97V44.279H12.942v-12.97h30.572V5.368h12.97v25.94h30.572
		v12.97H56.484"/>
</g>
<g>
	<g opacity="0.9">
		<path fill="#FFFFFF" d="M32.587,222.359c-113.744,0-206.007-3.034-206.007-6.775c0-3.737,92.263-6.77,206.007-6.77
			c113.744,0,205.993,3.033,205.993,6.77C238.58,219.325,146.331,222.359,32.587,222.359L32.587,222.359z"/>
		<path fill="#FEFEFE" d="M32.613,222.279c-112.661,0-204.046-3.002-204.046-6.704c0-3.699,91.384-6.7,204.046-6.7
			c112.661,0,204.032,3.001,204.032,6.7C236.645,219.276,145.274,222.279,32.613,222.279L32.613,222.279z"/>
		<path fill="#FDFDFD" d="M32.639,222.198c-111.579,0-202.085-2.971-202.085-6.633c0-3.66,90.506-6.629,202.085-6.629
			c111.578,0,202.07,2.969,202.07,6.629C234.709,219.228,144.216,222.198,32.639,222.198L32.639,222.198z"/>
		<path fill="#FCFCFC" d="M32.664,222.117c-110.496,0-200.123-2.938-200.123-6.563c0-3.621,89.628-6.559,200.123-6.559
			s200.109,2.938,200.109,6.559C232.773,219.179,143.159,222.117,32.664,222.117L32.664,222.117z"/>
		<path fill="#FBFBFB" d="M32.69,222.036c-109.413,0-198.162-2.907-198.162-6.492c0-3.582,88.749-6.486,198.162-6.486
			c109.413,0,198.148,2.905,198.148,6.486C230.838,219.129,142.103,222.036,32.69,222.036L32.69,222.036z"/>
		<path fill="#FAFAFA" d="M32.716,221.956c-108.33,0-196.201-2.876-196.201-6.421c0-3.543,87.871-6.417,196.201-6.417
			c108.328,0,196.186,2.874,196.186,6.417C228.902,219.08,141.044,221.956,32.716,221.956L32.716,221.956z"/>
		<path fill="#F9F9F9" d="M32.742,221.875c-107.247,0-194.239-2.844-194.239-6.35c0-3.504,86.992-6.347,194.239-6.347
			c107.245,0,194.225,2.843,194.225,6.347C226.967,219.031,139.987,221.875,32.742,221.875L32.742,221.875z"/>
		<path fill="#F8F8F8" d="M32.767,221.794c-106.164,0-192.278-2.812-192.278-6.278c0-3.466,86.114-6.275,192.278-6.275
			c106.162,0,192.264,2.811,192.264,6.275C225.031,218.982,138.93,221.794,32.767,221.794L32.767,221.794z"/>
		<path fill="#F7F7F7" d="M32.793,221.714c-105.081,0-190.317-2.779-190.317-6.208c0-3.426,85.235-6.205,190.317-6.205
			c105.079,0,190.302,2.779,190.302,6.205C223.096,218.934,137.872,221.714,32.793,221.714L32.793,221.714z"/>
		<path fill="#F6F6F6" d="M32.819,221.633c-103.998,0-188.355-2.749-188.355-6.137c0-3.387,84.357-6.134,188.355-6.134
			c103.997,0,188.341,2.747,188.341,6.134C221.16,218.884,136.815,221.633,32.819,221.633L32.819,221.633z"/>
		<path fill="#F5F5F5" d="M32.845,221.552c-102.916,0-186.394-2.717-186.394-6.066c0-3.348,83.479-6.063,186.394-6.063
			c102.913,0,186.379,2.717,186.379,6.063C219.224,218.835,135.758,221.552,32.845,221.552L32.845,221.552z"/>
		<path fill="#F4F4F4" d="M32.871,221.472c-101.833,0-184.433-2.686-184.433-5.996c0-3.31,82.6-5.992,184.433-5.992
			c101.83,0,184.418,2.684,184.418,5.992C217.289,218.786,134.7,221.472,32.871,221.472L32.871,221.472z"/>
		<path fill="#F3F3F3" d="M32.896,221.392c-100.75,0-182.472-2.654-182.472-5.926c0-3.27,81.722-5.922,182.472-5.922
			c100.747,0,182.458,2.652,182.458,5.922C215.354,218.737,133.643,221.392,32.896,221.392L32.896,221.392z"/>
		<path fill="#F2F2F2" d="M32.922,221.311c-99.667,0-180.51-2.622-180.51-5.854c0-3.23,80.843-5.851,180.51-5.851
			c99.664,0,180.496,2.62,180.496,5.851C213.418,218.688,132.586,221.311,32.922,221.311L32.922,221.311z"/>
		<path fill="#F1F1F1" d="M32.948,221.229c-98.584,0-178.549-2.59-178.549-5.783c0-3.192,79.965-5.78,178.549-5.78
			c98.581,0,178.534,2.589,178.534,5.78C211.482,218.64,131.529,221.229,32.948,221.229L32.948,221.229z"/>
		<path fill="#F0F0F0" d="M32.974,221.149c-97.501,0-176.588-2.559-176.588-5.712s79.087-5.71,176.588-5.71
			c97.498,0,176.573,2.557,176.573,5.71C209.547,218.59,130.471,221.149,32.974,221.149L32.974,221.149z"/>
		<path fill="#EFEFEF" d="M32.999,221.068c-96.418,0-174.626-2.527-174.626-5.642c0-3.113,78.208-5.639,174.626-5.639
			c96.414,0,174.612,2.525,174.612,5.639C207.611,218.541,129.414,221.068,32.999,221.068L32.999,221.068z"/>
		<path fill="#EEEEEE" d="M33.025,220.987c-95.335,0-172.665-2.495-172.665-5.571c0-3.075,77.33-5.567,172.665-5.567
			c95.332,0,172.65,2.493,172.65,5.567C205.676,218.492,128.357,220.987,33.025,220.987L33.025,220.987z"/>
		<path fill="#EDEDED" d="M33.051,220.907c-94.252,0-170.704-2.463-170.704-5.5c0-3.036,76.451-5.498,170.704-5.498
			c94.248,0,170.689,2.462,170.689,5.498S127.299,220.907,33.051,220.907L33.051,220.907z"/>
		<path fill="#ECECEC" d="M33.077,220.826c-93.17,0-168.742-2.431-168.742-5.429c0-2.997,75.573-5.428,168.742-5.428
			c93.165,0,168.728,2.431,168.728,5.428C201.804,218.395,126.242,220.826,33.077,220.826L33.077,220.826z"/>
		<path fill="#EBEBEB" d="M33.102,220.745c-92.086,0-166.78-2.4-166.78-5.357c0-2.959,74.694-5.356,166.78-5.356
			c92.082,0,166.767,2.399,166.767,5.356C199.869,218.345,125.186,220.745,33.102,220.745L33.102,220.745z"/>
		<path fill="#EAEAEA" d="M33.128,220.664c-91.004,0-164.82-2.368-164.82-5.287s73.816-5.285,164.82-5.285
			c90.999,0,164.805,2.367,164.805,5.285C197.933,218.296,124.127,220.664,33.128,220.664L33.128,220.664z"/>
		<path fill="#E9E9E9" d="M33.154,220.584c-89.921,0-162.859-2.336-162.859-5.216s72.938-5.215,162.859-5.215
			c89.916,0,162.844,2.335,162.844,5.215C195.998,218.247,123.07,220.584,33.154,220.584L33.154,220.584z"/>
		<path fill="#E8E8E8" d="M33.18,220.503c-88.837,0-160.896-2.305-160.896-5.146s72.059-5.145,160.896-5.145
			c88.833,0,160.883,2.304,160.883,5.145S122.013,220.503,33.18,220.503L33.18,220.503z"/>
		<path fill="#E7E7E7" d="M33.206,220.422c-87.755,0-158.936-2.272-158.936-5.074c0-2.803,71.181-5.073,158.936-5.073
			c87.75,0,158.921,2.271,158.921,5.073S120.955,220.422,33.206,220.422L33.206,220.422z"/>
		<path fill="#E6E6E6" d="M33.23,220.342c-86.671,0-156.975-2.24-156.975-5.004c0-2.763,70.302-5.003,156.975-5.003
			c86.668,0,156.961,2.24,156.961,5.003S119.898,220.342,33.23,220.342L33.23,220.342z"/>
		<path fill="#E5E5E5" d="M33.257,220.261c-85.589,0-155.013-2.209-155.013-4.933s69.424-4.932,155.013-4.932
			c85.584,0,154.998,2.208,154.998,4.932C188.256,218.051,118.841,220.261,33.257,220.261L33.257,220.261z"/>
		<path fill="#E4E4E4" d="M33.283,220.181c-84.507,0-153.052-2.179-153.052-4.862c0-2.686,68.546-4.861,153.052-4.861
			c84.501,0,153.037,2.177,153.037,4.861C186.32,218.002,117.783,220.181,33.283,220.181L33.283,220.181z"/>
		<path fill="#E3E3E3" d="M33.309,220.1c-83.423,0-151.09-2.146-151.09-4.791c0-2.646,67.667-4.79,151.09-4.79
			c83.418,0,151.076,2.145,151.076,4.79C184.384,217.953,116.727,220.1,33.309,220.1L33.309,220.1z"/>
		<path fill="#E2E2E2" d="M33.334,220.02c-82.341,0-149.129-2.114-149.129-4.721s66.789-4.72,149.129-4.72
			c82.334,0,149.114,2.113,149.114,4.72C182.449,217.904,115.669,220.02,33.334,220.02L33.334,220.02z"/>
		<path fill="#E1E1E1" d="M33.359,219.938c-81.257,0-147.167-2.083-147.167-4.65c0-2.566,65.91-4.648,147.167-4.648
			c81.252,0,147.153,2.082,147.153,4.648C180.513,217.856,114.611,219.938,33.359,219.938L33.359,219.938z"/>
		<path fill="#E0E0E0" d="M33.387,219.857c-80.176,0-145.208-2.051-145.208-4.579c0-2.529,65.032-4.578,145.208-4.578
			c80.167,0,145.191,2.05,145.191,4.578C178.578,217.808,113.554,219.857,33.387,219.857L33.387,219.857z"/>
		<path fill="#DFDFDF" d="M33.412,219.777c-79.092,0-143.246-2.02-143.246-4.508c0-2.49,64.153-4.509,143.246-4.509
			c79.085,0,143.23,2.019,143.23,4.509C176.643,217.758,112.497,219.777,33.412,219.777L33.412,219.777z"/>
		<path fill="#DEDEDE" d="M33.438,219.696c-78.009,0-141.284-1.987-141.284-4.438c0-2.449,63.275-4.437,141.284-4.437
			c78.002,0,141.269,1.986,141.269,4.437C174.707,217.709,111.439,219.696,33.438,219.696L33.438,219.696z"/>
		<path fill="#DDDDDD" d="M33.463,219.615c-76.926,0-139.323-1.956-139.323-4.366c0-2.411,62.397-4.366,139.323-4.366
			c76.919,0,139.309,1.955,139.309,4.366S110.382,219.615,33.463,219.615L33.463,219.615z"/>
		<path fill="#DCDCDC" d="M33.489,219.535c-75.843,0-137.362-1.924-137.362-4.295c0-2.372,61.518-4.296,137.362-4.296
			c75.836,0,137.347,1.923,137.347,4.296C170.836,217.611,109.325,219.535,33.489,219.535L33.489,219.535z"/>
		<path fill="#DBDBDB" d="M33.516,219.454c-74.762,0-135.4-1.892-135.4-4.224c0-2.333,60.64-4.226,135.4-4.226
			c74.752,0,135.385,1.892,135.385,4.226C168.9,217.563,108.268,219.454,33.516,219.454L33.516,219.454z"/>
		<path fill="#DADADA" d="M33.541,219.373c-73.678,0-133.439-1.86-133.439-4.154s59.761-4.153,133.439-4.153
			c73.67,0,133.424,1.859,133.424,4.153C166.964,217.514,107.21,219.373,33.541,219.373L33.541,219.373z"/>
		<path fill="#D9D9D9" d="M33.566,219.292c-72.595,0-131.479-1.829-131.479-4.083c0-2.255,58.883-4.083,131.479-4.083
			c72.587,0,131.463,1.828,131.463,4.083S106.153,219.292,33.566,219.292L33.566,219.292z"/>
		<path fill="#D9D9D9" d="M33.592,219.212c-71.512,0-129.516-1.797-129.516-4.012c0-2.216,58.005-4.013,129.516-4.013
			c71.504,0,129.501,1.796,129.501,4.013C163.093,217.415,105.096,219.212,33.592,219.212L33.592,219.212z"/>
		<path fill="#D8D8D8" d="M33.618,219.131c-70.429,0-127.555-1.765-127.555-3.94c0-2.177,57.126-3.942,127.555-3.942
			c70.42,0,127.54,1.766,127.54,3.942C161.158,217.366,104.038,219.131,33.618,219.131L33.618,219.131z"/>
		<path fill="#D7D7D7" d="M33.645,219.05c-69.347,0-125.594-1.733-125.594-3.869c0-2.139,56.248-3.871,125.594-3.871
			c69.337,0,125.578,1.732,125.578,3.871C159.222,217.317,102.981,219.05,33.645,219.05L33.645,219.05z"/>
		<path fill="#D6D6D6" d="M33.669,218.97c-68.263,0-123.633-1.701-123.633-3.799c0-2.099,55.369-3.801,123.633-3.801
			c68.254,0,123.617,1.701,123.617,3.801C157.287,217.269,101.924,218.97,33.669,218.97L33.669,218.97z"/>
		<path fill="#D5D5D5" d="M33.695,218.89c-67.18,0-121.671-1.671-121.671-3.729c0-2.06,54.491-3.729,121.671-3.729
			c67.171,0,121.656,1.669,121.656,3.729C155.352,217.219,100.866,218.89,33.695,218.89L33.695,218.89z"/>
		<path fill="#D4D4D4" d="M33.721,218.809c-66.098,0-119.709-1.639-119.709-3.658c0-2.021,53.612-3.659,119.709-3.659
			c66.088,0,119.695,1.638,119.695,3.659C153.416,217.17,99.809,218.809,33.721,218.809L33.721,218.809z"/>
		<path fill="#D3D3D3" d="M33.747,218.728c-65.015,0-117.749-1.607-117.749-3.587c0-1.982,52.734-3.589,117.749-3.589
			c65.005,0,117.733,1.606,117.733,3.589C151.48,217.121,98.752,218.728,33.747,218.728L33.747,218.728z"/>
		<path fill="#D2D2D2" d="M33.771,218.647c-63.932,0-115.787-1.575-115.787-3.517c0-1.942,51.856-3.518,115.787-3.518
			c63.923,0,115.772,1.574,115.772,3.518C149.544,217.072,97.694,218.647,33.771,218.647L33.771,218.647z"/>
		<path fill="#D1D1D1" d="M33.798,218.566c-62.849,0-113.826-1.543-113.826-3.445c0-1.904,50.977-3.447,113.826-3.447
			c62.839,0,113.812,1.543,113.812,3.447C147.609,217.023,96.637,218.566,33.798,218.566L33.798,218.566z"/>
		<path fill="#D0D0D0" d="M33.824,218.485c-61.766,0-111.865-1.512-111.865-3.374c0-1.865,50.099-3.376,111.865-3.376
			c61.756,0,111.849,1.511,111.849,3.376C145.673,216.975,95.58,218.485,33.824,218.485L33.824,218.485z"/>
		<path fill="#CFCFCF" d="M33.85,218.405c-60.683,0-109.902-1.48-109.902-3.303c0-1.826,49.22-3.307,109.902-3.307
			c60.674,0,109.889,1.479,109.889,3.307C143.738,216.925,94.522,218.405,33.85,218.405L33.85,218.405z"/>
		<path fill="#CECECE" d="M33.876,218.324c-59.6,0-107.942-1.448-107.942-3.233c0-1.786,48.342-3.234,107.942-3.234
			c59.59,0,107.927,1.448,107.927,3.234C141.802,216.876,93.465,218.324,33.876,218.324L33.876,218.324z"/>
		<path fill="#CDCDCD" d="M33.9,218.243c-58.516,0-105.98-1.416-105.98-3.162c0-1.748,47.464-3.164,105.98-3.164
			c58.507,0,105.966,1.416,105.966,3.164C139.867,216.827,92.408,218.243,33.9,218.243L33.9,218.243z"/>
		<path fill="#CCCCCC" d="M33.928,218.163c-57.435,0-104.021-1.385-104.021-3.091c0-1.709,46.585-3.094,104.021-3.094
			c57.422,0,104.003,1.384,104.003,3.094C137.931,216.778,91.35,218.163,33.928,218.163L33.928,218.163z"/>
		<path fill="#CBCBCB" d="M33.953,218.082c-56.352,0-102.058-1.353-102.058-3.02c0-1.67,45.707-3.023,102.058-3.023
			c56.34,0,102.043,1.353,102.043,3.023C135.995,216.729,90.293,218.082,33.953,218.082L33.953,218.082z"/>
		<path fill="#CACACA" d="M33.979,218.001c-55.269,0-100.097-1.32-100.097-2.949c0-1.631,44.828-2.951,100.097-2.951
			c55.258,0,100.082,1.32,100.082,2.951C134.061,216.681,89.236,218.001,33.979,218.001L33.979,218.001z"/>
		<path fill="#C9C9C9" d="M34.004,217.92c-54.186,0-98.136-1.29-98.136-2.878c0-1.592,43.95-2.881,98.136-2.881
			c54.174,0,98.12,1.289,98.12,2.881C132.124,216.631,88.178,217.92,34.004,217.92L34.004,217.92z"/>
		<path fill="#C8C8C8" d="M34.03,217.84c-53.103,0-96.174-1.258-96.174-2.807c0-1.553,43.071-2.811,96.174-2.811
			c53.091,0,96.159,1.257,96.159,2.811C130.189,216.582,87.121,217.84,34.03,217.84L34.03,217.84z"/>
		<path fill="#C7C7C7" d="M34.057,217.759c-52.021,0-94.213-1.226-94.213-2.736c0-1.515,42.193-2.74,94.213-2.74
			c52.008,0,94.196,1.226,94.196,2.74C128.253,216.533,86.064,217.759,34.057,217.759L34.057,217.759z"/>
		<path fill="#C6C6C6" d="M34.082,217.679c-50.937,0-92.252-1.194-92.252-2.666c0-1.476,41.315-2.67,92.252-2.67
			c50.925,0,92.236,1.194,92.236,2.67C126.318,216.484,85.007,217.679,34.082,217.679L34.082,217.679z"/>
		<path fill="#C5C5C5" d="M34.107,217.599c-49.854,0-90.291-1.163-90.291-2.596c0-1.436,40.436-2.599,90.291-2.599
			c49.842,0,90.274,1.162,90.274,2.599C124.382,216.436,83.949,217.599,34.107,217.599L34.107,217.599z"/>
		<path fill="#C4C4C4" d="M34.133,217.518c-48.771,0-88.329-1.132-88.329-2.524c0-1.396,39.558-2.528,88.329-2.528
			c48.76,0,88.313,1.132,88.313,2.528C122.447,216.386,82.893,217.518,34.133,217.518L34.133,217.518z"/>
		<path fill="#C3C3C3" d="M34.159,217.437c-47.689,0-86.368-1.1-86.368-2.453c0-1.358,38.679-2.457,86.368-2.457
			c47.676,0,86.352,1.099,86.352,2.457C120.511,216.337,81.835,217.437,34.159,217.437L34.159,217.437z"/>
		<path fill="#C2C2C2" d="M34.186,217.356c-46.606,0-84.407-1.068-84.407-2.382c0-1.319,37.801-2.387,84.407-2.387
			c46.593,0,84.391,1.067,84.391,2.387C118.575,216.288,80.777,217.356,34.186,217.356L34.186,217.356z"/>
		<path fill="#C1C1C1" d="M34.21,217.275c-45.523,0-82.445-1.036-82.445-2.312c0-1.279,36.922-2.315,82.445-2.315
			c45.509,0,82.429,1.035,82.429,2.315C116.64,216.239,79.721,217.275,34.21,217.275L34.21,217.275z"/>
		<path fill="#C0C0C0" d="M34.236,217.194c-44.44,0-80.484-1.004-80.484-2.241c0-1.241,36.044-2.245,80.484-2.245
			c44.426,0,80.468,1.004,80.468,2.245C114.704,216.19,78.663,217.194,34.236,217.194L34.236,217.194z"/>
		<path fill="#BFBFBF" d="M34.262,217.113c-43.356,0-78.522-0.972-78.522-2.17c0-1.202,35.166-2.174,78.522-2.174
			c43.344,0,78.508,0.972,78.508,2.174C112.77,216.142,77.605,217.113,34.262,217.113L34.262,217.113z"/>
		<path fill="#BEBEBE" d="M34.288,217.033c-42.274,0-76.561-0.941-76.561-2.099c0-1.163,34.287-2.104,76.561-2.104
			c42.26,0,76.545,0.94,76.545,2.104C110.833,216.092,76.548,217.033,34.288,217.033L34.288,217.033z"/>
		<path fill="#BDBDBD" d="M34.314,216.952c-41.191,0-74.601-0.909-74.601-2.028c0-1.124,33.409-2.032,74.601-2.032
			c41.177,0,74.584,0.908,74.584,2.032C108.898,216.043,75.491,216.952,34.314,216.952L34.314,216.952z"/>
		<path fill="#BCBCBC" d="M34.339,216.871c-40.108,0-72.639-0.877-72.639-1.957c0-1.085,32.53-1.962,72.639-1.962
			c40.095,0,72.623,0.877,72.623,1.962C106.962,215.994,74.434,216.871,34.339,216.871L34.339,216.871z"/>
		<path fill="#BBBBBB" d="M34.365,216.791c-39.025,0-70.677-0.845-70.677-1.886c0-1.046,31.652-1.891,70.677-1.891
			c39.011,0,70.661,0.845,70.661,1.891C105.027,215.945,73.376,216.791,34.365,216.791L34.365,216.791z"/>
		<path fill="#BABABA" d="M34.391,216.71c-37.942,0-68.715-0.813-68.715-1.814c0-1.007,30.774-1.821,68.715-1.821
			c37.929,0,68.7,0.813,68.7,1.821C103.091,215.896,72.319,216.71,34.391,216.71L34.391,216.71z"/>
		<path fill="#B9B9B9" d="M34.417,216.629c-36.86,0-66.755-0.781-66.755-1.745c0-0.968,29.895-1.75,66.755-1.75
			c36.845,0,66.739,0.782,66.739,1.75C101.155,215.848,71.262,216.629,34.417,216.629L34.417,216.629z"/>
		<path fill="#B8B8B8" d="M34.441,216.548c-35.776,0-64.793-0.75-64.793-1.674c0-0.929,29.017-1.679,64.793-1.679
			c35.763,0,64.778,0.75,64.778,1.679C99.22,215.798,70.204,216.548,34.441,216.548L34.441,216.548z"/>
		<path fill="#B7B7B7" d="M34.469,216.468c-34.695,0-62.833-0.719-62.833-1.603c0-0.89,28.138-1.609,62.833-1.609
			c34.678,0,62.815,0.719,62.815,1.609C97.284,215.749,69.146,216.468,34.469,216.468L34.469,216.468z"/>
		<path fill="#B6B6B6" d="M34.494,216.388c-33.611,0-60.871-0.688-60.871-1.532c0-0.852,27.26-1.538,60.871-1.538
			c33.596,0,60.854,0.687,60.854,1.538C95.349,215.7,68.089,216.388,34.494,216.388L34.494,216.388z"/>
		<path fill="#B5B5B5" d="M34.52,216.307c-32.527,0-58.91-0.655-58.91-1.462c0-0.812,26.381-1.467,58.91-1.467
			c32.513,0,58.895,0.655,58.895,1.467C93.413,215.651,67.032,216.307,34.52,216.307L34.52,216.307z"/>
		<path fill="#B4B4B4" d="M34.545,216.227c-31.445,0-56.948-0.623-56.948-1.391c0-0.772,25.503-1.396,56.948-1.396
			c31.43,0,56.933,0.623,56.933,1.396C91.479,215.603,65.975,216.227,34.545,216.227L34.545,216.227z"/>
		<path fill="#B3B3B3" d="M34.571,216.146c-30.362,0-54.987-0.593-54.987-1.319c0-0.734,24.625-1.326,54.987-1.326
			c30.346,0,54.971,0.592,54.971,1.326C89.542,215.554,64.917,216.146,34.571,216.146L34.571,216.146z"/>
	</g>
</g>
</svg>
