<?xml version="1.0" encoding="utf-8"?>
<!-- Generator: Adobe Illustrator 16.0.0, SVG Export Plug-In . SVG Version: 6.00 Build 0)  -->
<!DOCTYPE svg PUBLIC "-//W3C//DTD SVG 1.1//EN" "http://www.w3.org/Graphics/SVG/1.1/DTD/svg11.dtd">
<svg version="1.1" id="Capa_1" xmlns="http://www.w3.org/2000/svg" xmlns:xlink="http://www.w3.org/1999/xlink" x="0px" y="0px"
	 width="500px" height="500px" viewBox="-218 -218 500 500" enable-background="new -218 -218 500 500" xml:space="preserve">
<g>
	<path fill="#FF994F" stroke="#FFFFFF" stroke-width="2" stroke-miterlimit="10" d="M214.987,119.734
		c10.065-3.174,10.886-14.172,8.191-21.24l-27.755-65.41c-3.889-7.831-9.42-11.023-19.682-11.301
		c-1.921-0.06-3.889-0.017-5.827-0.035c8.877-3.05,14.853-14.563,5.976-22.775c-16.756-15.512-30.634-32.658-46.06-49.463
		c-1.619-1.767-5.674-6.105-11.726-8.033c-11.419-3.637-27.004,3.88-29.186,16.644c-3.972,23.325-7.63,46.735-9.209,70.324
		c-0.945,14.416,6.313,23.796,18.618,24.083c26.514,0.633,72.39,0.066,72.39,0.066l23.859,56.881
		C195.92,112.926,202.221,123.766,214.987,119.734z M127.981,21.033c0.928-9.18,2.003-18.319,3.262-27.445
		c7.938,8.721,16.225,17.108,24.889,25.139c1.513,1.407,3.151,2.364,4.8,2.967C149.955,21.6,138.957,21.435,127.981,21.033z"/>
	<circle fill="#FF994F" stroke="#FFFFFF" stroke-width="2" stroke-miterlimit="10" cx="119.943" cy="-91.162" r="27.248"/>
	<path fill="#FF994F" stroke="#FFFFFF" stroke-miterlimit="10" d="M186.9,100.539c-2.612-1.637-6.063-0.857-7.694,1.748
		c-12.294,19.557-33.405,31.236-56.444,31.236c-36.75,0-66.655-29.883-66.655-66.633c0-17.797,6.95-34.529,19.539-47.117
		c2.175-2.169,2.175-5.728,0-7.896c-1.536-1.531-3.76-1.963-5.686-1.33l-2.33-34.046c-0.129-2.125-1.452-3.968-3.409-4.799
		l-3.458-1.428c1.833-5.041,0.626-10.857-5.662-13.999C34.899-53.819,14.727-63.908-5.468-74.012
		c-1.115-2.565-2.76-5.027-5.054-7.278c-8.419-8.322-25.518-9.998-33.541,0.174C-62.069-58.293-77.985-34.282-92.016-8.815
		c-2.154,3.91-4.078,8.721-3.703,16.073c1.953,38.302-18.295,65.537-53.761,79.65c-18.709,7.436-9.296,37.094,12.545,28.783
		c37.554-15.426,61.834-41.123,70.162-79.02c16.923,23.936,28.058,48.115,34.279,77.461c4.22,19.939,36.065,16.996,31.104-5.668
		C-9.118,71.979-25.091,38.35-47.756,9.232c11.167-19.82,23.336-39.135,37.451-57.019c0.092-0.101,0.159-0.222,0.248-0.331
		C7.416-39.392,24.875-30.653,42.37-21.913c3.558,1.768,6.956,1.803,9.959,0.745l4.439,1.844l2.788,40.97
		c-9.443,13.109-14.563,28.748-14.563,45.22c0,42.908,34.918,77.799,77.792,77.799c26.922,0,51.573-13.631,65.936-36.449
		C190.306,105.633,189.521,102.188,186.9,100.539z"/>
	<circle fill="#FF994F" stroke="#FFFFFF" stroke-width="2" stroke-miterlimit="10" cx="6.527" cy="-108.742" r="26.423"/>
</g>
<g>
	<g opacity="0.9">
		<path fill="#FFFFFF" d="M41.941,165.747c-113.744,0-206.007-3.034-206.007-6.775c0-3.737,92.263-6.77,206.007-6.77
			c113.744,0,205.993,3.033,205.993,6.77C247.935,162.713,155.686,165.747,41.941,165.747L41.941,165.747z"/>
		<path fill="#FEFEFE" d="M41.968,165.667c-112.661,0-204.046-3.002-204.046-6.704c0-3.699,91.384-6.7,204.046-6.7
			c112.661,0,204.032,3.001,204.032,6.7C245.999,162.664,154.629,165.667,41.968,165.667L41.968,165.667z"/>
		<path fill="#FDFDFD" d="M41.994,165.586c-111.58,0-202.085-2.971-202.085-6.633c0-3.66,90.506-6.629,202.085-6.629
			c111.577,0,202.069,2.969,202.069,6.629C244.063,162.615,153.57,165.586,41.994,165.586L41.994,165.586z"/>
		<path fill="#FCFCFC" d="M42.019,165.505c-110.496,0-200.123-2.938-200.123-6.563c0-3.621,89.628-6.559,200.123-6.559
			s200.109,2.938,200.109,6.559C242.128,162.566,152.514,165.505,42.019,165.505L42.019,165.505z"/>
		<path fill="#FBFBFB" d="M42.045,165.424c-109.414,0-198.162-2.907-198.162-6.492c0-3.582,88.749-6.486,198.162-6.486
			c109.412,0,198.147,2.905,198.147,6.486C240.192,162.517,151.457,165.424,42.045,165.424L42.045,165.424z"/>
		<path fill="#FAFAFA" d="M42.07,165.344c-108.33,0-196.201-2.876-196.201-6.421c0-3.543,87.871-6.417,196.201-6.417
			c108.328,0,196.187,2.874,196.187,6.417C238.257,162.468,150.398,165.344,42.07,165.344L42.07,165.344z"/>
		<path fill="#F9F9F9" d="M42.097,165.263c-107.247,0-194.239-2.844-194.239-6.35c0-3.504,86.992-6.347,194.239-6.347
			c107.245,0,194.225,2.843,194.225,6.347C236.321,162.419,149.342,165.263,42.097,165.263L42.097,165.263z"/>
		<path fill="#F8F8F8" d="M42.121,165.182c-106.164,0-192.277-2.812-192.277-6.278c0-3.466,86.114-6.275,192.277-6.275
			c106.162,0,192.265,2.811,192.265,6.275C234.386,162.37,148.284,165.182,42.121,165.182L42.121,165.182z"/>
		<path fill="#F7F7F7" d="M42.147,165.102c-105.081,0-190.317-2.779-190.317-6.208c0-3.426,85.235-6.205,190.317-6.205
			c105.079,0,190.302,2.779,190.302,6.205C232.45,162.321,147.227,165.102,42.147,165.102L42.147,165.102z"/>
		<path fill="#F6F6F6" d="M42.174,165.021c-103.998,0-188.355-2.749-188.355-6.137c0-3.387,84.357-6.134,188.355-6.134
			c103.996,0,188.341,2.747,188.341,6.134C230.515,162.271,146.17,165.021,42.174,165.021L42.174,165.021z"/>
		<path fill="#F5F5F5" d="M42.199,164.939c-102.916,0-186.394-2.717-186.394-6.066c0-3.348,83.479-6.063,186.394-6.063
			c102.913,0,186.38,2.717,186.38,6.063C228.578,162.223,145.112,164.939,42.199,164.939L42.199,164.939z"/>
		<path fill="#F4F4F4" d="M42.226,164.859c-101.833,0-184.433-2.686-184.433-5.996c0-3.31,82.6-5.992,184.433-5.992
			c101.83,0,184.418,2.684,184.418,5.992C226.644,162.174,144.055,164.859,42.226,164.859L42.226,164.859z"/>
		<path fill="#F3F3F3" d="M42.25,164.779c-100.75,0-182.472-2.654-182.472-5.926c0-3.27,81.722-5.922,182.472-5.922
			c100.747,0,182.458,2.652,182.458,5.922C224.708,162.125,142.997,164.779,42.25,164.779L42.25,164.779z"/>
		<path fill="#F2F2F2" d="M42.276,164.698c-99.667,0-180.51-2.622-180.51-5.854c0-3.23,80.843-5.851,180.51-5.851
			c99.664,0,180.496,2.62,180.496,5.851C222.772,162.076,141.94,164.698,42.276,164.698L42.276,164.698z"/>
		<path fill="#F1F1F1" d="M42.303,164.617c-98.584,0-178.549-2.59-178.549-5.783c0-3.192,79.965-5.78,178.549-5.78
			c98.581,0,178.534,2.589,178.534,5.78C220.837,162.027,140.884,164.617,42.303,164.617L42.303,164.617z"/>
		<path fill="#F0F0F0" d="M42.328,164.537c-97.5,0-176.587-2.559-176.587-5.712s79.087-5.71,176.587-5.71
			c97.498,0,176.573,2.557,176.573,5.71C218.901,161.978,139.825,164.537,42.328,164.537L42.328,164.537z"/>
		<path fill="#EFEFEF" d="M42.354,164.456c-96.418,0-174.626-2.527-174.626-5.642c0-3.113,78.208-5.639,174.626-5.639
			c96.414,0,174.612,2.525,174.612,5.639C216.966,161.929,138.769,164.456,42.354,164.456L42.354,164.456z"/>
		<path fill="#EEEEEE" d="M42.379,164.375c-95.334,0-172.665-2.495-172.665-5.571c0-3.075,77.33-5.567,172.665-5.567
			c95.332,0,172.65,2.493,172.65,5.567C215.03,161.88,137.712,164.375,42.379,164.375L42.379,164.375z"/>
		<path fill="#EDEDED" d="M42.406,164.295c-94.253,0-170.705-2.463-170.705-5.5c0-3.036,76.451-5.498,170.705-5.498
			c94.247,0,170.688,2.462,170.688,5.498S136.653,164.295,42.406,164.295L42.406,164.295z"/>
		<path fill="#ECECEC" d="M42.432,164.214c-93.17,0-168.742-2.431-168.742-5.429c0-2.997,75.573-5.428,168.742-5.428
			c93.165,0,168.728,2.431,168.728,5.428C211.158,161.782,135.597,164.214,42.432,164.214L42.432,164.214z"/>
		<path fill="#EBEBEB" d="M42.456,164.133c-92.086,0-166.78-2.4-166.78-5.357c0-2.959,74.694-5.356,166.78-5.356
			c92.082,0,166.767,2.399,166.767,5.356C209.224,161.732,134.54,164.133,42.456,164.133L42.456,164.133z"/>
		<path fill="#EAEAEA" d="M42.482,164.052c-91.004,0-164.82-2.368-164.82-5.287s73.816-5.285,164.82-5.285
			c90.999,0,164.805,2.367,164.805,5.285C207.287,161.684,133.481,164.052,42.482,164.052L42.482,164.052z"/>
		<path fill="#E9E9E9" d="M42.509,163.972c-89.921,0-162.859-2.336-162.859-5.216s72.938-5.215,162.859-5.215
			c89.916,0,162.844,2.335,162.844,5.215C205.353,161.635,132.425,163.972,42.509,163.972L42.509,163.972z"/>
		<path fill="#E8E8E8" d="M42.534,163.891c-88.837,0-160.896-2.305-160.896-5.146s72.059-5.145,160.896-5.145
			c88.833,0,160.883,2.304,160.883,5.145S131.367,163.891,42.534,163.891L42.534,163.891z"/>
		<path fill="#E7E7E7" d="M42.561,163.81c-87.755,0-158.936-2.272-158.936-5.074c0-2.803,71.181-5.073,158.936-5.073
			c87.75,0,158.921,2.271,158.921,5.073S130.31,163.81,42.561,163.81L42.561,163.81z"/>
		<path fill="#E6E6E6" d="M42.585,163.729c-86.671,0-156.975-2.24-156.975-5.004c0-2.763,70.302-5.003,156.975-5.003
			c86.668,0,156.961,2.24,156.961,5.003S129.253,163.729,42.585,163.729L42.585,163.729z"/>
		<path fill="#E5E5E5" d="M42.611,163.648c-85.589,0-155.013-2.209-155.013-4.933s69.424-4.932,155.013-4.932
			c85.584,0,154.998,2.208,154.998,4.932C197.61,161.438,128.195,163.648,42.611,163.648L42.611,163.648z"/>
		<path fill="#E4E4E4" d="M42.638,163.568c-84.507,0-153.052-2.179-153.052-4.862c0-2.686,68.546-4.861,153.052-4.861
			c84.501,0,153.037,2.177,153.037,4.861C195.675,161.39,127.138,163.568,42.638,163.568L42.638,163.568z"/>
		<path fill="#E3E3E3" d="M42.663,163.487c-83.423,0-151.09-2.146-151.09-4.791c0-2.646,67.667-4.79,151.09-4.79
			c83.418,0,151.076,2.145,151.076,4.79C193.738,161.341,126.081,163.487,42.663,163.487L42.663,163.487z"/>
		<path fill="#E2E2E2" d="M42.688,163.407c-82.341,0-149.129-2.114-149.129-4.721s66.789-4.72,149.129-4.72
			c82.334,0,149.114,2.113,149.114,4.72C191.804,161.292,125.023,163.407,42.688,163.407L42.688,163.407z"/>
		<path fill="#E1E1E1" d="M42.714,163.326c-81.257,0-147.167-2.083-147.167-4.65c0-2.566,65.91-4.648,147.167-4.648
			c81.252,0,147.153,2.082,147.153,4.648C189.867,161.244,123.966,163.326,42.714,163.326L42.714,163.326z"/>
		<path fill="#E0E0E0" d="M42.741,163.245c-80.176,0-145.208-2.051-145.208-4.579c0-2.529,65.032-4.578,145.208-4.578
			c80.167,0,145.191,2.05,145.191,4.578C187.933,161.195,122.908,163.245,42.741,163.245L42.741,163.245z"/>
		<path fill="#DFDFDF" d="M42.767,163.165c-79.092,0-143.246-2.02-143.246-4.508c0-2.49,64.153-4.509,143.246-4.509
			c79.085,0,143.23,2.019,143.23,4.509C185.997,161.146,121.852,163.165,42.767,163.165L42.767,163.165z"/>
		<path fill="#DEDEDE" d="M42.792,163.084c-78.009,0-141.284-1.987-141.284-4.438c0-2.449,63.275-4.437,141.284-4.437
			c78.002,0,141.269,1.986,141.269,4.437C184.062,161.097,120.794,163.084,42.792,163.084L42.792,163.084z"/>
		<path fill="#DDDDDD" d="M42.817,163.003c-76.926,0-139.323-1.956-139.323-4.366c0-2.411,62.397-4.366,139.323-4.366
			c76.919,0,139.309,1.955,139.309,4.366S119.736,163.003,42.817,163.003L42.817,163.003z"/>
		<path fill="#DCDCDC" d="M42.844,162.923c-75.843,0-137.362-1.924-137.362-4.295c0-2.372,61.518-4.296,137.362-4.296
			c75.836,0,137.347,1.923,137.347,4.296C180.19,160.999,118.68,162.923,42.844,162.923L42.844,162.923z"/>
		<path fill="#DBDBDB" d="M42.87,162.842c-74.762,0-135.4-1.892-135.4-4.224c0-2.333,60.64-4.226,135.4-4.226
			c74.752,0,135.385,1.892,135.385,4.226C178.255,160.95,117.622,162.842,42.87,162.842L42.87,162.842z"/>
		<path fill="#DADADA" d="M42.896,162.761c-73.678,0-133.439-1.86-133.439-4.154s59.761-4.153,133.439-4.153
			c73.67,0,133.424,1.859,133.424,4.153C176.318,160.901,116.564,162.761,42.896,162.761L42.896,162.761z"/>
		<path fill="#D9D9D9" d="M42.921,162.68c-72.595,0-131.479-1.829-131.479-4.083c0-2.255,58.883-4.083,131.479-4.083
			c72.587,0,131.463,1.828,131.463,4.083S115.508,162.68,42.921,162.68L42.921,162.68z"/>
		<path fill="#D9D9D9" d="M42.946,162.6c-71.512,0-129.516-1.797-129.516-4.012c0-2.216,58.005-4.013,129.516-4.013
			c71.504,0,129.501,1.796,129.501,4.013C172.447,160.803,114.45,162.6,42.946,162.6L42.946,162.6z"/>
		<path fill="#D8D8D8" d="M42.973,162.519c-70.429,0-127.555-1.765-127.555-3.94c0-2.177,57.126-3.942,127.555-3.942
			c70.42,0,127.54,1.766,127.54,3.942C170.513,160.754,113.393,162.519,42.973,162.519L42.973,162.519z"/>
		<path fill="#D7D7D7" d="M42.999,162.438c-69.347,0-125.594-1.733-125.594-3.869c0-2.139,56.248-3.871,125.594-3.871
			c69.337,0,125.578,1.732,125.578,3.871C168.576,160.705,112.336,162.438,42.999,162.438L42.999,162.438z"/>
		<path fill="#D6D6D6" d="M43.023,162.357c-68.263,0-123.633-1.701-123.633-3.799c0-2.099,55.369-3.801,123.633-3.801
			c68.254,0,123.617,1.701,123.617,3.801C166.642,160.656,111.278,162.357,43.023,162.357L43.023,162.357z"/>
		<path fill="#D5D5D5" d="M43.05,162.277c-67.18,0-121.671-1.671-121.671-3.729c0-2.06,54.491-3.729,121.671-3.729
			c67.171,0,121.656,1.669,121.656,3.729C164.706,160.606,110.221,162.277,43.05,162.277L43.05,162.277z"/>
		<path fill="#D4D4D4" d="M43.075,162.196c-66.098,0-119.709-1.639-119.709-3.658c0-2.021,53.612-3.659,119.709-3.659
			c66.088,0,119.695,1.638,119.695,3.659C162.771,160.558,109.163,162.196,43.075,162.196L43.075,162.196z"/>
		<path fill="#D3D3D3" d="M43.102,162.115c-65.015,0-117.749-1.607-117.749-3.587c0-1.982,52.734-3.589,117.749-3.589
			c65.005,0,117.733,1.606,117.733,3.589C160.835,160.509,108.106,162.115,43.102,162.115L43.102,162.115z"/>
		<path fill="#D2D2D2" d="M43.126,162.035c-63.932,0-115.787-1.575-115.787-3.517c0-1.942,51.856-3.518,115.787-3.518
			c63.923,0,115.772,1.574,115.772,3.518C158.898,160.46,107.049,162.035,43.126,162.035L43.126,162.035z"/>
		<path fill="#D1D1D1" d="M43.152,161.954c-62.849,0-113.826-1.543-113.826-3.445c0-1.904,50.977-3.447,113.826-3.447
			c62.839,0,113.812,1.543,113.812,3.447C156.964,160.411,105.991,161.954,43.152,161.954L43.152,161.954z"/>
		<path fill="#D0D0D0" d="M43.179,161.873c-61.766,0-111.865-1.512-111.865-3.374c0-1.865,50.099-3.376,111.865-3.376
			c61.756,0,111.849,1.511,111.849,3.376C155.027,160.362,104.935,161.873,43.179,161.873L43.179,161.873z"/>
		<path fill="#CFCFCF" d="M43.204,161.793c-60.683,0-109.902-1.48-109.902-3.303c0-1.826,49.22-3.307,109.902-3.307
			c60.674,0,109.889,1.479,109.889,3.307C153.093,160.313,103.877,161.793,43.204,161.793L43.204,161.793z"/>
		<path fill="#CECECE" d="M43.23,161.712c-59.6,0-107.942-1.448-107.942-3.233c0-1.786,48.342-3.234,107.942-3.234
			c59.59,0,107.927,1.448,107.927,3.234C151.156,160.264,102.819,161.712,43.23,161.712L43.23,161.712z"/>
		<path fill="#CDCDCD" d="M43.255,161.631c-58.516,0-105.98-1.416-105.98-3.162c0-1.748,47.464-3.164,105.98-3.164
			c58.507,0,105.966,1.416,105.966,3.164C149.222,160.215,101.763,161.631,43.255,161.631L43.255,161.631z"/>
		<path fill="#CCCCCC" d="M43.282,161.551c-57.435,0-104.021-1.385-104.021-3.091c0-1.709,46.585-3.094,104.021-3.094
			c57.422,0,104.003,1.384,104.003,3.094C147.285,160.166,100.704,161.551,43.282,161.551L43.282,161.551z"/>
		<path fill="#CBCBCB" d="M43.308,161.47c-56.352,0-102.058-1.353-102.058-3.02c0-1.67,45.707-3.023,102.058-3.023
			c56.34,0,102.043,1.353,102.043,3.023C145.35,160.117,99.647,161.47,43.308,161.47L43.308,161.47z"/>
		<path fill="#CACACA" d="M43.333,161.389c-55.269,0-100.097-1.32-100.097-2.949c0-1.631,44.828-2.951,100.097-2.951
			c55.258,0,100.082,1.32,100.082,2.951C143.415,160.068,98.591,161.389,43.333,161.389L43.333,161.389z"/>
		<path fill="#C9C9C9" d="M43.358,161.308c-54.186,0-98.136-1.29-98.136-2.878c0-1.592,43.95-2.881,98.136-2.881
			c54.174,0,98.12,1.289,98.12,2.881C141.479,160.019,97.532,161.308,43.358,161.308L43.358,161.308z"/>
		<path fill="#C8C8C8" d="M43.385,161.228c-53.103,0-96.174-1.258-96.174-2.807c0-1.553,43.071-2.811,96.174-2.811
			c53.091,0,96.159,1.257,96.159,2.811C139.544,159.97,96.476,161.228,43.385,161.228L43.385,161.228z"/>
		<path fill="#C7C7C7" d="M43.411,161.146c-52.021,0-94.213-1.226-94.213-2.736c0-1.515,42.193-2.74,94.213-2.74
			c52.008,0,94.196,1.226,94.196,2.74C137.607,159.921,95.419,161.146,43.411,161.146L43.411,161.146z"/>
		<path fill="#C6C6C6" d="M43.437,161.066c-50.937,0-92.252-1.194-92.252-2.666c0-1.476,41.315-2.67,92.252-2.67
			c50.925,0,92.236,1.194,92.236,2.67C135.673,159.872,94.361,161.066,43.437,161.066L43.437,161.066z"/>
		<path fill="#C5C5C5" d="M43.462,160.986c-49.854,0-90.291-1.163-90.291-2.596c0-1.436,40.436-2.599,90.291-2.599
			c49.842,0,90.274,1.162,90.274,2.599C133.736,159.823,93.304,160.986,43.462,160.986L43.462,160.986z"/>
		<path fill="#C4C4C4" d="M43.487,160.905c-48.771,0-88.329-1.132-88.329-2.524c0-1.396,39.558-2.528,88.329-2.528
			c48.76,0,88.313,1.132,88.313,2.528C131.802,159.773,92.247,160.905,43.487,160.905L43.487,160.905z"/>
		<path fill="#C3C3C3" d="M43.514,160.824c-47.689,0-86.368-1.1-86.368-2.453c0-1.358,38.679-2.457,86.368-2.457
			c47.676,0,86.352,1.099,86.352,2.457C129.865,159.725,91.189,160.824,43.514,160.824L43.514,160.824z"/>
		<path fill="#C2C2C2" d="M43.54,160.744c-46.606,0-84.407-1.068-84.407-2.382c0-1.319,37.801-2.387,84.407-2.387
			c46.593,0,84.391,1.067,84.391,2.387C127.93,159.676,90.132,160.744,43.54,160.744L43.54,160.744z"/>
		<path fill="#C1C1C1" d="M43.564,160.663c-45.523,0-82.445-1.036-82.445-2.312c0-1.279,36.922-2.315,82.445-2.315
			c45.509,0,82.429,1.035,82.429,2.315C125.994,159.627,89.075,160.663,43.564,160.663L43.564,160.663z"/>
		<path fill="#C0C0C0" d="M43.591,160.582c-44.44,0-80.484-1.004-80.484-2.241c0-1.241,36.044-2.245,80.484-2.245
			c44.426,0,80.468,1.004,80.468,2.245C124.059,159.578,88.018,160.582,43.591,160.582L43.591,160.582z"/>
		<path fill="#BFBFBF" d="M43.616,160.501c-43.356,0-78.522-0.972-78.522-2.17c0-1.202,35.166-2.174,78.522-2.174
			c43.344,0,78.508,0.972,78.508,2.174C122.124,159.529,86.96,160.501,43.616,160.501L43.616,160.501z"/>
		<path fill="#BEBEBE" d="M43.643,160.421c-42.274,0-76.561-0.941-76.561-2.099c0-1.163,34.287-2.104,76.561-2.104
			c42.26,0,76.545,0.94,76.545,2.104C120.188,159.479,85.902,160.421,43.643,160.421L43.643,160.421z"/>
		<path fill="#BDBDBD" d="M43.669,160.34c-41.191,0-74.601-0.909-74.601-2.028c0-1.124,33.409-2.032,74.601-2.032
			c41.177,0,74.584,0.908,74.584,2.032C118.253,159.431,84.846,160.34,43.669,160.34L43.669,160.34z"/>
		<path fill="#BCBCBC" d="M43.693,160.259c-40.108,0-72.639-0.877-72.639-1.957c0-1.085,32.53-1.962,72.639-1.962
			c40.095,0,72.623,0.877,72.623,1.962C116.316,159.382,83.788,160.259,43.693,160.259L43.693,160.259z"/>
		<path fill="#BBBBBB" d="M43.72,160.179c-39.025,0-70.677-0.845-70.677-1.886c0-1.046,31.652-1.891,70.677-1.891
			c39.011,0,70.661,0.845,70.661,1.891C114.382,159.333,82.73,160.179,43.72,160.179L43.72,160.179z"/>
		<path fill="#BABABA" d="M43.745,160.098c-37.942,0-68.715-0.813-68.715-1.814c0-1.007,30.774-1.821,68.715-1.821
			c37.929,0,68.7,0.813,68.7,1.821C112.445,159.284,81.674,160.098,43.745,160.098L43.745,160.098z"/>
		<path fill="#B9B9B9" d="M43.771,160.017c-36.86,0-66.755-0.781-66.755-1.745c0-0.968,29.895-1.75,66.755-1.75
			c36.845,0,66.739,0.782,66.739,1.75C110.51,159.235,80.616,160.017,43.771,160.017L43.771,160.017z"/>
		<path fill="#B8B8B8" d="M43.796,159.936c-35.776,0-64.793-0.75-64.793-1.674c0-0.929,29.017-1.679,64.793-1.679
			c35.763,0,64.778,0.75,64.778,1.679C108.574,159.186,79.559,159.936,43.796,159.936L43.796,159.936z"/>
		<path fill="#B7B7B7" d="M43.823,159.855c-34.695,0-62.833-0.719-62.833-1.603c0-0.89,28.138-1.609,62.833-1.609
			c34.678,0,62.815,0.719,62.815,1.609C106.639,159.137,78.501,159.855,43.823,159.855L43.823,159.855z"/>
		<path fill="#B6B6B6" d="M43.849,159.775c-33.611,0-60.871-0.688-60.871-1.532c0-0.852,27.26-1.538,60.871-1.538
			c33.596,0,60.854,0.687,60.854,1.538C104.703,159.088,77.443,159.775,43.849,159.775L43.849,159.775z"/>
		<path fill="#B5B5B5" d="M43.874,159.694c-32.527,0-58.91-0.655-58.91-1.462c0-0.812,26.381-1.467,58.91-1.467
			c32.513,0,58.895,0.655,58.895,1.467C102.768,159.039,76.387,159.694,43.874,159.694L43.874,159.694z"/>
		<path fill="#B4B4B4" d="M43.899,159.614c-31.445,0-56.948-0.623-56.948-1.391c0-0.772,25.503-1.396,56.948-1.396
			c31.43,0,56.933,0.623,56.933,1.396C100.833,158.99,75.329,159.614,43.899,159.614L43.899,159.614z"/>
		<path fill="#B3B3B3" d="M43.926,159.533c-30.362,0-54.987-0.593-54.987-1.319c0-0.734,24.625-1.326,54.987-1.326
			c30.346,0,54.971,0.592,54.971,1.326C98.896,158.941,74.271,159.533,43.926,159.533L43.926,159.533z"/>
	</g>
</g>
</svg>
