<?xml version="1.0" encoding="utf-8"?>
<!-- Generator: Adobe Illustrator 17.0.0, SVG Export Plug-In . SVG Version: 6.00 Build 0)  -->
<!DOCTYPE svg PUBLIC "-//W3C//DTD SVG 1.1//EN" "http://www.w3.org/Graphics/SVG/1.1/DTD/svg11.dtd">
<svg version="1.1" id="Capa_1" xmlns="http://www.w3.org/2000/svg" xmlns:xlink="http://www.w3.org/1999/xlink" x="0px" y="0px"
	 width="500px" height="500px" viewBox="0 0 500 500" enable-background="new 0 0 500 500" xml:space="preserve">
<g opacity="0.9">
	<path fill-rule="evenodd" clip-rule="evenodd" fill="#FFFFFF" d="M250.004,497.034c-113.744,0-206.007-3.034-206.007-6.775
		c0-3.738,92.263-6.77,206.007-6.77c113.744,0,205.993,3.033,205.993,6.77C455.997,493.999,363.748,497.034,250.004,497.034
		L250.004,497.034z"/>
	<path fill-rule="evenodd" clip-rule="evenodd" fill="#FEFEFE" d="M250.03,496.953c-112.661,0-204.046-3.002-204.046-6.704
		c0-3.699,91.384-6.7,204.046-6.7c112.661,0,204.032,3.001,204.032,6.7C454.061,493.951,362.69,496.953,250.03,496.953
		L250.03,496.953z"/>
	<path fill-rule="evenodd" clip-rule="evenodd" fill="#FDFDFD" d="M250.055,496.872c-111.579,0-202.085-2.971-202.085-6.633
		c0-3.66,90.506-6.629,202.085-6.629c111.578,0,202.07,2.969,202.07,6.629C452.126,493.902,361.633,496.872,250.055,496.872
		L250.055,496.872z"/>
	<path fill-rule="evenodd" clip-rule="evenodd" fill="#FCFCFC" d="M250.081,496.792c-110.496,0-200.123-2.939-200.123-6.563
		c0-3.621,89.628-6.558,200.123-6.558c110.495,0,200.109,2.937,200.109,6.558C450.19,493.853,360.576,496.792,250.081,496.792
		L250.081,496.792z"/>
	<path fill-rule="evenodd" clip-rule="evenodd" fill="#FBFBFB" d="M250.107,496.711c-109.413,0-198.162-2.907-198.162-6.492
		c0-3.582,88.749-6.487,198.162-6.487c109.412,0,198.148,2.906,198.148,6.487C448.255,493.804,359.519,496.711,250.107,496.711
		L250.107,496.711z"/>
	<path fill-rule="evenodd" clip-rule="evenodd" fill="#FAFAFA" d="M250.133,496.63c-108.33,0-196.201-2.876-196.201-6.421
		c0-3.543,87.871-6.417,196.201-6.417c108.328,0,196.186,2.874,196.186,6.417C446.319,493.755,358.461,496.63,250.133,496.63
		L250.133,496.63z"/>
	<path fill-rule="evenodd" clip-rule="evenodd" fill="#F9F9F9" d="M250.159,496.549c-107.247,0-194.239-2.844-194.239-6.35
		c0-3.504,86.992-6.346,194.239-6.346c107.245,0,194.225,2.842,194.225,6.346C444.383,493.706,357.404,496.549,250.159,496.549
		L250.159,496.549z"/>
	<path fill-rule="evenodd" clip-rule="evenodd" fill="#F8F8F8" d="M250.184,496.469c-106.164,0-192.278-2.812-192.278-6.279
		c0-3.465,86.114-6.275,192.278-6.275c106.162,0,192.264,2.811,192.264,6.275C442.448,493.657,356.347,496.469,250.184,496.469
		L250.184,496.469z"/>
	<path fill-rule="evenodd" clip-rule="evenodd" fill="#F7F7F7" d="M250.21,496.388c-105.081,0-190.317-2.78-190.317-6.208
		c0-3.426,85.235-6.205,190.317-6.205c105.079,0,190.302,2.779,190.302,6.205C440.512,493.608,355.289,496.388,250.21,496.388
		L250.21,496.388z"/>
	<path fill-rule="evenodd" clip-rule="evenodd" fill="#F6F6F6" d="M250.236,496.307c-103.998,0-188.355-2.749-188.355-6.137
		c0-3.387,84.357-6.134,188.355-6.134c103.996,0,188.341,2.747,188.341,6.134C438.577,493.559,354.232,496.307,250.236,496.307
		L250.236,496.307z"/>
	<path fill-rule="evenodd" clip-rule="evenodd" fill="#F5F5F5" d="M250.262,496.227c-102.916,0-186.394-2.717-186.394-6.067
		c0-3.348,83.479-6.063,186.394-6.063c102.913,0,186.38,2.716,186.38,6.063C436.641,493.51,353.175,496.227,250.262,496.227
		L250.262,496.227z"/>
	<path fill-rule="evenodd" clip-rule="evenodd" fill="#F4F4F4" d="M250.287,496.146c-101.833,0-184.433-2.685-184.433-5.996
		c0-3.309,82.6-5.993,184.433-5.993c101.83,0,184.418,2.684,184.418,5.993C434.706,493.461,352.117,496.146,250.287,496.146
		L250.287,496.146z"/>
	<path fill-rule="evenodd" clip-rule="evenodd" fill="#F3F3F3" d="M250.313,496.065c-100.75,0-182.472-2.654-182.472-5.925
		c0-3.27,81.722-5.922,182.472-5.922c100.747,0,182.457,2.652,182.457,5.922C432.77,493.412,351.06,496.065,250.313,496.065
		L250.313,496.065z"/>
	<path fill-rule="evenodd" clip-rule="evenodd" fill="#F2F2F2" d="M250.339,495.984c-99.667,0-180.51-2.622-180.51-5.854
		c0-3.231,80.843-5.851,180.51-5.851c99.664,0,180.496,2.62,180.496,5.851C430.835,493.363,350.003,495.984,250.339,495.984
		L250.339,495.984z"/>
	<path fill-rule="evenodd" clip-rule="evenodd" fill="#F1F1F1" d="M250.365,495.904c-98.584,0-178.549-2.59-178.549-5.783
		c0-3.192,79.965-5.78,178.549-5.78c98.581,0,178.534,2.589,178.534,5.78C428.899,493.314,348.945,495.904,250.365,495.904
		L250.365,495.904z"/>
	<path fill-rule="evenodd" clip-rule="evenodd" fill="#F0F0F0" d="M250.39,495.823c-97.501,0-176.588-2.558-176.588-5.712
		c0-3.153,79.087-5.71,176.588-5.71c97.498,0,176.573,2.557,176.573,5.71C426.963,493.265,347.888,495.823,250.39,495.823
		L250.39,495.823z"/>
	<path fill-rule="evenodd" clip-rule="evenodd" fill="#EFEFEF" d="M250.416,495.742c-96.418,0-174.626-2.527-174.626-5.641
		c0-3.114,78.208-5.639,174.626-5.639c96.414,0,174.612,2.525,174.612,5.639C425.028,493.216,346.831,495.742,250.416,495.742
		L250.416,495.742z"/>
	<path fill-rule="evenodd" clip-rule="evenodd" fill="#EEEEEE" d="M250.442,495.662c-95.335,0-172.665-2.495-172.665-5.571
		c0-3.075,77.33-5.568,172.665-5.568c95.331,0,172.65,2.494,172.65,5.568C423.092,493.167,345.773,495.662,250.442,495.662
		L250.442,495.662z"/>
	<path fill-rule="evenodd" clip-rule="evenodd" fill="#EDEDED" d="M250.468,495.581c-94.252,0-170.704-2.463-170.704-5.5
		c0-3.036,76.451-5.498,170.704-5.498c94.248,0,170.689,2.462,170.689,5.498C421.157,493.118,344.716,495.581,250.468,495.581
		L250.468,495.581z"/>
	<path fill-rule="evenodd" clip-rule="evenodd" fill="#ECECEC" d="M250.493,495.5c-93.17,0-168.742-2.431-168.742-5.429
		c0-2.997,75.573-5.427,168.742-5.427c93.165,0,168.728,2.43,168.728,5.427C419.221,493.069,343.659,495.5,250.493,495.5
		L250.493,495.5z"/>
	<path fill-rule="evenodd" clip-rule="evenodd" fill="#EBEBEB" d="M250.519,495.42c-92.087,0-166.781-2.4-166.781-5.358
		c0-2.958,74.694-5.356,166.781-5.356c92.082,0,166.766,2.399,166.766,5.356C417.286,493.02,342.601,495.42,250.519,495.42
		L250.519,495.42z"/>
	<path fill-rule="evenodd" clip-rule="evenodd" fill="#EAEAEA" d="M250.545,495.339c-91.004,0-164.82-2.368-164.82-5.287
		c0-2.919,73.816-5.285,164.82-5.285c90.999,0,164.805,2.367,164.805,5.285C415.35,492.971,341.544,495.339,250.545,495.339
		L250.545,495.339z"/>
	<path fill-rule="evenodd" clip-rule="evenodd" fill="#E9E9E9" d="M250.571,495.258c-89.921,0-162.859-2.336-162.859-5.216
		c0-2.88,72.938-5.215,162.859-5.215c89.916,0,162.844,2.335,162.844,5.215C413.415,492.922,340.487,495.258,250.571,495.258
		L250.571,495.258z"/>
	<path fill-rule="evenodd" clip-rule="evenodd" fill="#E8E8E8" d="M250.597,495.177c-88.838,0-160.897-2.305-160.897-5.146
		c0-2.841,72.059-5.144,160.897-5.144c88.833,0,160.882,2.303,160.882,5.144C411.479,492.873,339.429,495.177,250.597,495.177
		L250.597,495.177z"/>
	<path fill-rule="evenodd" clip-rule="evenodd" fill="#E7E7E7" d="M250.622,495.097c-87.755,0-158.936-2.273-158.936-5.075
		c0-2.802,71.181-5.073,158.936-5.073c87.75,0,158.921,2.272,158.921,5.073C409.543,492.824,338.372,495.097,250.622,495.097
		L250.622,495.097z"/>
	<path fill-rule="evenodd" clip-rule="evenodd" fill="#E6E6E6" d="M250.648,495.016c-86.672,0-156.975-2.241-156.975-5.004
		c0-2.763,70.302-5.003,156.975-5.003c86.667,0,156.96,2.24,156.96,5.003C407.608,492.775,337.315,495.016,250.648,495.016
		L250.648,495.016z"/>
	<path fill-rule="evenodd" clip-rule="evenodd" fill="#E5E5E5" d="M250.674,494.935c-85.589,0-155.013-2.209-155.013-4.933
		c0-2.724,69.424-4.932,155.013-4.932c85.584,0,154.998,2.208,154.998,4.932C405.672,492.726,336.258,494.935,250.674,494.935
		L250.674,494.935z"/>
	<path fill-rule="evenodd" clip-rule="evenodd" fill="#E4E4E4" d="M250.7,494.855c-84.507,0-153.052-2.178-153.052-4.862
		c0-2.685,68.546-4.861,153.052-4.861c84.501,0,153.037,2.177,153.037,4.861C403.737,492.677,335.2,494.855,250.7,494.855
		L250.7,494.855z"/>
	<path fill-rule="evenodd" clip-rule="evenodd" fill="#E3E3E3" d="M250.725,494.774c-83.424,0-151.091-2.146-151.091-4.791
		c0-2.646,67.667-4.79,151.091-4.79c83.417,0,151.076,2.145,151.076,4.79C401.801,492.628,334.143,494.774,250.725,494.774
		L250.725,494.774z"/>
	<path fill-rule="evenodd" clip-rule="evenodd" fill="#E2E2E2" d="M250.751,494.693c-82.341,0-149.129-2.114-149.129-4.72
		c0-2.607,66.789-4.72,149.129-4.72c82.334,0,149.114,2.113,149.114,4.72C399.866,492.579,333.086,494.693,250.751,494.693
		L250.751,494.693z"/>
	<path fill-rule="evenodd" clip-rule="evenodd" fill="#E1E1E1" d="M250.777,494.613c-81.258,0-147.168-2.083-147.168-4.65
		c0-2.568,65.91-4.649,147.168-4.649c81.251,0,147.153,2.082,147.153,4.649C397.93,492.53,332.028,494.613,250.777,494.613
		L250.777,494.613z"/>
	<path fill-rule="evenodd" clip-rule="evenodd" fill="#E0E0E0" d="M250.803,494.532c-80.175,0-145.207-2.051-145.207-4.579
		c0-2.528,65.032-4.578,145.207-4.578c80.168,0,145.192,2.05,145.192,4.578C395.995,492.481,330.971,494.532,250.803,494.532
		L250.803,494.532z"/>
	<path fill-rule="evenodd" clip-rule="evenodd" fill="#DFDFDF" d="M250.828,494.451c-79.092,0-143.246-2.019-143.246-4.508
		c0-2.489,64.153-4.508,143.246-4.508c79.085,0,143.231,2.018,143.231,4.508C394.059,492.432,329.914,494.451,250.828,494.451
		L250.828,494.451z"/>
	<path fill-rule="evenodd" clip-rule="evenodd" fill="#DEDEDE" d="M250.854,494.37c-78.009,0-141.284-1.987-141.284-4.437
		c0-2.451,63.275-4.437,141.284-4.437c78.002,0,141.269,1.986,141.269,4.437C392.123,492.383,328.856,494.37,250.854,494.37
		L250.854,494.37z"/>
	<path fill-rule="evenodd" clip-rule="evenodd" fill="#DDDDDD" d="M250.88,494.29c-76.926,0-139.323-1.956-139.323-4.366
		c0-2.411,62.397-4.366,139.323-4.366c76.919,0,139.308,1.955,139.308,4.366C390.188,492.334,327.799,494.29,250.88,494.29
		L250.88,494.29z"/>
	<path fill-rule="evenodd" clip-rule="evenodd" fill="#DCDCDC" d="M250.906,494.209c-75.843,0-137.362-1.924-137.362-4.295
		c0-2.372,61.518-4.296,137.362-4.296c75.836,0,137.347,1.923,137.347,4.296C388.252,492.285,326.742,494.209,250.906,494.209
		L250.906,494.209z"/>
	<path fill-rule="evenodd" clip-rule="evenodd" fill="#DBDBDB" d="M250.932,494.128c-74.761,0-135.4-1.892-135.4-4.224
		c0-2.333,60.64-4.225,135.4-4.225c74.753,0,135.385,1.891,135.385,4.225C386.317,492.236,325.684,494.128,250.932,494.128
		L250.932,494.128z"/>
	<path fill-rule="evenodd" clip-rule="evenodd" fill="#DADADA" d="M250.957,494.048c-73.678,0-133.439-1.861-133.439-4.154
		c0-2.294,59.761-4.154,133.439-4.154c73.67,0,133.424,1.86,133.424,4.154C384.381,492.187,324.627,494.048,250.957,494.048
		L250.957,494.048z"/>
	<path fill-rule="evenodd" clip-rule="evenodd" fill="#D9D9D9" d="M250.983,493.967c-72.595,0-131.478-1.829-131.478-4.083
		c0-2.255,58.883-4.083,131.478-4.083c72.587,0,131.463,1.828,131.463,4.083C382.446,492.138,323.57,493.967,250.983,493.967
		L250.983,493.967z"/>
	<path fill-rule="evenodd" clip-rule="evenodd" fill="#D9D9D9" d="M251.009,493.886c-71.512,0-129.516-1.797-129.516-4.012
		c0-2.216,58.005-4.013,129.516-4.013c71.504,0,129.501,1.796,129.501,4.013C380.51,492.089,322.512,493.886,251.009,493.886
		L251.009,493.886z"/>
	<path fill-rule="evenodd" clip-rule="evenodd" fill="#D8D8D8" d="M251.035,493.805c-70.429,0-127.555-1.765-127.555-3.941
		c0-2.177,57.126-3.942,127.555-3.942c70.42,0,127.54,1.765,127.54,3.942C378.575,492.04,321.455,493.805,251.035,493.805
		L251.035,493.805z"/>
	<path fill-rule="evenodd" clip-rule="evenodd" fill="#D7D7D7" d="M251.06,493.725c-69.346,0-125.594-1.734-125.594-3.87
		c0-2.138,56.248-3.871,125.594-3.871c69.337,0,125.579,1.733,125.579,3.871C376.639,491.991,320.398,493.725,251.06,493.725
		L251.06,493.725z"/>
	<path fill-rule="evenodd" clip-rule="evenodd" fill="#D6D6D6" d="M251.086,493.644c-68.263,0-123.633-1.702-123.633-3.799
		c0-2.099,55.369-3.801,123.633-3.801c68.254,0,123.617,1.701,123.617,3.801C374.703,491.942,319.34,493.644,251.086,493.644
		L251.086,493.644z"/>
	<path fill-rule="evenodd" clip-rule="evenodd" fill="#D5D5D5" d="M251.112,493.563c-67.18,0-121.671-1.67-121.671-3.728
		c0-2.06,54.491-3.73,121.671-3.73c67.171,0,121.656,1.669,121.656,3.73C372.768,491.893,318.283,493.563,251.112,493.563
		L251.112,493.563z"/>
	<path fill-rule="evenodd" clip-rule="evenodd" fill="#D4D4D4" d="M251.138,493.483c-66.098,0-119.71-1.638-119.71-3.658
		c0-2.021,53.612-3.659,119.71-3.659c66.088,0,119.695,1.638,119.695,3.659C370.832,491.844,317.226,493.483,251.138,493.483
		L251.138,493.483z"/>
	<path fill-rule="evenodd" clip-rule="evenodd" fill="#D3D3D3" d="M251.163,493.402c-65.015,0-117.749-1.607-117.749-3.587
		c0-1.982,52.734-3.588,117.749-3.588c65.005,0,117.733,1.606,117.733,3.588C368.897,491.795,316.168,493.402,251.163,493.402
		L251.163,493.402z"/>
	<path fill-rule="evenodd" clip-rule="evenodd" fill="#D2D2D2" d="M251.189,493.321c-63.932,0-115.787-1.575-115.787-3.516
		c0-1.943,51.856-3.518,115.787-3.518c63.922,0,115.772,1.574,115.772,3.518C366.961,491.746,315.111,493.321,251.189,493.321
		L251.189,493.321z"/>
	<path fill-rule="evenodd" clip-rule="evenodd" fill="#D1D1D1" d="M251.215,493.241c-62.849,0-113.826-1.543-113.826-3.445
		c0-1.904,50.977-3.447,113.826-3.447c62.839,0,113.811,1.543,113.811,3.447C365.026,491.697,314.054,493.241,251.215,493.241
		L251.215,493.241z"/>
	<path fill-rule="evenodd" clip-rule="evenodd" fill="#D0D0D0" d="M251.241,493.16c-61.766,0-111.865-1.512-111.865-3.374
		c0-1.865,50.099-3.376,111.865-3.376c61.756,0,111.849,1.511,111.849,3.376C363.09,491.648,312.997,493.16,251.241,493.16
		L251.241,493.16z"/>
	<path fill-rule="evenodd" clip-rule="evenodd" fill="#CFCFCF" d="M251.267,493.079c-60.683,0-109.903-1.48-109.903-3.303
		c0-1.826,49.22-3.306,109.903-3.306c60.673,0,109.888,1.479,109.888,3.306C361.155,491.599,311.939,493.079,251.267,493.079
		L251.267,493.079z"/>
	<path fill-rule="evenodd" clip-rule="evenodd" fill="#CECECE" d="M251.292,492.998c-59.6,0-107.942-1.448-107.942-3.233
		c0-1.787,48.342-3.235,107.942-3.235c59.59,0,107.927,1.448,107.927,3.235C359.219,491.55,310.882,492.998,251.292,492.998
		L251.292,492.998z"/>
	<path fill-rule="evenodd" clip-rule="evenodd" fill="#CDCDCD" d="M251.318,492.918c-58.517,0-105.981-1.416-105.981-3.162
		c0-1.748,47.464-3.164,105.981-3.164c58.506,0,105.965,1.416,105.965,3.164C357.283,491.501,309.825,492.918,251.318,492.918
		L251.318,492.918z"/>
	<path fill-rule="evenodd" clip-rule="evenodd" fill="#CCCCCC" d="M251.344,492.837c-57.434,0-104.02-1.385-104.02-3.091
		c0-1.709,46.585-3.093,104.02-3.093c57.423,0,104.004,1.384,104.004,3.093C355.348,491.452,308.767,492.837,251.344,492.837
		L251.344,492.837z"/>
	<path fill-rule="evenodd" clip-rule="evenodd" fill="#CBCBCB" d="M251.37,492.756c-56.352,0-102.058-1.353-102.058-3.02
		c0-1.67,45.707-3.023,102.058-3.023c56.34,0,102.043,1.352,102.043,3.023C353.412,491.403,307.71,492.756,251.37,492.756
		L251.37,492.756z"/>
	<path fill-rule="evenodd" clip-rule="evenodd" fill="#CACACA" d="M251.395,492.676c-55.269,0-100.097-1.321-100.097-2.949
		c0-1.631,44.828-2.952,100.097-2.952c55.257,0,100.081,1.321,100.081,2.952C351.477,491.354,306.653,492.676,251.395,492.676
		L251.395,492.676z"/>
	<path fill-rule="evenodd" clip-rule="evenodd" fill="#C9C9C9" d="M251.421,492.595c-54.186,0-98.136-1.29-98.136-2.878
		c0-1.592,43.95-2.881,98.136-2.881c54.174,0,98.12,1.289,98.12,2.881C349.541,491.305,305.595,492.595,251.421,492.595
		L251.421,492.595z"/>
	<path fill-rule="evenodd" clip-rule="evenodd" fill="#C8C8C8" d="M251.447,492.514c-53.103,0-96.174-1.258-96.174-2.807
		c0-1.553,43.071-2.811,96.174-2.811c53.091,0,96.159,1.257,96.159,2.811C347.606,491.256,304.538,492.514,251.447,492.514
		L251.447,492.514z"/>
	<path fill-rule="evenodd" clip-rule="evenodd" fill="#C7C7C7" d="M251.473,492.434c-52.02,0-94.213-1.226-94.213-2.737
		c0-1.514,42.193-2.74,94.213-2.74c52.008,0,94.197,1.226,94.197,2.74C345.67,491.207,303.481,492.434,251.473,492.434
		L251.473,492.434z"/>
	<path fill-rule="evenodd" clip-rule="evenodd" fill="#C6C6C6" d="M251.498,492.353c-50.937,0-92.252-1.194-92.252-2.666
		c0-1.475,41.315-2.669,92.252-2.669c50.925,0,92.236,1.194,92.236,2.669C343.734,491.158,302.423,492.353,251.498,492.353
		L251.498,492.353z"/>
	<path fill-rule="evenodd" clip-rule="evenodd" fill="#C5C5C5" d="M251.524,492.272c-49.854,0-90.29-1.163-90.29-2.595
		c0-1.436,40.436-2.599,90.29-2.599c49.842,0,90.275,1.162,90.275,2.599C341.799,491.109,301.366,492.272,251.524,492.272
		L251.524,492.272z"/>
	<path fill-rule="evenodd" clip-rule="evenodd" fill="#C4C4C4" d="M251.55,492.191c-48.771,0-88.329-1.131-88.329-2.524
		c0-1.397,39.558-2.528,88.329-2.528c48.759,0,88.313,1.131,88.313,2.528C339.863,491.06,300.309,492.191,251.55,492.191
		L251.55,492.191z"/>
	<path fill-rule="evenodd" clip-rule="evenodd" fill="#C3C3C3" d="M251.576,492.111c-47.689,0-86.368-1.099-86.368-2.453
		c0-1.358,38.679-2.457,86.368-2.457c47.676,0,86.352,1.099,86.352,2.457C337.928,491.011,299.251,492.111,251.576,492.111
		L251.576,492.111z"/>
	<path fill-rule="evenodd" clip-rule="evenodd" fill="#C2C2C2" d="M251.602,492.03c-46.606,0-84.407-1.068-84.407-2.382
		c0-1.319,37.801-2.386,84.407-2.386c46.593,0,84.391,1.067,84.391,2.386C335.992,490.962,298.194,492.03,251.602,492.03
		L251.602,492.03z"/>
	<path fill-rule="evenodd" clip-rule="evenodd" fill="#C1C1C1" d="M251.627,491.949c-45.523,0-82.445-1.036-82.445-2.311
		c0-1.28,36.922-2.316,82.445-2.316c45.509,0,82.429,1.035,82.429,2.316C334.057,490.913,297.137,491.949,251.627,491.949
		L251.627,491.949z"/>
	<path fill-rule="evenodd" clip-rule="evenodd" fill="#C0C0C0" d="M251.653,491.869c-44.44,0-80.484-1.004-80.484-2.241
		c0-1.241,36.044-2.245,80.484-2.245c44.426,0,80.468,1.004,80.468,2.245C332.121,490.865,296.079,491.869,251.653,491.869
		L251.653,491.869z"/>
	<path fill-rule="evenodd" clip-rule="evenodd" fill="#BFBFBF" d="M251.679,491.788c-43.357,0-78.523-0.972-78.523-2.17
		c0-1.202,35.166-2.174,78.523-2.174c43.343,0,78.507,0.972,78.507,2.174C330.186,490.816,295.022,491.788,251.679,491.788
		L251.679,491.788z"/>
	<path fill-rule="evenodd" clip-rule="evenodd" fill="#BEBEBE" d="M251.705,491.707c-42.274,0-76.561-0.941-76.561-2.099
		c0-1.163,34.287-2.104,76.561-2.104c42.26,0,76.545,0.94,76.545,2.104C328.25,490.767,293.965,491.707,251.705,491.707
		L251.705,491.707z"/>
	<path fill-rule="evenodd" clip-rule="evenodd" fill="#BDBDBD" d="M251.73,491.626c-41.191,0-74.6-0.909-74.6-2.028
		c0-1.124,33.409-2.033,74.6-2.033c41.177,0,74.584,0.909,74.584,2.033C326.315,490.718,292.907,491.626,251.73,491.626
		L251.73,491.626z"/>
	<path fill-rule="evenodd" clip-rule="evenodd" fill="#BCBCBC" d="M251.756,491.546c-40.108,0-72.639-0.877-72.639-1.957
		c0-1.085,32.53-1.962,72.639-1.962c40.094,0,72.623,0.877,72.623,1.962C324.379,490.669,291.85,491.546,251.756,491.546
		L251.756,491.546z"/>
	<path fill-rule="evenodd" clip-rule="evenodd" fill="#BBBBBB" d="M251.782,491.465c-39.025,0-70.677-0.845-70.677-1.886
		c0-1.046,31.652-1.891,70.677-1.891c39.011,0,70.661,0.845,70.661,1.891C322.443,490.62,290.793,491.465,251.782,491.465
		L251.782,491.465z"/>
	<path fill-rule="evenodd" clip-rule="evenodd" fill="#BABABA" d="M251.808,491.384c-37.943,0-68.716-0.814-68.716-1.815
		c0-1.007,30.774-1.821,68.716-1.821c37.928,0,68.7,0.814,68.7,1.821C320.508,490.571,289.736,491.384,251.808,491.384
		L251.808,491.384z"/>
	<path fill-rule="evenodd" clip-rule="evenodd" fill="#B9B9B9" d="M251.833,491.304c-36.86,0-66.755-0.782-66.755-1.745
		c0-0.968,29.895-1.75,66.755-1.75c36.845,0,66.739,0.782,66.739,1.75C318.572,490.522,288.678,491.304,251.833,491.304
		L251.833,491.304z"/>
	<path fill-rule="evenodd" clip-rule="evenodd" fill="#B8B8B8" d="M251.859,491.223c-35.777,0-64.794-0.75-64.794-1.674
		c0-0.929,29.017-1.679,64.794-1.679c35.762,0,64.778,0.75,64.778,1.679C316.637,490.473,287.621,491.223,251.859,491.223
		L251.859,491.223z"/>
	<path fill-rule="evenodd" clip-rule="evenodd" fill="#B7B7B7" d="M251.885,491.142c-34.694,0-62.832-0.719-62.832-1.603
		c0-0.89,28.138-1.609,62.832-1.609c34.679,0,62.816,0.719,62.816,1.609C314.701,490.424,286.564,491.142,251.885,491.142
		L251.885,491.142z"/>
	<path fill-rule="evenodd" clip-rule="evenodd" fill="#B6B6B6" d="M251.911,491.062c-33.611,0-60.871-0.687-60.871-1.532
		c0-0.851,27.26-1.538,60.871-1.538c33.596,0,60.855,0.687,60.855,1.538C312.766,490.375,285.506,491.062,251.911,491.062
		L251.911,491.062z"/>
	<path fill-rule="evenodd" clip-rule="evenodd" fill="#B5B5B5" d="M251.936,490.981c-32.528,0-58.91-0.655-58.91-1.461
		c0-0.812,26.381-1.467,58.91-1.467c32.512,0,58.894,0.655,58.894,1.467C310.83,490.326,284.449,490.981,251.936,490.981
		L251.936,490.981z"/>
	<path fill-rule="evenodd" clip-rule="evenodd" fill="#B4B4B4" d="M251.962,490.9c-31.445,0-56.948-0.623-56.948-1.39
		c0-0.773,25.503-1.397,56.948-1.397c31.429,0,56.932,0.623,56.932,1.397C308.895,490.277,283.392,490.9,251.962,490.9
		L251.962,490.9z"/>
	<path fill-rule="evenodd" clip-rule="evenodd" fill="#B3B3B3" d="M251.988,490.819c-30.362,0-54.987-0.592-54.987-1.319
		c0-0.734,24.625-1.326,54.987-1.326c30.346,0,54.971,0.592,54.971,1.326C306.959,490.228,282.334,490.819,251.988,490.819
		L251.988,490.819z"/>
</g>
<g>
	<g>
		<path fill="#662D91" d="M250.457,249.945l0.254-0.544l-0.544,0.426L250.052,13c-0.017,0-0.035,0-0.052,0
			C119.166,13,13.103,118.89,13.103,249.724S119.166,486.534,250,486.534c130.665,0,236.616-105.832,236.89-236.432L250.457,249.945
			z"/>
	</g>
	<g>
		<path fill="#C1272D" d="M464.795,149.544l-214.084,99.857l-0.254,0.544l236.433,0.114c0-0.17,0.006-0.338,0.006-0.507
			C486.897,213.812,478.967,179.929,464.795,149.544z"/>
	</g>
	<g>
		<path fill="#F38B00" d="M350.682,35.071c-30.543-14.363-64.645-22.408-100.63-22.416l0.115,236.999l0.544-0.254l214.084-99.857
			C441.364,99.305,400.834,58.655,350.682,35.071z"/>
	</g>
</g>
<g>
	<g>
		<path fill="#F38B00" d="M250.074,101.219c-82.038,0-148.781,66.743-148.781,148.781s66.743,148.781,148.781,148.781
			S398.855,332.038,398.855,250S332.112,101.219,250.074,101.219z"/>
		<path fill="#FFFFFF" d="M250.074,400.781c-83.141,0-150.781-67.641-150.781-150.781c0-83.141,67.64-150.781,150.781-150.781
			S400.855,166.859,400.855,250C400.855,333.141,333.215,400.781,250.074,400.781z M250.074,103.219
			c-80.936,0-146.781,65.846-146.781,146.781s65.846,146.781,146.781,146.781c80.936,0,146.782-65.846,146.782-146.781
			S331.01,103.219,250.074,103.219z"/>
	</g>
	<g>
		<path fill="#FFFFFF" d="M365.419,250c0,8.169-0.86,16.14-2.482,23.833L256.28,247.556l60.056-91.914
			C345.999,176.534,365.419,211.04,365.419,250z"/>
		<path fill="#FFFFFF" d="M364.467,276.27l-111.403-27.447l62.731-96.009l1.692,1.192c31.266,22.022,49.932,57.907,49.932,95.994
			c0,8.142-0.85,16.299-2.525,24.246L364.467,276.27z M259.497,246.289l101.891,25.103c1.349-7.032,2.031-14.219,2.031-21.392
			c0-36.098-17.364-70.152-46.552-91.516L259.497,246.289z"/>
	</g>
	<g>
		<path fill="#FFFFFF" d="M309.885,151.406l-59.729,91.415l-57.644-92.747c16.951-9.803,36.613-15.419,57.562-15.419
			C271.956,134.655,292.434,140.781,309.885,151.406z"/>
		<path fill="#FFFFFF" d="M250.113,246.542l-60.39-97.166l1.787-1.034c17.747-10.263,37.998-15.688,58.563-15.688
			c21.499,0,42.541,5.893,60.851,17.043l1.764,1.074L250.113,246.542z M195.31,150.788l54.887,88.312l56.873-87.043
			c-17.263-10.083-36.923-15.401-56.997-15.401C230.901,136.655,212.013,141.536,195.31,150.788z"/>
	</g>
	<g>
		<path fill="#FFFFFF" d="M185.965,154.16l58.028,93.365l-106.781,26.308c-1.623-7.693-2.482-15.665-2.482-23.833
			C134.729,210.105,155.091,174.879,185.965,154.16z"/>
		<path fill="#FFFFFF" d="M135.682,276.27l-0.427-2.023c-1.675-7.943-2.525-16.101-2.525-24.246
			c0-39.149,19.484-75.599,52.121-97.501l1.72-1.154l60.575,97.463L135.682,276.27z M185.369,156.99
			c-30.498,21.271-48.64,55.883-48.64,93.01c0,7.176,0.683,14.362,2.03,21.392l102.081-25.15L185.369,156.99z"/>
	</g>
	<g>
		<path fill="#FFFFFF" d="M139.054,281.326l107.168-26.404l0.133,110.356C195.241,363.651,152.415,328.611,139.054,281.326z"/>
		<path fill="#FFFFFF" d="M248.357,367.343l-2.066-0.065c-25.276-0.805-49.131-9.549-68.987-25.287
			c-19.547-15.493-33.439-36.282-40.175-60.12l-0.562-1.991l111.652-27.509L248.357,367.343z M141.561,282.769
			c6.641,21.911,20.158,41.765,38.229,56.088c18.636,14.771,40.919,23.163,64.563,24.339l-0.128-105.722L141.561,282.769z"/>
	</g>
	<g>
		<path fill="#FFFFFF" d="M254.071,365.268l-0.133-110.343l107.156,26.401C347.758,328.525,305.062,363.522,254.071,365.268z"/>
		<path fill="#FFFFFF" d="M252.074,367.337l-0.14-114.966l111.646,27.508l-0.562,1.991c-6.723,23.792-20.579,44.552-40.071,60.037
			c-19.796,15.727-43.59,24.496-68.808,25.359L252.074,367.337z M255.94,257.479l0.128,105.701
			c23.589-1.23,45.812-9.645,64.391-24.404c18.287-14.527,31.438-33.858,38.13-56.007L255.94,257.479z"/>
	</g>
	<g id="Ojtaj1_1_">
		<g>
			<g>
				<path fill="#F38B00" d="M264.683,225.749c-0.097,2.083-0.278,4.166-0.279,6.248c-0.02,24.479-0.012,48.959-0.015,73.438
					c0,1.605,0.04,3.214-0.057,4.814c-0.257,4.206-2.215,6.878-6.734,6.759c-4.515-0.119-6.349-2.863-6.356-7.098
					c-0.02-12.24-0.017-24.479-0.023-36.719c-0.002-3.819,0-7.637,0-11.456c-0.593-0.003-1.186-0.006-1.78-0.01
					c-0.11,1.843-0.311,3.685-0.315,5.528c-0.027,13.644-0.068,27.289,0.014,40.933c0.028,4.698-0.852,8.728-6.524,8.803
					c-5.708,0.075-6.639-3.907-6.626-8.641c0.066-25.482,0.039-50.965,0.044-76.448c0-2.09,0-4.18,0-6.269
					c-0.525-0.049-1.05-0.098-1.575-0.147c-0.242,1.351-0.684,2.7-0.694,4.052c-0.066,8.427-0.084,16.855-0.013,25.282
					c0.028,3.373-0.713,6.28-4.634,6.377c-4.253,0.105-5.146-2.897-5.124-6.54c0.062-10.634-0.069-21.27,0.05-31.903
					c0.098-8.792,5.256-14.626,13.883-15.054c8.203-0.407,16.465-0.403,24.662,0.073c8.09,0.47,13.272,6.084,13.448,14.206
					c0.239,11.031,0.055,22.07,0.085,33.106c0.009,3.386-0.892,6.208-4.855,6.154c-3.886-0.053-4.886-2.853-4.881-6.232
					c0.01-7.825,0-15.651-0.002-23.476c0-1.914,0-3.827,0-5.741C265.815,225.775,265.249,225.762,264.683,225.749z"/>
			</g>
			<g>
				<path fill="#F38B00" d="M250.836,183.007c6.101,0.354,10.736,5.5,10.468,11.623c-0.268,6.108-5.386,10.875-11.464,10.677
					c-6.371-0.207-11.087-5.494-10.686-11.98C239.534,187.161,244.643,182.648,250.836,183.007z"/>
			</g>
		</g>
	</g>
</g>
<g id="fyBgk0_1_">
	<g>
		<g>
			<path fill="#F38B00" d="M329.786,200.429c-0.303-0.743-0.607-1.486-0.91-2.229c-0.01-0.147-0.002-0.298-0.033-0.441
				c-0.631-2.923-0.086-5.635,1.735-7.978c0.823-1.058,1.987-1.852,2.996-2.765c0.789-0.322,1.579-0.645,2.368-0.967
				c0.098,0.008,0.201,0.043,0.292,0.021c2.205-0.524,4.306-0.213,6.38,0.663c8.661,3.656,17.335,7.282,26.004,10.919
				c0.249,0.104,0.503,0.196,0.796,0.309c0.13-0.286,0.247-0.53,0.352-0.778c3.685-8.758,7.36-17.52,11.067-26.268
				c0.358-0.844,0.803-1.702,1.402-2.38c0.817-0.924,1.821-1.681,2.745-2.51c0.789-0.322,1.579-0.645,2.368-0.967
				c0.173-0.017,0.348-0.018,0.517-0.052c2.87-0.589,5.542-0.065,7.846,1.714c1.079,0.833,1.888,2.014,2.82,3.037
				c0.303,0.743,0.607,1.486,0.91,2.229c0.01,0.148,0,0.3,0.034,0.442c0.48,2.038,0.309,4.027-0.498,5.95
				c-6.147,14.648-12.303,29.292-18.452,43.939c-0.179,0.427-0.315,0.873-0.47,1.31c-0.093,0.038-0.186,0.076-0.279,0.114
				c-0.261-0.137-0.513-0.295-0.784-0.409c-14.732-6.193-29.464-12.384-44.2-18.568c-1.649-0.692-3.045-1.705-4.138-3.124
				C330.354,201.245,330.076,200.832,329.786,200.429z"/>
			<path fill="#FFFFFF" d="M379.67,225.942l-1.108-0.589c-0.113-0.062-0.224-0.129-0.342-0.178
				c-14.73-6.193-29.463-12.384-44.198-18.568c-2.02-0.848-3.685-2.108-4.948-3.747c-0.223-0.29-0.434-0.587-0.643-0.885
				l-0.406-0.57l-1.122-2.749l-0.031-0.536c0-0.009,0.006,0.014,0.018,0.067c-0.764-3.546-0.033-6.875,2.11-9.634
				c0.701-0.9,1.525-1.583,2.323-2.244c0.308-0.255,0.615-0.51,0.909-0.776l0.262-0.236l3.139-1.282l0.455,0.039
				c2.394-0.499,4.79-0.226,7.306,0.836c6.536,2.759,13.079,5.501,19.623,8.244l5.342,2.239l2.294-5.452
				c2.774-6.598,5.549-13.196,8.341-19.787c0.527-1.244,1.082-2.174,1.746-2.924c0.664-0.752,1.394-1.373,2.099-1.974
				c0.271-0.232,0.544-0.463,0.809-0.701l0.259-0.232l2.883-1.177l0.711-0.086c0.847-0.175,1.722-0.267,2.567-0.267
				c2.528,0,4.84,0.794,6.87,2.361c0.917,0.708,1.613,1.544,2.288,2.353c0.26,0.312,0.519,0.624,0.789,0.921l0.239,0.263
				l1.167,2.856l0.03,0.546c0,0,0,0,0,0c0.545,2.407,0.335,4.788-0.624,7.075l-18.453,43.939c-0.104,0.248-0.188,0.501-0.274,0.754
				l-0.457,1.293L379.67,225.942z M331.551,199.46l0.149,0.21c0.178,0.252,0.354,0.504,0.542,0.749
				c0.846,1.096,1.935,1.914,3.327,2.499c14.435,6.059,28.867,12.123,43.298,18.189l18.27-43.504
				c0.648-1.546,0.777-3.09,0.394-4.718c-0.04-0.174-0.06-0.333-0.069-0.467l-0.648-1.588c-0.224-0.256-0.443-0.518-0.662-0.78
				c-0.561-0.673-1.09-1.309-1.659-1.749c-1.798-1.386-3.845-1.823-6.222-1.337c-0.149,0.031-0.301,0.05-0.454,0.063l-1.764,0.72
				c-0.205,0.18-0.413,0.357-0.621,0.534c-0.627,0.534-1.219,1.038-1.695,1.578c-0.364,0.412-0.711,1.013-1.06,1.836
				c-2.792,6.587-5.564,13.182-8.338,19.777l-2.728,6.487c-0.08,0.189-0.166,0.378-0.26,0.581l-0.896,1.968l-2.021-0.78
				c-0.206-0.078-0.397-0.151-0.586-0.229l-6.379-2.674c-6.547-2.744-13.094-5.487-19.633-8.248
				c-1.835-0.775-3.481-0.953-5.141-0.56l-0.424,0.059l-1.627,0.664c-0.253,0.22-0.512,0.436-0.771,0.651
				c-0.661,0.547-1.286,1.065-1.718,1.62c-1.434,1.845-1.878,3.916-1.358,6.329c0.03,0.136,0.048,0.278,0.06,0.423L331.551,199.46z"
				/>
		</g>
	</g>
</g>
<g>
	<path fill="#FFFFFF" d="M67.319,356.652l-4.076-7.691c-1.139-2.148-1.572-4.128-1.268-5.811c0.26-1.695,1.301-3.079,3.083-4.023
		c1.611-0.854,3.641-0.988,5.501,0.199c-0.596-3.994,2.159-5.562,3.035-6.027c1.668-0.884,3.851-1.207,5.571-0.489
		c2.63,1.068,3.562,2.349,5.436,5.884l3.641,6.87L67.319,356.652z M72.433,347.098l-1.004-1.895
		c-0.195-0.367-0.495-0.934-0.947-1.309c-0.481-0.361-1.1-0.504-1.92-0.069c-0.792,0.42-0.993,0.997-0.951,1.554
		c0.042,0.558,0.341,1.123,0.566,1.547l1.004,1.895L72.433,347.098z M80.717,342.707l-1.334-2.517
		c-0.18-0.339-0.539-1.018-1.093-1.448c-0.569-0.459-1.333-0.67-2.323-0.146c-0.905,0.479-1.117,1.172-1.044,1.857
		c0.059,0.656,0.418,1.335,0.643,1.76l1.333,2.516L80.717,342.707z"/>
	<path fill="#FFFFFF" d="M57.103,336.507l-2.322-5.587l16.965-7.05l-2.69-6.474l4.906-2.039l5.012,12.06L57.103,336.507z"/>
	<path fill="#FFFFFF" d="M62.789,319.225c-7.422,2.212-13.723-2.122-15.587-8.379c-2.084-6.992,1.885-13.619,8.204-15.502
		c6.318-1.883,13.258,1.459,15.36,8.514c2.129,7.146-2.119,13.621-7.946,15.358L62.789,319.225z M60.786,313.51
		c3.465-1.032,6.013-4.363,4.852-8.258c-1.225-4.11-5.561-4.988-8.474-4.12c-2.944,0.877-6.123,3.995-4.88,8.166
		c1.197,4.018,5.281,5.172,8.471,4.222L60.786,313.51z"/>
	<path fill="#FFFFFF" d="M62.946,264.464c0.098,0.438,0.2,0.908,0.285,1.478c0.481,3.229-0.445,5.049-1.015,5.78
		c2.083,2.472,2.585,4.759,2.816,6.31c1.126,7.563-4.265,13.283-10.214,14.17c-6.14,0.915-12.986-2.918-14.113-10.481
		s4.119-13.392,10.1-14.282c3.893-0.58,6.053,0.457,7.06,0.921c0.556-0.827,0.541-1.795,0.334-3.188L62.946,264.464z
		 M45.958,280.938c0.41,2.753,2.391,4.755,5.412,5.275c0.331,0.048,0.634,0.132,0.987,0.111c-0.325-0.663-0.947-1.8-1.178-3.351
		c-0.255-1.709-0.128-3.248,0.842-5.204c0.845-1.711,1.594-2.761,2.745-4.161c-0.785-0.271-1.867-0.369-3.069-0.19
		c-4.146,0.618-6.261,4.007-5.743,7.487L45.958,280.938z M59.783,278.845c-0.141-0.949-0.473-1.87-0.828-2.303
		c-0.841,0.87-1.375,1.629-1.792,2.306c-0.833,1.354-1.006,2.802-0.832,3.973c0.151,1.013,0.413,1.686,0.673,2.132
		c2.286-1.375,3.07-4.145,2.783-6.075L59.783,278.845z"/>
	<path fill="#FFFFFF" d="M38.87,257.178l14.303-0.294c0.8-0.016,1.919-0.071,2.839-0.474c0.919-0.436,1.64-1.219,1.609-2.69
		c-0.031-1.504-0.719-2.258-1.59-2.592c-0.904-0.366-2.056-0.342-2.983-0.323l-14.303,0.293l-0.124-6.047l14.303-0.293
		c3.968-0.081,5.745,0.747,7.312,2.219c1.599,1.503,2.635,3.627,2.695,6.571c0.036,1.728-0.316,4.872-2.388,6.867
		c-2.104,1.996-3.759,2.446-7.247,2.518l-14.303,0.293L38.87,257.178z"/>
	<path fill="#FFFFFF" d="M38.937,239.026l1.055-13.369l5.296,0.418l-0.579,7.338l3.669,0.29l0.562-7.115l5.296,0.418l-0.562,7.115
		l4.052,0.32l0.579-7.338l5.296,0.418l-1.055,13.369L38.937,239.026z"/>
	<path fill="#FFFFFF" d="M44.096,202.21c0.98-4.273,2-5.713,3.316-6.725c1.912-1.465,4.396-1.848,6.736-1.311
		c2.339,0.537,4.581,2.069,5.492,3.821c0.976,1.898,1.273,3.608,0.451,7.195l-0.53,2.308l7.236,1.66l-1.353,5.895l-23.08-5.295
		L44.096,202.21z M54.383,206.311l0.494-2.152c0.129-0.561,0.344-1.497,0.179-2.355c-0.164-0.858-0.738-1.646-2.11-1.961
		c-1.373-0.315-2.178,0.189-2.707,0.922c-0.529,0.732-0.751,1.699-0.901,2.354l-0.443,1.934L54.383,206.311z"/>
	<path fill="#FFFFFF" d="M47.672,188.068l2.526-7.319c1.211-3.508,2.597-5.467,3.993-6.373c2.099-1.374,4.599-1.459,7.048-0.614
		c1.724,0.595,2.887,1.538,3.667,2.518c0.918,1.163,1.299,2.513,1.387,3.728l9.823-1.788l-2.035,5.897l-12.811,2.111l0.323-0.938
		c0.501-1.452,0.808-2.733,0.585-3.656c-0.213-0.852-1.074-1.792-2.313-2.22c-1.18-0.407-2.315-0.156-3.06,0.433
		c-0.612,0.5-1.137,1.334-1.409,2.12l-0.73,2.117l17.359,5.991l-1.973,5.716L47.672,188.068z"/>
	<path fill="#FFFFFF" d="M65.771,172.637c-6.953-3.408-8.644-10.865-5.771-16.727c3.211-6.551,10.621-8.728,16.54-5.826
		s8.752,10.063,5.513,16.671c-3.282,6.695-10.794,8.571-16.253,5.896L65.771,172.637z M68.174,167.08
		c3.247,1.591,7.377,0.872,9.166-2.777c1.887-3.85-0.703-7.436-3.432-8.774c-2.758-1.352-7.208-1.217-9.124,2.69
		c-1.845,3.764,0.373,7.381,3.361,8.846L68.174,167.08z"/>
	<path fill="#FFFFFF" d="M68.82,140.42l6.947-10.905l4.481,2.854l-3.697,5.803l3.401,2.167l3.56-5.587l4.481,2.854l-3.56,5.587
		l7.612,4.85l-3.25,5.102L68.82,140.42z"/>
	<path fill="#FFFFFF" d="M78.556,125.575l8.139-10.658l4.223,3.225l-4.468,5.851l2.925,2.233l4.332-5.672l4.223,3.224l-4.332,5.672
		l3.23,2.467l4.468-5.85l4.223,3.224l-8.139,10.658L78.556,125.575z"/>
	<path fill="#FFFFFF" d="M104.833,118.237c2.029,1.859,3.529,0.933,4.048,0.367c0.973-1.062,0.684-2.499-0.118-3.234
		c-0.92-0.843-1.874-0.371-5.471,1.28c-1.62,0.772-5.636,2.691-8.915-0.314c-3.515-3.222-2.46-8.114,0.221-11.04
		c2.206-2.406,6.546-4.679,10.81-0.901l-4.043,4.411c-0.676-0.446-1.915-1.321-3.169,0.047c-0.713,0.778-0.863,2.031-0.037,2.788
		c0.802,0.735,1.447,0.458,5.738-1.382c4.446-1.915,6.713-1.357,8.742,0.502c2.784,2.552,4.25,6.587,0.012,11.211
		c-4.194,4.576-8.57,3.952-11.883,0.698L104.833,118.237z"/>
	<path fill="#FFFFFF" d="M103.546,96.729l4.401-4.147l16.237,17.231l-4.401,4.147L103.546,96.729z"/>
	<path fill="#FFFFFF" d="M118.894,98.518c-4.745-6.119-2.983-13.559,2.174-17.558c5.765-4.471,13.376-3.167,17.416,2.042
		s3.433,12.886-2.382,17.396c-5.891,4.568-13.462,2.95-17.188-1.854L118.894,98.518z M123.496,94.584
		c2.216,2.857,6.241,4.027,9.452,1.537c3.388-2.627,2.639-6.986,0.776-9.388c-1.882-2.427-5.938-4.263-9.376-1.596
		c-3.312,2.569-2.911,6.792-0.872,9.422L123.496,94.584z"/>
	<path fill="#FFFFFF" d="M155.687,75.844l-7.377-12.405l5.004-2.917l11.924,20.46l-4.535,2.643l-15.011-7.771l7.297,12.267
		l-5.004,2.917l-11.924-20.46l4.507-2.626L155.687,75.844z"/>
	<path fill="#FFFFFF" d="M172.846,77.499l-6.037,2.568l-0.642-25.463l4.8-2.042l17.634,18.234l-6.096,2.593l-2.371-2.712
		l-7.627,3.245L172.846,77.499z M171.135,60.315l0.876,8.6l4.8-2.042L171.135,60.315z"/>
	<path fill="#FFFFFF" d="M183.63,47.771l5.779-1.785l5.421,17.552l6.697-2.069l1.568,5.076l-12.476,3.854L183.63,47.771z"/>
	<path fill="#FFFFFF" d="M258.475,44.875l5.703,0.332c1.594,0.093,2.852,0.523,3.691,1.267c0.862,0.724,1.285,1.779,1.208,3.1
		c-0.069,1.195-0.686,2.379-1.984,3.019c2.443,1.026,2.386,3.105,2.348,3.755c-0.072,1.237-0.634,2.572-1.622,3.292
		c-1.495,1.112-2.531,1.199-5.152,1.046l-5.095-0.297L258.475,44.875z M261.736,57.14l1.866,0.109
		c0.252,0.015,0.755,0.044,1.186-0.121c0.451-0.163,0.829-0.52,0.872-1.253c0.039-0.671-0.276-1.026-0.687-1.218
		c-0.389-0.191-0.892-0.22-1.206-0.239l-1.866-0.108L261.736,57.14z M262.095,50.998l1.404,0.082
		c0.272,0.016,0.692,0.041,1.057-0.085c0.366-0.147,0.657-0.446,0.692-1.054c0.034-0.587-0.221-0.896-0.548-1.063
		c-0.327-0.166-0.746-0.19-1.061-0.209l-1.405-0.082L262.095,50.998z"/>
	<path fill="#FFFFFF" d="M272.745,45.86l3.941,0.47l-1.427,11.973l4.567,0.545l-0.413,3.462l-8.51-1.015L272.745,45.86z"/>
	<path fill="#FFFFFF" d="M280.496,54.682c0.941-4.992,5.362-7.363,9.57-6.569c4.704,0.887,7.374,5.193,6.572,9.443
		s-4.836,7.292-9.581,6.396c-4.807-0.906-7.305-5.33-6.565-9.25L280.496,54.682z M284.43,55.231
		c-0.439,2.331,0.736,4.818,3.356,5.312c2.765,0.521,4.58-1.743,4.95-3.703c0.373-1.98-0.489-4.771-3.295-5.3
		c-2.702-0.51-4.603,1.524-5.008,3.67L284.43,55.231z"/>
	<path fill="#FFFFFF" d="M312.654,70.432c-0.288-0.061-0.597-0.128-0.96-0.232c-2.06-0.591-2.895-1.64-3.177-2.18
		c-2.043,0.571-3.546,0.249-4.535-0.035c-4.824-1.386-6.774-6.164-5.684-9.958c1.125-3.917,5.277-6.963,10.103-5.577
		c4.824,1.386,6.878,6.105,5.782,9.921c-0.714,2.483-1.921,3.491-2.473,3.967c0.343,0.557,0.925,0.812,1.813,1.067L312.654,70.432z
		 M304.925,64.627c0.605,0.174,1.246,0.227,1.602,0.132c-0.291-0.739-0.599-1.264-0.89-1.697c-0.581-0.867-1.4-1.364-2.147-1.579
		c-0.646-0.186-1.119-0.212-1.456-0.178c0.199,1.74,1.64,2.962,2.871,3.316L304.925,64.627z M307.438,55.8
		c-1.756-0.504-3.491,0.134-4.624,1.797c-0.119,0.184-0.252,0.343-0.336,0.559c0.485-0.014,1.333-0.076,2.322,0.208
		c1.09,0.313,1.976,0.808,2.88,1.92c0.792,0.97,1.215,1.704,1.738,2.772c0.376-0.395,0.729-1.015,0.949-1.782
		c0.76-2.645-0.688-4.831-2.909-5.468L307.438,55.8z"/>
	<path fill="#FFFFFF" d="M323.037,57.549l-3.349,8.771c-0.188,0.491-0.431,1.185-0.412,1.844c0.038,0.666,0.337,1.297,1.239,1.642
		c0.922,0.352,1.551,0.12,1.969-0.328c0.445-0.459,0.715-1.166,0.932-1.735l3.35-8.771l3.709,1.416l-3.35,8.771
		c-0.929,2.433-1.871,3.31-3.152,3.9c-1.31,0.602-2.856,0.708-4.661,0.019c-1.06-0.405-2.886-1.394-3.588-3.146
		c-0.695-1.772-0.561-2.89,0.256-5.029l3.349-8.771L323.037,57.549z"/>
	<path fill="#FFFFFF" d="M333.614,61.785l7.992,3.676l-1.457,3.166l-4.387-2.018l-1.009,2.193l4.253,1.957l-1.456,3.167
		l-4.254-1.957l-1.114,2.422l4.388,2.018l-1.457,3.167l-7.991-3.676L333.614,61.785z"/>
	<path fill="#FFFFFF" d="M344.559,84.575l-3.713-2.18l13.177-10.287l2.952,1.733l-2.726,16.423l-3.75-2.202l0.505-2.31l-4.691-2.754
		L344.559,84.575z M352.952,76.96l-4.193,3.822l2.952,1.734L352.952,76.96z"/>
	<path fill="#FFFFFF" d="M366.383,91.375l5.375-7.797l3.109,2.185l-8.932,12.714l-2.817-1.979l0.521-11.079l-5.314,7.711
		l-3.109-2.185l8.932-12.714l2.801,1.968L366.383,91.375z"/>
	<path fill="#FFFFFF" d="M370.198,101.901l-3.31-2.752l14.666-8.012l2.632,2.188l-5.352,15.76l-3.342-2.78l0.872-2.197l-4.182-3.478
		L370.198,101.901z M379.712,95.749l-4.756,3.091l2.632,2.189L379.712,95.749z M388.036,89.616l-0.729,2.617l-5.435-1.543
		l0.557-2.213L388.036,89.616z"/>
	<path fill="#FFFFFF" d="M379.668,109.912l10.874-11.1l2.835,2.777l-4.085,4.17l3.63,3.556l4.085-4.17l2.835,2.777l-10.874,11.099
		l-2.835-2.777l4.35-4.44l-3.63-3.556l-4.35,4.44L379.668,109.912z"/>
	<path fill="#FFFFFF" d="M404.9,113.534l-7.073,6.173c-0.396,0.345-0.936,0.844-1.229,1.435c-0.279,0.606-0.312,1.304,0.323,2.031
		c0.649,0.744,1.312,0.833,1.892,0.635c0.609-0.197,1.179-0.694,1.638-1.094l7.073-6.173l2.609,2.991l-7.072,6.173
		c-1.963,1.712-3.206,2.044-4.614,1.964c-1.438-0.083-2.854-0.715-4.124-2.171c-0.746-0.854-1.894-2.584-1.691-4.461
		c0.218-1.89,0.861-2.814,2.586-4.319l7.072-6.173L404.9,113.534z"/>
	<path fill="#FFFFFF" d="M401.255,133.388l-2.584-3.444l16.125-4.405l2.055,2.739l-8.853,14.098l-2.609-3.478l1.356-1.937
		l-3.265-4.351L401.255,133.388z M411.936,129.602l-5.342,1.908l2.054,2.738L411.936,129.602z"/>
	<path fill="#FFFFFF" d="M421.116,152.226c-3.586,1.206-7.353-0.185-9.365-3.359c-2.609-4.114-1.105-8.996,2.44-11.245
		c3.352-2.125,8.433-1.718,11.154,2.572c2.609,4.114,0.83,8.325-1.002,9.984l-2.227-3.511c0.738-0.991,1.421-2.816,0.273-4.625
		c-1.428-2.252-4.194-2.262-6.056-1.082c-1.986,1.259-3.047,3.822-1.663,6.002c1.327,2.092,3.622,1.83,4.218,1.75L421.116,152.226z"
		/>
</g>
<g>
	<path fill="#FFFFFF" d="M129.45,319.676l-4.494-8.354l3.432-1.847l2.392,4.445l2.605-1.401l-2.303-4.28l3.432-1.846l2.303,4.279
		l5.831-3.137l2.103,3.907L129.45,319.676z"/>
	<path fill="#FFFFFF" d="M131.601,305.165c-5.303,2.03-10.15-0.786-11.862-5.256c-1.914-4.996,0.619-10.062,5.132-11.79
		c4.514-1.729,9.774,0.327,11.704,5.366c1.955,5.105-0.789,10.076-4.952,11.671L131.601,305.165z M129.817,301.099
		c2.476-0.948,4.153-3.524,3.087-6.308c-1.125-2.937-4.343-3.337-6.425-2.539c-2.104,0.806-4.253,3.262-3.112,6.242
		c1.099,2.87,4.149,3.486,6.428,2.613L129.817,301.099z"/>
	<path fill="#FFFFFF" d="M115.706,287.001l-1.263-5.535c-0.605-2.653-0.5-4.41,0.017-5.515c0.774-1.668,2.298-2.689,4.151-3.112
		c1.304-0.298,2.394-0.161,3.258,0.146c1.022,0.368,1.782,1.062,2.308,1.784l5.423-4.919l1.018,4.46l-7.159,6.277l-0.162-0.709
		c-0.25-1.098-0.556-2.015-1.053-2.503c-0.463-0.448-1.363-0.7-2.3-0.486c-0.892,0.204-1.502,0.8-1.738,1.455
		c-0.188,0.549-0.191,1.271-0.055,1.866l0.365,1.601l13.129-2.995l0.986,4.323L115.706,287.001z"/>
	<path fill="#FFFFFF" d="M129.311,268.724l-17.31,1.344l-0.459-5.918l10.906-4.117l-11.403-2.292l-0.461-5.941l17.31-1.344
		l0.316,4.07l-12.97,0.865l13.25,2.736l0.227,2.925l-12.668,4.748l12.948-1.146L129.311,268.724z"/>
	<path fill="#FFFFFF" d="M128.292,244.417l-0.369,4.799l-16.793-8.191l0.293-3.815l17.833-5.315l-0.373,4.845l-2.568,0.626
		l-0.466,6.062L128.292,244.417z M116.527,239.721l5.895,2.337l0.293-3.815L116.527,239.721z"/>
	<path fill="#FFFFFF" d="M126.574,213.81c3.799,1.859,5.701,5.924,4.808,10.029c-1.158,5.321-6.189,8.021-10.775,7.023
		c-4.334-0.943-8.055-5.259-6.848-10.81c1.157-5.32,5.881-7.271,8.642-7.151l-0.988,4.541c-1.366,0.208-3.343,1.123-3.852,3.462
		c-0.634,2.913,1.558,5.095,3.966,5.619c2.569,0.559,5.425-0.646,6.039-3.466c0.589-2.706-1.442-4.301-1.979-4.706L126.574,213.81z"
		/>
	<path fill="#FFFFFF" d="M117.306,207.957l1.408-4.208l16.474,5.51l-1.407,4.208L117.306,207.957z"/>
	<path fill="#FFFFFF" d="M118.943,186.573l3.035,0.032l-0.099,6.313l-2.55,0.037L118.943,186.573z M127.85,203.716
		c-5.155-2.382-6.52-7.82-4.512-12.166c2.244-4.857,7.64-6.577,12.028-4.55c4.388,2.027,6.585,7.23,4.322,12.129
		c-2.293,4.963-7.769,6.465-11.816,4.596L127.85,203.716z M129.519,199.602c2.407,1.112,5.423,0.515,6.673-2.19
		c1.319-2.854-0.64-5.44-2.664-6.375c-2.045-0.945-5.305-0.771-6.643,2.126c-1.289,2.791,0.398,5.405,2.613,6.429L129.519,199.602z"
		/>
	<path fill="#FFFFFF" d="M144.408,176.591l-8.881-5.757l2.342-3.543l14.487,9.575l-2.122,3.211l-12.393-0.231l8.783,5.693
		l-2.342,3.543l-14.487-9.575l2.109-3.191L144.408,176.591z"/>
	<path fill="#FFFFFF" d="M145.912,157.637l2.996-3.271l12.805,11.732l-2.997,3.271L145.912,157.637z"/>
	<path fill="#FFFFFF" d="M166.813,151.932l-7.117-7.838l3.171-2.828l11.562,12.963l-2.873,2.562L159.63,153.4l7.039,7.75
		l-3.17,2.828l-11.562-12.963l2.855-2.547L166.813,151.932z"/>
	<path fill="#FFFFFF" d="M170.669,140.427l-2.807,1.967l-2.237-3.191l9.229-6.467l2.237,3.191l-2.788,1.954l7.733,11.036
		l-3.634,2.546L170.669,140.427z"/>
	<path fill="#FFFFFF" d="M177.483,131.144l8.554-4.846l1.92,3.389l-4.696,2.661l1.33,2.348l4.553-2.579l1.92,3.389l-4.553,2.579
		l1.469,2.593l4.696-2.66l1.92,3.389l-8.555,4.846L177.483,131.144z"/>
	<path fill="#FFFFFF" d="M203.411,124.998c-0.376-0.303-0.809-0.558-1.289-0.743c-0.912-0.314-1.971-0.365-3.102,0.093
		c-2.022,0.82-3.784,3.282-2.496,6.457c1.367,3.37,4.35,3.857,6.372,3.037c1.022-0.415,1.764-1.02,2.231-1.741
		c0.476-0.699,0.668-1.537,0.568-2.408l-4.805,1.949l-1.332-3.284l9.545-3.872c0.555,1.117,1.191,3.062,1.131,4.91
		c-0.128,4.179-3.2,6.97-5.853,8.045c-4.871,1.976-10.088-0.339-11.967-4.97c-1.949-4.806,0.51-9.854,5.25-11.777
		c3.849-1.561,8.203-0.314,10.356,2.434L203.411,124.998z"/>
	<path fill="#FFFFFF" d="M210.404,116.436l5.513-1.37c2.643-0.657,4.402-0.586,5.517-0.089c1.684,0.742,2.735,2.247,3.194,4.092
		c0.323,1.298,0.208,2.392-0.084,3.262c-0.349,1.03-1.027,1.803-1.74,2.343l5.025,5.33l-4.442,1.104l-6.417-7.041l0.706-0.175
		c1.093-0.272,2.005-0.595,2.484-1.101c0.439-0.472,0.674-1.377,0.441-2.311c-0.221-0.888-0.829-1.487-1.489-1.71
		c-0.552-0.177-1.275-0.167-1.868-0.02l-1.595,0.396l3.25,13.077l-4.306,1.07L210.404,116.436z"/>
	<path fill="#FFFFFF" d="M232.454,129.419l-4.78,0.535l4.9-18.018l3.8-0.425l8.553,16.513l-4.826,0.54l-1.096-2.404l-6.039,0.676
		L232.454,129.419z M234.864,116.992l-1.192,6.224l3.8-0.425L234.864,116.992z"/>
	<path fill="#FFFFFF" d="M246.677,110.795l4.435,0.072l-0.219,13.471l5.14,0.083l-0.063,3.896l-9.575-0.156L246.677,110.795z"/>
</g>
<circle fill="none" cx="250" cy="250" r="189.342"/>
<text transform="matrix(0.4232 0.9061 -0.9061 0.4232 420.6765 167.925)"><tspan x="0" y="0" fill="#FFFFFF" font-family="'ITCAvantGardeStd-Bold'" font-size="15"> </tspan><tspan x="4.575" y="-0.001" fill="#FFFFFF" font-family="'ITCAvantGardeStd-Bold'" font-size="15" rotate="1.386"> </tspan><tspan x="9.126" y="0.081" fill="#FFFFFF" font-family="'ITCAvantGardeStd-Bold'" font-size="15" rotate="3.265">E</tspan><tspan x="16.958" y="0.532" fill="#FFFFFF" font-family="'ITCAvantGardeStd-Bold'" font-size="15" rotate="5.556">L</tspan><tspan x="24.141" y="1.224" fill="#FFFFFF" font-family="'ITCAvantGardeStd-Bold'" font-size="15" rotate="7.846">E</tspan><tspan x="31.849" y="2.22" fill="#FFFFFF" font-family="'ITCAvantGardeStd-Bold'" font-size="15" rotate="10.908">C</tspan><tspan x="43.979" y="4.621" fill="#FFFFFF" font-family="'ITCAvantGardeStd-Bold'" font-size="15" rotate="13.917">T</tspan><tspan x="51.157" y="6.42" fill="#FFFFFF" font-family="'ITCAvantGardeStd-Bold'" font-size="15" rotate="15.772">I</tspan><tspan x="55.748" y="7.651" fill="#FFFFFF" font-family="'ITCAvantGardeStd-Bold'" font-size="15" rotate="18.13">V</tspan><tspan x="65.913" y="10.943" fill="#FFFFFF" font-family="'ITCAvantGardeStd-Bold'" font-size="15" rotate="21.669">O</tspan></text>
<circle fill="none" cx="250" cy="250" r="207.755"/>
<text transform="matrix(0.4147 0.9099 -0.9099 0.4147 437.8214 161.0688)"><tspan x="0" y="0" fill="#FFFFFF" font-family="'ITCAvantGardeStd-Bold'" font-size="20.8457"> </tspan><tspan x="6.316" y="-0.001" fill="#FFFFFF" font-family="'ITCAvantGardeStd-Bold'" font-size="20.8457" rotate="1.745"> </tspan><tspan x="12.629" y="0.141" fill="#FFFFFF" font-family="'ITCAvantGardeStd-Bold'" font-size="17" rotate="4.123">B</tspan><tspan x="23.444" y="0.948" fill="#FFFFFF" font-family="'ITCAvantGardeStd-Bold'" font-size="17" rotate="6.751">L</tspan><tspan x="31.496" y="1.812" fill="#FFFFFF" font-family="'ITCAvantGardeStd-Bold'" font-size="17" rotate="9.857">O</tspan><tspan x="45.532" y="4.237" fill="#FFFFFF" font-family="'ITCAvantGardeStd-Bold'" font-size="17" rotate="13.85">Q</tspan><tspan x="59.606" y="7.746" fill="#FFFFFF" font-family="'ITCAvantGardeStd-Bold'" font-size="17" rotate="17.482">U</tspan><tspan x="70.764" y="11.296" fill="#FFFFFF" font-family="'ITCAvantGardeStd-Bold'" font-size="17" rotate="20.327">E</tspan></text>
</svg>
