<?xml version="1.0" encoding="utf-8"?>
<!-- Generator: Adobe Illustrator 17.0.0, SVG Export Plug-In . SVG Version: 6.00 Build 0)  -->
<!DOCTYPE svg PUBLIC "-//W3C//DTD SVG 1.1//EN" "http://www.w3.org/Graphics/SVG/1.1/DTD/svg11.dtd">
<svg version="1.1" id="Capa_1" xmlns="http://www.w3.org/2000/svg" xmlns:xlink="http://www.w3.org/1999/xlink" x="0px" y="0px"
	 width="500px" height="500px" viewBox="0 0 500 500" enable-background="new 0 0 500 500" xml:space="preserve">
<g>
	<g opacity="0.9">
		<path fill-rule="evenodd" clip-rule="evenodd" fill="#FFFFFF" d="M250.007,289.419C136.263,289.419,44,286.385,44,282.644
			c0-3.738,92.263-6.77,206.007-6.77c113.744,0,205.993,3.033,205.993,6.77C456,286.385,363.751,289.419,250.007,289.419
			L250.007,289.419z"/>
		<path fill-rule="evenodd" clip-rule="evenodd" fill="#FEFEFE" d="M250.033,289.338c-112.661,0-204.046-3.002-204.046-6.704
			c0-3.699,91.384-6.7,204.046-6.7c112.661,0,204.032,3.001,204.032,6.7C454.064,286.336,362.694,289.338,250.033,289.338
			L250.033,289.338z"/>
		<path fill-rule="evenodd" clip-rule="evenodd" fill="#FDFDFD" d="M250.059,289.258c-111.579,0-202.085-2.971-202.085-6.633
			c0-3.66,90.506-6.629,202.085-6.629c111.578,0,202.07,2.969,202.07,6.629C452.129,286.287,361.636,289.258,250.059,289.258
			L250.059,289.258z"/>
		<path fill-rule="evenodd" clip-rule="evenodd" fill="#FCFCFC" d="M250.084,289.177c-110.496,0-200.123-2.939-200.123-6.563
			c0-3.621,89.628-6.558,200.123-6.558c110.495,0,200.109,2.937,200.109,6.558C450.193,286.238,360.579,289.177,250.084,289.177
			L250.084,289.177z"/>
		<path fill-rule="evenodd" clip-rule="evenodd" fill="#FBFBFB" d="M250.11,289.096c-109.413,0-198.162-2.907-198.162-6.492
			c0-3.582,88.749-6.487,198.162-6.487c109.412,0,198.148,2.906,198.148,6.487C448.258,286.189,359.522,289.096,250.11,289.096
			L250.11,289.096z"/>
		<path fill-rule="evenodd" clip-rule="evenodd" fill="#FAFAFA" d="M250.136,289.016c-108.33,0-196.201-2.876-196.201-6.421
			c0-3.543,87.871-6.417,196.201-6.417c108.328,0,196.186,2.874,196.186,6.417C446.322,286.14,358.464,289.016,250.136,289.016
			L250.136,289.016z"/>
		<path fill-rule="evenodd" clip-rule="evenodd" fill="#F9F9F9" d="M250.162,288.935c-107.247,0-194.239-2.844-194.239-6.35
			c0-3.504,86.992-6.346,194.239-6.346c107.245,0,194.225,2.842,194.225,6.346C444.387,286.091,357.407,288.935,250.162,288.935
			L250.162,288.935z"/>
		<path fill-rule="evenodd" clip-rule="evenodd" fill="#F8F8F8" d="M250.187,288.854c-106.164,0-192.278-2.812-192.278-6.279
			c0-3.465,86.114-6.275,192.278-6.275c106.162,0,192.264,2.811,192.264,6.275C442.451,286.042,356.35,288.854,250.187,288.854
			L250.187,288.854z"/>
		<path fill-rule="evenodd" clip-rule="evenodd" fill="#F7F7F7" d="M250.213,288.773c-105.081,0-190.317-2.78-190.317-6.208
			c0-3.426,85.235-6.205,190.317-6.205c105.079,0,190.302,2.779,190.302,6.205C440.516,285.993,355.292,288.773,250.213,288.773
			L250.213,288.773z"/>
		<path fill-rule="evenodd" clip-rule="evenodd" fill="#F6F6F6" d="M250.239,288.693c-103.998,0-188.355-2.749-188.355-6.137
			c0-3.387,84.357-6.134,188.355-6.134c103.996,0,188.341,2.747,188.341,6.134C438.58,285.944,354.235,288.693,250.239,288.693
			L250.239,288.693z"/>
		<path fill-rule="evenodd" clip-rule="evenodd" fill="#F5F5F5" d="M250.265,288.612c-102.916,0-186.394-2.717-186.394-6.067
			c0-3.348,83.479-6.063,186.394-6.063c102.913,0,186.38,2.716,186.38,6.063C436.644,285.895,353.178,288.612,250.265,288.612
			L250.265,288.612z"/>
		<path fill-rule="evenodd" clip-rule="evenodd" fill="#F4F4F4" d="M250.291,288.531c-101.833,0-184.433-2.685-184.433-5.996
			c0-3.309,82.6-5.992,184.433-5.992c101.83,0,184.418,2.684,184.418,5.992C434.709,285.846,352.12,288.531,250.291,288.531
			L250.291,288.531z"/>
		<path fill-rule="evenodd" clip-rule="evenodd" fill="#F3F3F3" d="M250.316,288.451c-100.75,0-182.472-2.654-182.472-5.925
			c0-3.27,81.722-5.922,182.472-5.922c100.747,0,182.457,2.652,182.457,5.922C432.773,285.797,351.063,288.451,250.316,288.451
			L250.316,288.451z"/>
		<path fill-rule="evenodd" clip-rule="evenodd" fill="#F2F2F2" d="M250.342,288.37c-99.667,0-180.51-2.622-180.51-5.854
			c0-3.231,80.843-5.851,180.51-5.851c99.664,0,180.496,2.62,180.496,5.851C430.838,285.748,350.006,288.37,250.342,288.37
			L250.342,288.37z"/>
		<path fill-rule="evenodd" clip-rule="evenodd" fill="#F1F1F1" d="M250.368,288.289c-98.584,0-178.549-2.59-178.549-5.783
			c0-3.192,79.965-5.78,178.549-5.78c98.581,0,178.534,2.589,178.534,5.78C428.902,285.699,348.949,288.289,250.368,288.289
			L250.368,288.289z"/>
		<path fill-rule="evenodd" clip-rule="evenodd" fill="#F0F0F0" d="M250.394,288.209c-97.501,0-176.588-2.558-176.588-5.712
			c0-3.153,79.087-5.71,176.588-5.71c97.498,0,176.573,2.557,176.573,5.71C426.967,285.65,347.891,288.209,250.394,288.209
			L250.394,288.209z"/>
		<path fill-rule="evenodd" clip-rule="evenodd" fill="#EFEFEF" d="M250.419,288.128c-96.418,0-174.626-2.527-174.626-5.641
			c0-3.114,78.208-5.639,174.626-5.639c96.414,0,174.612,2.525,174.612,5.639C425.031,285.601,346.834,288.128,250.419,288.128
			L250.419,288.128z"/>
		<path fill-rule="evenodd" clip-rule="evenodd" fill="#EEEEEE" d="M250.445,288.047c-95.335,0-172.665-2.495-172.665-5.571
			c0-3.075,77.33-5.568,172.665-5.568c95.331,0,172.65,2.494,172.65,5.568C423.096,285.552,345.777,288.047,250.445,288.047
			L250.445,288.047z"/>
		<path fill-rule="evenodd" clip-rule="evenodd" fill="#EDEDED" d="M250.471,287.966c-94.252,0-170.704-2.463-170.704-5.5
			c0-3.036,76.451-5.498,170.704-5.498c94.248,0,170.689,2.462,170.689,5.498C421.16,285.503,344.719,287.966,250.471,287.966
			L250.471,287.966z"/>
		<path fill-rule="evenodd" clip-rule="evenodd" fill="#ECECEC" d="M250.497,287.886c-93.17,0-168.742-2.431-168.742-5.429
			c0-2.997,75.573-5.427,168.742-5.427c93.165,0,168.728,2.43,168.728,5.427C419.224,285.454,343.662,287.886,250.497,287.886
			L250.497,287.886z"/>
		<path fill-rule="evenodd" clip-rule="evenodd" fill="#EBEBEB" d="M250.522,287.805c-92.087,0-166.781-2.4-166.781-5.358
			c0-2.958,74.694-5.356,166.781-5.356c92.082,0,166.766,2.399,166.766,5.356C417.289,285.405,342.605,287.805,250.522,287.805
			L250.522,287.805z"/>
		<path fill-rule="evenodd" clip-rule="evenodd" fill="#EAEAEA" d="M250.548,287.724c-91.004,0-164.82-2.368-164.82-5.287
			c0-2.919,73.816-5.285,164.82-5.285c90.999,0,164.805,2.367,164.805,5.285C415.353,285.356,341.547,287.724,250.548,287.724
			L250.548,287.724z"/>
		<path fill-rule="evenodd" clip-rule="evenodd" fill="#E9E9E9" d="M250.574,287.644c-89.921,0-162.859-2.336-162.859-5.216
			c0-2.88,72.938-5.215,162.859-5.215c89.916,0,162.844,2.335,162.844,5.215C413.418,285.307,340.49,287.644,250.574,287.644
			L250.574,287.644z"/>
		<path fill-rule="evenodd" clip-rule="evenodd" fill="#E8E8E8" d="M250.6,287.563c-88.838,0-160.897-2.305-160.897-5.146
			c0-2.841,72.059-5.144,160.897-5.144c88.833,0,160.882,2.303,160.882,5.144C411.482,285.258,339.433,287.563,250.6,287.563
			L250.6,287.563z"/>
		<path fill-rule="evenodd" clip-rule="evenodd" fill="#E7E7E7" d="M250.626,287.482c-87.755,0-158.936-2.273-158.936-5.075
			c0-2.802,71.181-5.073,158.936-5.073c87.75,0,158.921,2.272,158.921,5.073C409.547,285.209,338.375,287.482,250.626,287.482
			L250.626,287.482z"/>
		<path fill-rule="evenodd" clip-rule="evenodd" fill="#E6E6E6" d="M250.651,287.402c-86.672,0-156.975-2.241-156.975-5.004
			c0-2.763,70.302-5.003,156.975-5.003c86.667,0,156.96,2.24,156.96,5.003C407.611,285.16,337.318,287.402,250.651,287.402
			L250.651,287.402z"/>
		<path fill-rule="evenodd" clip-rule="evenodd" fill="#E5E5E5" d="M250.677,287.321c-85.589,0-155.013-2.209-155.013-4.933
			c0-2.724,69.424-4.932,155.013-4.932c85.584,0,154.998,2.208,154.998,4.932C405.676,285.111,336.261,287.321,250.677,287.321
			L250.677,287.321z"/>
		<path fill-rule="evenodd" clip-rule="evenodd" fill="#E4E4E4" d="M250.703,287.24c-84.507,0-153.052-2.178-153.052-4.862
			c0-2.685,68.546-4.861,153.052-4.861c84.501,0,153.037,2.177,153.037,4.861C403.74,285.062,335.203,287.24,250.703,287.24
			L250.703,287.24z"/>
		<path fill-rule="evenodd" clip-rule="evenodd" fill="#E3E3E3" d="M250.729,287.159c-83.424,0-151.091-2.146-151.091-4.791
			c0-2.646,67.667-4.79,151.091-4.79c83.417,0,151.076,2.145,151.076,4.79C401.804,285.013,334.146,287.159,250.729,287.159
			L250.729,287.159z"/>
		<path fill-rule="evenodd" clip-rule="evenodd" fill="#E2E2E2" d="M250.754,287.079c-82.341,0-149.129-2.114-149.129-4.72
			c0-2.607,66.789-4.72,149.129-4.72c82.334,0,149.114,2.113,149.114,4.72C399.869,284.964,333.089,287.079,250.754,287.079
			L250.754,287.079z"/>
		<path fill-rule="evenodd" clip-rule="evenodd" fill="#E1E1E1" d="M250.78,286.998c-81.258,0-147.168-2.083-147.168-4.65
			c0-2.568,65.91-4.649,147.168-4.649c81.251,0,147.153,2.082,147.153,4.649C397.933,284.915,332.031,286.998,250.78,286.998
			L250.78,286.998z"/>
		<path fill-rule="evenodd" clip-rule="evenodd" fill="#E0E0E0" d="M250.806,286.917c-80.175,0-145.207-2.051-145.207-4.579
			c0-2.528,65.032-4.578,145.207-4.578c80.168,0,145.192,2.05,145.192,4.578C395.998,284.866,330.974,286.917,250.806,286.917
			L250.806,286.917z"/>
		<path fill-rule="evenodd" clip-rule="evenodd" fill="#DFDFDF" d="M250.832,286.837c-79.092,0-143.246-2.019-143.246-4.508
			c0-2.489,64.153-4.508,143.246-4.508c79.085,0,143.231,2.018,143.231,4.508C394.062,284.817,329.917,286.837,250.832,286.837
			L250.832,286.837z"/>
		<path fill-rule="evenodd" clip-rule="evenodd" fill="#DEDEDE" d="M250.857,286.756c-78.009,0-141.284-1.987-141.284-4.437
			c0-2.451,63.275-4.437,141.284-4.437c78.002,0,141.269,1.986,141.269,4.437C392.127,284.768,328.859,286.756,250.857,286.756
			L250.857,286.756z"/>
		<path fill-rule="evenodd" clip-rule="evenodd" fill="#DDDDDD" d="M250.883,286.675c-76.926,0-139.323-1.956-139.323-4.366
			c0-2.411,62.397-4.366,139.323-4.366c76.919,0,139.308,1.955,139.308,4.366C390.191,284.719,327.802,286.675,250.883,286.675
			L250.883,286.675z"/>
		<path fill-rule="evenodd" clip-rule="evenodd" fill="#DCDCDC" d="M250.909,286.594c-75.843,0-137.362-1.924-137.362-4.295
			c0-2.372,61.518-4.296,137.362-4.296c75.836,0,137.347,1.923,137.347,4.296C388.256,284.671,326.745,286.594,250.909,286.594
			L250.909,286.594z"/>
		<path fill-rule="evenodd" clip-rule="evenodd" fill="#DBDBDB" d="M250.935,286.514c-74.761,0-135.4-1.892-135.4-4.224
			c0-2.333,60.64-4.225,135.4-4.225c74.753,0,135.385,1.891,135.385,4.225C386.32,284.622,325.688,286.514,250.935,286.514
			L250.935,286.514z"/>
		<path fill-rule="evenodd" clip-rule="evenodd" fill="#DADADA" d="M250.961,286.433c-73.678,0-133.439-1.861-133.439-4.154
			c0-2.294,59.761-4.154,133.439-4.154c73.67,0,133.424,1.86,133.424,4.154C384.384,284.573,324.63,286.433,250.961,286.433
			L250.961,286.433z"/>
		<path fill-rule="evenodd" clip-rule="evenodd" fill="#D9D9D9" d="M250.986,286.352c-72.595,0-131.478-1.829-131.478-4.083
			c0-2.255,58.883-4.083,131.478-4.083c72.587,0,131.463,1.828,131.463,4.083C382.449,284.524,323.573,286.352,250.986,286.352
			L250.986,286.352z"/>
		<path fill-rule="evenodd" clip-rule="evenodd" fill="#D9D9D9" d="M251.012,286.272c-71.512,0-129.516-1.797-129.516-4.012
			c0-2.216,58.005-4.013,129.516-4.013c71.504,0,129.501,1.796,129.501,4.013C380.513,284.475,322.516,286.272,251.012,286.272
			L251.012,286.272z"/>
		<path fill-rule="evenodd" clip-rule="evenodd" fill="#D8D8D8" d="M251.038,286.191c-70.429,0-127.555-1.765-127.555-3.941
			c0-2.177,57.126-3.942,127.555-3.942c70.42,0,127.54,1.765,127.54,3.942C378.578,284.426,321.458,286.191,251.038,286.191
			L251.038,286.191z"/>
		<path fill-rule="evenodd" clip-rule="evenodd" fill="#D7D7D7" d="M251.064,286.11c-69.346,0-125.594-1.734-125.594-3.87
			c0-2.138,56.248-3.871,125.594-3.871c69.337,0,125.579,1.733,125.579,3.871C376.642,284.377,320.401,286.11,251.064,286.11
			L251.064,286.11z"/>
		<path fill-rule="evenodd" clip-rule="evenodd" fill="#D6D6D6" d="M251.089,286.03c-68.263,0-123.633-1.702-123.633-3.799
			c0-2.099,55.369-3.801,123.633-3.801c68.254,0,123.617,1.701,123.617,3.801C374.707,284.328,319.344,286.03,251.089,286.03
			L251.089,286.03z"/>
		<path fill-rule="evenodd" clip-rule="evenodd" fill="#D5D5D5" d="M251.115,285.949c-67.18,0-121.671-1.67-121.671-3.728
			c0-2.06,54.491-3.73,121.671-3.73c67.171,0,121.656,1.669,121.656,3.73C372.771,284.279,318.286,285.949,251.115,285.949
			L251.115,285.949z"/>
		<path fill-rule="evenodd" clip-rule="evenodd" fill="#D4D4D4" d="M251.141,285.868c-66.098,0-119.71-1.638-119.71-3.658
			c0-2.021,53.612-3.659,119.71-3.659c66.088,0,119.695,1.638,119.695,3.659C370.836,284.23,317.229,285.868,251.141,285.868
			L251.141,285.868z"/>
		<path fill-rule="evenodd" clip-rule="evenodd" fill="#D3D3D3" d="M251.167,285.787c-65.015,0-117.749-1.607-117.749-3.587
			c0-1.982,52.734-3.588,117.749-3.588c65.005,0,117.733,1.606,117.733,3.588C368.9,284.181,316.172,285.787,251.167,285.787
			L251.167,285.787z"/>
		<path fill-rule="evenodd" clip-rule="evenodd" fill="#D2D2D2" d="M251.192,285.707c-63.932,0-115.787-1.575-115.787-3.516
			c0-1.943,51.856-3.518,115.787-3.518c63.922,0,115.772,1.574,115.772,3.518C366.964,284.132,315.114,285.707,251.192,285.707
			L251.192,285.707z"/>
		<path fill-rule="evenodd" clip-rule="evenodd" fill="#D1D1D1" d="M251.218,285.626c-62.849,0-113.826-1.543-113.826-3.445
			c0-1.904,50.977-3.447,113.826-3.447c62.839,0,113.811,1.543,113.811,3.447C365.029,284.083,314.057,285.626,251.218,285.626
			L251.218,285.626z"/>
		<path fill-rule="evenodd" clip-rule="evenodd" fill="#D0D0D0" d="M251.244,285.545c-61.766,0-111.865-1.512-111.865-3.374
			c0-1.865,50.099-3.376,111.865-3.376c61.756,0,111.849,1.511,111.849,3.376C363.093,284.034,313,285.545,251.244,285.545
			L251.244,285.545z"/>
		<path fill-rule="evenodd" clip-rule="evenodd" fill="#CFCFCF" d="M251.27,285.465c-60.683,0-109.903-1.48-109.903-3.303
			c0-1.826,49.22-3.306,109.903-3.306c60.673,0,109.888,1.479,109.888,3.306C361.158,283.985,311.942,285.465,251.27,285.465
			L251.27,285.465z"/>
		<path fill-rule="evenodd" clip-rule="evenodd" fill="#CECECE" d="M251.296,285.384c-59.6,0-107.942-1.448-107.942-3.233
			c0-1.787,48.342-3.235,107.942-3.235c59.59,0,107.927,1.448,107.927,3.235C359.222,283.936,310.885,285.384,251.296,285.384
			L251.296,285.384z"/>
		<path fill-rule="evenodd" clip-rule="evenodd" fill="#CDCDCD" d="M251.321,285.303c-58.517,0-105.981-1.416-105.981-3.162
			c0-1.748,47.464-3.164,105.981-3.164c58.506,0,105.965,1.416,105.965,3.164C357.287,283.887,309.828,285.303,251.321,285.303
			L251.321,285.303z"/>
		<path fill-rule="evenodd" clip-rule="evenodd" fill="#CCCCCC" d="M251.347,285.222c-57.434,0-104.02-1.385-104.02-3.091
			c0-1.709,46.585-3.093,104.02-3.093c57.423,0,104.004,1.384,104.004,3.093C355.351,283.838,308.77,285.222,251.347,285.222
			L251.347,285.222z"/>
		<path fill-rule="evenodd" clip-rule="evenodd" fill="#CBCBCB" d="M251.373,285.142c-56.352,0-102.058-1.353-102.058-3.02
			c0-1.67,45.707-3.023,102.058-3.023c56.34,0,102.043,1.352,102.043,3.023C353.415,283.789,307.713,285.142,251.373,285.142
			L251.373,285.142z"/>
		<path fill-rule="evenodd" clip-rule="evenodd" fill="#CACACA" d="M251.399,285.061c-55.269,0-100.097-1.321-100.097-2.949
			c0-1.631,44.828-2.952,100.097-2.952c55.257,0,100.081,1.321,100.081,2.952C351.48,283.74,306.656,285.061,251.399,285.061
			L251.399,285.061z"/>
		<path fill-rule="evenodd" clip-rule="evenodd" fill="#C9C9C9" d="M251.424,284.98c-54.186,0-98.136-1.29-98.136-2.878
			c0-1.592,43.95-2.881,98.136-2.881c54.174,0,98.12,1.289,98.12,2.881C349.544,283.691,305.598,284.98,251.424,284.98
			L251.424,284.98z"/>
		<path fill-rule="evenodd" clip-rule="evenodd" fill="#C8C8C8" d="M251.45,284.9c-53.103,0-96.174-1.258-96.174-2.807
			c0-1.553,43.071-2.811,96.174-2.811c53.091,0,96.159,1.257,96.159,2.811C347.609,283.642,304.541,284.9,251.45,284.9L251.45,284.9
			z"/>
		<path fill-rule="evenodd" clip-rule="evenodd" fill="#C7C7C7" d="M251.476,284.819c-52.02,0-94.213-1.226-94.213-2.737
			c0-1.514,42.193-2.74,94.213-2.74c52.008,0,94.197,1.226,94.197,2.74C345.673,283.593,303.484,284.819,251.476,284.819
			L251.476,284.819z"/>
		<path fill-rule="evenodd" clip-rule="evenodd" fill="#C6C6C6" d="M251.502,284.738c-50.937,0-92.252-1.194-92.252-2.666
			c0-1.475,41.315-2.669,92.252-2.669c50.925,0,92.236,1.194,92.236,2.669C343.738,283.544,302.427,284.738,251.502,284.738
			L251.502,284.738z"/>
		<path fill-rule="evenodd" clip-rule="evenodd" fill="#C5C5C5" d="M251.527,284.658c-49.854,0-90.29-1.163-90.29-2.595
			c0-1.436,40.436-2.599,90.29-2.599c49.842,0,90.275,1.162,90.275,2.599C341.802,283.495,301.369,284.658,251.527,284.658
			L251.527,284.658z"/>
		<path fill-rule="evenodd" clip-rule="evenodd" fill="#C4C4C4" d="M251.553,284.577c-48.771,0-88.329-1.131-88.329-2.524
			c0-1.397,39.558-2.528,88.329-2.528c48.759,0,88.313,1.131,88.313,2.528C339.867,283.446,300.312,284.577,251.553,284.577
			L251.553,284.577z"/>
		<path fill-rule="evenodd" clip-rule="evenodd" fill="#C3C3C3" d="M251.579,284.496c-47.689,0-86.368-1.099-86.368-2.453
			c0-1.358,38.679-2.457,86.368-2.457c47.676,0,86.352,1.099,86.352,2.457C337.931,283.397,299.255,284.496,251.579,284.496
			L251.579,284.496z"/>
		<path fill-rule="evenodd" clip-rule="evenodd" fill="#C2C2C2" d="M251.605,284.415c-46.606,0-84.407-1.068-84.407-2.382
			c0-1.319,37.801-2.386,84.407-2.386c46.593,0,84.391,1.067,84.391,2.386C335.995,283.348,298.197,284.415,251.605,284.415
			L251.605,284.415z"/>
		<path fill-rule="evenodd" clip-rule="evenodd" fill="#C1C1C1" d="M251.63,284.335c-45.523,0-82.445-1.036-82.445-2.311
			c0-1.28,36.922-2.316,82.445-2.316c45.509,0,82.429,1.035,82.429,2.316C334.06,283.299,297.14,284.335,251.63,284.335
			L251.63,284.335z"/>
		<path fill-rule="evenodd" clip-rule="evenodd" fill="#C0C0C0" d="M251.656,284.254c-44.44,0-80.484-1.004-80.484-2.241
			c0-1.241,36.044-2.245,80.484-2.245c44.426,0,80.468,1.004,80.468,2.245C332.124,283.25,296.083,284.254,251.656,284.254
			L251.656,284.254z"/>
		<path fill-rule="evenodd" clip-rule="evenodd" fill="#BFBFBF" d="M251.682,284.173c-43.357,0-78.523-0.972-78.523-2.17
			c0-1.202,35.166-2.174,78.523-2.174c43.343,0,78.507,0.972,78.507,2.174C330.189,283.201,295.025,284.173,251.682,284.173
			L251.682,284.173z"/>
		<path fill-rule="evenodd" clip-rule="evenodd" fill="#BEBEBE" d="M251.708,284.093c-42.274,0-76.561-0.941-76.561-2.099
			c0-1.163,34.287-2.104,76.561-2.104c42.26,0,76.545,0.94,76.545,2.104C328.253,283.152,293.968,284.093,251.708,284.093
			L251.708,284.093z"/>
		<path fill-rule="evenodd" clip-rule="evenodd" fill="#BDBDBD" d="M251.734,284.012c-41.191,0-74.6-0.909-74.6-2.028
			c0-1.124,33.409-2.033,74.6-2.033c41.177,0,74.584,0.909,74.584,2.033C326.318,283.103,292.911,284.012,251.734,284.012
			L251.734,284.012z"/>
		<path fill-rule="evenodd" clip-rule="evenodd" fill="#BCBCBC" d="M251.759,283.931c-40.108,0-72.639-0.877-72.639-1.957
			c0-1.085,32.53-1.962,72.639-1.962c40.094,0,72.623,0.877,72.623,1.962C324.382,283.054,291.853,283.931,251.759,283.931
			L251.759,283.931z"/>
		<path fill-rule="evenodd" clip-rule="evenodd" fill="#BBBBBB" d="M251.785,283.85c-39.025,0-70.677-0.845-70.677-1.886
			c0-1.046,31.652-1.891,70.677-1.891c39.011,0,70.661,0.845,70.661,1.891C322.447,283.005,290.796,283.85,251.785,283.85
			L251.785,283.85z"/>
		<path fill-rule="evenodd" clip-rule="evenodd" fill="#BABABA" d="M251.811,283.77c-37.943,0-68.716-0.814-68.716-1.815
			c0-1.007,30.774-1.821,68.716-1.821c37.928,0,68.7,0.814,68.7,1.821C320.511,282.956,289.739,283.77,251.811,283.77
			L251.811,283.77z"/>
		<path fill-rule="evenodd" clip-rule="evenodd" fill="#B9B9B9" d="M251.837,283.689c-36.86,0-66.755-0.782-66.755-1.745
			c0-0.968,29.895-1.75,66.755-1.75c36.845,0,66.739,0.782,66.739,1.75C318.575,282.907,288.681,283.689,251.837,283.689
			L251.837,283.689z"/>
		<path fill-rule="evenodd" clip-rule="evenodd" fill="#B8B8B8" d="M251.862,283.608c-35.777,0-64.794-0.75-64.794-1.674
			c0-0.929,29.017-1.679,64.794-1.679c35.762,0,64.778,0.75,64.778,1.679C316.64,282.858,287.624,283.608,251.862,283.608
			L251.862,283.608z"/>
		<path fill-rule="evenodd" clip-rule="evenodd" fill="#B7B7B7" d="M251.888,283.528c-34.694,0-62.832-0.719-62.832-1.603
			c0-0.89,28.138-1.609,62.832-1.609c34.679,0,62.816,0.719,62.816,1.609C314.704,282.809,286.567,283.528,251.888,283.528
			L251.888,283.528z"/>
		<path fill-rule="evenodd" clip-rule="evenodd" fill="#B6B6B6" d="M251.914,283.447c-33.611,0-60.871-0.687-60.871-1.532
			c0-0.851,27.26-1.538,60.871-1.538c33.596,0,60.855,0.687,60.855,1.538C312.769,282.76,285.509,283.447,251.914,283.447
			L251.914,283.447z"/>
		<path fill-rule="evenodd" clip-rule="evenodd" fill="#B5B5B5" d="M251.94,283.366c-32.528,0-58.91-0.655-58.91-1.461
			c0-0.812,26.381-1.467,58.91-1.467c32.512,0,58.894,0.655,58.894,1.467C310.833,282.711,284.452,283.366,251.94,283.366
			L251.94,283.366z"/>
		<path fill-rule="evenodd" clip-rule="evenodd" fill="#B4B4B4" d="M251.965,283.286c-31.445,0-56.948-0.623-56.948-1.39
			c0-0.773,25.503-1.397,56.948-1.397c31.429,0,56.932,0.623,56.932,1.397C308.898,282.662,283.395,283.286,251.965,283.286
			L251.965,283.286z"/>
		<path fill-rule="evenodd" clip-rule="evenodd" fill="#B3B3B3" d="M251.991,283.205c-30.362,0-54.987-0.592-54.987-1.319
			c0-0.734,24.625-1.326,54.987-1.326c30.346,0,54.971,0.592,54.971,1.326C306.962,282.613,282.337,283.205,251.991,283.205
			L251.991,283.205z"/>
	</g>
</g>
<g>
	<g>
		<path fill="#FF994F" d="M113.536,297.412c-8.289,3.73-15.473,4.975-25.282,4.975c-22.933,0-43.103-16.441-43.103-43.518
			c0-28.183,20.446-52.636,51.669-52.636c24.315,0,41.722,16.715,41.722,39.925c0,20.171-11.328,32.88-26.249,32.88
			c-6.493,0-11.19-3.315-11.881-10.636h-0.277c-4.283,7.045-10.499,10.636-17.822,10.636c-8.98,0-15.473-6.63-15.473-17.959
			c0-16.854,12.434-32.189,32.328-32.189c6.079,0,12.986,1.518,16.44,3.454l-4.144,25.559c-1.382,8.151-0.415,11.881,3.453,12.018
			c5.941,0.139,13.401-7.46,13.401-23.347c0-17.959-11.604-31.913-33.018-31.913c-21.138,0-39.65,16.578-39.65,42.964
			c0,23.074,14.782,36.197,35.367,36.197c7.045,0,14.507-1.521,20.032-4.421L113.536,297.412z M101.242,240.355
			c-1.106-0.276-2.488-0.552-4.283-0.552c-9.118,0-16.302,8.979-16.302,19.617c0,5.251,2.349,8.566,6.907,8.566
			c5.112,0,10.499-6.493,11.743-14.505L101.242,240.355z"/>
	</g>
	<g>
		<path fill="#FF994F" d="M143.765,230.225h13.58v5.31c3.133-3.656,7.921-6.964,15.32-6.964c17.148,0,23.59,15.06,23.59,26.289
			c0,13.927-9.749,25.33-23.503,25.33c-8.704,0-12.796-4.178-14.537-6.006v4.352v16.104h-14.45V230.225z M181.805,254.337
			c0-5.659-4.178-12.274-12.099-12.274c-3.482,0-6.529,1.393-8.705,3.655c-2.088,2.176-3.395,5.31-3.395,8.792
			c0,3.395,1.307,6.441,3.483,8.618c2.176,2.176,5.223,3.569,8.618,3.569c7.572,0,12.099-6.18,12.099-12.273V254.337z"/>
		<path fill="#FF994F" d="M204.352,230.225h13.58v5.397c1.393-2.611,3.917-7.051,12.273-7.051v14.537h-0.522
			c-7.399,0-10.88,2.699-10.88,9.488v25.94h-14.45V230.225z"/>
		<path fill="#FF994F" d="M246.571,259.385c0.609,5.136,5.484,8.531,11.142,8.531c4.614,0,7.05-2.001,8.791-4.526h14.798
			c-2.351,5.396-5.746,9.575-9.836,12.361c-4.004,2.872-8.792,4.352-13.753,4.352c-13.84,0-25.592-11.23-25.592-25.592
			c0-13.493,10.62-25.94,25.33-25.94c7.399,0,13.753,2.873,18.28,7.66c6.093,6.529,7.921,14.276,6.79,23.154H246.571z
			 M268.333,248.418c-0.348-2.264-3.308-7.66-10.795-7.66c-7.486,0-10.445,5.396-10.794,7.66H268.333z"/>
		<path fill="#FF994F" d="M290.967,230.225h13.493v5.136c1.654-2.35,4.701-6.79,13.318-6.79c16.278,0,17.932,13.231,17.932,19.76
			v30.205h-14.45V252.16c0-5.309-1.132-10.01-7.573-10.01c-7.137,0-8.269,5.136-8.269,10.098v26.288h-14.45V230.225z"/>
		<path fill="#FF994F" d="M396.296,278.536h-13.753v-5.223c-1.393,2.001-4.875,6.79-14.625,6.79
			c-14.624,0-24.199-11.317-24.199-25.853c0-16.365,11.664-25.679,23.938-25.679c8.531,0,12.621,4.178,14.188,5.746v-5.223v-14.972
			h14.45V278.536z M358.169,254.25c0,7.4,5.309,12.361,12.099,12.361c3.482,0,6.702-1.393,8.966-3.655
			c2.263-2.264,3.569-5.397,3.395-8.966c0-3.482-1.393-6.441-3.57-8.531c-2.176-2.176-5.223-3.395-8.618-3.395
			c-8.356,0-12.273,6.528-12.273,12.099V254.25z"/>
		<path fill="#FF994F" d="M418.582,259.385c0.609,5.136,5.484,8.531,11.142,8.531c4.614,0,7.05-2.001,8.791-4.526h14.798
			c-2.351,5.396-5.746,9.575-9.836,12.361c-4.004,2.872-8.792,4.352-13.753,4.352c-13.84,0-25.592-11.23-25.592-25.592
			c0-13.493,10.62-25.94,25.33-25.94c7.399,0,13.753,2.873,18.28,7.66c6.093,6.529,7.921,14.276,6.79,23.154H418.582z
			 M440.344,248.418c-0.348-2.264-3.308-7.66-10.795-7.66c-7.486,0-10.445,5.396-10.794,7.66H440.344z"/>
	</g>
</g>
</svg>
