<?xml version="1.0" encoding="utf-8"?>
<!-- Generator: Adobe Illustrator 17.0.0, SVG Export Plug-In . SVG Version: 6.00 Build 0)  -->
<!DOCTYPE svg PUBLIC "-//W3C//DTD SVG 1.1//EN" "http://www.w3.org/Graphics/SVG/1.1/DTD/svg11.dtd">
<svg version="1.1" id="Capa_1" xmlns="http://www.w3.org/2000/svg" xmlns:xlink="http://www.w3.org/1999/xlink" x="0px" y="0px"
	 width="500px" height="500px" viewBox="0 0 500 500" enable-background="new 0 0 500 500" xml:space="preserve">
<g>
	<g id="fmcR63_1_">
		<g>
			<path fill="#FF994F" d="M56.236,343.055c0-3.028,0-6.055,0-9.083c14.47,0,28.939,0,43.409,0
				c-9.854-7.635-11.936-17.337-11.876-28.577c0.267-49.926,0.099-99.853,0.125-149.781c0.01-19.455,8.557-27.954,28.21-27.96
				c89.264-0.027,178.527-0.028,267.791,0.001c19.65,0.006,28.172,8.508,28.181,27.971c0.021,47.153-0.007,94.307,0.017,141.46
				c0.007,13.402,1.957,27.377-14.089,36.885c17.028,0,31.394,0,45.76,0c0,3.028,0,6.055,0,9.083
				c-6.277,14.849-7.408,15.591-24.25,15.591c-113.009,0.005-226.018,0.005-339.027,0C63.644,358.646,62.514,357.905,56.236,343.055
				z M285.552,336.046c-24.188,0-47.471,0-70.775,0c0,4.103,0,7.679,0,11.122c23.936,0,47.223,0,70.775,0
				C285.552,343.257,285.552,339.851,285.552,336.046z"/>
			<path fill="#FFFFFF" d="M285.552,336.046c0,3.805,0,7.211,0,11.122c-23.552,0-46.839,0-70.775,0c0-3.443,0-7.019,0-11.122
				C238.081,336.046,261.364,336.046,285.552,336.046z"/>
		</g>
	</g>
	<rect x="120" y="149" fill="#FFFFFF" width="260" height="160"/>
	<g>
		<g opacity="0.9">
			<path fill-rule="evenodd" clip-rule="evenodd" fill="#FFFFFF" d="M250.007,372.365C136.263,372.365,44,369.331,44,365.59
				c0-3.738,92.263-6.77,206.007-6.77c113.744,0,205.993,3.033,205.993,6.77C456,369.331,363.751,372.365,250.007,372.365
				L250.007,372.365z"/>
			<path fill-rule="evenodd" clip-rule="evenodd" fill="#FEFEFE" d="M250.033,372.284c-112.661,0-204.046-3.002-204.046-6.704
				c0-3.699,91.384-6.7,204.046-6.7c112.661,0,204.032,3.001,204.032,6.7C454.064,369.282,362.694,372.284,250.033,372.284
				L250.033,372.284z"/>
			<path fill-rule="evenodd" clip-rule="evenodd" fill="#FDFDFD" d="M250.059,372.204c-111.579,0-202.085-2.971-202.085-6.633
				c0-3.66,90.506-6.629,202.085-6.629c111.578,0,202.07,2.969,202.07,6.629C452.129,369.233,361.636,372.204,250.059,372.204
				L250.059,372.204z"/>
			<path fill-rule="evenodd" clip-rule="evenodd" fill="#FCFCFC" d="M250.084,372.123c-110.496,0-200.123-2.939-200.123-6.563
				c0-3.621,89.628-6.558,200.123-6.558c110.495,0,200.109,2.937,200.109,6.558C450.193,369.184,360.579,372.123,250.084,372.123
				L250.084,372.123z"/>
			<path fill-rule="evenodd" clip-rule="evenodd" fill="#FBFBFB" d="M250.11,372.042c-109.413,0-198.162-2.907-198.162-6.492
				c0-3.582,88.749-6.487,198.162-6.487c109.412,0,198.148,2.906,198.148,6.487C448.258,369.135,359.522,372.042,250.11,372.042
				L250.11,372.042z"/>
			<path fill-rule="evenodd" clip-rule="evenodd" fill="#FAFAFA" d="M250.136,371.962c-108.33,0-196.201-2.876-196.201-6.421
				c0-3.543,87.871-6.417,196.201-6.417c108.328,0,196.186,2.874,196.186,6.417C446.322,369.086,358.464,371.962,250.136,371.962
				L250.136,371.962z"/>
			<path fill-rule="evenodd" clip-rule="evenodd" fill="#F9F9F9" d="M250.162,371.881c-107.247,0-194.239-2.844-194.239-6.35
				c0-3.504,86.992-6.346,194.239-6.346c107.245,0,194.225,2.842,194.225,6.346C444.387,369.037,357.407,371.881,250.162,371.881
				L250.162,371.881z"/>
			<path fill-rule="evenodd" clip-rule="evenodd" fill="#F8F8F8" d="M250.187,371.8c-106.164,0-192.278-2.812-192.278-6.279
				c0-3.465,86.114-6.275,192.278-6.275c106.162,0,192.264,2.811,192.264,6.275C442.451,368.988,356.35,371.8,250.187,371.8
				L250.187,371.8z"/>
			<path fill-rule="evenodd" clip-rule="evenodd" fill="#F7F7F7" d="M250.213,371.719c-105.081,0-190.317-2.78-190.317-6.208
				c0-3.426,85.235-6.205,190.317-6.205c105.079,0,190.302,2.779,190.302,6.205C440.516,368.939,355.292,371.719,250.213,371.719
				L250.213,371.719z"/>
			<path fill-rule="evenodd" clip-rule="evenodd" fill="#F6F6F6" d="M250.239,371.639c-103.998,0-188.355-2.749-188.355-6.137
				c0-3.387,84.357-6.134,188.355-6.134c103.996,0,188.341,2.747,188.341,6.134C438.58,368.89,354.235,371.639,250.239,371.639
				L250.239,371.639z"/>
			<path fill-rule="evenodd" clip-rule="evenodd" fill="#F5F5F5" d="M250.265,371.558c-102.916,0-186.394-2.717-186.394-6.067
				c0-3.348,83.479-6.063,186.394-6.063c102.913,0,186.38,2.716,186.38,6.063C436.644,368.841,353.178,371.558,250.265,371.558
				L250.265,371.558z"/>
			<path fill-rule="evenodd" clip-rule="evenodd" fill="#F4F4F4" d="M250.291,371.477c-101.833,0-184.433-2.685-184.433-5.996
				c0-3.309,82.6-5.992,184.433-5.992c101.83,0,184.418,2.684,184.418,5.992C434.709,368.792,352.12,371.477,250.291,371.477
				L250.291,371.477z"/>
			<path fill-rule="evenodd" clip-rule="evenodd" fill="#F3F3F3" d="M250.316,371.397c-100.75,0-182.472-2.654-182.472-5.925
				c0-3.27,81.722-5.922,182.472-5.922c100.747,0,182.457,2.652,182.457,5.922C432.773,368.743,351.063,371.397,250.316,371.397
				L250.316,371.397z"/>
			<path fill-rule="evenodd" clip-rule="evenodd" fill="#F2F2F2" d="M250.342,371.316c-99.667,0-180.51-2.622-180.51-5.854
				c0-3.231,80.843-5.851,180.51-5.851c99.664,0,180.496,2.62,180.496,5.851C430.838,368.694,350.006,371.316,250.342,371.316
				L250.342,371.316z"/>
			<path fill-rule="evenodd" clip-rule="evenodd" fill="#F1F1F1" d="M250.368,371.235c-98.584,0-178.549-2.59-178.549-5.783
				c0-3.192,79.965-5.78,178.549-5.78c98.581,0,178.534,2.589,178.534,5.78C428.902,368.645,348.949,371.235,250.368,371.235
				L250.368,371.235z"/>
			<path fill-rule="evenodd" clip-rule="evenodd" fill="#F0F0F0" d="M250.394,371.155c-97.501,0-176.588-2.558-176.588-5.712
				c0-3.153,79.087-5.71,176.588-5.71c97.498,0,176.573,2.557,176.573,5.71C426.967,368.596,347.891,371.155,250.394,371.155
				L250.394,371.155z"/>
			<path fill-rule="evenodd" clip-rule="evenodd" fill="#EFEFEF" d="M250.419,371.074c-96.418,0-174.626-2.527-174.626-5.641
				c0-3.114,78.208-5.639,174.626-5.639c96.414,0,174.612,2.525,174.612,5.639C425.031,368.547,346.834,371.074,250.419,371.074
				L250.419,371.074z"/>
			<path fill-rule="evenodd" clip-rule="evenodd" fill="#EEEEEE" d="M250.445,370.993c-95.335,0-172.665-2.495-172.665-5.571
				c0-3.075,77.33-5.568,172.665-5.568c95.331,0,172.65,2.494,172.65,5.568C423.096,368.498,345.777,370.993,250.445,370.993
				L250.445,370.993z"/>
			<path fill-rule="evenodd" clip-rule="evenodd" fill="#EDEDED" d="M250.471,370.912c-94.252,0-170.704-2.463-170.704-5.5
				c0-3.036,76.451-5.498,170.704-5.498c94.248,0,170.689,2.462,170.689,5.498C421.16,368.449,344.719,370.912,250.471,370.912
				L250.471,370.912z"/>
			<path fill-rule="evenodd" clip-rule="evenodd" fill="#ECECEC" d="M250.497,370.832c-93.17,0-168.742-2.431-168.742-5.429
				c0-2.997,75.573-5.427,168.742-5.427c93.165,0,168.728,2.43,168.728,5.427C419.224,368.4,343.662,370.832,250.497,370.832
				L250.497,370.832z"/>
			<path fill-rule="evenodd" clip-rule="evenodd" fill="#EBEBEB" d="M250.522,370.751c-92.087,0-166.781-2.4-166.781-5.358
				c0-2.958,74.694-5.356,166.781-5.356c92.082,0,166.766,2.399,166.766,5.356C417.289,368.351,342.605,370.751,250.522,370.751
				L250.522,370.751z"/>
			<path fill-rule="evenodd" clip-rule="evenodd" fill="#EAEAEA" d="M250.548,370.67c-91.004,0-164.82-2.368-164.82-5.287
				c0-2.919,73.816-5.285,164.82-5.285c90.999,0,164.805,2.367,164.805,5.285C415.353,368.302,341.547,370.67,250.548,370.67
				L250.548,370.67z"/>
			<path fill-rule="evenodd" clip-rule="evenodd" fill="#E9E9E9" d="M250.574,370.59c-89.921,0-162.859-2.336-162.859-5.216
				c0-2.88,72.938-5.215,162.859-5.215c89.916,0,162.844,2.335,162.844,5.215C413.418,368.253,340.49,370.59,250.574,370.59
				L250.574,370.59z"/>
			<path fill-rule="evenodd" clip-rule="evenodd" fill="#E8E8E8" d="M250.6,370.509c-88.838,0-160.897-2.305-160.897-5.145
				c0-2.841,72.059-5.144,160.897-5.144c88.833,0,160.882,2.303,160.882,5.144C411.482,368.204,339.433,370.509,250.6,370.509
				L250.6,370.509z"/>
			<path fill-rule="evenodd" clip-rule="evenodd" fill="#E7E7E7" d="M250.626,370.428c-87.755,0-158.936-2.273-158.936-5.075
				c0-2.802,71.181-5.073,158.936-5.073c87.75,0,158.921,2.272,158.921,5.073C409.547,368.155,338.375,370.428,250.626,370.428
				L250.626,370.428z"/>
			<path fill-rule="evenodd" clip-rule="evenodd" fill="#E6E6E6" d="M250.651,370.347c-86.672,0-156.975-2.241-156.975-5.004
				c0-2.763,70.302-5.003,156.975-5.003c86.667,0,156.96,2.24,156.96,5.003C407.611,368.106,337.318,370.347,250.651,370.347
				L250.651,370.347z"/>
			<path fill-rule="evenodd" clip-rule="evenodd" fill="#E5E5E5" d="M250.677,370.267c-85.589,0-155.013-2.209-155.013-4.933
				c0-2.724,69.424-4.932,155.013-4.932c85.584,0,154.998,2.208,154.998,4.932C405.676,368.057,336.261,370.267,250.677,370.267
				L250.677,370.267z"/>
			<path fill-rule="evenodd" clip-rule="evenodd" fill="#E4E4E4" d="M250.703,370.186c-84.507,0-153.052-2.178-153.052-4.862
				c0-2.685,68.546-4.861,153.052-4.861c84.501,0,153.037,2.177,153.037,4.861C403.74,368.008,335.203,370.186,250.703,370.186
				L250.703,370.186z"/>
			<path fill-rule="evenodd" clip-rule="evenodd" fill="#E3E3E3" d="M250.729,370.105c-83.424,0-151.091-2.146-151.091-4.791
				c0-2.646,67.667-4.79,151.091-4.79c83.417,0,151.076,2.145,151.076,4.79C401.804,367.959,334.146,370.105,250.729,370.105
				L250.729,370.105z"/>
			<path fill-rule="evenodd" clip-rule="evenodd" fill="#E2E2E2" d="M250.754,370.025c-82.341,0-149.129-2.114-149.129-4.72
				c0-2.607,66.789-4.72,149.129-4.72c82.334,0,149.114,2.113,149.114,4.72C399.869,367.91,333.089,370.025,250.754,370.025
				L250.754,370.025z"/>
			<path fill-rule="evenodd" clip-rule="evenodd" fill="#E1E1E1" d="M250.78,369.944c-81.258,0-147.168-2.083-147.168-4.65
				c0-2.568,65.91-4.649,147.168-4.649c81.251,0,147.153,2.082,147.153,4.649C397.933,367.861,332.031,369.944,250.78,369.944
				L250.78,369.944z"/>
			<path fill-rule="evenodd" clip-rule="evenodd" fill="#E0E0E0" d="M250.806,369.863c-80.175,0-145.207-2.051-145.207-4.579
				c0-2.529,65.032-4.578,145.207-4.578c80.168,0,145.192,2.05,145.192,4.578C395.998,367.812,330.974,369.863,250.806,369.863
				L250.806,369.863z"/>
			<path fill-rule="evenodd" clip-rule="evenodd" fill="#DFDFDF" d="M250.832,369.783c-79.092,0-143.246-2.019-143.246-4.508
				c0-2.489,64.153-4.508,143.246-4.508c79.085,0,143.231,2.018,143.231,4.508C394.062,367.763,329.917,369.783,250.832,369.783
				L250.832,369.783z"/>
			<path fill-rule="evenodd" clip-rule="evenodd" fill="#DEDEDE" d="M250.857,369.702c-78.009,0-141.284-1.987-141.284-4.437
				c0-2.45,63.275-4.437,141.284-4.437c78.002,0,141.269,1.986,141.269,4.437C392.127,367.714,328.859,369.702,250.857,369.702
				L250.857,369.702z"/>
			<path fill-rule="evenodd" clip-rule="evenodd" fill="#DDDDDD" d="M250.883,369.621c-76.926,0-139.323-1.956-139.323-4.366
				c0-2.411,62.397-4.366,139.323-4.366c76.919,0,139.308,1.955,139.308,4.366C390.191,367.665,327.802,369.621,250.883,369.621
				L250.883,369.621z"/>
			<path fill-rule="evenodd" clip-rule="evenodd" fill="#DCDCDC" d="M250.909,369.54c-75.843,0-137.362-1.924-137.362-4.295
				c0-2.372,61.518-4.296,137.362-4.296c75.836,0,137.347,1.923,137.347,4.296C388.256,367.616,326.745,369.54,250.909,369.54
				L250.909,369.54z"/>
			<path fill-rule="evenodd" clip-rule="evenodd" fill="#DBDBDB" d="M250.935,369.46c-74.761,0-135.4-1.892-135.4-4.224
				c0-2.333,60.64-4.225,135.4-4.225c74.753,0,135.385,1.891,135.385,4.225C386.32,367.567,325.688,369.46,250.935,369.46
				L250.935,369.46z"/>
			<path fill-rule="evenodd" clip-rule="evenodd" fill="#DADADA" d="M250.961,369.379c-73.678,0-133.439-1.861-133.439-4.154
				c0-2.294,59.761-4.154,133.439-4.154c73.67,0,133.424,1.86,133.424,4.154C384.384,367.518,324.63,369.379,250.961,369.379
				L250.961,369.379z"/>
			<path fill-rule="evenodd" clip-rule="evenodd" fill="#D9D9D9" d="M250.986,369.298c-72.595,0-131.478-1.829-131.478-4.083
				c0-2.255,58.883-4.083,131.478-4.083c72.587,0,131.463,1.828,131.463,4.083C382.449,367.469,323.573,369.298,250.986,369.298
				L250.986,369.298z"/>
			<path fill-rule="evenodd" clip-rule="evenodd" fill="#D9D9D9" d="M251.012,369.218c-71.512,0-129.516-1.797-129.516-4.012
				c0-2.216,58.005-4.013,129.516-4.013c71.504,0,129.501,1.796,129.501,4.013C380.513,367.421,322.516,369.218,251.012,369.218
				L251.012,369.218z"/>
			<path fill-rule="evenodd" clip-rule="evenodd" fill="#D8D8D8" d="M251.038,369.137c-70.429,0-127.555-1.765-127.555-3.941
				c0-2.177,57.126-3.942,127.555-3.942c70.42,0,127.54,1.765,127.54,3.942C378.578,367.372,321.458,369.137,251.038,369.137
				L251.038,369.137z"/>
			<path fill-rule="evenodd" clip-rule="evenodd" fill="#D7D7D7" d="M251.064,369.056c-69.346,0-125.594-1.734-125.594-3.87
				c0-2.138,56.248-3.871,125.594-3.871c69.337,0,125.579,1.733,125.579,3.871C376.642,367.323,320.401,369.056,251.064,369.056
				L251.064,369.056z"/>
			<path fill-rule="evenodd" clip-rule="evenodd" fill="#D6D6D6" d="M251.089,368.975c-68.263,0-123.633-1.702-123.633-3.799
				c0-2.099,55.369-3.801,123.633-3.801c68.254,0,123.617,1.701,123.617,3.801C374.707,367.274,319.344,368.975,251.089,368.975
				L251.089,368.975z"/>
			<path fill-rule="evenodd" clip-rule="evenodd" fill="#D5D5D5" d="M251.115,368.895c-67.18,0-121.671-1.67-121.671-3.728
				c0-2.06,54.491-3.73,121.671-3.73c67.171,0,121.656,1.669,121.656,3.73C372.771,367.225,318.286,368.895,251.115,368.895
				L251.115,368.895z"/>
			<path fill-rule="evenodd" clip-rule="evenodd" fill="#D4D4D4" d="M251.141,368.814c-66.098,0-119.71-1.638-119.71-3.658
				c0-2.021,53.612-3.659,119.71-3.659c66.088,0,119.695,1.638,119.695,3.659C370.836,367.176,317.229,368.814,251.141,368.814
				L251.141,368.814z"/>
			<path fill-rule="evenodd" clip-rule="evenodd" fill="#D3D3D3" d="M251.167,368.733c-65.015,0-117.749-1.607-117.749-3.587
				c0-1.982,52.734-3.588,117.749-3.588c65.005,0,117.733,1.606,117.733,3.588C368.9,367.127,316.172,368.733,251.167,368.733
				L251.167,368.733z"/>
			<path fill-rule="evenodd" clip-rule="evenodd" fill="#D2D2D2" d="M251.192,368.653c-63.932,0-115.787-1.575-115.787-3.516
				c0-1.943,51.856-3.518,115.787-3.518c63.922,0,115.772,1.574,115.772,3.518C366.964,367.078,315.114,368.653,251.192,368.653
				L251.192,368.653z"/>
			<path fill-rule="evenodd" clip-rule="evenodd" fill="#D1D1D1" d="M251.218,368.572c-62.849,0-113.826-1.543-113.826-3.445
				c0-1.904,50.977-3.447,113.826-3.447c62.839,0,113.811,1.543,113.811,3.447C365.029,367.029,314.057,368.572,251.218,368.572
				L251.218,368.572z"/>
			<path fill-rule="evenodd" clip-rule="evenodd" fill="#D0D0D0" d="M251.244,368.491c-61.766,0-111.865-1.512-111.865-3.374
				c0-1.865,50.099-3.376,111.865-3.376c61.756,0,111.849,1.511,111.849,3.376C363.093,366.98,313,368.491,251.244,368.491
				L251.244,368.491z"/>
			<path fill-rule="evenodd" clip-rule="evenodd" fill="#CFCFCF" d="M251.27,368.411c-60.683,0-109.903-1.48-109.903-3.303
				c0-1.826,49.22-3.306,109.903-3.306c60.673,0,109.888,1.479,109.888,3.306C361.158,366.931,311.942,368.411,251.27,368.411
				L251.27,368.411z"/>
			<path fill-rule="evenodd" clip-rule="evenodd" fill="#CECECE" d="M251.296,368.33c-59.6,0-107.942-1.448-107.942-3.233
				c0-1.787,48.342-3.235,107.942-3.235c59.59,0,107.927,1.448,107.927,3.235C359.222,366.882,310.885,368.33,251.296,368.33
				L251.296,368.33z"/>
			<path fill-rule="evenodd" clip-rule="evenodd" fill="#CDCDCD" d="M251.321,368.249c-58.517,0-105.981-1.416-105.981-3.162
				c0-1.748,47.464-3.164,105.981-3.164c58.506,0,105.965,1.416,105.965,3.164C357.287,366.833,309.828,368.249,251.321,368.249
				L251.321,368.249z"/>
			<path fill-rule="evenodd" clip-rule="evenodd" fill="#CCCCCC" d="M251.347,368.168c-57.434,0-104.02-1.385-104.02-3.091
				c0-1.709,46.585-3.094,104.02-3.094c57.423,0,104.004,1.384,104.004,3.094C355.351,366.784,308.77,368.168,251.347,368.168
				L251.347,368.168z"/>
			<path fill-rule="evenodd" clip-rule="evenodd" fill="#CBCBCB" d="M251.373,368.088c-56.352,0-102.058-1.353-102.058-3.02
				c0-1.67,45.707-3.023,102.058-3.023c56.34,0,102.043,1.352,102.043,3.023C353.415,366.735,307.713,368.088,251.373,368.088
				L251.373,368.088z"/>
			<path fill-rule="evenodd" clip-rule="evenodd" fill="#CACACA" d="M251.399,368.007c-55.269,0-100.097-1.321-100.097-2.949
				c0-1.631,44.828-2.952,100.097-2.952c55.257,0,100.081,1.321,100.081,2.952C351.48,366.686,306.656,368.007,251.399,368.007
				L251.399,368.007z"/>
			<path fill-rule="evenodd" clip-rule="evenodd" fill="#C9C9C9" d="M251.424,367.926c-54.186,0-98.136-1.29-98.136-2.878
				c0-1.592,43.95-2.881,98.136-2.881c54.174,0,98.12,1.289,98.12,2.881C349.544,366.637,305.598,367.926,251.424,367.926
				L251.424,367.926z"/>
			<path fill-rule="evenodd" clip-rule="evenodd" fill="#C8C8C8" d="M251.45,367.846c-53.103,0-96.174-1.258-96.174-2.807
				c0-1.553,43.071-2.811,96.174-2.811c53.091,0,96.159,1.257,96.159,2.811C347.609,366.588,304.541,367.846,251.45,367.846
				L251.45,367.846z"/>
			<path fill-rule="evenodd" clip-rule="evenodd" fill="#C7C7C7" d="M251.476,367.765c-52.02,0-94.213-1.226-94.213-2.737
				c0-1.514,42.193-2.74,94.213-2.74c52.008,0,94.197,1.226,94.197,2.74C345.673,366.539,303.484,367.765,251.476,367.765
				L251.476,367.765z"/>
			<path fill-rule="evenodd" clip-rule="evenodd" fill="#C6C6C6" d="M251.502,367.684c-50.937,0-92.252-1.194-92.252-2.666
				c0-1.475,41.315-2.669,92.252-2.669c50.925,0,92.236,1.194,92.236,2.669C343.738,366.49,302.427,367.684,251.502,367.684
				L251.502,367.684z"/>
			<path fill-rule="evenodd" clip-rule="evenodd" fill="#C5C5C5" d="M251.527,367.603c-49.854,0-90.29-1.163-90.29-2.595
				c0-1.436,40.436-2.599,90.29-2.599c49.842,0,90.275,1.162,90.275,2.599C341.802,366.441,301.369,367.603,251.527,367.603
				L251.527,367.603z"/>
			<path fill-rule="evenodd" clip-rule="evenodd" fill="#C4C4C4" d="M251.553,367.523c-48.771,0-88.329-1.131-88.329-2.524
				c0-1.397,39.558-2.528,88.329-2.528c48.759,0,88.313,1.131,88.313,2.528C339.867,366.392,300.312,367.523,251.553,367.523
				L251.553,367.523z"/>
			<path fill-rule="evenodd" clip-rule="evenodd" fill="#C3C3C3" d="M251.579,367.442c-47.689,0-86.368-1.099-86.368-2.453
				c0-1.358,38.679-2.457,86.368-2.457c47.676,0,86.352,1.099,86.352,2.457C337.931,366.343,299.255,367.442,251.579,367.442
				L251.579,367.442z"/>
			<path fill-rule="evenodd" clip-rule="evenodd" fill="#C2C2C2" d="M251.605,367.361c-46.606,0-84.407-1.068-84.407-2.382
				c0-1.319,37.801-2.386,84.407-2.386c46.593,0,84.391,1.067,84.391,2.386C335.995,366.294,298.197,367.361,251.605,367.361
				L251.605,367.361z"/>
			<path fill-rule="evenodd" clip-rule="evenodd" fill="#C1C1C1" d="M251.63,367.281c-45.523,0-82.445-1.036-82.445-2.311
				c0-1.28,36.922-2.316,82.445-2.316c45.509,0,82.429,1.035,82.429,2.316C334.06,366.245,297.14,367.281,251.63,367.281
				L251.63,367.281z"/>
			<path fill-rule="evenodd" clip-rule="evenodd" fill="#C0C0C0" d="M251.656,367.2c-44.44,0-80.484-1.004-80.484-2.241
				c0-1.241,36.044-2.245,80.484-2.245c44.426,0,80.468,1.004,80.468,2.245C332.124,366.196,296.083,367.2,251.656,367.2
				L251.656,367.2z"/>
			<path fill-rule="evenodd" clip-rule="evenodd" fill="#BFBFBF" d="M251.682,367.119c-43.357,0-78.523-0.972-78.523-2.17
				c0-1.202,35.166-2.174,78.523-2.174c43.343,0,78.507,0.972,78.507,2.174C330.189,366.147,295.025,367.119,251.682,367.119
				L251.682,367.119z"/>
			<path fill-rule="evenodd" clip-rule="evenodd" fill="#BEBEBE" d="M251.708,367.039c-42.274,0-76.561-0.941-76.561-2.099
				c0-1.163,34.287-2.104,76.561-2.104c42.26,0,76.545,0.94,76.545,2.104C328.253,366.098,293.968,367.039,251.708,367.039
				L251.708,367.039z"/>
			<path fill-rule="evenodd" clip-rule="evenodd" fill="#BDBDBD" d="M251.734,366.958c-41.191,0-74.6-0.909-74.6-2.028
				c0-1.124,33.409-2.033,74.6-2.033c41.177,0,74.584,0.909,74.584,2.033C326.318,366.049,292.911,366.958,251.734,366.958
				L251.734,366.958z"/>
			<path fill-rule="evenodd" clip-rule="evenodd" fill="#BCBCBC" d="M251.759,366.877c-40.108,0-72.639-0.877-72.639-1.957
				c0-1.085,32.53-1.962,72.639-1.962c40.094,0,72.623,0.877,72.623,1.962C324.382,366,291.853,366.877,251.759,366.877
				L251.759,366.877z"/>
			<path fill-rule="evenodd" clip-rule="evenodd" fill="#BBBBBB" d="M251.785,366.796c-39.025,0-70.677-0.845-70.677-1.886
				c0-1.046,31.652-1.891,70.677-1.891c39.011,0,70.661,0.845,70.661,1.891C322.447,365.951,290.796,366.796,251.785,366.796
				L251.785,366.796z"/>
			<path fill-rule="evenodd" clip-rule="evenodd" fill="#BABABA" d="M251.811,366.716c-37.943,0-68.716-0.814-68.716-1.815
				c0-1.007,30.774-1.821,68.716-1.821c37.928,0,68.7,0.814,68.7,1.821C320.511,365.902,289.739,366.716,251.811,366.716
				L251.811,366.716z"/>
			<path fill-rule="evenodd" clip-rule="evenodd" fill="#B9B9B9" d="M251.837,366.635c-36.86,0-66.755-0.782-66.755-1.745
				c0-0.968,29.895-1.75,66.755-1.75c36.845,0,66.739,0.782,66.739,1.75C318.575,365.853,288.681,366.635,251.837,366.635
				L251.837,366.635z"/>
			<path fill-rule="evenodd" clip-rule="evenodd" fill="#B8B8B8" d="M251.862,366.554c-35.777,0-64.794-0.75-64.794-1.674
				c0-0.929,29.017-1.679,64.794-1.679c35.762,0,64.778,0.75,64.778,1.679C316.64,365.804,287.624,366.554,251.862,366.554
				L251.862,366.554z"/>
			<path fill-rule="evenodd" clip-rule="evenodd" fill="#B7B7B7" d="M251.888,366.474c-34.694,0-62.832-0.719-62.832-1.603
				c0-0.89,28.138-1.609,62.832-1.609c34.679,0,62.816,0.719,62.816,1.609C314.704,365.755,286.567,366.474,251.888,366.474
				L251.888,366.474z"/>
			<path fill-rule="evenodd" clip-rule="evenodd" fill="#B6B6B6" d="M251.914,366.393c-33.611,0-60.871-0.687-60.871-1.532
				c0-0.851,27.26-1.538,60.871-1.538c33.596,0,60.855,0.687,60.855,1.538C312.769,365.706,285.509,366.393,251.914,366.393
				L251.914,366.393z"/>
			<path fill-rule="evenodd" clip-rule="evenodd" fill="#B5B5B5" d="M251.94,366.312c-32.528,0-58.91-0.655-58.91-1.461
				c0-0.812,26.381-1.467,58.91-1.467c32.512,0,58.894,0.655,58.894,1.467C310.833,365.657,284.452,366.312,251.94,366.312
				L251.94,366.312z"/>
			<path fill-rule="evenodd" clip-rule="evenodd" fill="#B4B4B4" d="M251.965,366.232c-31.445,0-56.948-0.623-56.948-1.39
				c0-0.773,25.503-1.397,56.948-1.397c31.429,0,56.932,0.623,56.932,1.397C308.898,365.608,283.395,366.232,251.965,366.232
				L251.965,366.232z"/>
			<path fill-rule="evenodd" clip-rule="evenodd" fill="#B3B3B3" d="M251.991,366.151c-30.362,0-54.987-0.592-54.987-1.32
				c0-0.734,24.625-1.326,54.987-1.326c30.346,0,54.971,0.592,54.971,1.326C306.962,365.559,282.337,366.151,251.991,366.151
				L251.991,366.151z"/>
		</g>
	</g>
	<path fill="#FF994F" d="M300.475,294.369c-0.658-10.963-0.734-22.19-3.307-32.758c-4.308-17.69-14.555-34.365-39.104-37.992
		c10.301-3.435,18.022-13.13,18.433-24.561c0.522-14.508-11.586-27.066-26.27-27.25c-14.575-0.182-26.426,11.26-26.735,25.812
		c-0.256,12.103,7.252,22.356,17.941,25.957c-13.858,2.179-25.687,10.096-32.711,23.255c-6.746,12.639-9.51,26.317-9.199,40.597
		c0.081,3.709,0.206,7.52,1.106,11.084c1.298,5.14,6.539,8.122,11.696,7.353c5.15-0.768,7.472-3.845,7.495-10.024
		c0.02-5.428-0.486-10.908,0.104-16.27c0.71-6.445,2.335-12.789,3.563-19.177c0.458,0.111,0.916,0.069,1.374,0.18
		c0,16.527,0.028,33.427,0.034,49.427h49.509c-0.065-5-0.122-9.752-0.161-14.705c-0.096-12.48-0.02-24.885-0.02-37.366
		c0.391-0.092,0.782-0.145,1.174-0.237c0.967,2.972,2.499,5.907,2.797,8.944c0.981,10.011,1.611,20.07,2.188,30.115
		c0.403,7.027,5.567,10.771,12.306,8.642C298.081,303.689,300.791,299.627,300.475,294.369z"/>
</g>
</svg>
