<?xml version="1.0" encoding="utf-8"?>
<!-- Generator: Adobe Illustrator 17.0.0, SVG Export Plug-In . SVG Version: 6.00 Build 0)  -->
<!DOCTYPE svg PUBLIC "-//W3C//DTD SVG 1.1//EN" "http://www.w3.org/Graphics/SVG/1.1/DTD/svg11.dtd">
<svg version="1.1" id="Capa_1" xmlns="http://www.w3.org/2000/svg" xmlns:xlink="http://www.w3.org/1999/xlink" x="0px" y="0px"
	 width="500px" height="500px" viewBox="0 0 500 500" enable-background="new 0 0 500 500" xml:space="preserve">
<g>
	<g id="fmcR63_2_">
		<g>
			<path fill="#FF994F" d="M107.614,440.563c0-2.225,0-4.45,0-6.674c10.633,0,21.266,0,31.899,0c-7.242-5.61-8.771-12.74-8.727-21
				c0.196-36.688,0.073-73.377,0.092-110.066c0.007-14.296,6.288-20.542,20.73-20.546c65.595-0.02,131.19-0.021,196.785,0.001
				c14.44,0.005,20.702,6.252,20.708,20.554c0.015,34.65-0.005,69.301,0.012,103.951c0.005,9.849,1.438,20.118-10.353,27.105
				c12.513,0,23.07,0,33.627,0c0,2.225,0,4.45,0,6.674c-4.613,10.912-5.443,11.457-17.82,11.457
				c-83.044,0.003-166.089,0.003-249.133,0C113.057,452.02,112.227,451.475,107.614,440.563z M276.125,435.412
				c-17.774,0-34.884,0-52.009,0c0,3.015,0,5.643,0,8.173c17.59,0,34.702,0,52.009,0
				C276.125,440.711,276.125,438.208,276.125,435.412z"/>
			<path fill="#FFFFFF" d="M276.125,435.412c0,2.796,0,5.299,0,8.173c-17.307,0-34.419,0-52.009,0c0-2.53,0-5.158,0-8.173
				C241.241,435.412,258.351,435.412,276.125,435.412z"/>
		</g>
	</g>
	<rect x="154" y="298" fill="#FFFFFF" width="192" height="118"/>
	<g>
		<g opacity="0.9">
			<path fill-rule="evenodd" clip-rule="evenodd" fill="#FFFFFF" d="M250.007,464.365C136.263,464.365,44,461.331,44,457.59
				c0-3.738,92.263-6.77,206.007-6.77c113.744,0,205.993,3.033,205.993,6.77C456,461.331,363.751,464.365,250.007,464.365
				L250.007,464.365z"/>
			<path fill-rule="evenodd" clip-rule="evenodd" fill="#FEFEFE" d="M250.033,464.284c-112.661,0-204.046-3.002-204.046-6.704
				c0-3.699,91.384-6.7,204.046-6.7c112.661,0,204.032,3.001,204.032,6.7C454.064,461.282,362.694,464.284,250.033,464.284
				L250.033,464.284z"/>
			<path fill-rule="evenodd" clip-rule="evenodd" fill="#FDFDFD" d="M250.059,464.204c-111.579,0-202.085-2.971-202.085-6.633
				c0-3.66,90.506-6.629,202.085-6.629c111.578,0,202.07,2.969,202.07,6.629C452.129,461.233,361.636,464.204,250.059,464.204
				L250.059,464.204z"/>
			<path fill-rule="evenodd" clip-rule="evenodd" fill="#FCFCFC" d="M250.084,464.123c-110.496,0-200.123-2.939-200.123-6.563
				c0-3.621,89.628-6.558,200.123-6.558c110.495,0,200.109,2.937,200.109,6.558C450.193,461.184,360.579,464.123,250.084,464.123
				L250.084,464.123z"/>
			<path fill-rule="evenodd" clip-rule="evenodd" fill="#FBFBFB" d="M250.11,464.042c-109.413,0-198.162-2.907-198.162-6.492
				c0-3.582,88.749-6.487,198.162-6.487c109.412,0,198.148,2.906,198.148,6.487C448.258,461.135,359.522,464.042,250.11,464.042
				L250.11,464.042z"/>
			<path fill-rule="evenodd" clip-rule="evenodd" fill="#FAFAFA" d="M250.136,463.962c-108.33,0-196.201-2.876-196.201-6.421
				c0-3.543,87.871-6.417,196.201-6.417c108.328,0,196.186,2.874,196.186,6.417C446.322,461.086,358.464,463.962,250.136,463.962
				L250.136,463.962z"/>
			<path fill-rule="evenodd" clip-rule="evenodd" fill="#F9F9F9" d="M250.162,463.881c-107.247,0-194.239-2.844-194.239-6.35
				c0-3.504,86.992-6.346,194.239-6.346c107.245,0,194.225,2.842,194.225,6.346C444.387,461.037,357.407,463.881,250.162,463.881
				L250.162,463.881z"/>
			<path fill-rule="evenodd" clip-rule="evenodd" fill="#F8F8F8" d="M250.187,463.8c-106.164,0-192.278-2.812-192.278-6.279
				c0-3.465,86.114-6.275,192.278-6.275c106.162,0,192.264,2.811,192.264,6.275C442.451,460.988,356.35,463.8,250.187,463.8
				L250.187,463.8z"/>
			<path fill-rule="evenodd" clip-rule="evenodd" fill="#F7F7F7" d="M250.213,463.719c-105.081,0-190.317-2.78-190.317-6.208
				c0-3.426,85.235-6.205,190.317-6.205c105.079,0,190.302,2.779,190.302,6.205C440.516,460.939,355.292,463.719,250.213,463.719
				L250.213,463.719z"/>
			<path fill-rule="evenodd" clip-rule="evenodd" fill="#F6F6F6" d="M250.239,463.639c-103.998,0-188.355-2.749-188.355-6.137
				c0-3.387,84.357-6.134,188.355-6.134c103.996,0,188.341,2.747,188.341,6.134C438.58,460.89,354.235,463.639,250.239,463.639
				L250.239,463.639z"/>
			<path fill-rule="evenodd" clip-rule="evenodd" fill="#F5F5F5" d="M250.265,463.558c-102.916,0-186.394-2.717-186.394-6.067
				c0-3.348,83.479-6.063,186.394-6.063c102.913,0,186.38,2.716,186.38,6.063C436.644,460.841,353.178,463.558,250.265,463.558
				L250.265,463.558z"/>
			<path fill-rule="evenodd" clip-rule="evenodd" fill="#F4F4F4" d="M250.291,463.477c-101.833,0-184.433-2.685-184.433-5.996
				c0-3.309,82.6-5.992,184.433-5.992c101.83,0,184.418,2.684,184.418,5.992C434.709,460.792,352.12,463.477,250.291,463.477
				L250.291,463.477z"/>
			<path fill-rule="evenodd" clip-rule="evenodd" fill="#F3F3F3" d="M250.316,463.397c-100.75,0-182.472-2.654-182.472-5.925
				c0-3.27,81.722-5.922,182.472-5.922c100.747,0,182.457,2.652,182.457,5.922C432.773,460.743,351.063,463.397,250.316,463.397
				L250.316,463.397z"/>
			<path fill-rule="evenodd" clip-rule="evenodd" fill="#F2F2F2" d="M250.342,463.316c-99.667,0-180.51-2.622-180.51-5.854
				c0-3.231,80.843-5.851,180.51-5.851c99.664,0,180.496,2.62,180.496,5.851C430.838,460.694,350.006,463.316,250.342,463.316
				L250.342,463.316z"/>
			<path fill-rule="evenodd" clip-rule="evenodd" fill="#F1F1F1" d="M250.368,463.235c-98.584,0-178.549-2.59-178.549-5.783
				c0-3.192,79.965-5.78,178.549-5.78c98.581,0,178.534,2.589,178.534,5.78C428.902,460.645,348.949,463.235,250.368,463.235
				L250.368,463.235z"/>
			<path fill-rule="evenodd" clip-rule="evenodd" fill="#F0F0F0" d="M250.394,463.155c-97.501,0-176.588-2.558-176.588-5.712
				c0-3.153,79.087-5.71,176.588-5.71c97.498,0,176.573,2.557,176.573,5.71C426.967,460.596,347.891,463.155,250.394,463.155
				L250.394,463.155z"/>
			<path fill-rule="evenodd" clip-rule="evenodd" fill="#EFEFEF" d="M250.419,463.074c-96.418,0-174.626-2.527-174.626-5.641
				c0-3.114,78.208-5.639,174.626-5.639c96.414,0,174.612,2.525,174.612,5.639C425.031,460.547,346.834,463.074,250.419,463.074
				L250.419,463.074z"/>
			<path fill-rule="evenodd" clip-rule="evenodd" fill="#EEEEEE" d="M250.445,462.993c-95.335,0-172.665-2.495-172.665-5.571
				c0-3.075,77.33-5.568,172.665-5.568c95.331,0,172.65,2.494,172.65,5.568C423.096,460.498,345.777,462.993,250.445,462.993
				L250.445,462.993z"/>
			<path fill-rule="evenodd" clip-rule="evenodd" fill="#EDEDED" d="M250.471,462.912c-94.252,0-170.704-2.463-170.704-5.5
				c0-3.036,76.451-5.498,170.704-5.498c94.248,0,170.689,2.462,170.689,5.498C421.16,460.449,344.719,462.912,250.471,462.912
				L250.471,462.912z"/>
			<path fill-rule="evenodd" clip-rule="evenodd" fill="#ECECEC" d="M250.497,462.832c-93.17,0-168.742-2.431-168.742-5.429
				c0-2.997,75.573-5.427,168.742-5.427c93.165,0,168.728,2.43,168.728,5.427C419.224,460.4,343.662,462.832,250.497,462.832
				L250.497,462.832z"/>
			<path fill-rule="evenodd" clip-rule="evenodd" fill="#EBEBEB" d="M250.522,462.751c-92.087,0-166.781-2.4-166.781-5.358
				c0-2.958,74.694-5.356,166.781-5.356c92.082,0,166.766,2.399,166.766,5.356C417.289,460.351,342.605,462.751,250.522,462.751
				L250.522,462.751z"/>
			<path fill-rule="evenodd" clip-rule="evenodd" fill="#EAEAEA" d="M250.548,462.67c-91.004,0-164.82-2.368-164.82-5.287
				c0-2.919,73.816-5.285,164.82-5.285c90.999,0,164.805,2.367,164.805,5.285C415.353,460.302,341.547,462.67,250.548,462.67
				L250.548,462.67z"/>
			<path fill-rule="evenodd" clip-rule="evenodd" fill="#E9E9E9" d="M250.574,462.59c-89.921,0-162.859-2.336-162.859-5.216
				c0-2.88,72.938-5.215,162.859-5.215c89.916,0,162.844,2.335,162.844,5.215C413.418,460.253,340.49,462.59,250.574,462.59
				L250.574,462.59z"/>
			<path fill-rule="evenodd" clip-rule="evenodd" fill="#E8E8E8" d="M250.6,462.509c-88.838,0-160.897-2.305-160.897-5.145
				c0-2.841,72.059-5.144,160.897-5.144c88.833,0,160.882,2.303,160.882,5.144C411.482,460.204,339.433,462.509,250.6,462.509
				L250.6,462.509z"/>
			<path fill-rule="evenodd" clip-rule="evenodd" fill="#E7E7E7" d="M250.626,462.428c-87.755,0-158.936-2.273-158.936-5.075
				c0-2.802,71.181-5.073,158.936-5.073c87.75,0,158.921,2.272,158.921,5.073C409.547,460.155,338.375,462.428,250.626,462.428
				L250.626,462.428z"/>
			<path fill-rule="evenodd" clip-rule="evenodd" fill="#E6E6E6" d="M250.651,462.347c-86.672,0-156.975-2.241-156.975-5.004
				c0-2.763,70.302-5.003,156.975-5.003c86.667,0,156.96,2.24,156.96,5.003C407.611,460.106,337.318,462.347,250.651,462.347
				L250.651,462.347z"/>
			<path fill-rule="evenodd" clip-rule="evenodd" fill="#E5E5E5" d="M250.677,462.267c-85.589,0-155.013-2.209-155.013-4.933
				c0-2.724,69.424-4.932,155.013-4.932c85.584,0,154.998,2.208,154.998,4.932C405.676,460.057,336.261,462.267,250.677,462.267
				L250.677,462.267z"/>
			<path fill-rule="evenodd" clip-rule="evenodd" fill="#E4E4E4" d="M250.703,462.186c-84.507,0-153.052-2.178-153.052-4.862
				c0-2.685,68.546-4.861,153.052-4.861c84.501,0,153.037,2.177,153.037,4.861C403.74,460.008,335.203,462.186,250.703,462.186
				L250.703,462.186z"/>
			<path fill-rule="evenodd" clip-rule="evenodd" fill="#E3E3E3" d="M250.729,462.105c-83.424,0-151.091-2.146-151.091-4.791
				c0-2.646,67.667-4.79,151.091-4.79c83.417,0,151.076,2.145,151.076,4.79C401.804,459.959,334.146,462.105,250.729,462.105
				L250.729,462.105z"/>
			<path fill-rule="evenodd" clip-rule="evenodd" fill="#E2E2E2" d="M250.754,462.025c-82.341,0-149.129-2.114-149.129-4.72
				c0-2.607,66.789-4.72,149.129-4.72c82.334,0,149.114,2.113,149.114,4.72C399.869,459.91,333.089,462.025,250.754,462.025
				L250.754,462.025z"/>
			<path fill-rule="evenodd" clip-rule="evenodd" fill="#E1E1E1" d="M250.78,461.944c-81.258,0-147.168-2.083-147.168-4.65
				c0-2.568,65.91-4.649,147.168-4.649c81.251,0,147.153,2.082,147.153,4.649C397.933,459.861,332.031,461.944,250.78,461.944
				L250.78,461.944z"/>
			<path fill-rule="evenodd" clip-rule="evenodd" fill="#E0E0E0" d="M250.806,461.863c-80.175,0-145.207-2.051-145.207-4.579
				c0-2.529,65.032-4.578,145.207-4.578c80.168,0,145.192,2.05,145.192,4.578C395.998,459.812,330.974,461.863,250.806,461.863
				L250.806,461.863z"/>
			<path fill-rule="evenodd" clip-rule="evenodd" fill="#DFDFDF" d="M250.832,461.783c-79.092,0-143.246-2.019-143.246-4.508
				c0-2.489,64.153-4.508,143.246-4.508c79.085,0,143.231,2.018,143.231,4.508C394.062,459.763,329.917,461.783,250.832,461.783
				L250.832,461.783z"/>
			<path fill-rule="evenodd" clip-rule="evenodd" fill="#DEDEDE" d="M250.857,461.702c-78.009,0-141.284-1.987-141.284-4.437
				c0-2.45,63.275-4.437,141.284-4.437c78.002,0,141.269,1.986,141.269,4.437C392.127,459.714,328.859,461.702,250.857,461.702
				L250.857,461.702z"/>
			<path fill-rule="evenodd" clip-rule="evenodd" fill="#DDDDDD" d="M250.883,461.621c-76.926,0-139.323-1.956-139.323-4.366
				c0-2.411,62.397-4.366,139.323-4.366c76.919,0,139.308,1.955,139.308,4.366C390.191,459.665,327.802,461.621,250.883,461.621
				L250.883,461.621z"/>
			<path fill-rule="evenodd" clip-rule="evenodd" fill="#DCDCDC" d="M250.909,461.54c-75.843,0-137.362-1.924-137.362-4.295
				c0-2.372,61.518-4.296,137.362-4.296c75.836,0,137.347,1.923,137.347,4.296C388.256,459.616,326.745,461.54,250.909,461.54
				L250.909,461.54z"/>
			<path fill-rule="evenodd" clip-rule="evenodd" fill="#DBDBDB" d="M250.935,461.46c-74.761,0-135.4-1.892-135.4-4.224
				c0-2.333,60.64-4.225,135.4-4.225c74.753,0,135.385,1.891,135.385,4.225C386.32,459.567,325.688,461.46,250.935,461.46
				L250.935,461.46z"/>
			<path fill-rule="evenodd" clip-rule="evenodd" fill="#DADADA" d="M250.961,461.379c-73.678,0-133.439-1.861-133.439-4.154
				c0-2.294,59.761-4.154,133.439-4.154c73.67,0,133.424,1.86,133.424,4.154C384.384,459.518,324.63,461.379,250.961,461.379
				L250.961,461.379z"/>
			<path fill-rule="evenodd" clip-rule="evenodd" fill="#D9D9D9" d="M250.986,461.298c-72.595,0-131.478-1.829-131.478-4.083
				c0-2.255,58.883-4.083,131.478-4.083c72.587,0,131.463,1.828,131.463,4.083C382.449,459.469,323.573,461.298,250.986,461.298
				L250.986,461.298z"/>
			<path fill-rule="evenodd" clip-rule="evenodd" fill="#D9D9D9" d="M251.012,461.218c-71.512,0-129.516-1.797-129.516-4.012
				c0-2.216,58.005-4.013,129.516-4.013c71.504,0,129.501,1.796,129.501,4.013C380.513,459.421,322.516,461.218,251.012,461.218
				L251.012,461.218z"/>
			<path fill-rule="evenodd" clip-rule="evenodd" fill="#D8D8D8" d="M251.038,461.137c-70.429,0-127.555-1.765-127.555-3.941
				c0-2.177,57.126-3.942,127.555-3.942c70.42,0,127.54,1.765,127.54,3.942C378.578,459.372,321.458,461.137,251.038,461.137
				L251.038,461.137z"/>
			<path fill-rule="evenodd" clip-rule="evenodd" fill="#D7D7D7" d="M251.064,461.056c-69.346,0-125.594-1.734-125.594-3.87
				c0-2.138,56.248-3.871,125.594-3.871c69.337,0,125.579,1.733,125.579,3.871C376.642,459.323,320.401,461.056,251.064,461.056
				L251.064,461.056z"/>
			<path fill-rule="evenodd" clip-rule="evenodd" fill="#D6D6D6" d="M251.089,460.975c-68.263,0-123.633-1.702-123.633-3.799
				c0-2.099,55.369-3.801,123.633-3.801c68.254,0,123.617,1.701,123.617,3.801C374.707,459.274,319.344,460.975,251.089,460.975
				L251.089,460.975z"/>
			<path fill-rule="evenodd" clip-rule="evenodd" fill="#D5D5D5" d="M251.115,460.895c-67.18,0-121.671-1.67-121.671-3.728
				c0-2.06,54.491-3.73,121.671-3.73c67.171,0,121.656,1.669,121.656,3.73C372.771,459.225,318.286,460.895,251.115,460.895
				L251.115,460.895z"/>
			<path fill-rule="evenodd" clip-rule="evenodd" fill="#D4D4D4" d="M251.141,460.814c-66.098,0-119.71-1.638-119.71-3.658
				c0-2.021,53.612-3.659,119.71-3.659c66.088,0,119.695,1.638,119.695,3.659C370.836,459.176,317.229,460.814,251.141,460.814
				L251.141,460.814z"/>
			<path fill-rule="evenodd" clip-rule="evenodd" fill="#D3D3D3" d="M251.167,460.733c-65.015,0-117.749-1.607-117.749-3.587
				c0-1.982,52.734-3.588,117.749-3.588c65.005,0,117.733,1.606,117.733,3.588C368.9,459.127,316.172,460.733,251.167,460.733
				L251.167,460.733z"/>
			<path fill-rule="evenodd" clip-rule="evenodd" fill="#D2D2D2" d="M251.192,460.653c-63.932,0-115.787-1.575-115.787-3.516
				c0-1.943,51.856-3.518,115.787-3.518c63.922,0,115.772,1.574,115.772,3.518C366.964,459.078,315.114,460.653,251.192,460.653
				L251.192,460.653z"/>
			<path fill-rule="evenodd" clip-rule="evenodd" fill="#D1D1D1" d="M251.218,460.572c-62.849,0-113.826-1.543-113.826-3.445
				c0-1.904,50.977-3.447,113.826-3.447c62.839,0,113.811,1.543,113.811,3.447C365.029,459.029,314.057,460.572,251.218,460.572
				L251.218,460.572z"/>
			<path fill-rule="evenodd" clip-rule="evenodd" fill="#D0D0D0" d="M251.244,460.491c-61.766,0-111.865-1.512-111.865-3.374
				c0-1.865,50.099-3.376,111.865-3.376c61.756,0,111.849,1.511,111.849,3.376C363.093,458.98,313,460.491,251.244,460.491
				L251.244,460.491z"/>
			<path fill-rule="evenodd" clip-rule="evenodd" fill="#CFCFCF" d="M251.27,460.411c-60.683,0-109.903-1.48-109.903-3.303
				c0-1.826,49.22-3.306,109.903-3.306c60.673,0,109.888,1.479,109.888,3.306C361.158,458.931,311.942,460.411,251.27,460.411
				L251.27,460.411z"/>
			<path fill-rule="evenodd" clip-rule="evenodd" fill="#CECECE" d="M251.296,460.33c-59.6,0-107.942-1.448-107.942-3.233
				c0-1.787,48.342-3.235,107.942-3.235c59.59,0,107.927,1.448,107.927,3.235C359.222,458.882,310.885,460.33,251.296,460.33
				L251.296,460.33z"/>
			<path fill-rule="evenodd" clip-rule="evenodd" fill="#CDCDCD" d="M251.321,460.249c-58.517,0-105.981-1.416-105.981-3.162
				c0-1.748,47.464-3.164,105.981-3.164c58.506,0,105.965,1.416,105.965,3.164C357.287,458.833,309.828,460.249,251.321,460.249
				L251.321,460.249z"/>
			<path fill-rule="evenodd" clip-rule="evenodd" fill="#CCCCCC" d="M251.347,460.168c-57.434,0-104.02-1.385-104.02-3.091
				c0-1.709,46.585-3.094,104.02-3.094c57.423,0,104.004,1.384,104.004,3.094C355.351,458.784,308.77,460.168,251.347,460.168
				L251.347,460.168z"/>
			<path fill-rule="evenodd" clip-rule="evenodd" fill="#CBCBCB" d="M251.373,460.088c-56.352,0-102.058-1.353-102.058-3.02
				c0-1.67,45.707-3.023,102.058-3.023c56.34,0,102.043,1.352,102.043,3.023C353.415,458.735,307.713,460.088,251.373,460.088
				L251.373,460.088z"/>
			<path fill-rule="evenodd" clip-rule="evenodd" fill="#CACACA" d="M251.399,460.007c-55.269,0-100.097-1.321-100.097-2.949
				c0-1.631,44.828-2.952,100.097-2.952c55.257,0,100.081,1.321,100.081,2.952C351.48,458.686,306.656,460.007,251.399,460.007
				L251.399,460.007z"/>
			<path fill-rule="evenodd" clip-rule="evenodd" fill="#C9C9C9" d="M251.424,459.926c-54.186,0-98.136-1.29-98.136-2.878
				c0-1.592,43.95-2.881,98.136-2.881c54.174,0,98.12,1.289,98.12,2.881C349.544,458.637,305.598,459.926,251.424,459.926
				L251.424,459.926z"/>
			<path fill-rule="evenodd" clip-rule="evenodd" fill="#C8C8C8" d="M251.45,459.846c-53.103,0-96.174-1.258-96.174-2.807
				c0-1.553,43.071-2.811,96.174-2.811c53.091,0,96.159,1.257,96.159,2.811C347.609,458.588,304.541,459.846,251.45,459.846
				L251.45,459.846z"/>
			<path fill-rule="evenodd" clip-rule="evenodd" fill="#C7C7C7" d="M251.476,459.765c-52.02,0-94.213-1.226-94.213-2.737
				c0-1.514,42.193-2.74,94.213-2.74c52.008,0,94.197,1.226,94.197,2.74C345.673,458.539,303.484,459.765,251.476,459.765
				L251.476,459.765z"/>
			<path fill-rule="evenodd" clip-rule="evenodd" fill="#C6C6C6" d="M251.502,459.684c-50.937,0-92.252-1.194-92.252-2.666
				c0-1.475,41.315-2.669,92.252-2.669c50.925,0,92.236,1.194,92.236,2.669C343.738,458.49,302.427,459.684,251.502,459.684
				L251.502,459.684z"/>
			<path fill-rule="evenodd" clip-rule="evenodd" fill="#C5C5C5" d="M251.527,459.603c-49.854,0-90.29-1.163-90.29-2.595
				c0-1.436,40.436-2.599,90.29-2.599c49.842,0,90.275,1.162,90.275,2.599C341.802,458.441,301.369,459.603,251.527,459.603
				L251.527,459.603z"/>
			<path fill-rule="evenodd" clip-rule="evenodd" fill="#C4C4C4" d="M251.553,459.523c-48.771,0-88.329-1.131-88.329-2.524
				c0-1.397,39.558-2.528,88.329-2.528c48.759,0,88.313,1.131,88.313,2.528C339.867,458.392,300.312,459.523,251.553,459.523
				L251.553,459.523z"/>
			<path fill-rule="evenodd" clip-rule="evenodd" fill="#C3C3C3" d="M251.579,459.442c-47.689,0-86.368-1.099-86.368-2.453
				c0-1.358,38.679-2.457,86.368-2.457c47.676,0,86.352,1.099,86.352,2.457C337.931,458.343,299.255,459.442,251.579,459.442
				L251.579,459.442z"/>
			<path fill-rule="evenodd" clip-rule="evenodd" fill="#C2C2C2" d="M251.605,459.361c-46.606,0-84.407-1.068-84.407-2.382
				c0-1.319,37.801-2.386,84.407-2.386c46.593,0,84.391,1.067,84.391,2.386C335.995,458.294,298.197,459.361,251.605,459.361
				L251.605,459.361z"/>
			<path fill-rule="evenodd" clip-rule="evenodd" fill="#C1C1C1" d="M251.63,459.281c-45.523,0-82.445-1.036-82.445-2.311
				c0-1.28,36.922-2.316,82.445-2.316c45.509,0,82.429,1.035,82.429,2.316C334.06,458.245,297.14,459.281,251.63,459.281
				L251.63,459.281z"/>
			<path fill-rule="evenodd" clip-rule="evenodd" fill="#C0C0C0" d="M251.656,459.2c-44.44,0-80.484-1.004-80.484-2.241
				c0-1.241,36.044-2.245,80.484-2.245c44.426,0,80.468,1.004,80.468,2.245C332.124,458.196,296.083,459.2,251.656,459.2
				L251.656,459.2z"/>
			<path fill-rule="evenodd" clip-rule="evenodd" fill="#BFBFBF" d="M251.682,459.119c-43.357,0-78.523-0.972-78.523-2.17
				c0-1.202,35.166-2.174,78.523-2.174c43.343,0,78.507,0.972,78.507,2.174C330.189,458.147,295.025,459.119,251.682,459.119
				L251.682,459.119z"/>
			<path fill-rule="evenodd" clip-rule="evenodd" fill="#BEBEBE" d="M251.708,459.039c-42.274,0-76.561-0.941-76.561-2.099
				c0-1.163,34.287-2.104,76.561-2.104c42.26,0,76.545,0.94,76.545,2.104C328.253,458.098,293.968,459.039,251.708,459.039
				L251.708,459.039z"/>
			<path fill-rule="evenodd" clip-rule="evenodd" fill="#BDBDBD" d="M251.734,458.958c-41.191,0-74.6-0.909-74.6-2.028
				c0-1.124,33.409-2.033,74.6-2.033c41.177,0,74.584,0.909,74.584,2.033C326.318,458.049,292.911,458.958,251.734,458.958
				L251.734,458.958z"/>
			<path fill-rule="evenodd" clip-rule="evenodd" fill="#BCBCBC" d="M251.759,458.877c-40.108,0-72.639-0.877-72.639-1.957
				c0-1.085,32.53-1.962,72.639-1.962c40.094,0,72.623,0.877,72.623,1.962C324.382,458,291.853,458.877,251.759,458.877
				L251.759,458.877z"/>
			<path fill-rule="evenodd" clip-rule="evenodd" fill="#BBBBBB" d="M251.785,458.796c-39.025,0-70.677-0.845-70.677-1.886
				c0-1.046,31.652-1.891,70.677-1.891c39.011,0,70.661,0.845,70.661,1.891C322.447,457.951,290.796,458.796,251.785,458.796
				L251.785,458.796z"/>
			<path fill-rule="evenodd" clip-rule="evenodd" fill="#BABABA" d="M251.811,458.716c-37.943,0-68.716-0.814-68.716-1.815
				c0-1.007,30.774-1.821,68.716-1.821c37.928,0,68.7,0.814,68.7,1.821C320.511,457.902,289.739,458.716,251.811,458.716
				L251.811,458.716z"/>
			<path fill-rule="evenodd" clip-rule="evenodd" fill="#B9B9B9" d="M251.837,458.635c-36.86,0-66.755-0.782-66.755-1.745
				c0-0.968,29.895-1.75,66.755-1.75c36.845,0,66.739,0.782,66.739,1.75C318.575,457.853,288.681,458.635,251.837,458.635
				L251.837,458.635z"/>
			<path fill-rule="evenodd" clip-rule="evenodd" fill="#B8B8B8" d="M251.862,458.554c-35.777,0-64.794-0.75-64.794-1.674
				c0-0.929,29.017-1.679,64.794-1.679c35.762,0,64.778,0.75,64.778,1.679C316.64,457.804,287.624,458.554,251.862,458.554
				L251.862,458.554z"/>
			<path fill-rule="evenodd" clip-rule="evenodd" fill="#B7B7B7" d="M251.888,458.474c-34.694,0-62.832-0.719-62.832-1.603
				c0-0.89,28.138-1.609,62.832-1.609c34.679,0,62.816,0.719,62.816,1.609C314.704,457.755,286.567,458.474,251.888,458.474
				L251.888,458.474z"/>
			<path fill-rule="evenodd" clip-rule="evenodd" fill="#B6B6B6" d="M251.914,458.393c-33.611,0-60.871-0.687-60.871-1.532
				c0-0.851,27.26-1.538,60.871-1.538c33.596,0,60.855,0.687,60.855,1.538C312.769,457.706,285.509,458.393,251.914,458.393
				L251.914,458.393z"/>
			<path fill-rule="evenodd" clip-rule="evenodd" fill="#B5B5B5" d="M251.94,458.312c-32.528,0-58.91-0.655-58.91-1.461
				c0-0.812,26.381-1.467,58.91-1.467c32.512,0,58.894,0.655,58.894,1.467C310.833,457.657,284.452,458.312,251.94,458.312
				L251.94,458.312z"/>
			<path fill-rule="evenodd" clip-rule="evenodd" fill="#B4B4B4" d="M251.965,458.232c-31.445,0-56.948-0.623-56.948-1.39
				c0-0.773,25.503-1.397,56.948-1.397c31.429,0,56.932,0.623,56.932,1.397C308.898,457.608,283.395,458.232,251.965,458.232
				L251.965,458.232z"/>
			<path fill-rule="evenodd" clip-rule="evenodd" fill="#B3B3B3" d="M251.991,458.151c-30.362,0-54.987-0.592-54.987-1.32
				c0-0.734,24.625-1.326,54.987-1.326c30.346,0,54.971,0.592,54.971,1.326C306.962,457.559,282.337,458.151,251.991,458.151
				L251.991,458.151z"/>
		</g>
	</g>
	<path fill="#FF994F" d="M287.091,404.786c-0.484-8.056-0.539-16.306-2.43-24.072c-3.165-12.999-10.695-25.253-28.735-27.918
		c7.57-2.525,13.244-9.649,13.546-18.049c0.383-10.661-8.514-19.89-19.305-20.025c-10.71-0.134-19.419,8.275-19.646,18.968
		c-0.188,8.894,5.329,16.429,13.184,19.074c-10.184,1.601-18.876,7.419-24.037,17.089c-4.957,9.287-6.988,19.339-6.76,29.832
		c0.059,2.726,0.151,5.526,0.813,8.145c0.954,3.777,4.805,5.968,8.594,5.403c3.785-0.565,5.491-2.825,5.508-7.366
		c0.015-3.989-0.357-8.016,0.077-11.956c0.522-4.736,1.716-9.398,2.619-14.092c0.336,0.082,0.673-0.086,1.009-0.004
		c0,12.145,0.02,25.185,0.025,36.185h36.382c-0.047-3-0.09-7.03-0.118-10.67c-0.071-9.171-0.015-18.219-0.015-27.39
		c0.287-0.068,0.575-0.073,0.862-0.14c0.71,2.184,1.837,4.358,2.055,6.589c0.721,7.356,1.184,14.757,1.607,22.138
		c0.296,5.164,4.091,7.919,9.043,6.355C285.332,411.631,287.323,408.65,287.091,404.786z"/>
</g>
<g>
	<path fill="#FF994F" d="M113.571,253.258c0-9.963,0-19.536,0-29.767c-10.486,3.056-20.349,6.147-30.343,8.729
		c-3.646,0.942-7.792,1.557-11.388,0.798c-14.332-3.024-19.83-18.736-10.99-31.034c15.757-21.921,31.678-43.724,47.537-65.572
		c2.175-2.997,4.021-6.348,6.654-8.875c5.13-4.923,11.524-6.997,18.693-6.971c21.731,0.078,43.463,0.053,65.195,0.018
		c10.942-0.018,18.245,5.282,24.442,14.188c15.77,22.666,32.35,44.766,48.477,67.186c8.848,12.301,3.379,27.983-10.944,31.062
		c-3.46,0.744-7.445,0.237-10.949-0.646c-8.709-2.193-17.278-4.94-25.908-7.448c-1.445-0.42-2.912-0.76-4.885-1.271
		c0,10.042,0,19.616,0,29.602C183.934,253.258,149.134,253.258,113.571,253.258z M204.371,220.064
		c-14.067-7.88-17.837-15.087-13.992-25.72c3.928-10.863,10.819-13.406,28.199-10.26c0-13.073,0-26.096,0-39.497
		c-1.817,0.543-3.146,0.911-4.457,1.337c-14.595,4.74-29.152,9.598-43.812,14.126c-2.448,0.756-5.535,0.734-7.988-0.025
		c-14.806-4.582-29.511-9.489-44.257-14.264c-1.245-0.403-2.547-0.629-3.967-0.973c0,13.412,0,26.337,0,39.332
		c14.973-2.916,23.174-0.855,26.851,6.872c2.661,5.591,4.731,11.795,0.93,17.3c-3.243,4.698-8.004,8.348-11.94,12.307
		c10.849,3.603,22.451,7.501,34.096,11.262c1.35,0.436,3.073,0.5,4.409,0.07C180.234,228.131,191.976,224.181,204.371,220.064z"/>
	<path fill="#FF994F" d="M211.341,79.212c-0.732,25.049-20.575,44.043-45.393,43.452c-24.382-0.581-43.892-20.917-43.275-45.108
		c0.639-25.094,20.956-44.174,46.141-43.333C193.028,35.03,212.044,55.147,211.341,79.212z"/>
	<path fill="#FFFFFF" d="M204.371,220.064c-12.394,4.117-24.136,8.067-35.927,11.866c-1.335,0.43-3.059,0.366-4.409-0.07
		c-11.646-3.76-23.247-7.659-34.096-11.262c3.936-3.959,8.696-7.609,11.94-12.307c3.801-5.505,1.73-11.709-0.93-17.3
		c-3.677-7.728-11.878-9.788-26.851-6.872c0-12.995,0-25.92,0-39.332c1.42,0.344,2.722,0.57,3.967,0.973
		c14.746,4.775,29.451,9.682,44.257,14.264c2.453,0.759,5.54,0.781,7.988,0.025c14.66-4.528,29.217-9.387,43.812-14.126
		c1.311-0.426,2.64-0.794,4.457-1.337c0,13.401,0,26.423,0,39.497c-17.38-3.146-24.27-0.603-28.199,10.26
		C186.534,204.977,190.304,212.185,204.371,220.064z"/>
</g>
<g>
	<path fill="#FF994F" d="M395.875,140.862h47.189v43.896h-47.189v47.463h-43.896v-47.463H304.79v-43.896h47.188V93.4h43.896V140.862
		z"/>
</g>
</svg>
