<?xml version="1.0" encoding="utf-8"?>
<!-- Generator: Adobe Illustrator 17.0.0, SVG Export Plug-In . SVG Version: 6.00 Build 0)  -->
<!DOCTYPE svg PUBLIC "-//W3C//DTD SVG 1.1//EN" "http://www.w3.org/Graphics/SVG/1.1/DTD/svg11.dtd">
<svg version="1.1" id="Capa_1" xmlns="http://www.w3.org/2000/svg" xmlns:xlink="http://www.w3.org/1999/xlink" x="0px" y="0px"
	 width="500px" height="500px" viewBox="0 0 500 500" enable-background="new 0 0 500 500" xml:space="preserve">
<g>
	<g opacity="0.9">
		<path fill-rule="evenodd" clip-rule="evenodd" fill="#FFFFFF" d="M250.007,336.776C136.263,336.776,44,333.742,44,330.001
			c0-3.738,92.263-6.77,206.007-6.77c113.744,0,205.993,3.033,205.993,6.77C456,333.742,363.751,336.776,250.007,336.776
			L250.007,336.776z"/>
		<path fill-rule="evenodd" clip-rule="evenodd" fill="#FEFEFE" d="M250.033,336.695c-112.661,0-204.046-3.002-204.046-6.704
			c0-3.699,91.384-6.7,204.046-6.7c112.661,0,204.032,3.001,204.032,6.7C454.064,333.693,362.694,336.695,250.033,336.695
			L250.033,336.695z"/>
		<path fill-rule="evenodd" clip-rule="evenodd" fill="#FDFDFD" d="M250.059,336.614c-111.579,0-202.085-2.971-202.085-6.633
			c0-3.66,90.506-6.629,202.085-6.629c111.578,0,202.07,2.969,202.07,6.629C452.129,333.644,361.636,336.614,250.059,336.614
			L250.059,336.614z"/>
		<path fill-rule="evenodd" clip-rule="evenodd" fill="#FCFCFC" d="M250.084,336.534c-110.496,0-200.123-2.939-200.123-6.563
			c0-3.621,89.628-6.558,200.123-6.558c110.495,0,200.109,2.937,200.109,6.558C450.193,333.595,360.579,336.534,250.084,336.534
			L250.084,336.534z"/>
		<path fill-rule="evenodd" clip-rule="evenodd" fill="#FBFBFB" d="M250.11,336.453c-109.413,0-198.162-2.907-198.162-6.492
			c0-3.582,88.749-6.487,198.162-6.487c109.412,0,198.148,2.906,198.148,6.487C448.258,333.546,359.522,336.453,250.11,336.453
			L250.11,336.453z"/>
		<path fill-rule="evenodd" clip-rule="evenodd" fill="#FAFAFA" d="M250.136,336.372c-108.33,0-196.201-2.876-196.201-6.421
			c0-3.543,87.871-6.417,196.201-6.417c108.328,0,196.186,2.874,196.186,6.417C446.322,333.497,358.464,336.372,250.136,336.372
			L250.136,336.372z"/>
		<path fill-rule="evenodd" clip-rule="evenodd" fill="#F9F9F9" d="M250.162,336.292c-107.247,0-194.239-2.844-194.239-6.35
			c0-3.504,86.992-6.346,194.239-6.346c107.245,0,194.225,2.842,194.225,6.346C444.387,333.448,357.407,336.292,250.162,336.292
			L250.162,336.292z"/>
		<path fill-rule="evenodd" clip-rule="evenodd" fill="#F8F8F8" d="M250.187,336.211c-106.164,0-192.278-2.812-192.278-6.279
			c0-3.465,86.114-6.275,192.278-6.275c106.162,0,192.264,2.811,192.264,6.275C442.451,333.399,356.35,336.211,250.187,336.211
			L250.187,336.211z"/>
		<path fill-rule="evenodd" clip-rule="evenodd" fill="#F7F7F7" d="M250.213,336.13c-105.081,0-190.317-2.78-190.317-6.208
			c0-3.426,85.235-6.205,190.317-6.205c105.079,0,190.302,2.779,190.302,6.205C440.516,333.35,355.292,336.13,250.213,336.13
			L250.213,336.13z"/>
		<path fill-rule="evenodd" clip-rule="evenodd" fill="#F6F6F6" d="M250.239,336.049c-103.998,0-188.355-2.749-188.355-6.137
			c0-3.387,84.357-6.134,188.355-6.134c103.996,0,188.341,2.747,188.341,6.134C438.58,333.301,354.235,336.049,250.239,336.049
			L250.239,336.049z"/>
		<path fill-rule="evenodd" clip-rule="evenodd" fill="#F5F5F5" d="M250.265,335.969c-102.916,0-186.394-2.717-186.394-6.067
			c0-3.348,83.479-6.063,186.394-6.063c102.913,0,186.38,2.716,186.38,6.063C436.644,333.252,353.178,335.969,250.265,335.969
			L250.265,335.969z"/>
		<path fill-rule="evenodd" clip-rule="evenodd" fill="#F4F4F4" d="M250.291,335.888c-101.833,0-184.433-2.685-184.433-5.996
			c0-3.309,82.6-5.992,184.433-5.992c101.83,0,184.418,2.684,184.418,5.992C434.709,333.203,352.12,335.888,250.291,335.888
			L250.291,335.888z"/>
		<path fill-rule="evenodd" clip-rule="evenodd" fill="#F3F3F3" d="M250.316,335.807c-100.75,0-182.472-2.654-182.472-5.925
			c0-3.27,81.722-5.922,182.472-5.922c100.747,0,182.457,2.652,182.457,5.922C432.773,333.154,351.063,335.807,250.316,335.807
			L250.316,335.807z"/>
		<path fill-rule="evenodd" clip-rule="evenodd" fill="#F2F2F2" d="M250.342,335.727c-99.667,0-180.51-2.622-180.51-5.854
			c0-3.231,80.843-5.851,180.51-5.851c99.664,0,180.496,2.62,180.496,5.851C430.838,333.105,350.006,335.727,250.342,335.727
			L250.342,335.727z"/>
		<path fill-rule="evenodd" clip-rule="evenodd" fill="#F1F1F1" d="M250.368,335.646c-98.584,0-178.549-2.59-178.549-5.783
			c0-3.192,79.965-5.78,178.549-5.78c98.581,0,178.534,2.589,178.534,5.78C428.902,333.056,348.949,335.646,250.368,335.646
			L250.368,335.646z"/>
		<path fill-rule="evenodd" clip-rule="evenodd" fill="#F0F0F0" d="M250.394,335.565c-97.501,0-176.588-2.558-176.588-5.712
			c0-3.153,79.087-5.71,176.588-5.71c97.498,0,176.573,2.557,176.573,5.71C426.967,333.007,347.891,335.565,250.394,335.565
			L250.394,335.565z"/>
		<path fill-rule="evenodd" clip-rule="evenodd" fill="#EFEFEF" d="M250.419,335.485c-96.418,0-174.626-2.527-174.626-5.641
			c0-3.114,78.208-5.639,174.626-5.639c96.414,0,174.612,2.525,174.612,5.639C425.031,332.958,346.834,335.485,250.419,335.485
			L250.419,335.485z"/>
		<path fill-rule="evenodd" clip-rule="evenodd" fill="#EEEEEE" d="M250.445,335.404c-95.335,0-172.665-2.495-172.665-5.571
			c0-3.075,77.33-5.568,172.665-5.568c95.331,0,172.65,2.494,172.65,5.568C423.096,332.909,345.777,335.404,250.445,335.404
			L250.445,335.404z"/>
		<path fill-rule="evenodd" clip-rule="evenodd" fill="#EDEDED" d="M250.471,335.323c-94.252,0-170.704-2.463-170.704-5.5
			c0-3.036,76.451-5.498,170.704-5.498c94.248,0,170.689,2.462,170.689,5.498C421.16,332.86,344.719,335.323,250.471,335.323
			L250.471,335.323z"/>
		<path fill-rule="evenodd" clip-rule="evenodd" fill="#ECECEC" d="M250.497,335.242c-93.17,0-168.742-2.432-168.742-5.429
			c0-2.997,75.573-5.427,168.742-5.427c93.165,0,168.728,2.43,168.728,5.427C419.224,332.811,343.662,335.242,250.497,335.242
			L250.497,335.242z"/>
		<path fill-rule="evenodd" clip-rule="evenodd" fill="#EBEBEB" d="M250.522,335.162c-92.087,0-166.781-2.4-166.781-5.358
			c0-2.958,74.694-5.356,166.781-5.356c92.082,0,166.766,2.399,166.766,5.356C417.289,332.762,342.605,335.162,250.522,335.162
			L250.522,335.162z"/>
		<path fill-rule="evenodd" clip-rule="evenodd" fill="#EAEAEA" d="M250.548,335.081c-91.004,0-164.82-2.368-164.82-5.287
			c0-2.919,73.816-5.285,164.82-5.285c90.999,0,164.805,2.367,164.805,5.285C415.353,332.713,341.547,335.081,250.548,335.081
			L250.548,335.081z"/>
		<path fill-rule="evenodd" clip-rule="evenodd" fill="#E9E9E9" d="M250.574,335c-89.921,0-162.859-2.336-162.859-5.216
			c0-2.88,72.938-5.215,162.859-5.215c89.916,0,162.844,2.335,162.844,5.215C413.418,332.664,340.49,335,250.574,335L250.574,335z"
			/>
		<path fill-rule="evenodd" clip-rule="evenodd" fill="#E8E8E8" d="M250.6,334.92c-88.838,0-160.897-2.305-160.897-5.145
			c0-2.841,72.059-5.144,160.897-5.144c88.833,0,160.882,2.303,160.882,5.144C411.482,332.615,339.433,334.92,250.6,334.92
			L250.6,334.92z"/>
		<path fill-rule="evenodd" clip-rule="evenodd" fill="#E7E7E7" d="M250.626,334.839c-87.755,0-158.936-2.273-158.936-5.075
			c0-2.802,71.181-5.073,158.936-5.073c87.75,0,158.921,2.272,158.921,5.073C409.547,332.566,338.375,334.839,250.626,334.839
			L250.626,334.839z"/>
		<path fill-rule="evenodd" clip-rule="evenodd" fill="#E6E6E6" d="M250.651,334.758c-86.672,0-156.975-2.241-156.975-5.004
			c0-2.763,70.302-5.003,156.975-5.003c86.667,0,156.96,2.24,156.96,5.003C407.611,332.517,337.318,334.758,250.651,334.758
			L250.651,334.758z"/>
		<path fill-rule="evenodd" clip-rule="evenodd" fill="#E5E5E5" d="M250.677,334.678c-85.589,0-155.013-2.209-155.013-4.933
			c0-2.724,69.424-4.932,155.013-4.932c85.584,0,154.998,2.208,154.998,4.932C405.676,332.468,336.261,334.678,250.677,334.678
			L250.677,334.678z"/>
		<path fill-rule="evenodd" clip-rule="evenodd" fill="#E4E4E4" d="M250.703,334.597c-84.507,0-153.052-2.178-153.052-4.862
			c0-2.685,68.546-4.861,153.052-4.861c84.501,0,153.037,2.177,153.037,4.861C403.74,332.419,335.203,334.597,250.703,334.597
			L250.703,334.597z"/>
		<path fill-rule="evenodd" clip-rule="evenodd" fill="#E3E3E3" d="M250.729,334.516c-83.424,0-151.091-2.146-151.091-4.791
			c0-2.646,67.667-4.79,151.091-4.79c83.417,0,151.076,2.145,151.076,4.79C401.804,332.37,334.146,334.516,250.729,334.516
			L250.729,334.516z"/>
		<path fill-rule="evenodd" clip-rule="evenodd" fill="#E2E2E2" d="M250.754,334.435c-82.341,0-149.129-2.114-149.129-4.72
			c0-2.607,66.789-4.72,149.129-4.72c82.334,0,149.114,2.113,149.114,4.72C399.869,332.321,333.089,334.435,250.754,334.435
			L250.754,334.435z"/>
		<path fill-rule="evenodd" clip-rule="evenodd" fill="#E1E1E1" d="M250.78,334.355c-81.258,0-147.168-2.083-147.168-4.65
			c0-2.568,65.91-4.649,147.168-4.649c81.251,0,147.153,2.082,147.153,4.649C397.933,332.272,332.031,334.355,250.78,334.355
			L250.78,334.355z"/>
		<path fill-rule="evenodd" clip-rule="evenodd" fill="#E0E0E0" d="M250.806,334.274c-80.175,0-145.207-2.051-145.207-4.579
			c0-2.529,65.032-4.578,145.207-4.578c80.168,0,145.192,2.05,145.192,4.578C395.998,332.223,330.974,334.274,250.806,334.274
			L250.806,334.274z"/>
		<path fill-rule="evenodd" clip-rule="evenodd" fill="#DFDFDF" d="M250.832,334.193c-79.092,0-143.246-2.019-143.246-4.508
			c0-2.489,64.153-4.508,143.246-4.508c79.085,0,143.231,2.018,143.231,4.508C394.062,332.174,329.917,334.193,250.832,334.193
			L250.832,334.193z"/>
		<path fill-rule="evenodd" clip-rule="evenodd" fill="#DEDEDE" d="M250.857,334.113c-78.009,0-141.284-1.987-141.284-4.437
			c0-2.45,63.275-4.437,141.284-4.437c78.002,0,141.269,1.986,141.269,4.437C392.127,332.125,328.859,334.113,250.857,334.113
			L250.857,334.113z"/>
		<path fill-rule="evenodd" clip-rule="evenodd" fill="#DDDDDD" d="M250.883,334.032c-76.926,0-139.323-1.956-139.323-4.366
			c0-2.411,62.397-4.366,139.323-4.366c76.919,0,139.308,1.955,139.308,4.366C390.191,332.076,327.802,334.032,250.883,334.032
			L250.883,334.032z"/>
		<path fill-rule="evenodd" clip-rule="evenodd" fill="#DCDCDC" d="M250.909,333.951c-75.843,0-137.362-1.924-137.362-4.295
			c0-2.372,61.518-4.296,137.362-4.296c75.836,0,137.347,1.923,137.347,4.296C388.256,332.027,326.745,333.951,250.909,333.951
			L250.909,333.951z"/>
		<path fill-rule="evenodd" clip-rule="evenodd" fill="#DBDBDB" d="M250.935,333.87c-74.761,0-135.4-1.892-135.4-4.224
			c0-2.333,60.64-4.225,135.4-4.225c74.753,0,135.385,1.891,135.385,4.225C386.32,331.978,325.688,333.87,250.935,333.87
			L250.935,333.87z"/>
		<path fill-rule="evenodd" clip-rule="evenodd" fill="#DADADA" d="M250.961,333.79c-73.678,0-133.439-1.861-133.439-4.154
			c0-2.294,59.761-4.154,133.439-4.154c73.67,0,133.424,1.86,133.424,4.154C384.384,331.929,324.63,333.79,250.961,333.79
			L250.961,333.79z"/>
		<path fill-rule="evenodd" clip-rule="evenodd" fill="#D9D9D9" d="M250.986,333.709c-72.595,0-131.478-1.829-131.478-4.083
			c0-2.255,58.883-4.083,131.478-4.083c72.587,0,131.463,1.828,131.463,4.083C382.449,331.88,323.573,333.709,250.986,333.709
			L250.986,333.709z"/>
		<path fill-rule="evenodd" clip-rule="evenodd" fill="#D9D9D9" d="M251.012,333.628c-71.512,0-129.516-1.797-129.516-4.012
			c0-2.216,58.005-4.013,129.516-4.013c71.504,0,129.501,1.796,129.501,4.013C380.513,331.831,322.516,333.628,251.012,333.628
			L251.012,333.628z"/>
		<path fill-rule="evenodd" clip-rule="evenodd" fill="#D8D8D8" d="M251.038,333.548c-70.429,0-127.555-1.765-127.555-3.941
			c0-2.177,57.126-3.942,127.555-3.942c70.42,0,127.54,1.765,127.54,3.942C378.578,331.782,321.458,333.548,251.038,333.548
			L251.038,333.548z"/>
		<path fill-rule="evenodd" clip-rule="evenodd" fill="#D7D7D7" d="M251.064,333.467c-69.346,0-125.594-1.734-125.594-3.87
			c0-2.138,56.248-3.871,125.594-3.871c69.337,0,125.579,1.733,125.579,3.871C376.642,331.733,320.401,333.467,251.064,333.467
			L251.064,333.467z"/>
		<path fill-rule="evenodd" clip-rule="evenodd" fill="#D6D6D6" d="M251.089,333.386c-68.263,0-123.633-1.702-123.633-3.799
			c0-2.099,55.369-3.801,123.633-3.801c68.254,0,123.617,1.701,123.617,3.801C374.707,331.684,319.344,333.386,251.089,333.386
			L251.089,333.386z"/>
		<path fill-rule="evenodd" clip-rule="evenodd" fill="#D5D5D5" d="M251.115,333.306c-67.18,0-121.671-1.67-121.671-3.728
			c0-2.06,54.491-3.73,121.671-3.73c67.171,0,121.656,1.669,121.656,3.73C372.771,331.635,318.286,333.306,251.115,333.306
			L251.115,333.306z"/>
		<path fill-rule="evenodd" clip-rule="evenodd" fill="#D4D4D4" d="M251.141,333.225c-66.098,0-119.71-1.638-119.71-3.658
			c0-2.021,53.612-3.659,119.71-3.659c66.088,0,119.695,1.638,119.695,3.659C370.836,331.586,317.229,333.225,251.141,333.225
			L251.141,333.225z"/>
		<path fill-rule="evenodd" clip-rule="evenodd" fill="#D3D3D3" d="M251.167,333.144c-65.015,0-117.749-1.607-117.749-3.587
			c0-1.982,52.734-3.588,117.749-3.588c65.005,0,117.733,1.606,117.733,3.588C368.9,331.537,316.172,333.144,251.167,333.144
			L251.167,333.144z"/>
		<path fill-rule="evenodd" clip-rule="evenodd" fill="#D2D2D2" d="M251.192,333.063c-63.932,0-115.787-1.575-115.787-3.516
			c0-1.943,51.856-3.518,115.787-3.518c63.922,0,115.772,1.574,115.772,3.518C366.964,331.488,315.114,333.063,251.192,333.063
			L251.192,333.063z"/>
		<path fill-rule="evenodd" clip-rule="evenodd" fill="#D1D1D1" d="M251.218,332.983c-62.849,0-113.826-1.543-113.826-3.445
			c0-1.904,50.977-3.447,113.826-3.447c62.839,0,113.811,1.543,113.811,3.447C365.029,331.439,314.057,332.983,251.218,332.983
			L251.218,332.983z"/>
		<path fill-rule="evenodd" clip-rule="evenodd" fill="#D0D0D0" d="M251.244,332.902c-61.766,0-111.865-1.512-111.865-3.374
			c0-1.865,50.099-3.376,111.865-3.376c61.756,0,111.849,1.511,111.849,3.376C363.093,331.39,313,332.902,251.244,332.902
			L251.244,332.902z"/>
		<path fill-rule="evenodd" clip-rule="evenodd" fill="#CFCFCF" d="M251.27,332.821c-60.683,0-109.903-1.48-109.903-3.303
			c0-1.826,49.22-3.306,109.903-3.306c60.673,0,109.888,1.479,109.888,3.306C361.158,331.341,311.942,332.821,251.27,332.821
			L251.27,332.821z"/>
		<path fill-rule="evenodd" clip-rule="evenodd" fill="#CECECE" d="M251.296,332.741c-59.6,0-107.942-1.448-107.942-3.232
			c0-1.787,48.342-3.235,107.942-3.235c59.59,0,107.927,1.448,107.927,3.235C359.222,331.292,310.885,332.741,251.296,332.741
			L251.296,332.741z"/>
		<path fill-rule="evenodd" clip-rule="evenodd" fill="#CDCDCD" d="M251.321,332.66c-58.517,0-105.981-1.416-105.981-3.162
			c0-1.748,47.464-3.164,105.981-3.164c58.506,0,105.965,1.416,105.965,3.164C357.287,331.243,309.828,332.66,251.321,332.66
			L251.321,332.66z"/>
		<path fill-rule="evenodd" clip-rule="evenodd" fill="#CCCCCC" d="M251.347,332.579c-57.434,0-104.02-1.385-104.02-3.091
			c0-1.709,46.585-3.094,104.02-3.094c57.423,0,104.004,1.384,104.004,3.094C355.351,331.194,308.77,332.579,251.347,332.579
			L251.347,332.579z"/>
		<path fill-rule="evenodd" clip-rule="evenodd" fill="#CBCBCB" d="M251.373,332.498c-56.352,0-102.058-1.353-102.058-3.02
			c0-1.67,45.707-3.023,102.058-3.023c56.34,0,102.043,1.352,102.043,3.023C353.415,331.146,307.713,332.498,251.373,332.498
			L251.373,332.498z"/>
		<path fill-rule="evenodd" clip-rule="evenodd" fill="#CACACA" d="M251.399,332.418c-55.269,0-100.097-1.321-100.097-2.949
			c0-1.631,44.828-2.952,100.097-2.952c55.257,0,100.081,1.321,100.081,2.952C351.48,331.096,306.656,332.418,251.399,332.418
			L251.399,332.418z"/>
		<path fill-rule="evenodd" clip-rule="evenodd" fill="#C9C9C9" d="M251.424,332.337c-54.186,0-98.136-1.29-98.136-2.878
			c0-1.592,43.95-2.881,98.136-2.881c54.174,0,98.12,1.289,98.12,2.881C349.544,331.048,305.598,332.337,251.424,332.337
			L251.424,332.337z"/>
		<path fill-rule="evenodd" clip-rule="evenodd" fill="#C8C8C8" d="M251.45,332.256c-53.103,0-96.174-1.258-96.174-2.807
			c0-1.553,43.071-2.811,96.174-2.811c53.091,0,96.159,1.257,96.159,2.811C347.609,330.999,304.541,332.256,251.45,332.256
			L251.45,332.256z"/>
		<path fill-rule="evenodd" clip-rule="evenodd" fill="#C7C7C7" d="M251.476,332.176c-52.02,0-94.213-1.226-94.213-2.737
			c0-1.514,42.193-2.74,94.213-2.74c52.008,0,94.197,1.226,94.197,2.74C345.673,330.95,303.484,332.176,251.476,332.176
			L251.476,332.176z"/>
		<path fill-rule="evenodd" clip-rule="evenodd" fill="#C6C6C6" d="M251.502,332.095c-50.937,0-92.252-1.194-92.252-2.666
			c0-1.475,41.315-2.669,92.252-2.669c50.925,0,92.236,1.194,92.236,2.669C343.738,330.901,302.427,332.095,251.502,332.095
			L251.502,332.095z"/>
		<path fill-rule="evenodd" clip-rule="evenodd" fill="#C5C5C5" d="M251.527,332.014c-49.854,0-90.29-1.163-90.29-2.595
			c0-1.436,40.436-2.599,90.29-2.599c49.842,0,90.275,1.162,90.275,2.599C341.802,330.852,301.369,332.014,251.527,332.014
			L251.527,332.014z"/>
		<path fill-rule="evenodd" clip-rule="evenodd" fill="#C4C4C4" d="M251.553,331.934c-48.771,0-88.329-1.131-88.329-2.524
			c0-1.397,39.558-2.528,88.329-2.528c48.759,0,88.313,1.131,88.313,2.528C339.867,330.803,300.312,331.934,251.553,331.934
			L251.553,331.934z"/>
		<path fill-rule="evenodd" clip-rule="evenodd" fill="#C3C3C3" d="M251.579,331.853c-47.689,0-86.368-1.099-86.368-2.453
			c0-1.358,38.679-2.457,86.368-2.457c47.676,0,86.352,1.099,86.352,2.457C337.931,330.754,299.255,331.853,251.579,331.853
			L251.579,331.853z"/>
		<path fill-rule="evenodd" clip-rule="evenodd" fill="#C2C2C2" d="M251.605,331.772c-46.606,0-84.407-1.068-84.407-2.382
			c0-1.319,37.801-2.386,84.407-2.386c46.593,0,84.391,1.067,84.391,2.386C335.995,330.705,298.197,331.772,251.605,331.772
			L251.605,331.772z"/>
		<path fill-rule="evenodd" clip-rule="evenodd" fill="#C1C1C1" d="M251.63,331.691c-45.523,0-82.445-1.036-82.445-2.311
			c0-1.28,36.922-2.316,82.445-2.316c45.509,0,82.429,1.035,82.429,2.316C334.06,330.656,297.14,331.691,251.63,331.691
			L251.63,331.691z"/>
		<path fill-rule="evenodd" clip-rule="evenodd" fill="#C0C0C0" d="M251.656,331.611c-44.44,0-80.484-1.004-80.484-2.241
			c0-1.241,36.044-2.245,80.484-2.245c44.426,0,80.468,1.004,80.468,2.245C332.124,330.607,296.083,331.611,251.656,331.611
			L251.656,331.611z"/>
		<path fill-rule="evenodd" clip-rule="evenodd" fill="#BFBFBF" d="M251.682,331.53c-43.357,0-78.523-0.972-78.523-2.17
			c0-1.202,35.166-2.174,78.523-2.174c43.343,0,78.507,0.972,78.507,2.174C330.189,330.558,295.025,331.53,251.682,331.53
			L251.682,331.53z"/>
		<path fill-rule="evenodd" clip-rule="evenodd" fill="#BEBEBE" d="M251.708,331.449c-42.274,0-76.561-0.941-76.561-2.099
			c0-1.163,34.287-2.104,76.561-2.104c42.26,0,76.545,0.94,76.545,2.104C328.253,330.509,293.968,331.449,251.708,331.449
			L251.708,331.449z"/>
		<path fill-rule="evenodd" clip-rule="evenodd" fill="#BDBDBD" d="M251.734,331.369c-41.191,0-74.6-0.909-74.6-2.028
			c0-1.124,33.409-2.033,74.6-2.033c41.177,0,74.584,0.909,74.584,2.033C326.318,330.46,292.911,331.369,251.734,331.369
			L251.734,331.369z"/>
		<path fill-rule="evenodd" clip-rule="evenodd" fill="#BCBCBC" d="M251.759,331.288c-40.108,0-72.639-0.877-72.639-1.957
			c0-1.085,32.53-1.962,72.639-1.962c40.094,0,72.623,0.877,72.623,1.962C324.382,330.411,291.853,331.288,251.759,331.288
			L251.759,331.288z"/>
		<path fill-rule="evenodd" clip-rule="evenodd" fill="#BBBBBB" d="M251.785,331.207c-39.025,0-70.677-0.845-70.677-1.886
			c0-1.046,31.652-1.891,70.677-1.891c39.011,0,70.661,0.845,70.661,1.891C322.447,330.362,290.796,331.207,251.785,331.207
			L251.785,331.207z"/>
		<path fill-rule="evenodd" clip-rule="evenodd" fill="#BABABA" d="M251.811,331.126c-37.943,0-68.716-0.814-68.716-1.815
			c0-1.007,30.774-1.821,68.716-1.821c37.928,0,68.7,0.814,68.7,1.821C320.511,330.313,289.739,331.126,251.811,331.126
			L251.811,331.126z"/>
		<path fill-rule="evenodd" clip-rule="evenodd" fill="#B9B9B9" d="M251.837,331.046c-36.86,0-66.755-0.782-66.755-1.745
			c0-0.968,29.895-1.75,66.755-1.75c36.845,0,66.739,0.782,66.739,1.75C318.575,330.264,288.681,331.046,251.837,331.046
			L251.837,331.046z"/>
		<path fill-rule="evenodd" clip-rule="evenodd" fill="#B8B8B8" d="M251.862,330.965c-35.777,0-64.794-0.75-64.794-1.674
			c0-0.929,29.017-1.679,64.794-1.679c35.762,0,64.778,0.75,64.778,1.679C316.64,330.215,287.624,330.965,251.862,330.965
			L251.862,330.965z"/>
		<path fill-rule="evenodd" clip-rule="evenodd" fill="#B7B7B7" d="M251.888,330.884c-34.694,0-62.832-0.719-62.832-1.603
			c0-0.89,28.138-1.609,62.832-1.609c34.679,0,62.816,0.719,62.816,1.609C314.704,330.166,286.567,330.884,251.888,330.884
			L251.888,330.884z"/>
		<path fill-rule="evenodd" clip-rule="evenodd" fill="#B6B6B6" d="M251.914,330.804c-33.611,0-60.871-0.687-60.871-1.532
			c0-0.851,27.26-1.538,60.871-1.538c33.596,0,60.855,0.687,60.855,1.538C312.769,330.117,285.509,330.804,251.914,330.804
			L251.914,330.804z"/>
		<path fill-rule="evenodd" clip-rule="evenodd" fill="#B5B5B5" d="M251.94,330.723c-32.528,0-58.91-0.655-58.91-1.461
			c0-0.812,26.381-1.467,58.91-1.467c32.512,0,58.894,0.655,58.894,1.467C310.833,330.068,284.452,330.723,251.94,330.723
			L251.94,330.723z"/>
		<path fill-rule="evenodd" clip-rule="evenodd" fill="#B4B4B4" d="M251.965,330.642c-31.445,0-56.948-0.623-56.948-1.39
			c0-0.773,25.503-1.397,56.948-1.397c31.429,0,56.932,0.623,56.932,1.397C308.898,330.019,283.395,330.642,251.965,330.642
			L251.965,330.642z"/>
		<path fill-rule="evenodd" clip-rule="evenodd" fill="#B3B3B3" d="M251.991,330.562c-30.362,0-54.987-0.592-54.987-1.32
			c0-0.734,24.625-1.326,54.987-1.326c30.346,0,54.971,0.592,54.971,1.326C306.962,329.97,282.337,330.562,251.991,330.562
			L251.991,330.562z"/>
	</g>
</g>
<g>
	<path fill="#FF994F" d="M123.422,173.386c-41.312,0-74.922,33.61-74.922,74.922s33.61,74.922,74.922,74.922
		c19.373,0,37.051-7.391,50.365-19.501c-11.368-15.563-18.1-34.716-18.1-55.421s6.732-39.859,18.1-55.421
		C160.474,180.777,142.795,173.386,123.422,173.386z"/>
	<path fill="#FF994F" d="M249.865,173.386c-19.373,0-37.051,7.391-50.365,19.501c-2.407,2.19-4.659,4.545-6.765,7.027
		c-2.213,2.609-4.247,5.37-6.091,8.266c-7.396,11.61-11.701,25.372-11.701,40.128c0,14.756,4.305,28.518,11.701,40.128
		c1.845,2.896,3.878,5.658,6.091,8.267c2.106,2.482,4.358,4.837,6.765,7.027c13.314,12.11,30.992,19.501,50.365,19.501
		s37.051-7.391,50.365-19.501c-11.368-15.563-18.1-34.716-18.1-55.421s6.732-39.859,18.1-55.421
		C286.917,180.777,269.238,173.386,249.865,173.386z"/>
	<path fill="#FF994F" d="M376.308,173.386c-19.372,0-37.051,7.391-50.365,19.501c-2.407,2.19-4.659,4.545-6.765,7.027
		c-2.213,2.609-4.247,5.37-6.091,8.266c-7.396,11.61-11.701,25.372-11.701,40.128c0,14.756,4.305,28.518,11.701,40.128
		c1.845,2.896,3.878,5.658,6.091,8.267c2.106,2.482,4.358,4.837,6.765,7.027c13.314,12.11,30.993,19.501,50.365,19.501
		c41.312,0,74.922-33.61,74.922-74.922S417.62,173.386,376.308,173.386z"/>
</g>
<path fill="#FFFFFF" d="M99.28,218.197c-0.984-0.808-2.081-1.573-3.252-2.041c-4.189-1.671-8.504-0.248-11.149,3.529
	c-2.448,3.497-2.442,8.192,0.754,11.33c3.582,3.517,7.697,6.49,11.581,9.7c-0.147,0.302-0.294,0.604-0.441,0.906
	c-0.776-0.041,0.217,0.024-0.556-0.052l-13.043,0.586c0.333,0.977,0.577,1.997,0.714,3.054c0.659,5.064-0.134,10.161-0.492,15.232
	c0.003,0.156,0.01,0.311,0.014,0.467l13.561,0.327c-2.241,2.711-4.237,4.991-6.083,7.388c-3.697,4.799-3.303,10.423,0.877,13.835
	c4.183,3.414,9.814,2.72,13.707-1.916c7.256-8.642,14.448-17.339,21.571-26.091c4.2-5.162,3.682-10.23-1.393-14.466
	C116.895,232.679,108.091,225.433,99.28,218.197z"/>
<path fill="#FFFFFF" d="M224.613,218.197c-0.984-0.808-2.081-1.573-3.252-2.041c-4.189-1.671-8.504-0.248-11.149,3.529
	c-2.448,3.497-2.442,8.192,0.754,11.33c3.582,3.517,7.697,6.49,11.581,9.7c-0.147,0.302-0.294,0.604-0.441,0.906
	c-0.776-0.041,0.217,0.024-0.556-0.052l-13.043,0.586c0.333,0.977,0.577,1.997,0.714,3.054c0.659,5.064-0.134,10.161-0.492,15.232
	c0.003,0.156,0.01,0.311,0.014,0.467l13.561,0.327c-2.241,2.711-4.237,4.991-6.083,7.388c-3.697,4.799-3.303,10.423,0.877,13.835
	c4.183,3.414,9.814,2.72,13.707-1.916c7.256-8.642,14.448-17.339,21.571-26.091c4.2-5.162,3.682-10.23-1.393-14.466
	C242.229,232.679,233.425,225.433,224.613,218.197z"/>
<path fill="#FFFFFF" d="M371.946,218.197c-0.984-0.808-2.081-1.573-3.252-2.041c-4.189-1.671-8.504-0.248-11.149,3.529
	c-2.448,3.497-2.442,8.192,0.754,11.33c3.582,3.517,7.697,6.49,11.581,9.7c-0.147,0.302-0.294,0.604-0.441,0.906
	c-0.776-0.041,0.217,0.024-0.556-0.052l-13.043,0.586c0.333,0.977,0.577,1.997,0.714,3.054c0.659,5.064-0.134,10.161-0.492,15.232
	c0.003,0.156,0.01,0.311,0.014,0.467l13.561,0.327c-2.241,2.711-4.237,4.991-6.083,7.388c-3.697,4.799-3.303,10.423,0.877,13.835
	c4.183,3.414,9.814,2.72,13.707-1.916c7.256-8.642,14.448-17.339,21.571-26.091c4.2-5.162,3.682-10.23-1.393-14.466
	C389.562,232.679,380.758,225.433,371.946,218.197z"/>
</svg>
