<?xml version="1.0" encoding="utf-8"?>
<!-- Generator: Adobe Illustrator 17.0.0, SVG Export Plug-In . SVG Version: 6.00 Build 0)  -->
<!DOCTYPE svg PUBLIC "-//W3C//DTD SVG 1.1//EN" "http://www.w3.org/Graphics/SVG/1.1/DTD/svg11.dtd">
<svg version="1.1" id="Capa_1" xmlns="http://www.w3.org/2000/svg" xmlns:xlink="http://www.w3.org/1999/xlink" x="0px" y="0px"
	 width="500px" height="500px" viewBox="0 0 500 500" enable-background="new 0 0 500 500" xml:space="preserve">
<g opacity="0.9">
	<path fill-rule="evenodd" clip-rule="evenodd" fill="#FFFFFF" d="M250.007,443.118C136.263,443.118,44,440.084,44,436.343
		c0-3.738,92.263-6.77,206.007-6.77c113.744,0,205.993,3.033,205.993,6.77C456,440.084,363.751,443.118,250.007,443.118
		L250.007,443.118z"/>
	<path fill-rule="evenodd" clip-rule="evenodd" fill="#FEFEFE" d="M250.033,443.038c-112.661,0-204.046-3.002-204.046-6.704
		c0-3.699,91.384-6.7,204.046-6.7c112.661,0,204.032,3.001,204.032,6.7C454.064,440.035,362.694,443.038,250.033,443.038
		L250.033,443.038z"/>
	<path fill-rule="evenodd" clip-rule="evenodd" fill="#FDFDFD" d="M250.059,442.957c-111.579,0-202.085-2.971-202.085-6.633
		c0-3.66,90.506-6.629,202.085-6.629c111.578,0,202.07,2.969,202.07,6.629C452.129,439.986,361.636,442.957,250.059,442.957
		L250.059,442.957z"/>
	<path fill-rule="evenodd" clip-rule="evenodd" fill="#FCFCFC" d="M250.084,442.876c-110.496,0-200.123-2.939-200.123-6.563
		c0-3.621,89.628-6.558,200.123-6.558c110.495,0,200.109,2.937,200.109,6.558C450.193,439.937,360.579,442.876,250.084,442.876
		L250.084,442.876z"/>
	<path fill-rule="evenodd" clip-rule="evenodd" fill="#FBFBFB" d="M250.11,442.795c-109.413,0-198.162-2.907-198.162-6.492
		c0-3.582,88.749-6.487,198.162-6.487c109.412,0,198.148,2.906,198.148,6.487C448.258,439.888,359.522,442.795,250.11,442.795
		L250.11,442.795z"/>
	<path fill-rule="evenodd" clip-rule="evenodd" fill="#FAFAFA" d="M250.136,442.715c-108.33,0-196.201-2.876-196.201-6.421
		c0-3.543,87.871-6.417,196.201-6.417c108.328,0,196.186,2.874,196.186,6.417C446.322,439.839,358.464,442.715,250.136,442.715
		L250.136,442.715z"/>
	<path fill-rule="evenodd" clip-rule="evenodd" fill="#F9F9F9" d="M250.162,442.634c-107.247,0-194.239-2.844-194.239-6.35
		c0-3.504,86.992-6.346,194.239-6.346c107.245,0,194.225,2.842,194.225,6.346C444.387,439.79,357.407,442.634,250.162,442.634
		L250.162,442.634z"/>
	<path fill-rule="evenodd" clip-rule="evenodd" fill="#F8F8F8" d="M250.187,442.553c-106.164,0-192.278-2.812-192.278-6.279
		c0-3.465,86.114-6.275,192.278-6.275c106.162,0,192.264,2.811,192.264,6.275C442.451,439.741,356.35,442.553,250.187,442.553
		L250.187,442.553z"/>
	<path fill-rule="evenodd" clip-rule="evenodd" fill="#F7F7F7" d="M250.213,442.473c-105.081,0-190.317-2.78-190.317-6.208
		c0-3.426,85.235-6.205,190.317-6.205c105.079,0,190.302,2.779,190.302,6.205C440.516,439.692,355.292,442.473,250.213,442.473
		L250.213,442.473z"/>
	<path fill-rule="evenodd" clip-rule="evenodd" fill="#F6F6F6" d="M250.239,442.392c-103.998,0-188.355-2.749-188.355-6.137
		c0-3.387,84.357-6.134,188.355-6.134c103.996,0,188.341,2.747,188.341,6.134C438.58,439.643,354.235,442.392,250.239,442.392
		L250.239,442.392z"/>
	<path fill-rule="evenodd" clip-rule="evenodd" fill="#F5F5F5" d="M250.265,442.311c-102.916,0-186.394-2.717-186.394-6.067
		c0-3.348,83.479-6.063,186.394-6.063c102.913,0,186.38,2.716,186.38,6.063C436.644,439.594,353.178,442.311,250.265,442.311
		L250.265,442.311z"/>
	<path fill-rule="evenodd" clip-rule="evenodd" fill="#F4F4F4" d="M250.291,442.23c-101.833,0-184.433-2.685-184.433-5.996
		c0-3.309,82.6-5.992,184.433-5.992c101.83,0,184.418,2.684,184.418,5.992C434.709,439.545,352.12,442.23,250.291,442.23
		L250.291,442.23z"/>
	<path fill-rule="evenodd" clip-rule="evenodd" fill="#F3F3F3" d="M250.316,442.15c-100.75,0-182.472-2.654-182.472-5.925
		c0-3.27,81.722-5.922,182.472-5.922c100.747,0,182.457,2.652,182.457,5.922C432.773,439.496,351.063,442.15,250.316,442.15
		L250.316,442.15z"/>
	<path fill-rule="evenodd" clip-rule="evenodd" fill="#F2F2F2" d="M250.342,442.069c-99.667,0-180.51-2.622-180.51-5.854
		c0-3.231,80.843-5.851,180.51-5.851c99.664,0,180.496,2.62,180.496,5.851C430.838,439.447,350.006,442.069,250.342,442.069
		L250.342,442.069z"/>
	<path fill-rule="evenodd" clip-rule="evenodd" fill="#F1F1F1" d="M250.368,441.988c-98.584,0-178.549-2.59-178.549-5.783
		c0-3.192,79.965-5.78,178.549-5.78c98.581,0,178.534,2.589,178.534,5.78C428.902,439.398,348.949,441.988,250.368,441.988
		L250.368,441.988z"/>
	<path fill-rule="evenodd" clip-rule="evenodd" fill="#F0F0F0" d="M250.394,441.908c-97.501,0-176.588-2.558-176.588-5.712
		c0-3.153,79.087-5.71,176.588-5.71c97.498,0,176.573,2.557,176.573,5.71C426.967,439.349,347.891,441.908,250.394,441.908
		L250.394,441.908z"/>
	<path fill-rule="evenodd" clip-rule="evenodd" fill="#EFEFEF" d="M250.419,441.827c-96.418,0-174.626-2.527-174.626-5.641
		c0-3.114,78.208-5.639,174.626-5.639c96.414,0,174.612,2.525,174.612,5.639C425.031,439.3,346.834,441.827,250.419,441.827
		L250.419,441.827z"/>
	<path fill-rule="evenodd" clip-rule="evenodd" fill="#EEEEEE" d="M250.445,441.746c-95.335,0-172.665-2.495-172.665-5.571
		c0-3.075,77.33-5.568,172.665-5.568c95.331,0,172.65,2.494,172.65,5.568C423.096,439.251,345.777,441.746,250.445,441.746
		L250.445,441.746z"/>
	<path fill-rule="evenodd" clip-rule="evenodd" fill="#EDEDED" d="M250.471,441.666c-94.252,0-170.704-2.463-170.704-5.5
		c0-3.036,76.451-5.498,170.704-5.498c94.248,0,170.689,2.462,170.689,5.498C421.16,439.202,344.719,441.666,250.471,441.666
		L250.471,441.666z"/>
	<path fill-rule="evenodd" clip-rule="evenodd" fill="#ECECEC" d="M250.497,441.585c-93.17,0-168.742-2.431-168.742-5.429
		c0-2.997,75.573-5.427,168.742-5.427c93.165,0,168.728,2.43,168.728,5.427C419.224,439.153,343.662,441.585,250.497,441.585
		L250.497,441.585z"/>
	<path fill-rule="evenodd" clip-rule="evenodd" fill="#EBEBEB" d="M250.522,441.504c-92.087,0-166.781-2.4-166.781-5.358
		c0-2.958,74.694-5.356,166.781-5.356c92.082,0,166.766,2.399,166.766,5.356C417.289,439.104,342.605,441.504,250.522,441.504
		L250.522,441.504z"/>
	<path fill-rule="evenodd" clip-rule="evenodd" fill="#EAEAEA" d="M250.548,441.423c-91.004,0-164.82-2.368-164.82-5.287
		c0-2.919,73.816-5.285,164.82-5.285c90.999,0,164.805,2.367,164.805,5.285C415.353,439.055,341.547,441.423,250.548,441.423
		L250.548,441.423z"/>
	<path fill-rule="evenodd" clip-rule="evenodd" fill="#E9E9E9" d="M250.574,441.343c-89.921,0-162.859-2.336-162.859-5.216
		c0-2.88,72.938-5.215,162.859-5.215c89.916,0,162.844,2.335,162.844,5.215C413.418,439.006,340.49,441.343,250.574,441.343
		L250.574,441.343z"/>
	<path fill-rule="evenodd" clip-rule="evenodd" fill="#E8E8E8" d="M250.6,441.262c-88.838,0-160.897-2.305-160.897-5.146
		c0-2.841,72.059-5.144,160.897-5.144c88.833,0,160.882,2.303,160.882,5.144C411.482,438.957,339.433,441.262,250.6,441.262
		L250.6,441.262z"/>
	<path fill-rule="evenodd" clip-rule="evenodd" fill="#E7E7E7" d="M250.626,441.181c-87.755,0-158.936-2.273-158.936-5.075
		c0-2.802,71.181-5.073,158.936-5.073c87.75,0,158.921,2.272,158.921,5.073C409.547,438.908,338.375,441.181,250.626,441.181
		L250.626,441.181z"/>
	<path fill-rule="evenodd" clip-rule="evenodd" fill="#E6E6E6" d="M250.651,441.101c-86.672,0-156.975-2.241-156.975-5.004
		c0-2.763,70.302-5.003,156.975-5.003c86.667,0,156.96,2.24,156.96,5.003C407.611,438.859,337.318,441.101,250.651,441.101
		L250.651,441.101z"/>
	<path fill-rule="evenodd" clip-rule="evenodd" fill="#E5E5E5" d="M250.677,441.02c-85.589,0-155.013-2.209-155.013-4.933
		c0-2.724,69.424-4.932,155.013-4.932c85.584,0,154.998,2.208,154.998,4.932C405.676,438.81,336.261,441.02,250.677,441.02
		L250.677,441.02z"/>
	<path fill-rule="evenodd" clip-rule="evenodd" fill="#E4E4E4" d="M250.703,440.939c-84.507,0-153.052-2.178-153.052-4.862
		c0-2.685,68.546-4.861,153.052-4.861c84.501,0,153.037,2.177,153.037,4.861C403.74,438.761,335.203,440.939,250.703,440.939
		L250.703,440.939z"/>
	<path fill-rule="evenodd" clip-rule="evenodd" fill="#E3E3E3" d="M250.729,440.858c-83.424,0-151.091-2.146-151.091-4.791
		c0-2.646,67.667-4.79,151.091-4.79c83.417,0,151.076,2.145,151.076,4.79C401.804,438.712,334.146,440.858,250.729,440.858
		L250.729,440.858z"/>
	<path fill-rule="evenodd" clip-rule="evenodd" fill="#E2E2E2" d="M250.754,440.778c-82.341,0-149.129-2.114-149.129-4.72
		c0-2.607,66.789-4.72,149.129-4.72c82.334,0,149.114,2.113,149.114,4.72C399.869,438.663,333.089,440.778,250.754,440.778
		L250.754,440.778z"/>
	<path fill-rule="evenodd" clip-rule="evenodd" fill="#E1E1E1" d="M250.78,440.697c-81.258,0-147.168-2.083-147.168-4.65
		c0-2.567,65.91-4.649,147.168-4.649c81.251,0,147.153,2.082,147.153,4.649C397.933,438.615,332.031,440.697,250.78,440.697
		L250.78,440.697z"/>
	<path fill-rule="evenodd" clip-rule="evenodd" fill="#E0E0E0" d="M250.806,440.616c-80.175,0-145.207-2.051-145.207-4.579
		c0-2.529,65.032-4.578,145.207-4.578c80.168,0,145.192,2.05,145.192,4.578C395.998,438.566,330.974,440.616,250.806,440.616
		L250.806,440.616z"/>
	<path fill-rule="evenodd" clip-rule="evenodd" fill="#DFDFDF" d="M250.832,440.536c-79.092,0-143.246-2.019-143.246-4.508
		c0-2.49,64.153-4.508,143.246-4.508c79.085,0,143.231,2.018,143.231,4.508C394.062,438.517,329.917,440.536,250.832,440.536
		L250.832,440.536z"/>
	<path fill-rule="evenodd" clip-rule="evenodd" fill="#DEDEDE" d="M250.857,440.455c-78.009,0-141.284-1.987-141.284-4.437
		c0-2.45,63.275-4.437,141.284-4.437c78.002,0,141.269,1.986,141.269,4.437C392.127,438.468,328.859,440.455,250.857,440.455
		L250.857,440.455z"/>
	<path fill-rule="evenodd" clip-rule="evenodd" fill="#DDDDDD" d="M250.883,440.374c-76.926,0-139.323-1.956-139.323-4.366
		c0-2.411,62.397-4.366,139.323-4.366c76.919,0,139.308,1.955,139.308,4.366C390.191,438.419,327.802,440.374,250.883,440.374
		L250.883,440.374z"/>
	<path fill-rule="evenodd" clip-rule="evenodd" fill="#DCDCDC" d="M250.909,440.294c-75.843,0-137.362-1.924-137.362-4.295
		c0-2.372,61.518-4.296,137.362-4.296c75.836,0,137.347,1.923,137.347,4.296C388.256,438.37,326.745,440.294,250.909,440.294
		L250.909,440.294z"/>
	<path fill-rule="evenodd" clip-rule="evenodd" fill="#DBDBDB" d="M250.935,440.213c-74.761,0-135.4-1.892-135.4-4.224
		c0-2.333,60.64-4.225,135.4-4.225c74.753,0,135.385,1.891,135.385,4.225C386.32,438.321,325.688,440.213,250.935,440.213
		L250.935,440.213z"/>
	<path fill-rule="evenodd" clip-rule="evenodd" fill="#DADADA" d="M250.961,440.132c-73.678,0-133.439-1.861-133.439-4.154
		c0-2.294,59.761-4.154,133.439-4.154c73.67,0,133.424,1.86,133.424,4.154C384.384,438.272,324.63,440.132,250.961,440.132
		L250.961,440.132z"/>
	<path fill-rule="evenodd" clip-rule="evenodd" fill="#D9D9D9" d="M250.986,440.051c-72.595,0-131.478-1.829-131.478-4.083
		c0-2.255,58.883-4.083,131.478-4.083c72.587,0,131.463,1.828,131.463,4.083C382.449,438.223,323.573,440.051,250.986,440.051
		L250.986,440.051z"/>
	<path fill-rule="evenodd" clip-rule="evenodd" fill="#D9D9D9" d="M251.012,439.971c-71.512,0-129.516-1.797-129.516-4.012
		c0-2.216,58.005-4.013,129.516-4.013c71.504,0,129.501,1.796,129.501,4.013C380.513,438.174,322.516,439.971,251.012,439.971
		L251.012,439.971z"/>
	<path fill-rule="evenodd" clip-rule="evenodd" fill="#D8D8D8" d="M251.038,439.89c-70.429,0-127.555-1.765-127.555-3.941
		c0-2.177,57.126-3.942,127.555-3.942c70.42,0,127.54,1.765,127.54,3.942C378.578,438.125,321.458,439.89,251.038,439.89
		L251.038,439.89z"/>
	<path fill-rule="evenodd" clip-rule="evenodd" fill="#D7D7D7" d="M251.064,439.809c-69.346,0-125.594-1.734-125.594-3.87
		c0-2.138,56.248-3.871,125.594-3.871c69.337,0,125.579,1.733,125.579,3.871C376.642,438.076,320.401,439.809,251.064,439.809
		L251.064,439.809z"/>
	<path fill-rule="evenodd" clip-rule="evenodd" fill="#D6D6D6" d="M251.089,439.729c-68.263,0-123.633-1.702-123.633-3.799
		c0-2.099,55.369-3.801,123.633-3.801c68.254,0,123.617,1.701,123.617,3.801C374.707,438.027,319.344,439.729,251.089,439.729
		L251.089,439.729z"/>
	<path fill-rule="evenodd" clip-rule="evenodd" fill="#D5D5D5" d="M251.115,439.648c-67.18,0-121.671-1.67-121.671-3.728
		c0-2.06,54.491-3.73,121.671-3.73c67.171,0,121.656,1.669,121.656,3.73C372.771,437.978,318.286,439.648,251.115,439.648
		L251.115,439.648z"/>
	<path fill-rule="evenodd" clip-rule="evenodd" fill="#D4D4D4" d="M251.141,439.567c-66.098,0-119.71-1.638-119.71-3.658
		c0-2.021,53.612-3.659,119.71-3.659c66.088,0,119.695,1.638,119.695,3.659C370.836,437.929,317.229,439.567,251.141,439.567
		L251.141,439.567z"/>
	<path fill-rule="evenodd" clip-rule="evenodd" fill="#D3D3D3" d="M251.167,439.486c-65.015,0-117.749-1.607-117.749-3.587
		c0-1.982,52.734-3.588,117.749-3.588c65.005,0,117.733,1.606,117.733,3.588C368.9,437.88,316.172,439.486,251.167,439.486
		L251.167,439.486z"/>
	<path fill-rule="evenodd" clip-rule="evenodd" fill="#D2D2D2" d="M251.192,439.406c-63.932,0-115.787-1.575-115.787-3.516
		c0-1.943,51.856-3.518,115.787-3.518c63.922,0,115.772,1.574,115.772,3.518C366.964,437.831,315.114,439.406,251.192,439.406
		L251.192,439.406z"/>
	<path fill-rule="evenodd" clip-rule="evenodd" fill="#D1D1D1" d="M251.218,439.325c-62.849,0-113.826-1.543-113.826-3.445
		c0-1.904,50.977-3.447,113.826-3.447c62.839,0,113.811,1.543,113.811,3.447C365.029,437.782,314.057,439.325,251.218,439.325
		L251.218,439.325z"/>
	<path fill-rule="evenodd" clip-rule="evenodd" fill="#D0D0D0" d="M251.244,439.244c-61.766,0-111.865-1.512-111.865-3.374
		c0-1.865,50.099-3.376,111.865-3.376c61.756,0,111.849,1.511,111.849,3.376C363.093,437.733,313,439.244,251.244,439.244
		L251.244,439.244z"/>
	<path fill-rule="evenodd" clip-rule="evenodd" fill="#CFCFCF" d="M251.27,439.164c-60.683,0-109.903-1.48-109.903-3.303
		c0-1.826,49.22-3.306,109.903-3.306c60.673,0,109.888,1.479,109.888,3.306C361.158,437.684,311.942,439.164,251.27,439.164
		L251.27,439.164z"/>
	<path fill-rule="evenodd" clip-rule="evenodd" fill="#CECECE" d="M251.296,439.083c-59.6,0-107.942-1.448-107.942-3.233
		c0-1.787,48.342-3.235,107.942-3.235c59.59,0,107.927,1.448,107.927,3.235C359.222,437.635,310.885,439.083,251.296,439.083
		L251.296,439.083z"/>
	<path fill-rule="evenodd" clip-rule="evenodd" fill="#CDCDCD" d="M251.321,439.002c-58.517,0-105.981-1.416-105.981-3.162
		c0-1.748,47.464-3.164,105.981-3.164c58.506,0,105.965,1.416,105.965,3.164C357.287,437.586,309.828,439.002,251.321,439.002
		L251.321,439.002z"/>
	<path fill-rule="evenodd" clip-rule="evenodd" fill="#CCCCCC" d="M251.347,438.922c-57.434,0-104.02-1.385-104.02-3.091
		c0-1.709,46.585-3.094,104.02-3.094c57.423,0,104.004,1.384,104.004,3.094C355.351,437.537,308.77,438.922,251.347,438.922
		L251.347,438.922z"/>
	<path fill-rule="evenodd" clip-rule="evenodd" fill="#CBCBCB" d="M251.373,438.841c-56.352,0-102.058-1.353-102.058-3.02
		c0-1.67,45.707-3.023,102.058-3.023c56.34,0,102.043,1.352,102.043,3.023C353.415,437.488,307.713,438.841,251.373,438.841
		L251.373,438.841z"/>
	<path fill-rule="evenodd" clip-rule="evenodd" fill="#CACACA" d="M251.399,438.76c-55.269,0-100.097-1.321-100.097-2.949
		c0-1.631,44.828-2.952,100.097-2.952c55.257,0,100.081,1.321,100.081,2.952C351.48,437.439,306.656,438.76,251.399,438.76
		L251.399,438.76z"/>
	<path fill-rule="evenodd" clip-rule="evenodd" fill="#C9C9C9" d="M251.424,438.679c-54.186,0-98.136-1.29-98.136-2.878
		c0-1.592,43.95-2.881,98.136-2.881c54.174,0,98.12,1.289,98.12,2.881C349.544,437.39,305.598,438.679,251.424,438.679
		L251.424,438.679z"/>
	<path fill-rule="evenodd" clip-rule="evenodd" fill="#C8C8C8" d="M251.45,438.599c-53.103,0-96.174-1.258-96.174-2.807
		c0-1.553,43.071-2.811,96.174-2.811c53.091,0,96.159,1.257,96.159,2.811C347.609,437.341,304.541,438.599,251.45,438.599
		L251.45,438.599z"/>
	<path fill-rule="evenodd" clip-rule="evenodd" fill="#C7C7C7" d="M251.476,438.518c-52.02,0-94.213-1.226-94.213-2.737
		c0-1.514,42.193-2.74,94.213-2.74c52.008,0,94.197,1.226,94.197,2.74C345.673,437.292,303.484,438.518,251.476,438.518
		L251.476,438.518z"/>
	<path fill-rule="evenodd" clip-rule="evenodd" fill="#C6C6C6" d="M251.502,438.437c-50.937,0-92.252-1.194-92.252-2.666
		c0-1.475,41.315-2.669,92.252-2.669c50.925,0,92.236,1.194,92.236,2.669C343.738,437.243,302.427,438.437,251.502,438.437
		L251.502,438.437z"/>
	<path fill-rule="evenodd" clip-rule="evenodd" fill="#C5C5C5" d="M251.527,438.357c-49.854,0-90.29-1.163-90.29-2.595
		c0-1.436,40.436-2.599,90.29-2.599c49.842,0,90.275,1.162,90.275,2.599C341.802,437.194,301.369,438.357,251.527,438.357
		L251.527,438.357z"/>
	<path fill-rule="evenodd" clip-rule="evenodd" fill="#C4C4C4" d="M251.553,438.276c-48.771,0-88.329-1.131-88.329-2.524
		c0-1.397,39.558-2.528,88.329-2.528c48.759,0,88.313,1.131,88.313,2.528C339.867,437.145,300.312,438.276,251.553,438.276
		L251.553,438.276z"/>
	<path fill-rule="evenodd" clip-rule="evenodd" fill="#C3C3C3" d="M251.579,438.195c-47.689,0-86.368-1.099-86.368-2.453
		c0-1.358,38.679-2.457,86.368-2.457c47.676,0,86.352,1.099,86.352,2.457C337.931,437.096,299.255,438.195,251.579,438.195
		L251.579,438.195z"/>
	<path fill-rule="evenodd" clip-rule="evenodd" fill="#C2C2C2" d="M251.605,438.115c-46.606,0-84.407-1.068-84.407-2.382
		c0-1.319,37.801-2.386,84.407-2.386c46.593,0,84.391,1.067,84.391,2.386C335.995,437.047,298.197,438.115,251.605,438.115
		L251.605,438.115z"/>
	<path fill-rule="evenodd" clip-rule="evenodd" fill="#C1C1C1" d="M251.63,438.034c-45.523,0-82.445-1.036-82.445-2.311
		c0-1.28,36.922-2.316,82.445-2.316c45.509,0,82.429,1.035,82.429,2.316C334.06,436.998,297.14,438.034,251.63,438.034
		L251.63,438.034z"/>
	<path fill-rule="evenodd" clip-rule="evenodd" fill="#C0C0C0" d="M251.656,437.953c-44.44,0-80.484-1.004-80.484-2.241
		c0-1.241,36.044-2.245,80.484-2.245c44.426,0,80.468,1.004,80.468,2.245C332.124,436.949,296.083,437.953,251.656,437.953
		L251.656,437.953z"/>
	<path fill-rule="evenodd" clip-rule="evenodd" fill="#BFBFBF" d="M251.682,437.872c-43.357,0-78.523-0.972-78.523-2.17
		c0-1.202,35.166-2.174,78.523-2.174c43.343,0,78.507,0.972,78.507,2.174C330.189,436.9,295.025,437.872,251.682,437.872
		L251.682,437.872z"/>
	<path fill-rule="evenodd" clip-rule="evenodd" fill="#BEBEBE" d="M251.708,437.792c-42.274,0-76.561-0.941-76.561-2.099
		c0-1.163,34.287-2.104,76.561-2.104c42.26,0,76.545,0.94,76.545,2.104C328.253,436.851,293.968,437.792,251.708,437.792
		L251.708,437.792z"/>
	<path fill-rule="evenodd" clip-rule="evenodd" fill="#BDBDBD" d="M251.734,437.711c-41.191,0-74.6-0.909-74.6-2.028
		c0-1.124,33.409-2.033,74.6-2.033c41.177,0,74.584,0.909,74.584,2.033C326.318,436.802,292.911,437.711,251.734,437.711
		L251.734,437.711z"/>
	<path fill-rule="evenodd" clip-rule="evenodd" fill="#BCBCBC" d="M251.759,437.63c-40.108,0-72.639-0.877-72.639-1.957
		c0-1.085,32.53-1.962,72.639-1.962c40.094,0,72.623,0.877,72.623,1.962C324.382,436.753,291.853,437.63,251.759,437.63
		L251.759,437.63z"/>
	<path fill-rule="evenodd" clip-rule="evenodd" fill="#BBBBBB" d="M251.785,437.55c-39.025,0-70.677-0.845-70.677-1.886
		c0-1.046,31.652-1.891,70.677-1.891c39.011,0,70.661,0.845,70.661,1.891C322.447,436.704,290.796,437.55,251.785,437.55
		L251.785,437.55z"/>
	<path fill-rule="evenodd" clip-rule="evenodd" fill="#BABABA" d="M251.811,437.469c-37.943,0-68.716-0.814-68.716-1.815
		c0-1.007,30.774-1.821,68.716-1.821c37.928,0,68.7,0.814,68.7,1.821C320.511,436.655,289.739,437.469,251.811,437.469
		L251.811,437.469z"/>
	<path fill-rule="evenodd" clip-rule="evenodd" fill="#B9B9B9" d="M251.837,437.388c-36.86,0-66.755-0.782-66.755-1.745
		c0-0.968,29.895-1.75,66.755-1.75c36.845,0,66.739,0.782,66.739,1.75C318.575,436.606,288.681,437.388,251.837,437.388
		L251.837,437.388z"/>
	<path fill-rule="evenodd" clip-rule="evenodd" fill="#B8B8B8" d="M251.862,437.307c-35.777,0-64.794-0.75-64.794-1.674
		c0-0.929,29.017-1.679,64.794-1.679c35.762,0,64.778,0.75,64.778,1.679C316.64,436.557,287.624,437.307,251.862,437.307
		L251.862,437.307z"/>
	<path fill-rule="evenodd" clip-rule="evenodd" fill="#B7B7B7" d="M251.888,437.227c-34.694,0-62.832-0.719-62.832-1.603
		c0-0.89,28.138-1.609,62.832-1.609c34.679,0,62.816,0.718,62.816,1.609C314.704,436.508,286.567,437.227,251.888,437.227
		L251.888,437.227z"/>
	<path fill-rule="evenodd" clip-rule="evenodd" fill="#B6B6B6" d="M251.914,437.146c-33.611,0-60.871-0.687-60.871-1.532
		c0-0.851,27.26-1.538,60.871-1.538c33.596,0,60.855,0.687,60.855,1.538C312.769,436.459,285.509,437.146,251.914,437.146
		L251.914,437.146z"/>
	<path fill-rule="evenodd" clip-rule="evenodd" fill="#B5B5B5" d="M251.94,437.065c-32.528,0-58.91-0.655-58.91-1.461
		c0-0.812,26.381-1.467,58.91-1.467c32.512,0,58.894,0.655,58.894,1.467C310.833,436.41,284.452,437.065,251.94,437.065
		L251.94,437.065z"/>
	<path fill-rule="evenodd" clip-rule="evenodd" fill="#B4B4B4" d="M251.965,436.985c-31.445,0-56.948-0.623-56.948-1.39
		c0-0.773,25.503-1.397,56.948-1.397c31.429,0,56.932,0.623,56.932,1.397C308.898,436.361,283.395,436.985,251.965,436.985
		L251.965,436.985z"/>
	<path fill-rule="evenodd" clip-rule="evenodd" fill="#B3B3B3" d="M251.991,436.904c-30.362,0-54.987-0.592-54.987-1.319
		c0-0.734,24.625-1.326,54.987-1.326c30.346,0,54.971,0.592,54.971,1.326C306.962,436.312,282.337,436.904,251.991,436.904
		L251.991,436.904z"/>
</g>
<path fill="#B845A7" d="M438.329,191.306c-7.563-37.011-27.002-77.959-68.513-100.631c2.47,0.803,4.904,1.64,7.258,2.549
	c-4.036-1.976-8.284-3.778-12.728-5.405c-16.725-8.098-36.769-13.36-60.754-14.467c-30.75-1.416-66.899-0.153-101.18,12.321
	C149.558,96.042,89.714,127.642,59.37,185.602c-45.987,87.861,0.028,166.117,21.79,188.786c17.63,18.366,32.717,11.75,35.85,0.987
	c6.122,4.982,7.472,7.037,14.381,11.245c27.12,22.172,57.337,30.256,98.887,30.079c6.397-0.023,8.254-0.133,15.016-0.775
	c5.957,6.481,25.959,16.425,55.444,14.9c41.25-2.132,120.512-27.942,147.137-90.872
	C473.176,280.153,454.763,221.443,438.329,191.306z M285.198,383.073c-10.093-0.377-20.396-1.443-30.887-2.63
	c-49.958-5.659-84.825-31.109-84.825-31.109c-52.789-40.532-63.648-100.604-22.37-170.697c6.967-11.827,16.234-22.33,27.016-31.476
	c2.016-0.674,4.06-1.309,6.108-1.913c8.757-2.195,16.173-4.048,16.173-4.048l0,0c62.207-12.681,129.777,4.887,146.483,52.73
	c19.709,56.421-3.583,99.418-11.646,109.266c-8.059,9.85-17.016,24.183-7.16,30.453c9.846,6.271,26.578-5.404,35.847-19.978
	c7.777-12.221,15.147-21.972,20.524-59.586c2.074-14.517,1.585-37.72-6.592-61.312c11.404,19.913,17.931,42.698,17.111,66.868
	C388.979,319.09,337.191,364.127,285.198,383.073z"/>
<path fill="#B845A7" d="M265.44,406.418c0,0,127.558-22.753,146.11-89.88c18.557-67.113,11.597-95.555-69.574-158.123
	c-81.178-62.569-190.188-32.989-235.412,36.405c-45.23,69.394-12.765,136.605,6.378,159.88
	c12.176,14.169-6.376,39.202-26.092,16.452C67.14,348.4,21.912,274.453,65.983,190.269c44.062-84.182,153.07-110.353,205.249-95.563
	c52.186,14.792,139.162,69.401,155.393,96.697c16.236,27.304,37.107,86.463,11.595,146.758
	c-25.512,60.291-98.496,82.991-138.019,85.047C245.145,426.052,230.643,393.902,265.44,406.418z"/>
<path fill="#FFFFFF" d="M220.925,391.332c0,0-90.968-4.295-117.57-76.38c-26.601-72.084-3.44-131.295,62.651-157.904
	c66.071-26.602,152.754-12.87,171.632,41.193c18.878,54.067-3.433,95.257-11.159,104.699c-7.719,9.441-16.304,23.168-6.855,29.178
	c9.434,6.009,25.461-5.178,34.341-19.135c7.454-11.714,14.514-21.057,19.67-57.098c5.151-36.051-5.961-128.015-120.093-137.449
	c-114.145-9.445-174.213,67.79-185.372,112.416c-11.159,44.63,18.019,114.145,47.197,138.169
	c29.174,24.032,69.348,39.474,105.559,39.474C245.815,408.494,234.656,383.608,220.925,391.332z"/>
<path fill="#B845A7" d="M111.656,216.375c0,0-18.545,77.289,10.819,121.344c29.369,44.055,71.464,58.54,129.246,49.749
	c57.793-8.79,129.679-57.483,131.992-126.266c2.321-68.785-57.195-125.976-118.254-133.71c-30.14-3.091-52.553,0-52.553,0
	s-10.675,0.037-10.752-14.665c-0.07-14.707,6.885-16.252,38.575-15.48c31.685,0.773,106.66,10.052,140.671,68.016
	c34.001,57.971,40.186,120.576,5.407,172.357c-34.779,51.783-103.924,73.754-157.076,73.976
	c-53.154,0.224-86.944-13.648-120.172-54.942c-44.674-55.519-32.679-115.648-27.272-135.74c5.414-20.1,23.955-38.646,35.554-25.504
	C129.43,208.647,113.976,207.87,111.656,216.375z"/>
<path fill="#B845A7" d="M299.973,82.712c-65.859-3.037-157.654,6.607-197.395,121.044C66.609,307.33,125.855,355.52,149.333,371.774
	c0,0,63.226,50.577,167.086,31.604c103.859-18.962,111.538-119.458,115.6-152.627C437.775,203.756,421.018,88.299,299.973,82.712z
	 M381.437,325.715c-37.027,59.602-80.808,56.655-128.678,51.236c-47.861-5.419-81.28-29.806-81.28-29.806
	c-50.57-38.831-60.978-96.394-21.432-163.551c39.565-67.163,155.27-91.189,207.651-48.741
	C410.084,177.303,418.471,266.107,381.437,325.715z"/>
<path opacity="0.55" fill="#FFFFFF" d="M379.428,144.167c-7.074-5.731-15.321-10.209-24.355-13.57
	c5.182,2.63,10.037,5.67,14.418,9.223c52.383,42.449,60.77,131.253,23.745,190.858c-37.034,59.616-80.817,56.66-128.682,51.238
	c-18.941-2.146-35.563-7.256-48.801-12.656c14.346,6.79,34.721,14.281,58.736,17.002c47.866,5.419,91.646,8.368,128.68-51.238
	C440.198,275.416,431.809,186.611,379.428,144.167z M124.3,213.067C164.048,98.63,255.839,88.983,321.704,92.027
	c18.594,0.858,34.711,4.332,48.687,9.731c-16.108-7.884-35.445-13.01-58.629-14.078c-65.857-3.04-157.651,6.606-197.393,121.042
	c-35.973,103.572,23.273,151.762,46.755,168.022c0,0,12.728,10.144,36.075,19.646c-16.997-8.01-26.136-15.309-26.136-15.309
	C147.587,364.83,88.329,316.64,124.3,213.067z"/>
<path fill="#FFFFFF" d="M342.906,125.912c-1.73-1.294,47.558,56.852,50.97,101.231c3.41,44.38,1.367,87.392-49.839,137.911
	c23.897-15.701,65.405-61.371,58.715-136.549C395.887,151.367,351.101,132.052,342.906,125.912z"/>
<path fill="#FFFFFF" d="M197.287,147.724c0,0,15.887-14.382,29.893-17.031c7.183,0.76,106.578,13.035,143.284,78.874
	c-1.138-9.077-8.194-20.225-8.194-20.225s-32.542-54.107-96.811-61.852c-24.278-3.992-43.915-1.527-43.915-1.527
	s-32.589,15.704-45.456,27.054C186.69,150.373,197.287,147.724,197.287,147.724z"/>
<path fill="#FFFFFF" d="M432.654,247.606c0,0,12.686,55.36-18.966,101.009c-32.744,47.221-77.914,50.526-77.914,50.526
	s56.283-17.358,78.196-71.529C423.713,307.527,429.509,277.216,432.654,247.606z"/>
<path opacity="0.25" fill="#FFFFFF" d="M145.734,130.148c0,0-22.533,10.247-37.29,35.653c-4.921,5.328-4.921,5.328-4.921,5.328
	s-5.33,11.887-6.148,24.183c-4.5,5.321-4.5,5.321-4.5,5.321s-33.203,101.221,33.599,159.006
	c22.947,20.082,47.125,35.654,77.449,38.936c-13.519-4.513-83.596-27.055-106.548-91.801
	c-19.253-55.325,13.522-125.389,18.028-133.589C119.917,164.991,136.73,139.57,145.734,130.148z"/>
<path fill="#B845A7" d="M112.689,374.963c0,0-40.591-28.811-49.762-85.128c-9.162-56.308,6.548-84.686,30.996-113.935
	c5.675-6.108,8.294-5.669,16.592-11.347c-15.719,17.462-49.332,43.655-43.661,100.839c4.807,43.219,29.686,91.236,48.901,105.206
	C114.875,372.782,112.689,374.963,112.689,374.963z"/>
<path fill="#FFFFFF" d="M346.094,208.454c0,0,14.507,57.182-15.847,98.016c-5.694,10.901-11.734,18.781-9.977,19.368
	c4.246,1.408,19.96-22.891,27.586-45.193C355.492,258.344,352.556,225.473,346.094,208.454z"/>
<g>
	<path fill="#B845A7" d="M279.331,322.832c-1.991-4.513-3.712-8.668-5.689-12.698c-0.432-0.88-1.928-1.965-2.664-1.794
		c-1.028,0.239-2.285,1.419-2.608,2.457c-2.662,8.571-4.46,17.473-7.803,25.756c-6.249,15.486-16.023,21.076-32.383,17.556
		c-9.467-2.037-15.143-6.933-24.096-10.875c-4.767-2.099-6.597-10.042-4.404-14.6c2.187-4.545,7.034-6.473,12.085-4.845
		c6.67,2.15,13.273,4.566,20.045,6.323c7.087,1.839,6.505,3.287,7.615-3.888c1.503-9.715,4.092-19.711,3.11-29.268
		c-1.955-19.028-0.277-38.58-7.072-57.04c-1.055-2.867-2.375-4.577-5.387-5.658c-17.986-6.448-35.881-13.149-53.807-19.765
		c-0.659-0.243-1.327-0.464-1.976-0.733c-4.704-1.946-6.776-5.618-5.617-9.935c1.095-4.078,5.235-6.42,10.076-5.368
		c5.765,1.254,11.465,2.804,17.204,4.181c13.118,3.149,26.256,6.214,39.36,9.42c10.558,2.583,19.238-0.061,25.572-9.069
		c10.112-14.382,20.1-28.85,30.139-43.283c0.802-1.154,1.503-2.392,2.408-3.458c2.838-3.345,7.168-4.087,10.605-1.908
		c3.264,2.07,4.4,6.059,2.793,10.069c-0.469,1.169-1.118,2.268-1.713,3.384c-8.335,15.629-16.623,31.284-25.072,46.851
		c-1.213,2.236-1.194,3.913-0.144,6.196c9.174,19.944,13.645,40.967,14.106,62.886c0.031,1.498,0.56,2.999,0.95,4.474
		c3.373,12.741,7.099,25.403,9.983,38.253c1.081,4.814,0.647,10.107,0.143,15.105c-0.809,8.024-6.912,12.188-14.691,10.148
		c-8.995-2.36-14.185-8.865-16.759-17.394C272.145,329.359,274.789,325.648,279.331,322.832z"/>
	<path fill="#B845A7" d="M237.842,207.683c-14.776-0.012-26.379-11.876-26.485-27.081c-0.098-14.022,12.402-26.365,26.553-26.22
		c15.177,0.155,26.812,12.078,26.68,27.341C264.467,195.976,252.392,207.695,237.842,207.683z"/>
</g>
</svg>
