<?xml version="1.0" encoding="utf-8"?>
<!-- Generator: Adobe Illustrator 17.0.0, SVG Export Plug-In . SVG Version: 6.00 Build 0)  -->
<!DOCTYPE svg PUBLIC "-//W3C//DTD SVG 1.1//EN" "http://www.w3.org/Graphics/SVG/1.1/DTD/svg11.dtd">
<svg version="1.1" id="Capa_1" xmlns="http://www.w3.org/2000/svg" xmlns:xlink="http://www.w3.org/1999/xlink" x="0px" y="0px"
	 width="500px" height="500px" viewBox="0 0 500 500" enable-background="new 0 0 500 500" xml:space="preserve">
<g>
	<g opacity="0.9">
		<path fill-rule="evenodd" clip-rule="evenodd" fill="#FFFFFF" d="M250.007,414.852C136.263,414.852,44,411.818,44,408.077
			c0-3.738,92.263-6.77,206.007-6.77c113.744,0,205.993,3.033,205.993,6.77C456,411.818,363.751,414.852,250.007,414.852
			L250.007,414.852z"/>
		<path fill-rule="evenodd" clip-rule="evenodd" fill="#FEFEFE" d="M250.033,414.771c-112.661,0-204.046-3.002-204.046-6.704
			c0-3.699,91.384-6.7,204.046-6.7c112.661,0,204.032,3.001,204.032,6.7C454.064,411.769,362.694,414.771,250.033,414.771
			L250.033,414.771z"/>
		<path fill-rule="evenodd" clip-rule="evenodd" fill="#FDFDFD" d="M250.059,414.69c-111.579,0-202.085-2.971-202.085-6.633
			c0-3.66,90.506-6.629,202.085-6.629c111.578,0,202.07,2.969,202.07,6.629C452.129,411.72,361.636,414.69,250.059,414.69
			L250.059,414.69z"/>
		<path fill-rule="evenodd" clip-rule="evenodd" fill="#FCFCFC" d="M250.084,414.61c-110.496,0-200.123-2.939-200.123-6.563
			c0-3.621,89.628-6.558,200.123-6.558c110.495,0,200.109,2.937,200.109,6.558C450.193,411.671,360.579,414.61,250.084,414.61
			L250.084,414.61z"/>
		<path fill-rule="evenodd" clip-rule="evenodd" fill="#FBFBFB" d="M250.11,414.529c-109.413,0-198.162-2.907-198.162-6.492
			c0-3.582,88.749-6.487,198.162-6.487c109.412,0,198.148,2.906,198.148,6.487C448.258,411.622,359.522,414.529,250.11,414.529
			L250.11,414.529z"/>
		<path fill-rule="evenodd" clip-rule="evenodd" fill="#FAFAFA" d="M250.136,414.448c-108.33,0-196.201-2.876-196.201-6.421
			c0-3.543,87.871-6.417,196.201-6.417c108.328,0,196.186,2.874,196.186,6.417C446.322,411.573,358.464,414.448,250.136,414.448
			L250.136,414.448z"/>
		<path fill-rule="evenodd" clip-rule="evenodd" fill="#F9F9F9" d="M250.162,414.368c-107.247,0-194.239-2.844-194.239-6.35
			c0-3.504,86.992-6.346,194.239-6.346c107.245,0,194.225,2.842,194.225,6.346C444.387,411.524,357.407,414.368,250.162,414.368
			L250.162,414.368z"/>
		<path fill-rule="evenodd" clip-rule="evenodd" fill="#F8F8F8" d="M250.187,414.287c-106.164,0-192.278-2.812-192.278-6.279
			c0-3.465,86.114-6.275,192.278-6.275c106.162,0,192.264,2.811,192.264,6.275C442.451,411.475,356.35,414.287,250.187,414.287
			L250.187,414.287z"/>
		<path fill-rule="evenodd" clip-rule="evenodd" fill="#F7F7F7" d="M250.213,414.206c-105.081,0-190.317-2.78-190.317-6.208
			c0-3.426,85.235-6.205,190.317-6.205c105.079,0,190.302,2.779,190.302,6.205C440.516,411.426,355.292,414.206,250.213,414.206
			L250.213,414.206z"/>
		<path fill-rule="evenodd" clip-rule="evenodd" fill="#F6F6F6" d="M250.239,414.126c-103.998,0-188.355-2.749-188.355-6.137
			c0-3.387,84.357-6.134,188.355-6.134c103.996,0,188.341,2.747,188.341,6.134C438.58,411.377,354.235,414.126,250.239,414.126
			L250.239,414.126z"/>
		<path fill-rule="evenodd" clip-rule="evenodd" fill="#F5F5F5" d="M250.265,414.045c-102.916,0-186.394-2.717-186.394-6.067
			c0-3.348,83.479-6.063,186.394-6.063c102.913,0,186.38,2.716,186.38,6.063C436.644,411.328,353.178,414.045,250.265,414.045
			L250.265,414.045z"/>
		<path fill-rule="evenodd" clip-rule="evenodd" fill="#F4F4F4" d="M250.291,413.964c-101.833,0-184.433-2.685-184.433-5.996
			c0-3.309,82.6-5.992,184.433-5.992c101.83,0,184.418,2.684,184.418,5.992C434.709,411.279,352.12,413.964,250.291,413.964
			L250.291,413.964z"/>
		<path fill-rule="evenodd" clip-rule="evenodd" fill="#F3F3F3" d="M250.316,413.883c-100.75,0-182.472-2.654-182.472-5.925
			c0-3.27,81.722-5.922,182.472-5.922c100.747,0,182.457,2.652,182.457,5.922C432.773,411.23,351.063,413.883,250.316,413.883
			L250.316,413.883z"/>
		<path fill-rule="evenodd" clip-rule="evenodd" fill="#F2F2F2" d="M250.342,413.803c-99.667,0-180.51-2.622-180.51-5.854
			c0-3.231,80.843-5.851,180.51-5.851c99.664,0,180.496,2.62,180.496,5.851C430.838,411.181,350.006,413.803,250.342,413.803
			L250.342,413.803z"/>
		<path fill-rule="evenodd" clip-rule="evenodd" fill="#F1F1F1" d="M250.368,413.722c-98.584,0-178.549-2.59-178.549-5.783
			c0-3.192,79.965-5.78,178.549-5.78c98.581,0,178.534,2.589,178.534,5.78C428.902,411.132,348.949,413.722,250.368,413.722
			L250.368,413.722z"/>
		<path fill-rule="evenodd" clip-rule="evenodd" fill="#F0F0F0" d="M250.394,413.641c-97.501,0-176.588-2.558-176.588-5.712
			c0-3.153,79.087-5.71,176.588-5.71c97.498,0,176.573,2.557,176.573,5.71C426.967,411.083,347.891,413.641,250.394,413.641
			L250.394,413.641z"/>
		<path fill-rule="evenodd" clip-rule="evenodd" fill="#EFEFEF" d="M250.419,413.561c-96.418,0-174.626-2.527-174.626-5.641
			c0-3.114,78.208-5.639,174.626-5.639c96.414,0,174.612,2.525,174.612,5.639C425.031,411.034,346.834,413.561,250.419,413.561
			L250.419,413.561z"/>
		<path fill-rule="evenodd" clip-rule="evenodd" fill="#EEEEEE" d="M250.445,413.48c-95.335,0-172.665-2.495-172.665-5.571
			c0-3.075,77.33-5.568,172.665-5.568c95.331,0,172.65,2.494,172.65,5.568C423.096,410.985,345.777,413.48,250.445,413.48
			L250.445,413.48z"/>
		<path fill-rule="evenodd" clip-rule="evenodd" fill="#EDEDED" d="M250.471,413.399c-94.252,0-170.704-2.463-170.704-5.5
			c0-3.036,76.451-5.498,170.704-5.498c94.248,0,170.689,2.462,170.689,5.498C421.16,410.936,344.719,413.399,250.471,413.399
			L250.471,413.399z"/>
		<path fill-rule="evenodd" clip-rule="evenodd" fill="#ECECEC" d="M250.497,413.318c-93.17,0-168.742-2.431-168.742-5.429
			c0-2.997,75.573-5.427,168.742-5.427c93.165,0,168.728,2.43,168.728,5.427C419.224,410.887,343.662,413.318,250.497,413.318
			L250.497,413.318z"/>
		<path fill-rule="evenodd" clip-rule="evenodd" fill="#EBEBEB" d="M250.522,413.238c-92.087,0-166.781-2.4-166.781-5.358
			c0-2.958,74.694-5.356,166.781-5.356c92.082,0,166.766,2.399,166.766,5.356C417.289,410.838,342.605,413.238,250.522,413.238
			L250.522,413.238z"/>
		<path fill-rule="evenodd" clip-rule="evenodd" fill="#EAEAEA" d="M250.548,413.157c-91.004,0-164.82-2.368-164.82-5.287
			c0-2.919,73.816-5.285,164.82-5.285c90.999,0,164.805,2.367,164.805,5.285C415.353,410.789,341.547,413.157,250.548,413.157
			L250.548,413.157z"/>
		<path fill-rule="evenodd" clip-rule="evenodd" fill="#E9E9E9" d="M250.574,413.076c-89.921,0-162.859-2.336-162.859-5.216
			c0-2.88,72.938-5.215,162.859-5.215c89.916,0,162.844,2.335,162.844,5.215C413.418,410.74,340.49,413.076,250.574,413.076
			L250.574,413.076z"/>
		<path fill-rule="evenodd" clip-rule="evenodd" fill="#E8E8E8" d="M250.6,412.996c-88.838,0-160.897-2.305-160.897-5.146
			c0-2.841,72.059-5.144,160.897-5.144c88.833,0,160.882,2.303,160.882,5.144C411.482,410.691,339.433,412.996,250.6,412.996
			L250.6,412.996z"/>
		<path fill-rule="evenodd" clip-rule="evenodd" fill="#E7E7E7" d="M250.626,412.915c-87.755,0-158.936-2.273-158.936-5.075
			c0-2.802,71.181-5.073,158.936-5.073c87.75,0,158.921,2.272,158.921,5.073C409.547,410.642,338.375,412.915,250.626,412.915
			L250.626,412.915z"/>
		<path fill-rule="evenodd" clip-rule="evenodd" fill="#E6E6E6" d="M250.651,412.834c-86.672,0-156.975-2.241-156.975-5.004
			c0-2.763,70.302-5.003,156.975-5.003c86.667,0,156.96,2.24,156.96,5.003C407.611,410.593,337.318,412.834,250.651,412.834
			L250.651,412.834z"/>
		<path fill-rule="evenodd" clip-rule="evenodd" fill="#E5E5E5" d="M250.677,412.754c-85.589,0-155.013-2.209-155.013-4.933
			c0-2.724,69.424-4.932,155.013-4.932c85.584,0,154.998,2.208,154.998,4.932C405.676,410.544,336.261,412.754,250.677,412.754
			L250.677,412.754z"/>
		<path fill-rule="evenodd" clip-rule="evenodd" fill="#E4E4E4" d="M250.703,412.673c-84.507,0-153.052-2.178-153.052-4.862
			c0-2.685,68.546-4.861,153.052-4.861c84.501,0,153.037,2.177,153.037,4.861C403.74,410.495,335.203,412.673,250.703,412.673
			L250.703,412.673z"/>
		<path fill-rule="evenodd" clip-rule="evenodd" fill="#E3E3E3" d="M250.729,412.592c-83.424,0-151.091-2.146-151.091-4.791
			c0-2.646,67.667-4.79,151.091-4.79c83.417,0,151.076,2.145,151.076,4.79C401.804,410.446,334.146,412.592,250.729,412.592
			L250.729,412.592z"/>
		<path fill-rule="evenodd" clip-rule="evenodd" fill="#E2E2E2" d="M250.754,412.511c-82.341,0-149.129-2.114-149.129-4.72
			c0-2.607,66.789-4.72,149.129-4.72c82.334,0,149.114,2.113,149.114,4.72C399.869,410.397,333.089,412.511,250.754,412.511
			L250.754,412.511z"/>
		<path fill-rule="evenodd" clip-rule="evenodd" fill="#E1E1E1" d="M250.78,412.431c-81.258,0-147.168-2.083-147.168-4.65
			c0-2.567,65.91-4.649,147.168-4.649c81.251,0,147.153,2.082,147.153,4.649C397.933,410.348,332.031,412.431,250.78,412.431
			L250.78,412.431z"/>
		<path fill-rule="evenodd" clip-rule="evenodd" fill="#E0E0E0" d="M250.806,412.35c-80.175,0-145.207-2.051-145.207-4.579
			c0-2.529,65.032-4.578,145.207-4.578c80.168,0,145.192,2.05,145.192,4.578C395.998,410.299,330.974,412.35,250.806,412.35
			L250.806,412.35z"/>
		<path fill-rule="evenodd" clip-rule="evenodd" fill="#DFDFDF" d="M250.832,412.269c-79.092,0-143.246-2.019-143.246-4.508
			c0-2.49,64.153-4.508,143.246-4.508c79.085,0,143.231,2.018,143.231,4.508C394.062,410.25,329.917,412.269,250.832,412.269
			L250.832,412.269z"/>
		<path fill-rule="evenodd" clip-rule="evenodd" fill="#DEDEDE" d="M250.857,412.189c-78.009,0-141.284-1.987-141.284-4.437
			c0-2.45,63.275-4.437,141.284-4.437c78.002,0,141.269,1.986,141.269,4.437C392.127,410.201,328.859,412.189,250.857,412.189
			L250.857,412.189z"/>
		<path fill-rule="evenodd" clip-rule="evenodd" fill="#DDDDDD" d="M250.883,412.108c-76.926,0-139.323-1.956-139.323-4.366
			c0-2.411,62.397-4.366,139.323-4.366c76.919,0,139.308,1.955,139.308,4.366C390.191,410.152,327.802,412.108,250.883,412.108
			L250.883,412.108z"/>
		<path fill-rule="evenodd" clip-rule="evenodd" fill="#DCDCDC" d="M250.909,412.027c-75.843,0-137.362-1.924-137.362-4.295
			c0-2.372,61.518-4.296,137.362-4.296c75.836,0,137.347,1.923,137.347,4.296C388.256,410.103,326.745,412.027,250.909,412.027
			L250.909,412.027z"/>
		<path fill-rule="evenodd" clip-rule="evenodd" fill="#DBDBDB" d="M250.935,411.947c-74.761,0-135.4-1.892-135.4-4.224
			c0-2.333,60.64-4.225,135.4-4.225c74.753,0,135.385,1.891,135.385,4.225C386.32,410.054,325.688,411.947,250.935,411.947
			L250.935,411.947z"/>
		<path fill-rule="evenodd" clip-rule="evenodd" fill="#DADADA" d="M250.961,411.866c-73.678,0-133.439-1.861-133.439-4.154
			c0-2.294,59.761-4.154,133.439-4.154c73.67,0,133.424,1.86,133.424,4.154C384.384,410.005,324.63,411.866,250.961,411.866
			L250.961,411.866z"/>
		<path fill-rule="evenodd" clip-rule="evenodd" fill="#D9D9D9" d="M250.986,411.785c-72.595,0-131.478-1.829-131.478-4.083
			c0-2.255,58.883-4.083,131.478-4.083c72.587,0,131.463,1.828,131.463,4.083C382.449,409.956,323.573,411.785,250.986,411.785
			L250.986,411.785z"/>
		<path fill-rule="evenodd" clip-rule="evenodd" fill="#D9D9D9" d="M251.012,411.704c-71.512,0-129.516-1.797-129.516-4.012
			c0-2.216,58.005-4.013,129.516-4.013c71.504,0,129.501,1.796,129.501,4.013C380.513,409.907,322.516,411.704,251.012,411.704
			L251.012,411.704z"/>
		<path fill-rule="evenodd" clip-rule="evenodd" fill="#D8D8D8" d="M251.038,411.624c-70.429,0-127.555-1.765-127.555-3.941
			c0-2.177,57.126-3.942,127.555-3.942c70.42,0,127.54,1.765,127.54,3.942C378.578,409.858,321.458,411.624,251.038,411.624
			L251.038,411.624z"/>
		<path fill-rule="evenodd" clip-rule="evenodd" fill="#D7D7D7" d="M251.064,411.543c-69.346,0-125.594-1.734-125.594-3.87
			c0-2.138,56.248-3.871,125.594-3.871c69.337,0,125.579,1.733,125.579,3.871C376.642,409.809,320.401,411.543,251.064,411.543
			L251.064,411.543z"/>
		<path fill-rule="evenodd" clip-rule="evenodd" fill="#D6D6D6" d="M251.089,411.462c-68.263,0-123.633-1.702-123.633-3.799
			c0-2.099,55.369-3.801,123.633-3.801c68.254,0,123.617,1.701,123.617,3.801C374.707,409.76,319.344,411.462,251.089,411.462
			L251.089,411.462z"/>
		<path fill-rule="evenodd" clip-rule="evenodd" fill="#D5D5D5" d="M251.115,411.382c-67.18,0-121.671-1.67-121.671-3.728
			c0-2.06,54.491-3.73,121.671-3.73c67.171,0,121.656,1.669,121.656,3.73C372.771,409.711,318.286,411.382,251.115,411.382
			L251.115,411.382z"/>
		<path fill-rule="evenodd" clip-rule="evenodd" fill="#D4D4D4" d="M251.141,411.301c-66.098,0-119.71-1.638-119.71-3.658
			c0-2.021,53.612-3.659,119.71-3.659c66.088,0,119.695,1.638,119.695,3.659C370.836,409.662,317.229,411.301,251.141,411.301
			L251.141,411.301z"/>
		<path fill-rule="evenodd" clip-rule="evenodd" fill="#D3D3D3" d="M251.167,411.22c-65.015,0-117.749-1.607-117.749-3.587
			c0-1.982,52.734-3.588,117.749-3.588c65.005,0,117.733,1.606,117.733,3.588C368.9,409.613,316.172,411.22,251.167,411.22
			L251.167,411.22z"/>
		<path fill-rule="evenodd" clip-rule="evenodd" fill="#D2D2D2" d="M251.192,411.139c-63.932,0-115.787-1.575-115.787-3.516
			c0-1.943,51.856-3.518,115.787-3.518c63.922,0,115.772,1.574,115.772,3.518C366.964,409.564,315.114,411.139,251.192,411.139
			L251.192,411.139z"/>
		<path fill-rule="evenodd" clip-rule="evenodd" fill="#D1D1D1" d="M251.218,411.059c-62.849,0-113.826-1.543-113.826-3.445
			c0-1.904,50.977-3.447,113.826-3.447c62.839,0,113.811,1.543,113.811,3.447C365.029,409.515,314.057,411.059,251.218,411.059
			L251.218,411.059z"/>
		<path fill-rule="evenodd" clip-rule="evenodd" fill="#D0D0D0" d="M251.244,410.978c-61.766,0-111.865-1.512-111.865-3.374
			c0-1.865,50.099-3.376,111.865-3.376c61.756,0,111.849,1.511,111.849,3.376C363.093,409.466,313,410.978,251.244,410.978
			L251.244,410.978z"/>
		<path fill-rule="evenodd" clip-rule="evenodd" fill="#CFCFCF" d="M251.27,410.897c-60.683,0-109.903-1.48-109.903-3.303
			c0-1.826,49.22-3.306,109.903-3.306c60.673,0,109.888,1.479,109.888,3.306C361.158,409.417,311.942,410.897,251.27,410.897
			L251.27,410.897z"/>
		<path fill-rule="evenodd" clip-rule="evenodd" fill="#CECECE" d="M251.296,410.817c-59.6,0-107.942-1.448-107.942-3.233
			c0-1.787,48.342-3.235,107.942-3.235c59.59,0,107.927,1.448,107.927,3.235C359.222,409.368,310.885,410.817,251.296,410.817
			L251.296,410.817z"/>
		<path fill-rule="evenodd" clip-rule="evenodd" fill="#CDCDCD" d="M251.321,410.736c-58.517,0-105.981-1.416-105.981-3.162
			c0-1.748,47.464-3.164,105.981-3.164c58.506,0,105.965,1.416,105.965,3.164C357.287,409.32,309.828,410.736,251.321,410.736
			L251.321,410.736z"/>
		<path fill-rule="evenodd" clip-rule="evenodd" fill="#CCCCCC" d="M251.347,410.655c-57.434,0-104.02-1.385-104.02-3.091
			c0-1.709,46.585-3.094,104.02-3.094c57.423,0,104.004,1.384,104.004,3.094C355.351,409.271,308.77,410.655,251.347,410.655
			L251.347,410.655z"/>
		<path fill-rule="evenodd" clip-rule="evenodd" fill="#CBCBCB" d="M251.373,410.575c-56.352,0-102.058-1.353-102.058-3.02
			c0-1.67,45.707-3.023,102.058-3.023c56.34,0,102.043,1.352,102.043,3.023C353.415,409.222,307.713,410.575,251.373,410.575
			L251.373,410.575z"/>
		<path fill-rule="evenodd" clip-rule="evenodd" fill="#CACACA" d="M251.399,410.494c-55.269,0-100.097-1.321-100.097-2.949
			c0-1.631,44.828-2.952,100.097-2.952c55.257,0,100.081,1.321,100.081,2.952C351.48,409.173,306.656,410.494,251.399,410.494
			L251.399,410.494z"/>
		<path fill-rule="evenodd" clip-rule="evenodd" fill="#C9C9C9" d="M251.424,410.413c-54.186,0-98.136-1.29-98.136-2.878
			c0-1.592,43.95-2.881,98.136-2.881c54.174,0,98.12,1.289,98.12,2.881C349.544,409.124,305.598,410.413,251.424,410.413
			L251.424,410.413z"/>
		<path fill-rule="evenodd" clip-rule="evenodd" fill="#C8C8C8" d="M251.45,410.332c-53.103,0-96.174-1.258-96.174-2.807
			c0-1.553,43.071-2.811,96.174-2.811c53.091,0,96.159,1.257,96.159,2.811C347.609,409.075,304.541,410.332,251.45,410.332
			L251.45,410.332z"/>
		<path fill-rule="evenodd" clip-rule="evenodd" fill="#C7C7C7" d="M251.476,410.252c-52.02,0-94.213-1.226-94.213-2.737
			c0-1.514,42.193-2.74,94.213-2.74c52.008,0,94.197,1.226,94.197,2.74C345.673,409.026,303.484,410.252,251.476,410.252
			L251.476,410.252z"/>
		<path fill-rule="evenodd" clip-rule="evenodd" fill="#C6C6C6" d="M251.502,410.171c-50.937,0-92.252-1.194-92.252-2.666
			c0-1.475,41.315-2.669,92.252-2.669c50.925,0,92.236,1.194,92.236,2.669C343.738,408.977,302.427,410.171,251.502,410.171
			L251.502,410.171z"/>
		<path fill-rule="evenodd" clip-rule="evenodd" fill="#C5C5C5" d="M251.527,410.09c-49.854,0-90.29-1.163-90.29-2.595
			c0-1.436,40.436-2.599,90.29-2.599c49.842,0,90.275,1.162,90.275,2.599C341.802,408.928,301.369,410.09,251.527,410.09
			L251.527,410.09z"/>
		<path fill-rule="evenodd" clip-rule="evenodd" fill="#C4C4C4" d="M251.553,410.01c-48.771,0-88.329-1.131-88.329-2.524
			c0-1.397,39.558-2.528,88.329-2.528c48.759,0,88.313,1.131,88.313,2.528C339.867,408.879,300.312,410.01,251.553,410.01
			L251.553,410.01z"/>
		<path fill-rule="evenodd" clip-rule="evenodd" fill="#C3C3C3" d="M251.579,409.929c-47.689,0-86.368-1.099-86.368-2.453
			c0-1.358,38.679-2.457,86.368-2.457c47.676,0,86.352,1.099,86.352,2.457C337.931,408.83,299.255,409.929,251.579,409.929
			L251.579,409.929z"/>
		<path fill-rule="evenodd" clip-rule="evenodd" fill="#C2C2C2" d="M251.605,409.848c-46.606,0-84.407-1.068-84.407-2.382
			c0-1.319,37.801-2.386,84.407-2.386c46.593,0,84.391,1.067,84.391,2.386C335.995,408.781,298.197,409.848,251.605,409.848
			L251.605,409.848z"/>
		<path fill-rule="evenodd" clip-rule="evenodd" fill="#C1C1C1" d="M251.63,409.767c-45.523,0-82.445-1.036-82.445-2.311
			c0-1.28,36.922-2.316,82.445-2.316c45.509,0,82.429,1.035,82.429,2.316C334.06,408.732,297.14,409.767,251.63,409.767
			L251.63,409.767z"/>
		<path fill-rule="evenodd" clip-rule="evenodd" fill="#C0C0C0" d="M251.656,409.687c-44.44,0-80.484-1.004-80.484-2.241
			c0-1.241,36.044-2.245,80.484-2.245c44.426,0,80.468,1.004,80.468,2.245C332.124,408.683,296.083,409.687,251.656,409.687
			L251.656,409.687z"/>
		<path fill-rule="evenodd" clip-rule="evenodd" fill="#BFBFBF" d="M251.682,409.606c-43.357,0-78.523-0.972-78.523-2.17
			c0-1.202,35.166-2.174,78.523-2.174c43.343,0,78.507,0.972,78.507,2.174C330.189,408.634,295.025,409.606,251.682,409.606
			L251.682,409.606z"/>
		<path fill-rule="evenodd" clip-rule="evenodd" fill="#BEBEBE" d="M251.708,409.525c-42.274,0-76.561-0.941-76.561-2.099
			c0-1.163,34.287-2.104,76.561-2.104c42.26,0,76.545,0.94,76.545,2.104C328.253,408.585,293.968,409.525,251.708,409.525
			L251.708,409.525z"/>
		<path fill-rule="evenodd" clip-rule="evenodd" fill="#BDBDBD" d="M251.734,409.445c-41.191,0-74.6-0.909-74.6-2.028
			c0-1.124,33.409-2.033,74.6-2.033c41.177,0,74.584,0.909,74.584,2.033C326.318,408.536,292.911,409.445,251.734,409.445
			L251.734,409.445z"/>
		<path fill-rule="evenodd" clip-rule="evenodd" fill="#BCBCBC" d="M251.759,409.364c-40.108,0-72.639-0.877-72.639-1.957
			c0-1.085,32.53-1.962,72.639-1.962c40.094,0,72.623,0.877,72.623,1.962C324.382,408.487,291.853,409.364,251.759,409.364
			L251.759,409.364z"/>
		<path fill-rule="evenodd" clip-rule="evenodd" fill="#BBBBBB" d="M251.785,409.283c-39.025,0-70.677-0.845-70.677-1.886
			c0-1.046,31.652-1.891,70.677-1.891c39.011,0,70.661,0.845,70.661,1.891C322.447,408.438,290.796,409.283,251.785,409.283
			L251.785,409.283z"/>
		<path fill-rule="evenodd" clip-rule="evenodd" fill="#BABABA" d="M251.811,409.203c-37.943,0-68.716-0.814-68.716-1.815
			c0-1.007,30.774-1.821,68.716-1.821c37.928,0,68.7,0.814,68.7,1.821C320.511,408.389,289.739,409.203,251.811,409.203
			L251.811,409.203z"/>
		<path fill-rule="evenodd" clip-rule="evenodd" fill="#B9B9B9" d="M251.837,409.122c-36.86,0-66.755-0.782-66.755-1.745
			c0-0.968,29.895-1.75,66.755-1.75c36.845,0,66.739,0.782,66.739,1.75C318.575,408.34,288.681,409.122,251.837,409.122
			L251.837,409.122z"/>
		<path fill-rule="evenodd" clip-rule="evenodd" fill="#B8B8B8" d="M251.862,409.041c-35.777,0-64.794-0.75-64.794-1.674
			c0-0.929,29.017-1.679,64.794-1.679c35.762,0,64.778,0.75,64.778,1.679C316.64,408.291,287.624,409.041,251.862,409.041
			L251.862,409.041z"/>
		<path fill-rule="evenodd" clip-rule="evenodd" fill="#B7B7B7" d="M251.888,408.96c-34.694,0-62.832-0.719-62.832-1.603
			c0-0.89,28.138-1.609,62.832-1.609c34.679,0,62.816,0.718,62.816,1.609C314.704,408.242,286.567,408.96,251.888,408.96
			L251.888,408.96z"/>
		<path fill-rule="evenodd" clip-rule="evenodd" fill="#B6B6B6" d="M251.914,408.88c-33.611,0-60.871-0.687-60.871-1.532
			c0-0.851,27.26-1.538,60.871-1.538c33.596,0,60.855,0.687,60.855,1.538C312.769,408.193,285.509,408.88,251.914,408.88
			L251.914,408.88z"/>
		<path fill-rule="evenodd" clip-rule="evenodd" fill="#B5B5B5" d="M251.94,408.799c-32.528,0-58.91-0.655-58.91-1.461
			c0-0.812,26.381-1.467,58.91-1.467c32.512,0,58.894,0.655,58.894,1.467C310.833,408.144,284.452,408.799,251.94,408.799
			L251.94,408.799z"/>
		<path fill-rule="evenodd" clip-rule="evenodd" fill="#B4B4B4" d="M251.965,408.718c-31.445,0-56.948-0.623-56.948-1.39
			c0-0.773,25.503-1.397,56.948-1.397c31.429,0,56.932,0.623,56.932,1.397C308.898,408.095,283.395,408.718,251.965,408.718
			L251.965,408.718z"/>
		<path fill-rule="evenodd" clip-rule="evenodd" fill="#B3B3B3" d="M251.991,408.638c-30.362,0-54.987-0.592-54.987-1.319
			c0-0.734,24.625-1.326,54.987-1.326c30.346,0,54.971,0.592,54.971,1.326C306.962,408.046,282.337,408.638,251.991,408.638
			L251.991,408.638z"/>
	</g>
</g>
<g id="JmpDfY_1_">
	<g>
		<path fill="#B845A7" d="M63.885,272.345c0-7.538,0-15.076,0-22.614c0.71-4.046,1.385-8.098,2.136-12.136
			c9.901-53.23,39.953-90.481,89.907-110.88c13.035-5.323,27.544-7.034,41.377-10.404c7.538,0,15.076,0,22.613,0
			c4.061,0.71,8.129,1.377,12.181,2.136c53.192,9.961,90.508,39.928,110.845,89.944c5.3,13.033,7.026,27.52,10.394,41.339
			c0,7.538,0,15.076,0,22.614c-0.708,4.042-1.377,8.09-2.129,12.123c-9.976,53.445-40.098,90.835-90.43,111.089
			c-12.9,5.191-27.202,6.899-40.86,10.207c-7.538,0-15.076,0-22.613,0c-4.06-0.712-8.128-1.385-12.18-2.142
			c-53.215-9.938-90.519-39.928-110.862-89.947C68.964,300.648,67.247,286.162,63.885,272.345z M107.925,261.031
			c-0.01,55.493,45.042,100.607,100.553,100.692c55.508,0.085,100.663-44.889,100.819-100.414
			c0.156-55.735-45.106-101.066-100.823-100.976C152.975,160.422,107.935,205.529,107.925,261.031z"/>
		<path fill="#B845A7" d="M196.211,277.947c0-27.413-0.154-54.113,0.099-80.809c0.071-7.527,5.815-12.366,12.867-12.085
			c6.916,0.275,11.745,5.377,11.828,13.208c0.171,15.995,0.058,31.993,0.062,47.989c0,2.04,0,4.079,0,6.855
			c5.946,0,11.518-0.001,17.089,0c12.609,0.004,25.218-0.028,37.827,0.03c5.552,0.025,10.001,2.335,12.191,7.542
			c1.854,4.409,1.72,9.254-1.937,12.595c-2.458,2.246-6.115,4.434-9.264,4.475C250.284,278.097,223.588,277.947,196.211,277.947z"/>
	</g>
</g>
<g>
	<path fill="#B845A7" d="M352.462,96.632c-0.125,8.75-4.75,14.125-13,22c-6.25,6.125-8.5,9.875-8.5,13.75
		c0,4.5,2.125,7.75,7.25,7.75c6.875,0,8.25-5,8.5-9.375c0.125-0.875,0.125-1.75,0.125-2.625h22.875
		c0.125,1.125,0.125,1.625,0.125,2.25c0,18-13.75,31.125-32.875,31.125c-19.5,0-30-14.125-30-26.5c0-11.5,7.375-18.25,14.125-24.5
		c8.125-7.5,9.25-10,9.625-13.875H352.462z M330.712,67.132h21.75v21.25h-21.75V67.132z"/>
	<path fill="#B845A7" d="M399.211,107.132c0.125-8.75,4.75-14.125,13-22c6.25-6.125,8.5-9.875,8.5-13.75c0-4.5-2.125-7.75-7.25-7.75
		c-6.875,0-8.25,5-8.5,9.375c-0.125,0.875-0.125,1.75-0.125,2.625h-22.875c-0.125-1.125-0.125-1.625-0.125-2.25
		c0-18,13.75-31.125,32.875-31.125c19.5,0,30,14.125,30,26.5c0,11.5-7.375,18.25-14.125,24.5c-8.125,7.5-9.25,10-9.625,13.875
		H399.211z M420.961,136.507h-21.75v-21.25h21.75V136.507z"/>
</g>
</svg>
