<?xml version="1.0" encoding="utf-8"?>
<!-- Generator: Adobe Illustrator 17.0.0, SVG Export Plug-In . SVG Version: 6.00 Build 0)  -->
<!DOCTYPE svg PUBLIC "-//W3C//DTD SVG 1.1//EN" "http://www.w3.org/Graphics/SVG/1.1/DTD/svg11.dtd">
<svg version="1.1" id="Capa_1" xmlns="http://www.w3.org/2000/svg" xmlns:xlink="http://www.w3.org/1999/xlink" x="0px" y="0px"
	 width="500px" height="500px" viewBox="0 0 500 500" enable-background="new 0 0 500 500" xml:space="preserve">
<g opacity="0.9">
	<path fill-rule="evenodd" clip-rule="evenodd" fill="#FFFFFF" d="M250.007,360.448C136.263,360.448,44,357.413,44,353.673
		c0-3.738,92.263-6.77,206.007-6.77c113.744,0,205.993,3.033,205.993,6.77C456,357.413,363.751,360.448,250.007,360.448
		L250.007,360.448z"/>
	<path fill-rule="evenodd" clip-rule="evenodd" fill="#FEFEFE" d="M250.033,360.367c-112.661,0-204.046-3.002-204.046-6.704
		c0-3.699,91.384-6.7,204.046-6.7c112.661,0,204.032,3.001,204.032,6.7C454.064,357.365,362.694,360.367,250.033,360.367
		L250.033,360.367z"/>
	<path fill-rule="evenodd" clip-rule="evenodd" fill="#FDFDFD" d="M250.059,360.286c-111.579,0-202.085-2.971-202.085-6.633
		c0-3.66,90.506-6.629,202.085-6.629c111.578,0,202.07,2.969,202.07,6.629C452.129,357.315,361.636,360.286,250.059,360.286
		L250.059,360.286z"/>
	<path fill-rule="evenodd" clip-rule="evenodd" fill="#FCFCFC" d="M250.084,360.206c-110.496,0-200.123-2.939-200.123-6.563
		c0-3.621,89.628-6.558,200.123-6.558c110.495,0,200.109,2.937,200.109,6.558C450.193,357.267,360.579,360.206,250.084,360.206
		L250.084,360.206z"/>
	<path fill-rule="evenodd" clip-rule="evenodd" fill="#FBFBFB" d="M250.11,360.125c-109.413,0-198.162-2.907-198.162-6.492
		c0-3.582,88.749-6.487,198.162-6.487c109.412,0,198.148,2.906,198.148,6.487C448.258,357.218,359.522,360.125,250.11,360.125
		L250.11,360.125z"/>
	<path fill-rule="evenodd" clip-rule="evenodd" fill="#FAFAFA" d="M250.136,360.044c-108.33,0-196.201-2.876-196.201-6.421
		c0-3.543,87.871-6.417,196.201-6.417c108.328,0,196.186,2.874,196.186,6.417C446.322,357.169,358.464,360.044,250.136,360.044
		L250.136,360.044z"/>
	<path fill-rule="evenodd" clip-rule="evenodd" fill="#F9F9F9" d="M250.162,359.963c-107.247,0-194.239-2.844-194.239-6.35
		c0-3.504,86.992-6.346,194.239-6.346c107.245,0,194.225,2.842,194.225,6.346C444.387,357.12,357.407,359.963,250.162,359.963
		L250.162,359.963z"/>
	<path fill-rule="evenodd" clip-rule="evenodd" fill="#F8F8F8" d="M250.188,359.883c-106.164,0-192.278-2.812-192.278-6.279
		c0-3.465,86.114-6.275,192.278-6.275c106.162,0,192.264,2.811,192.264,6.275C442.451,357.071,356.35,359.883,250.188,359.883
		L250.188,359.883z"/>
	<path fill-rule="evenodd" clip-rule="evenodd" fill="#F7F7F7" d="M250.213,359.802c-105.081,0-190.317-2.78-190.317-6.208
		c0-3.426,85.235-6.205,190.317-6.205c105.079,0,190.302,2.779,190.302,6.205C440.516,357.022,355.292,359.802,250.213,359.802
		L250.213,359.802z"/>
	<path fill-rule="evenodd" clip-rule="evenodd" fill="#F6F6F6" d="M250.239,359.721c-103.998,0-188.355-2.749-188.355-6.137
		c0-3.387,84.357-6.134,188.355-6.134c103.996,0,188.341,2.747,188.341,6.134C438.58,356.973,354.235,359.721,250.239,359.721
		L250.239,359.721z"/>
	<path fill-rule="evenodd" clip-rule="evenodd" fill="#F5F5F5" d="M250.265,359.641c-102.916,0-186.394-2.717-186.394-6.067
		c0-3.348,83.479-6.063,186.394-6.063c102.913,0,186.38,2.716,186.38,6.063C436.644,356.924,353.178,359.641,250.265,359.641
		L250.265,359.641z"/>
	<path fill-rule="evenodd" clip-rule="evenodd" fill="#F4F4F4" d="M250.291,359.56c-101.833,0-184.433-2.685-184.433-5.996
		c0-3.309,82.6-5.992,184.433-5.992c101.83,0,184.418,2.684,184.418,5.992C434.709,356.875,352.12,359.56,250.291,359.56
		L250.291,359.56z"/>
	<path fill-rule="evenodd" clip-rule="evenodd" fill="#F3F3F3" d="M250.316,359.479c-100.75,0-182.472-2.654-182.472-5.925
		c0-3.27,81.722-5.922,182.472-5.922c100.747,0,182.457,2.652,182.457,5.922C432.773,356.826,351.063,359.479,250.316,359.479
		L250.316,359.479z"/>
	<path fill-rule="evenodd" clip-rule="evenodd" fill="#F2F2F2" d="M250.342,359.398c-99.667,0-180.51-2.622-180.51-5.854
		c0-3.231,80.843-5.851,180.51-5.851c99.664,0,180.496,2.62,180.496,5.851C430.838,356.777,350.006,359.398,250.342,359.398
		L250.342,359.398z"/>
	<path fill-rule="evenodd" clip-rule="evenodd" fill="#F1F1F1" d="M250.368,359.318c-98.584,0-178.549-2.59-178.549-5.783
		c0-3.192,79.965-5.78,178.549-5.78c98.581,0,178.534,2.589,178.534,5.78C428.902,356.728,348.949,359.318,250.368,359.318
		L250.368,359.318z"/>
	<path fill-rule="evenodd" clip-rule="evenodd" fill="#F0F0F0" d="M250.394,359.237c-97.501,0-176.588-2.558-176.588-5.712
		c0-3.153,79.087-5.71,176.588-5.71c97.498,0,176.573,2.557,176.573,5.71C426.967,356.679,347.891,359.237,250.394,359.237
		L250.394,359.237z"/>
	<path fill-rule="evenodd" clip-rule="evenodd" fill="#EFEFEF" d="M250.419,359.156c-96.418,0-174.626-2.527-174.626-5.641
		c0-3.114,78.208-5.639,174.626-5.639c96.414,0,174.612,2.525,174.612,5.639C425.031,356.63,346.834,359.156,250.419,359.156
		L250.419,359.156z"/>
	<path fill-rule="evenodd" clip-rule="evenodd" fill="#EEEEEE" d="M250.445,359.076c-95.335,0-172.665-2.495-172.665-5.571
		c0-3.075,77.33-5.568,172.665-5.568c95.331,0,172.65,2.494,172.65,5.568C423.096,356.581,345.777,359.076,250.445,359.076
		L250.445,359.076z"/>
	<path fill-rule="evenodd" clip-rule="evenodd" fill="#EDEDED" d="M250.471,358.995c-94.252,0-170.704-2.463-170.704-5.5
		c0-3.036,76.451-5.498,170.704-5.498c94.248,0,170.689,2.462,170.689,5.498C421.16,356.532,344.719,358.995,250.471,358.995
		L250.471,358.995z"/>
	<path fill-rule="evenodd" clip-rule="evenodd" fill="#ECECEC" d="M250.497,358.914c-93.17,0-168.742-2.431-168.742-5.429
		c0-2.997,75.573-5.427,168.742-5.427c93.165,0,168.728,2.43,168.728,5.427C419.224,356.483,343.662,358.914,250.497,358.914
		L250.497,358.914z"/>
	<path fill-rule="evenodd" clip-rule="evenodd" fill="#EBEBEB" d="M250.522,358.834c-92.087,0-166.781-2.4-166.781-5.358
		c0-2.958,74.694-5.356,166.781-5.356c92.082,0,166.766,2.399,166.766,5.356C417.289,356.434,342.605,358.834,250.522,358.834
		L250.522,358.834z"/>
	<path fill-rule="evenodd" clip-rule="evenodd" fill="#EAEAEA" d="M250.548,358.753c-91.004,0-164.82-2.368-164.82-5.287
		c0-2.919,73.816-5.285,164.82-5.285c90.999,0,164.805,2.367,164.805,5.285C415.353,356.385,341.547,358.753,250.548,358.753
		L250.548,358.753z"/>
	<path fill-rule="evenodd" clip-rule="evenodd" fill="#E9E9E9" d="M250.574,358.672c-89.921,0-162.859-2.336-162.859-5.216
		c0-2.88,72.938-5.215,162.859-5.215c89.916,0,162.844,2.335,162.844,5.215C413.418,356.336,340.49,358.672,250.574,358.672
		L250.574,358.672z"/>
	<path fill-rule="evenodd" clip-rule="evenodd" fill="#E8E8E8" d="M250.6,358.591c-88.838,0-160.897-2.305-160.897-5.146
		c0-2.841,72.059-5.144,160.897-5.144c88.833,0,160.882,2.303,160.882,5.144C411.482,356.287,339.433,358.591,250.6,358.591
		L250.6,358.591z"/>
	<path fill-rule="evenodd" clip-rule="evenodd" fill="#E7E7E7" d="M250.626,358.511c-87.755,0-158.936-2.273-158.936-5.075
		c0-2.802,71.181-5.073,158.936-5.073c87.75,0,158.921,2.272,158.921,5.073C409.547,356.238,338.375,358.511,250.626,358.511
		L250.626,358.511z"/>
	<path fill-rule="evenodd" clip-rule="evenodd" fill="#E6E6E6" d="M250.651,358.43c-86.672,0-156.975-2.241-156.975-5.004
		c0-2.763,70.302-5.003,156.975-5.003c86.667,0,156.96,2.24,156.96,5.003C407.611,356.189,337.318,358.43,250.651,358.43
		L250.651,358.43z"/>
	<path fill-rule="evenodd" clip-rule="evenodd" fill="#E5E5E5" d="M250.677,358.349c-85.589,0-155.013-2.209-155.013-4.933
		s69.424-4.932,155.013-4.932c85.584,0,154.998,2.208,154.998,4.932S336.261,358.349,250.677,358.349L250.677,358.349z"/>
	<path fill-rule="evenodd" clip-rule="evenodd" fill="#E4E4E4" d="M250.703,358.269c-84.507,0-153.052-2.178-153.052-4.862
		c0-2.685,68.546-4.861,153.052-4.861c84.501,0,153.037,2.177,153.037,4.861C403.74,356.091,335.203,358.269,250.703,358.269
		L250.703,358.269z"/>
	<path fill-rule="evenodd" clip-rule="evenodd" fill="#E3E3E3" d="M250.729,358.188c-83.424,0-151.091-2.146-151.091-4.791
		c0-2.646,67.667-4.79,151.091-4.79c83.417,0,151.076,2.145,151.076,4.79C401.804,356.042,334.146,358.188,250.729,358.188
		L250.729,358.188z"/>
	<path fill-rule="evenodd" clip-rule="evenodd" fill="#E2E2E2" d="M250.754,358.107c-82.341,0-149.129-2.114-149.129-4.72
		c0-2.607,66.789-4.72,149.129-4.72c82.334,0,149.114,2.113,149.114,4.72C399.869,355.993,333.089,358.107,250.754,358.107
		L250.754,358.107z"/>
	<path fill-rule="evenodd" clip-rule="evenodd" fill="#E1E1E1" d="M250.78,358.027c-81.258,0-147.168-2.083-147.168-4.65
		c0-2.568,65.91-4.649,147.168-4.649c81.251,0,147.153,2.082,147.153,4.649C397.933,355.944,332.031,358.027,250.78,358.027
		L250.78,358.027z"/>
	<path fill-rule="evenodd" clip-rule="evenodd" fill="#E0E0E0" d="M250.806,357.946c-80.175,0-145.207-2.051-145.207-4.579
		c0-2.529,65.032-4.578,145.207-4.578c80.168,0,145.192,2.05,145.192,4.578C395.998,355.895,330.974,357.946,250.806,357.946
		L250.806,357.946z"/>
	<path fill-rule="evenodd" clip-rule="evenodd" fill="#DFDFDF" d="M250.832,357.865c-79.092,0-143.246-2.019-143.246-4.508
		c0-2.489,64.153-4.508,143.246-4.508c79.085,0,143.23,2.018,143.23,4.508C394.062,355.846,329.917,357.865,250.832,357.865
		L250.832,357.865z"/>
	<path fill-rule="evenodd" clip-rule="evenodd" fill="#DEDEDE" d="M250.857,357.784c-78.009,0-141.284-1.987-141.284-4.437
		c0-2.45,63.275-4.437,141.284-4.437c78.002,0,141.269,1.986,141.269,4.437C392.127,355.797,328.859,357.784,250.857,357.784
		L250.857,357.784z"/>
	<path fill-rule="evenodd" clip-rule="evenodd" fill="#DDDDDD" d="M250.883,357.704c-76.926,0-139.323-1.956-139.323-4.366
		c0-2.411,62.397-4.366,139.323-4.366c76.919,0,139.308,1.955,139.308,4.366C390.191,355.748,327.802,357.704,250.883,357.704
		L250.883,357.704z"/>
	<path fill-rule="evenodd" clip-rule="evenodd" fill="#DCDCDC" d="M250.909,357.623c-75.843,0-137.362-1.924-137.362-4.295
		c0-2.372,61.518-4.296,137.362-4.296c75.836,0,137.347,1.923,137.347,4.296C388.256,355.699,326.745,357.623,250.909,357.623
		L250.909,357.623z"/>
	<path fill-rule="evenodd" clip-rule="evenodd" fill="#DBDBDB" d="M250.935,357.542c-74.761,0-135.4-1.892-135.4-4.224
		c0-2.333,60.64-4.225,135.4-4.225c74.753,0,135.385,1.891,135.385,4.225C386.32,355.65,325.688,357.542,250.935,357.542
		L250.935,357.542z"/>
	<path fill-rule="evenodd" clip-rule="evenodd" fill="#DADADA" d="M250.961,357.462c-73.678,0-133.439-1.861-133.439-4.154
		c0-2.294,59.761-4.154,133.439-4.154c73.67,0,133.424,1.86,133.424,4.154C384.384,355.601,324.63,357.462,250.961,357.462
		L250.961,357.462z"/>
	<path fill-rule="evenodd" clip-rule="evenodd" fill="#D9D9D9" d="M250.986,357.381c-72.595,0-131.478-1.829-131.478-4.083
		c0-2.255,58.883-4.083,131.478-4.083c72.587,0,131.463,1.828,131.463,4.083C382.449,355.552,323.573,357.381,250.986,357.381
		L250.986,357.381z"/>
	<path fill-rule="evenodd" clip-rule="evenodd" fill="#D9D9D9" d="M251.012,357.3c-71.512,0-129.516-1.797-129.516-4.012
		c0-2.216,58.004-4.013,129.516-4.013c71.504,0,129.501,1.796,129.501,4.013C380.513,355.503,322.516,357.3,251.012,357.3
		L251.012,357.3z"/>
	<path fill-rule="evenodd" clip-rule="evenodd" fill="#D8D8D8" d="M251.038,357.219c-70.429,0-127.555-1.765-127.555-3.941
		c0-2.177,57.126-3.942,127.555-3.942c70.42,0,127.54,1.765,127.54,3.942C378.578,355.454,321.458,357.219,251.038,357.219
		L251.038,357.219z"/>
	<path fill-rule="evenodd" clip-rule="evenodd" fill="#D7D7D7" d="M251.064,357.139c-69.346,0-125.594-1.734-125.594-3.87
		c0-2.138,56.248-3.871,125.594-3.871c69.337,0,125.579,1.733,125.579,3.871C376.642,355.405,320.401,357.139,251.064,357.139
		L251.064,357.139z"/>
	<path fill-rule="evenodd" clip-rule="evenodd" fill="#D6D6D6" d="M251.089,357.058c-68.263,0-123.633-1.702-123.633-3.799
		c0-2.099,55.369-3.801,123.633-3.801c68.254,0,123.617,1.701,123.617,3.801C374.707,355.356,319.344,357.058,251.089,357.058
		L251.089,357.058z"/>
	<path fill-rule="evenodd" clip-rule="evenodd" fill="#D5D5D5" d="M251.115,356.977c-67.18,0-121.671-1.67-121.671-3.728
		c0-2.06,54.491-3.73,121.671-3.73c67.171,0,121.656,1.669,121.656,3.73C372.771,355.307,318.286,356.977,251.115,356.977
		L251.115,356.977z"/>
	<path fill-rule="evenodd" clip-rule="evenodd" fill="#D4D4D4" d="M251.141,356.897c-66.098,0-119.71-1.638-119.71-3.658
		c0-2.021,53.612-3.659,119.71-3.659c66.088,0,119.695,1.638,119.695,3.659C370.836,355.258,317.229,356.897,251.141,356.897
		L251.141,356.897z"/>
	<path fill-rule="evenodd" clip-rule="evenodd" fill="#D3D3D3" d="M251.167,356.816c-65.015,0-117.749-1.607-117.749-3.587
		c0-1.982,52.734-3.588,117.749-3.588c65.005,0,117.733,1.606,117.733,3.588C368.9,355.209,316.172,356.816,251.167,356.816
		L251.167,356.816z"/>
	<path fill-rule="evenodd" clip-rule="evenodd" fill="#D2D2D2" d="M251.192,356.735c-63.932,0-115.787-1.575-115.787-3.516
		c0-1.943,51.856-3.518,115.787-3.518c63.922,0,115.772,1.574,115.772,3.518C366.964,355.16,315.114,356.735,251.192,356.735
		L251.192,356.735z"/>
	<path fill-rule="evenodd" clip-rule="evenodd" fill="#D1D1D1" d="M251.218,356.655c-62.849,0-113.826-1.543-113.826-3.445
		c0-1.904,50.977-3.447,113.826-3.447c62.839,0,113.811,1.543,113.811,3.447C365.029,355.111,314.057,356.655,251.218,356.655
		L251.218,356.655z"/>
	<path fill-rule="evenodd" clip-rule="evenodd" fill="#D0D0D0" d="M251.244,356.574c-61.766,0-111.865-1.512-111.865-3.374
		c0-1.865,50.099-3.376,111.865-3.376c61.756,0,111.849,1.511,111.849,3.376C363.093,355.062,313,356.574,251.244,356.574
		L251.244,356.574z"/>
	<path fill-rule="evenodd" clip-rule="evenodd" fill="#CFCFCF" d="M251.27,356.493c-60.683,0-109.903-1.48-109.903-3.303
		c0-1.826,49.22-3.306,109.903-3.306c60.673,0,109.888,1.479,109.888,3.306C361.158,355.013,311.942,356.493,251.27,356.493
		L251.27,356.493z"/>
	<path fill-rule="evenodd" clip-rule="evenodd" fill="#CECECE" d="M251.296,356.412c-59.6,0-107.942-1.448-107.942-3.232
		c0-1.787,48.342-3.235,107.942-3.235c59.59,0,107.927,1.448,107.927,3.235C359.222,354.964,310.885,356.412,251.296,356.412
		L251.296,356.412z"/>
	<path fill-rule="evenodd" clip-rule="evenodd" fill="#CDCDCD" d="M251.321,356.332c-58.517,0-105.981-1.416-105.981-3.162
		c0-1.748,47.463-3.164,105.981-3.164c58.507,0,105.965,1.416,105.965,3.164C357.287,354.915,309.828,356.332,251.321,356.332
		L251.321,356.332z"/>
	<path fill-rule="evenodd" clip-rule="evenodd" fill="#CCCCCC" d="M251.347,356.251c-57.434,0-104.02-1.385-104.02-3.091
		c0-1.709,46.585-3.093,104.02-3.093c57.423,0,104.004,1.384,104.004,3.093C355.351,354.866,308.77,356.251,251.347,356.251
		L251.347,356.251z"/>
	<path fill-rule="evenodd" clip-rule="evenodd" fill="#CBCBCB" d="M251.373,356.17c-56.352,0-102.058-1.353-102.058-3.02
		c0-1.67,45.707-3.023,102.058-3.023c56.34,0,102.043,1.352,102.043,3.023C353.415,354.817,307.713,356.17,251.373,356.17
		L251.373,356.17z"/>
	<path fill-rule="evenodd" clip-rule="evenodd" fill="#CACACA" d="M251.399,356.09c-55.269,0-100.097-1.321-100.097-2.949
		c0-1.631,44.828-2.952,100.097-2.952c55.257,0,100.081,1.321,100.081,2.952C351.48,354.768,306.656,356.09,251.399,356.09
		L251.399,356.09z"/>
	<path fill-rule="evenodd" clip-rule="evenodd" fill="#C9C9C9" d="M251.424,356.009c-54.186,0-98.136-1.29-98.136-2.878
		c0-1.592,43.95-2.881,98.136-2.881c54.174,0,98.12,1.289,98.12,2.881C349.544,354.719,305.599,356.009,251.424,356.009
		L251.424,356.009z"/>
	<path fill-rule="evenodd" clip-rule="evenodd" fill="#C8C8C8" d="M251.45,355.928c-53.103,0-96.174-1.258-96.174-2.807
		c0-1.553,43.071-2.811,96.174-2.811c53.091,0,96.159,1.257,96.159,2.811C347.609,354.67,304.541,355.928,251.45,355.928
		L251.45,355.928z"/>
	<path fill-rule="evenodd" clip-rule="evenodd" fill="#C7C7C7" d="M251.476,355.848c-52.02,0-94.213-1.226-94.213-2.737
		c0-1.514,42.193-2.74,94.213-2.74c52.008,0,94.197,1.226,94.197,2.74C345.673,354.621,303.484,355.848,251.476,355.848
		L251.476,355.848z"/>
	<path fill-rule="evenodd" clip-rule="evenodd" fill="#C6C6C6" d="M251.502,355.767c-50.937,0-92.252-1.194-92.252-2.666
		c0-1.475,41.315-2.669,92.252-2.669c50.925,0,92.236,1.194,92.236,2.669C343.738,354.572,302.427,355.767,251.502,355.767
		L251.502,355.767z"/>
	<path fill-rule="evenodd" clip-rule="evenodd" fill="#C5C5C5" d="M251.527,355.686c-49.854,0-90.29-1.163-90.29-2.595
		c0-1.436,40.436-2.599,90.29-2.599c49.842,0,90.275,1.162,90.275,2.599C341.802,354.523,301.369,355.686,251.527,355.686
		L251.527,355.686z"/>
	<path fill-rule="evenodd" clip-rule="evenodd" fill="#C4C4C4" d="M251.553,355.605c-48.771,0-88.329-1.131-88.329-2.524
		c0-1.397,39.558-2.528,88.329-2.528c48.759,0,88.313,1.131,88.313,2.528C339.867,354.474,300.312,355.605,251.553,355.605
		L251.553,355.605z"/>
	<path fill-rule="evenodd" clip-rule="evenodd" fill="#C3C3C3" d="M251.579,355.525c-47.689,0-86.368-1.099-86.368-2.453
		c0-1.358,38.679-2.457,86.368-2.457c47.676,0,86.352,1.099,86.352,2.457C337.931,354.425,299.255,355.525,251.579,355.525
		L251.579,355.525z"/>
	<path fill-rule="evenodd" clip-rule="evenodd" fill="#C2C2C2" d="M251.605,355.444c-46.606,0-84.407-1.068-84.407-2.382
		c0-1.319,37.801-2.386,84.407-2.386c46.593,0,84.391,1.067,84.391,2.386C335.995,354.376,298.197,355.444,251.605,355.444
		L251.605,355.444z"/>
	<path fill-rule="evenodd" clip-rule="evenodd" fill="#C1C1C1" d="M251.63,355.363c-45.523,0-82.445-1.036-82.445-2.311
		c0-1.28,36.922-2.316,82.445-2.316c45.509,0,82.429,1.035,82.429,2.316C334.06,354.327,297.14,355.363,251.63,355.363
		L251.63,355.363z"/>
	<path fill-rule="evenodd" clip-rule="evenodd" fill="#C0C0C0" d="M251.656,355.283c-44.44,0-80.484-1.004-80.484-2.241
		c0-1.241,36.044-2.245,80.484-2.245c44.426,0,80.468,1.004,80.468,2.245C332.124,354.279,296.083,355.283,251.656,355.283
		L251.656,355.283z"/>
	<path fill-rule="evenodd" clip-rule="evenodd" fill="#BFBFBF" d="M251.682,355.202c-43.357,0-78.523-0.972-78.523-2.17
		c0-1.202,35.166-2.174,78.523-2.174c43.343,0,78.507,0.972,78.507,2.174C330.189,354.229,295.025,355.202,251.682,355.202
		L251.682,355.202z"/>
	<path fill-rule="evenodd" clip-rule="evenodd" fill="#BEBEBE" d="M251.708,355.121c-42.274,0-76.561-0.941-76.561-2.099
		c0-1.163,34.287-2.104,76.561-2.104c42.26,0,76.545,0.94,76.545,2.104C328.253,354.181,293.968,355.121,251.708,355.121
		L251.708,355.121z"/>
	<path fill-rule="evenodd" clip-rule="evenodd" fill="#BDBDBD" d="M251.734,355.04c-41.191,0-74.6-0.909-74.6-2.028
		c0-1.124,33.409-2.033,74.6-2.033c41.177,0,74.584,0.909,74.584,2.033C326.318,354.132,292.911,355.04,251.734,355.04
		L251.734,355.04z"/>
	<path fill-rule="evenodd" clip-rule="evenodd" fill="#BCBCBC" d="M251.759,354.96c-40.108,0-72.639-0.877-72.639-1.957
		c0-1.085,32.53-1.962,72.639-1.962c40.094,0,72.623,0.877,72.623,1.962C324.382,354.083,291.853,354.96,251.759,354.96
		L251.759,354.96z"/>
	<path fill-rule="evenodd" clip-rule="evenodd" fill="#BBBBBB" d="M251.785,354.879c-39.025,0-70.677-0.845-70.677-1.886
		c0-1.046,31.652-1.891,70.677-1.891c39.011,0,70.661,0.845,70.661,1.891C322.447,354.034,290.796,354.879,251.785,354.879
		L251.785,354.879z"/>
	<path fill-rule="evenodd" clip-rule="evenodd" fill="#BABABA" d="M251.811,354.798c-37.943,0-68.716-0.814-68.716-1.815
		c0-1.007,30.774-1.821,68.716-1.821c37.928,0,68.7,0.814,68.7,1.821C320.511,353.985,289.739,354.798,251.811,354.798
		L251.811,354.798z"/>
	<path fill-rule="evenodd" clip-rule="evenodd" fill="#B9B9B9" d="M251.837,354.718c-36.86,0-66.755-0.782-66.755-1.745
		c0-0.968,29.895-1.75,66.755-1.75c36.845,0,66.739,0.782,66.739,1.75C318.576,353.936,288.681,354.718,251.837,354.718
		L251.837,354.718z"/>
	<path fill-rule="evenodd" clip-rule="evenodd" fill="#B8B8B8" d="M251.862,354.637c-35.777,0-64.794-0.75-64.794-1.674
		c0-0.929,29.017-1.679,64.794-1.679c35.762,0,64.778,0.75,64.778,1.679C316.64,353.887,287.624,354.637,251.862,354.637
		L251.862,354.637z"/>
	<path fill-rule="evenodd" clip-rule="evenodd" fill="#B7B7B7" d="M251.888,354.556c-34.694,0-62.832-0.719-62.832-1.603
		c0-0.89,28.138-1.609,62.832-1.609c34.679,0,62.816,0.719,62.816,1.609C314.704,353.838,286.567,354.556,251.888,354.556
		L251.888,354.556z"/>
	<path fill-rule="evenodd" clip-rule="evenodd" fill="#B6B6B6" d="M251.914,354.476c-33.611,0-60.871-0.687-60.871-1.532
		c0-0.851,27.26-1.538,60.871-1.538c33.596,0,60.855,0.687,60.855,1.538C312.769,353.789,285.509,354.476,251.914,354.476
		L251.914,354.476z"/>
	<path fill-rule="evenodd" clip-rule="evenodd" fill="#B5B5B5" d="M251.94,354.395c-32.528,0-58.91-0.655-58.91-1.461
		c0-0.812,26.381-1.467,58.91-1.467c32.512,0,58.894,0.655,58.894,1.467C310.833,353.74,284.452,354.395,251.94,354.395
		L251.94,354.395z"/>
	<path fill-rule="evenodd" clip-rule="evenodd" fill="#B4B4B4" d="M251.965,354.314c-31.445,0-56.948-0.623-56.948-1.39
		c0-0.773,25.503-1.397,56.948-1.397c31.429,0,56.932,0.623,56.932,1.397C308.898,353.691,283.395,354.314,251.965,354.314
		L251.965,354.314z"/>
	<path fill-rule="evenodd" clip-rule="evenodd" fill="#B3B3B3" d="M251.991,354.233c-30.362,0-54.987-0.592-54.987-1.319
		c0-0.734,24.625-1.326,54.987-1.326c30.346,0,54.971,0.592,54.971,1.326C306.962,353.642,282.337,354.233,251.991,354.233
		L251.991,354.233z"/>
</g>
<g id="S0Ytdu_1_">
	<g>
		<path fill="#B845A7" d="M54.615,286.079c1.405-5.827,2.117-11.935,4.338-17.433c8.943-22.141,25.31-35.825,49.008-39.292
			c25.318-3.703,45.732,5.54,60.856,26.128c6.095,8.296,9.423,17.794,10.704,28.006c0.109,0.871,0.325,1.728,0.491,2.592
			c0,3.266,0,6.531,0,9.797c-0.303,1.754-0.589,3.511-0.913,5.262c-4.279,23.19-17.404,39.336-39.174,48.145
			c-5.583,2.259-11.792,2.971-17.714,4.393c-3.266,0-6.531,0-9.797,0c-1.762-0.304-3.527-0.589-5.285-0.915
			c-23.069-4.287-39.224-17.297-48.047-38.961c-2.299-5.645-3.021-11.932-4.468-17.924C54.615,292.61,54.615,289.344,54.615,286.079
			z M117.2,342.043c28.144,0.136,51.087-22.704,51.163-50.933c0.076-28.01-22.684-50.893-50.808-51.082
			c-28.106-0.189-51.095,22.602-51.291,50.849C66.07,318.96,88.912,341.906,117.2,342.043z"/>
		<path fill="#B845A7" d="M118.293,148.436c0.3,0.823,0.528,1.682,0.91,2.465c7.759,15.87,15.537,31.732,23.307,47.597
			c0.422,0.862,0.809,1.741,1.396,3.008c-1.179,0-2.034,0-2.888,0c-17.284,0-34.569-0.031-51.853,0.045
			c-1.887,0.008-2.86-0.52-3.705-2.263c-7.879-16.264-15.865-32.476-23.825-48.701c-0.357-0.728-0.76-1.434-1.142-2.15
			C79.76,148.436,99.026,148.436,118.293,148.436z"/>
		<path fill="#B845A7" d="M174.623,148.436c-7.565,15.844-15.131,31.689-22.944,48.052c-7.998-16.292-15.794-32.172-23.59-48.052
			C143.601,148.436,159.112,148.436,174.623,148.436z"/>
		<path fill="#B845A7" d="M109.595,215.441c0-1.614,0-2.986,0-4.56c5.119,0,10.178,0,15.375,0c0,1.483,0,2.914,0,4.56
			C119.922,215.441,114.867,215.441,109.595,215.441z"/>
		<path fill="#B845A7" d="M117.321,249.105c22.98,0.009,41.977,18.942,42.033,41.891c0.056,22.946-19.249,42.188-42.173,42.035
			c-23.018-0.154-42.012-19.214-41.906-42.052C75.38,267.985,94.347,249.096,117.321,249.105z"/>
	</g>
</g>
<g>
	<path fill-rule="evenodd" clip-rule="evenodd" fill="#FFFFFF" d="M119.832,273.765c-0.279-1.152-0.532-2.341-0.76-3.557
		c-0.202,1.177-0.456,2.354-0.734,3.531c-0.304,1.177-0.645,2.341-1.038,3.532l-4.481,13.986h12.645l-4.683-14.125
		C120.427,276.043,120.11,274.929,119.832,273.765z M116.946,288.245l2.126-6.671l2.215,6.671H116.946z"/>
	<path fill-rule="evenodd" clip-rule="evenodd" fill="#FFFFFF" d="M139.02,303.927l-10.493-30.707h4.038v-10.518h-26.783v10.518
		h4.051l-10.455,30.707h-5v10.758h21.707v-10.758h-4.316l1.658-5.202h11.366l1.684,5.202h-4.354v10.758h21.783v-10.758H139.02z
		 M140.894,311.674h-15.746v-4.734h5.481l-3.645-11.227h-15.759l-3.582,11.227h5.43v4.734H97.39v-4.734h4.152l12.493-36.732h-5.24
		v-4.493h20.758v4.493H124.3l12.569,36.732h4.025V311.674z"/>
</g>
<g id="S0Ytdu_2_">
	<g>
		<path fill="#B845A7" d="M187.302,286.079c1.405-5.827,2.117-11.935,4.338-17.433c8.943-22.141,25.31-35.825,49.008-39.292
			c25.318-3.703,45.732,5.54,60.856,26.128c6.095,8.296,9.423,17.794,10.704,28.006c0.109,0.871,0.325,1.728,0.491,2.592
			c0,3.266,0,6.531,0,9.797c-0.303,1.754-0.59,3.511-0.913,5.262c-4.279,23.19-17.404,39.336-39.174,48.145
			c-5.583,2.259-11.792,2.971-17.714,4.393c-3.266,0-6.531,0-9.797,0c-1.762-0.304-3.527-0.589-5.285-0.915
			c-23.069-4.287-39.224-17.297-48.047-38.961c-2.299-5.645-3.021-11.932-4.468-17.924
			C187.302,292.61,187.302,289.344,187.302,286.079z M249.887,342.043c28.144,0.136,51.087-22.704,51.163-50.933
			c0.076-28.01-22.684-50.893-50.808-51.082c-28.106-0.189-51.095,22.602-51.291,50.849
			C198.757,318.96,221.599,341.906,249.887,342.043z"/>
		<path fill="#B845A7" d="M250.98,148.436c0.3,0.823,0.528,1.682,0.91,2.465c7.759,15.87,15.537,31.732,23.307,47.597
			c0.422,0.862,0.809,1.741,1.396,3.008c-1.179,0-2.034,0-2.888,0c-17.284,0-34.569-0.031-51.853,0.045
			c-1.887,0.008-2.86-0.52-3.705-2.263c-7.88-16.264-15.865-32.476-23.825-48.701c-0.357-0.728-0.76-1.434-1.142-2.15
			C212.446,148.436,231.713,148.436,250.98,148.436z"/>
		<path fill="#B845A7" d="M307.31,148.436c-7.565,15.844-15.131,31.689-22.944,48.052c-7.998-16.292-15.794-32.172-23.59-48.052
			C276.288,148.436,291.799,148.436,307.31,148.436z"/>
		<path fill="#B845A7" d="M242.282,215.441c0-1.614,0-2.986,0-4.56c5.119,0,10.178,0,15.375,0c0,1.483,0,2.914,0,4.56
			C252.609,215.441,247.553,215.441,242.282,215.441z"/>
		<path fill="#B845A7" d="M250.007,249.105c22.98,0.009,41.977,18.942,42.033,41.891c0.056,22.946-19.249,42.188-42.174,42.035
			c-23.018-0.154-42.012-19.214-41.906-42.052C208.067,267.985,227.034,249.096,250.007,249.105z"/>
	</g>
</g>
<g>
	<path fill-rule="evenodd" clip-rule="evenodd" fill="#FFFFFF" d="M252.519,273.765c-0.279-1.152-0.532-2.341-0.76-3.557
		c-0.202,1.177-0.456,2.354-0.734,3.531c-0.304,1.177-0.645,2.341-1.038,3.532l-4.481,13.986h12.645l-4.683-14.125
		C253.113,276.043,252.797,274.929,252.519,273.765z M249.633,288.245l2.126-6.671l2.215,6.671H249.633z"/>
	<path fill-rule="evenodd" clip-rule="evenodd" fill="#FFFFFF" d="M271.707,303.927l-10.493-30.707h4.038v-10.518h-26.783v10.518
		h4.051l-10.455,30.707h-5v10.758h21.707v-10.758h-4.316l1.658-5.202h11.366l1.684,5.202h-4.354v10.758h21.783v-10.758H271.707z
		 M273.58,311.674h-15.746v-4.734h5.481l-3.645-11.227h-15.759l-3.582,11.227h5.43v4.734h-15.683v-4.734h4.152l12.493-36.732h-5.24
		v-4.493h20.758v4.493h-5.253l12.569,36.732h4.025V311.674z"/>
</g>
<g id="S0Ytdu_3_">
	<g>
		<path fill="#B845A7" d="M319.989,286.079c1.405-5.827,2.117-11.935,4.338-17.433c8.943-22.141,25.31-35.825,49.008-39.292
			c25.318-3.703,45.732,5.54,60.856,26.128c6.095,8.296,9.423,17.794,10.704,28.006c0.109,0.871,0.325,1.728,0.491,2.592
			c0,3.266,0,6.531,0,9.797c-0.303,1.754-0.59,3.511-0.913,5.262c-4.279,23.19-17.404,39.336-39.174,48.145
			c-5.583,2.259-11.792,2.971-17.714,4.393c-3.266,0-6.531,0-9.797,0c-1.762-0.304-3.527-0.589-5.285-0.915
			c-23.069-4.287-39.224-17.297-48.047-38.961c-2.299-5.645-3.021-11.932-4.468-17.924
			C319.989,292.61,319.989,289.344,319.989,286.079z M382.573,342.043c28.144,0.136,51.087-22.704,51.163-50.933
			c0.076-28.01-22.684-50.893-50.808-51.082c-28.106-0.189-51.095,22.602-51.291,50.849
			C331.443,318.96,354.286,341.906,382.573,342.043z"/>
		<path fill="#B845A7" d="M383.666,148.436c0.3,0.823,0.528,1.682,0.91,2.465c7.759,15.87,15.537,31.732,23.307,47.597
			c0.422,0.862,0.809,1.741,1.396,3.008c-1.179,0-2.034,0-2.888,0c-17.284,0-34.569-0.031-51.853,0.045
			c-1.887,0.008-2.86-0.52-3.705-2.263c-7.88-16.264-15.865-32.476-23.825-48.701c-0.357-0.728-0.76-1.434-1.142-2.15
			C345.133,148.436,364.4,148.436,383.666,148.436z"/>
		<path fill="#B845A7" d="M439.997,148.436c-7.565,15.844-15.131,31.689-22.944,48.052c-7.998-16.292-15.794-32.172-23.59-48.052
			C408.974,148.436,424.486,148.436,439.997,148.436z"/>
		<path fill="#B845A7" d="M374.968,215.441c0-1.614,0-2.986,0-4.56c5.119,0,10.178,0,15.375,0c0,1.483,0,2.914,0,4.56
			C385.295,215.441,380.24,215.441,374.968,215.441z"/>
		<path fill="#B845A7" d="M382.694,249.105c22.98,0.009,41.977,18.942,42.033,41.891c0.056,22.946-19.249,42.188-42.174,42.035
			c-23.018-0.154-42.012-19.214-41.906-42.052C340.754,267.985,359.721,249.096,382.694,249.105z"/>
	</g>
</g>
<g>
	<path fill-rule="evenodd" clip-rule="evenodd" fill="#FFFFFF" d="M385.205,273.765c-0.279-1.152-0.532-2.341-0.76-3.557
		c-0.202,1.177-0.456,2.354-0.734,3.531c-0.304,1.177-0.645,2.341-1.038,3.532l-4.481,13.986h12.645l-4.683-14.125
		C385.8,276.043,385.484,274.929,385.205,273.765z M382.319,288.245l2.126-6.671l2.215,6.671H382.319z"/>
	<path fill-rule="evenodd" clip-rule="evenodd" fill="#FFFFFF" d="M404.394,303.927l-10.493-30.707h4.038v-10.518h-26.783v10.518
		h4.051l-10.455,30.707h-5v10.758h21.707v-10.758h-4.316l1.658-5.202h11.366l1.684,5.202h-4.354v10.758h21.783v-10.758H404.394z
		 M406.267,311.674h-15.746v-4.734h5.481l-3.645-11.227h-15.759l-3.582,11.227h5.43v4.734h-15.683v-4.734h4.152l12.493-36.732h-5.24
		v-4.493h20.758v4.493h-5.253l12.569,36.732h4.025V311.674z"/>
</g>
</svg>
