<?xml version="1.0" encoding="utf-8"?>
<!-- Generator: Adobe Illustrator 17.0.0, SVG Export Plug-In . SVG Version: 6.00 Build 0)  -->
<!DOCTYPE svg PUBLIC "-//W3C//DTD SVG 1.1//EN" "http://www.w3.org/Graphics/SVG/1.1/DTD/svg11.dtd">
<svg version="1.1" id="Capa_1" xmlns="http://www.w3.org/2000/svg" xmlns:xlink="http://www.w3.org/1999/xlink" x="0px" y="0px"
	 width="500px" height="500px" viewBox="0 0 500 500" enable-background="new 0 0 500 500" xml:space="preserve">
<g opacity="0.9">
	<path fill-rule="evenodd" clip-rule="evenodd" fill="#FFFFFF" d="M250.007,378.68C136.263,378.68,44,375.646,44,371.905
		c0-3.738,92.263-6.77,206.007-6.77c113.744,0,205.993,3.033,205.993,6.77C456,375.646,363.751,378.68,250.007,378.68
		L250.007,378.68z"/>
	<path fill-rule="evenodd" clip-rule="evenodd" fill="#FEFEFE" d="M250.033,378.6c-112.661,0-204.046-3.002-204.046-6.704
		c0-3.699,91.384-6.7,204.046-6.7c112.661,0,204.032,3.001,204.032,6.7C454.064,375.597,362.694,378.6,250.033,378.6L250.033,378.6z
		"/>
	<path fill-rule="evenodd" clip-rule="evenodd" fill="#FDFDFD" d="M250.059,378.519c-111.579,0-202.085-2.971-202.085-6.633
		c0-3.66,90.506-6.629,202.085-6.629c111.578,0,202.07,2.969,202.07,6.629C452.129,375.548,361.636,378.519,250.059,378.519
		L250.059,378.519z"/>
	<path fill-rule="evenodd" clip-rule="evenodd" fill="#FCFCFC" d="M250.084,378.438c-110.496,0-200.123-2.939-200.123-6.563
		c0-3.621,89.628-6.558,200.123-6.558c110.495,0,200.109,2.937,200.109,6.558C450.193,375.499,360.579,378.438,250.084,378.438
		L250.084,378.438z"/>
	<path fill-rule="evenodd" clip-rule="evenodd" fill="#FBFBFB" d="M250.11,378.357c-109.413,0-198.162-2.907-198.162-6.492
		c0-3.582,88.749-6.487,198.162-6.487c109.412,0,198.148,2.906,198.148,6.487C448.258,375.45,359.522,378.357,250.11,378.357
		L250.11,378.357z"/>
	<path fill-rule="evenodd" clip-rule="evenodd" fill="#FAFAFA" d="M250.136,378.277c-108.33,0-196.201-2.876-196.201-6.421
		c0-3.543,87.871-6.417,196.201-6.417c108.328,0,196.186,2.874,196.186,6.417C446.322,375.401,358.464,378.277,250.136,378.277
		L250.136,378.277z"/>
	<path fill-rule="evenodd" clip-rule="evenodd" fill="#F9F9F9" d="M250.162,378.196c-107.247,0-194.239-2.844-194.239-6.35
		c0-3.504,86.992-6.346,194.239-6.346c107.245,0,194.225,2.842,194.225,6.346C444.387,375.352,357.407,378.196,250.162,378.196
		L250.162,378.196z"/>
	<path fill-rule="evenodd" clip-rule="evenodd" fill="#F8F8F8" d="M250.187,378.115c-106.164,0-192.278-2.812-192.278-6.279
		c0-3.465,86.114-6.275,192.278-6.275c106.162,0,192.264,2.811,192.264,6.275C442.451,375.303,356.35,378.115,250.187,378.115
		L250.187,378.115z"/>
	<path fill-rule="evenodd" clip-rule="evenodd" fill="#F7F7F7" d="M250.213,378.035c-105.081,0-190.317-2.78-190.317-6.208
		c0-3.426,85.235-6.205,190.317-6.205c105.079,0,190.302,2.779,190.302,6.205C440.516,375.254,355.292,378.035,250.213,378.035
		L250.213,378.035z"/>
	<path fill-rule="evenodd" clip-rule="evenodd" fill="#F6F6F6" d="M250.239,377.954c-103.998,0-188.355-2.749-188.355-6.137
		c0-3.387,84.357-6.134,188.355-6.134c103.996,0,188.341,2.747,188.341,6.134C438.58,375.205,354.235,377.954,250.239,377.954
		L250.239,377.954z"/>
	<path fill-rule="evenodd" clip-rule="evenodd" fill="#F5F5F5" d="M250.265,377.873c-102.916,0-186.394-2.717-186.394-6.067
		c0-3.348,83.479-6.063,186.394-6.063c102.913,0,186.38,2.716,186.38,6.063C436.644,375.156,353.178,377.873,250.265,377.873
		L250.265,377.873z"/>
	<path fill-rule="evenodd" clip-rule="evenodd" fill="#F4F4F4" d="M250.291,377.793c-101.833,0-184.433-2.685-184.433-5.996
		c0-3.309,82.6-5.992,184.433-5.992c101.83,0,184.418,2.684,184.418,5.992C434.709,375.107,352.12,377.793,250.291,377.793
		L250.291,377.793z"/>
	<path fill-rule="evenodd" clip-rule="evenodd" fill="#F3F3F3" d="M250.316,377.712c-100.75,0-182.472-2.654-182.472-5.925
		c0-3.27,81.722-5.922,182.472-5.922c100.747,0,182.457,2.652,182.457,5.922C432.773,375.058,351.063,377.712,250.316,377.712
		L250.316,377.712z"/>
	<path fill-rule="evenodd" clip-rule="evenodd" fill="#F2F2F2" d="M250.342,377.631c-99.667,0-180.51-2.622-180.51-5.854
		c0-3.231,80.843-5.851,180.51-5.851c99.664,0,180.496,2.62,180.496,5.851C430.838,375.009,350.006,377.631,250.342,377.631
		L250.342,377.631z"/>
	<path fill-rule="evenodd" clip-rule="evenodd" fill="#F1F1F1" d="M250.368,377.55c-98.584,0-178.549-2.59-178.549-5.783
		c0-3.192,79.965-5.78,178.549-5.78c98.581,0,178.534,2.589,178.534,5.78C428.902,374.96,348.949,377.55,250.368,377.55
		L250.368,377.55z"/>
	<path fill-rule="evenodd" clip-rule="evenodd" fill="#F0F0F0" d="M250.394,377.47c-97.501,0-176.588-2.558-176.588-5.712
		c0-3.153,79.087-5.71,176.588-5.71c97.498,0,176.573,2.557,176.573,5.71C426.967,374.911,347.891,377.47,250.394,377.47
		L250.394,377.47z"/>
	<path fill-rule="evenodd" clip-rule="evenodd" fill="#EFEFEF" d="M250.419,377.389c-96.418,0-174.626-2.527-174.626-5.641
		c0-3.114,78.208-5.639,174.626-5.639c96.414,0,174.612,2.525,174.612,5.639C425.031,374.862,346.834,377.389,250.419,377.389
		L250.419,377.389z"/>
	<path fill-rule="evenodd" clip-rule="evenodd" fill="#EEEEEE" d="M250.445,377.308c-95.335,0-172.665-2.495-172.665-5.571
		c0-3.075,77.33-5.568,172.665-5.568c95.331,0,172.65,2.494,172.65,5.568C423.096,374.813,345.777,377.308,250.445,377.308
		L250.445,377.308z"/>
	<path fill-rule="evenodd" clip-rule="evenodd" fill="#EDEDED" d="M250.471,377.228c-94.252,0-170.704-2.463-170.704-5.5
		c0-3.036,76.451-5.498,170.704-5.498c94.248,0,170.689,2.462,170.689,5.498C421.16,374.764,344.719,377.228,250.471,377.228
		L250.471,377.228z"/>
	<path fill-rule="evenodd" clip-rule="evenodd" fill="#ECECEC" d="M250.497,377.147c-93.17,0-168.742-2.431-168.742-5.429
		c0-2.997,75.573-5.427,168.742-5.427c93.165,0,168.728,2.43,168.728,5.427C419.224,374.715,343.662,377.147,250.497,377.147
		L250.497,377.147z"/>
	<path fill-rule="evenodd" clip-rule="evenodd" fill="#EBEBEB" d="M250.522,377.066c-92.087,0-166.781-2.4-166.781-5.358
		c0-2.958,74.694-5.356,166.781-5.356c92.082,0,166.766,2.399,166.766,5.356C417.289,374.666,342.605,377.066,250.522,377.066
		L250.522,377.066z"/>
	<path fill-rule="evenodd" clip-rule="evenodd" fill="#EAEAEA" d="M250.548,376.985c-91.004,0-164.82-2.368-164.82-5.287
		c0-2.919,73.816-5.285,164.82-5.285c90.999,0,164.805,2.367,164.805,5.285C415.353,374.617,341.547,376.985,250.548,376.985
		L250.548,376.985z"/>
	<path fill-rule="evenodd" clip-rule="evenodd" fill="#E9E9E9" d="M250.574,376.905c-89.921,0-162.859-2.336-162.859-5.216
		c0-2.88,72.938-5.215,162.859-5.215c89.916,0,162.844,2.335,162.844,5.215C413.418,374.568,340.49,376.905,250.574,376.905
		L250.574,376.905z"/>
	<path fill-rule="evenodd" clip-rule="evenodd" fill="#E8E8E8" d="M250.6,376.824c-88.838,0-160.897-2.305-160.897-5.146
		c0-2.841,72.059-5.144,160.897-5.144c88.833,0,160.882,2.303,160.882,5.144C411.482,374.519,339.433,376.824,250.6,376.824
		L250.6,376.824z"/>
	<path fill-rule="evenodd" clip-rule="evenodd" fill="#E7E7E7" d="M250.626,376.743c-87.755,0-158.936-2.273-158.936-5.075
		c0-2.802,71.181-5.073,158.936-5.073c87.75,0,158.921,2.272,158.921,5.073C409.547,374.47,338.375,376.743,250.626,376.743
		L250.626,376.743z"/>
	<path fill-rule="evenodd" clip-rule="evenodd" fill="#E6E6E6" d="M250.651,376.663c-86.672,0-156.975-2.241-156.975-5.004
		c0-2.763,70.302-5.003,156.975-5.003c86.667,0,156.96,2.24,156.96,5.003C407.611,374.421,337.318,376.663,250.651,376.663
		L250.651,376.663z"/>
	<path fill-rule="evenodd" clip-rule="evenodd" fill="#E5E5E5" d="M250.677,376.582c-85.589,0-155.013-2.209-155.013-4.933
		c0-2.724,69.424-4.932,155.013-4.932c85.584,0,154.998,2.208,154.998,4.932C405.676,374.372,336.261,376.582,250.677,376.582
		L250.677,376.582z"/>
	<path fill-rule="evenodd" clip-rule="evenodd" fill="#E4E4E4" d="M250.703,376.501c-84.507,0-153.052-2.178-153.052-4.862
		c0-2.685,68.546-4.861,153.052-4.861c84.501,0,153.037,2.177,153.037,4.861C403.74,374.324,335.203,376.501,250.703,376.501
		L250.703,376.501z"/>
	<path fill-rule="evenodd" clip-rule="evenodd" fill="#E3E3E3" d="M250.729,376.421c-83.424,0-151.091-2.146-151.091-4.791
		c0-2.646,67.667-4.79,151.091-4.79c83.417,0,151.076,2.145,151.076,4.79C401.804,374.275,334.146,376.421,250.729,376.421
		L250.729,376.421z"/>
	<path fill-rule="evenodd" clip-rule="evenodd" fill="#E2E2E2" d="M250.754,376.34c-82.341,0-149.129-2.114-149.129-4.72
		c0-2.607,66.789-4.72,149.129-4.72c82.334,0,149.114,2.113,149.114,4.72C399.869,374.226,333.089,376.34,250.754,376.34
		L250.754,376.34z"/>
	<path fill-rule="evenodd" clip-rule="evenodd" fill="#E1E1E1" d="M250.78,376.259c-81.258,0-147.168-2.083-147.168-4.65
		c0-2.567,65.91-4.649,147.168-4.649c81.251,0,147.153,2.082,147.153,4.649C397.933,374.177,332.031,376.259,250.78,376.259
		L250.78,376.259z"/>
	<path fill-rule="evenodd" clip-rule="evenodd" fill="#E0E0E0" d="M250.806,376.178c-80.175,0-145.207-2.051-145.207-4.579
		c0-2.529,65.032-4.578,145.207-4.578c80.168,0,145.192,2.05,145.192,4.578C395.998,374.128,330.974,376.178,250.806,376.178
		L250.806,376.178z"/>
	<path fill-rule="evenodd" clip-rule="evenodd" fill="#DFDFDF" d="M250.832,376.098c-79.092,0-143.246-2.019-143.246-4.508
		c0-2.49,64.153-4.508,143.246-4.508c79.085,0,143.231,2.018,143.231,4.508C394.062,374.079,329.917,376.098,250.832,376.098
		L250.832,376.098z"/>
	<path fill-rule="evenodd" clip-rule="evenodd" fill="#DEDEDE" d="M250.857,376.017c-78.009,0-141.284-1.987-141.284-4.437
		c0-2.45,63.275-4.437,141.284-4.437c78.002,0,141.269,1.986,141.269,4.437C392.127,374.03,328.859,376.017,250.857,376.017
		L250.857,376.017z"/>
	<path fill-rule="evenodd" clip-rule="evenodd" fill="#DDDDDD" d="M250.883,375.936c-76.926,0-139.323-1.956-139.323-4.366
		c0-2.411,62.397-4.366,139.323-4.366c76.919,0,139.308,1.955,139.308,4.366C390.191,373.981,327.802,375.936,250.883,375.936
		L250.883,375.936z"/>
	<path fill-rule="evenodd" clip-rule="evenodd" fill="#DCDCDC" d="M250.909,375.856c-75.843,0-137.362-1.924-137.362-4.295
		c0-2.372,61.518-4.296,137.362-4.296c75.836,0,137.347,1.923,137.347,4.296C388.256,373.932,326.745,375.856,250.909,375.856
		L250.909,375.856z"/>
	<path fill-rule="evenodd" clip-rule="evenodd" fill="#DBDBDB" d="M250.935,375.775c-74.761,0-135.4-1.892-135.4-4.224
		c0-2.333,60.64-4.225,135.4-4.225c74.753,0,135.385,1.891,135.385,4.225C386.32,373.883,325.688,375.775,250.935,375.775
		L250.935,375.775z"/>
	<path fill-rule="evenodd" clip-rule="evenodd" fill="#DADADA" d="M250.961,375.694c-73.678,0-133.439-1.861-133.439-4.154
		c0-2.294,59.761-4.154,133.439-4.154c73.67,0,133.424,1.86,133.424,4.154C384.384,373.834,324.63,375.694,250.961,375.694
		L250.961,375.694z"/>
	<path fill-rule="evenodd" clip-rule="evenodd" fill="#D9D9D9" d="M250.986,375.613c-72.595,0-131.478-1.829-131.478-4.083
		c0-2.255,58.883-4.083,131.478-4.083c72.587,0,131.463,1.828,131.463,4.083C382.449,373.785,323.573,375.613,250.986,375.613
		L250.986,375.613z"/>
	<path fill-rule="evenodd" clip-rule="evenodd" fill="#D9D9D9" d="M251.012,375.533c-71.512,0-129.516-1.797-129.516-4.012
		c0-2.216,58.005-4.013,129.516-4.013c71.504,0,129.501,1.796,129.501,4.013C380.513,373.736,322.516,375.533,251.012,375.533
		L251.012,375.533z"/>
	<path fill-rule="evenodd" clip-rule="evenodd" fill="#D8D8D8" d="M251.038,375.452c-70.429,0-127.555-1.765-127.555-3.941
		c0-2.177,57.126-3.942,127.555-3.942c70.42,0,127.54,1.765,127.54,3.942C378.578,373.687,321.458,375.452,251.038,375.452
		L251.038,375.452z"/>
	<path fill-rule="evenodd" clip-rule="evenodd" fill="#D7D7D7" d="M251.064,375.371c-69.346,0-125.594-1.734-125.594-3.87
		c0-2.138,56.248-3.871,125.594-3.871c69.337,0,125.579,1.733,125.579,3.871C376.642,373.638,320.401,375.371,251.064,375.371
		L251.064,375.371z"/>
	<path fill-rule="evenodd" clip-rule="evenodd" fill="#D6D6D6" d="M251.089,375.291c-68.263,0-123.633-1.702-123.633-3.799
		c0-2.099,55.369-3.801,123.633-3.801c68.254,0,123.617,1.701,123.617,3.801C374.707,373.589,319.344,375.291,251.089,375.291
		L251.089,375.291z"/>
	<path fill-rule="evenodd" clip-rule="evenodd" fill="#D5D5D5" d="M251.115,375.21c-67.18,0-121.671-1.67-121.671-3.728
		c0-2.06,54.491-3.73,121.671-3.73c67.171,0,121.656,1.669,121.656,3.73C372.771,373.54,318.286,375.21,251.115,375.21
		L251.115,375.21z"/>
	<path fill-rule="evenodd" clip-rule="evenodd" fill="#D4D4D4" d="M251.141,375.129c-66.098,0-119.71-1.638-119.71-3.658
		c0-2.021,53.612-3.659,119.71-3.659c66.088,0,119.695,1.638,119.695,3.659C370.836,373.491,317.229,375.129,251.141,375.129
		L251.141,375.129z"/>
	<path fill-rule="evenodd" clip-rule="evenodd" fill="#D3D3D3" d="M251.167,375.049c-65.015,0-117.749-1.607-117.749-3.587
		c0-1.982,52.734-3.588,117.749-3.588c65.005,0,117.733,1.606,117.733,3.588C368.9,373.442,316.172,375.049,251.167,375.049
		L251.167,375.049z"/>
	<path fill-rule="evenodd" clip-rule="evenodd" fill="#D2D2D2" d="M251.192,374.968c-63.932,0-115.787-1.575-115.787-3.516
		c0-1.943,51.856-3.518,115.787-3.518c63.922,0,115.772,1.574,115.772,3.518C366.964,373.393,315.114,374.968,251.192,374.968
		L251.192,374.968z"/>
	<path fill-rule="evenodd" clip-rule="evenodd" fill="#D1D1D1" d="M251.218,374.887c-62.849,0-113.826-1.543-113.826-3.445
		c0-1.904,50.977-3.447,113.826-3.447c62.839,0,113.811,1.543,113.811,3.447C365.029,373.344,314.057,374.887,251.218,374.887
		L251.218,374.887z"/>
	<path fill-rule="evenodd" clip-rule="evenodd" fill="#D0D0D0" d="M251.244,374.806c-61.766,0-111.865-1.512-111.865-3.374
		c0-1.865,50.099-3.376,111.865-3.376c61.756,0,111.849,1.511,111.849,3.376C363.093,373.295,313,374.806,251.244,374.806
		L251.244,374.806z"/>
	<path fill-rule="evenodd" clip-rule="evenodd" fill="#CFCFCF" d="M251.27,374.726c-60.683,0-109.903-1.48-109.903-3.303
		c0-1.826,49.22-3.306,109.903-3.306c60.673,0,109.888,1.479,109.888,3.306C361.158,373.246,311.942,374.726,251.27,374.726
		L251.27,374.726z"/>
	<path fill-rule="evenodd" clip-rule="evenodd" fill="#CECECE" d="M251.296,374.645c-59.6,0-107.942-1.448-107.942-3.233
		c0-1.787,48.342-3.235,107.942-3.235c59.59,0,107.927,1.448,107.927,3.235C359.222,373.197,310.885,374.645,251.296,374.645
		L251.296,374.645z"/>
	<path fill-rule="evenodd" clip-rule="evenodd" fill="#CDCDCD" d="M251.321,374.564c-58.517,0-105.981-1.416-105.981-3.162
		c0-1.748,47.464-3.164,105.981-3.164c58.506,0,105.965,1.416,105.965,3.164C357.287,373.148,309.828,374.564,251.321,374.564
		L251.321,374.564z"/>
	<path fill-rule="evenodd" clip-rule="evenodd" fill="#CCCCCC" d="M251.347,374.484c-57.434,0-104.02-1.385-104.02-3.091
		c0-1.709,46.585-3.094,104.02-3.094c57.423,0,104.004,1.384,104.004,3.094C355.351,373.099,308.77,374.484,251.347,374.484
		L251.347,374.484z"/>
	<path fill-rule="evenodd" clip-rule="evenodd" fill="#CBCBCB" d="M251.373,374.403c-56.352,0-102.058-1.353-102.058-3.02
		c0-1.67,45.707-3.023,102.058-3.023c56.34,0,102.043,1.352,102.043,3.023C353.415,373.05,307.713,374.403,251.373,374.403
		L251.373,374.403z"/>
	<path fill-rule="evenodd" clip-rule="evenodd" fill="#CACACA" d="M251.399,374.322c-55.269,0-100.097-1.321-100.097-2.949
		c0-1.631,44.828-2.952,100.097-2.952c55.257,0,100.081,1.321,100.081,2.952C351.48,373.001,306.656,374.322,251.399,374.322
		L251.399,374.322z"/>
	<path fill-rule="evenodd" clip-rule="evenodd" fill="#C9C9C9" d="M251.424,374.242c-54.186,0-98.136-1.29-98.136-2.878
		c0-1.592,43.95-2.881,98.136-2.881c54.174,0,98.12,1.289,98.12,2.881C349.544,372.952,305.598,374.242,251.424,374.242
		L251.424,374.242z"/>
	<path fill-rule="evenodd" clip-rule="evenodd" fill="#C8C8C8" d="M251.45,374.161c-53.103,0-96.174-1.258-96.174-2.807
		c0-1.553,43.071-2.811,96.174-2.811c53.091,0,96.159,1.257,96.159,2.811C347.609,372.903,304.541,374.161,251.45,374.161
		L251.45,374.161z"/>
	<path fill-rule="evenodd" clip-rule="evenodd" fill="#C7C7C7" d="M251.476,374.08c-52.02,0-94.213-1.226-94.213-2.737
		c0-1.514,42.193-2.74,94.213-2.74c52.008,0,94.197,1.226,94.197,2.74C345.673,372.854,303.484,374.08,251.476,374.08
		L251.476,374.08z"/>
	<path fill-rule="evenodd" clip-rule="evenodd" fill="#C6C6C6" d="M251.502,373.999c-50.937,0-92.252-1.194-92.252-2.666
		c0-1.475,41.315-2.669,92.252-2.669c50.925,0,92.236,1.194,92.236,2.669C343.738,372.805,302.427,373.999,251.502,373.999
		L251.502,373.999z"/>
	<path fill-rule="evenodd" clip-rule="evenodd" fill="#C5C5C5" d="M251.527,373.919c-49.854,0-90.29-1.163-90.29-2.595
		c0-1.436,40.436-2.599,90.29-2.599c49.842,0,90.275,1.162,90.275,2.599C341.802,372.756,301.369,373.919,251.527,373.919
		L251.527,373.919z"/>
	<path fill-rule="evenodd" clip-rule="evenodd" fill="#C4C4C4" d="M251.553,373.838c-48.771,0-88.329-1.131-88.329-2.524
		c0-1.397,39.558-2.528,88.329-2.528c48.759,0,88.313,1.131,88.313,2.528C339.867,372.707,300.312,373.838,251.553,373.838
		L251.553,373.838z"/>
	<path fill-rule="evenodd" clip-rule="evenodd" fill="#C3C3C3" d="M251.579,373.757c-47.689,0-86.368-1.099-86.368-2.453
		c0-1.358,38.679-2.457,86.368-2.457c47.676,0,86.352,1.099,86.352,2.457C337.931,372.658,299.255,373.757,251.579,373.757
		L251.579,373.757z"/>
	<path fill-rule="evenodd" clip-rule="evenodd" fill="#C2C2C2" d="M251.605,373.677c-46.606,0-84.407-1.068-84.407-2.382
		c0-1.319,37.801-2.386,84.407-2.386c46.593,0,84.391,1.067,84.391,2.386C335.995,372.609,298.197,373.677,251.605,373.677
		L251.605,373.677z"/>
	<path fill-rule="evenodd" clip-rule="evenodd" fill="#C1C1C1" d="M251.63,373.596c-45.523,0-82.445-1.036-82.445-2.311
		c0-1.28,36.922-2.316,82.445-2.316c45.509,0,82.429,1.035,82.429,2.316C334.06,372.56,297.14,373.596,251.63,373.596
		L251.63,373.596z"/>
	<path fill-rule="evenodd" clip-rule="evenodd" fill="#C0C0C0" d="M251.656,373.515c-44.44,0-80.484-1.004-80.484-2.241
		c0-1.241,36.044-2.245,80.484-2.245c44.426,0,80.468,1.004,80.468,2.245C332.124,372.511,296.083,373.515,251.656,373.515
		L251.656,373.515z"/>
	<path fill-rule="evenodd" clip-rule="evenodd" fill="#BFBFBF" d="M251.682,373.434c-43.357,0-78.523-0.972-78.523-2.17
		c0-1.202,35.166-2.174,78.523-2.174c43.343,0,78.507,0.972,78.507,2.174C330.189,372.462,295.025,373.434,251.682,373.434
		L251.682,373.434z"/>
	<path fill-rule="evenodd" clip-rule="evenodd" fill="#BEBEBE" d="M251.708,373.354c-42.274,0-76.561-0.941-76.561-2.099
		c0-1.163,34.287-2.104,76.561-2.104c42.26,0,76.545,0.94,76.545,2.104C328.253,372.413,293.968,373.354,251.708,373.354
		L251.708,373.354z"/>
	<path fill-rule="evenodd" clip-rule="evenodd" fill="#BDBDBD" d="M251.734,373.273c-41.191,0-74.6-0.909-74.6-2.028
		c0-1.124,33.409-2.033,74.6-2.033c41.177,0,74.584,0.909,74.584,2.033C326.318,372.364,292.911,373.273,251.734,373.273
		L251.734,373.273z"/>
	<path fill-rule="evenodd" clip-rule="evenodd" fill="#BCBCBC" d="M251.759,373.192c-40.108,0-72.639-0.877-72.639-1.957
		c0-1.085,32.53-1.962,72.639-1.962c40.094,0,72.623,0.877,72.623,1.962C324.382,372.315,291.853,373.192,251.759,373.192
		L251.759,373.192z"/>
	<path fill-rule="evenodd" clip-rule="evenodd" fill="#BBBBBB" d="M251.785,373.112c-39.025,0-70.677-0.845-70.677-1.886
		c0-1.046,31.652-1.891,70.677-1.891c39.011,0,70.661,0.845,70.661,1.891C322.447,372.266,290.796,373.112,251.785,373.112
		L251.785,373.112z"/>
	<path fill-rule="evenodd" clip-rule="evenodd" fill="#BABABA" d="M251.811,373.031c-37.943,0-68.716-0.814-68.716-1.815
		c0-1.007,30.774-1.821,68.716-1.821c37.928,0,68.7,0.814,68.7,1.821C320.511,372.217,289.739,373.031,251.811,373.031
		L251.811,373.031z"/>
	<path fill-rule="evenodd" clip-rule="evenodd" fill="#B9B9B9" d="M251.837,372.95c-36.86,0-66.755-0.782-66.755-1.745
		c0-0.968,29.895-1.75,66.755-1.75c36.845,0,66.739,0.782,66.739,1.75C318.575,372.168,288.681,372.95,251.837,372.95
		L251.837,372.95z"/>
	<path fill-rule="evenodd" clip-rule="evenodd" fill="#B8B8B8" d="M251.862,372.87c-35.777,0-64.794-0.75-64.794-1.674
		c0-0.929,29.017-1.679,64.794-1.679c35.762,0,64.778,0.75,64.778,1.679C316.64,372.119,287.624,372.87,251.862,372.87
		L251.862,372.87z"/>
	<path fill-rule="evenodd" clip-rule="evenodd" fill="#B7B7B7" d="M251.888,372.789c-34.694,0-62.832-0.719-62.832-1.603
		c0-0.89,28.138-1.609,62.832-1.609c34.679,0,62.816,0.718,62.816,1.609C314.704,372.07,286.567,372.789,251.888,372.789
		L251.888,372.789z"/>
	<path fill-rule="evenodd" clip-rule="evenodd" fill="#B6B6B6" d="M251.914,372.708c-33.611,0-60.871-0.687-60.871-1.532
		c0-0.851,27.26-1.538,60.871-1.538c33.596,0,60.855,0.687,60.855,1.538C312.769,372.021,285.509,372.708,251.914,372.708
		L251.914,372.708z"/>
	<path fill-rule="evenodd" clip-rule="evenodd" fill="#B5B5B5" d="M251.94,372.627c-32.528,0-58.91-0.655-58.91-1.461
		c0-0.812,26.381-1.467,58.91-1.467c32.512,0,58.894,0.655,58.894,1.467C310.833,371.972,284.452,372.627,251.94,372.627
		L251.94,372.627z"/>
	<path fill-rule="evenodd" clip-rule="evenodd" fill="#B4B4B4" d="M251.965,372.547c-31.445,0-56.948-0.623-56.948-1.39
		c0-0.773,25.503-1.397,56.948-1.397c31.429,0,56.932,0.623,56.932,1.397C308.898,371.923,283.395,372.547,251.965,372.547
		L251.965,372.547z"/>
	<path fill-rule="evenodd" clip-rule="evenodd" fill="#B3B3B3" d="M251.991,372.466c-30.362,0-54.987-0.592-54.987-1.319
		c0-0.734,24.625-1.326,54.987-1.326c30.346,0,54.971,0.592,54.971,1.326C306.962,371.874,282.337,372.466,251.991,372.466
		L251.991,372.466z"/>
</g>
<g>
	<path fill="#B845A7" d="M168,278.648c0-1.994,0-3.648,0-6.648c4,0,7.265,0,10.753,0c0,6-0.028,10.334,0.008,15.18
		c0.034,4.714-0.219,9.616,0.271,14.285c1.327,12.64,13.921,18.616,24.524,11.599c16.065-10.631,32.128-21.235,47.936-32.241
		c2.741-1.908,5.119-5.359,6.037-8.572c1.038-3.635,0.239-7.785,0.239-12.57c26.605-18.043,54.109-36.692,81.767-55.449
		c-1.314-1.947-2.423-3.587-3.596-5.324c-1.517,0.998-2.762,1.798-3.985,2.627c-25.537,17.309-51.056,34.646-76.656,51.863
		c-1.287,0.866-3.583,1.449-4.868,0.899c-6.738-2.885-12.696-2.073-18.58,2.267c-6.772,4.995-13.824,9.612-21.21,14.706
		c-0.224-1.364-0.41-1.988-0.417-2.613c-0.223-20.724-13.334-34.067-30.473-39.595c-12.101-3.903-24.431-3.426-36.807-3.653
		c-3.271-0.06-5.057,1.03-6.661,3.79c-4.769,8.207-9.821,16.249-15.062,24.847c-1.116-1.748-1.918-2.961-2.677-4.199
		c-4.507-7.347-8.949-14.736-13.565-22.013c-0.664-1.046-2.178-2.265-3.257-2.227c-11.291,0.397-22.77-0.083-33.814,1.857
		c-18.384,3.231-31.618,13.232-35.282,32.878c-0.096,0.514-0.412,0.986-0.626,1.478c0,33.436,0,52.107,0,85.542
		c0.364,0.677,0.791,1.329,1.084,2.036c3.106,7.493,10.058,11.388,17.857,9.981c7.182-1.296,12.258-7.794,12.278-15.711
		C63.288,316.978,63,305.051,63,278.36c0-1.718,0-3.36,0-4.36c4,0,7,0,11,0c0,1,0,2.81,0,4.647c0,29.784-0.404,59.569-0.42,89.353
		h94.738C168.305,338.216,168,308.432,168,278.648z"/>
	<path fill="#B845A7" d="M434.46,165.397c-9.968,0.28-19.906,0.079-29.881,0.079c-63.627,0-127.233-0.005-190.86,0.007
		c-8.183,0.001-11.033,2.819-11.043,10.846c-0.021,16.85-0.021,33.701,0.035,50.551c0.005,1.405,0.129,3.09,0.882,4.164
		c3.907,5.574,8.038,10.993,12.255,16.687c2.848-0.824,4.061-3.091,4.026-6.704c-0.178-18.062,0.127-36.127,0.127-54.19
		c0-1.416,0-2.838,0-3.838c70,0,140,0,209,0c0,50,0,99,0,149c-70,0-139,0-209,0c0-6,0-10.569,0-16.101
		c-4,2.079-5.758,4.138-8.51,5.377c-7.223,3.251-9.614,8.475-8.867,16.293c0.788,8.244,2.909,11.113,11.323,11.115
		c73.603,0.019,147.091-0.015,220.694,0.065c5.408,0.006,9.027-1.607,11.36-6.844c0-56.625,0-113.25,0-169.875
		C443.668,166.927,439.916,165.244,434.46,165.397z"/>
	<path fill="#B845A7" d="M119.733,218.206c14.973,0.605,29.328-8.757,34.562-22.539c5.609-14.77,1.481-30.907-10.093-40.786
		c-5.852-4.994-12.765-6.882-19.984-8.882c-2.157,0-4.314,0-6.471,0c-0.623,0-1.229,0.649-1.871,0.736
		c-18.911,2.566-31.66,18.691-30.971,36.482C85.674,203.105,100.366,217.424,119.733,218.206z"/>
</g>
<g>
	<path fill-rule="evenodd" clip-rule="evenodd" fill="#B845A7" d="M369.399,240.404c-0.552-2.283-1.054-4.642-1.506-7.051
		c-0.401,2.334-0.903,4.667-1.456,7.001c-0.602,2.333-1.279,4.642-2.057,7.002l-8.883,27.726h25.068l-9.284-28.003
		C370.578,244.921,369.951,242.712,369.399,240.404z M363.678,269.11l4.216-13.224l4.391,13.224H363.678z"/>
	<path fill-rule="evenodd" clip-rule="evenodd" fill="#B845A7" d="M407.439,300.199l-20.802-60.875h8.004v-20.852h-53.096v20.852
		h8.03l-20.727,60.875h-9.912v21.328h43.034v-21.328h-8.557l3.287-10.313h22.533l3.338,10.313h-8.632v21.328h43.184v-21.328H407.439
		z M411.153,315.557h-31.216v-9.385h10.866l-7.227-22.257h-31.241l-7.101,22.257h10.765v9.385h-31.09v-9.385h8.231l24.766-72.819
		h-10.389v-8.908h41.152v8.908h-10.414l24.917,72.819h7.98V315.557z"/>
</g>
</svg>
