<?xml version="1.0" encoding="utf-8"?>
<!-- Generator: Adobe Illustrator 17.0.0, SVG Export Plug-In . SVG Version: 6.00 Build 0)  -->
<!DOCTYPE svg PUBLIC "-//W3C//DTD SVG 1.1//EN" "http://www.w3.org/Graphics/SVG/1.1/DTD/svg11.dtd">
<svg version="1.1" id="Capa_1" xmlns="http://www.w3.org/2000/svg" xmlns:xlink="http://www.w3.org/1999/xlink" x="0px" y="0px"
	 width="500px" height="500px" viewBox="0 0 500 500" enable-background="new 0 0 500 500" xml:space="preserve">
<g>
	<g opacity="0.9">
		<path fill-rule="evenodd" clip-rule="evenodd" fill="#FFFFFF" d="M250.007,366.397C136.263,366.397,44,363.363,44,359.622
			c0-3.738,92.263-6.77,206.007-6.77c113.744,0,205.993,3.033,205.993,6.77C456,363.363,363.751,366.397,250.007,366.397
			L250.007,366.397z"/>
		<path fill-rule="evenodd" clip-rule="evenodd" fill="#FEFEFE" d="M250.033,366.316c-112.661,0-204.046-3.002-204.046-6.704
			c0-3.699,91.384-6.7,204.046-6.7c112.661,0,204.032,3.001,204.032,6.7C454.064,363.314,362.694,366.316,250.033,366.316
			L250.033,366.316z"/>
		<path fill-rule="evenodd" clip-rule="evenodd" fill="#FDFDFD" d="M250.059,366.236c-111.579,0-202.085-2.971-202.085-6.633
			c0-3.66,90.506-6.629,202.085-6.629c111.578,0,202.07,2.969,202.07,6.629C452.129,363.265,361.636,366.236,250.059,366.236
			L250.059,366.236z"/>
		<path fill-rule="evenodd" clip-rule="evenodd" fill="#FCFCFC" d="M250.084,366.155c-110.496,0-200.123-2.939-200.123-6.563
			c0-3.621,89.628-6.558,200.123-6.558c110.495,0,200.109,2.937,200.109,6.558C450.193,363.216,360.579,366.155,250.084,366.155
			L250.084,366.155z"/>
		<path fill-rule="evenodd" clip-rule="evenodd" fill="#FBFBFB" d="M250.11,366.074c-109.413,0-198.162-2.907-198.162-6.492
			c0-3.582,88.749-6.487,198.162-6.487c109.412,0,198.148,2.906,198.148,6.487C448.258,363.167,359.522,366.074,250.11,366.074
			L250.11,366.074z"/>
		<path fill-rule="evenodd" clip-rule="evenodd" fill="#FAFAFA" d="M250.136,365.993c-108.33,0-196.201-2.876-196.201-6.421
			c0-3.543,87.871-6.417,196.201-6.417c108.328,0,196.186,2.874,196.186,6.417C446.322,363.118,358.464,365.993,250.136,365.993
			L250.136,365.993z"/>
		<path fill-rule="evenodd" clip-rule="evenodd" fill="#F9F9F9" d="M250.162,365.913c-107.247,0-194.239-2.844-194.239-6.35
			c0-3.504,86.992-6.346,194.239-6.346c107.245,0,194.225,2.842,194.225,6.346C444.387,363.069,357.407,365.913,250.162,365.913
			L250.162,365.913z"/>
		<path fill-rule="evenodd" clip-rule="evenodd" fill="#F8F8F8" d="M250.187,365.832c-106.164,0-192.278-2.812-192.278-6.279
			c0-3.465,86.114-6.275,192.278-6.275c106.162,0,192.264,2.811,192.264,6.275C442.451,363.02,356.35,365.832,250.187,365.832
			L250.187,365.832z"/>
		<path fill-rule="evenodd" clip-rule="evenodd" fill="#F7F7F7" d="M250.213,365.751c-105.081,0-190.317-2.78-190.317-6.208
			c0-3.426,85.235-6.205,190.317-6.205c105.079,0,190.302,2.779,190.302,6.205C440.516,362.971,355.292,365.751,250.213,365.751
			L250.213,365.751z"/>
		<path fill-rule="evenodd" clip-rule="evenodd" fill="#F6F6F6" d="M250.239,365.671c-103.998,0-188.355-2.749-188.355-6.137
			c0-3.387,84.357-6.134,188.355-6.134c103.996,0,188.341,2.747,188.341,6.134C438.58,362.922,354.235,365.671,250.239,365.671
			L250.239,365.671z"/>
		<path fill-rule="evenodd" clip-rule="evenodd" fill="#F5F5F5" d="M250.265,365.59c-102.916,0-186.394-2.717-186.394-6.067
			c0-3.348,83.479-6.063,186.394-6.063c102.913,0,186.38,2.716,186.38,6.063C436.644,362.873,353.178,365.59,250.265,365.59
			L250.265,365.59z"/>
		<path fill-rule="evenodd" clip-rule="evenodd" fill="#F4F4F4" d="M250.291,365.509c-101.833,0-184.433-2.685-184.433-5.996
			c0-3.309,82.6-5.992,184.433-5.992c101.83,0,184.418,2.684,184.418,5.992C434.709,362.824,352.12,365.509,250.291,365.509
			L250.291,365.509z"/>
		<path fill-rule="evenodd" clip-rule="evenodd" fill="#F3F3F3" d="M250.316,365.429c-100.75,0-182.472-2.654-182.472-5.925
			c0-3.27,81.722-5.922,182.472-5.922c100.747,0,182.457,2.652,182.457,5.922C432.773,362.775,351.063,365.429,250.316,365.429
			L250.316,365.429z"/>
		<path fill-rule="evenodd" clip-rule="evenodd" fill="#F2F2F2" d="M250.342,365.348c-99.667,0-180.51-2.622-180.51-5.854
			c0-3.231,80.843-5.851,180.51-5.851c99.664,0,180.496,2.62,180.496,5.851C430.838,362.726,350.006,365.348,250.342,365.348
			L250.342,365.348z"/>
		<path fill-rule="evenodd" clip-rule="evenodd" fill="#F1F1F1" d="M250.368,365.267c-98.584,0-178.549-2.59-178.549-5.783
			c0-3.192,79.965-5.78,178.549-5.78c98.581,0,178.534,2.589,178.534,5.78C428.902,362.677,348.949,365.267,250.368,365.267
			L250.368,365.267z"/>
		<path fill-rule="evenodd" clip-rule="evenodd" fill="#F0F0F0" d="M250.394,365.186c-97.501,0-176.588-2.558-176.588-5.712
			c0-3.153,79.087-5.71,176.588-5.71c97.498,0,176.573,2.557,176.573,5.71C426.967,362.628,347.891,365.186,250.394,365.186
			L250.394,365.186z"/>
		<path fill-rule="evenodd" clip-rule="evenodd" fill="#EFEFEF" d="M250.419,365.106c-96.418,0-174.626-2.527-174.626-5.641
			c0-3.114,78.208-5.639,174.626-5.639c96.414,0,174.612,2.525,174.612,5.639C425.031,362.579,346.834,365.106,250.419,365.106
			L250.419,365.106z"/>
		<path fill-rule="evenodd" clip-rule="evenodd" fill="#EEEEEE" d="M250.445,365.025c-95.335,0-172.665-2.495-172.665-5.571
			c0-3.075,77.33-5.568,172.665-5.568c95.331,0,172.65,2.494,172.65,5.568C423.096,362.53,345.777,365.025,250.445,365.025
			L250.445,365.025z"/>
		<path fill-rule="evenodd" clip-rule="evenodd" fill="#EDEDED" d="M250.471,364.944c-94.252,0-170.704-2.463-170.704-5.5
			c0-3.036,76.451-5.498,170.704-5.498c94.248,0,170.689,2.462,170.689,5.498C421.16,362.481,344.719,364.944,250.471,364.944
			L250.471,364.944z"/>
		<path fill-rule="evenodd" clip-rule="evenodd" fill="#ECECEC" d="M250.497,364.864c-93.17,0-168.742-2.431-168.742-5.429
			c0-2.997,75.573-5.427,168.742-5.427c93.165,0,168.728,2.43,168.728,5.427C419.224,362.432,343.662,364.864,250.497,364.864
			L250.497,364.864z"/>
		<path fill-rule="evenodd" clip-rule="evenodd" fill="#EBEBEB" d="M250.522,364.783c-92.087,0-166.781-2.4-166.781-5.358
			c0-2.958,74.694-5.356,166.781-5.356c92.082,0,166.766,2.399,166.766,5.356C417.289,362.383,342.605,364.783,250.522,364.783
			L250.522,364.783z"/>
		<path fill-rule="evenodd" clip-rule="evenodd" fill="#EAEAEA" d="M250.548,364.702c-91.004,0-164.82-2.368-164.82-5.287
			c0-2.919,73.816-5.285,164.82-5.285c90.999,0,164.805,2.367,164.805,5.285C415.353,362.334,341.547,364.702,250.548,364.702
			L250.548,364.702z"/>
		<path fill-rule="evenodd" clip-rule="evenodd" fill="#E9E9E9" d="M250.574,364.621c-89.921,0-162.859-2.336-162.859-5.216
			c0-2.88,72.938-5.215,162.859-5.215c89.916,0,162.844,2.335,162.844,5.215C413.418,362.285,340.49,364.621,250.574,364.621
			L250.574,364.621z"/>
		<path fill-rule="evenodd" clip-rule="evenodd" fill="#E8E8E8" d="M250.6,364.541c-88.838,0-160.897-2.305-160.897-5.146
			c0-2.841,72.059-5.144,160.897-5.144c88.833,0,160.882,2.303,160.882,5.144C411.482,362.236,339.433,364.541,250.6,364.541
			L250.6,364.541z"/>
		<path fill-rule="evenodd" clip-rule="evenodd" fill="#E7E7E7" d="M250.626,364.46c-87.755,0-158.936-2.273-158.936-5.075
			c0-2.802,71.181-5.073,158.936-5.073c87.75,0,158.921,2.272,158.921,5.073C409.547,362.187,338.375,364.46,250.626,364.46
			L250.626,364.46z"/>
		<path fill-rule="evenodd" clip-rule="evenodd" fill="#E6E6E6" d="M250.651,364.379c-86.672,0-156.975-2.241-156.975-5.004
			c0-2.763,70.302-5.003,156.975-5.003c86.667,0,156.96,2.24,156.96,5.003C407.611,362.138,337.318,364.379,250.651,364.379
			L250.651,364.379z"/>
		<path fill-rule="evenodd" clip-rule="evenodd" fill="#E5E5E5" d="M250.677,364.299c-85.589,0-155.013-2.209-155.013-4.933
			s69.424-4.932,155.013-4.932c85.584,0,154.998,2.208,154.998,4.932S336.261,364.299,250.677,364.299L250.677,364.299z"/>
		<path fill-rule="evenodd" clip-rule="evenodd" fill="#E4E4E4" d="M250.703,364.218c-84.507,0-153.052-2.178-153.052-4.862
			c0-2.685,68.546-4.861,153.052-4.861c84.501,0,153.037,2.177,153.037,4.861C403.74,362.04,335.203,364.218,250.703,364.218
			L250.703,364.218z"/>
		<path fill-rule="evenodd" clip-rule="evenodd" fill="#E3E3E3" d="M250.729,364.137c-83.424,0-151.091-2.146-151.091-4.791
			c0-2.646,67.667-4.79,151.091-4.79c83.417,0,151.076,2.145,151.076,4.79C401.804,361.991,334.146,364.137,250.729,364.137
			L250.729,364.137z"/>
		<path fill-rule="evenodd" clip-rule="evenodd" fill="#E2E2E2" d="M250.754,364.057c-82.341,0-149.129-2.114-149.129-4.72
			c0-2.607,66.789-4.72,149.129-4.72c82.334,0,149.114,2.113,149.114,4.72C399.869,361.942,333.089,364.057,250.754,364.057
			L250.754,364.057z"/>
		<path fill-rule="evenodd" clip-rule="evenodd" fill="#E1E1E1" d="M250.78,363.976c-81.258,0-147.168-2.083-147.168-4.65
			c0-2.568,65.91-4.649,147.168-4.649c81.251,0,147.153,2.082,147.153,4.649C397.933,361.893,332.031,363.976,250.78,363.976
			L250.78,363.976z"/>
		<path fill-rule="evenodd" clip-rule="evenodd" fill="#E0E0E0" d="M250.806,363.895c-80.175,0-145.207-2.051-145.207-4.579
			c0-2.529,65.032-4.578,145.207-4.578c80.168,0,145.192,2.05,145.192,4.578C395.998,361.844,330.974,363.895,250.806,363.895
			L250.806,363.895z"/>
		<path fill-rule="evenodd" clip-rule="evenodd" fill="#DFDFDF" d="M250.832,363.814c-79.092,0-143.246-2.019-143.246-4.508
			c0-2.489,64.153-4.508,143.246-4.508c79.085,0,143.231,2.018,143.231,4.508C394.062,361.795,329.917,363.814,250.832,363.814
			L250.832,363.814z"/>
		<path fill-rule="evenodd" clip-rule="evenodd" fill="#DEDEDE" d="M250.857,363.734c-78.009,0-141.284-1.987-141.284-4.437
			c0-2.45,63.275-4.437,141.284-4.437c78.002,0,141.269,1.986,141.269,4.437C392.127,361.746,328.859,363.734,250.857,363.734
			L250.857,363.734z"/>
		<path fill-rule="evenodd" clip-rule="evenodd" fill="#DDDDDD" d="M250.883,363.653c-76.926,0-139.323-1.956-139.323-4.366
			c0-2.411,62.397-4.366,139.323-4.366c76.919,0,139.308,1.955,139.308,4.366C390.191,361.697,327.802,363.653,250.883,363.653
			L250.883,363.653z"/>
		<path fill-rule="evenodd" clip-rule="evenodd" fill="#DCDCDC" d="M250.909,363.572c-75.843,0-137.362-1.924-137.362-4.295
			c0-2.372,61.518-4.296,137.362-4.296c75.836,0,137.347,1.923,137.347,4.296C388.256,361.648,326.745,363.572,250.909,363.572
			L250.909,363.572z"/>
		<path fill-rule="evenodd" clip-rule="evenodd" fill="#DBDBDB" d="M250.935,363.492c-74.761,0-135.4-1.892-135.4-4.224
			c0-2.333,60.64-4.225,135.4-4.225c74.753,0,135.385,1.891,135.385,4.225C386.32,361.599,325.688,363.492,250.935,363.492
			L250.935,363.492z"/>
		<path fill-rule="evenodd" clip-rule="evenodd" fill="#DADADA" d="M250.961,363.411c-73.678,0-133.439-1.861-133.439-4.154
			c0-2.294,59.761-4.154,133.439-4.154c73.67,0,133.424,1.86,133.424,4.154C384.384,361.55,324.63,363.411,250.961,363.411
			L250.961,363.411z"/>
		<path fill-rule="evenodd" clip-rule="evenodd" fill="#D9D9D9" d="M250.986,363.33c-72.595,0-131.478-1.829-131.478-4.083
			c0-2.255,58.883-4.083,131.478-4.083c72.587,0,131.463,1.828,131.463,4.083C382.449,361.501,323.573,363.33,250.986,363.33
			L250.986,363.33z"/>
		<path fill-rule="evenodd" clip-rule="evenodd" fill="#D9D9D9" d="M251.012,363.25c-71.512,0-129.516-1.797-129.516-4.012
			c0-2.216,58.005-4.013,129.516-4.013c71.504,0,129.501,1.796,129.501,4.013C380.513,361.452,322.516,363.25,251.012,363.25
			L251.012,363.25z"/>
		<path fill-rule="evenodd" clip-rule="evenodd" fill="#D8D8D8" d="M251.038,363.169c-70.429,0-127.555-1.765-127.555-3.941
			c0-2.177,57.126-3.942,127.555-3.942c70.42,0,127.54,1.765,127.54,3.942C378.578,361.403,321.458,363.169,251.038,363.169
			L251.038,363.169z"/>
		<path fill-rule="evenodd" clip-rule="evenodd" fill="#D7D7D7" d="M251.064,363.088c-69.346,0-125.594-1.734-125.594-3.87
			c0-2.138,56.248-3.871,125.594-3.871c69.337,0,125.579,1.733,125.579,3.871C376.642,361.354,320.401,363.088,251.064,363.088
			L251.064,363.088z"/>
		<path fill-rule="evenodd" clip-rule="evenodd" fill="#D6D6D6" d="M251.089,363.007c-68.263,0-123.633-1.702-123.633-3.799
			c0-2.099,55.369-3.801,123.633-3.801c68.254,0,123.617,1.701,123.617,3.801C374.707,361.305,319.344,363.007,251.089,363.007
			L251.089,363.007z"/>
		<path fill-rule="evenodd" clip-rule="evenodd" fill="#D5D5D5" d="M251.115,362.927c-67.18,0-121.671-1.67-121.671-3.728
			c0-2.06,54.491-3.73,121.671-3.73c67.171,0,121.656,1.669,121.656,3.73C372.771,361.257,318.286,362.927,251.115,362.927
			L251.115,362.927z"/>
		<path fill-rule="evenodd" clip-rule="evenodd" fill="#D4D4D4" d="M251.141,362.846c-66.098,0-119.71-1.638-119.71-3.658
			c0-2.021,53.612-3.659,119.71-3.659c66.088,0,119.695,1.638,119.695,3.659C370.836,361.208,317.229,362.846,251.141,362.846
			L251.141,362.846z"/>
		<path fill-rule="evenodd" clip-rule="evenodd" fill="#D3D3D3" d="M251.167,362.765c-65.015,0-117.749-1.607-117.749-3.587
			c0-1.982,52.734-3.588,117.749-3.588c65.005,0,117.733,1.606,117.733,3.588C368.9,361.159,316.172,362.765,251.167,362.765
			L251.167,362.765z"/>
		<path fill-rule="evenodd" clip-rule="evenodd" fill="#D2D2D2" d="M251.192,362.685c-63.932,0-115.787-1.575-115.787-3.516
			c0-1.943,51.856-3.518,115.787-3.518c63.922,0,115.772,1.574,115.772,3.518C366.964,361.11,315.114,362.685,251.192,362.685
			L251.192,362.685z"/>
		<path fill-rule="evenodd" clip-rule="evenodd" fill="#D1D1D1" d="M251.218,362.604c-62.849,0-113.826-1.543-113.826-3.445
			c0-1.904,50.977-3.447,113.826-3.447c62.839,0,113.811,1.543,113.811,3.447C365.029,361.061,314.057,362.604,251.218,362.604
			L251.218,362.604z"/>
		<path fill-rule="evenodd" clip-rule="evenodd" fill="#D0D0D0" d="M251.244,362.523c-61.766,0-111.865-1.512-111.865-3.374
			c0-1.865,50.099-3.376,111.865-3.376c61.756,0,111.849,1.511,111.849,3.376C363.093,361.012,313,362.523,251.244,362.523
			L251.244,362.523z"/>
		<path fill-rule="evenodd" clip-rule="evenodd" fill="#CFCFCF" d="M251.27,362.442c-60.683,0-109.903-1.48-109.903-3.303
			c0-1.826,49.22-3.306,109.903-3.306c60.673,0,109.888,1.479,109.888,3.306C361.158,360.963,311.942,362.442,251.27,362.442
			L251.27,362.442z"/>
		<path fill-rule="evenodd" clip-rule="evenodd" fill="#CECECE" d="M251.296,362.362c-59.6,0-107.942-1.448-107.942-3.232
			c0-1.787,48.342-3.235,107.942-3.235c59.59,0,107.927,1.448,107.927,3.235C359.222,360.914,310.885,362.362,251.296,362.362
			L251.296,362.362z"/>
		<path fill-rule="evenodd" clip-rule="evenodd" fill="#CDCDCD" d="M251.321,362.281c-58.517,0-105.981-1.416-105.981-3.162
			c0-1.748,47.464-3.164,105.981-3.164c58.506,0,105.965,1.416,105.965,3.164C357.287,360.865,309.828,362.281,251.321,362.281
			L251.321,362.281z"/>
		<path fill-rule="evenodd" clip-rule="evenodd" fill="#CCCCCC" d="M251.347,362.2c-57.434,0-104.02-1.385-104.02-3.091
			c0-1.709,46.585-3.093,104.02-3.093c57.423,0,104.004,1.384,104.004,3.093C355.351,360.816,308.77,362.2,251.347,362.2
			L251.347,362.2z"/>
		<path fill-rule="evenodd" clip-rule="evenodd" fill="#CBCBCB" d="M251.373,362.12c-56.352,0-102.058-1.353-102.058-3.02
			c0-1.67,45.707-3.023,102.058-3.023c56.34,0,102.043,1.352,102.043,3.023C353.415,360.767,307.713,362.12,251.373,362.12
			L251.373,362.12z"/>
		<path fill-rule="evenodd" clip-rule="evenodd" fill="#CACACA" d="M251.399,362.039c-55.269,0-100.097-1.321-100.097-2.949
			c0-1.631,44.828-2.952,100.097-2.952c55.257,0,100.081,1.321,100.081,2.952C351.48,360.718,306.656,362.039,251.399,362.039
			L251.399,362.039z"/>
		<path fill-rule="evenodd" clip-rule="evenodd" fill="#C9C9C9" d="M251.424,361.958c-54.186,0-98.136-1.29-98.136-2.878
			c0-1.592,43.95-2.881,98.136-2.881c54.174,0,98.12,1.289,98.12,2.881C349.544,360.669,305.598,361.958,251.424,361.958
			L251.424,361.958z"/>
		<path fill-rule="evenodd" clip-rule="evenodd" fill="#C8C8C8" d="M251.45,361.878c-53.103,0-96.174-1.258-96.174-2.807
			c0-1.553,43.071-2.811,96.174-2.811c53.091,0,96.159,1.257,96.159,2.811C347.609,360.62,304.541,361.878,251.45,361.878
			L251.45,361.878z"/>
		<path fill-rule="evenodd" clip-rule="evenodd" fill="#C7C7C7" d="M251.476,361.797c-52.02,0-94.213-1.226-94.213-2.737
			c0-1.514,42.193-2.74,94.213-2.74c52.008,0,94.197,1.226,94.197,2.74C345.673,360.571,303.484,361.797,251.476,361.797
			L251.476,361.797z"/>
		<path fill-rule="evenodd" clip-rule="evenodd" fill="#C6C6C6" d="M251.502,361.716c-50.937,0-92.252-1.194-92.252-2.666
			c0-1.475,41.315-2.669,92.252-2.669c50.925,0,92.236,1.194,92.236,2.669C343.738,360.522,302.427,361.716,251.502,361.716
			L251.502,361.716z"/>
		<path fill-rule="evenodd" clip-rule="evenodd" fill="#C5C5C5" d="M251.527,361.635c-49.854,0-90.29-1.163-90.29-2.595
			c0-1.436,40.436-2.599,90.29-2.599c49.842,0,90.275,1.162,90.275,2.599C341.802,360.473,301.369,361.635,251.527,361.635
			L251.527,361.635z"/>
		<path fill-rule="evenodd" clip-rule="evenodd" fill="#C4C4C4" d="M251.553,361.555c-48.771,0-88.329-1.131-88.329-2.524
			c0-1.397,39.558-2.528,88.329-2.528c48.759,0,88.313,1.131,88.313,2.528C339.867,360.424,300.312,361.555,251.553,361.555
			L251.553,361.555z"/>
		<path fill-rule="evenodd" clip-rule="evenodd" fill="#C3C3C3" d="M251.579,361.474c-47.689,0-86.368-1.099-86.368-2.453
			c0-1.358,38.679-2.457,86.368-2.457c47.676,0,86.352,1.099,86.352,2.457C337.931,360.375,299.255,361.474,251.579,361.474
			L251.579,361.474z"/>
		<path fill-rule="evenodd" clip-rule="evenodd" fill="#C2C2C2" d="M251.605,361.393c-46.606,0-84.407-1.068-84.407-2.382
			c0-1.319,37.801-2.386,84.407-2.386c46.593,0,84.391,1.067,84.391,2.386C335.995,360.326,298.197,361.393,251.605,361.393
			L251.605,361.393z"/>
		<path fill-rule="evenodd" clip-rule="evenodd" fill="#C1C1C1" d="M251.63,361.313c-45.523,0-82.445-1.036-82.445-2.311
			c0-1.28,36.922-2.316,82.445-2.316c45.509,0,82.429,1.035,82.429,2.316C334.06,360.277,297.14,361.313,251.63,361.313
			L251.63,361.313z"/>
		<path fill-rule="evenodd" clip-rule="evenodd" fill="#C0C0C0" d="M251.656,361.232c-44.44,0-80.484-1.004-80.484-2.241
			c0-1.241,36.044-2.245,80.484-2.245c44.426,0,80.468,1.004,80.468,2.245C332.124,360.228,296.083,361.232,251.656,361.232
			L251.656,361.232z"/>
		<path fill-rule="evenodd" clip-rule="evenodd" fill="#BFBFBF" d="M251.682,361.151c-43.357,0-78.523-0.972-78.523-2.17
			c0-1.202,35.166-2.174,78.523-2.174c43.343,0,78.507,0.972,78.507,2.174C330.189,360.179,295.025,361.151,251.682,361.151
			L251.682,361.151z"/>
		<path fill-rule="evenodd" clip-rule="evenodd" fill="#BEBEBE" d="M251.708,361.07c-42.274,0-76.561-0.941-76.561-2.099
			c0-1.163,34.287-2.104,76.561-2.104c42.26,0,76.545,0.94,76.545,2.104C328.253,360.13,293.968,361.07,251.708,361.07
			L251.708,361.07z"/>
		<path fill-rule="evenodd" clip-rule="evenodd" fill="#BDBDBD" d="M251.734,360.99c-41.191,0-74.6-0.909-74.6-2.028
			c0-1.124,33.409-2.033,74.6-2.033c41.177,0,74.584,0.909,74.584,2.033C326.318,360.081,292.911,360.99,251.734,360.99
			L251.734,360.99z"/>
		<path fill-rule="evenodd" clip-rule="evenodd" fill="#BCBCBC" d="M251.759,360.909c-40.108,0-72.639-0.877-72.639-1.957
			c0-1.085,32.53-1.962,72.639-1.962c40.094,0,72.623,0.877,72.623,1.962C324.382,360.032,291.853,360.909,251.759,360.909
			L251.759,360.909z"/>
		<path fill-rule="evenodd" clip-rule="evenodd" fill="#BBBBBB" d="M251.785,360.828c-39.025,0-70.677-0.845-70.677-1.886
			c0-1.046,31.652-1.891,70.677-1.891c39.011,0,70.661,0.845,70.661,1.891C322.447,359.983,290.796,360.828,251.785,360.828
			L251.785,360.828z"/>
		<path fill-rule="evenodd" clip-rule="evenodd" fill="#BABABA" d="M251.811,360.748c-37.943,0-68.716-0.814-68.716-1.815
			c0-1.007,30.774-1.821,68.716-1.821c37.928,0,68.7,0.814,68.7,1.821C320.511,359.934,289.739,360.748,251.811,360.748
			L251.811,360.748z"/>
		<path fill-rule="evenodd" clip-rule="evenodd" fill="#B9B9B9" d="M251.837,360.667c-36.86,0-66.755-0.782-66.755-1.745
			c0-0.968,29.895-1.75,66.755-1.75c36.845,0,66.739,0.782,66.739,1.75C318.575,359.885,288.681,360.667,251.837,360.667
			L251.837,360.667z"/>
		<path fill-rule="evenodd" clip-rule="evenodd" fill="#B8B8B8" d="M251.862,360.586c-35.777,0-64.794-0.75-64.794-1.674
			c0-0.929,29.017-1.679,64.794-1.679c35.762,0,64.778,0.75,64.778,1.679C316.64,359.836,287.624,360.586,251.862,360.586
			L251.862,360.586z"/>
		<path fill-rule="evenodd" clip-rule="evenodd" fill="#B7B7B7" d="M251.888,360.506c-34.694,0-62.832-0.719-62.832-1.603
			c0-0.89,28.138-1.609,62.832-1.609c34.679,0,62.816,0.719,62.816,1.609C314.704,359.787,286.567,360.506,251.888,360.506
			L251.888,360.506z"/>
		<path fill-rule="evenodd" clip-rule="evenodd" fill="#B6B6B6" d="M251.914,360.425c-33.611,0-60.871-0.687-60.871-1.532
			c0-0.851,27.26-1.538,60.871-1.538c33.596,0,60.855,0.687,60.855,1.538C312.769,359.738,285.509,360.425,251.914,360.425
			L251.914,360.425z"/>
		<path fill-rule="evenodd" clip-rule="evenodd" fill="#B5B5B5" d="M251.94,360.344c-32.528,0-58.91-0.655-58.91-1.461
			c0-0.812,26.381-1.467,58.91-1.467c32.512,0,58.894,0.655,58.894,1.467C310.833,359.689,284.452,360.344,251.94,360.344
			L251.94,360.344z"/>
		<path fill-rule="evenodd" clip-rule="evenodd" fill="#B4B4B4" d="M251.965,360.263c-31.445,0-56.948-0.623-56.948-1.39
			c0-0.773,25.503-1.397,56.948-1.397c31.429,0,56.932,0.623,56.932,1.397C308.898,359.64,283.395,360.263,251.965,360.263
			L251.965,360.263z"/>
		<path fill-rule="evenodd" clip-rule="evenodd" fill="#B3B3B3" d="M251.991,360.183c-30.362,0-54.987-0.592-54.987-1.319
			c0-0.734,24.625-1.326,54.987-1.326c30.346,0,54.971,0.592,54.971,1.326C306.962,359.591,282.337,360.183,251.991,360.183
			L251.991,360.183z"/>
	</g>
</g>
<g>
	<path fill="none" d="M196.84,268.027c-1.466-0.063-2.931-0.126-4.397-0.189c-3.417,30.054-6.833,60.109-10.256,90.162h11.908
		c1.17-23.684,2.352-47.368,3.512-71.053C197.915,280.668,197.122,274.335,196.84,268.027z"/>
	<path fill="none" d="M304.646,267.409c-0.785,3.113-2.35,6.254-2.24,9.335c0.969,27.085,1.92,54.171,2.9,81.256h12.445
		c-3.08-26.743-6.08-53.496-9.156-80.24C308.206,274.37,307.502,271.016,304.646,267.409z"/>
	<path fill="#779DFF" d="M192.444,267.838c1.466,0.063,2.931,0.126,4.397,0.189c0.282,6.308,1.075,12.641,0.768,18.92
		c-1.16,23.685-2.342,47.369-3.512,71.053h111.21c-0.98-27.085-1.931-54.171-2.9-81.256c-0.11-3.081,1.455-6.222,2.24-9.335
		c2.856,3.607,3.559,6.961,3.949,10.351c3.077,26.744,6.076,53.497,9.156,80.24h38.004c-3.698-34.359-7.344-68.727-12.141-102.933
		c-1.049-7.482-8.07-17.654-14.735-20.137c-17.405-6.483-35.964-10.55-54.401-13.367c-15.387-2.351-22.247,5.649-20.466,20.948
		c2.518,21.634,4.188,43.497,8.733,64.724c3.722,17.382-1.66,30.031-12.728,42.922c-11.867-13.402-16.332-26.621-12.631-43.844
		c4.434-20.632,6.145-41.886,8.303-62.946c0.559-5.457,0.359-13.088-2.883-16.472c-13.113-13.686-80.044,3.974-85.859,22.058
		c-0.912,2.837-1.032,5.944-1.382,8.943c-2.171,18.632-4.338,37.264-6.44,55.904c-1.661,14.731-3.309,29.464-4.932,44.199h37.993
		C185.61,327.946,189.026,297.892,192.444,267.838z"/>
	<path fill="#779DFF" d="M411.402,228.779c1.978-0.229,3.956-0.458,5.934-0.686c1.082,6.742,2.438,13.453,3.196,20.231
		c2.754,24.64,5.229,49.311,7.972,73.952c1.182,10.615,5.64,19.847,17.782,18.412c11.771-1.391,14.896-10.719,13.584-21.757
		c-2.926-24.619-5.338-49.304-8.636-73.872c-6.424-47.841-6.617-47.815-54.757-56.054c-20.072-3.435-24.948,1.195-22.521,21.961
		c2.245,19.216,5.502,38.34,7.011,57.606c0.938,11.983-1.827,23.244-17.772,24.815c3.54,21.522,7.274,43.049,10.846,64.614h43.068
		C415.084,314.933,413.321,271.852,411.402,228.779z"/>
	<path fill="#779DFF" d="M131.913,332.281c4.49-11.375,3.094-25.074,4.562-39.194c-15.459-0.796-17.402-12.353-17.522-23.218
		c-0.126-11.389,2.575-22.791,3.74-34.217c5.438-53.344,2.651-55.125-49.886-40.001c-14.711,4.235-20.792,12.103-22.174,26.515
		c-3.059,31.899-6.739,63.742-10.451,95.575c-1.365,11.703,1.174,21.769,14.071,23.009c12.125,1.166,16.113-8.52,17.259-19.036
		c1.507-13.826,2.701-27.688,4.324-41.5c2.048-17.429,4.394-34.822,6.611-52.231c1.72,42.855,2.957,85.189,1.369,127.417
		c-0.033,0.867-0.084,1.734-0.119,2.601h40.259C125.985,349.353,128.562,340.77,131.913,332.281z"/>
	<path fill="#779DFF" d="M248.232,214.823c24.04,1.296,47.77-25.81,48.923-55.883c0.91-23.749-20.864-46.617-45.419-47.703
		c-24.156-1.068-47.842,20.355-48.862,44.194C201.65,184.012,224.191,213.527,248.232,214.823z"/>
	<path fill="#779DFF" d="M129.645,182.207c19.375,0.259,39.791-23.928,39.509-46.807c-0.261-21.1-18.925-39.469-39.697-39.068
		c-20.964,0.404-39.123,19.283-38.627,40.157C91.362,158.868,110.965,181.957,129.645,182.207z"/>
	<path fill="#779DFF" d="M369.787,182.208c19.297,0.139,39.804-24.333,39.384-46.999c-0.389-21.016-19.263-39.377-39.951-38.867
		c-20.964,0.517-39.091,19.53-38.464,40.343C331.434,159.21,351.037,182.073,369.787,182.208z"/>
	<path fill="#779DFF" d="M295.164,208.098c22.359,10.73,53.561,6.324,66.296,37.031c1.704-14.176,4.187-28.326,4.652-42.542
		c0.145-4.421-4.126-11.015-8.194-13.155C346.968,183.671,305.142,196.483,295.164,208.098z"/>
	<path fill="#779DFF" d="M133.912,202.608c0.213,14.166,2.884,28.295,4.596,42.438c12.89-30.608,44.041-26.288,68.851-38.378
		c-20.925-14.377-42.162-17.931-63.946-17.723C140.023,188.978,133.841,197.881,133.912,202.608z"/>
</g>
</svg>
