<?xml version="1.0" encoding="utf-8"?>
<!-- Generator: Adobe Illustrator 17.0.0, SVG Export Plug-In . SVG Version: 6.00 Build 0)  -->
<!DOCTYPE svg PUBLIC "-//W3C//DTD SVG 1.1//EN" "http://www.w3.org/Graphics/SVG/1.1/DTD/svg11.dtd">
<svg version="1.1" id="Capa_1" xmlns="http://www.w3.org/2000/svg" xmlns:xlink="http://www.w3.org/1999/xlink" x="0px" y="0px"
	 width="500px" height="500px" viewBox="0 0 500 500" enable-background="new 0 0 500 500" xml:space="preserve">
<g opacity="0.9">
	<path fill-rule="evenodd" clip-rule="evenodd" fill="#FFFFFF" d="M250.007,437.68C136.263,437.68,44,434.646,44,430.905
		c0-3.738,92.263-6.77,206.007-6.77c113.744,0,205.993,3.033,205.993,6.77C456,434.646,363.751,437.68,250.007,437.68
		L250.007,437.68z"/>
	<path fill-rule="evenodd" clip-rule="evenodd" fill="#FEFEFE" d="M250.033,437.6c-112.661,0-204.046-3.002-204.046-6.704
		c0-3.699,91.384-6.7,204.046-6.7c112.661,0,204.032,3.001,204.032,6.7C454.064,434.597,362.694,437.6,250.033,437.6L250.033,437.6z
		"/>
	<path fill-rule="evenodd" clip-rule="evenodd" fill="#FDFDFD" d="M250.059,437.519c-111.579,0-202.085-2.971-202.085-6.633
		c0-3.66,90.506-6.629,202.085-6.629c111.578,0,202.07,2.969,202.07,6.629C452.129,434.548,361.636,437.519,250.059,437.519
		L250.059,437.519z"/>
	<path fill-rule="evenodd" clip-rule="evenodd" fill="#FCFCFC" d="M250.084,437.438c-110.496,0-200.123-2.939-200.123-6.563
		c0-3.621,89.628-6.558,200.123-6.558c110.495,0,200.109,2.937,200.109,6.558C450.193,434.499,360.579,437.438,250.084,437.438
		L250.084,437.438z"/>
	<path fill-rule="evenodd" clip-rule="evenodd" fill="#FBFBFB" d="M250.11,437.357c-109.413,0-198.162-2.907-198.162-6.492
		c0-3.582,88.749-6.487,198.162-6.487c109.412,0,198.148,2.906,198.148,6.487C448.258,434.45,359.522,437.357,250.11,437.357
		L250.11,437.357z"/>
	<path fill-rule="evenodd" clip-rule="evenodd" fill="#FAFAFA" d="M250.136,437.277c-108.33,0-196.201-2.876-196.201-6.421
		c0-3.543,87.871-6.417,196.201-6.417c108.328,0,196.186,2.874,196.186,6.417C446.322,434.401,358.464,437.277,250.136,437.277
		L250.136,437.277z"/>
	<path fill-rule="evenodd" clip-rule="evenodd" fill="#F9F9F9" d="M250.162,437.196c-107.247,0-194.239-2.844-194.239-6.35
		c0-3.504,86.992-6.346,194.239-6.346c107.245,0,194.225,2.842,194.225,6.346C444.387,434.352,357.407,437.196,250.162,437.196
		L250.162,437.196z"/>
	<path fill-rule="evenodd" clip-rule="evenodd" fill="#F8F8F8" d="M250.187,437.115c-106.164,0-192.278-2.812-192.278-6.279
		c0-3.465,86.114-6.275,192.278-6.275c106.162,0,192.264,2.811,192.264,6.275C442.451,434.303,356.35,437.115,250.187,437.115
		L250.187,437.115z"/>
	<path fill-rule="evenodd" clip-rule="evenodd" fill="#F7F7F7" d="M250.213,437.035c-105.081,0-190.317-2.78-190.317-6.208
		c0-3.426,85.235-6.205,190.317-6.205c105.079,0,190.302,2.779,190.302,6.205C440.516,434.254,355.292,437.035,250.213,437.035
		L250.213,437.035z"/>
	<path fill-rule="evenodd" clip-rule="evenodd" fill="#F6F6F6" d="M250.239,436.954c-103.998,0-188.355-2.749-188.355-6.137
		c0-3.387,84.357-6.134,188.355-6.134c103.996,0,188.341,2.747,188.341,6.134C438.58,434.205,354.235,436.954,250.239,436.954
		L250.239,436.954z"/>
	<path fill-rule="evenodd" clip-rule="evenodd" fill="#F5F5F5" d="M250.265,436.873c-102.916,0-186.394-2.717-186.394-6.067
		c0-3.348,83.479-6.063,186.394-6.063c102.913,0,186.38,2.716,186.38,6.063C436.644,434.156,353.178,436.873,250.265,436.873
		L250.265,436.873z"/>
	<path fill-rule="evenodd" clip-rule="evenodd" fill="#F4F4F4" d="M250.291,436.793c-101.833,0-184.433-2.685-184.433-5.996
		c0-3.309,82.6-5.992,184.433-5.992c101.83,0,184.418,2.684,184.418,5.992C434.709,434.107,352.12,436.793,250.291,436.793
		L250.291,436.793z"/>
	<path fill-rule="evenodd" clip-rule="evenodd" fill="#F3F3F3" d="M250.316,436.712c-100.75,0-182.472-2.654-182.472-5.925
		c0-3.27,81.722-5.922,182.472-5.922c100.747,0,182.457,2.652,182.457,5.922C432.773,434.058,351.063,436.712,250.316,436.712
		L250.316,436.712z"/>
	<path fill-rule="evenodd" clip-rule="evenodd" fill="#F2F2F2" d="M250.342,436.631c-99.667,0-180.51-2.622-180.51-5.854
		c0-3.231,80.843-5.851,180.51-5.851c99.664,0,180.496,2.62,180.496,5.851C430.838,434.009,350.006,436.631,250.342,436.631
		L250.342,436.631z"/>
	<path fill-rule="evenodd" clip-rule="evenodd" fill="#F1F1F1" d="M250.368,436.55c-98.584,0-178.549-2.59-178.549-5.783
		c0-3.192,79.965-5.78,178.549-5.78c98.581,0,178.534,2.589,178.534,5.78C428.902,433.96,348.949,436.55,250.368,436.55
		L250.368,436.55z"/>
	<path fill-rule="evenodd" clip-rule="evenodd" fill="#F0F0F0" d="M250.394,436.47c-97.501,0-176.588-2.558-176.588-5.712
		c0-3.153,79.087-5.71,176.588-5.71c97.498,0,176.573,2.557,176.573,5.71C426.967,433.911,347.891,436.47,250.394,436.47
		L250.394,436.47z"/>
	<path fill-rule="evenodd" clip-rule="evenodd" fill="#EFEFEF" d="M250.419,436.389c-96.418,0-174.626-2.527-174.626-5.641
		c0-3.114,78.208-5.639,174.626-5.639c96.414,0,174.612,2.525,174.612,5.639C425.031,433.862,346.834,436.389,250.419,436.389
		L250.419,436.389z"/>
	<path fill-rule="evenodd" clip-rule="evenodd" fill="#EEEEEE" d="M250.445,436.308c-95.335,0-172.665-2.495-172.665-5.571
		c0-3.075,77.33-5.568,172.665-5.568c95.331,0,172.65,2.494,172.65,5.568C423.096,433.813,345.777,436.308,250.445,436.308
		L250.445,436.308z"/>
	<path fill-rule="evenodd" clip-rule="evenodd" fill="#EDEDED" d="M250.471,436.228c-94.252,0-170.704-2.463-170.704-5.5
		c0-3.036,76.451-5.498,170.704-5.498c94.248,0,170.689,2.462,170.689,5.498C421.16,433.764,344.719,436.228,250.471,436.228
		L250.471,436.228z"/>
	<path fill-rule="evenodd" clip-rule="evenodd" fill="#ECECEC" d="M250.497,436.147c-93.17,0-168.742-2.431-168.742-5.429
		c0-2.997,75.573-5.427,168.742-5.427c93.165,0,168.728,2.43,168.728,5.427C419.224,433.715,343.662,436.147,250.497,436.147
		L250.497,436.147z"/>
	<path fill-rule="evenodd" clip-rule="evenodd" fill="#EBEBEB" d="M250.522,436.066c-92.087,0-166.781-2.4-166.781-5.358
		c0-2.958,74.694-5.356,166.781-5.356c92.082,0,166.766,2.399,166.766,5.356C417.289,433.666,342.605,436.066,250.522,436.066
		L250.522,436.066z"/>
	<path fill-rule="evenodd" clip-rule="evenodd" fill="#EAEAEA" d="M250.548,435.985c-91.004,0-164.82-2.368-164.82-5.287
		c0-2.919,73.816-5.285,164.82-5.285c90.999,0,164.805,2.367,164.805,5.285C415.353,433.617,341.547,435.985,250.548,435.985
		L250.548,435.985z"/>
	<path fill-rule="evenodd" clip-rule="evenodd" fill="#E9E9E9" d="M250.574,435.905c-89.921,0-162.859-2.336-162.859-5.216
		c0-2.88,72.938-5.215,162.859-5.215c89.916,0,162.844,2.335,162.844,5.215C413.418,433.568,340.49,435.905,250.574,435.905
		L250.574,435.905z"/>
	<path fill-rule="evenodd" clip-rule="evenodd" fill="#E8E8E8" d="M250.6,435.824c-88.838,0-160.897-2.305-160.897-5.146
		c0-2.841,72.059-5.144,160.897-5.144c88.833,0,160.882,2.303,160.882,5.144C411.482,433.519,339.433,435.824,250.6,435.824
		L250.6,435.824z"/>
	<path fill-rule="evenodd" clip-rule="evenodd" fill="#E7E7E7" d="M250.626,435.743c-87.755,0-158.936-2.273-158.936-5.075
		c0-2.802,71.181-5.073,158.936-5.073c87.75,0,158.921,2.272,158.921,5.073C409.547,433.47,338.375,435.743,250.626,435.743
		L250.626,435.743z"/>
	<path fill-rule="evenodd" clip-rule="evenodd" fill="#E6E6E6" d="M250.651,435.663c-86.672,0-156.975-2.241-156.975-5.004
		c0-2.763,70.302-5.003,156.975-5.003c86.667,0,156.96,2.24,156.96,5.003C407.611,433.421,337.318,435.663,250.651,435.663
		L250.651,435.663z"/>
	<path fill-rule="evenodd" clip-rule="evenodd" fill="#E5E5E5" d="M250.677,435.582c-85.589,0-155.013-2.209-155.013-4.933
		c0-2.724,69.424-4.932,155.013-4.932c85.584,0,154.998,2.208,154.998,4.932C405.676,433.372,336.261,435.582,250.677,435.582
		L250.677,435.582z"/>
	<path fill-rule="evenodd" clip-rule="evenodd" fill="#E4E4E4" d="M250.703,435.501c-84.507,0-153.052-2.178-153.052-4.862
		c0-2.685,68.546-4.861,153.052-4.861c84.501,0,153.037,2.177,153.037,4.861C403.74,433.324,335.203,435.501,250.703,435.501
		L250.703,435.501z"/>
	<path fill-rule="evenodd" clip-rule="evenodd" fill="#E3E3E3" d="M250.729,435.421c-83.424,0-151.091-2.146-151.091-4.791
		c0-2.646,67.667-4.79,151.091-4.79c83.417,0,151.076,2.145,151.076,4.79C401.804,433.275,334.146,435.421,250.729,435.421
		L250.729,435.421z"/>
	<path fill-rule="evenodd" clip-rule="evenodd" fill="#E2E2E2" d="M250.754,435.34c-82.341,0-149.129-2.114-149.129-4.72
		c0-2.607,66.789-4.72,149.129-4.72c82.334,0,149.114,2.113,149.114,4.72C399.869,433.226,333.089,435.34,250.754,435.34
		L250.754,435.34z"/>
	<path fill-rule="evenodd" clip-rule="evenodd" fill="#E1E1E1" d="M250.78,435.259c-81.258,0-147.168-2.083-147.168-4.65
		c0-2.567,65.91-4.649,147.168-4.649c81.251,0,147.153,2.082,147.153,4.649C397.933,433.177,332.031,435.259,250.78,435.259
		L250.78,435.259z"/>
	<path fill-rule="evenodd" clip-rule="evenodd" fill="#E0E0E0" d="M250.806,435.178c-80.175,0-145.207-2.051-145.207-4.579
		c0-2.529,65.032-4.578,145.207-4.578c80.168,0,145.192,2.05,145.192,4.578C395.998,433.128,330.974,435.178,250.806,435.178
		L250.806,435.178z"/>
	<path fill-rule="evenodd" clip-rule="evenodd" fill="#DFDFDF" d="M250.832,435.098c-79.092,0-143.246-2.019-143.246-4.508
		c0-2.49,64.153-4.508,143.246-4.508c79.085,0,143.231,2.018,143.231,4.508C394.062,433.079,329.917,435.098,250.832,435.098
		L250.832,435.098z"/>
	<path fill-rule="evenodd" clip-rule="evenodd" fill="#DEDEDE" d="M250.857,435.017c-78.009,0-141.284-1.987-141.284-4.437
		c0-2.45,63.275-4.437,141.284-4.437c78.002,0,141.269,1.986,141.269,4.437C392.127,433.03,328.859,435.017,250.857,435.017
		L250.857,435.017z"/>
	<path fill-rule="evenodd" clip-rule="evenodd" fill="#DDDDDD" d="M250.883,434.936c-76.926,0-139.323-1.956-139.323-4.366
		c0-2.411,62.397-4.366,139.323-4.366c76.919,0,139.308,1.955,139.308,4.366C390.191,432.981,327.802,434.936,250.883,434.936
		L250.883,434.936z"/>
	<path fill-rule="evenodd" clip-rule="evenodd" fill="#DCDCDC" d="M250.909,434.856c-75.843,0-137.362-1.924-137.362-4.295
		c0-2.372,61.518-4.296,137.362-4.296c75.836,0,137.347,1.923,137.347,4.296C388.256,432.932,326.745,434.856,250.909,434.856
		L250.909,434.856z"/>
	<path fill-rule="evenodd" clip-rule="evenodd" fill="#DBDBDB" d="M250.935,434.775c-74.761,0-135.4-1.892-135.4-4.224
		c0-2.333,60.64-4.225,135.4-4.225c74.753,0,135.385,1.891,135.385,4.225C386.32,432.883,325.688,434.775,250.935,434.775
		L250.935,434.775z"/>
	<path fill-rule="evenodd" clip-rule="evenodd" fill="#DADADA" d="M250.961,434.694c-73.678,0-133.439-1.861-133.439-4.154
		c0-2.294,59.761-4.154,133.439-4.154c73.67,0,133.424,1.86,133.424,4.154C384.384,432.834,324.63,434.694,250.961,434.694
		L250.961,434.694z"/>
	<path fill-rule="evenodd" clip-rule="evenodd" fill="#D9D9D9" d="M250.986,434.613c-72.595,0-131.478-1.829-131.478-4.083
		c0-2.255,58.883-4.083,131.478-4.083c72.587,0,131.463,1.828,131.463,4.083C382.449,432.785,323.573,434.613,250.986,434.613
		L250.986,434.613z"/>
	<path fill-rule="evenodd" clip-rule="evenodd" fill="#D9D9D9" d="M251.012,434.533c-71.512,0-129.516-1.797-129.516-4.012
		c0-2.216,58.005-4.013,129.516-4.013c71.504,0,129.501,1.796,129.501,4.013C380.513,432.736,322.516,434.533,251.012,434.533
		L251.012,434.533z"/>
	<path fill-rule="evenodd" clip-rule="evenodd" fill="#D8D8D8" d="M251.038,434.452c-70.429,0-127.555-1.765-127.555-3.941
		c0-2.177,57.126-3.942,127.555-3.942c70.42,0,127.54,1.765,127.54,3.942C378.578,432.687,321.458,434.452,251.038,434.452
		L251.038,434.452z"/>
	<path fill-rule="evenodd" clip-rule="evenodd" fill="#D7D7D7" d="M251.064,434.371c-69.346,0-125.594-1.734-125.594-3.87
		c0-2.138,56.248-3.871,125.594-3.871c69.337,0,125.579,1.733,125.579,3.871C376.642,432.638,320.401,434.371,251.064,434.371
		L251.064,434.371z"/>
	<path fill-rule="evenodd" clip-rule="evenodd" fill="#D6D6D6" d="M251.089,434.291c-68.263,0-123.633-1.702-123.633-3.799
		c0-2.099,55.369-3.801,123.633-3.801c68.254,0,123.617,1.701,123.617,3.801C374.707,432.589,319.344,434.291,251.089,434.291
		L251.089,434.291z"/>
	<path fill-rule="evenodd" clip-rule="evenodd" fill="#D5D5D5" d="M251.115,434.21c-67.18,0-121.671-1.67-121.671-3.728
		c0-2.06,54.491-3.73,121.671-3.73c67.171,0,121.656,1.669,121.656,3.73C372.771,432.54,318.286,434.21,251.115,434.21
		L251.115,434.21z"/>
	<path fill-rule="evenodd" clip-rule="evenodd" fill="#D4D4D4" d="M251.141,434.129c-66.098,0-119.71-1.638-119.71-3.658
		c0-2.021,53.612-3.659,119.71-3.659c66.088,0,119.695,1.638,119.695,3.659C370.836,432.491,317.229,434.129,251.141,434.129
		L251.141,434.129z"/>
	<path fill-rule="evenodd" clip-rule="evenodd" fill="#D3D3D3" d="M251.167,434.049c-65.015,0-117.749-1.607-117.749-3.587
		c0-1.982,52.734-3.588,117.749-3.588c65.005,0,117.733,1.606,117.733,3.588C368.9,432.442,316.172,434.049,251.167,434.049
		L251.167,434.049z"/>
	<path fill-rule="evenodd" clip-rule="evenodd" fill="#D2D2D2" d="M251.192,433.968c-63.932,0-115.787-1.575-115.787-3.516
		c0-1.943,51.856-3.518,115.787-3.518c63.922,0,115.772,1.574,115.772,3.518C366.964,432.393,315.114,433.968,251.192,433.968
		L251.192,433.968z"/>
	<path fill-rule="evenodd" clip-rule="evenodd" fill="#D1D1D1" d="M251.218,433.887c-62.849,0-113.826-1.543-113.826-3.445
		c0-1.904,50.977-3.447,113.826-3.447c62.839,0,113.811,1.543,113.811,3.447C365.029,432.344,314.057,433.887,251.218,433.887
		L251.218,433.887z"/>
	<path fill-rule="evenodd" clip-rule="evenodd" fill="#D0D0D0" d="M251.244,433.806c-61.766,0-111.865-1.512-111.865-3.374
		c0-1.865,50.099-3.376,111.865-3.376c61.756,0,111.849,1.511,111.849,3.376C363.093,432.295,313,433.806,251.244,433.806
		L251.244,433.806z"/>
	<path fill-rule="evenodd" clip-rule="evenodd" fill="#CFCFCF" d="M251.27,433.726c-60.683,0-109.903-1.48-109.903-3.303
		c0-1.826,49.22-3.306,109.903-3.306c60.673,0,109.888,1.479,109.888,3.306C361.158,432.246,311.942,433.726,251.27,433.726
		L251.27,433.726z"/>
	<path fill-rule="evenodd" clip-rule="evenodd" fill="#CECECE" d="M251.296,433.645c-59.6,0-107.942-1.448-107.942-3.233
		c0-1.787,48.342-3.235,107.942-3.235c59.59,0,107.927,1.448,107.927,3.235C359.222,432.197,310.885,433.645,251.296,433.645
		L251.296,433.645z"/>
	<path fill-rule="evenodd" clip-rule="evenodd" fill="#CDCDCD" d="M251.321,433.564c-58.517,0-105.981-1.416-105.981-3.162
		c0-1.748,47.464-3.164,105.981-3.164c58.506,0,105.965,1.416,105.965,3.164C357.287,432.148,309.828,433.564,251.321,433.564
		L251.321,433.564z"/>
	<path fill-rule="evenodd" clip-rule="evenodd" fill="#CCCCCC" d="M251.347,433.484c-57.434,0-104.02-1.385-104.02-3.091
		c0-1.709,46.585-3.094,104.02-3.094c57.423,0,104.004,1.384,104.004,3.094C355.351,432.099,308.77,433.484,251.347,433.484
		L251.347,433.484z"/>
	<path fill-rule="evenodd" clip-rule="evenodd" fill="#CBCBCB" d="M251.373,433.403c-56.352,0-102.058-1.353-102.058-3.02
		c0-1.67,45.707-3.023,102.058-3.023c56.34,0,102.043,1.352,102.043,3.023C353.415,432.05,307.713,433.403,251.373,433.403
		L251.373,433.403z"/>
	<path fill-rule="evenodd" clip-rule="evenodd" fill="#CACACA" d="M251.399,433.322c-55.269,0-100.097-1.321-100.097-2.949
		c0-1.631,44.828-2.952,100.097-2.952c55.257,0,100.081,1.321,100.081,2.952C351.48,432.001,306.656,433.322,251.399,433.322
		L251.399,433.322z"/>
	<path fill-rule="evenodd" clip-rule="evenodd" fill="#C9C9C9" d="M251.424,433.242c-54.186,0-98.136-1.29-98.136-2.878
		c0-1.592,43.95-2.881,98.136-2.881c54.174,0,98.12,1.289,98.12,2.881C349.544,431.952,305.598,433.242,251.424,433.242
		L251.424,433.242z"/>
	<path fill-rule="evenodd" clip-rule="evenodd" fill="#C8C8C8" d="M251.45,433.161c-53.103,0-96.174-1.258-96.174-2.807
		c0-1.553,43.071-2.811,96.174-2.811c53.091,0,96.159,1.257,96.159,2.811C347.609,431.903,304.541,433.161,251.45,433.161
		L251.45,433.161z"/>
	<path fill-rule="evenodd" clip-rule="evenodd" fill="#C7C7C7" d="M251.476,433.08c-52.02,0-94.213-1.226-94.213-2.737
		c0-1.514,42.193-2.74,94.213-2.74c52.008,0,94.197,1.226,94.197,2.74C345.673,431.854,303.484,433.08,251.476,433.08
		L251.476,433.08z"/>
	<path fill-rule="evenodd" clip-rule="evenodd" fill="#C6C6C6" d="M251.502,432.999c-50.937,0-92.252-1.194-92.252-2.666
		c0-1.475,41.315-2.669,92.252-2.669c50.925,0,92.236,1.194,92.236,2.669C343.738,431.805,302.427,432.999,251.502,432.999
		L251.502,432.999z"/>
	<path fill-rule="evenodd" clip-rule="evenodd" fill="#C5C5C5" d="M251.527,432.919c-49.854,0-90.29-1.163-90.29-2.595
		c0-1.436,40.436-2.599,90.29-2.599c49.842,0,90.275,1.162,90.275,2.599C341.802,431.756,301.369,432.919,251.527,432.919
		L251.527,432.919z"/>
	<path fill-rule="evenodd" clip-rule="evenodd" fill="#C4C4C4" d="M251.553,432.838c-48.771,0-88.329-1.131-88.329-2.524
		c0-1.397,39.558-2.528,88.329-2.528c48.759,0,88.313,1.131,88.313,2.528C339.867,431.707,300.312,432.838,251.553,432.838
		L251.553,432.838z"/>
	<path fill-rule="evenodd" clip-rule="evenodd" fill="#C3C3C3" d="M251.579,432.757c-47.689,0-86.368-1.099-86.368-2.453
		c0-1.358,38.679-2.457,86.368-2.457c47.676,0,86.352,1.099,86.352,2.457C337.931,431.658,299.255,432.757,251.579,432.757
		L251.579,432.757z"/>
	<path fill-rule="evenodd" clip-rule="evenodd" fill="#C2C2C2" d="M251.605,432.677c-46.606,0-84.407-1.068-84.407-2.382
		c0-1.319,37.801-2.386,84.407-2.386c46.593,0,84.391,1.067,84.391,2.386C335.995,431.609,298.197,432.677,251.605,432.677
		L251.605,432.677z"/>
	<path fill-rule="evenodd" clip-rule="evenodd" fill="#C1C1C1" d="M251.63,432.596c-45.523,0-82.445-1.036-82.445-2.311
		c0-1.28,36.922-2.316,82.445-2.316c45.509,0,82.429,1.035,82.429,2.316C334.06,431.56,297.14,432.596,251.63,432.596
		L251.63,432.596z"/>
	<path fill-rule="evenodd" clip-rule="evenodd" fill="#C0C0C0" d="M251.656,432.515c-44.44,0-80.484-1.004-80.484-2.241
		c0-1.241,36.044-2.245,80.484-2.245c44.426,0,80.468,1.004,80.468,2.245C332.124,431.511,296.083,432.515,251.656,432.515
		L251.656,432.515z"/>
	<path fill-rule="evenodd" clip-rule="evenodd" fill="#BFBFBF" d="M251.682,432.434c-43.357,0-78.523-0.972-78.523-2.17
		c0-1.202,35.166-2.174,78.523-2.174c43.343,0,78.507,0.972,78.507,2.174C330.189,431.462,295.025,432.434,251.682,432.434
		L251.682,432.434z"/>
	<path fill-rule="evenodd" clip-rule="evenodd" fill="#BEBEBE" d="M251.708,432.354c-42.274,0-76.561-0.941-76.561-2.099
		c0-1.163,34.287-2.104,76.561-2.104c42.26,0,76.545,0.94,76.545,2.104C328.253,431.413,293.968,432.354,251.708,432.354
		L251.708,432.354z"/>
	<path fill-rule="evenodd" clip-rule="evenodd" fill="#BDBDBD" d="M251.734,432.273c-41.191,0-74.6-0.909-74.6-2.028
		c0-1.124,33.409-2.033,74.6-2.033c41.177,0,74.584,0.909,74.584,2.033C326.318,431.364,292.911,432.273,251.734,432.273
		L251.734,432.273z"/>
	<path fill-rule="evenodd" clip-rule="evenodd" fill="#BCBCBC" d="M251.759,432.192c-40.108,0-72.639-0.877-72.639-1.957
		c0-1.085,32.53-1.962,72.639-1.962c40.094,0,72.623,0.877,72.623,1.962C324.382,431.315,291.853,432.192,251.759,432.192
		L251.759,432.192z"/>
	<path fill-rule="evenodd" clip-rule="evenodd" fill="#BBBBBB" d="M251.785,432.112c-39.025,0-70.677-0.845-70.677-1.886
		c0-1.046,31.652-1.891,70.677-1.891c39.011,0,70.661,0.845,70.661,1.891C322.447,431.266,290.796,432.112,251.785,432.112
		L251.785,432.112z"/>
	<path fill-rule="evenodd" clip-rule="evenodd" fill="#BABABA" d="M251.811,432.031c-37.943,0-68.716-0.814-68.716-1.815
		c0-1.007,30.774-1.821,68.716-1.821c37.928,0,68.7,0.814,68.7,1.821C320.511,431.217,289.739,432.031,251.811,432.031
		L251.811,432.031z"/>
	<path fill-rule="evenodd" clip-rule="evenodd" fill="#B9B9B9" d="M251.837,431.95c-36.86,0-66.755-0.782-66.755-1.745
		c0-0.968,29.895-1.75,66.755-1.75c36.845,0,66.739,0.782,66.739,1.75C318.575,431.168,288.681,431.95,251.837,431.95
		L251.837,431.95z"/>
	<path fill-rule="evenodd" clip-rule="evenodd" fill="#B8B8B8" d="M251.862,431.87c-35.777,0-64.794-0.75-64.794-1.674
		c0-0.929,29.017-1.679,64.794-1.679c35.762,0,64.778,0.75,64.778,1.679C316.64,431.119,287.624,431.87,251.862,431.87
		L251.862,431.87z"/>
	<path fill-rule="evenodd" clip-rule="evenodd" fill="#B7B7B7" d="M251.888,431.789c-34.694,0-62.832-0.719-62.832-1.603
		c0-0.89,28.138-1.609,62.832-1.609c34.679,0,62.816,0.718,62.816,1.609C314.704,431.07,286.567,431.789,251.888,431.789
		L251.888,431.789z"/>
	<path fill-rule="evenodd" clip-rule="evenodd" fill="#B6B6B6" d="M251.914,431.708c-33.611,0-60.871-0.687-60.871-1.532
		c0-0.851,27.26-1.538,60.871-1.538c33.596,0,60.855,0.687,60.855,1.538C312.769,431.021,285.509,431.708,251.914,431.708
		L251.914,431.708z"/>
	<path fill-rule="evenodd" clip-rule="evenodd" fill="#B5B5B5" d="M251.94,431.627c-32.528,0-58.91-0.655-58.91-1.461
		c0-0.812,26.381-1.467,58.91-1.467c32.512,0,58.894,0.655,58.894,1.467C310.833,430.972,284.452,431.627,251.94,431.627
		L251.94,431.627z"/>
	<path fill-rule="evenodd" clip-rule="evenodd" fill="#B4B4B4" d="M251.965,431.547c-31.445,0-56.948-0.623-56.948-1.39
		c0-0.773,25.503-1.397,56.948-1.397c31.429,0,56.932,0.623,56.932,1.397C308.898,430.923,283.395,431.547,251.965,431.547
		L251.965,431.547z"/>
	<path fill-rule="evenodd" clip-rule="evenodd" fill="#B3B3B3" d="M251.991,431.466c-30.362,0-54.987-0.592-54.987-1.319
		c0-0.734,24.625-1.326,54.987-1.326c30.346,0,54.971,0.592,54.971,1.326C306.962,430.874,282.337,431.466,251.991,431.466
		L251.991,431.466z"/>
</g>
<g>
	<path fill="#00D0EF" stroke="#00D0EF" stroke-miterlimit="10" d="M378.465,149.397c-12.646-15.356-28.694-28.117-46.014-37.812
		c-9.151-5.122-19.484-9.234-29.383-12.662C296.5,96.649,289.5,95.22,282.5,93.673c0-3.934,0-7.869,0-11.803
		c0-7.073-4.795-12.37-11.868-12.37c-13.841,0-27.681,0-41.522,0c-4.033,0-7.401,1.212-9.49,3.5c-2.288,2.089-4.12,4.837-4.12,8.87
		c0,3.877,0,7.754,0,11.631c-4,0.877-7.824,1.713-11.842,2.822c-8.032,2.217-15.6,5.282-23.24,8.579
		c-13.95,6.02-26.51,14.376-38.302,23.891c-23.273,18.779-40.301,44.341-50.76,72.183c-22.086,58.79-6.553,126.774,35.45,172.567
		c20.844,22.724,48.511,38.956,78.07,47.362c7.905,2.248,16.006,3.604,24.108,4.913c10.434,1.686,20.948,1.2,31.501,1.2
		c9.596,0,19.948-3.551,29.3-5.675c9.803-2.227,19.228-5.278,28.477-9.201c58.756-24.925,97.517-84.679,100.25-147.873
		C420.308,222.729,404.681,181.229,378.465,149.397z M272.5,377.594c0-1.56,0-3.12,0-4.68c0-7.073-4.922-12.415-11.995-12.415
		c-6.966,0-13.932,0-20.898,0c-7.073,0-14.107,5.341-14.107,12.415c0,1.548,0,3.096,0,4.645c-22-3.446-41.585-13.922-58.167-29.049
		c-19.243-17.554-32-42.01-36.756-66.01c1.591,0,3.182,0,4.773,0c7.073,0,12.151-6.792,12.151-13.866c0-6.812,0-13.625,0-20.437
		c0-7.073-5.077-12.697-12.151-12.697c-1.585,0-3.171,0-4.756,0c3.018-18,11.239-35.818,22.911-51.552
		c15.398-20.757,39.018-36.242,64.268-43.193c56.686-15.603,115.54,12.95,141.617,64.668c4.64,9.201,7.962,20.077,9.75,30.077
		c-1.544,0-3.088,0-4.633,0c-7.073,0-14.007,5.255-14.007,12.328c0,6.953,0,13.906,0,20.858c0,7.073,6.933,13.813,14.007,13.813
		c1.557,0,3.113,0,4.67,0C360.781,329.5,320.5,368.529,272.5,377.594z"/>
	<path fill="#00D0EF" stroke="#00D0EF" stroke-miterlimit="10" d="M326.135,251.662c-20.043-5.254-40.085-10.507-60.128-15.761
		c-4.047-15.415-8.093-30.83-12.14-46.245c-0.966-3.678-4.529-5.108-7.981-4.531c-0.254,0.043-0.508,0.085-0.762,0.128
		c-2.136,0.357-4.015,2.524-4.531,4.531c-3.955,15.384-7.911,30.768-11.866,46.153c-20.032,5.259-40.064,10.517-60.096,15.776
		c-3.679,0.966-5.109,4.529-4.531,7.981c0.049,0.294,0.098,0.587,0.147,0.881c0.357,2.136,2.524,4.015,4.531,4.531
		c19.977,5.136,39.953,10.272,59.93,15.408c3.977,15.399,7.953,30.798,11.93,46.197c0.668,2.586,3.455,5.036,6.256,4.763
		c0.254-0.025,0.508-0.05,0.762-0.074c2.885-0.281,5.472-1.772,6.256-4.763c4.021-15.341,8.042-30.682,12.064-46.023
		c20.082-5.186,40.164-10.372,60.246-15.558c2.586-0.668,5.036-3.455,4.763-6.256c-0.029-0.293-0.057-0.587-0.086-0.88
		C330.617,255.033,329.126,252.445,326.135,251.662z"/>
</g>
</svg>
