<?xml version="1.0" encoding="utf-8"?>
<!-- Generator: Adobe Illustrator 17.0.0, SVG Export Plug-In . SVG Version: 6.00 Build 0)  -->
<!DOCTYPE svg PUBLIC "-//W3C//DTD SVG 1.1//EN" "http://www.w3.org/Graphics/SVG/1.1/DTD/svg11.dtd">
<svg version="1.1" id="Capa_1" xmlns="http://www.w3.org/2000/svg" xmlns:xlink="http://www.w3.org/1999/xlink" x="0px" y="0px"
	 width="500px" height="500px" viewBox="0 0 500 500" enable-background="new 0 0 500 500" xml:space="preserve">
<g>
	<g opacity="0.9">
		<path fill="#FFFFFF" d="M250.007,418.359C136.263,418.359,44,415.325,44,411.584c0-3.738,92.263-6.77,206.007-6.77
			S456,407.847,456,411.584C456,415.325,363.751,418.359,250.007,418.359L250.007,418.359z"/>
		<path fill="#FEFEFE" d="M250.033,418.278c-112.661,0-204.046-3.002-204.046-6.704c0-3.699,91.384-6.7,204.046-6.7
			c112.661,0,204.032,3.001,204.032,6.7C454.064,415.276,362.694,418.278,250.033,418.278L250.033,418.278z"/>
		<path fill="#FDFDFD" d="M250.059,418.198c-111.579,0-202.085-2.971-202.085-6.633c0-3.66,90.506-6.629,202.085-6.629
			c111.578,0,202.07,2.969,202.07,6.629C452.129,415.227,361.636,418.198,250.059,418.198L250.059,418.198z"/>
		<path fill="#FCFCFC" d="M250.084,418.117c-110.496,0-200.123-2.939-200.123-6.563c0-3.621,89.628-6.558,200.123-6.558
			s200.109,2.937,200.109,6.558C450.193,415.178,360.579,418.117,250.084,418.117L250.084,418.117z"/>
		<path fill="#FBFBFB" d="M250.11,418.036c-109.413,0-198.162-2.907-198.162-6.492c0-3.582,88.749-6.487,198.162-6.487
			c109.412,0,198.148,2.906,198.148,6.487C448.258,415.129,359.522,418.036,250.11,418.036L250.11,418.036z"/>
		<path fill="#FAFAFA" d="M250.136,417.955c-108.33,0-196.201-2.876-196.201-6.421c0-3.543,87.871-6.417,196.201-6.417
			c108.328,0,196.186,2.874,196.186,6.417C446.322,415.08,358.464,417.955,250.136,417.955L250.136,417.955z"/>
		<path fill="#F9F9F9" d="M250.162,417.875c-107.247,0-194.239-2.844-194.239-6.35c0-3.504,86.992-6.346,194.239-6.346
			c107.245,0,194.225,2.842,194.225,6.346C444.387,415.031,357.407,417.875,250.162,417.875L250.162,417.875z"/>
		<path fill="#F8F8F8" d="M250.188,417.794c-106.164,0-192.278-2.812-192.278-6.279c0-3.465,86.114-6.275,192.278-6.275
			c106.162,0,192.264,2.811,192.264,6.275C442.451,414.982,356.35,417.794,250.188,417.794L250.188,417.794z"/>
		<path fill="#F7F7F7" d="M250.213,417.713c-105.081,0-190.317-2.78-190.317-6.208c0-3.426,85.235-6.205,190.317-6.205
			c105.079,0,190.302,2.779,190.302,6.205C440.516,414.933,355.292,417.713,250.213,417.713L250.213,417.713z"/>
		<path fill="#F6F6F6" d="M250.239,417.633c-103.998,0-188.355-2.749-188.355-6.137c0-3.387,84.357-6.134,188.355-6.134
			c103.996,0,188.341,2.747,188.341,6.134C438.58,414.884,354.235,417.633,250.239,417.633L250.239,417.633z"/>
		<path fill="#F5F5F5" d="M250.265,417.552c-102.916,0-186.394-2.717-186.394-6.067c0-3.348,83.479-6.063,186.394-6.063
			c102.913,0,186.38,2.716,186.38,6.063C436.644,414.835,353.178,417.552,250.265,417.552L250.265,417.552z"/>
		<path fill="#F4F4F4" d="M250.291,417.471c-101.833,0-184.433-2.685-184.433-5.996c0-3.309,82.6-5.992,184.433-5.992
			c101.83,0,184.418,2.684,184.418,5.992C434.709,414.786,352.12,417.471,250.291,417.471L250.291,417.471z"/>
		<path fill="#F3F3F3" d="M250.316,417.391c-100.75,0-182.472-2.654-182.472-5.925c0-3.27,81.722-5.922,182.472-5.922
			c100.747,0,182.457,2.652,182.457,5.922C432.773,414.737,351.063,417.391,250.316,417.391L250.316,417.391z"/>
		<path fill="#F2F2F2" d="M250.342,417.31c-99.667,0-180.51-2.622-180.51-5.854c0-3.231,80.843-5.851,180.51-5.851
			c99.664,0,180.496,2.62,180.496,5.851C430.838,414.688,350.006,417.31,250.342,417.31L250.342,417.31z"/>
		<path fill="#F1F1F1" d="M250.368,417.229c-98.584,0-178.549-2.59-178.549-5.783c0-3.192,79.965-5.78,178.549-5.78
			c98.581,0,178.534,2.589,178.534,5.78C428.902,414.639,348.949,417.229,250.368,417.229L250.368,417.229z"/>
		<path fill="#F0F0F0" d="M250.394,417.148c-97.501,0-176.588-2.558-176.588-5.712c0-3.153,79.087-5.71,176.588-5.71
			c97.498,0,176.573,2.557,176.573,5.71C426.967,414.59,347.891,417.148,250.394,417.148L250.394,417.148z"/>
		<path fill="#EFEFEF" d="M250.419,417.068c-96.418,0-174.626-2.527-174.626-5.641c0-3.114,78.208-5.639,174.626-5.639
			c96.414,0,174.612,2.525,174.612,5.639C425.031,414.541,346.834,417.068,250.419,417.068L250.419,417.068z"/>
		<path fill="#EEEEEE" d="M250.445,416.987c-95.335,0-172.665-2.495-172.665-5.571c0-3.075,77.33-5.568,172.665-5.568
			c95.331,0,172.65,2.494,172.65,5.568C423.096,414.492,345.777,416.987,250.445,416.987L250.445,416.987z"/>
		<path fill="#EDEDED" d="M250.471,416.906c-94.252,0-170.704-2.463-170.704-5.5c0-3.036,76.451-5.498,170.704-5.498
			c94.248,0,170.689,2.462,170.689,5.498C421.16,414.443,344.719,416.906,250.471,416.906L250.471,416.906z"/>
		<path fill="#ECECEC" d="M250.497,416.826c-93.17,0-168.742-2.431-168.742-5.429c0-2.997,75.573-5.427,168.742-5.427
			c93.165,0,168.728,2.43,168.728,5.427C419.224,414.394,343.662,416.826,250.497,416.826L250.497,416.826z"/>
		<path fill="#EBEBEB" d="M250.522,416.745c-92.087,0-166.781-2.4-166.781-5.358s74.694-5.356,166.781-5.356
			c92.082,0,166.766,2.399,166.766,5.356C417.289,414.345,342.605,416.745,250.522,416.745L250.522,416.745z"/>
		<path fill="#EAEAEA" d="M250.548,416.664c-91.004,0-164.82-2.368-164.82-5.287c0-2.919,73.816-5.285,164.82-5.285
			c90.999,0,164.805,2.367,164.805,5.285C415.353,414.296,341.547,416.664,250.548,416.664L250.548,416.664z"/>
		<path fill="#E9E9E9" d="M250.574,416.584c-89.921,0-162.859-2.336-162.859-5.216s72.938-5.215,162.859-5.215
			c89.916,0,162.844,2.335,162.844,5.215C413.418,414.247,340.49,416.584,250.574,416.584L250.574,416.584z"/>
		<path fill="#E8E8E8" d="M250.6,416.503c-88.838,0-160.897-2.305-160.897-5.146s72.059-5.144,160.897-5.144
			c88.833,0,160.882,2.303,160.882,5.144S339.433,416.503,250.6,416.503L250.6,416.503z"/>
		<path fill="#E7E7E7" d="M250.626,416.422c-87.755,0-158.936-2.273-158.936-5.075s71.181-5.073,158.936-5.073
			c87.75,0,158.921,2.272,158.921,5.073C409.547,414.149,338.375,416.422,250.626,416.422L250.626,416.422z"/>
		<path fill="#E6E6E6" d="M250.651,416.341c-86.672,0-156.975-2.241-156.975-5.004s70.302-5.003,156.975-5.003
			c86.667,0,156.96,2.24,156.96,5.003C407.611,414.1,337.318,416.341,250.651,416.341L250.651,416.341z"/>
		<path fill="#E5E5E5" d="M250.677,416.261c-85.589,0-155.013-2.209-155.013-4.933s69.424-4.932,155.013-4.932
			c85.584,0,154.998,2.208,154.998,4.932S336.261,416.261,250.677,416.261L250.677,416.261z"/>
		<path fill="#E4E4E4" d="M250.703,416.18c-84.507,0-153.052-2.178-153.052-4.862c0-2.685,68.546-4.861,153.052-4.861
			c84.501,0,153.037,2.177,153.037,4.861S335.203,416.18,250.703,416.18L250.703,416.18z"/>
		<path fill="#E3E3E3" d="M250.729,416.099c-83.424,0-151.091-2.146-151.091-4.791c0-2.646,67.667-4.79,151.091-4.79
			c83.417,0,151.076,2.145,151.076,4.79C401.804,413.953,334.146,416.099,250.729,416.099L250.729,416.099z"/>
		<path fill="#E2E2E2" d="M250.754,416.019c-82.341,0-149.129-2.114-149.129-4.72c0-2.607,66.789-4.72,149.129-4.72
			c82.334,0,149.114,2.113,149.114,4.72C399.869,413.904,333.089,416.019,250.754,416.019L250.754,416.019z"/>
		<path fill="#E1E1E1" d="M250.78,415.938c-81.258,0-147.168-2.083-147.168-4.65c0-2.568,65.91-4.649,147.168-4.649
			c81.251,0,147.153,2.082,147.153,4.649C397.933,413.855,332.031,415.938,250.78,415.938L250.78,415.938z"/>
		<path fill="#E0E0E0" d="M250.806,415.857c-80.175,0-145.207-2.051-145.207-4.579c0-2.529,65.032-4.578,145.207-4.578
			c80.168,0,145.192,2.05,145.192,4.578S330.974,415.857,250.806,415.857L250.806,415.857z"/>
		<path fill="#DFDFDF" d="M250.832,415.776c-79.092,0-143.246-2.019-143.246-4.508c0-2.489,64.153-4.508,143.246-4.508
			c79.085,0,143.231,2.018,143.231,4.508C394.062,413.757,329.917,415.776,250.832,415.776L250.832,415.776z"/>
		<path fill="#DEDEDE" d="M250.857,415.696c-78.009,0-141.284-1.987-141.284-4.437s63.275-4.437,141.284-4.437
			c78.002,0,141.269,1.986,141.269,4.437C392.127,413.708,328.859,415.696,250.857,415.696L250.857,415.696z"/>
		<path fill="#DDDDDD" d="M250.883,415.615c-76.926,0-139.323-1.956-139.323-4.366c0-2.411,62.397-4.366,139.323-4.366
			c76.919,0,139.308,1.955,139.308,4.366C390.191,413.659,327.802,415.615,250.883,415.615L250.883,415.615z"/>
		<path fill="#DCDCDC" d="M250.909,415.534c-75.843,0-137.362-1.924-137.362-4.295c0-2.372,61.518-4.296,137.362-4.296
			c75.836,0,137.347,1.923,137.347,4.296C388.256,413.61,326.745,415.534,250.909,415.534L250.909,415.534z"/>
		<path fill="#DBDBDB" d="M250.935,415.454c-74.761,0-135.4-1.892-135.4-4.224c0-2.333,60.64-4.225,135.4-4.225
			c74.753,0,135.385,1.891,135.385,4.225C386.32,413.561,325.688,415.454,250.935,415.454L250.935,415.454z"/>
		<path fill="#DADADA" d="M250.961,415.373c-73.678,0-133.439-1.861-133.439-4.154c0-2.294,59.761-4.154,133.439-4.154
			c73.67,0,133.424,1.86,133.424,4.154C384.384,413.512,324.63,415.373,250.961,415.373L250.961,415.373z"/>
		<path fill="#D9D9D9" d="M250.986,415.292c-72.595,0-131.478-1.829-131.478-4.083c0-2.255,58.883-4.083,131.478-4.083
			c72.587,0,131.463,1.828,131.463,4.083C382.449,413.463,323.573,415.292,250.986,415.292L250.986,415.292z"/>
		<path fill="#D9D9D9" d="M251.012,415.212c-71.512,0-129.516-1.797-129.516-4.012c0-2.216,58.005-4.013,129.516-4.013
			c71.504,0,129.501,1.796,129.501,4.013C380.513,413.414,322.516,415.212,251.012,415.212L251.012,415.212z"/>
		<path fill="#D8D8D8" d="M251.038,415.131c-70.429,0-127.555-1.765-127.555-3.941c0-2.177,57.126-3.942,127.555-3.942
			c70.42,0,127.54,1.765,127.54,3.942C378.578,413.365,321.458,415.131,251.038,415.131L251.038,415.131z"/>
		<path fill="#D7D7D7" d="M251.064,415.05c-69.346,0-125.594-1.734-125.594-3.87c0-2.138,56.248-3.871,125.594-3.871
			c69.337,0,125.579,1.733,125.579,3.871C376.642,413.316,320.401,415.05,251.064,415.05L251.064,415.05z"/>
		<path fill="#D6D6D6" d="M251.089,414.969c-68.263,0-123.633-1.702-123.633-3.799c0-2.099,55.369-3.801,123.633-3.801
			c68.254,0,123.617,1.701,123.617,3.801C374.707,413.267,319.344,414.969,251.089,414.969L251.089,414.969z"/>
		<path fill="#D5D5D5" d="M251.115,414.889c-67.18,0-121.671-1.67-121.671-3.728c0-2.06,54.491-3.73,121.671-3.73
			c67.171,0,121.656,1.669,121.656,3.73C372.771,413.219,318.286,414.889,251.115,414.889L251.115,414.889z"/>
		<path fill="#D4D4D4" d="M251.141,414.808c-66.098,0-119.71-1.638-119.71-3.658c0-2.021,53.612-3.659,119.71-3.659
			c66.088,0,119.695,1.638,119.695,3.659C370.836,413.17,317.229,414.808,251.141,414.808L251.141,414.808z"/>
		<path fill="#D3D3D3" d="M251.167,414.727c-65.015,0-117.749-1.607-117.749-3.587c0-1.982,52.734-3.588,117.749-3.588
			c65.005,0,117.733,1.606,117.733,3.588C368.9,413.121,316.172,414.727,251.167,414.727L251.167,414.727z"/>
		<path fill="#D2D2D2" d="M251.192,414.647c-63.932,0-115.787-1.575-115.787-3.516c0-1.943,51.856-3.518,115.787-3.518
			c63.922,0,115.772,1.574,115.772,3.518C366.964,413.072,315.114,414.647,251.192,414.647L251.192,414.647z"/>
		<path fill="#D1D1D1" d="M251.218,414.566c-62.849,0-113.826-1.543-113.826-3.445c0-1.904,50.977-3.447,113.826-3.447
			c62.839,0,113.811,1.543,113.811,3.447C365.029,413.023,314.057,414.566,251.218,414.566L251.218,414.566z"/>
		<path fill="#D0D0D0" d="M251.244,414.485c-61.766,0-111.865-1.512-111.865-3.374c0-1.865,50.099-3.376,111.865-3.376
			c61.756,0,111.849,1.511,111.849,3.376C363.093,412.974,313,414.485,251.244,414.485L251.244,414.485z"/>
		<path fill="#CFCFCF" d="M251.27,414.404c-60.683,0-109.903-1.48-109.903-3.303c0-1.826,49.22-3.306,109.903-3.306
			c60.673,0,109.888,1.479,109.888,3.306C361.158,412.925,311.942,414.404,251.27,414.404L251.27,414.404z"/>
		<path fill="#CECECE" d="M251.296,414.324c-59.6,0-107.942-1.448-107.942-3.232c0-1.787,48.342-3.235,107.942-3.235
			c59.59,0,107.927,1.448,107.927,3.235C359.222,412.876,310.885,414.324,251.296,414.324L251.296,414.324z"/>
		<path fill="#CDCDCD" d="M251.321,414.243c-58.517,0-105.981-1.416-105.981-3.162c0-1.748,47.464-3.164,105.981-3.164
			c58.506,0,105.965,1.416,105.965,3.164C357.287,412.827,309.828,414.243,251.321,414.243L251.321,414.243z"/>
		<path fill="#CCCCCC" d="M251.347,414.162c-57.434,0-104.02-1.385-104.02-3.091c0-1.709,46.585-3.094,104.02-3.094
			c57.423,0,104.004,1.384,104.004,3.094C355.351,412.778,308.77,414.162,251.347,414.162L251.347,414.162z"/>
		<path fill="#CBCBCB" d="M251.373,414.082c-56.352,0-102.058-1.353-102.058-3.02c0-1.67,45.707-3.023,102.058-3.023
			c56.34,0,102.043,1.352,102.043,3.023C353.415,412.729,307.713,414.082,251.373,414.082L251.373,414.082z"/>
		<path fill="#CACACA" d="M251.399,414.001c-55.269,0-100.097-1.321-100.097-2.949c0-1.631,44.828-2.952,100.097-2.952
			c55.257,0,100.081,1.321,100.081,2.952C351.48,412.68,306.656,414.001,251.399,414.001L251.399,414.001z"/>
		<path fill="#C9C9C9" d="M251.424,413.92c-54.186,0-98.136-1.29-98.136-2.878c0-1.592,43.95-2.881,98.136-2.881
			c54.174,0,98.12,1.289,98.12,2.881C349.544,412.631,305.598,413.92,251.424,413.92L251.424,413.92z"/>
		<path fill="#C8C8C8" d="M251.45,413.84c-53.103,0-96.174-1.258-96.174-2.807c0-1.553,43.071-2.811,96.174-2.811
			c53.091,0,96.159,1.257,96.159,2.811C347.609,412.582,304.541,413.84,251.45,413.84L251.45,413.84z"/>
		<path fill="#C7C7C7" d="M251.476,413.759c-52.02,0-94.213-1.226-94.213-2.737c0-1.514,42.193-2.74,94.213-2.74
			c52.008,0,94.197,1.226,94.197,2.74C345.673,412.533,303.484,413.759,251.476,413.759L251.476,413.759z"/>
		<path fill="#C6C6C6" d="M251.502,413.678c-50.937,0-92.252-1.194-92.252-2.666c0-1.475,41.315-2.669,92.252-2.669
			c50.925,0,92.236,1.194,92.236,2.669C343.738,412.484,302.427,413.678,251.502,413.678L251.502,413.678z"/>
		<path fill="#C5C5C5" d="M251.527,413.597c-49.854,0-90.29-1.163-90.29-2.595c0-1.436,40.436-2.599,90.29-2.599
			c49.842,0,90.275,1.162,90.275,2.599C341.802,412.435,301.369,413.597,251.527,413.597L251.527,413.597z"/>
		<path fill="#C4C4C4" d="M251.553,413.517c-48.771,0-88.329-1.131-88.329-2.524c0-1.397,39.558-2.528,88.329-2.528
			c48.759,0,88.313,1.131,88.313,2.528C339.867,412.386,300.312,413.517,251.553,413.517L251.553,413.517z"/>
		<path fill="#C3C3C3" d="M251.579,413.436c-47.689,0-86.368-1.099-86.368-2.453c0-1.358,38.679-2.457,86.368-2.457
			c47.676,0,86.352,1.099,86.352,2.457C337.931,412.337,299.255,413.436,251.579,413.436L251.579,413.436z"/>
		<path fill="#C2C2C2" d="M251.605,413.355c-46.606,0-84.407-1.068-84.407-2.382c0-1.319,37.801-2.386,84.407-2.386
			c46.593,0,84.391,1.067,84.391,2.386C335.995,412.288,298.197,413.355,251.605,413.355L251.605,413.355z"/>
		<path fill="#C1C1C1" d="M251.63,413.275c-45.523,0-82.445-1.036-82.445-2.311c0-1.28,36.922-2.316,82.445-2.316
			c45.509,0,82.429,1.035,82.429,2.316C334.06,412.239,297.14,413.275,251.63,413.275L251.63,413.275z"/>
		<path fill="#C0C0C0" d="M251.656,413.194c-44.44,0-80.484-1.004-80.484-2.241c0-1.241,36.044-2.245,80.484-2.245
			c44.426,0,80.468,1.004,80.468,2.245C332.124,412.19,296.083,413.194,251.656,413.194L251.656,413.194z"/>
		<path fill="#BFBFBF" d="M251.682,413.113c-43.357,0-78.523-0.972-78.523-2.17c0-1.202,35.166-2.174,78.523-2.174
			c43.343,0,78.507,0.972,78.507,2.174C330.189,412.141,295.025,413.113,251.682,413.113L251.682,413.113z"/>
		<path fill="#BEBEBE" d="M251.708,413.033c-42.274,0-76.561-0.941-76.561-2.099c0-1.163,34.287-2.104,76.561-2.104
			c42.26,0,76.545,0.94,76.545,2.104C328.253,412.092,293.968,413.033,251.708,413.033L251.708,413.033z"/>
		<path fill="#BDBDBD" d="M251.734,412.952c-41.191,0-74.6-0.909-74.6-2.028c0-1.124,33.409-2.033,74.6-2.033
			c41.177,0,74.584,0.909,74.584,2.033C326.318,412.043,292.911,412.952,251.734,412.952L251.734,412.952z"/>
		<path fill="#BCBCBC" d="M251.759,412.871c-40.108,0-72.639-0.877-72.639-1.957c0-1.085,32.53-1.962,72.639-1.962
			c40.094,0,72.623,0.877,72.623,1.962C324.382,411.994,291.853,412.871,251.759,412.871L251.759,412.871z"/>
		<path fill="#BBBBBB" d="M251.785,412.79c-39.025,0-70.677-0.845-70.677-1.886c0-1.046,31.652-1.891,70.677-1.891
			c39.011,0,70.661,0.845,70.661,1.891C322.447,411.945,290.796,412.79,251.785,412.79L251.785,412.79z"/>
		<path fill="#BABABA" d="M251.811,412.71c-37.943,0-68.716-0.814-68.716-1.815c0-1.007,30.774-1.821,68.716-1.821
			c37.928,0,68.7,0.814,68.7,1.821C320.511,411.896,289.739,412.71,251.811,412.71L251.811,412.71z"/>
		<path fill="#B9B9B9" d="M251.837,412.629c-36.86,0-66.755-0.782-66.755-1.745c0-0.968,29.895-1.75,66.755-1.75
			c36.845,0,66.739,0.782,66.739,1.75C318.575,411.847,288.681,412.629,251.837,412.629L251.837,412.629z"/>
		<path fill="#B8B8B8" d="M251.862,412.548c-35.777,0-64.794-0.75-64.794-1.674c0-0.929,29.017-1.679,64.794-1.679
			c35.762,0,64.778,0.75,64.778,1.679C316.64,411.798,287.624,412.548,251.862,412.548L251.862,412.548z"/>
		<path fill="#B7B7B7" d="M251.888,412.468c-34.694,0-62.832-0.719-62.832-1.603c0-0.89,28.138-1.609,62.832-1.609
			c34.679,0,62.816,0.719,62.816,1.609C314.704,411.749,286.567,412.468,251.888,412.468L251.888,412.468z"/>
		<path fill="#B6B6B6" d="M251.914,412.387c-33.611,0-60.871-0.687-60.871-1.532c0-0.851,27.26-1.538,60.871-1.538
			c33.596,0,60.855,0.687,60.855,1.538C312.769,411.7,285.509,412.387,251.914,412.387L251.914,412.387z"/>
		<path fill="#B5B5B5" d="M251.94,412.306c-32.528,0-58.91-0.655-58.91-1.461c0-0.812,26.381-1.467,58.91-1.467
			c32.512,0,58.894,0.655,58.894,1.467C310.833,411.651,284.452,412.306,251.94,412.306L251.94,412.306z"/>
		<path fill="#B4B4B4" d="M251.965,412.225c-31.445,0-56.948-0.623-56.948-1.39c0-0.773,25.503-1.397,56.948-1.397
			c31.429,0,56.932,0.623,56.932,1.397C308.898,411.602,283.395,412.225,251.965,412.225L251.965,412.225z"/>
		<path fill="#B3B3B3" d="M251.991,412.145c-30.362,0-54.987-0.592-54.987-1.319c0-0.734,24.625-1.326,54.987-1.326
			c30.346,0,54.971,0.592,54.971,1.326C306.962,411.553,282.337,412.145,251.991,412.145L251.991,412.145z"/>
	</g>
</g>
<path fill="#00D0EF" d="M84.421,410.823c61.781-142.846,106.53-291.771,186.365-207.685s79.788,71.93,114.264,126.637
	s30.379,81.048,30.379,81.048H84.421z"/>
<g id="NavVlQ_1_">
	<g>
		<path fill="#00D0EF" d="M225.938,140.025c-0.199,1.156-0.551,2.309-0.575,3.469c-0.292,14.192,0.263,13.389-0.224,27.574
			c-0.082,2.377-1.143,5.162-2.695,6.932c-1.865,2.127-4.866,2.201-7.605,0.936c-2.922-1.349-3.577-3.931-3.522-6.786
			c0.175-9.197,0.553-18.393,0.599-27.59c0.095-19.283-0.653-23.567-0.653-42.85c-0.282-0.066-0.564-0.132-0.846-0.197
			c-0.742,3.882-1.722,7.738-2.151,11.654c-0.356,3.253-0.048,6.577-0.062,9.869c-0.016,3.736-1.441,5.605-4.573,6.058
			c-3.266,0.472-6.843-1.457-7.113-4.808c-0.433-5.378-0.431-10.876,0.181-16.232c0.779-6.815,3.15-13.226,7.359-18.801
			c6.025-7.98,14.407-10.911,23.962-10.298c14.663,0.94,23.609,8.47,27.125,23.311c1.523,6.426,1.675,13.226,1.96,19.877
			c0.177,4.149-2.679,6.811-6.391,7.007c-3.455,0.182-5.557-1.952-5.774-5.61c-0.361-6.093-0.735-12.189-1.332-18.261
			c-0.18-1.836-1.113-3.597-1.701-5.393c-0.31,0.03-0.62,0.06-0.931,0.09c0,1.135-0.015,2.269,0.002,3.403
			c0.42,26.909,1.525,38.817,1.947,65.726c0.014,0.908,0.033,1.817,0.028,2.725c-0.029,4.937-2.088,7.532-6.179,7.802
			c-4.326,0.286-7.512-2.391-7.673-7.231c-0.469-14.073-1.348-13.156-1.642-27.234c-0.034-1.655-0.005-3.312-0.005-4.969
			C226.95,140.141,226.444,140.083,225.938,140.025z"/>
		<path fill="#00D0EF" d="M207.396,60.546c0.189-10.442,8.655-18.678,19.099-18.582c10.532,0.097,19.232,9.051,18.913,19.466
			c-0.316,10.326-9.016,18.744-19.27,18.645C215.553,79.972,207.202,71.271,207.396,60.546z"/>
	</g>
</g>
<path fill="#00D0EF" d="M276.923,70.77c-4.372,9.247-8.744,18.494-13.116,27.741L250,127.713l3.407,1.611l14.498-30.664
	c18.888,2.161,25.291,24.364,46.031,23.553c4.372-9.247,8.744-18.494,13.116-27.741C304.88,95.339,299.095,69.902,276.923,70.77z"/>
</svg>
