<?xml version="1.0" encoding="utf-8"?>
<!-- Generator: Adobe Illustrator 17.0.0, SVG Export Plug-In . SVG Version: 6.00 Build 0)  -->
<!DOCTYPE svg PUBLIC "-//W3C//DTD SVG 1.1//EN" "http://www.w3.org/Graphics/SVG/1.1/DTD/svg11.dtd">
<svg version="1.1" id="Capa_1" xmlns="http://www.w3.org/2000/svg" xmlns:xlink="http://www.w3.org/1999/xlink" x="0px" y="0px"
	 width="500px" height="500px" viewBox="0 0 500 500" enable-background="new 0 0 500 500" xml:space="preserve">
<g>
	<g opacity="0.9">
		<path fill-rule="evenodd" clip-rule="evenodd" fill="#FFFFFF" d="M250.007,442.059C136.263,442.059,44,439.024,44,435.283
			c0-3.738,92.263-6.77,206.007-6.77c113.744,0,205.993,3.033,205.993,6.77C456,439.024,363.751,442.059,250.007,442.059
			L250.007,442.059z"/>
		<path fill-rule="evenodd" clip-rule="evenodd" fill="#FEFEFE" d="M250.033,441.978c-112.661,0-204.046-3.002-204.046-6.704
			c0-3.699,91.384-6.7,204.046-6.7c112.661,0,204.032,3.001,204.032,6.7C454.064,438.975,362.694,441.978,250.033,441.978
			L250.033,441.978z"/>
		<path fill-rule="evenodd" clip-rule="evenodd" fill="#FDFDFD" d="M250.059,441.897c-111.579,0-202.085-2.971-202.085-6.633
			c0-3.66,90.506-6.629,202.085-6.629c111.578,0,202.07,2.969,202.07,6.629C452.129,438.926,361.636,441.897,250.059,441.897
			L250.059,441.897z"/>
		<path fill-rule="evenodd" clip-rule="evenodd" fill="#FCFCFC" d="M250.084,441.816c-110.496,0-200.123-2.939-200.123-6.563
			c0-3.621,89.628-6.558,200.123-6.558c110.495,0,200.109,2.937,200.109,6.558C450.193,438.877,360.579,441.816,250.084,441.816
			L250.084,441.816z"/>
		<path fill-rule="evenodd" clip-rule="evenodd" fill="#FBFBFB" d="M250.11,441.736c-109.413,0-198.162-2.907-198.162-6.492
			c0-3.582,88.749-6.487,198.162-6.487c109.412,0,198.148,2.906,198.148,6.487C448.258,438.828,359.522,441.736,250.11,441.736
			L250.11,441.736z"/>
		<path fill-rule="evenodd" clip-rule="evenodd" fill="#FAFAFA" d="M250.136,441.655c-108.33,0-196.201-2.876-196.201-6.421
			c0-3.543,87.871-6.417,196.201-6.417c108.328,0,196.186,2.874,196.186,6.417C446.322,438.779,358.464,441.655,250.136,441.655
			L250.136,441.655z"/>
		<path fill-rule="evenodd" clip-rule="evenodd" fill="#F9F9F9" d="M250.162,441.574c-107.247,0-194.239-2.844-194.239-6.35
			c0-3.504,86.992-6.346,194.239-6.346c107.245,0,194.225,2.842,194.225,6.346C444.387,438.73,357.407,441.574,250.162,441.574
			L250.162,441.574z"/>
		<path fill-rule="evenodd" clip-rule="evenodd" fill="#F8F8F8" d="M250.187,441.494c-106.164,0-192.278-2.812-192.278-6.279
			c0-3.465,86.114-6.275,192.278-6.275c106.162,0,192.264,2.811,192.264,6.275C442.451,438.681,356.35,441.494,250.187,441.494
			L250.187,441.494z"/>
		<path fill-rule="evenodd" clip-rule="evenodd" fill="#F7F7F7" d="M250.213,441.413c-105.081,0-190.317-2.78-190.317-6.208
			c0-3.426,85.235-6.205,190.317-6.205c105.079,0,190.302,2.779,190.302,6.205C440.516,438.633,355.292,441.413,250.213,441.413
			L250.213,441.413z"/>
		<path fill-rule="evenodd" clip-rule="evenodd" fill="#F6F6F6" d="M250.239,441.332c-103.998,0-188.355-2.749-188.355-6.137
			c0-3.387,84.357-6.134,188.355-6.134c103.996,0,188.341,2.747,188.341,6.134C438.58,438.584,354.235,441.332,250.239,441.332
			L250.239,441.332z"/>
		<path fill-rule="evenodd" clip-rule="evenodd" fill="#F5F5F5" d="M250.265,441.252c-102.916,0-186.394-2.717-186.394-6.067
			c0-3.348,83.479-6.063,186.394-6.063c102.913,0,186.38,2.716,186.38,6.063C436.644,438.535,353.178,441.252,250.265,441.252
			L250.265,441.252z"/>
		<path fill-rule="evenodd" clip-rule="evenodd" fill="#F4F4F4" d="M250.291,441.171c-101.833,0-184.433-2.685-184.433-5.996
			c0-3.309,82.6-5.992,184.433-5.992c101.83,0,184.418,2.684,184.418,5.992C434.709,438.486,352.12,441.171,250.291,441.171
			L250.291,441.171z"/>
		<path fill-rule="evenodd" clip-rule="evenodd" fill="#F3F3F3" d="M250.316,441.09c-100.75,0-182.472-2.654-182.472-5.925
			c0-3.27,81.722-5.922,182.472-5.922c100.747,0,182.457,2.652,182.457,5.922C432.773,438.437,351.063,441.09,250.316,441.09
			L250.316,441.09z"/>
		<path fill-rule="evenodd" clip-rule="evenodd" fill="#F2F2F2" d="M250.342,441.009c-99.667,0-180.51-2.622-180.51-5.854
			c0-3.231,80.843-5.851,180.51-5.851c99.664,0,180.496,2.62,180.496,5.851C430.838,438.388,350.006,441.009,250.342,441.009
			L250.342,441.009z"/>
		<path fill-rule="evenodd" clip-rule="evenodd" fill="#F1F1F1" d="M250.368,440.929c-98.584,0-178.549-2.59-178.549-5.783
			c0-3.192,79.965-5.78,178.549-5.78c98.581,0,178.534,2.589,178.534,5.78C428.902,438.339,348.949,440.929,250.368,440.929
			L250.368,440.929z"/>
		<path fill-rule="evenodd" clip-rule="evenodd" fill="#F0F0F0" d="M250.394,440.848c-97.501,0-176.588-2.558-176.588-5.712
			c0-3.153,79.087-5.71,176.588-5.71c97.498,0,176.573,2.557,176.573,5.71C426.967,438.29,347.891,440.848,250.394,440.848
			L250.394,440.848z"/>
		<path fill-rule="evenodd" clip-rule="evenodd" fill="#EFEFEF" d="M250.419,440.767c-96.418,0-174.626-2.527-174.626-5.641
			c0-3.114,78.208-5.639,174.626-5.639c96.414,0,174.612,2.525,174.612,5.639C425.031,438.241,346.834,440.767,250.419,440.767
			L250.419,440.767z"/>
		<path fill-rule="evenodd" clip-rule="evenodd" fill="#EEEEEE" d="M250.445,440.687c-95.335,0-172.665-2.495-172.665-5.571
			c0-3.075,77.33-5.568,172.665-5.568c95.331,0,172.65,2.494,172.65,5.568C423.096,438.192,345.777,440.687,250.445,440.687
			L250.445,440.687z"/>
		<path fill-rule="evenodd" clip-rule="evenodd" fill="#EDEDED" d="M250.471,440.606c-94.252,0-170.704-2.463-170.704-5.5
			c0-3.036,76.451-5.498,170.704-5.498c94.248,0,170.689,2.462,170.689,5.498C421.16,438.143,344.719,440.606,250.471,440.606
			L250.471,440.606z"/>
		<path fill-rule="evenodd" clip-rule="evenodd" fill="#ECECEC" d="M250.497,440.525c-93.17,0-168.742-2.431-168.742-5.429
			c0-2.997,75.573-5.427,168.742-5.427c93.165,0,168.728,2.43,168.728,5.427C419.224,438.094,343.662,440.525,250.497,440.525
			L250.497,440.525z"/>
		<path fill-rule="evenodd" clip-rule="evenodd" fill="#EBEBEB" d="M250.522,440.444c-92.087,0-166.781-2.4-166.781-5.358
			c0-2.958,74.694-5.356,166.781-5.356c92.082,0,166.766,2.399,166.766,5.356C417.289,438.045,342.605,440.444,250.522,440.444
			L250.522,440.444z"/>
		<path fill-rule="evenodd" clip-rule="evenodd" fill="#EAEAEA" d="M250.548,440.364c-91.004,0-164.82-2.368-164.82-5.287
			c0-2.919,73.816-5.285,164.82-5.285c90.999,0,164.805,2.367,164.805,5.285C415.353,437.996,341.547,440.364,250.548,440.364
			L250.548,440.364z"/>
		<path fill-rule="evenodd" clip-rule="evenodd" fill="#E9E9E9" d="M250.574,440.283c-89.921,0-162.859-2.336-162.859-5.216
			c0-2.88,72.938-5.215,162.859-5.215c89.916,0,162.844,2.335,162.844,5.215C413.418,437.947,340.49,440.283,250.574,440.283
			L250.574,440.283z"/>
		<path fill-rule="evenodd" clip-rule="evenodd" fill="#E8E8E8" d="M250.6,440.202c-88.838,0-160.897-2.305-160.897-5.146
			c0-2.841,72.059-5.144,160.897-5.144c88.833,0,160.882,2.303,160.882,5.144C411.482,437.898,339.433,440.202,250.6,440.202
			L250.6,440.202z"/>
		<path fill-rule="evenodd" clip-rule="evenodd" fill="#E7E7E7" d="M250.626,440.122c-87.755,0-158.936-2.273-158.936-5.075
			c0-2.802,71.181-5.073,158.936-5.073c87.75,0,158.921,2.272,158.921,5.073C409.547,437.849,338.375,440.122,250.626,440.122
			L250.626,440.122z"/>
		<path fill-rule="evenodd" clip-rule="evenodd" fill="#E6E6E6" d="M250.651,440.041c-86.672,0-156.975-2.241-156.975-5.004
			c0-2.763,70.302-5.003,156.975-5.003c86.667,0,156.96,2.24,156.96,5.003C407.611,437.8,337.318,440.041,250.651,440.041
			L250.651,440.041z"/>
		<path fill-rule="evenodd" clip-rule="evenodd" fill="#E5E5E5" d="M250.677,439.96c-85.589,0-155.013-2.209-155.013-4.933
			c0-2.724,69.424-4.932,155.013-4.932c85.584,0,154.998,2.208,154.998,4.932C405.676,437.751,336.261,439.96,250.677,439.96
			L250.677,439.96z"/>
		<path fill-rule="evenodd" clip-rule="evenodd" fill="#E4E4E4" d="M250.703,439.88c-84.507,0-153.052-2.178-153.052-4.862
			c0-2.685,68.546-4.861,153.052-4.861c84.501,0,153.037,2.177,153.037,4.861C403.74,437.702,335.203,439.88,250.703,439.88
			L250.703,439.88z"/>
		<path fill-rule="evenodd" clip-rule="evenodd" fill="#E3E3E3" d="M250.729,439.799c-83.424,0-151.091-2.146-151.091-4.791
			c0-2.646,67.667-4.79,151.091-4.79c83.417,0,151.076,2.145,151.076,4.79C401.804,437.653,334.146,439.799,250.729,439.799
			L250.729,439.799z"/>
		<path fill-rule="evenodd" clip-rule="evenodd" fill="#E2E2E2" d="M250.754,439.718c-82.341,0-149.129-2.114-149.129-4.72
			c0-2.607,66.789-4.72,149.129-4.72c82.334,0,149.114,2.113,149.114,4.72C399.869,437.604,333.089,439.718,250.754,439.718
			L250.754,439.718z"/>
		<path fill-rule="evenodd" clip-rule="evenodd" fill="#E1E1E1" d="M250.78,439.637c-81.258,0-147.168-2.083-147.168-4.65
			c0-2.567,65.91-4.649,147.168-4.649c81.251,0,147.153,2.082,147.153,4.649C397.933,437.555,332.031,439.637,250.78,439.637
			L250.78,439.637z"/>
		<path fill-rule="evenodd" clip-rule="evenodd" fill="#E0E0E0" d="M250.806,439.557c-80.175,0-145.207-2.051-145.207-4.579
			c0-2.529,65.032-4.578,145.207-4.578c80.168,0,145.192,2.05,145.192,4.578C395.998,437.506,330.974,439.557,250.806,439.557
			L250.806,439.557z"/>
		<path fill-rule="evenodd" clip-rule="evenodd" fill="#DFDFDF" d="M250.832,439.476c-79.092,0-143.246-2.019-143.246-4.508
			c0-2.49,64.153-4.508,143.246-4.508c79.085,0,143.231,2.018,143.231,4.508C394.062,437.457,329.917,439.476,250.832,439.476
			L250.832,439.476z"/>
		<path fill-rule="evenodd" clip-rule="evenodd" fill="#DEDEDE" d="M250.857,439.395c-78.009,0-141.284-1.987-141.284-4.437
			c0-2.45,63.275-4.437,141.284-4.437c78.002,0,141.269,1.986,141.269,4.437C392.127,437.408,328.859,439.395,250.857,439.395
			L250.857,439.395z"/>
		<path fill-rule="evenodd" clip-rule="evenodd" fill="#DDDDDD" d="M250.883,439.315c-76.926,0-139.323-1.956-139.323-4.366
			c0-2.411,62.397-4.366,139.323-4.366c76.919,0,139.308,1.955,139.308,4.366C390.191,437.359,327.802,439.315,250.883,439.315
			L250.883,439.315z"/>
		<path fill-rule="evenodd" clip-rule="evenodd" fill="#DCDCDC" d="M250.909,439.234c-75.843,0-137.362-1.924-137.362-4.295
			c0-2.372,61.518-4.296,137.362-4.296c75.836,0,137.347,1.923,137.347,4.296C388.256,437.31,326.745,439.234,250.909,439.234
			L250.909,439.234z"/>
		<path fill-rule="evenodd" clip-rule="evenodd" fill="#DBDBDB" d="M250.935,439.153c-74.761,0-135.4-1.892-135.4-4.224
			c0-2.333,60.64-4.225,135.4-4.225c74.753,0,135.385,1.891,135.385,4.225C386.32,437.261,325.688,439.153,250.935,439.153
			L250.935,439.153z"/>
		<path fill-rule="evenodd" clip-rule="evenodd" fill="#DADADA" d="M250.961,439.073c-73.678,0-133.439-1.861-133.439-4.154
			c0-2.294,59.761-4.154,133.439-4.154c73.67,0,133.424,1.86,133.424,4.154C384.384,437.212,324.63,439.073,250.961,439.073
			L250.961,439.073z"/>
		<path fill-rule="evenodd" clip-rule="evenodd" fill="#D9D9D9" d="M250.986,438.992c-72.595,0-131.478-1.829-131.478-4.083
			c0-2.255,58.883-4.083,131.478-4.083c72.587,0,131.463,1.828,131.463,4.083C382.449,437.163,323.573,438.992,250.986,438.992
			L250.986,438.992z"/>
		<path fill-rule="evenodd" clip-rule="evenodd" fill="#D9D9D9" d="M251.012,438.911c-71.512,0-129.516-1.797-129.516-4.012
			c0-2.216,58.005-4.013,129.516-4.013c71.504,0,129.501,1.796,129.501,4.013C380.513,437.114,322.516,438.911,251.012,438.911
			L251.012,438.911z"/>
		<path fill-rule="evenodd" clip-rule="evenodd" fill="#D8D8D8" d="M251.038,438.83c-70.429,0-127.555-1.765-127.555-3.941
			c0-2.177,57.126-3.942,127.555-3.942c70.42,0,127.54,1.765,127.54,3.942C378.578,437.065,321.458,438.83,251.038,438.83
			L251.038,438.83z"/>
		<path fill-rule="evenodd" clip-rule="evenodd" fill="#D7D7D7" d="M251.064,438.75c-69.346,0-125.594-1.734-125.594-3.87
			c0-2.138,56.248-3.871,125.594-3.871c69.337,0,125.579,1.733,125.579,3.871C376.642,437.016,320.401,438.75,251.064,438.75
			L251.064,438.75z"/>
		<path fill-rule="evenodd" clip-rule="evenodd" fill="#D6D6D6" d="M251.089,438.669c-68.263,0-123.633-1.702-123.633-3.799
			c0-2.099,55.369-3.801,123.633-3.801c68.254,0,123.617,1.701,123.617,3.801C374.707,436.967,319.344,438.669,251.089,438.669
			L251.089,438.669z"/>
		<path fill-rule="evenodd" clip-rule="evenodd" fill="#D5D5D5" d="M251.115,438.588c-67.18,0-121.671-1.67-121.671-3.728
			c0-2.06,54.491-3.73,121.671-3.73c67.171,0,121.656,1.669,121.656,3.73C372.771,436.918,318.286,438.588,251.115,438.588
			L251.115,438.588z"/>
		<path fill-rule="evenodd" clip-rule="evenodd" fill="#D4D4D4" d="M251.141,438.508c-66.098,0-119.71-1.638-119.71-3.658
			c0-2.021,53.612-3.659,119.71-3.659c66.088,0,119.695,1.638,119.695,3.659C370.836,436.869,317.229,438.508,251.141,438.508
			L251.141,438.508z"/>
		<path fill-rule="evenodd" clip-rule="evenodd" fill="#D3D3D3" d="M251.167,438.427c-65.015,0-117.749-1.607-117.749-3.587
			c0-1.982,52.734-3.588,117.749-3.588c65.005,0,117.733,1.606,117.733,3.588C368.9,436.82,316.172,438.427,251.167,438.427
			L251.167,438.427z"/>
		<path fill-rule="evenodd" clip-rule="evenodd" fill="#D2D2D2" d="M251.192,438.346c-63.932,0-115.787-1.575-115.787-3.516
			c0-1.943,51.856-3.518,115.787-3.518c63.922,0,115.772,1.574,115.772,3.518C366.964,436.771,315.114,438.346,251.192,438.346
			L251.192,438.346z"/>
		<path fill-rule="evenodd" clip-rule="evenodd" fill="#D1D1D1" d="M251.218,438.265c-62.849,0-113.826-1.543-113.826-3.445
			c0-1.904,50.977-3.447,113.826-3.447c62.839,0,113.811,1.543,113.811,3.447C365.029,436.722,314.057,438.265,251.218,438.265
			L251.218,438.265z"/>
		<path fill-rule="evenodd" clip-rule="evenodd" fill="#D0D0D0" d="M251.244,438.185c-61.766,0-111.865-1.512-111.865-3.374
			c0-1.865,50.099-3.376,111.865-3.376c61.756,0,111.849,1.511,111.849,3.376C363.093,436.673,313,438.185,251.244,438.185
			L251.244,438.185z"/>
		<path fill-rule="evenodd" clip-rule="evenodd" fill="#CFCFCF" d="M251.27,438.104c-60.683,0-109.903-1.48-109.903-3.303
			c0-1.826,49.22-3.306,109.903-3.306c60.673,0,109.888,1.479,109.888,3.306C361.158,436.624,311.942,438.104,251.27,438.104
			L251.27,438.104z"/>
		<path fill-rule="evenodd" clip-rule="evenodd" fill="#CECECE" d="M251.296,438.023c-59.6,0-107.942-1.448-107.942-3.233
			c0-1.787,48.342-3.235,107.942-3.235c59.59,0,107.927,1.448,107.927,3.235C359.222,436.575,310.885,438.023,251.296,438.023
			L251.296,438.023z"/>
		<path fill-rule="evenodd" clip-rule="evenodd" fill="#CDCDCD" d="M251.321,437.943c-58.517,0-105.981-1.416-105.981-3.162
			c0-1.748,47.464-3.164,105.981-3.164c58.506,0,105.965,1.416,105.965,3.164C357.287,436.526,309.828,437.943,251.321,437.943
			L251.321,437.943z"/>
		<path fill-rule="evenodd" clip-rule="evenodd" fill="#CCCCCC" d="M251.347,437.862c-57.434,0-104.02-1.385-104.02-3.091
			c0-1.709,46.585-3.093,104.02-3.093c57.423,0,104.004,1.384,104.004,3.093C355.351,436.477,308.77,437.862,251.347,437.862
			L251.347,437.862z"/>
		<path fill-rule="evenodd" clip-rule="evenodd" fill="#CBCBCB" d="M251.373,437.781c-56.352,0-102.058-1.353-102.058-3.02
			c0-1.67,45.707-3.023,102.058-3.023c56.34,0,102.043,1.352,102.043,3.023C353.415,436.428,307.713,437.781,251.373,437.781
			L251.373,437.781z"/>
		<path fill-rule="evenodd" clip-rule="evenodd" fill="#CACACA" d="M251.399,437.701c-55.269,0-100.097-1.321-100.097-2.949
			c0-1.631,44.828-2.952,100.097-2.952c55.257,0,100.081,1.321,100.081,2.952C351.48,436.379,306.656,437.701,251.399,437.701
			L251.399,437.701z"/>
		<path fill-rule="evenodd" clip-rule="evenodd" fill="#C9C9C9" d="M251.424,437.62c-54.186,0-98.136-1.29-98.136-2.878
			c0-1.592,43.95-2.881,98.136-2.881c54.174,0,98.12,1.289,98.12,2.881C349.544,436.33,305.598,437.62,251.424,437.62
			L251.424,437.62z"/>
		<path fill-rule="evenodd" clip-rule="evenodd" fill="#C8C8C8" d="M251.45,437.539c-53.103,0-96.174-1.258-96.174-2.807
			c0-1.553,43.071-2.811,96.174-2.811c53.091,0,96.159,1.257,96.159,2.811C347.609,436.281,304.541,437.539,251.45,437.539
			L251.45,437.539z"/>
		<path fill-rule="evenodd" clip-rule="evenodd" fill="#C7C7C7" d="M251.476,437.458c-52.02,0-94.213-1.226-94.213-2.737
			c0-1.514,42.193-2.74,94.213-2.74c52.008,0,94.197,1.226,94.197,2.74C345.673,436.232,303.484,437.458,251.476,437.458
			L251.476,437.458z"/>
		<path fill-rule="evenodd" clip-rule="evenodd" fill="#C6C6C6" d="M251.502,437.378c-50.937,0-92.252-1.194-92.252-2.666
			c0-1.475,41.315-2.669,92.252-2.669c50.925,0,92.236,1.194,92.236,2.669C343.738,436.183,302.427,437.378,251.502,437.378
			L251.502,437.378z"/>
		<path fill-rule="evenodd" clip-rule="evenodd" fill="#C5C5C5" d="M251.527,437.297c-49.854,0-90.29-1.163-90.29-2.595
			c0-1.436,40.436-2.599,90.29-2.599c49.842,0,90.275,1.162,90.275,2.599C341.802,436.134,301.369,437.297,251.527,437.297
			L251.527,437.297z"/>
		<path fill-rule="evenodd" clip-rule="evenodd" fill="#C4C4C4" d="M251.553,437.216c-48.771,0-88.329-1.131-88.329-2.524
			c0-1.397,39.558-2.528,88.329-2.528c48.759,0,88.313,1.131,88.313,2.528C339.867,436.085,300.312,437.216,251.553,437.216
			L251.553,437.216z"/>
		<path fill-rule="evenodd" clip-rule="evenodd" fill="#C3C3C3" d="M251.579,437.136c-47.689,0-86.368-1.099-86.368-2.453
			c0-1.358,38.679-2.457,86.368-2.457c47.676,0,86.352,1.099,86.352,2.457C337.931,436.036,299.255,437.136,251.579,437.136
			L251.579,437.136z"/>
		<path fill-rule="evenodd" clip-rule="evenodd" fill="#C2C2C2" d="M251.605,437.055c-46.606,0-84.407-1.068-84.407-2.382
			c0-1.319,37.801-2.386,84.407-2.386c46.593,0,84.391,1.067,84.391,2.386C335.995,435.987,298.197,437.055,251.605,437.055
			L251.605,437.055z"/>
		<path fill-rule="evenodd" clip-rule="evenodd" fill="#C1C1C1" d="M251.63,436.974c-45.523,0-82.445-1.036-82.445-2.311
			c0-1.28,36.922-2.316,82.445-2.316c45.509,0,82.429,1.035,82.429,2.316C334.06,435.938,297.14,436.974,251.63,436.974
			L251.63,436.974z"/>
		<path fill-rule="evenodd" clip-rule="evenodd" fill="#C0C0C0" d="M251.656,436.893c-44.44,0-80.484-1.004-80.484-2.241
			c0-1.241,36.044-2.245,80.484-2.245c44.426,0,80.468,1.004,80.468,2.245C332.124,435.889,296.083,436.893,251.656,436.893
			L251.656,436.893z"/>
		<path fill-rule="evenodd" clip-rule="evenodd" fill="#BFBFBF" d="M251.682,436.813c-43.357,0-78.523-0.972-78.523-2.17
			c0-1.202,35.166-2.174,78.523-2.174c43.343,0,78.507,0.972,78.507,2.174C330.189,435.84,295.025,436.813,251.682,436.813
			L251.682,436.813z"/>
		<path fill-rule="evenodd" clip-rule="evenodd" fill="#BEBEBE" d="M251.708,436.732c-42.274,0-76.561-0.941-76.561-2.099
			c0-1.163,34.287-2.104,76.561-2.104c42.26,0,76.545,0.94,76.545,2.104C328.253,435.791,293.968,436.732,251.708,436.732
			L251.708,436.732z"/>
		<path fill-rule="evenodd" clip-rule="evenodd" fill="#BDBDBD" d="M251.734,436.651c-41.191,0-74.6-0.909-74.6-2.028
			c0-1.124,33.409-2.033,74.6-2.033c41.177,0,74.584,0.909,74.584,2.033C326.318,435.742,292.911,436.651,251.734,436.651
			L251.734,436.651z"/>
		<path fill-rule="evenodd" clip-rule="evenodd" fill="#BCBCBC" d="M251.759,436.571c-40.108,0-72.639-0.877-72.639-1.957
			c0-1.085,32.53-1.962,72.639-1.962c40.094,0,72.623,0.877,72.623,1.962C324.382,435.693,291.853,436.571,251.759,436.571
			L251.759,436.571z"/>
		<path fill-rule="evenodd" clip-rule="evenodd" fill="#BBBBBB" d="M251.785,436.49c-39.025,0-70.677-0.845-70.677-1.886
			c0-1.046,31.652-1.891,70.677-1.891c39.011,0,70.661,0.845,70.661,1.891C322.447,435.644,290.796,436.49,251.785,436.49
			L251.785,436.49z"/>
		<path fill-rule="evenodd" clip-rule="evenodd" fill="#BABABA" d="M251.811,436.409c-37.943,0-68.716-0.814-68.716-1.815
			c0-1.007,30.774-1.821,68.716-1.821c37.928,0,68.7,0.814,68.7,1.821C320.511,435.595,289.739,436.409,251.811,436.409
			L251.811,436.409z"/>
		<path fill-rule="evenodd" clip-rule="evenodd" fill="#B9B9B9" d="M251.837,436.329c-36.86,0-66.755-0.782-66.755-1.745
			c0-0.968,29.895-1.75,66.755-1.75c36.845,0,66.739,0.782,66.739,1.75C318.575,435.547,288.681,436.329,251.837,436.329
			L251.837,436.329z"/>
		<path fill-rule="evenodd" clip-rule="evenodd" fill="#B8B8B8" d="M251.862,436.248c-35.777,0-64.794-0.75-64.794-1.674
			c0-0.929,29.017-1.679,64.794-1.679c35.762,0,64.778,0.75,64.778,1.679C316.64,435.498,287.624,436.248,251.862,436.248
			L251.862,436.248z"/>
		<path fill-rule="evenodd" clip-rule="evenodd" fill="#B7B7B7" d="M251.888,436.167c-34.694,0-62.832-0.719-62.832-1.603
			c0-0.89,28.138-1.609,62.832-1.609c34.679,0,62.816,0.718,62.816,1.609C314.704,435.449,286.567,436.167,251.888,436.167
			L251.888,436.167z"/>
		<path fill-rule="evenodd" clip-rule="evenodd" fill="#B6B6B6" d="M251.914,436.086c-33.611,0-60.871-0.687-60.871-1.532
			c0-0.851,27.26-1.538,60.871-1.538c33.596,0,60.855,0.687,60.855,1.538C312.769,435.4,285.509,436.086,251.914,436.086
			L251.914,436.086z"/>
		<path fill-rule="evenodd" clip-rule="evenodd" fill="#B5B5B5" d="M251.94,436.006c-32.528,0-58.91-0.655-58.91-1.461
			c0-0.812,26.381-1.467,58.91-1.467c32.512,0,58.894,0.655,58.894,1.467C310.833,435.351,284.452,436.006,251.94,436.006
			L251.94,436.006z"/>
		<path fill-rule="evenodd" clip-rule="evenodd" fill="#B4B4B4" d="M251.965,435.925c-31.445,0-56.948-0.623-56.948-1.39
			c0-0.773,25.503-1.397,56.948-1.397c31.429,0,56.932,0.623,56.932,1.397C308.898,435.302,283.395,435.925,251.965,435.925
			L251.965,435.925z"/>
		<path fill-rule="evenodd" clip-rule="evenodd" fill="#B3B3B3" d="M251.991,435.844c-30.362,0-54.987-0.592-54.987-1.319
			c0-0.734,24.625-1.326,54.987-1.326c30.346,0,54.971,0.592,54.971,1.326C306.962,435.253,282.337,435.844,251.991,435.844
			L251.991,435.844z"/>
	</g>
</g>
<g>
	<path fill="#00D0EF" d="M218.282,218.67c-3.626-3.647-3.541-5.997-0.179-9.269c-1.318-2.66-2.843-5.001-3.692-7.566
		c-5.849-17.682-11.557-35.41-17.309-53.124c-0.216-0.667-0.462-1.327-0.624-2.007c-0.88-3.685,0.591-5.617,4.399-5.629
		c10.149-0.032,20.299-0.011,30.449-0.011c1.091,0,2.181,0,3.468,0c0-6.059,0-11.931,0-18.269c-2.953,0-5.917,0-8.881,0
		c-4.422,0-8.844,0.043-13.265-0.012c-4.695-0.058-6.587-1.981-6.6-6.611c-0.016-5.627-0.018-11.255,0.001-16.882
		c0.016-4.52,1.911-6.45,6.379-6.464c7.413-0.023,14.825-0.006,22.564-0.006c0-7.458-0.004-14.661,0.001-21.863
		c0.004-5.34,1.712-7.076,6.974-7.083c5.326-0.007,10.652-0.007,15.978,0c5.215,0.007,7,1.795,7.017,7.104
		c0.023,7.131,0.006,14.261,0.006,21.842c1.108,0,2.068,0,3.027,0c6.632,0,13.265-0.031,19.897,0.013
		c3.749,0.025,5.884,1.944,5.969,5.683c0.14,6.127,0.137,12.261,0.009,18.388c-0.083,3.949-2.237,5.84-6.463,5.874
		c-7.324,0.059-14.648,0.016-22.206,0.016c0,6.064,0,11.939,0,18.271c0.972,0,2.032,0,3.091,0c10.049,0,20.098-0.008,30.147,0.004
		c4.774,0.006,6.164,1.879,4.691,6.451c-6.015,18.679-12.02,37.362-18.163,55.999c-0.656,1.99-2.185,3.692-3.367,5.623
		c3.454,3.33,3.558,6.038,0.014,9.376c3.132,3.991,3.274,5.139,0.898,9.389c1.536,0,2.877-0.002,4.219,0
		c6.488,0.01,8.72,3.679,5.462,9.649c1.826,0,3.478-0.019,5.128,0.004c4.087,0.055,6.084,1.961,6.22,6.076
		c0.089,2.71,0.09,5.428-0.004,8.139c-0.14,4.04-2.143,6.022-6.266,6.084c-5.605,0.084-11.213,0.021-17.312,0.021
		c4.111,38.384,8.187,76.44,12.292,114.763c1.565,0,2.952-0.003,4.339,0.001c6.253,0.018,8.523,3.869,5.168,9.649
		c1.96,0,3.691-0.028,5.421,0.006c3.758,0.073,5.891,1.94,5.977,5.68c0.142,6.127,0.125,12.261-0.015,18.387
		c-0.035,1.515-0.8,3.013-1.331,4.874c1.576,0,3.311-0.029,5.045,0.006c3.634,0.073,5.73,1.868,5.934,5.407
		c0.179,3.105,0.167,6.234,0.009,9.34c-0.174,3.41-2.134,5.247-5.562,5.54c-0.799,0.068-1.607,0.031-2.411,0.031
		c-43.211,0.001-86.422,0.002-129.633,0c-6.728,0-8.098-1.381-8.099-8.142c0-2.211-0.056-4.423,0.016-6.632
		c0.11-3.358,2.138-5.402,5.477-5.536c1.804-0.073,3.612-0.013,5.745-0.013c-2.734-4.479-1.287-9.224-1.553-13.802
		c-0.186-3.205-0.101-6.431-0.015-9.644c0.09-3.338,2.164-5.364,5.52-5.489c1.804-0.068,3.613-0.012,5.747-0.012
		c-1.639-2.772-2.889-5.877-0.01-7.858c2.197-1.512,5.291-1.722,8.672-2.712c3.993-37.22,8.075-75.278,12.212-113.842
		c-3.005,0-5.775,0.003-8.545-0.001c-2.814-0.004-5.635,0.111-8.439-0.054c-3.576-0.21-5.453-2.272-5.518-5.836
		c-0.051-2.813-0.044-5.628-0.003-8.441c0.057-3.925,2.04-5.91,5.946-5.989c1.694-0.034,3.389-0.006,4.627-0.006
		c-0.211-2.105-1.062-4.341-0.418-5.995c0.597-1.533,2.631-2.957,4.328-3.49c1.896-0.597,4.124-0.137,6.308-0.137
		C215.012,223.15,215.122,222.318,218.282,218.67z"/>
</g>
</svg>
