<?xml version="1.0" encoding="utf-8"?>
<!-- Generator: Adobe Illustrator 16.0.0, SVG Export Plug-In . SVG Version: 6.00 Build 0)  -->
<!DOCTYPE svg PUBLIC "-//W3C//DTD SVG 1.1//EN" "http://www.w3.org/Graphics/SVG/1.1/DTD/svg11.dtd">
<svg version="1.1" id="Capa_1" xmlns="http://www.w3.org/2000/svg" xmlns:xlink="http://www.w3.org/1999/xlink" x="0px" y="0px"
	 width="500px" height="500px" viewBox="0 0 500 500" enable-background="new 0 0 500 500" xml:space="preserve">
<g>
	<g opacity="0.9">
		<path fill="#FFFFFF" d="M250.007,403.142C136.263,403.142,44,400.107,44,396.366c0-3.738,92.263-6.77,206.007-6.77
			S456,392.629,456,396.366C456,400.107,363.751,403.142,250.007,403.142L250.007,403.142z"/>
		<path fill="#FEFEFE" d="M250.033,403.061c-112.661,0-204.046-3.002-204.046-6.704c0-3.699,91.384-6.7,204.046-6.7
			c112.661,0,204.032,3.001,204.032,6.7C454.064,400.059,362.694,403.061,250.033,403.061L250.033,403.061z"/>
		<path fill="#FDFDFD" d="M250.059,402.98c-111.578,0-202.085-2.972-202.085-6.633c0-3.66,90.507-6.63,202.085-6.63
			s202.07,2.97,202.07,6.63C452.129,400.009,361.636,402.98,250.059,402.98L250.059,402.98z"/>
		<path fill="#FCFCFC" d="M250.084,402.899c-110.496,0-200.123-2.939-200.123-6.563c0-3.621,89.628-6.558,200.123-6.558
			s200.109,2.937,200.109,6.558C450.193,399.96,360.579,402.899,250.084,402.899L250.084,402.899z"/>
		<path fill="#FBFBFB" d="M250.11,402.818c-109.413,0-198.162-2.907-198.162-6.492c0-3.582,88.749-6.487,198.162-6.487
			c109.411,0,198.147,2.906,198.147,6.487C448.258,399.911,359.521,402.818,250.11,402.818L250.11,402.818z"/>
		<path fill="#FAFAFA" d="M250.136,402.737c-108.33,0-196.201-2.876-196.201-6.421c0-3.543,87.871-6.417,196.201-6.417
			c108.328,0,196.187,2.874,196.187,6.417C446.322,399.862,358.464,402.737,250.136,402.737L250.136,402.737z"/>
		<path fill="#F9F9F9" d="M250.162,402.657c-107.247,0-194.239-2.844-194.239-6.35c0-3.504,86.992-6.347,194.239-6.347
			c107.245,0,194.225,2.843,194.225,6.347C444.387,399.813,357.407,402.657,250.162,402.657L250.162,402.657z"/>
		<path fill="#F8F8F8" d="M250.188,402.576c-106.163,0-192.277-2.812-192.277-6.279c0-3.465,86.114-6.274,192.277-6.274
			c106.162,0,192.265,2.811,192.265,6.274C442.451,399.765,356.35,402.576,250.188,402.576L250.188,402.576z"/>
		<path fill="#F7F7F7" d="M250.213,402.495c-105.081,0-190.316-2.78-190.316-6.208c0-3.426,85.234-6.205,190.316-6.205
			c105.079,0,190.302,2.779,190.302,6.205C440.516,399.715,355.292,402.495,250.213,402.495L250.213,402.495z"/>
		<path fill="#F6F6F6" d="M250.239,402.415c-103.998,0-188.355-2.749-188.355-6.137c0-3.387,84.357-6.134,188.355-6.134
			c103.996,0,188.341,2.747,188.341,6.134C438.58,399.666,354.235,402.415,250.239,402.415L250.239,402.415z"/>
		<path fill="#F5F5F5" d="M250.265,402.334c-102.916,0-186.394-2.717-186.394-6.066c0-3.349,83.479-6.063,186.394-6.063
			c102.913,0,186.38,2.716,186.38,6.063C436.644,399.617,353.178,402.334,250.265,402.334L250.265,402.334z"/>
		<path fill="#F4F4F4" d="M250.291,402.253c-101.833,0-184.433-2.685-184.433-5.996c0-3.309,82.6-5.991,184.433-5.991
			c101.83,0,184.418,2.684,184.418,5.991C434.709,399.568,352.12,402.253,250.291,402.253L250.291,402.253z"/>
		<path fill="#F3F3F3" d="M250.316,402.173c-100.75,0-182.473-2.653-182.473-5.925c0-3.27,81.723-5.922,182.473-5.922
			c100.746,0,182.457,2.652,182.457,5.922C432.773,399.52,351.063,402.173,250.316,402.173L250.316,402.173z"/>
		<path fill="#F2F2F2" d="M250.342,402.092c-99.667,0-180.51-2.622-180.51-5.854s80.843-5.851,180.51-5.851
			c99.664,0,180.496,2.619,180.496,5.851S350.006,402.092,250.342,402.092L250.342,402.092z"/>
		<path fill="#F1F1F1" d="M250.368,402.011c-98.584,0-178.549-2.59-178.549-5.782s79.965-5.78,178.549-5.78
			c98.581,0,178.534,2.589,178.534,5.78C428.902,399.421,348.949,402.011,250.368,402.011L250.368,402.011z"/>
		<path fill="#F0F0F0" d="M250.394,401.931c-97.501,0-176.588-2.559-176.588-5.713c0-3.152,79.087-5.71,176.588-5.71
			c97.498,0,176.573,2.558,176.573,5.71C426.967,399.372,347.891,401.931,250.394,401.931L250.394,401.931z"/>
		<path fill="#EFEFEF" d="M250.419,401.851c-96.418,0-174.626-2.527-174.626-5.642s78.208-5.639,174.626-5.639
			c96.414,0,174.612,2.524,174.612,5.639S346.834,401.851,250.419,401.851L250.419,401.851z"/>
		<path fill="#EEEEEE" d="M250.445,401.77c-95.335,0-172.665-2.495-172.665-5.571c0-3.075,77.33-5.568,172.665-5.568
			c95.331,0,172.649,2.494,172.649,5.568C423.096,399.274,345.777,401.77,250.445,401.77L250.445,401.77z"/>
		<path fill="#EDEDED" d="M250.471,401.688c-94.252,0-170.704-2.463-170.704-5.5c0-3.036,76.451-5.498,170.704-5.498
			c94.248,0,170.689,2.462,170.689,5.498C421.16,399.226,344.719,401.688,250.471,401.688L250.471,401.688z"/>
		<path fill="#ECECEC" d="M250.497,401.608c-93.17,0-168.742-2.432-168.742-5.429s75.573-5.428,168.742-5.428
			c93.165,0,168.728,2.431,168.728,5.428C419.224,399.176,343.662,401.608,250.497,401.608L250.497,401.608z"/>
		<path fill="#EBEBEB" d="M250.521,401.527c-92.087,0-166.78-2.4-166.78-5.358s74.693-5.355,166.78-5.355
			c92.082,0,166.767,2.398,166.767,5.355C417.289,399.127,342.605,401.527,250.521,401.527L250.521,401.527z"/>
		<path fill="#EAEAEA" d="M250.548,401.446c-91.004,0-164.82-2.368-164.82-5.287s73.816-5.285,164.82-5.285
			c90.999,0,164.805,2.367,164.805,5.285C415.354,399.078,341.547,401.446,250.548,401.446L250.548,401.446z"/>
		<path fill="#E9E9E9" d="M250.574,401.366c-89.921,0-162.859-2.336-162.859-5.216s72.938-5.215,162.859-5.215
			c89.916,0,162.844,2.335,162.844,5.215C413.418,399.029,340.49,401.366,250.574,401.366L250.574,401.366z"/>
		<path fill="#E8E8E8" d="M250.6,401.285c-88.838,0-160.896-2.305-160.896-5.146c0-2.842,72.059-5.145,160.896-5.145
			c88.833,0,160.883,2.303,160.883,5.145C411.482,398.98,339.433,401.285,250.6,401.285L250.6,401.285z"/>
		<path fill="#E7E7E7" d="M250.626,401.204c-87.755,0-158.937-2.272-158.937-5.075c0-2.802,71.182-5.072,158.937-5.072
			c87.75,0,158.921,2.271,158.921,5.072C409.547,398.932,338.375,401.204,250.626,401.204L250.626,401.204z"/>
		<path fill="#E6E6E6" d="M250.651,401.123c-86.673,0-156.976-2.241-156.976-5.004s70.303-5.003,156.976-5.003
			c86.667,0,156.96,2.24,156.96,5.003S337.318,401.123,250.651,401.123L250.651,401.123z"/>
		<path fill="#E5E5E5" d="M250.677,401.043c-85.589,0-155.013-2.209-155.013-4.933c0-2.725,69.424-4.933,155.013-4.933
			c85.584,0,154.998,2.208,154.998,4.933C405.675,398.834,336.261,401.043,250.677,401.043L250.677,401.043z"/>
		<path fill="#E4E4E4" d="M250.703,400.962c-84.507,0-153.052-2.178-153.052-4.861c0-2.686,68.546-4.861,153.052-4.861
			c84.501,0,153.037,2.177,153.037,4.861C403.74,398.784,335.203,400.962,250.703,400.962L250.703,400.962z"/>
		<path fill="#E3E3E3" d="M250.729,400.881c-83.424,0-151.091-2.146-151.091-4.791s67.667-4.79,151.091-4.79
			c83.418,0,151.076,2.146,151.076,4.79C401.804,398.735,334.146,400.881,250.729,400.881L250.729,400.881z"/>
		<path fill="#E2E2E2" d="M250.754,400.801c-82.341,0-149.129-2.113-149.129-4.72s66.789-4.72,149.129-4.72
			c82.334,0,149.114,2.113,149.114,4.72C399.869,398.687,333.089,400.801,250.754,400.801L250.754,400.801z"/>
		<path fill="#E1E1E1" d="M250.78,400.72c-81.258,0-147.168-2.082-147.168-4.649c0-2.568,65.91-4.649,147.168-4.649
			c81.251,0,147.152,2.082,147.152,4.649S332.031,400.72,250.78,400.72L250.78,400.72z"/>
		<path fill="#E0E0E0" d="M250.806,400.64c-80.175,0-145.207-2.052-145.207-4.579c0-2.529,65.032-4.578,145.207-4.578
			c80.168,0,145.192,2.05,145.192,4.578C395.998,398.588,330.974,400.64,250.806,400.64L250.806,400.64z"/>
		<path fill="#DFDFDF" d="M250.832,400.559c-79.092,0-143.246-2.02-143.246-4.509c0-2.488,64.153-4.508,143.246-4.508
			c79.085,0,143.23,2.019,143.23,4.508S329.917,400.559,250.832,400.559L250.832,400.559z"/>
		<path fill="#DEDEDE" d="M250.857,400.479c-78.01,0-141.284-1.987-141.284-4.438s63.274-4.437,141.284-4.437
			c78.002,0,141.269,1.985,141.269,4.437C392.127,398.49,328.859,400.479,250.857,400.479L250.857,400.479z"/>
		<path fill="#DDDDDD" d="M250.883,400.397c-76.926,0-139.323-1.956-139.323-4.366c0-2.411,62.397-4.366,139.323-4.366
			c76.919,0,139.309,1.955,139.309,4.366C390.191,398.441,327.802,400.397,250.883,400.397L250.883,400.397z"/>
		<path fill="#DCDCDC" d="M250.909,400.316c-75.843,0-137.362-1.924-137.362-4.295c0-2.372,61.519-4.296,137.362-4.296
			c75.836,0,137.347,1.923,137.347,4.296C388.256,398.393,326.745,400.316,250.909,400.316L250.909,400.316z"/>
		<path fill="#DBDBDB" d="M250.935,400.236c-74.761,0-135.399-1.892-135.399-4.224c0-2.333,60.64-4.226,135.4-4.226
			c74.753,0,135.385,1.892,135.385,4.226C386.32,398.343,325.688,400.236,250.935,400.236L250.935,400.236z"/>
		<path fill="#DADADA" d="M250.961,400.155c-73.678,0-133.439-1.861-133.439-4.154c0-2.294,59.762-4.153,133.439-4.153
			c73.67,0,133.424,1.859,133.424,4.153C384.384,398.294,324.63,400.155,250.961,400.155L250.961,400.155z"/>
		<path fill="#D9D9D9" d="M250.986,400.074c-72.596,0-131.479-1.829-131.479-4.083c0-2.255,58.883-4.083,131.479-4.083
			c72.587,0,131.463,1.828,131.463,4.083C382.449,398.245,323.573,400.074,250.986,400.074L250.986,400.074z"/>
		<path fill="#D9D9D9" d="M251.012,399.994c-71.512,0-129.516-1.797-129.516-4.012c0-2.216,58.005-4.013,129.516-4.013
			c71.504,0,129.501,1.796,129.501,4.013C380.513,398.196,322.516,399.994,251.012,399.994L251.012,399.994z"/>
		<path fill="#D8D8D8" d="M251.038,399.913c-70.429,0-127.555-1.765-127.555-3.94c0-2.178,57.126-3.942,127.555-3.942
			c70.42,0,127.54,1.765,127.54,3.942C378.578,398.147,321.458,399.913,251.038,399.913L251.038,399.913z"/>
		<path fill="#D7D7D7" d="M251.064,399.832c-69.347,0-125.595-1.733-125.595-3.87c0-2.138,56.248-3.871,125.595-3.871
			c69.337,0,125.578,1.733,125.578,3.871C376.642,398.099,320.401,399.832,251.064,399.832L251.064,399.832z"/>
		<path fill="#D6D6D6" d="M251.089,399.751c-68.263,0-123.633-1.702-123.633-3.799c0-2.099,55.369-3.801,123.633-3.801
			c68.254,0,123.617,1.701,123.617,3.801C374.707,398.049,319.344,399.751,251.089,399.751L251.089,399.751z"/>
		<path fill="#D5D5D5" d="M251.115,399.671c-67.181,0-121.671-1.67-121.671-3.728c0-2.061,54.49-3.73,121.671-3.73
			c67.171,0,121.656,1.669,121.656,3.73C372.771,398.001,318.286,399.671,251.115,399.671L251.115,399.671z"/>
		<path fill="#D4D4D4" d="M251.141,399.59c-66.098,0-119.71-1.638-119.71-3.657c0-2.021,53.612-3.659,119.71-3.659
			c66.088,0,119.695,1.638,119.695,3.659C370.836,397.952,317.229,399.59,251.141,399.59L251.141,399.59z"/>
		<path fill="#D3D3D3" d="M251.167,399.509c-65.015,0-117.749-1.606-117.749-3.587c0-1.981,52.734-3.588,117.749-3.588
			c65.005,0,117.733,1.606,117.733,3.588S316.172,399.509,251.167,399.509L251.167,399.509z"/>
		<path fill="#D2D2D2" d="M251.192,399.43c-63.933,0-115.787-1.575-115.787-3.517c0-1.942,51.855-3.518,115.787-3.518
			c63.922,0,115.771,1.574,115.771,3.518C366.964,397.854,315.114,399.43,251.192,399.43L251.192,399.43z"/>
		<path fill="#D1D1D1" d="M251.218,399.349c-62.849,0-113.826-1.543-113.826-3.445c0-1.904,50.978-3.447,113.826-3.447
			c62.839,0,113.812,1.543,113.812,3.447C365.029,397.806,314.057,399.349,251.218,399.349L251.218,399.349z"/>
		<path fill="#D0D0D0" d="M251.244,399.268c-61.766,0-111.865-1.513-111.865-3.374c0-1.865,50.1-3.376,111.865-3.376
			c61.756,0,111.849,1.511,111.849,3.376C363.093,397.756,313,399.268,251.244,399.268L251.244,399.268z"/>
		<path fill="#CFCFCF" d="M251.27,399.187c-60.683,0-109.902-1.48-109.902-3.304c0-1.825,49.22-3.306,109.902-3.306
			c60.674,0,109.889,1.479,109.889,3.306C361.158,397.707,311.942,399.187,251.27,399.187L251.27,399.187z"/>
		<path fill="#CECECE" d="M251.296,399.106c-59.6,0-107.942-1.448-107.942-3.232c0-1.787,48.343-3.234,107.942-3.234
			c59.59,0,107.927,1.447,107.927,3.234C359.222,397.658,310.885,399.106,251.296,399.106L251.296,399.106z"/>
		<path fill="#CDCDCD" d="M251.321,399.025c-58.518,0-105.981-1.416-105.981-3.162c0-1.748,47.464-3.164,105.981-3.164
			c58.506,0,105.965,1.416,105.965,3.164C357.287,397.609,309.828,399.025,251.321,399.025L251.321,399.025z"/>
		<path fill="#CCCCCC" d="M251.347,398.944c-57.434,0-104.02-1.385-104.02-3.091c0-1.709,46.585-3.095,104.02-3.095
			c57.423,0,104.004,1.385,104.004,3.095C355.351,397.561,308.77,398.944,251.347,398.944L251.347,398.944z"/>
		<path fill="#CBCBCB" d="M251.373,398.864c-56.352,0-102.058-1.354-102.058-3.02c0-1.671,45.706-3.023,102.058-3.023
			c56.34,0,102.043,1.352,102.043,3.023C353.415,397.511,307.713,398.864,251.373,398.864L251.373,398.864z"/>
		<path fill="#CACACA" d="M251.399,398.783c-55.27,0-100.098-1.321-100.098-2.949c0-1.631,44.828-2.952,100.098-2.952
			c55.257,0,100.081,1.321,100.081,2.952C351.48,397.462,306.656,398.783,251.399,398.783L251.399,398.783z"/>
		<path fill="#C9C9C9" d="M251.424,398.702c-54.186,0-98.136-1.29-98.136-2.878c0-1.592,43.95-2.881,98.136-2.881
			c54.174,0,98.12,1.289,98.12,2.881C349.544,397.413,305.598,398.702,251.424,398.702L251.424,398.702z"/>
		<path fill="#C8C8C8" d="M251.45,398.622c-53.104,0-96.174-1.258-96.174-2.807c0-1.553,43.07-2.812,96.174-2.812
			c53.091,0,96.159,1.257,96.159,2.812C347.609,397.364,304.541,398.622,251.45,398.622L251.45,398.622z"/>
		<path fill="#C7C7C7" d="M251.476,398.541c-52.02,0-94.213-1.226-94.213-2.736c0-1.515,42.193-2.74,94.213-2.74
			c52.009,0,94.197,1.226,94.197,2.74C345.673,397.315,303.484,398.541,251.476,398.541L251.476,398.541z"/>
		<path fill="#C6C6C6" d="M251.502,398.46c-50.937,0-92.252-1.193-92.252-2.666c0-1.475,41.315-2.669,92.252-2.669
			c50.925,0,92.236,1.194,92.236,2.669C343.738,397.267,302.427,398.46,251.502,398.46L251.502,398.46z"/>
		<path fill="#C5C5C5" d="M251.527,398.379c-49.854,0-90.29-1.163-90.29-2.595c0-1.436,40.436-2.599,90.29-2.599
			c49.842,0,90.274,1.162,90.274,2.599C341.802,397.217,301.369,398.379,251.527,398.379L251.527,398.379z"/>
		<path fill="#C4C4C4" d="M251.553,398.299c-48.771,0-88.329-1.131-88.329-2.523c0-1.397,39.559-2.528,88.329-2.528
			c48.759,0,88.313,1.131,88.313,2.528C339.867,397.168,300.313,398.299,251.553,398.299L251.553,398.299z"/>
		<path fill="#C3C3C3" d="M251.579,398.218c-47.689,0-86.368-1.099-86.368-2.452c0-1.358,38.679-2.457,86.368-2.457
			c47.676,0,86.352,1.099,86.352,2.457C337.931,397.119,299.255,398.218,251.579,398.218L251.579,398.218z"/>
		<path fill="#C2C2C2" d="M251.605,398.138c-46.606,0-84.407-1.068-84.407-2.383c0-1.318,37.801-2.386,84.407-2.386
			c46.593,0,84.391,1.067,84.391,2.386C335.995,397.07,298.197,398.138,251.605,398.138L251.605,398.138z"/>
		<path fill="#C1C1C1" d="M251.63,398.058c-45.522,0-82.445-1.036-82.445-2.312c0-1.28,36.923-2.315,82.445-2.315
			c45.509,0,82.429,1.034,82.429,2.315C334.06,397.021,297.14,398.058,251.63,398.058L251.63,398.058z"/>
		<path fill="#C0C0C0" d="M251.656,397.977c-44.44,0-80.484-1.004-80.484-2.241c0-1.241,36.044-2.245,80.484-2.245
			c44.426,0,80.468,1.004,80.468,2.245C332.124,396.973,296.083,397.977,251.656,397.977L251.656,397.977z"/>
		<path fill="#BFBFBF" d="M251.682,397.896c-43.356,0-78.522-0.973-78.522-2.17c0-1.202,35.166-2.175,78.522-2.175
			c43.344,0,78.508,0.973,78.508,2.175C330.189,396.923,295.025,397.896,251.682,397.896L251.682,397.896z"/>
		<path fill="#BEBEBE" d="M251.708,397.815c-42.274,0-76.561-0.941-76.561-2.1c0-1.162,34.286-2.104,76.561-2.104
			c42.26,0,76.545,0.939,76.545,2.104C328.253,396.874,293.968,397.815,251.708,397.815L251.708,397.815z"/>
		<path fill="#BDBDBD" d="M251.734,397.734c-41.191,0-74.601-0.909-74.601-2.028c0-1.124,33.409-2.033,74.601-2.033
			c41.177,0,74.584,0.909,74.584,2.033C326.318,396.825,292.911,397.734,251.734,397.734L251.734,397.734z"/>
		<path fill="#BCBCBC" d="M251.759,397.653c-40.107,0-72.639-0.877-72.639-1.957c0-1.085,32.53-1.962,72.639-1.962
			c40.094,0,72.623,0.877,72.623,1.962C324.382,396.776,291.854,397.653,251.759,397.653L251.759,397.653z"/>
		<path fill="#BBBBBB" d="M251.785,397.572c-39.025,0-70.677-0.845-70.677-1.886c0-1.046,31.651-1.892,70.677-1.892
			c39.011,0,70.661,0.846,70.661,1.892C322.447,396.728,290.796,397.572,251.785,397.572L251.785,397.572z"/>
		<path fill="#BABABA" d="M251.811,397.492c-37.942,0-68.716-0.813-68.716-1.815c0-1.007,30.774-1.82,68.716-1.82
			c37.929,0,68.7,0.813,68.7,1.82C320.511,396.679,289.739,397.492,251.811,397.492L251.811,397.492z"/>
		<path fill="#B9B9B9" d="M251.837,397.411c-36.86,0-66.755-0.782-66.755-1.745c0-0.968,29.895-1.75,66.755-1.75
			c36.845,0,66.739,0.782,66.739,1.75C318.575,396.629,288.681,397.411,251.837,397.411L251.837,397.411z"/>
		<path fill="#B8B8B8" d="M251.862,397.33c-35.777,0-64.794-0.75-64.794-1.674c0-0.929,29.017-1.679,64.794-1.679
			c35.762,0,64.777,0.75,64.777,1.679C316.64,396.58,287.624,397.33,251.862,397.33L251.862,397.33z"/>
		<path fill="#B7B7B7" d="M251.888,397.25c-34.693,0-62.832-0.719-62.832-1.603c0-0.891,28.139-1.609,62.832-1.609
			c34.68,0,62.816,0.719,62.816,1.609C314.704,396.531,286.567,397.25,251.888,397.25L251.888,397.25z"/>
		<path fill="#B6B6B6" d="M251.914,397.169c-33.611,0-60.871-0.687-60.871-1.531c0-0.852,27.26-1.538,60.871-1.538
			c33.596,0,60.854,0.687,60.854,1.538C312.769,396.482,285.509,397.169,251.914,397.169L251.914,397.169z"/>
		<path fill="#B5B5B5" d="M251.94,397.088c-32.528,0-58.91-0.654-58.91-1.461c0-0.812,26.381-1.467,58.91-1.467
			c32.512,0,58.894,0.655,58.894,1.467C310.833,396.434,284.452,397.088,251.94,397.088L251.94,397.088z"/>
		<path fill="#B4B4B4" d="M251.965,397.007c-31.445,0-56.948-0.623-56.948-1.39c0-0.773,25.503-1.397,56.948-1.397
			c31.43,0,56.933,0.623,56.933,1.397C308.898,396.384,283.395,397.007,251.965,397.007L251.965,397.007z"/>
		<path fill="#B3B3B3" d="M251.991,396.927c-30.362,0-54.987-0.592-54.987-1.318c0-0.734,24.625-1.326,54.987-1.326
			c30.346,0,54.971,0.592,54.971,1.326C306.962,396.335,282.337,396.927,251.991,396.927L251.991,396.927z"/>
	</g>
</g>
<rect x="227.505" y="60.53" fill="#00D0EF" width="40" height="331.48"/>
<polygon fill="#00D0EF" points="253.499,116.011 173.378,116.011 172.764,90.118 131.864,131.018 174.751,173.904 174.137,148.011 
	253.499,148.011 "/>
<polygon fill="#00D0EF" points="255.854,242.511 175.732,242.511 175.117,216.618 134.218,257.519 177.104,300.404 176.49,274.511 
	255.854,274.511 "/>
<polygon fill="#00D0EF" points="248.15,200.377 328.271,200.377 328.885,226.271 369.785,185.371 326.898,142.484 327.512,168.377 
	248.15,168.377 "/>
</svg>
