<?xml version="1.0" encoding="utf-8"?>
<!-- Generator: Adobe Illustrator 17.0.0, SVG Export Plug-In . SVG Version: 6.00 Build 0)  -->
<!DOCTYPE svg PUBLIC "-//W3C//DTD SVG 1.1//EN" "http://www.w3.org/Graphics/SVG/1.1/DTD/svg11.dtd">
<svg version="1.1" id="Capa_1" xmlns="http://www.w3.org/2000/svg" xmlns:xlink="http://www.w3.org/1999/xlink" x="0px" y="0px"
	 width="500px" height="500px" viewBox="0 0 500 500" enable-background="new 0 0 500 500" xml:space="preserve">
<g>
	<g opacity="0.9">
		<path fill-rule="evenodd" clip-rule="evenodd" fill="#FFFFFF" d="M250.007,341.773C136.263,341.773,44,338.738,44,334.998
			c0-3.738,92.263-6.77,206.007-6.77c113.744,0,205.993,3.033,205.993,6.77C456,338.738,363.751,341.773,250.007,341.773
			L250.007,341.773z"/>
		<path fill-rule="evenodd" clip-rule="evenodd" fill="#FEFEFE" d="M250.033,341.692c-112.661,0-204.046-3.002-204.046-6.704
			c0-3.699,91.384-6.7,204.046-6.7c112.661,0,204.032,3.001,204.032,6.7C454.064,338.69,362.694,341.692,250.033,341.692
			L250.033,341.692z"/>
		<path fill-rule="evenodd" clip-rule="evenodd" fill="#FDFDFD" d="M250.059,341.611c-111.579,0-202.085-2.971-202.085-6.633
			c0-3.66,90.506-6.629,202.085-6.629c111.578,0,202.07,2.969,202.07,6.629C452.129,338.641,361.636,341.611,250.059,341.611
			L250.059,341.611z"/>
		<path fill-rule="evenodd" clip-rule="evenodd" fill="#FCFCFC" d="M250.084,341.531c-110.496,0-200.123-2.939-200.123-6.563
			c0-3.621,89.628-6.558,200.123-6.558c110.495,0,200.109,2.937,200.109,6.558C450.193,338.592,360.579,341.531,250.084,341.531
			L250.084,341.531z"/>
		<path fill-rule="evenodd" clip-rule="evenodd" fill="#FBFBFB" d="M250.11,341.45c-109.413,0-198.162-2.907-198.162-6.492
			c0-3.582,88.749-6.487,198.162-6.487c109.412,0,198.148,2.906,198.148,6.487C448.258,338.543,359.522,341.45,250.11,341.45
			L250.11,341.45z"/>
		<path fill-rule="evenodd" clip-rule="evenodd" fill="#FAFAFA" d="M250.136,341.369c-108.33,0-196.201-2.876-196.201-6.421
			c0-3.543,87.871-6.417,196.201-6.417c108.328,0,196.186,2.874,196.186,6.417C446.322,338.494,358.464,341.369,250.136,341.369
			L250.136,341.369z"/>
		<path fill-rule="evenodd" clip-rule="evenodd" fill="#F9F9F9" d="M250.162,341.288c-107.247,0-194.239-2.844-194.239-6.35
			c0-3.504,86.992-6.346,194.239-6.346c107.245,0,194.225,2.842,194.225,6.346C444.387,338.445,357.407,341.288,250.162,341.288
			L250.162,341.288z"/>
		<path fill-rule="evenodd" clip-rule="evenodd" fill="#F8F8F8" d="M250.187,341.208c-106.164,0-192.278-2.812-192.278-6.279
			c0-3.465,86.114-6.275,192.278-6.275c106.162,0,192.264,2.811,192.264,6.275C442.451,338.396,356.35,341.208,250.187,341.208
			L250.187,341.208z"/>
		<path fill-rule="evenodd" clip-rule="evenodd" fill="#F7F7F7" d="M250.213,341.127c-105.081,0-190.317-2.78-190.317-6.208
			c0-3.426,85.235-6.205,190.317-6.205c105.079,0,190.302,2.779,190.302,6.205C440.516,338.347,355.292,341.127,250.213,341.127
			L250.213,341.127z"/>
		<path fill-rule="evenodd" clip-rule="evenodd" fill="#F6F6F6" d="M250.239,341.046c-103.998,0-188.355-2.749-188.355-6.137
			c0-3.387,84.357-6.134,188.355-6.134c103.996,0,188.341,2.747,188.341,6.134C438.58,338.298,354.235,341.046,250.239,341.046
			L250.239,341.046z"/>
		<path fill-rule="evenodd" clip-rule="evenodd" fill="#F5F5F5" d="M250.265,340.966c-102.916,0-186.394-2.717-186.394-6.067
			c0-3.348,83.479-6.063,186.394-6.063c102.913,0,186.38,2.716,186.38,6.063C436.644,338.249,353.178,340.966,250.265,340.966
			L250.265,340.966z"/>
		<path fill-rule="evenodd" clip-rule="evenodd" fill="#F4F4F4" d="M250.291,340.885c-101.833,0-184.433-2.685-184.433-5.996
			c0-3.309,82.6-5.992,184.433-5.992c101.83,0,184.418,2.684,184.418,5.992C434.709,338.2,352.12,340.885,250.291,340.885
			L250.291,340.885z"/>
		<path fill-rule="evenodd" clip-rule="evenodd" fill="#F3F3F3" d="M250.316,340.804c-100.75,0-182.472-2.654-182.472-5.925
			c0-3.27,81.722-5.922,182.472-5.922c100.747,0,182.457,2.652,182.457,5.922C432.773,338.151,351.063,340.804,250.316,340.804
			L250.316,340.804z"/>
		<path fill-rule="evenodd" clip-rule="evenodd" fill="#F2F2F2" d="M250.342,340.724c-99.667,0-180.51-2.622-180.51-5.854
			c0-3.231,80.843-5.851,180.51-5.851c99.664,0,180.496,2.62,180.496,5.851C430.838,338.102,350.006,340.724,250.342,340.724
			L250.342,340.724z"/>
		<path fill-rule="evenodd" clip-rule="evenodd" fill="#F1F1F1" d="M250.368,340.643c-98.584,0-178.549-2.59-178.549-5.783
			c0-3.192,79.965-5.78,178.549-5.78c98.581,0,178.534,2.589,178.534,5.78C428.902,338.053,348.949,340.643,250.368,340.643
			L250.368,340.643z"/>
		<path fill-rule="evenodd" clip-rule="evenodd" fill="#F0F0F0" d="M250.394,340.562c-97.501,0-176.588-2.558-176.588-5.712
			c0-3.153,79.087-5.71,176.588-5.71c97.498,0,176.573,2.557,176.573,5.71C426.967,338.004,347.891,340.562,250.394,340.562
			L250.394,340.562z"/>
		<path fill-rule="evenodd" clip-rule="evenodd" fill="#EFEFEF" d="M250.419,340.481c-96.418,0-174.626-2.527-174.626-5.641
			c0-3.114,78.208-5.639,174.626-5.639c96.414,0,174.612,2.525,174.612,5.639C425.031,337.955,346.834,340.481,250.419,340.481
			L250.419,340.481z"/>
		<path fill-rule="evenodd" clip-rule="evenodd" fill="#EEEEEE" d="M250.445,340.401c-95.335,0-172.665-2.495-172.665-5.571
			c0-3.075,77.33-5.568,172.665-5.568c95.331,0,172.65,2.494,172.65,5.568C423.096,337.906,345.777,340.401,250.445,340.401
			L250.445,340.401z"/>
		<path fill-rule="evenodd" clip-rule="evenodd" fill="#EDEDED" d="M250.471,340.32c-94.252,0-170.704-2.463-170.704-5.5
			c0-3.036,76.451-5.498,170.704-5.498c94.248,0,170.689,2.462,170.689,5.498C421.16,337.857,344.719,340.32,250.471,340.32
			L250.471,340.32z"/>
		<path fill-rule="evenodd" clip-rule="evenodd" fill="#ECECEC" d="M250.497,340.239c-93.17,0-168.742-2.431-168.742-5.429
			c0-2.997,75.573-5.427,168.742-5.427c93.165,0,168.728,2.43,168.728,5.427C419.224,337.808,343.662,340.239,250.497,340.239
			L250.497,340.239z"/>
		<path fill-rule="evenodd" clip-rule="evenodd" fill="#EBEBEB" d="M250.522,340.159c-92.087,0-166.781-2.4-166.781-5.358
			c0-2.958,74.694-5.356,166.781-5.356c92.082,0,166.766,2.399,166.766,5.356C417.289,337.759,342.605,340.159,250.522,340.159
			L250.522,340.159z"/>
		<path fill-rule="evenodd" clip-rule="evenodd" fill="#EAEAEA" d="M250.548,340.078c-91.004,0-164.82-2.368-164.82-5.287
			c0-2.919,73.816-5.285,164.82-5.285c90.999,0,164.805,2.367,164.805,5.285C415.353,337.71,341.547,340.078,250.548,340.078
			L250.548,340.078z"/>
		<path fill-rule="evenodd" clip-rule="evenodd" fill="#E9E9E9" d="M250.574,339.997c-89.921,0-162.859-2.336-162.859-5.216
			c0-2.88,72.938-5.215,162.859-5.215c89.916,0,162.844,2.335,162.844,5.215C413.418,337.661,340.49,339.997,250.574,339.997
			L250.574,339.997z"/>
		<path fill-rule="evenodd" clip-rule="evenodd" fill="#E8E8E8" d="M250.6,339.916c-88.838,0-160.897-2.305-160.897-5.146
			c0-2.841,72.059-5.144,160.897-5.144c88.833,0,160.882,2.303,160.882,5.144C411.482,337.612,339.433,339.916,250.6,339.916
			L250.6,339.916z"/>
		<path fill-rule="evenodd" clip-rule="evenodd" fill="#E7E7E7" d="M250.626,339.836c-87.755,0-158.936-2.273-158.936-5.075
			c0-2.802,71.181-5.073,158.936-5.073c87.75,0,158.921,2.272,158.921,5.073C409.547,337.563,338.375,339.836,250.626,339.836
			L250.626,339.836z"/>
		<path fill-rule="evenodd" clip-rule="evenodd" fill="#E6E6E6" d="M250.651,339.755c-86.672,0-156.975-2.241-156.975-5.004
			c0-2.763,70.302-5.003,156.975-5.003c86.667,0,156.96,2.24,156.96,5.003C407.611,337.514,337.318,339.755,250.651,339.755
			L250.651,339.755z"/>
		<path fill-rule="evenodd" clip-rule="evenodd" fill="#E5E5E5" d="M250.677,339.674c-85.589,0-155.013-2.209-155.013-4.933
			c0-2.724,69.424-4.932,155.013-4.932c85.584,0,154.998,2.208,154.998,4.932C405.676,337.465,336.261,339.674,250.677,339.674
			L250.677,339.674z"/>
		<path fill-rule="evenodd" clip-rule="evenodd" fill="#E4E4E4" d="M250.703,339.594c-84.507,0-153.052-2.178-153.052-4.862
			c0-2.685,68.546-4.861,153.052-4.861c84.501,0,153.037,2.177,153.037,4.861C403.74,337.416,335.203,339.594,250.703,339.594
			L250.703,339.594z"/>
		<path fill-rule="evenodd" clip-rule="evenodd" fill="#E3E3E3" d="M250.729,339.513c-83.424,0-151.091-2.146-151.091-4.791
			c0-2.646,67.667-4.79,151.091-4.79c83.417,0,151.076,2.145,151.076,4.79C401.804,337.367,334.146,339.513,250.729,339.513
			L250.729,339.513z"/>
		<path fill-rule="evenodd" clip-rule="evenodd" fill="#E2E2E2" d="M250.754,339.432c-82.341,0-149.129-2.114-149.129-4.72
			c0-2.607,66.789-4.72,149.129-4.72c82.334,0,149.114,2.113,149.114,4.72C399.869,337.318,333.089,339.432,250.754,339.432
			L250.754,339.432z"/>
		<path fill-rule="evenodd" clip-rule="evenodd" fill="#E1E1E1" d="M250.78,339.352c-81.258,0-147.168-2.083-147.168-4.65
			c0-2.567,65.91-4.649,147.168-4.649c81.251,0,147.153,2.082,147.153,4.649C397.933,337.269,332.031,339.352,250.78,339.352
			L250.78,339.352z"/>
		<path fill-rule="evenodd" clip-rule="evenodd" fill="#E0E0E0" d="M250.806,339.271c-80.175,0-145.207-2.051-145.207-4.579
			c0-2.529,65.032-4.578,145.207-4.578c80.168,0,145.192,2.05,145.192,4.578C395.998,337.22,330.974,339.271,250.806,339.271
			L250.806,339.271z"/>
		<path fill-rule="evenodd" clip-rule="evenodd" fill="#DFDFDF" d="M250.832,339.19c-79.092,0-143.246-2.019-143.246-4.508
			c0-2.49,64.153-4.508,143.246-4.508c79.085,0,143.231,2.018,143.231,4.508C394.062,337.171,329.917,339.19,250.832,339.19
			L250.832,339.19z"/>
		<path fill-rule="evenodd" clip-rule="evenodd" fill="#DEDEDE" d="M250.857,339.109c-78.009,0-141.284-1.987-141.284-4.437
			c0-2.45,63.275-4.437,141.284-4.437c78.002,0,141.269,1.986,141.269,4.437C392.127,337.122,328.859,339.109,250.857,339.109
			L250.857,339.109z"/>
		<path fill-rule="evenodd" clip-rule="evenodd" fill="#DDDDDD" d="M250.883,339.029c-76.926,0-139.323-1.956-139.323-4.366
			c0-2.411,62.397-4.366,139.323-4.366c76.919,0,139.308,1.955,139.308,4.366C390.191,337.073,327.802,339.029,250.883,339.029
			L250.883,339.029z"/>
		<path fill-rule="evenodd" clip-rule="evenodd" fill="#DCDCDC" d="M250.909,338.948c-75.843,0-137.362-1.924-137.362-4.295
			c0-2.372,61.518-4.296,137.362-4.296c75.836,0,137.347,1.923,137.347,4.296C388.256,337.024,326.745,338.948,250.909,338.948
			L250.909,338.948z"/>
		<path fill-rule="evenodd" clip-rule="evenodd" fill="#DBDBDB" d="M250.935,338.867c-74.761,0-135.4-1.892-135.4-4.224
			c0-2.333,60.64-4.225,135.4-4.225c74.753,0,135.385,1.891,135.385,4.225C386.32,336.975,325.688,338.867,250.935,338.867
			L250.935,338.867z"/>
		<path fill-rule="evenodd" clip-rule="evenodd" fill="#DADADA" d="M250.961,338.787c-73.678,0-133.439-1.861-133.439-4.154
			c0-2.294,59.761-4.154,133.439-4.154c73.67,0,133.424,1.86,133.424,4.154C384.384,336.926,324.63,338.787,250.961,338.787
			L250.961,338.787z"/>
		<path fill-rule="evenodd" clip-rule="evenodd" fill="#D9D9D9" d="M250.986,338.706c-72.595,0-131.478-1.829-131.478-4.083
			c0-2.255,58.883-4.083,131.478-4.083c72.587,0,131.463,1.828,131.463,4.083C382.449,336.877,323.573,338.706,250.986,338.706
			L250.986,338.706z"/>
		<path fill-rule="evenodd" clip-rule="evenodd" fill="#D9D9D9" d="M251.012,338.625c-71.512,0-129.516-1.797-129.516-4.012
			c0-2.216,58.005-4.013,129.516-4.013c71.504,0,129.501,1.796,129.501,4.013C380.513,336.828,322.516,338.625,251.012,338.625
			L251.012,338.625z"/>
		<path fill-rule="evenodd" clip-rule="evenodd" fill="#D8D8D8" d="M251.038,338.544c-70.429,0-127.555-1.765-127.555-3.941
			c0-2.177,57.126-3.942,127.555-3.942c70.42,0,127.54,1.765,127.54,3.942C378.578,336.779,321.458,338.544,251.038,338.544
			L251.038,338.544z"/>
		<path fill-rule="evenodd" clip-rule="evenodd" fill="#D7D7D7" d="M251.064,338.464c-69.346,0-125.594-1.734-125.594-3.87
			c0-2.138,56.248-3.871,125.594-3.871c69.337,0,125.579,1.733,125.579,3.871C376.642,336.73,320.401,338.464,251.064,338.464
			L251.064,338.464z"/>
		<path fill-rule="evenodd" clip-rule="evenodd" fill="#D6D6D6" d="M251.089,338.383c-68.263,0-123.633-1.702-123.633-3.799
			c0-2.099,55.369-3.801,123.633-3.801c68.254,0,123.617,1.701,123.617,3.801C374.707,336.681,319.344,338.383,251.089,338.383
			L251.089,338.383z"/>
		<path fill-rule="evenodd" clip-rule="evenodd" fill="#D5D5D5" d="M251.115,338.302c-67.18,0-121.671-1.67-121.671-3.728
			c0-2.06,54.491-3.73,121.671-3.73c67.171,0,121.656,1.669,121.656,3.73C372.771,336.632,318.286,338.302,251.115,338.302
			L251.115,338.302z"/>
		<path fill-rule="evenodd" clip-rule="evenodd" fill="#D4D4D4" d="M251.141,338.222c-66.098,0-119.71-1.638-119.71-3.658
			c0-2.021,53.612-3.659,119.71-3.659c66.088,0,119.695,1.638,119.695,3.659C370.836,336.583,317.229,338.222,251.141,338.222
			L251.141,338.222z"/>
		<path fill-rule="evenodd" clip-rule="evenodd" fill="#D3D3D3" d="M251.167,338.141c-65.015,0-117.749-1.607-117.749-3.587
			c0-1.982,52.734-3.588,117.749-3.588c65.005,0,117.733,1.606,117.733,3.588C368.9,336.534,316.172,338.141,251.167,338.141
			L251.167,338.141z"/>
		<path fill-rule="evenodd" clip-rule="evenodd" fill="#D2D2D2" d="M251.192,338.06c-63.932,0-115.787-1.575-115.787-3.516
			c0-1.943,51.856-3.518,115.787-3.518c63.922,0,115.772,1.574,115.772,3.518C366.964,336.485,315.114,338.06,251.192,338.06
			L251.192,338.06z"/>
		<path fill-rule="evenodd" clip-rule="evenodd" fill="#D1D1D1" d="M251.218,337.98c-62.849,0-113.826-1.543-113.826-3.445
			c0-1.904,50.977-3.447,113.826-3.447c62.839,0,113.811,1.543,113.811,3.447C365.029,336.436,314.057,337.98,251.218,337.98
			L251.218,337.98z"/>
		<path fill-rule="evenodd" clip-rule="evenodd" fill="#D0D0D0" d="M251.244,337.899c-61.766,0-111.865-1.512-111.865-3.374
			c0-1.865,50.099-3.376,111.865-3.376c61.756,0,111.849,1.511,111.849,3.376C363.093,336.387,313,337.899,251.244,337.899
			L251.244,337.899z"/>
		<path fill-rule="evenodd" clip-rule="evenodd" fill="#CFCFCF" d="M251.27,337.818c-60.683,0-109.903-1.48-109.903-3.303
			c0-1.826,49.22-3.306,109.903-3.306c60.673,0,109.888,1.479,109.888,3.306C361.158,336.338,311.942,337.818,251.27,337.818
			L251.27,337.818z"/>
		<path fill-rule="evenodd" clip-rule="evenodd" fill="#CECECE" d="M251.296,337.737c-59.6,0-107.942-1.448-107.942-3.233
			c0-1.787,48.342-3.235,107.942-3.235c59.59,0,107.927,1.448,107.927,3.235C359.222,336.289,310.885,337.737,251.296,337.737
			L251.296,337.737z"/>
		<path fill-rule="evenodd" clip-rule="evenodd" fill="#CDCDCD" d="M251.321,337.657c-58.517,0-105.981-1.416-105.981-3.162
			c0-1.748,47.464-3.164,105.981-3.164c58.506,0,105.965,1.416,105.965,3.164C357.287,336.24,309.828,337.657,251.321,337.657
			L251.321,337.657z"/>
		<path fill-rule="evenodd" clip-rule="evenodd" fill="#CCCCCC" d="M251.347,337.576c-57.434,0-104.02-1.385-104.02-3.091
			c0-1.709,46.585-3.093,104.02-3.093c57.423,0,104.004,1.384,104.004,3.093C355.351,336.191,308.77,337.576,251.347,337.576
			L251.347,337.576z"/>
		<path fill-rule="evenodd" clip-rule="evenodd" fill="#CBCBCB" d="M251.373,337.495c-56.352,0-102.058-1.353-102.058-3.02
			c0-1.67,45.707-3.023,102.058-3.023c56.34,0,102.043,1.352,102.043,3.023C353.415,336.142,307.713,337.495,251.373,337.495
			L251.373,337.495z"/>
		<path fill-rule="evenodd" clip-rule="evenodd" fill="#CACACA" d="M251.399,337.415c-55.269,0-100.097-1.321-100.097-2.949
			c0-1.631,44.828-2.952,100.097-2.952c55.257,0,100.081,1.321,100.081,2.952C351.48,336.093,306.656,337.415,251.399,337.415
			L251.399,337.415z"/>
		<path fill-rule="evenodd" clip-rule="evenodd" fill="#C9C9C9" d="M251.424,337.334c-54.186,0-98.136-1.29-98.136-2.878
			c0-1.592,43.95-2.881,98.136-2.881c54.174,0,98.12,1.289,98.12,2.881C349.544,336.044,305.598,337.334,251.424,337.334
			L251.424,337.334z"/>
		<path fill-rule="evenodd" clip-rule="evenodd" fill="#C8C8C8" d="M251.45,337.253c-53.103,0-96.174-1.258-96.174-2.807
			c0-1.553,43.071-2.811,96.174-2.811c53.091,0,96.159,1.257,96.159,2.811C347.609,335.995,304.541,337.253,251.45,337.253
			L251.45,337.253z"/>
		<path fill-rule="evenodd" clip-rule="evenodd" fill="#C7C7C7" d="M251.476,337.173c-52.02,0-94.213-1.226-94.213-2.737
			c0-1.514,42.193-2.74,94.213-2.74c52.008,0,94.197,1.226,94.197,2.74C345.673,335.946,303.484,337.173,251.476,337.173
			L251.476,337.173z"/>
		<path fill-rule="evenodd" clip-rule="evenodd" fill="#C6C6C6" d="M251.502,337.092c-50.937,0-92.252-1.194-92.252-2.666
			c0-1.475,41.315-2.669,92.252-2.669c50.925,0,92.236,1.194,92.236,2.669C343.738,335.897,302.427,337.092,251.502,337.092
			L251.502,337.092z"/>
		<path fill-rule="evenodd" clip-rule="evenodd" fill="#C5C5C5" d="M251.527,337.011c-49.854,0-90.29-1.163-90.29-2.595
			c0-1.436,40.436-2.599,90.29-2.599c49.842,0,90.275,1.162,90.275,2.599C341.802,335.848,301.369,337.011,251.527,337.011
			L251.527,337.011z"/>
		<path fill-rule="evenodd" clip-rule="evenodd" fill="#C4C4C4" d="M251.553,336.93c-48.771,0-88.329-1.131-88.329-2.524
			c0-1.397,39.558-2.528,88.329-2.528c48.759,0,88.313,1.131,88.313,2.528C339.867,335.799,300.312,336.93,251.553,336.93
			L251.553,336.93z"/>
		<path fill-rule="evenodd" clip-rule="evenodd" fill="#C3C3C3" d="M251.579,336.85c-47.689,0-86.368-1.099-86.368-2.453
			c0-1.358,38.679-2.457,86.368-2.457c47.676,0,86.352,1.099,86.352,2.457C337.931,335.75,299.255,336.85,251.579,336.85
			L251.579,336.85z"/>
		<path fill-rule="evenodd" clip-rule="evenodd" fill="#C2C2C2" d="M251.605,336.769c-46.606,0-84.407-1.068-84.407-2.382
			c0-1.319,37.801-2.386,84.407-2.386c46.593,0,84.391,1.067,84.391,2.386C335.995,335.701,298.197,336.769,251.605,336.769
			L251.605,336.769z"/>
		<path fill-rule="evenodd" clip-rule="evenodd" fill="#C1C1C1" d="M251.63,336.688c-45.523,0-82.445-1.036-82.445-2.311
			c0-1.28,36.922-2.316,82.445-2.316c45.509,0,82.429,1.035,82.429,2.316C334.06,335.652,297.14,336.688,251.63,336.688
			L251.63,336.688z"/>
		<path fill-rule="evenodd" clip-rule="evenodd" fill="#C0C0C0" d="M251.656,336.608c-44.44,0-80.484-1.004-80.484-2.241
			c0-1.241,36.044-2.245,80.484-2.245c44.426,0,80.468,1.004,80.468,2.245C332.124,335.604,296.083,336.608,251.656,336.608
			L251.656,336.608z"/>
		<path fill-rule="evenodd" clip-rule="evenodd" fill="#BFBFBF" d="M251.682,336.527c-43.357,0-78.523-0.972-78.523-2.17
			c0-1.202,35.166-2.174,78.523-2.174c43.343,0,78.507,0.972,78.507,2.174C330.189,335.555,295.025,336.527,251.682,336.527
			L251.682,336.527z"/>
		<path fill-rule="evenodd" clip-rule="evenodd" fill="#BEBEBE" d="M251.708,336.446c-42.274,0-76.561-0.941-76.561-2.099
			c0-1.163,34.287-2.104,76.561-2.104c42.26,0,76.545,0.94,76.545,2.104C328.253,335.506,293.968,336.446,251.708,336.446
			L251.708,336.446z"/>
		<path fill-rule="evenodd" clip-rule="evenodd" fill="#BDBDBD" d="M251.734,336.365c-41.191,0-74.6-0.909-74.6-2.028
			c0-1.124,33.409-2.033,74.6-2.033c41.177,0,74.584,0.909,74.584,2.033C326.318,335.457,292.911,336.365,251.734,336.365
			L251.734,336.365z"/>
		<path fill-rule="evenodd" clip-rule="evenodd" fill="#BCBCBC" d="M251.759,336.285c-40.108,0-72.639-0.877-72.639-1.957
			c0-1.085,32.53-1.962,72.639-1.962c40.094,0,72.623,0.877,72.623,1.962C324.382,335.408,291.853,336.285,251.759,336.285
			L251.759,336.285z"/>
		<path fill-rule="evenodd" clip-rule="evenodd" fill="#BBBBBB" d="M251.785,336.204c-39.025,0-70.677-0.845-70.677-1.886
			c0-1.046,31.652-1.891,70.677-1.891c39.011,0,70.661,0.845,70.661,1.891C322.447,335.359,290.796,336.204,251.785,336.204
			L251.785,336.204z"/>
		<path fill-rule="evenodd" clip-rule="evenodd" fill="#BABABA" d="M251.811,336.123c-37.943,0-68.716-0.814-68.716-1.815
			c0-1.007,30.774-1.821,68.716-1.821c37.928,0,68.7,0.814,68.7,1.821C320.511,335.31,289.739,336.123,251.811,336.123
			L251.811,336.123z"/>
		<path fill-rule="evenodd" clip-rule="evenodd" fill="#B9B9B9" d="M251.837,336.043c-36.86,0-66.755-0.782-66.755-1.745
			c0-0.968,29.895-1.75,66.755-1.75c36.845,0,66.739,0.782,66.739,1.75C318.575,335.261,288.681,336.043,251.837,336.043
			L251.837,336.043z"/>
		<path fill-rule="evenodd" clip-rule="evenodd" fill="#B8B8B8" d="M251.862,335.962c-35.777,0-64.794-0.75-64.794-1.674
			c0-0.929,29.017-1.679,64.794-1.679c35.762,0,64.778,0.75,64.778,1.679C316.64,335.212,287.624,335.962,251.862,335.962
			L251.862,335.962z"/>
		<path fill-rule="evenodd" clip-rule="evenodd" fill="#B7B7B7" d="M251.888,335.881c-34.694,0-62.832-0.719-62.832-1.603
			c0-0.89,28.138-1.609,62.832-1.609c34.679,0,62.816,0.718,62.816,1.609C314.704,335.163,286.567,335.881,251.888,335.881
			L251.888,335.881z"/>
		<path fill-rule="evenodd" clip-rule="evenodd" fill="#B6B6B6" d="M251.914,335.801c-33.611,0-60.871-0.687-60.871-1.532
			c0-0.851,27.26-1.538,60.871-1.538c33.596,0,60.855,0.687,60.855,1.538C312.769,335.114,285.509,335.801,251.914,335.801
			L251.914,335.801z"/>
		<path fill-rule="evenodd" clip-rule="evenodd" fill="#B5B5B5" d="M251.94,335.72c-32.528,0-58.91-0.655-58.91-1.461
			c0-0.812,26.381-1.467,58.91-1.467c32.512,0,58.894,0.655,58.894,1.467C310.833,335.065,284.452,335.72,251.94,335.72
			L251.94,335.72z"/>
		<path fill-rule="evenodd" clip-rule="evenodd" fill="#B4B4B4" d="M251.965,335.639c-31.445,0-56.948-0.623-56.948-1.39
			c0-0.773,25.503-1.397,56.948-1.397c31.429,0,56.932,0.623,56.932,1.397C308.898,335.016,283.395,335.639,251.965,335.639
			L251.965,335.639z"/>
		<path fill-rule="evenodd" clip-rule="evenodd" fill="#B3B3B3" d="M251.991,335.558c-30.362,0-54.987-0.592-54.987-1.319
			c0-0.734,24.625-1.326,54.987-1.326c30.346,0,54.971,0.592,54.971,1.326C306.962,334.967,282.337,335.558,251.991,335.558
			L251.991,335.558z"/>
	</g>
</g>
<g>
	<path fill="#00D0EF" d="M387.036,311.1c0.081-1.115,0.253-2.265,0.179-1.631c11.527-5.675,21.986-9.581,31.053-15.57
		c19.465-12.857,32.62-31.548,43.805-51.644c7.156-12.857,5.763-22.464-3.647-27.32c-9.089-4.691-16.058-0.1-24.468,12.051
		c-9.64,13.928-20.742,26.905-31.911,39.683c-5.168,5.912-12.605,6.038-19.765,2.78c-6.994-3.182-14.044-6.267-20.871-9.779
		c-5.323-2.738-10.294-5.153-14.393,0.993c-4.202-2.732-7.76-6.692-11.743-7.179c-4.104-0.501-8.62,2.381-14.908,4.414
		c2.212-3.709,3.485-5.844,4.758-7.979c-1.134,1.13-2.268,2.259-3.401,3.388c-6.526-6.973-13.052-13.945-19.578-20.918
		c0.835-0.316,1.671-0.633,2.506-0.949c-5.389-0.408-10.778-0.816-16.167-1.224c1.103,0.705,2.206,1.411,3.309,2.116
		c-7.304,6.56-14.609,13.119-21.55,19.352c7.686,4.462,17.656,9.912,27.196,16.031c2.334,1.497,4.545,5.225,4.642,7.958
		c0.65,18.411,1.317,36.326,1.861,55.326h81.824C386.145,324,386.554,317.704,387.036,311.1z"/>
	<path fill="#00D0EF" d="M193.608,286.802c0.573-11.748-0.518-20.997-14.03-24.214c-3.423-0.815-6.574-3.441-9.462-5.716
		c-5.591-4.406-10.626-3.952-16.14,0.253c-1.821,1.389-4.789,1.597-7.263,1.721c-3.524,0.176-7.342-1.127-10.557-0.179
		c-5.13,1.512-9.87,4.349-14.771,6.634c-18.895,8.807-23.037,7.92-36.59-7.879c-0.926-1.08-1.827-2.196-2.614-3.379
		c-6.616-9.943-13.105-19.972-19.831-29.84c-5.026-7.374-13.886-9.733-20.879-5.886c-7.252,3.99-9.988,12.338-6.698,20.675
		c0.623,1.579,1.488,3.074,2.339,4.551c16.311,28.3,34.665,54.436,67.936,65.128c1.492,0.479,3.058,3.301,3.203,5.099
		c0.462,5.715,0.98,11.231,1.492,17.231h83.912C194.061,316,192.893,301.466,193.608,286.802z"/>
	<path fill="#00D0EF" d="M288.861,275.792c0.031-2.671-0.113-6.826-1.711-7.832c-7.921-4.985-15.982-10.389-24.775-13.097
		c-4.207-1.296-10.145,3.013-16.117,5.072c-5.604-9.576-13.825-8.035-22.751-1.227c-0.323-0.734-0.645-1.471-0.968-2.206
		c1.412-2.192,2.824-4.384,4.235-6.576c-1.084,1.194-2.167,2.388-3.251,3.583c-6.942-6.924-13.883-13.848-20.825-20.772
		c0.978-0.384,1.956-0.767,2.934-1.151c-5.367-0.483-10.733-0.966-16.1-1.449c1.241,0.916,2.483,1.833,3.724,2.749
		c-7.205,6.273-14.411,12.545-21.537,18.75c7.652,4.458,17.538,9.904,27.028,15.969c2.355,1.505,4.781,5.052,4.882,7.701
		c0.705,18.533,1.439,36.692,2.024,55.692h82.943C289.299,313,288.648,294.147,288.861,275.792z"/>
	<path fill="#00D0EF" d="M149.848,250.718c22.402-0.288,40.571-18.81,40.388-41.173c-0.183-22.356-18.707-40.546-41.106-40.363
		c-22.331,0.183-40.808,18.935-40.468,41.071C109.004,232.628,127.707,251.003,149.848,250.718z"/>
	<path fill="#00D0EF" d="M248.427,250.696c22.478-0.412,40.712-19.037,40.366-41.231c-0.35-22.467-18.782-40.482-41.229-40.295
		c-22.361,0.186-40.482,18.715-40.262,41.167C207.521,232.735,226.238,251.103,248.427,250.696z"/>
	<path fill="#00D0EF" d="M346.572,250.726c22.368-0.045,40.574-18.392,40.566-40.878c-0.008-22.495-18.221-40.71-40.673-40.677
		c-22.466,0.033-40.687,18.327-40.62,40.783C305.912,232.419,324.244,250.771,346.572,250.726z"/>
	<path fill="#00D0EF" d="M360.642,253.665c8.643,3.686,17.788,8.1,27.301,11.474c7.123,2.527,12.911-0.701,16.167-7.35
		c3.457-7.061,1.811-13.565-4.57-18.019c-4.504-3.144-9.777-5.186-12.947-6.816C377.178,240.468,369.16,246.867,360.642,253.665z"/>
	<path fill="#00D0EF" d="M105.872,265.468c9.995-3.125,19.52-7.75,28.578-11.467c-9.06-7.139-17.168-13.527-26.312-20.732
		c-3.315,1.784-8.356,3.81-12.582,6.938c-5.972,4.419-7.167,10.826-4.13,17.483C94.166,263.695,99.53,267.451,105.872,265.468z"/>
</g>
</svg>
