<?xml version="1.0" encoding="utf-8"?>
<!-- Generator: Adobe Illustrator 17.0.0, SVG Export Plug-In . SVG Version: 6.00 Build 0)  -->
<!DOCTYPE svg PUBLIC "-//W3C//DTD SVG 1.1//EN" "http://www.w3.org/Graphics/SVG/1.1/DTD/svg11.dtd">
<svg version="1.1" id="Capa_1" xmlns="http://www.w3.org/2000/svg" xmlns:xlink="http://www.w3.org/1999/xlink" x="0px" y="0px"
	 width="500px" height="500px" viewBox="0 0 500 500" enable-background="new 0 0 500 500" xml:space="preserve">
<g>
	<g opacity="0.9">
		<path fill-rule="evenodd" clip-rule="evenodd" fill="#FFFFFF" d="M250.007,377.545C136.263,377.545,44,374.511,44,370.77
			c0-3.738,92.263-6.77,206.007-6.77C363.751,364,456,367.033,456,370.77C456,374.511,363.751,377.545,250.007,377.545
			L250.007,377.545z"/>
		<path fill-rule="evenodd" clip-rule="evenodd" fill="#FEFEFE" d="M250.033,377.465c-112.661,0-204.046-3.002-204.046-6.704
			c0-3.699,91.384-6.7,204.046-6.7c112.661,0,204.032,3.001,204.032,6.7C454.064,374.462,362.694,377.465,250.033,377.465
			L250.033,377.465z"/>
		<path fill-rule="evenodd" clip-rule="evenodd" fill="#FDFDFD" d="M250.059,377.384c-111.579,0-202.085-2.971-202.085-6.633
			c0-3.66,90.506-6.629,202.085-6.629c111.578,0,202.07,2.969,202.07,6.629C452.129,374.413,361.636,377.384,250.059,377.384
			L250.059,377.384z"/>
		<path fill-rule="evenodd" clip-rule="evenodd" fill="#FCFCFC" d="M250.084,377.303c-110.496,0-200.123-2.939-200.123-6.563
			c0-3.621,89.628-6.558,200.123-6.558c110.495,0,200.109,2.937,200.109,6.558C450.193,374.364,360.579,377.303,250.084,377.303
			L250.084,377.303z"/>
		<path fill-rule="evenodd" clip-rule="evenodd" fill="#FBFBFB" d="M250.11,377.223c-109.413,0-198.162-2.907-198.162-6.492
			c0-3.582,88.749-6.487,198.162-6.487c109.412,0,198.148,2.906,198.148,6.487C448.258,374.315,359.522,377.223,250.11,377.223
			L250.11,377.223z"/>
		<path fill-rule="evenodd" clip-rule="evenodd" fill="#FAFAFA" d="M250.136,377.142c-108.33,0-196.201-2.876-196.201-6.421
			c0-3.543,87.871-6.417,196.201-6.417c108.328,0,196.186,2.874,196.186,6.417C446.322,374.266,358.464,377.142,250.136,377.142
			L250.136,377.142z"/>
		<path fill-rule="evenodd" clip-rule="evenodd" fill="#F9F9F9" d="M250.162,377.061c-107.247,0-194.239-2.844-194.239-6.35
			c0-3.504,86.992-6.346,194.239-6.346c107.245,0,194.225,2.842,194.225,6.346C444.387,374.217,357.407,377.061,250.162,377.061
			L250.162,377.061z"/>
		<path fill-rule="evenodd" clip-rule="evenodd" fill="#F8F8F8" d="M250.187,376.98c-106.164,0-192.278-2.812-192.278-6.279
			c0-3.465,86.114-6.275,192.278-6.275c106.162,0,192.264,2.811,192.264,6.275C442.451,374.168,356.35,376.98,250.187,376.98
			L250.187,376.98z"/>
		<path fill-rule="evenodd" clip-rule="evenodd" fill="#F7F7F7" d="M250.213,376.9c-105.081,0-190.317-2.78-190.317-6.208
			c0-3.426,85.235-6.205,190.317-6.205c105.079,0,190.302,2.779,190.302,6.205C440.516,374.119,355.292,376.9,250.213,376.9
			L250.213,376.9z"/>
		<path fill-rule="evenodd" clip-rule="evenodd" fill="#F6F6F6" d="M250.239,376.819c-103.998,0-188.355-2.749-188.355-6.137
			c0-3.387,84.357-6.134,188.355-6.134c103.996,0,188.341,2.747,188.341,6.134C438.58,374.07,354.235,376.819,250.239,376.819
			L250.239,376.819z"/>
		<path fill-rule="evenodd" clip-rule="evenodd" fill="#F5F5F5" d="M250.265,376.738c-102.916,0-186.394-2.717-186.394-6.067
			c0-3.348,83.479-6.063,186.394-6.063c102.913,0,186.38,2.716,186.38,6.063C436.644,374.021,353.178,376.738,250.265,376.738
			L250.265,376.738z"/>
		<path fill-rule="evenodd" clip-rule="evenodd" fill="#F4F4F4" d="M250.291,376.658c-101.833,0-184.433-2.685-184.433-5.996
			c0-3.309,82.6-5.992,184.433-5.992c101.83,0,184.418,2.684,184.418,5.992C434.709,373.972,352.12,376.658,250.291,376.658
			L250.291,376.658z"/>
		<path fill-rule="evenodd" clip-rule="evenodd" fill="#F3F3F3" d="M250.316,376.577c-100.75,0-182.472-2.654-182.472-5.925
			c0-3.27,81.722-5.922,182.472-5.922c100.747,0,182.457,2.652,182.457,5.922C432.773,373.923,351.063,376.577,250.316,376.577
			L250.316,376.577z"/>
		<path fill-rule="evenodd" clip-rule="evenodd" fill="#F2F2F2" d="M250.342,376.496c-99.667,0-180.51-2.622-180.51-5.854
			c0-3.231,80.843-5.851,180.51-5.851c99.664,0,180.496,2.62,180.496,5.851C430.838,373.874,350.006,376.496,250.342,376.496
			L250.342,376.496z"/>
		<path fill-rule="evenodd" clip-rule="evenodd" fill="#F1F1F1" d="M250.368,376.415c-98.584,0-178.549-2.59-178.549-5.783
			c0-3.192,79.965-5.78,178.549-5.78c98.581,0,178.534,2.589,178.534,5.78C428.902,373.825,348.949,376.415,250.368,376.415
			L250.368,376.415z"/>
		<path fill-rule="evenodd" clip-rule="evenodd" fill="#F0F0F0" d="M250.394,376.335c-97.501,0-176.588-2.558-176.588-5.712
			c0-3.153,79.087-5.71,176.588-5.71c97.498,0,176.573,2.557,176.573,5.71C426.967,373.776,347.891,376.335,250.394,376.335
			L250.394,376.335z"/>
		<path fill-rule="evenodd" clip-rule="evenodd" fill="#EFEFEF" d="M250.419,376.254c-96.418,0-174.626-2.527-174.626-5.641
			c0-3.114,78.208-5.639,174.626-5.639c96.414,0,174.612,2.525,174.612,5.639C425.031,373.727,346.834,376.254,250.419,376.254
			L250.419,376.254z"/>
		<path fill-rule="evenodd" clip-rule="evenodd" fill="#EEEEEE" d="M250.445,376.173c-95.335,0-172.665-2.495-172.665-5.571
			c0-3.075,77.33-5.568,172.665-5.568c95.331,0,172.65,2.494,172.65,5.568C423.096,373.678,345.777,376.173,250.445,376.173
			L250.445,376.173z"/>
		<path fill-rule="evenodd" clip-rule="evenodd" fill="#EDEDED" d="M250.471,376.093c-94.252,0-170.704-2.463-170.704-5.5
			c0-3.036,76.451-5.498,170.704-5.498c94.248,0,170.689,2.462,170.689,5.498C421.16,373.629,344.719,376.093,250.471,376.093
			L250.471,376.093z"/>
		<path fill-rule="evenodd" clip-rule="evenodd" fill="#ECECEC" d="M250.497,376.012c-93.17,0-168.742-2.431-168.742-5.429
			c0-2.997,75.573-5.427,168.742-5.427c93.165,0,168.728,2.43,168.728,5.427C419.224,373.58,343.662,376.012,250.497,376.012
			L250.497,376.012z"/>
		<path fill-rule="evenodd" clip-rule="evenodd" fill="#EBEBEB" d="M250.522,375.931c-92.087,0-166.781-2.4-166.781-5.358
			c0-2.958,74.694-5.356,166.781-5.356c92.082,0,166.766,2.399,166.766,5.356C417.289,373.531,342.605,375.931,250.522,375.931
			L250.522,375.931z"/>
		<path fill-rule="evenodd" clip-rule="evenodd" fill="#EAEAEA" d="M250.548,375.851c-91.004,0-164.82-2.368-164.82-5.287
			c0-2.919,73.816-5.285,164.82-5.285c90.999,0,164.805,2.367,164.805,5.285C415.353,373.483,341.547,375.851,250.548,375.851
			L250.548,375.851z"/>
		<path fill-rule="evenodd" clip-rule="evenodd" fill="#E9E9E9" d="M250.574,375.77c-89.921,0-162.859-2.336-162.859-5.216
			c0-2.88,72.938-5.215,162.859-5.215c89.916,0,162.844,2.335,162.844,5.215C413.418,373.434,340.49,375.77,250.574,375.77
			L250.574,375.77z"/>
		<path fill-rule="evenodd" clip-rule="evenodd" fill="#E8E8E8" d="M250.6,375.689c-88.838,0-160.897-2.305-160.897-5.145
			c0-2.841,72.059-5.144,160.897-5.144c88.833,0,160.882,2.303,160.882,5.144C411.482,373.385,339.433,375.689,250.6,375.689
			L250.6,375.689z"/>
		<path fill-rule="evenodd" clip-rule="evenodd" fill="#E7E7E7" d="M250.626,375.608c-87.755,0-158.936-2.273-158.936-5.075
			c0-2.802,71.181-5.073,158.936-5.073c87.75,0,158.921,2.272,158.921,5.073C409.547,373.336,338.375,375.608,250.626,375.608
			L250.626,375.608z"/>
		<path fill-rule="evenodd" clip-rule="evenodd" fill="#E6E6E6" d="M250.651,375.528c-86.672,0-156.975-2.241-156.975-5.004
			c0-2.763,70.302-5.003,156.975-5.003c86.667,0,156.96,2.24,156.96,5.003C407.611,373.287,337.318,375.528,250.651,375.528
			L250.651,375.528z"/>
		<path fill-rule="evenodd" clip-rule="evenodd" fill="#E5E5E5" d="M250.677,375.447c-85.589,0-155.013-2.209-155.013-4.933
			c0-2.724,69.424-4.932,155.013-4.932c85.584,0,154.998,2.208,154.998,4.932C405.676,373.238,336.261,375.447,250.677,375.447
			L250.677,375.447z"/>
		<path fill-rule="evenodd" clip-rule="evenodd" fill="#E4E4E4" d="M250.703,375.366c-84.507,0-153.052-2.178-153.052-4.862
			c0-2.685,68.546-4.861,153.052-4.861c84.501,0,153.037,2.177,153.037,4.861C403.74,373.189,335.203,375.366,250.703,375.366
			L250.703,375.366z"/>
		<path fill-rule="evenodd" clip-rule="evenodd" fill="#E3E3E3" d="M250.729,375.286c-83.424,0-151.091-2.146-151.091-4.791
			c0-2.646,67.667-4.79,151.091-4.79c83.417,0,151.076,2.145,151.076,4.79C401.804,373.14,334.146,375.286,250.729,375.286
			L250.729,375.286z"/>
		<path fill-rule="evenodd" clip-rule="evenodd" fill="#E2E2E2" d="M250.754,375.205c-82.341,0-149.129-2.114-149.129-4.72
			c0-2.607,66.789-4.72,149.129-4.72c82.334,0,149.114,2.113,149.114,4.72C399.869,373.091,333.089,375.205,250.754,375.205
			L250.754,375.205z"/>
		<path fill-rule="evenodd" clip-rule="evenodd" fill="#E1E1E1" d="M250.78,375.124c-81.258,0-147.168-2.083-147.168-4.65
			c0-2.568,65.91-4.649,147.168-4.649c81.251,0,147.153,2.082,147.153,4.649C397.933,373.042,332.031,375.124,250.78,375.124
			L250.78,375.124z"/>
		<path fill-rule="evenodd" clip-rule="evenodd" fill="#E0E0E0" d="M250.806,375.044c-80.175,0-145.207-2.051-145.207-4.579
			c0-2.529,65.032-4.578,145.207-4.578c80.168,0,145.192,2.05,145.192,4.578C395.998,372.993,330.974,375.044,250.806,375.044
			L250.806,375.044z"/>
		<path fill-rule="evenodd" clip-rule="evenodd" fill="#DFDFDF" d="M250.832,374.963c-79.092,0-143.246-2.019-143.246-4.508
			c0-2.489,64.153-4.508,143.246-4.508c79.085,0,143.231,2.018,143.231,4.508C394.062,372.944,329.917,374.963,250.832,374.963
			L250.832,374.963z"/>
		<path fill-rule="evenodd" clip-rule="evenodd" fill="#DEDEDE" d="M250.857,374.882c-78.009,0-141.284-1.987-141.284-4.437
			c0-2.45,63.275-4.437,141.284-4.437c78.002,0,141.269,1.986,141.269,4.437C392.127,372.895,328.859,374.882,250.857,374.882
			L250.857,374.882z"/>
		<path fill-rule="evenodd" clip-rule="evenodd" fill="#DDDDDD" d="M250.883,374.801c-76.926,0-139.323-1.956-139.323-4.366
			c0-2.411,62.397-4.366,139.323-4.366c76.919,0,139.308,1.955,139.308,4.366C390.191,372.846,327.802,374.801,250.883,374.801
			L250.883,374.801z"/>
		<path fill-rule="evenodd" clip-rule="evenodd" fill="#DCDCDC" d="M250.909,374.721c-75.843,0-137.362-1.924-137.362-4.295
			c0-2.372,61.518-4.296,137.362-4.296c75.836,0,137.347,1.923,137.347,4.296C388.256,372.797,326.745,374.721,250.909,374.721
			L250.909,374.721z"/>
		<path fill-rule="evenodd" clip-rule="evenodd" fill="#DBDBDB" d="M250.935,374.64c-74.761,0-135.4-1.892-135.4-4.224
			c0-2.333,60.64-4.225,135.4-4.225c74.753,0,135.385,1.891,135.385,4.225C386.32,372.748,325.688,374.64,250.935,374.64
			L250.935,374.64z"/>
		<path fill-rule="evenodd" clip-rule="evenodd" fill="#DADADA" d="M250.961,374.559c-73.678,0-133.439-1.861-133.439-4.154
			c0-2.294,59.761-4.154,133.439-4.154c73.67,0,133.424,1.86,133.424,4.154C384.384,372.699,324.63,374.559,250.961,374.559
			L250.961,374.559z"/>
		<path fill-rule="evenodd" clip-rule="evenodd" fill="#D9D9D9" d="M250.986,374.479c-72.595,0-131.478-1.829-131.478-4.083
			c0-2.255,58.883-4.083,131.478-4.083c72.587,0,131.463,1.828,131.463,4.083C382.449,372.65,323.573,374.479,250.986,374.479
			L250.986,374.479z"/>
		<path fill-rule="evenodd" clip-rule="evenodd" fill="#D9D9D9" d="M251.012,374.398c-71.512,0-129.516-1.797-129.516-4.012
			c0-2.216,58.005-4.013,129.516-4.013c71.504,0,129.501,1.796,129.501,4.013C380.513,372.601,322.516,374.398,251.012,374.398
			L251.012,374.398z"/>
		<path fill-rule="evenodd" clip-rule="evenodd" fill="#D8D8D8" d="M251.038,374.317c-70.429,0-127.555-1.765-127.555-3.941
			c0-2.177,57.126-3.942,127.555-3.942c70.42,0,127.54,1.765,127.54,3.942C378.578,372.552,321.458,374.317,251.038,374.317
			L251.038,374.317z"/>
		<path fill-rule="evenodd" clip-rule="evenodd" fill="#D7D7D7" d="M251.064,374.236c-69.346,0-125.594-1.734-125.594-3.87
			c0-2.138,56.248-3.871,125.594-3.871c69.337,0,125.579,1.733,125.579,3.871C376.642,372.503,320.401,374.236,251.064,374.236
			L251.064,374.236z"/>
		<path fill-rule="evenodd" clip-rule="evenodd" fill="#D6D6D6" d="M251.089,374.156c-68.263,0-123.633-1.702-123.633-3.799
			c0-2.099,55.369-3.801,123.633-3.801c68.254,0,123.617,1.701,123.617,3.801C374.707,372.454,319.344,374.156,251.089,374.156
			L251.089,374.156z"/>
		<path fill-rule="evenodd" clip-rule="evenodd" fill="#D5D5D5" d="M251.115,374.075c-67.18,0-121.671-1.67-121.671-3.728
			c0-2.06,54.491-3.73,121.671-3.73c67.171,0,121.656,1.669,121.656,3.73C372.771,372.405,318.286,374.075,251.115,374.075
			L251.115,374.075z"/>
		<path fill-rule="evenodd" clip-rule="evenodd" fill="#D4D4D4" d="M251.141,373.994c-66.098,0-119.71-1.638-119.71-3.658
			c0-2.021,53.612-3.659,119.71-3.659c66.088,0,119.695,1.638,119.695,3.659C370.836,372.356,317.229,373.994,251.141,373.994
			L251.141,373.994z"/>
		<path fill-rule="evenodd" clip-rule="evenodd" fill="#D3D3D3" d="M251.167,373.914c-65.015,0-117.749-1.607-117.749-3.587
			c0-1.982,52.734-3.588,117.749-3.588c65.005,0,117.733,1.606,117.733,3.588C368.9,372.307,316.172,373.914,251.167,373.914
			L251.167,373.914z"/>
		<path fill-rule="evenodd" clip-rule="evenodd" fill="#D2D2D2" d="M251.192,373.833c-63.932,0-115.787-1.575-115.787-3.516
			c0-1.943,51.856-3.518,115.787-3.518c63.922,0,115.772,1.574,115.772,3.518C366.964,372.258,315.114,373.833,251.192,373.833
			L251.192,373.833z"/>
		<path fill-rule="evenodd" clip-rule="evenodd" fill="#D1D1D1" d="M251.218,373.752c-62.849,0-113.826-1.543-113.826-3.445
			c0-1.904,50.977-3.447,113.826-3.447c62.839,0,113.811,1.543,113.811,3.447C365.029,372.209,314.057,373.752,251.218,373.752
			L251.218,373.752z"/>
		<path fill-rule="evenodd" clip-rule="evenodd" fill="#D0D0D0" d="M251.244,373.672c-61.766,0-111.865-1.512-111.865-3.374
			c0-1.865,50.099-3.376,111.865-3.376c61.756,0,111.849,1.511,111.849,3.376C363.093,372.16,313,373.672,251.244,373.672
			L251.244,373.672z"/>
		<path fill-rule="evenodd" clip-rule="evenodd" fill="#CFCFCF" d="M251.27,373.591c-60.683,0-109.903-1.48-109.903-3.303
			c0-1.826,49.22-3.306,109.903-3.306c60.673,0,109.888,1.479,109.888,3.306C361.158,372.111,311.942,373.591,251.27,373.591
			L251.27,373.591z"/>
		<path fill-rule="evenodd" clip-rule="evenodd" fill="#CECECE" d="M251.296,373.51c-59.6,0-107.942-1.448-107.942-3.233
			c0-1.787,48.342-3.235,107.942-3.235c59.59,0,107.927,1.448,107.927,3.235C359.222,372.062,310.885,373.51,251.296,373.51
			L251.296,373.51z"/>
		<path fill-rule="evenodd" clip-rule="evenodd" fill="#CDCDCD" d="M251.321,373.429c-58.517,0-105.981-1.416-105.981-3.162
			c0-1.748,47.464-3.164,105.981-3.164c58.506,0,105.965,1.416,105.965,3.164C357.287,372.013,309.828,373.429,251.321,373.429
			L251.321,373.429z"/>
		<path fill-rule="evenodd" clip-rule="evenodd" fill="#CCCCCC" d="M251.347,373.349c-57.434,0-104.02-1.385-104.02-3.091
			c0-1.709,46.585-3.094,104.02-3.094c57.423,0,104.004,1.384,104.004,3.094C355.351,371.964,308.77,373.349,251.347,373.349
			L251.347,373.349z"/>
		<path fill-rule="evenodd" clip-rule="evenodd" fill="#CBCBCB" d="M251.373,373.268c-56.352,0-102.058-1.353-102.058-3.02
			c0-1.67,45.707-3.023,102.058-3.023c56.34,0,102.043,1.352,102.043,3.023C353.415,371.915,307.713,373.268,251.373,373.268
			L251.373,373.268z"/>
		<path fill-rule="evenodd" clip-rule="evenodd" fill="#CACACA" d="M251.399,373.187c-55.269,0-100.097-1.321-100.097-2.949
			c0-1.631,44.828-2.952,100.097-2.952c55.257,0,100.081,1.321,100.081,2.952C351.48,371.866,306.656,373.187,251.399,373.187
			L251.399,373.187z"/>
		<path fill-rule="evenodd" clip-rule="evenodd" fill="#C9C9C9" d="M251.424,373.107c-54.186,0-98.136-1.29-98.136-2.878
			c0-1.592,43.95-2.881,98.136-2.881c54.174,0,98.12,1.289,98.12,2.881C349.544,371.817,305.598,373.107,251.424,373.107
			L251.424,373.107z"/>
		<path fill-rule="evenodd" clip-rule="evenodd" fill="#C8C8C8" d="M251.45,373.026c-53.103,0-96.174-1.258-96.174-2.807
			c0-1.553,43.071-2.811,96.174-2.811c53.091,0,96.159,1.257,96.159,2.811C347.609,371.768,304.541,373.026,251.45,373.026
			L251.45,373.026z"/>
		<path fill-rule="evenodd" clip-rule="evenodd" fill="#C7C7C7" d="M251.476,372.945c-52.02,0-94.213-1.226-94.213-2.737
			c0-1.514,42.193-2.74,94.213-2.74c52.008,0,94.197,1.226,94.197,2.74C345.673,371.719,303.484,372.945,251.476,372.945
			L251.476,372.945z"/>
		<path fill-rule="evenodd" clip-rule="evenodd" fill="#C6C6C6" d="M251.502,372.865c-50.937,0-92.252-1.194-92.252-2.666
			c0-1.475,41.315-2.669,92.252-2.669c50.925,0,92.236,1.194,92.236,2.669C343.738,371.67,302.427,372.865,251.502,372.865
			L251.502,372.865z"/>
		<path fill-rule="evenodd" clip-rule="evenodd" fill="#C5C5C5" d="M251.527,372.784c-49.854,0-90.29-1.163-90.29-2.595
			c0-1.436,40.436-2.599,90.29-2.599c49.842,0,90.275,1.162,90.275,2.599C341.802,371.621,301.369,372.784,251.527,372.784
			L251.527,372.784z"/>
		<path fill-rule="evenodd" clip-rule="evenodd" fill="#C4C4C4" d="M251.553,372.703c-48.771,0-88.329-1.131-88.329-2.524
			c0-1.397,39.558-2.528,88.329-2.528c48.759,0,88.313,1.131,88.313,2.528C339.867,371.572,300.312,372.703,251.553,372.703
			L251.553,372.703z"/>
		<path fill-rule="evenodd" clip-rule="evenodd" fill="#C3C3C3" d="M251.579,372.622c-47.689,0-86.368-1.099-86.368-2.453
			c0-1.358,38.679-2.457,86.368-2.457c47.676,0,86.352,1.099,86.352,2.457C337.931,371.523,299.255,372.622,251.579,372.622
			L251.579,372.622z"/>
		<path fill-rule="evenodd" clip-rule="evenodd" fill="#C2C2C2" d="M251.605,372.542c-46.606,0-84.407-1.068-84.407-2.382
			c0-1.319,37.801-2.386,84.407-2.386c46.593,0,84.391,1.067,84.391,2.386C335.995,371.474,298.197,372.542,251.605,372.542
			L251.605,372.542z"/>
		<path fill-rule="evenodd" clip-rule="evenodd" fill="#C1C1C1" d="M251.63,372.461c-45.523,0-82.445-1.036-82.445-2.311
			c0-1.28,36.922-2.316,82.445-2.316c45.509,0,82.429,1.035,82.429,2.316C334.06,371.425,297.14,372.461,251.63,372.461
			L251.63,372.461z"/>
		<path fill-rule="evenodd" clip-rule="evenodd" fill="#C0C0C0" d="M251.656,372.38c-44.44,0-80.484-1.004-80.484-2.241
			c0-1.241,36.044-2.245,80.484-2.245c44.426,0,80.468,1.004,80.468,2.245C332.124,371.376,296.083,372.38,251.656,372.38
			L251.656,372.38z"/>
		<path fill-rule="evenodd" clip-rule="evenodd" fill="#BFBFBF" d="M251.682,372.3c-43.357,0-78.523-0.972-78.523-2.17
			c0-1.202,35.166-2.174,78.523-2.174c43.343,0,78.507,0.972,78.507,2.174C330.189,371.327,295.025,372.3,251.682,372.3
			L251.682,372.3z"/>
		<path fill-rule="evenodd" clip-rule="evenodd" fill="#BEBEBE" d="M251.708,372.219c-42.274,0-76.561-0.941-76.561-2.099
			c0-1.163,34.287-2.104,76.561-2.104c42.26,0,76.545,0.94,76.545,2.104C328.253,371.278,293.968,372.219,251.708,372.219
			L251.708,372.219z"/>
		<path fill-rule="evenodd" clip-rule="evenodd" fill="#BDBDBD" d="M251.734,372.138c-41.191,0-74.6-0.909-74.6-2.028
			c0-1.124,33.409-2.033,74.6-2.033c41.177,0,74.584,0.909,74.584,2.033C326.318,371.229,292.911,372.138,251.734,372.138
			L251.734,372.138z"/>
		<path fill-rule="evenodd" clip-rule="evenodd" fill="#BCBCBC" d="M251.759,372.057c-40.108,0-72.639-0.877-72.639-1.957
			c0-1.085,32.53-1.962,72.639-1.962c40.094,0,72.623,0.877,72.623,1.962C324.382,371.18,291.853,372.057,251.759,372.057
			L251.759,372.057z"/>
		<path fill-rule="evenodd" clip-rule="evenodd" fill="#BBBBBB" d="M251.785,371.977c-39.025,0-70.677-0.845-70.677-1.886
			c0-1.046,31.652-1.891,70.677-1.891c39.011,0,70.661,0.845,70.661,1.891C322.447,371.131,290.796,371.977,251.785,371.977
			L251.785,371.977z"/>
		<path fill-rule="evenodd" clip-rule="evenodd" fill="#BABABA" d="M251.811,371.896c-37.943,0-68.716-0.814-68.716-1.815
			c0-1.007,30.774-1.821,68.716-1.821c37.928,0,68.7,0.814,68.7,1.821C320.511,371.082,289.739,371.896,251.811,371.896
			L251.811,371.896z"/>
		<path fill-rule="evenodd" clip-rule="evenodd" fill="#B9B9B9" d="M251.837,371.815c-36.86,0-66.755-0.782-66.755-1.745
			c0-0.968,29.895-1.75,66.755-1.75c36.845,0,66.739,0.782,66.739,1.75C318.575,371.033,288.681,371.815,251.837,371.815
			L251.837,371.815z"/>
		<path fill-rule="evenodd" clip-rule="evenodd" fill="#B8B8B8" d="M251.862,371.735c-35.777,0-64.794-0.75-64.794-1.674
			c0-0.929,29.017-1.679,64.794-1.679c35.762,0,64.778,0.75,64.778,1.679C316.64,370.984,287.624,371.735,251.862,371.735
			L251.862,371.735z"/>
		<path fill-rule="evenodd" clip-rule="evenodd" fill="#B7B7B7" d="M251.888,371.654c-34.694,0-62.832-0.719-62.832-1.603
			c0-0.89,28.138-1.609,62.832-1.609c34.679,0,62.816,0.719,62.816,1.609C314.704,370.935,286.567,371.654,251.888,371.654
			L251.888,371.654z"/>
		<path fill-rule="evenodd" clip-rule="evenodd" fill="#B6B6B6" d="M251.914,371.573c-33.611,0-60.871-0.687-60.871-1.532
			c0-0.851,27.26-1.538,60.871-1.538c33.596,0,60.855,0.687,60.855,1.538C312.769,370.886,285.509,371.573,251.914,371.573
			L251.914,371.573z"/>
		<path fill-rule="evenodd" clip-rule="evenodd" fill="#B5B5B5" d="M251.94,371.493c-32.528,0-58.91-0.655-58.91-1.461
			c0-0.812,26.381-1.467,58.91-1.467c32.512,0,58.894,0.655,58.894,1.467C310.833,370.837,284.452,371.493,251.94,371.493
			L251.94,371.493z"/>
		<path fill-rule="evenodd" clip-rule="evenodd" fill="#B4B4B4" d="M251.965,371.412c-31.445,0-56.948-0.623-56.948-1.39
			c0-0.773,25.503-1.397,56.948-1.397c31.429,0,56.932,0.623,56.932,1.397C308.898,370.788,283.395,371.412,251.965,371.412
			L251.965,371.412z"/>
		<path fill-rule="evenodd" clip-rule="evenodd" fill="#B3B3B3" d="M251.991,371.331c-30.362,0-54.987-0.592-54.987-1.32
			c0-0.734,24.625-1.326,54.987-1.326c30.346,0,54.971,0.592,54.971,1.326C306.962,370.739,282.337,371.331,251.991,371.331
			L251.991,371.331z"/>
	</g>
</g>
<g>
	<path fill="#00D0EF" d="M124.42,126.075c4.381,1.302,8.786,2.527,13.139,3.917c26.824,8.572,42.636,34.995,37.638,62.831
		c-4.644,25.866-29.334,45.579-55.985,44.698c-26.888-0.888-50.251-22.18-52.828-48.146c-2.907-29.292,14.57-54.368,42.324-60.8
		c2.944-0.682,5.82-1.66,8.728-2.501C119.764,126.075,122.092,126.075,124.42,126.075z"/>
	<path fill="#00D0EF" d="M382.172,126.075c4.381,1.302,8.786,2.527,13.139,3.917c26.824,8.572,42.636,34.995,37.638,62.831
		c-4.644,25.866-29.334,45.579-55.985,44.698c-26.888-0.888-50.251-22.18-52.828-48.146c-2.907-29.292,14.57-54.368,42.324-60.8
		c2.944-0.682,5.82-1.66,8.728-2.501C377.516,126.075,379.844,126.075,382.172,126.075z"/>
	<path fill="#00D0EF" d="M321.043,210.334c-1.723,3.495-2.637,9.064-5.581,10.517c-5.542,2.734-6.925-3.707-9.25-7.155
		c-6.49-9.622-13.601-12.515-24.912-10.587c-4.018,0.685-5.818,2.197-5.209,6.292c0.177,1.192,0.297,2.482,0.03,3.631
		c-0.425,1.831-1.195,3.583-1.819,5.368c-1.732-0.753-3.898-1.08-5.128-2.328c-8.815-8.948-17.543-17.988-26.087-27.195
		c-5.353-5.768-5.088-10.915,0.703-16.399c7.943-7.522,16.009-14.92,24.192-22.18c1.29-1.144,3.582-1.916,5.194-1.631
		c0.847,0.15,1.882,3.046,1.691,4.558c-0.688,5.436,1.656,7.64,6.761,9.238c15.298,4.79,27.555,13.814,34.225,28.79
		C318.344,196.849,319.162,203.192,321.043,210.334z"/>
	<path fill="#00D0EF" d="M176.962,220.055c1.763-3.338,2.855-8.953,5.944-10.452c5.086-2.467,6.521,3.75,8.737,7.07
		c6.575,9.849,13.788,12.807,25.404,10.725c3.826-0.686,5.284-2.403,4.74-6.112c-0.117-0.796-0.227-1.656-0.049-2.419
		c0.523-2.235,1.193-4.436,1.806-6.65c2.147,1.131,4.731,1.825,6.367,3.466c8.144,8.17,16.088,16.542,24.004,24.935
		c6.585,6.982,6.471,11.643-0.434,18.112c-7.533,7.058-15.111,14.072-22.843,20.909c-1.481,1.31-3.765,1.712-5.679,2.533
		c-0.706-1.756-2.161-3.592-1.983-5.253c0.598-5.577-2.141-7.461-7.068-9.029c-15.275-4.861-27.427-13.954-33.95-29.001
		C179.603,233.457,178.833,227.335,176.962,220.055z"/>
	<g>
		<path fill="#00D0EF" d="M115.666,357.477c0.621-8.684,1.55-17.391,2.41-26.861c6.021,2.998,10.565,5.602,15.378,7.574
			c27.728,11.363,54.92,6.149,81.838-3.19c11.83-4.104,17.797-16.156,14.06-27.23c-3.541-10.494-15.213-16.045-27.057-13.003
			c-8.831,2.268-17.624,4.833-26.583,6.429c-27.466,4.891-43.241-8.048-43.775-35.455c-0.304-15.609-11.242-29.34-26.516-33.29
			c-14.834-3.835-31.07,2.483-38.795,15.79c-3.159,5.443-5.459,11.594-7.37,17.622C48.511,299.753,44.656,335,44.301,370h70.481
			C115.078,366,115.369,361.621,115.666,357.477z"/>
		<path fill="#00D0EF" d="M455.653,364.111c-1.216-36.956-5.274-73.557-18.551-108.424c-6.93-18.198-24.014-27.457-41.711-23.448
			c-17.551,3.975-28.461,19.864-27.265,39.306c0.194,3.158-0.171,6.61-1.295,9.539c-5.398,14.065-16.325,21.487-30.909,20.446
			c-13.37-0.955-26.581-4.502-39.786-7.268c-10.671-2.235-22.126,3.59-25.477,13.482c-3.419,10.095,1.727,22.057,11.707,26.374
			c4.551,1.969,9.378,3.364,14.166,4.71c28.383,7.985,56.233,9.424,82.564-7.024c0.543-0.339,1.484,0.048,2.572,0.048
			c1.242,12.737,2.648,25.146,3.908,38.146H456C455.857,368,455.714,365.978,455.653,364.111z"/>
	</g>
</g>
</svg>
