<?xml version="1.0" encoding="utf-8"?>
<!-- Generator: Adobe Illustrator 16.0.0, SVG Export Plug-In . SVG Version: 6.00 Build 0)  -->
<!DOCTYPE svg PUBLIC "-//W3C//DTD SVG 1.1//EN" "http://www.w3.org/Graphics/SVG/1.1/DTD/svg11.dtd">
<svg version="1.1" id="Capa_1" xmlns="http://www.w3.org/2000/svg" xmlns:xlink="http://www.w3.org/1999/xlink" x="0px" y="0px"
	 width="500px" height="500px" viewBox="0 0 500 500" enable-background="new 0 0 500 500" xml:space="preserve">
<g>
	<path fill="#6DC10C" d="M245.979,393.135c-1.02-23.813-1.564-48.16-7.017-71.169c-11.558-48.774-39.507-75.479-84.615-82.142
		c27.76-8.117,48.823-33.8,49.75-64.08c1.143-37.291-30.007-69.353-67.718-69.699c-37.397-0.343-67.708,29.148-68.386,66.535
		c-0.573,31.582,19.559,58.245,47.809,66.929c-23.372,3.576-43.861,14.804-59.761,35.864c-15.07,19.959-23.561,42.915-26.351,67.316
		c-2.193,19.178-2.2,38.861-0.65,58.117c0.966,11.997,13.774,18.906,25.469,17.216c11.215-1.621,16.318-8.313,16.375-21.691
		c0.05-11.788-1.052-23.69,0.223-35.338c1.536-14.022,5.047-27.829,7.703-41.729c1.01,0.235,2.02,1.971,3.03,2.207
		c0,52.25,1.534,74.529,2.132,112.529h107.255c-1.193-31-2.328-64.195-2.989-106.551c-0.064-4.061-0.009-8.873-0.009-12.936
		c1.111-0.107,2.221-0.589,3.332-0.697c2.106,6.431,5.447,12.551,6.092,19.123c2.136,21.742,3.475,43.476,4.769,65.292
		c0.776,13.096,8.303,20.69,20.673,20.038C236.387,417.57,246.615,407.992,245.979,393.135z"/>
	<path fill="#FFFFFF" d="M193.825,436H81.511l-0.039-2.461c-0.219-13.931-0.572-25.982-0.914-37.639
		c-0.549-18.743-1.115-38.071-1.205-66.686c-0.221,1.055-0.44,2.104-0.659,3.143c-1.987,9.461-4.043,19.244-5.102,28.91
		c-0.84,7.674-0.619,15.683-0.405,23.426c0.104,3.815,0.214,7.761,0.197,11.648c-0.062,14.662-5.946,22.338-18.518,24.155
		c-1.278,0.185-2.59,0.278-3.9,0.278c-11.065,0-23.384-6.929-24.418-19.769c-1.656-20.579-1.435-40.297,0.658-58.603
		c2.949-25.797,11.979-48.857,26.84-68.539c13.722-18.174,31.428-29.961,52.721-35.125c-10.938-4.992-20.577-12.829-27.7-22.642
		c-9.167-12.628-13.86-27.693-13.573-43.565c0.702-38.688,31.555-68.993,70.239-68.993l0.669,0.003
		c18.785,0.172,37.184,8.207,50.479,22.042c13.283,13.823,20.285,31.664,19.716,50.235c-0.838,27.372-18.001,52.174-42.78,63.188
		c41.178,8.996,66.597,36.031,77.58,82.381c5.01,21.142,5.925,43.493,6.811,65.11c0.089,2.179,0.178,4.354,0.271,6.526
		c0.662,15.51-9.722,26.913-25.251,27.729c-13.694,0.725-22.434-7.771-23.3-22.396c-1.369-23.098-2.673-43.946-4.762-65.211
		c-0.405-4.125-1.986-8.135-3.66-12.379c-0.262-0.664-0.526-1.334-0.788-2.012c-0.011,2.842-0.021,5.758,0.021,8.397
		c0.624,39.971,1.646,71.38,2.987,106.244L193.825,436z M86.431,431H188.63c-1.295-33.871-2.282-64.738-2.892-103.762
		c-0.044-2.822,0.104-5.926,0.116-8.928c0.006-1.343,0.146-2.662,0.146-3.922v-2.271l2.125-0.219
		c0.386-0.037,0.777-0.146,1.263-0.262c0.598-0.142,1.242-0.302,1.966-0.371l1.976-0.193l0.616,1.902
		c0.649,1.984,1.443,4.008,2.215,5.963c1.727,4.377,3.51,8.904,3.983,13.726c2.098,21.354,3.402,42.254,4.775,65.404
		c0.706,11.925,7.179,18.271,18.044,17.697c12.82-0.676,21.065-9.728,20.518-22.523c-0.093-2.175-0.182-4.354-0.272-6.536
		c-0.875-21.38-1.78-43.488-6.68-64.163c-11.245-47.453-38.247-73.701-82.548-80.245l-11.295-1.668l10.958-3.204
		c27.366-8.002,47.084-33.396,47.952-61.757c0.528-17.216-5.979-33.771-18.323-46.617c-12.369-12.872-29.47-20.346-46.919-20.506
		l-0.623-0.003c-35.932,0-64.588,28.149-65.239,64.083c-0.543,29.943,17.961,55.862,46.043,64.494l10.439,3.209l-10.796,1.652
		c-23.853,3.65-43.415,15.392-58.144,34.899c-14.314,18.959-23.016,41.196-25.863,66.094c-2.056,17.984-2.271,37.375-0.641,57.635
		c0.793,9.852,10.604,15.168,19.434,15.168c1.071,0,2.143-0.076,3.186-0.229c9.925-1.435,14.182-7.185,14.232-19.228
		c0.016-3.81-0.092-7.714-0.195-11.489c-0.219-7.912-0.444-16.094,0.433-24.107c1.086-9.91,3.167-19.814,5.179-29.394
		c0.863-4.108,1.756-8.358,2.555-12.535l0.488-2.558l2.536,0.593c1.096,0.257,1.912,0.952,2.567,1.511
		c0.183,0.155,0.276,0.381,0.422,0.477l1.632,0.42v1.984c0,33.034,0.788,54.131,1.386,74.532
		C85.708,406.735,86.21,418.068,86.431,431z"/>
</g>
<g>
	<path fill="#6DC10C" d="M359.979,393.135c-1.02-23.813-1.563-48.16-7.017-71.169c-11.558-48.774-39.507-75.479-84.614-82.142
		c27.76-8.117,48.822-33.8,49.749-64.08c1.144-37.291-30.007-69.353-67.718-69.699c-37.397-0.343-67.708,29.148-68.386,66.535
		c-0.573,31.582,19.559,58.245,47.809,66.929c-23.372,3.576-43.861,14.804-59.761,35.864c-15.07,19.959-23.561,42.915-26.351,67.316
		c-2.193,19.178-2.2,38.861-0.65,58.117c0.966,11.997,13.774,18.906,25.469,17.216c11.215-1.621,16.318-8.313,16.375-21.691
		c0.05-11.788-1.052-23.69,0.223-35.338c1.536-14.022,5.047-27.829,7.703-41.729c1.01,0.235,2.02,1.971,3.03,2.207
		c0,52.246,1.534,74.527,2.132,112.527h107.254c-1.192-31-2.328-64.196-2.988-106.551c-0.064-4.062-0.01-8.873-0.01-12.936
		c1.111-0.107,2.222-0.589,3.332-0.697c2.106,6.431,5.447,12.551,6.093,19.123c2.136,21.742,3.475,43.476,4.769,65.291
		c0.776,13.097,8.303,20.691,20.673,20.039C350.387,417.57,360.615,407.992,359.979,393.135z"/>
	<path fill="#FFFFFF" d="M307.825,436H195.511l-0.039-2.461c-0.219-13.931-0.572-25.982-0.914-37.639
		c-0.549-18.743-1.115-38.071-1.205-66.686c-0.221,1.055-0.44,2.104-0.659,3.143c-1.987,9.461-4.043,19.244-5.102,28.91
		c-0.84,7.674-0.619,15.683-0.405,23.426c0.104,3.815,0.214,7.761,0.197,11.648c-0.062,14.662-5.946,22.338-18.518,24.155
		c-1.278,0.185-2.59,0.278-3.9,0.278c-11.065,0-23.384-6.929-24.418-19.769c-1.656-20.579-1.435-40.297,0.658-58.603
		c2.949-25.797,11.979-48.857,26.84-68.539c13.722-18.174,31.428-29.961,52.721-35.125c-10.938-4.992-20.577-12.829-27.7-22.642
		c-9.167-12.628-13.86-27.693-13.573-43.565c0.702-38.688,31.555-68.993,70.239-68.993l0.669,0.003
		c18.786,0.172,37.184,8.207,50.479,22.042c13.283,13.823,20.285,31.664,19.716,50.235c-0.838,27.372-18.001,52.174-42.78,63.188
		c41.179,8.996,66.598,36.031,77.581,82.381c5.01,21.142,5.925,43.493,6.811,65.11c0.089,2.179,0.178,4.354,0.271,6.526
		c0.661,15.51-9.723,26.913-25.251,27.729c-13.712,0.725-22.435-7.771-23.301-22.396c-1.369-23.098-2.673-43.946-4.762-65.211
		c-0.405-4.125-1.986-8.135-3.66-12.379c-0.262-0.664-0.525-1.334-0.787-2.012c-0.012,2.842-0.021,5.758,0.021,8.397
		c0.624,39.971,1.646,71.38,2.986,106.244L307.825,436z M200.431,431H302.63c-1.295-33.871-2.282-64.738-2.892-103.762
		c-0.045-2.822,0.104-5.926,0.115-8.928c0.006-1.343,0.146-2.662,0.146-3.922v-2.271l2.125-0.219
		c0.386-0.037,0.777-0.146,1.264-0.262c0.598-0.142,1.241-0.302,1.965-0.371l1.977-0.193l0.616,1.902
		c0.648,1.984,1.442,4.008,2.215,5.963c1.727,4.377,3.51,8.904,3.982,13.726c2.099,21.354,3.402,42.254,4.775,65.404
		c0.706,11.925,7.173,18.271,18.044,17.697c12.82-0.676,21.065-9.728,20.519-22.523c-0.094-2.175-0.183-4.354-0.272-6.536
		c-0.875-21.38-1.78-43.488-6.68-64.163c-11.245-47.453-38.247-73.701-82.549-80.245l-11.295-1.668l10.959-3.204
		c27.365-8.002,47.084-33.396,47.951-61.757c0.528-17.216-5.979-33.771-18.322-46.617c-12.369-12.872-29.471-20.346-46.919-20.506
		l-0.623-0.003c-35.932,0-64.588,28.149-65.239,64.083c-0.543,29.943,17.961,55.862,46.043,64.494l10.439,3.209l-10.796,1.652
		c-23.853,3.65-43.415,15.392-58.144,34.899c-14.314,18.959-23.016,41.196-25.863,66.094c-2.056,17.984-2.271,37.375-0.641,57.635
		c0.793,9.852,10.604,15.168,19.434,15.168c1.071,0,2.143-0.076,3.186-0.229c9.925-1.435,14.182-7.185,14.232-19.228
		c0.016-3.81-0.092-7.714-0.195-11.489c-0.219-7.912-0.444-16.094,0.433-24.107c1.086-9.91,3.167-19.814,5.179-29.394
		c0.863-4.108,1.756-8.358,2.555-12.535l0.488-2.558l2.536,0.593c1.096,0.257,1.912,0.952,2.567,1.511
		c0.183,0.155,0.276,0.381,0.422,0.477l1.632,0.42v1.984c0,33.034,0.788,54.131,1.386,74.532
		C199.708,406.735,200.21,418.068,200.431,431z"/>
</g>
<g>
	<path fill="#6DC10C" d="M476.979,393.135c-1.02-23.813-1.563-48.16-7.017-71.169c-11.558-48.774-39.507-75.479-84.615-82.142
		c27.761-8.117,48.823-33.8,49.75-64.08c1.144-37.291-30.007-69.353-67.718-69.699c-37.396-0.343-67.708,29.148-68.386,66.535
		c-0.573,31.582,19.559,58.245,47.809,66.929c-23.372,3.576-43.86,14.804-59.761,35.864c-15.07,19.959-23.561,42.915-26.352,67.316
		c-2.192,19.178-2.199,38.861-0.649,58.117c0.966,11.997,13.774,18.906,25.469,17.216c11.216-1.621,16.318-8.313,16.375-21.691
		c0.05-11.788-1.052-23.69,0.224-35.338c1.535-14.022,5.047-27.829,7.702-41.729c1.011,0.235,2.021,1.971,3.03,2.207
		c0,52.246,1.534,74.527,2.132,112.527h107.255c-1.192-31-2.327-64.196-2.988-106.551c-0.064-4.062-0.01-8.873-0.01-12.936
		c1.111-0.107,2.222-0.589,3.332-0.697c2.106,6.431,5.447,12.551,6.093,19.123c2.136,21.742,3.475,43.476,4.769,65.291
		c0.776,13.097,8.303,20.691,20.673,20.039C467.387,417.57,477.615,407.992,476.979,393.135z"/>
	<path fill="#FFFFFF" d="M424.825,436H312.511l-0.039-2.461c-0.219-13.931-0.571-25.982-0.914-37.639
		c-0.549-18.743-1.114-38.071-1.205-66.686c-0.221,1.055-0.439,2.104-0.658,3.143c-1.987,9.461-4.044,19.244-5.103,28.91
		c-0.84,7.674-0.619,15.683-0.404,23.426c0.104,3.815,0.213,7.761,0.196,11.648c-0.062,14.662-5.946,22.338-18.518,24.155
		c-1.278,0.185-2.591,0.278-3.9,0.278c-11.065,0-23.384-6.929-24.418-19.769c-1.655-20.579-1.435-40.297,0.658-58.603
		c2.948-25.797,11.979-48.857,26.84-68.539c13.722-18.174,31.428-29.961,52.721-35.125c-10.938-4.992-20.576-12.829-27.699-22.642
		c-9.167-12.628-13.86-27.693-13.573-43.565c0.701-38.688,31.555-68.993,70.239-68.993l0.669,0.003
		c18.784,0.172,37.184,8.207,50.479,22.042c13.283,13.823,20.285,31.664,19.716,50.235c-0.838,27.372-18.001,52.174-42.779,63.188
		c41.178,8.996,66.597,36.031,77.579,82.381c5.011,21.142,5.926,43.493,6.812,65.11c0.089,2.179,0.178,4.354,0.271,6.526
		c0.662,15.51-9.722,26.913-25.251,27.729c-13.712,0.725-22.434-7.771-23.3-22.396c-1.369-23.098-2.673-43.946-4.762-65.211
		c-0.405-4.125-1.986-8.135-3.66-12.379c-0.262-0.664-0.525-1.334-0.788-2.012c-0.011,2.842-0.021,5.758,0.021,8.397
		c0.624,39.971,1.646,71.38,2.986,106.244L424.825,436z M317.431,431H419.63c-1.295-33.871-2.282-64.738-2.892-103.762
		c-0.044-2.822,0.104-5.926,0.115-8.928c0.007-1.343,0.146-2.662,0.146-3.922v-2.271l2.125-0.219
		c0.386-0.037,0.777-0.146,1.263-0.262c0.599-0.142,1.242-0.302,1.966-0.371l1.977-0.193l0.616,1.902
		c0.648,1.984,1.442,4.008,2.215,5.963c1.727,4.377,3.51,8.904,3.982,13.726c2.099,21.354,3.402,42.254,4.775,65.404
		c0.707,11.925,7.158,18.271,18.044,17.697c12.82-0.676,21.065-9.728,20.519-22.523c-0.094-2.175-0.183-4.354-0.272-6.536
		c-0.875-21.38-1.78-43.488-6.68-64.163c-11.245-47.453-38.247-73.701-82.548-80.245l-11.296-1.668l10.958-3.204
		c27.366-8.002,47.085-33.396,47.952-61.757c0.528-17.216-5.979-33.771-18.322-46.617c-12.369-12.872-29.471-20.346-46.92-20.506
		l-0.622-0.003c-35.933,0-64.589,28.149-65.239,64.083c-0.543,29.943,17.961,55.862,46.043,64.494l10.438,3.209l-10.796,1.652
		c-23.853,3.65-43.414,15.392-58.144,34.899c-14.313,18.959-23.017,41.196-25.863,66.094c-2.056,17.984-2.271,37.375-0.642,57.635
		c0.794,9.852,10.604,15.168,19.435,15.168c1.071,0,2.144-0.076,3.187-0.229c9.925-1.435,14.182-7.185,14.231-19.228
		c0.017-3.81-0.092-7.714-0.194-11.489c-0.22-7.912-0.444-16.094,0.433-24.107c1.086-9.91,3.167-19.814,5.179-29.394
		c0.863-4.108,1.756-8.358,2.555-12.535l0.488-2.558l2.536,0.593c1.096,0.257,1.912,0.952,2.567,1.511
		c0.183,0.155,0.275,0.381,0.422,0.477l1.632,0.42v1.984c0,33.034,0.788,54.131,1.386,74.532
		C316.708,406.735,317.21,418.068,317.431,431z"/>
</g>
<g>
	<g opacity="0.9">
		<path fill="#FFFFFF" d="M250.007,443.118C136.263,443.118,44,440.084,44,436.343c0-3.737,92.263-6.77,206.007-6.77
			c113.744,0,205.993,3.033,205.993,6.77C456,440.084,363.751,443.118,250.007,443.118L250.007,443.118z"/>
		<path fill="#FEFEFE" d="M250.033,443.038c-112.661,0-204.046-3.002-204.046-6.704c0-3.699,91.384-6.7,204.046-6.7
			c112.661,0,204.032,3.001,204.032,6.7C454.064,440.035,362.694,443.038,250.033,443.038L250.033,443.038z"/>
		<path fill="#FDFDFD" d="M250.059,442.957c-111.579,0-202.085-2.971-202.085-6.633c0-3.66,90.506-6.629,202.085-6.629
			c111.578,0,202.07,2.969,202.07,6.629C452.129,439.986,361.636,442.957,250.059,442.957L250.059,442.957z"/>
		<path fill="#FCFCFC" d="M250.084,442.876c-110.496,0-200.123-2.938-200.123-6.563c0-3.621,89.628-6.559,200.123-6.559
			s200.109,2.938,200.109,6.559C450.193,439.938,360.579,442.876,250.084,442.876L250.084,442.876z"/>
		<path fill="#FBFBFB" d="M250.11,442.795c-109.413,0-198.162-2.907-198.162-6.492c0-3.582,88.749-6.486,198.162-6.486
			c109.413,0,198.148,2.905,198.148,6.486C448.258,439.888,359.522,442.795,250.11,442.795L250.11,442.795z"/>
		<path fill="#FAFAFA" d="M250.136,442.715c-108.33,0-196.201-2.876-196.201-6.421c0-3.543,87.871-6.417,196.201-6.417
			c108.328,0,196.186,2.874,196.186,6.417C446.322,439.839,358.464,442.715,250.136,442.715L250.136,442.715z"/>
		<path fill="#F9F9F9" d="M250.162,442.634c-107.247,0-194.239-2.844-194.239-6.35c0-3.504,86.992-6.347,194.239-6.347
			c107.245,0,194.225,2.843,194.225,6.347C444.387,439.79,357.407,442.634,250.162,442.634L250.162,442.634z"/>
		<path fill="#F8F8F8" d="M250.187,442.553c-106.164,0-192.278-2.812-192.278-6.278c0-3.466,86.114-6.275,192.278-6.275
			c106.162,0,192.264,2.811,192.264,6.275C442.451,439.741,356.35,442.553,250.187,442.553L250.187,442.553z"/>
		<path fill="#F7F7F7" d="M250.213,442.473c-105.081,0-190.317-2.779-190.317-6.208c0-3.426,85.235-6.205,190.317-6.205
			c105.079,0,190.302,2.779,190.302,6.205C440.516,439.692,355.292,442.473,250.213,442.473L250.213,442.473z"/>
		<path fill="#F6F6F6" d="M250.239,442.392c-103.998,0-188.355-2.749-188.355-6.137c0-3.387,84.357-6.134,188.355-6.134
			c103.997,0,188.341,2.747,188.341,6.134C438.58,439.643,354.235,442.392,250.239,442.392L250.239,442.392z"/>
		<path fill="#F5F5F5" d="M250.265,442.311c-102.916,0-186.394-2.717-186.394-6.066c0-3.348,83.479-6.063,186.394-6.063
			c102.913,0,186.379,2.717,186.379,6.063C436.644,439.594,353.178,442.311,250.265,442.311L250.265,442.311z"/>
		<path fill="#F4F4F4" d="M250.291,442.23c-101.833,0-184.433-2.686-184.433-5.996c0-3.31,82.6-5.992,184.433-5.992
			c101.83,0,184.418,2.684,184.418,5.992C434.709,439.545,352.12,442.23,250.291,442.23L250.291,442.23z"/>
		<path fill="#F3F3F3" d="M250.316,442.15c-100.75,0-182.472-2.654-182.472-5.926c0-3.27,81.722-5.922,182.472-5.922
			c100.747,0,182.458,2.652,182.458,5.922C432.773,439.496,351.063,442.15,250.316,442.15L250.316,442.15z"/>
		<path fill="#F2F2F2" d="M250.342,442.069c-99.667,0-180.51-2.622-180.51-5.854c0-3.23,80.843-5.851,180.51-5.851
			c99.664,0,180.496,2.62,180.496,5.851C430.838,439.447,350.006,442.069,250.342,442.069L250.342,442.069z"/>
		<path fill="#F1F1F1" d="M250.368,441.988c-98.584,0-178.549-2.59-178.549-5.783c0-3.192,79.965-5.78,178.549-5.78
			c98.581,0,178.534,2.589,178.534,5.78C428.902,439.398,348.949,441.988,250.368,441.988L250.368,441.988z"/>
		<path fill="#F0F0F0" d="M250.394,441.908c-97.501,0-176.588-2.559-176.588-5.712s79.087-5.71,176.588-5.71
			c97.498,0,176.573,2.557,176.573,5.71C426.967,439.349,347.891,441.908,250.394,441.908L250.394,441.908z"/>
		<path fill="#EFEFEF" d="M250.419,441.827c-96.418,0-174.626-2.527-174.626-5.642c0-3.113,78.208-5.639,174.626-5.639
			c96.414,0,174.612,2.525,174.612,5.639C425.031,439.3,346.834,441.827,250.419,441.827L250.419,441.827z"/>
		<path fill="#EEEEEE" d="M250.445,441.746c-95.335,0-172.665-2.495-172.665-5.571c0-3.075,77.33-5.567,172.665-5.567
			c95.332,0,172.65,2.493,172.65,5.567C423.096,439.251,345.777,441.746,250.445,441.746L250.445,441.746z"/>
		<path fill="#EDEDED" d="M250.471,441.666c-94.252,0-170.704-2.463-170.704-5.5c0-3.036,76.451-5.498,170.704-5.498
			c94.248,0,170.689,2.462,170.689,5.498S344.719,441.666,250.471,441.666L250.471,441.666z"/>
		<path fill="#ECECEC" d="M250.497,441.585c-93.17,0-168.742-2.431-168.742-5.429c0-2.997,75.573-5.428,168.742-5.428
			c93.165,0,168.728,2.431,168.728,5.428C419.224,439.153,343.662,441.585,250.497,441.585L250.497,441.585z"/>
		<path fill="#EBEBEB" d="M250.521,441.504c-92.086,0-166.78-2.4-166.78-5.357c0-2.959,74.694-5.356,166.78-5.356
			c92.082,0,166.767,2.399,166.767,5.356C417.289,439.104,342.605,441.504,250.521,441.504L250.521,441.504z"/>
		<path fill="#EAEAEA" d="M250.548,441.423c-91.004,0-164.82-2.368-164.82-5.287s73.816-5.285,164.82-5.285
			c90.999,0,164.805,2.367,164.805,5.285C415.353,439.055,341.547,441.423,250.548,441.423L250.548,441.423z"/>
		<path fill="#E9E9E9" d="M250.574,441.343c-89.921,0-162.859-2.336-162.859-5.216s72.938-5.215,162.859-5.215
			c89.916,0,162.844,2.335,162.844,5.215C413.418,439.006,340.49,441.343,250.574,441.343L250.574,441.343z"/>
		<path fill="#E8E8E8" d="M250.6,441.262c-88.837,0-160.896-2.305-160.896-5.146s72.059-5.145,160.896-5.145
			c88.833,0,160.883,2.304,160.883,5.145S339.433,441.262,250.6,441.262L250.6,441.262z"/>
		<path fill="#E7E7E7" d="M250.626,441.181c-87.755,0-158.936-2.272-158.936-5.074c0-2.803,71.181-5.073,158.936-5.073
			c87.75,0,158.921,2.271,158.921,5.073S338.375,441.181,250.626,441.181L250.626,441.181z"/>
		<path fill="#E6E6E6" d="M250.65,441.101c-86.671,0-156.975-2.24-156.975-5.004c0-2.763,70.302-5.003,156.975-5.003
			c86.668,0,156.961,2.24,156.961,5.003S337.318,441.101,250.65,441.101L250.65,441.101z"/>
		<path fill="#E5E5E5" d="M250.677,441.02c-85.589,0-155.013-2.209-155.013-4.933s69.424-4.932,155.013-4.932
			c85.584,0,154.998,2.208,154.998,4.932C405.676,438.81,336.261,441.02,250.677,441.02L250.677,441.02z"/>
		<path fill="#E4E4E4" d="M250.703,440.939c-84.507,0-153.052-2.179-153.052-4.862c0-2.686,68.546-4.861,153.052-4.861
			c84.501,0,153.037,2.177,153.037,4.861C403.74,438.761,335.203,440.939,250.703,440.939L250.703,440.939z"/>
		<path fill="#E3E3E3" d="M250.729,440.858c-83.423,0-151.09-2.146-151.09-4.791c0-2.646,67.667-4.79,151.09-4.79
			c83.418,0,151.076,2.145,151.076,4.79C401.804,438.712,334.146,440.858,250.729,440.858L250.729,440.858z"/>
		<path fill="#E2E2E2" d="M250.754,440.778c-82.341,0-149.129-2.114-149.129-4.721s66.789-4.72,149.129-4.72
			c82.334,0,149.114,2.113,149.114,4.72C399.869,438.663,333.089,440.778,250.754,440.778L250.754,440.778z"/>
		<path fill="#E1E1E1" d="M250.779,440.697c-81.257,0-147.167-2.083-147.167-4.65c0-2.566,65.91-4.648,147.167-4.648
			c81.252,0,147.153,2.082,147.153,4.648C397.933,438.615,332.031,440.697,250.779,440.697L250.779,440.697z"/>
		<path fill="#E0E0E0" d="M250.807,440.616c-80.176,0-145.208-2.051-145.208-4.579c0-2.529,65.032-4.578,145.208-4.578
			c80.167,0,145.191,2.05,145.191,4.578C395.998,438.566,330.974,440.616,250.807,440.616L250.807,440.616z"/>
		<path fill="#DFDFDF" d="M250.832,440.536c-79.092,0-143.246-2.02-143.246-4.508c0-2.49,64.153-4.509,143.246-4.509
			c79.085,0,143.23,2.019,143.23,4.509C394.063,438.517,329.917,440.536,250.832,440.536L250.832,440.536z"/>
		<path fill="#DEDEDE" d="M250.857,440.455c-78.009,0-141.284-1.987-141.284-4.438c0-2.449,63.275-4.437,141.284-4.437
			c78.002,0,141.269,1.986,141.269,4.437C392.127,438.468,328.859,440.455,250.857,440.455L250.857,440.455z"/>
		<path fill="#DDDDDD" d="M250.883,440.374c-76.926,0-139.323-1.956-139.323-4.366c0-2.411,62.397-4.366,139.323-4.366
			c76.919,0,139.309,1.955,139.309,4.366S327.802,440.374,250.883,440.374L250.883,440.374z"/>
		<path fill="#DCDCDC" d="M250.909,440.294c-75.843,0-137.362-1.924-137.362-4.295c0-2.372,61.518-4.296,137.362-4.296
			c75.836,0,137.347,1.923,137.347,4.296C388.256,438.37,326.745,440.294,250.909,440.294L250.909,440.294z"/>
		<path fill="#DBDBDB" d="M250.936,440.213c-74.762,0-135.4-1.892-135.4-4.224c0-2.333,60.64-4.226,135.4-4.226
			c74.752,0,135.385,1.892,135.385,4.226C386.32,438.321,325.688,440.213,250.936,440.213L250.936,440.213z"/>
		<path fill="#DADADA" d="M250.961,440.132c-73.678,0-133.439-1.86-133.439-4.154s59.761-4.153,133.439-4.153
			c73.67,0,133.424,1.859,133.424,4.153C384.384,438.272,324.63,440.132,250.961,440.132L250.961,440.132z"/>
		<path fill="#D9D9D9" d="M250.986,440.051c-72.595,0-131.479-1.829-131.479-4.083c0-2.255,58.883-4.083,131.479-4.083
			c72.587,0,131.463,1.828,131.463,4.083S323.573,440.051,250.986,440.051L250.986,440.051z"/>
		<path fill="#D9D9D9" d="M251.012,439.971c-71.512,0-129.516-1.797-129.516-4.012c0-2.216,58.005-4.013,129.516-4.013
			c71.504,0,129.501,1.796,129.501,4.013C380.513,438.174,322.516,439.971,251.012,439.971L251.012,439.971z"/>
		<path fill="#D8D8D8" d="M251.038,439.89c-70.429,0-127.555-1.765-127.555-3.94c0-2.177,57.126-3.942,127.555-3.942
			c70.42,0,127.54,1.766,127.54,3.942C378.578,438.125,321.458,439.89,251.038,439.89L251.038,439.89z"/>
		<path fill="#D7D7D7" d="M251.064,439.809c-69.347,0-125.594-1.733-125.594-3.869c0-2.139,56.248-3.871,125.594-3.871
			c69.337,0,125.578,1.732,125.578,3.871C376.642,438.076,320.401,439.809,251.064,439.809L251.064,439.809z"/>
		<path fill="#D6D6D6" d="M251.089,439.729c-68.263,0-123.633-1.701-123.633-3.799c0-2.099,55.369-3.801,123.633-3.801
			c68.254,0,123.617,1.701,123.617,3.801C374.707,438.027,319.344,439.729,251.089,439.729L251.089,439.729z"/>
		<path fill="#D5D5D5" d="M251.115,439.648c-67.18,0-121.671-1.671-121.671-3.729c0-2.06,54.491-3.729,121.671-3.729
			c67.171,0,121.656,1.669,121.656,3.729C372.771,437.978,318.286,439.648,251.115,439.648L251.115,439.648z"/>
		<path fill="#D4D4D4" d="M251.141,439.567c-66.098,0-119.709-1.639-119.709-3.658c0-2.021,53.612-3.659,119.709-3.659
			c66.088,0,119.695,1.638,119.695,3.659C370.836,437.929,317.229,439.567,251.141,439.567L251.141,439.567z"/>
		<path fill="#D3D3D3" d="M251.167,439.486c-65.015,0-117.749-1.607-117.749-3.587c0-1.982,52.734-3.589,117.749-3.589
			c65.005,0,117.733,1.606,117.733,3.589C368.9,437.88,316.172,439.486,251.167,439.486L251.167,439.486z"/>
		<path fill="#D2D2D2" d="M251.191,439.406c-63.932,0-115.787-1.575-115.787-3.517c0-1.942,51.856-3.518,115.787-3.518
			c63.923,0,115.772,1.574,115.772,3.518C366.964,437.831,315.114,439.406,251.191,439.406L251.191,439.406z"/>
		<path fill="#D1D1D1" d="M251.218,439.325c-62.849,0-113.826-1.543-113.826-3.445c0-1.904,50.977-3.447,113.826-3.447
			c62.839,0,113.812,1.543,113.812,3.447C365.029,437.782,314.057,439.325,251.218,439.325L251.218,439.325z"/>
		<path fill="#D0D0D0" d="M251.244,439.244c-61.766,0-111.865-1.512-111.865-3.374c0-1.865,50.099-3.376,111.865-3.376
			c61.756,0,111.849,1.511,111.849,3.376C363.093,437.733,313,439.244,251.244,439.244L251.244,439.244z"/>
		<path fill="#CFCFCF" d="M251.27,439.164c-60.683,0-109.902-1.48-109.902-3.303c0-1.826,49.22-3.307,109.902-3.307
			c60.674,0,109.889,1.479,109.889,3.307C361.158,437.684,311.942,439.164,251.27,439.164L251.27,439.164z"/>
		<path fill="#CECECE" d="M251.296,439.083c-59.6,0-107.942-1.448-107.942-3.233c0-1.786,48.342-3.234,107.942-3.234
			c59.59,0,107.927,1.448,107.927,3.234C359.222,437.635,310.885,439.083,251.296,439.083L251.296,439.083z"/>
		<path fill="#CDCDCD" d="M251.32,439.002c-58.516,0-105.98-1.416-105.98-3.162c0-1.748,47.464-3.164,105.98-3.164
			c58.507,0,105.966,1.416,105.966,3.164C357.287,437.586,309.828,439.002,251.32,439.002L251.32,439.002z"/>
		<path fill="#CCCCCC" d="M251.348,438.922c-57.435,0-104.021-1.385-104.021-3.091c0-1.709,46.585-3.094,104.021-3.094
			c57.422,0,104.003,1.384,104.003,3.094C355.351,437.537,308.77,438.922,251.348,438.922L251.348,438.922z"/>
		<path fill="#CBCBCB" d="M251.373,438.841c-56.352,0-102.058-1.353-102.058-3.02c0-1.67,45.707-3.023,102.058-3.023
			c56.34,0,102.043,1.353,102.043,3.023C353.415,437.488,307.713,438.841,251.373,438.841L251.373,438.841z"/>
		<path fill="#CACACA" d="M251.398,438.76c-55.269,0-100.097-1.32-100.097-2.949c0-1.631,44.828-2.951,100.097-2.951
			c55.258,0,100.082,1.32,100.082,2.951C351.48,437.439,306.656,438.76,251.398,438.76L251.398,438.76z"/>
		<path fill="#C9C9C9" d="M251.424,438.679c-54.186,0-98.136-1.29-98.136-2.878c0-1.592,43.95-2.881,98.136-2.881
			c54.174,0,98.12,1.289,98.12,2.881C349.544,437.39,305.598,438.679,251.424,438.679L251.424,438.679z"/>
		<path fill="#C8C8C8" d="M251.45,438.599c-53.103,0-96.174-1.258-96.174-2.807c0-1.553,43.071-2.811,96.174-2.811
			c53.091,0,96.159,1.257,96.159,2.811C347.609,437.341,304.541,438.599,251.45,438.599L251.45,438.599z"/>
		<path fill="#C7C7C7" d="M251.477,438.518c-52.021,0-94.213-1.226-94.213-2.736c0-1.515,42.193-2.74,94.213-2.74
			c52.008,0,94.196,1.226,94.196,2.74C345.673,437.292,303.484,438.518,251.477,438.518L251.477,438.518z"/>
		<path fill="#C6C6C6" d="M251.502,438.438c-50.937,0-92.252-1.194-92.252-2.666c0-1.476,41.315-2.67,92.252-2.67
			c50.925,0,92.236,1.194,92.236,2.67C343.738,437.243,302.427,438.438,251.502,438.438L251.502,438.438z"/>
		<path fill="#C5C5C5" d="M251.527,438.357c-49.854,0-90.291-1.163-90.291-2.596c0-1.436,40.436-2.599,90.291-2.599
			c49.842,0,90.274,1.162,90.274,2.599C341.802,437.194,301.369,438.357,251.527,438.357L251.527,438.357z"/>
		<path fill="#C4C4C4" d="M251.553,438.276c-48.771,0-88.329-1.132-88.329-2.524c0-1.396,39.558-2.528,88.329-2.528
			c48.76,0,88.313,1.132,88.313,2.528C339.867,437.145,300.313,438.276,251.553,438.276L251.553,438.276z"/>
		<path fill="#C3C3C3" d="M251.579,438.195c-47.689,0-86.368-1.1-86.368-2.453c0-1.358,38.679-2.457,86.368-2.457
			c47.676,0,86.352,1.099,86.352,2.457C337.931,437.096,299.255,438.195,251.579,438.195L251.579,438.195z"/>
		<path fill="#C2C2C2" d="M251.605,438.115c-46.606,0-84.407-1.068-84.407-2.382c0-1.319,37.801-2.387,84.407-2.387
			c46.593,0,84.391,1.067,84.391,2.387C335.995,437.047,298.197,438.115,251.605,438.115L251.605,438.115z"/>
		<path fill="#C1C1C1" d="M251.63,438.034c-45.523,0-82.445-1.036-82.445-2.312c0-1.279,36.922-2.315,82.445-2.315
			c45.509,0,82.429,1.035,82.429,2.315C334.06,436.998,297.141,438.034,251.63,438.034L251.63,438.034z"/>
		<path fill="#C0C0C0" d="M251.656,437.953c-44.44,0-80.484-1.004-80.484-2.241c0-1.241,36.044-2.245,80.484-2.245
			c44.426,0,80.468,1.004,80.468,2.245C332.124,436.949,296.083,437.953,251.656,437.953L251.656,437.953z"/>
		<path fill="#BFBFBF" d="M251.682,437.872c-43.356,0-78.522-0.972-78.522-2.17c0-1.202,35.166-2.174,78.522-2.174
			c43.344,0,78.508,0.972,78.508,2.174C330.189,436.9,295.025,437.872,251.682,437.872L251.682,437.872z"/>
		<path fill="#BEBEBE" d="M251.708,437.792c-42.274,0-76.561-0.941-76.561-2.099c0-1.163,34.287-2.104,76.561-2.104
			c42.26,0,76.545,0.94,76.545,2.104C328.253,436.851,293.968,437.792,251.708,437.792L251.708,437.792z"/>
		<path fill="#BDBDBD" d="M251.734,437.711c-41.191,0-74.601-0.909-74.601-2.028c0-1.124,33.409-2.032,74.601-2.032
			c41.177,0,74.584,0.908,74.584,2.032C326.318,436.802,292.911,437.711,251.734,437.711L251.734,437.711z"/>
		<path fill="#BCBCBC" d="M251.759,437.63c-40.108,0-72.639-0.877-72.639-1.957c0-1.085,32.53-1.962,72.639-1.962
			c40.095,0,72.623,0.877,72.623,1.962C324.382,436.753,291.854,437.63,251.759,437.63L251.759,437.63z"/>
		<path fill="#BBBBBB" d="M251.785,437.55c-39.025,0-70.677-0.845-70.677-1.886c0-1.046,31.652-1.891,70.677-1.891
			c39.011,0,70.661,0.845,70.661,1.891C322.447,436.704,290.796,437.55,251.785,437.55L251.785,437.55z"/>
		<path fill="#BABABA" d="M251.811,437.469c-37.942,0-68.715-0.813-68.715-1.814c0-1.007,30.774-1.821,68.715-1.821
			c37.929,0,68.7,0.813,68.7,1.821C320.511,436.655,289.739,437.469,251.811,437.469L251.811,437.469z"/>
		<path fill="#B9B9B9" d="M251.837,437.388c-36.86,0-66.755-0.781-66.755-1.745c0-0.968,29.895-1.75,66.755-1.75
			c36.845,0,66.739,0.782,66.739,1.75C318.575,436.606,288.682,437.388,251.837,437.388L251.837,437.388z"/>
		<path fill="#B8B8B8" d="M251.861,437.307c-35.776,0-64.793-0.75-64.793-1.674c0-0.929,29.017-1.679,64.793-1.679
			c35.763,0,64.778,0.75,64.778,1.679C316.64,436.557,287.624,437.307,251.861,437.307L251.861,437.307z"/>
		<path fill="#B7B7B7" d="M251.889,437.227c-34.695,0-62.833-0.719-62.833-1.603c0-0.89,28.138-1.609,62.833-1.609
			c34.678,0,62.815,0.719,62.815,1.609C314.704,436.508,286.566,437.227,251.889,437.227L251.889,437.227z"/>
		<path fill="#B6B6B6" d="M251.914,437.146c-33.611,0-60.871-0.688-60.871-1.532c0-0.852,27.26-1.538,60.871-1.538
			c33.596,0,60.854,0.687,60.854,1.538C312.769,436.459,285.509,437.146,251.914,437.146L251.914,437.146z"/>
		<path fill="#B5B5B5" d="M251.939,437.065c-32.527,0-58.91-0.655-58.91-1.462c0-0.812,26.381-1.467,58.91-1.467
			c32.513,0,58.895,0.655,58.895,1.467C310.833,436.41,284.452,437.065,251.939,437.065L251.939,437.065z"/>
		<path fill="#B4B4B4" d="M251.965,436.985c-31.445,0-56.948-0.623-56.948-1.391c0-0.772,25.503-1.396,56.948-1.396
			c31.43,0,56.933,0.623,56.933,1.396C308.898,436.361,283.395,436.985,251.965,436.985L251.965,436.985z"/>
		<path fill="#B3B3B3" d="M251.991,436.904c-30.362,0-54.987-0.593-54.987-1.319c0-0.734,24.625-1.326,54.987-1.326
			c30.346,0,54.971,0.592,54.971,1.326C306.962,436.313,282.337,436.904,251.991,436.904L251.991,436.904z"/>
	</g>
</g>
</svg>
