<?xml version="1.0" encoding="utf-8"?>
<!-- Generator: Adobe Illustrator 16.0.0, SVG Export Plug-In . SVG Version: 6.00 Build 0)  -->
<!DOCTYPE svg PUBLIC "-//W3C//DTD SVG 1.1//EN" "http://www.w3.org/Graphics/SVG/1.1/DTD/svg11.dtd">
<svg version="1.1" id="Capa_1" xmlns="http://www.w3.org/2000/svg" xmlns:xlink="http://www.w3.org/1999/xlink" x="0px" y="0px"
	 width="500px" height="500px" viewBox="0 0 500 500" enable-background="new 0 0 500 500" xml:space="preserve">
<g>
	<g opacity="0.9">
		<path fill="#FFFFFF" d="M250.007,443.118C136.263,443.118,44,440.084,44,436.343c0-3.737,92.263-6.77,206.007-6.77
			c113.744,0,205.993,3.033,205.993,6.77C456,440.084,363.751,443.118,250.007,443.118L250.007,443.118z"/>
		<path fill="#FEFEFE" d="M250.033,443.038c-112.661,0-204.046-3.002-204.046-6.704c0-3.699,91.384-6.7,204.046-6.7
			c112.661,0,204.032,3.001,204.032,6.7C454.064,440.035,362.694,443.038,250.033,443.038L250.033,443.038z"/>
		<path fill="#FDFDFD" d="M250.059,442.957c-111.579,0-202.085-2.971-202.085-6.633c0-3.66,90.506-6.629,202.085-6.629
			c111.578,0,202.07,2.969,202.07,6.629C452.129,439.986,361.636,442.957,250.059,442.957L250.059,442.957z"/>
		<path fill="#FCFCFC" d="M250.084,442.876c-110.496,0-200.123-2.938-200.123-6.563c0-3.621,89.628-6.559,200.123-6.559
			s200.109,2.938,200.109,6.559C450.193,439.938,360.579,442.876,250.084,442.876L250.084,442.876z"/>
		<path fill="#FBFBFB" d="M250.11,442.795c-109.413,0-198.162-2.907-198.162-6.492c0-3.582,88.749-6.486,198.162-6.486
			c109.413,0,198.148,2.905,198.148,6.486C448.258,439.888,359.522,442.795,250.11,442.795L250.11,442.795z"/>
		<path fill="#FAFAFA" d="M250.136,442.715c-108.33,0-196.201-2.876-196.201-6.421c0-3.543,87.871-6.417,196.201-6.417
			c108.328,0,196.186,2.874,196.186,6.417C446.322,439.839,358.464,442.715,250.136,442.715L250.136,442.715z"/>
		<path fill="#F9F9F9" d="M250.162,442.634c-107.247,0-194.239-2.844-194.239-6.35c0-3.504,86.992-6.347,194.239-6.347
			c107.245,0,194.225,2.843,194.225,6.347C444.387,439.79,357.407,442.634,250.162,442.634L250.162,442.634z"/>
		<path fill="#F8F8F8" d="M250.187,442.553c-106.164,0-192.278-2.812-192.278-6.278c0-3.466,86.114-6.275,192.278-6.275
			c106.162,0,192.264,2.811,192.264,6.275C442.451,439.741,356.35,442.553,250.187,442.553L250.187,442.553z"/>
		<path fill="#F7F7F7" d="M250.213,442.473c-105.081,0-190.317-2.779-190.317-6.208c0-3.426,85.235-6.205,190.317-6.205
			c105.079,0,190.302,2.779,190.302,6.205C440.516,439.692,355.292,442.473,250.213,442.473L250.213,442.473z"/>
		<path fill="#F6F6F6" d="M250.239,442.392c-103.998,0-188.355-2.749-188.355-6.137c0-3.387,84.357-6.134,188.355-6.134
			c103.997,0,188.341,2.747,188.341,6.134C438.58,439.643,354.235,442.392,250.239,442.392L250.239,442.392z"/>
		<path fill="#F5F5F5" d="M250.265,442.311c-102.916,0-186.394-2.717-186.394-6.066c0-3.348,83.479-6.063,186.394-6.063
			c102.913,0,186.379,2.717,186.379,6.063C436.644,439.594,353.178,442.311,250.265,442.311L250.265,442.311z"/>
		<path fill="#F4F4F4" d="M250.291,442.23c-101.833,0-184.433-2.686-184.433-5.996c0-3.31,82.6-5.992,184.433-5.992
			c101.83,0,184.418,2.684,184.418,5.992C434.709,439.545,352.12,442.23,250.291,442.23L250.291,442.23z"/>
		<path fill="#F3F3F3" d="M250.316,442.15c-100.75,0-182.472-2.654-182.472-5.926c0-3.27,81.722-5.922,182.472-5.922
			c100.747,0,182.458,2.652,182.458,5.922C432.773,439.496,351.063,442.15,250.316,442.15L250.316,442.15z"/>
		<path fill="#F2F2F2" d="M250.342,442.069c-99.667,0-180.51-2.622-180.51-5.854c0-3.23,80.843-5.851,180.51-5.851
			c99.664,0,180.496,2.62,180.496,5.851C430.838,439.447,350.006,442.069,250.342,442.069L250.342,442.069z"/>
		<path fill="#F1F1F1" d="M250.368,441.988c-98.584,0-178.549-2.59-178.549-5.783c0-3.192,79.965-5.78,178.549-5.78
			c98.581,0,178.534,2.589,178.534,5.78C428.902,439.398,348.949,441.988,250.368,441.988L250.368,441.988z"/>
		<path fill="#F0F0F0" d="M250.394,441.908c-97.501,0-176.588-2.559-176.588-5.712s79.087-5.71,176.588-5.71
			c97.498,0,176.573,2.557,176.573,5.71C426.967,439.349,347.891,441.908,250.394,441.908L250.394,441.908z"/>
		<path fill="#EFEFEF" d="M250.419,441.827c-96.418,0-174.626-2.527-174.626-5.642c0-3.113,78.208-5.639,174.626-5.639
			c96.414,0,174.612,2.525,174.612,5.639C425.031,439.3,346.834,441.827,250.419,441.827L250.419,441.827z"/>
		<path fill="#EEEEEE" d="M250.445,441.746c-95.335,0-172.665-2.495-172.665-5.571c0-3.075,77.33-5.567,172.665-5.567
			c95.332,0,172.65,2.493,172.65,5.567C423.096,439.251,345.777,441.746,250.445,441.746L250.445,441.746z"/>
		<path fill="#EDEDED" d="M250.471,441.666c-94.252,0-170.704-2.463-170.704-5.5c0-3.036,76.451-5.498,170.704-5.498
			c94.248,0,170.689,2.462,170.689,5.498S344.719,441.666,250.471,441.666L250.471,441.666z"/>
		<path fill="#ECECEC" d="M250.497,441.585c-93.17,0-168.742-2.431-168.742-5.429c0-2.997,75.573-5.428,168.742-5.428
			c93.165,0,168.728,2.431,168.728,5.428C419.224,439.153,343.662,441.585,250.497,441.585L250.497,441.585z"/>
		<path fill="#EBEBEB" d="M250.521,441.504c-92.086,0-166.78-2.4-166.78-5.357c0-2.959,74.694-5.356,166.78-5.356
			c92.082,0,166.767,2.399,166.767,5.356C417.289,439.104,342.605,441.504,250.521,441.504L250.521,441.504z"/>
		<path fill="#EAEAEA" d="M250.548,441.423c-91.004,0-164.82-2.368-164.82-5.287s73.816-5.285,164.82-5.285
			c90.999,0,164.805,2.367,164.805,5.285C415.353,439.055,341.547,441.423,250.548,441.423L250.548,441.423z"/>
		<path fill="#E9E9E9" d="M250.574,441.343c-89.921,0-162.859-2.336-162.859-5.216s72.938-5.215,162.859-5.215
			c89.916,0,162.844,2.335,162.844,5.215C413.418,439.006,340.49,441.343,250.574,441.343L250.574,441.343z"/>
		<path fill="#E8E8E8" d="M250.6,441.262c-88.837,0-160.896-2.305-160.896-5.146s72.059-5.145,160.896-5.145
			c88.833,0,160.883,2.304,160.883,5.145S339.433,441.262,250.6,441.262L250.6,441.262z"/>
		<path fill="#E7E7E7" d="M250.626,441.181c-87.755,0-158.936-2.272-158.936-5.074c0-2.803,71.181-5.073,158.936-5.073
			c87.75,0,158.921,2.271,158.921,5.073S338.375,441.181,250.626,441.181L250.626,441.181z"/>
		<path fill="#E6E6E6" d="M250.65,441.101c-86.671,0-156.975-2.24-156.975-5.004c0-2.763,70.302-5.003,156.975-5.003
			c86.668,0,156.961,2.24,156.961,5.003S337.318,441.101,250.65,441.101L250.65,441.101z"/>
		<path fill="#E5E5E5" d="M250.677,441.02c-85.589,0-155.013-2.209-155.013-4.933s69.424-4.932,155.013-4.932
			c85.584,0,154.998,2.208,154.998,4.932C405.676,438.81,336.261,441.02,250.677,441.02L250.677,441.02z"/>
		<path fill="#E4E4E4" d="M250.703,440.939c-84.507,0-153.052-2.179-153.052-4.862c0-2.686,68.546-4.861,153.052-4.861
			c84.501,0,153.037,2.177,153.037,4.861C403.74,438.761,335.203,440.939,250.703,440.939L250.703,440.939z"/>
		<path fill="#E3E3E3" d="M250.729,440.858c-83.423,0-151.09-2.146-151.09-4.791c0-2.646,67.667-4.79,151.09-4.79
			c83.418,0,151.076,2.145,151.076,4.79C401.804,438.712,334.146,440.858,250.729,440.858L250.729,440.858z"/>
		<path fill="#E2E2E2" d="M250.754,440.778c-82.341,0-149.129-2.114-149.129-4.721s66.789-4.72,149.129-4.72
			c82.334,0,149.114,2.113,149.114,4.72C399.869,438.663,333.089,440.778,250.754,440.778L250.754,440.778z"/>
		<path fill="#E1E1E1" d="M250.779,440.697c-81.257,0-147.167-2.083-147.167-4.65c0-2.566,65.91-4.648,147.167-4.648
			c81.252,0,147.153,2.082,147.153,4.648C397.933,438.615,332.031,440.697,250.779,440.697L250.779,440.697z"/>
		<path fill="#E0E0E0" d="M250.807,440.616c-80.176,0-145.208-2.051-145.208-4.579c0-2.529,65.032-4.578,145.208-4.578
			c80.167,0,145.191,2.05,145.191,4.578C395.998,438.566,330.974,440.616,250.807,440.616L250.807,440.616z"/>
		<path fill="#DFDFDF" d="M250.832,440.536c-79.092,0-143.246-2.02-143.246-4.508c0-2.49,64.153-4.509,143.246-4.509
			c79.085,0,143.23,2.019,143.23,4.509C394.063,438.517,329.917,440.536,250.832,440.536L250.832,440.536z"/>
		<path fill="#DEDEDE" d="M250.857,440.455c-78.009,0-141.284-1.987-141.284-4.438c0-2.449,63.275-4.437,141.284-4.437
			c78.002,0,141.269,1.986,141.269,4.437C392.127,438.468,328.859,440.455,250.857,440.455L250.857,440.455z"/>
		<path fill="#DDDDDD" d="M250.883,440.374c-76.926,0-139.323-1.956-139.323-4.366c0-2.411,62.397-4.366,139.323-4.366
			c76.919,0,139.309,1.955,139.309,4.366S327.802,440.374,250.883,440.374L250.883,440.374z"/>
		<path fill="#DCDCDC" d="M250.909,440.294c-75.843,0-137.362-1.924-137.362-4.295c0-2.372,61.518-4.296,137.362-4.296
			c75.836,0,137.347,1.923,137.347,4.296C388.256,438.37,326.745,440.294,250.909,440.294L250.909,440.294z"/>
		<path fill="#DBDBDB" d="M250.936,440.213c-74.762,0-135.4-1.892-135.4-4.224c0-2.333,60.64-4.226,135.4-4.226
			c74.752,0,135.385,1.892,135.385,4.226C386.32,438.321,325.688,440.213,250.936,440.213L250.936,440.213z"/>
		<path fill="#DADADA" d="M250.961,440.132c-73.678,0-133.439-1.86-133.439-4.154s59.761-4.153,133.439-4.153
			c73.67,0,133.424,1.859,133.424,4.153C384.384,438.272,324.63,440.132,250.961,440.132L250.961,440.132z"/>
		<path fill="#D9D9D9" d="M250.986,440.051c-72.595,0-131.479-1.829-131.479-4.083c0-2.255,58.883-4.083,131.479-4.083
			c72.587,0,131.463,1.828,131.463,4.083S323.573,440.051,250.986,440.051L250.986,440.051z"/>
		<path fill="#D9D9D9" d="M251.012,439.971c-71.512,0-129.516-1.797-129.516-4.012c0-2.216,58.005-4.013,129.516-4.013
			c71.504,0,129.501,1.796,129.501,4.013C380.513,438.174,322.516,439.971,251.012,439.971L251.012,439.971z"/>
		<path fill="#D8D8D8" d="M251.038,439.89c-70.429,0-127.555-1.765-127.555-3.94c0-2.177,57.126-3.942,127.555-3.942
			c70.42,0,127.54,1.766,127.54,3.942C378.578,438.125,321.458,439.89,251.038,439.89L251.038,439.89z"/>
		<path fill="#D7D7D7" d="M251.064,439.809c-69.347,0-125.594-1.733-125.594-3.869c0-2.139,56.248-3.871,125.594-3.871
			c69.337,0,125.578,1.732,125.578,3.871C376.642,438.076,320.401,439.809,251.064,439.809L251.064,439.809z"/>
		<path fill="#D6D6D6" d="M251.089,439.729c-68.263,0-123.633-1.701-123.633-3.799c0-2.099,55.369-3.801,123.633-3.801
			c68.254,0,123.617,1.701,123.617,3.801C374.707,438.027,319.344,439.729,251.089,439.729L251.089,439.729z"/>
		<path fill="#D5D5D5" d="M251.115,439.648c-67.18,0-121.671-1.671-121.671-3.729c0-2.06,54.491-3.729,121.671-3.729
			c67.171,0,121.656,1.669,121.656,3.729C372.771,437.978,318.286,439.648,251.115,439.648L251.115,439.648z"/>
		<path fill="#D4D4D4" d="M251.141,439.567c-66.098,0-119.709-1.639-119.709-3.658c0-2.021,53.612-3.659,119.709-3.659
			c66.088,0,119.695,1.638,119.695,3.659C370.836,437.929,317.229,439.567,251.141,439.567L251.141,439.567z"/>
		<path fill="#D3D3D3" d="M251.167,439.486c-65.015,0-117.749-1.607-117.749-3.587c0-1.982,52.734-3.589,117.749-3.589
			c65.005,0,117.733,1.606,117.733,3.589C368.9,437.88,316.172,439.486,251.167,439.486L251.167,439.486z"/>
		<path fill="#D2D2D2" d="M251.191,439.406c-63.932,0-115.787-1.575-115.787-3.517c0-1.942,51.856-3.518,115.787-3.518
			c63.923,0,115.772,1.574,115.772,3.518C366.964,437.831,315.114,439.406,251.191,439.406L251.191,439.406z"/>
		<path fill="#D1D1D1" d="M251.218,439.325c-62.849,0-113.826-1.543-113.826-3.445c0-1.904,50.977-3.447,113.826-3.447
			c62.839,0,113.812,1.543,113.812,3.447C365.029,437.782,314.057,439.325,251.218,439.325L251.218,439.325z"/>
		<path fill="#D0D0D0" d="M251.244,439.244c-61.766,0-111.865-1.512-111.865-3.374c0-1.865,50.099-3.376,111.865-3.376
			c61.756,0,111.849,1.511,111.849,3.376C363.093,437.733,313,439.244,251.244,439.244L251.244,439.244z"/>
		<path fill="#CFCFCF" d="M251.27,439.164c-60.683,0-109.902-1.48-109.902-3.303c0-1.826,49.22-3.307,109.902-3.307
			c60.674,0,109.889,1.479,109.889,3.307C361.158,437.684,311.942,439.164,251.27,439.164L251.27,439.164z"/>
		<path fill="#CECECE" d="M251.296,439.083c-59.6,0-107.942-1.448-107.942-3.233c0-1.786,48.342-3.234,107.942-3.234
			c59.59,0,107.927,1.448,107.927,3.234C359.222,437.635,310.885,439.083,251.296,439.083L251.296,439.083z"/>
		<path fill="#CDCDCD" d="M251.32,439.002c-58.516,0-105.98-1.416-105.98-3.162c0-1.748,47.464-3.164,105.98-3.164
			c58.507,0,105.966,1.416,105.966,3.164C357.287,437.586,309.828,439.002,251.32,439.002L251.32,439.002z"/>
		<path fill="#CCCCCC" d="M251.348,438.922c-57.435,0-104.021-1.385-104.021-3.091c0-1.709,46.585-3.094,104.021-3.094
			c57.422,0,104.003,1.384,104.003,3.094C355.351,437.537,308.77,438.922,251.348,438.922L251.348,438.922z"/>
		<path fill="#CBCBCB" d="M251.373,438.841c-56.352,0-102.058-1.353-102.058-3.02c0-1.67,45.707-3.023,102.058-3.023
			c56.34,0,102.043,1.353,102.043,3.023C353.415,437.488,307.713,438.841,251.373,438.841L251.373,438.841z"/>
		<path fill="#CACACA" d="M251.398,438.76c-55.269,0-100.097-1.32-100.097-2.949c0-1.631,44.828-2.951,100.097-2.951
			c55.258,0,100.082,1.32,100.082,2.951C351.48,437.439,306.656,438.76,251.398,438.76L251.398,438.76z"/>
		<path fill="#C9C9C9" d="M251.424,438.679c-54.186,0-98.136-1.29-98.136-2.878c0-1.592,43.95-2.881,98.136-2.881
			c54.174,0,98.12,1.289,98.12,2.881C349.544,437.39,305.598,438.679,251.424,438.679L251.424,438.679z"/>
		<path fill="#C8C8C8" d="M251.45,438.599c-53.103,0-96.174-1.258-96.174-2.807c0-1.553,43.071-2.811,96.174-2.811
			c53.091,0,96.159,1.257,96.159,2.811C347.609,437.341,304.541,438.599,251.45,438.599L251.45,438.599z"/>
		<path fill="#C7C7C7" d="M251.477,438.518c-52.021,0-94.213-1.226-94.213-2.736c0-1.515,42.193-2.74,94.213-2.74
			c52.008,0,94.196,1.226,94.196,2.74C345.673,437.292,303.484,438.518,251.477,438.518L251.477,438.518z"/>
		<path fill="#C6C6C6" d="M251.502,438.438c-50.937,0-92.252-1.194-92.252-2.666c0-1.476,41.315-2.67,92.252-2.67
			c50.925,0,92.236,1.194,92.236,2.67C343.738,437.243,302.427,438.438,251.502,438.438L251.502,438.438z"/>
		<path fill="#C5C5C5" d="M251.527,438.357c-49.854,0-90.291-1.163-90.291-2.596c0-1.436,40.436-2.599,90.291-2.599
			c49.842,0,90.274,1.162,90.274,2.599C341.802,437.194,301.369,438.357,251.527,438.357L251.527,438.357z"/>
		<path fill="#C4C4C4" d="M251.553,438.276c-48.771,0-88.329-1.132-88.329-2.524c0-1.396,39.558-2.528,88.329-2.528
			c48.76,0,88.313,1.132,88.313,2.528C339.867,437.145,300.313,438.276,251.553,438.276L251.553,438.276z"/>
		<path fill="#C3C3C3" d="M251.579,438.195c-47.689,0-86.368-1.1-86.368-2.453c0-1.358,38.679-2.457,86.368-2.457
			c47.676,0,86.352,1.099,86.352,2.457C337.931,437.096,299.255,438.195,251.579,438.195L251.579,438.195z"/>
		<path fill="#C2C2C2" d="M251.605,438.115c-46.606,0-84.407-1.068-84.407-2.382c0-1.319,37.801-2.387,84.407-2.387
			c46.593,0,84.391,1.067,84.391,2.387C335.995,437.047,298.197,438.115,251.605,438.115L251.605,438.115z"/>
		<path fill="#C1C1C1" d="M251.63,438.034c-45.523,0-82.445-1.036-82.445-2.312c0-1.279,36.922-2.315,82.445-2.315
			c45.509,0,82.429,1.035,82.429,2.315C334.06,436.998,297.141,438.034,251.63,438.034L251.63,438.034z"/>
		<path fill="#C0C0C0" d="M251.656,437.953c-44.44,0-80.484-1.004-80.484-2.241c0-1.241,36.044-2.245,80.484-2.245
			c44.426,0,80.468,1.004,80.468,2.245C332.124,436.949,296.083,437.953,251.656,437.953L251.656,437.953z"/>
		<path fill="#BFBFBF" d="M251.682,437.872c-43.356,0-78.522-0.972-78.522-2.17c0-1.202,35.166-2.174,78.522-2.174
			c43.344,0,78.508,0.972,78.508,2.174C330.189,436.9,295.025,437.872,251.682,437.872L251.682,437.872z"/>
		<path fill="#BEBEBE" d="M251.708,437.792c-42.274,0-76.561-0.941-76.561-2.099c0-1.163,34.287-2.104,76.561-2.104
			c42.26,0,76.545,0.94,76.545,2.104C328.253,436.851,293.968,437.792,251.708,437.792L251.708,437.792z"/>
		<path fill="#BDBDBD" d="M251.734,437.711c-41.191,0-74.601-0.909-74.601-2.028c0-1.124,33.409-2.032,74.601-2.032
			c41.177,0,74.584,0.908,74.584,2.032C326.318,436.802,292.911,437.711,251.734,437.711L251.734,437.711z"/>
		<path fill="#BCBCBC" d="M251.759,437.63c-40.108,0-72.639-0.877-72.639-1.957c0-1.085,32.53-1.962,72.639-1.962
			c40.095,0,72.623,0.877,72.623,1.962C324.382,436.753,291.854,437.63,251.759,437.63L251.759,437.63z"/>
		<path fill="#BBBBBB" d="M251.785,437.55c-39.025,0-70.677-0.845-70.677-1.886c0-1.046,31.652-1.891,70.677-1.891
			c39.011,0,70.661,0.845,70.661,1.891C322.447,436.704,290.796,437.55,251.785,437.55L251.785,437.55z"/>
		<path fill="#BABABA" d="M251.811,437.469c-37.942,0-68.715-0.813-68.715-1.814c0-1.007,30.774-1.821,68.715-1.821
			c37.929,0,68.7,0.813,68.7,1.821C320.511,436.655,289.739,437.469,251.811,437.469L251.811,437.469z"/>
		<path fill="#B9B9B9" d="M251.837,437.388c-36.86,0-66.755-0.781-66.755-1.745c0-0.968,29.895-1.75,66.755-1.75
			c36.845,0,66.739,0.782,66.739,1.75C318.575,436.606,288.682,437.388,251.837,437.388L251.837,437.388z"/>
		<path fill="#B8B8B8" d="M251.861,437.307c-35.776,0-64.793-0.75-64.793-1.674c0-0.929,29.017-1.679,64.793-1.679
			c35.763,0,64.778,0.75,64.778,1.679C316.64,436.557,287.624,437.307,251.861,437.307L251.861,437.307z"/>
		<path fill="#B7B7B7" d="M251.889,437.227c-34.695,0-62.833-0.719-62.833-1.603c0-0.89,28.138-1.609,62.833-1.609
			c34.678,0,62.815,0.719,62.815,1.609C314.704,436.508,286.566,437.227,251.889,437.227L251.889,437.227z"/>
		<path fill="#B6B6B6" d="M251.914,437.146c-33.611,0-60.871-0.688-60.871-1.532c0-0.852,27.26-1.538,60.871-1.538
			c33.596,0,60.854,0.687,60.854,1.538C312.769,436.459,285.509,437.146,251.914,437.146L251.914,437.146z"/>
		<path fill="#B5B5B5" d="M251.939,437.065c-32.527,0-58.91-0.655-58.91-1.462c0-0.812,26.381-1.467,58.91-1.467
			c32.513,0,58.895,0.655,58.895,1.467C310.833,436.41,284.452,437.065,251.939,437.065L251.939,437.065z"/>
		<path fill="#B4B4B4" d="M251.965,436.985c-31.445,0-56.948-0.623-56.948-1.391c0-0.772,25.503-1.396,56.948-1.396
			c31.43,0,56.933,0.623,56.933,1.396C308.898,436.361,283.395,436.985,251.965,436.985L251.965,436.985z"/>
		<path fill="#B3B3B3" d="M251.991,436.904c-30.362,0-54.987-0.593-54.987-1.319c0-0.734,24.625-1.326,54.987-1.326
			c30.346,0,54.971,0.592,54.971,1.326C306.962,436.313,282.337,436.904,251.991,436.904L251.991,436.904z"/>
	</g>
</g>
<g id="yoRUZp_1_">
	<g>
		<path fill="#6DC10C" d="M55,258.441c0-42.134,0-49.241,0-91.376c3.559-8.135,10.22-10.355,18.516-10.322
			c33.201,0.135,66.402,0.063,99.604,0.039c2.654-0.002,5.308-0.226,8.305-0.362c0-7.971,0.381-15.069-0.08-22.112
			c-0.943-14.397,4.646-24.469,18.335-29.685c33.505,0,67.009,0,100.515,0c13.688,5.216,19.269,15.287,18.337,29.685
			c-0.469,7.243-0.082,14.541-0.082,22.489c3.595,0,6.33,0,9.065,0c32.948,0,65.896,0.081,98.844-0.055
			c8.296-0.034,14.957,2.186,18.516,10.322c0,42.135,0,49.242,0,91.377c-3.728,8.037-10.427,9.986-18.708,9.979
			c-117.486-0.105-234.973-0.105-352.459,0C65.427,268.429,58.728,266.48,55,258.441z M311.3,156.425
			c0-8.994,0.104-17.089-0.022-25.181c-0.212-13.527-5.986-19.389-19.57-19.475c-22.822-0.144-45.646-0.074-68.469-0.027
			c-6.84,0.014-13.704-0.068-20.512,0.468c-7.084,0.559-12.537,4.925-13.201,11.64c-1.057,10.677-0.282,21.535-0.282,32.575
			C229.886,156.425,270.094,156.425,311.3,156.425z"/>
		<path fill="#6DC10C" d="M444.875,270.626c0,41.12,0,121.836,0,162.955c-129.958,0-259.917,0-389.875,0
			c0-41.12,0-121.836,0-162.955c4.197,7.534,10.72,9.451,19.078,9.438c117.239-0.188,234.479-0.188,351.718,0
			C434.155,280.077,440.678,278.161,444.875,270.626z"/>
		<path fill="#FFFFFF" d="M265.979,225.389c0.235,8.553-6.897,16.114-15.492,16.423c-8.583,0.308-16.092-6.641-16.556-15.32
			c-0.478-8.952,6.788-16.646,15.818-16.75C258.488,209.641,265.739,216.632,265.979,225.389z"/>
	</g>
</g>
<g>
	<path fill="none" d="M345.724,396.279c-0.17-2.029-0.351-4.055-0.548-6.088c-0.677,3.231-1.339,6.601-1.81,9.896
		c0.26,11.55,0.604,21.912,1.02,32.912h2.198c-0.099-5-0.239-10.203-0.375-14.835C346.018,411.645,345.823,404.892,345.724,396.279z
		"/>
	<path fill="none" d="M345.533,336.576c-0.289-0.398-0.544-0.813-0.813-1.221c-3.399,5.016-8.168,9.1-13.809,11.607
		c5.3,1.158,10.003,2.999,14.165,5.488c3.934-2.583,8.277-4.46,13.016-5.609C353.132,344.578,348.762,341.025,345.533,336.576z"/>
	<path fill="none" d="M292.486,336.576c-0.057-0.079-0.105-0.164-0.162-0.243c-3.342,4.563-7.834,8.29-13.1,10.63
		c5.002,1.094,9.474,2.793,13.461,5.071c3.76-2.367,7.883-4.107,12.359-5.192C300.086,344.578,295.716,341.025,292.486,336.576z"/>
	<path fill="none" d="M292.616,387.861c-0.101,0.478-0.2,0.953-0.3,1.425c-0.262,1.251-0.524,2.585-0.78,3.856
		C291.809,407.614,292.202,420,292.7,433h0.838c-0.099-5-0.239-10.203-0.375-14.835
		C292.913,409.666,292.657,400.834,292.616,387.861z"/>
	<path fill="#6F6F70" d="M281.514,429.247c-0.58,0.084-1.174,0.126-1.768,0.126c-5.018,0-10.602-3.141-11.071-8.962
		c-0.751-9.331-0.649-18.271,0.298-26.57c1.338-11.696,5.432-22.151,12.17-31.075c2.777-3.679,5.918-6.775,9.399-9.291
		c-4.589-2.461-9.83-4.143-15.776-5.021l-5.121-0.758l4.969-1.452c6.77-1.979,12.494-6.318,16.373-11.931
		c-3.164-5.226-4.769-11.219-4.654-17.489c0.107-5.954,1.795-11.468,4.656-16.157c-0.879-1.242-1.86-2.432-2.942-3.559
		c-5.608-5.836-13.36-9.225-21.272-9.297h-0.282c-16.291,0-29.284,12.762-29.579,29.055c-0.246,13.576,8.143,25.326,20.876,29.24
		l4.733,1.455l-4.896,0.75c-10.814,1.654-19.684,6.978-26.362,15.822c-6.49,8.596-10.435,18.678-11.726,29.967
		c-0.932,8.153-1.03,16.944-0.29,26.13c0.36,4.468,4.808,6.878,8.811,6.878c0.486,0,0.972-0.035,1.444-0.104
		c4.5-0.65,6.43-3.257,6.453-8.718c0.007-1.728-0.042-3.497-0.089-5.209c-0.099-3.587-0.201-7.297,0.196-10.932
		c0.492-4.492,1.436-8.983,2.348-13.325c0.391-1.863,0.796-3.791,1.158-5.684l0.221-1.16l1.15,0.27
		c0.497,0.115,0.867,0.432,1.164,0.686c0.083,0.069,0.107,0.172,0.173,0.215l0.722,0.19v0.899c0,14.978,0.375,24.606,0.647,33.857
		c0.136,4.642,0.378,9.906,0.471,14.906h46.313c-0.189-5-0.363-9.697-0.521-14.602C289.871,425.023,287.204,428.425,281.514,429.247
		z"/>
	<path fill="#FFFFFF" d="M290.516,398.731c0.28,12.937,0.654,24.269,1.047,34.269h1.138c-0.497-13-0.892-25.351-1.163-39.824
		C291.163,395.029,290.813,396.862,290.516,398.731z"/>
	<path fill="#FFFFFF" d="M279.225,346.963c5.266-2.341,9.758-6.066,13.1-10.63c-0.23-0.323-0.44-0.657-0.657-0.987
		c-4.065,5.691-9.951,10.004-16.735,11.987c6.293,0.929,11.842,2.728,16.67,5.403c0.357-0.241,0.722-0.473,1.086-0.701
		C288.698,349.755,284.227,348.055,279.225,346.963z"/>
	<path fill="#FFFFFF" d="M242.057,384.305c-0.458-0.107-0.916-0.813-1.374-0.92c-1.205,6.303-2.796,12.545-3.493,18.902
		c-0.578,5.281-0.078,10.668-0.101,16.013c-0.026,6.065-2.34,9.095-7.424,9.83c-5.302,0.767-11.109-2.368-11.547-7.807
		c-0.703-8.73-0.7-17.656,0.294-26.351c1.265-11.064,5.115-21.473,11.947-30.521c7.209-9.549,16.499-14.639,27.095-16.262
		c-12.808-3.937-21.936-16.025-21.676-30.345c0.307-16.95,14.05-30.321,31.005-30.166c10.148,0.093,19.248,5.253,24.861,12.966
		c0.22-0.332,0.447-0.658,0.68-0.98c-0.811-1.082-1.688-2.129-2.645-3.125c-6.029-6.273-14.371-9.915-22.888-9.993l-0.303-0.001
		c-17.539,0-31.528,13.74-31.846,31.281c-0.13,7.197,1.998,14.027,6.154,19.752c3.23,4.449,7.6,8.002,12.559,10.265
		c-9.653,2.341-17.682,7.685-23.902,15.925c-6.738,8.924-10.832,19.379-12.169,31.075c-0.949,8.3-1.049,17.239-0.298,26.57
		c0.469,5.822,6.054,8.962,11.071,8.962c0.594,0,1.189-0.043,1.768-0.126c5.7-0.824,8.367-4.304,8.396-10.952
		c0.008-1.763-0.042-3.551-0.089-5.281c-0.097-3.511-0.197-7.142,0.184-10.621c0.48-4.382,1.412-8.817,2.313-13.106
		c0.099-0.472,0.199-0.947,0.299-1.425c0.041,12.973,0.298,21.805,0.546,30.304c0.136,4.633,0.276,9.835,0.375,14.835h1.133
		C242.691,417,242.057,406.918,242.057,384.305z"/>
	<path fill="#FFFFFF" d="M243.647,418.094c-0.271-9.25-0.647-18.879-0.647-33.857v-0.899l-0.722-0.19
		c-0.066-0.043-0.162-0.146-0.245-0.215c-0.297-0.254-0.631-0.57-1.128-0.686l-1.132-0.27l-0.212,1.16
		c-0.362,1.895-0.762,3.82-1.154,5.684c-0.912,4.343-1.853,8.834-2.346,13.326c-0.398,3.634-0.294,7.343-0.195,10.931
		c0.047,1.712,0.096,3.481,0.089,5.209c-0.023,5.46-1.953,8.066-6.453,8.718c-0.473,0.069-0.958,0.104-1.444,0.104
		c-4.003,0-8.451-2.41-8.811-6.877c-0.739-9.186-0.641-17.978,0.291-26.131c1.291-11.289,5.236-21.371,11.726-29.967
		c6.678-8.845,15.547-14.168,26.362-15.822l4.896-0.75l-4.733-1.455c-12.732-3.914-21.122-15.664-20.876-29.24
		c0.295-16.292,13.288-29.055,29.579-29.055h0.282c7.91,0.073,15.664,3.461,21.272,9.297c1.082,1.127,2.062,2.316,2.942,3.559
		c0.212-0.346,0.433-0.686,0.656-1.023c-5.612-7.713-14.713-12.873-24.86-12.966c-16.955-0.155-30.698,13.216-31.005,30.166
		c-0.26,14.319,8.868,26.408,21.676,30.345c-10.597,1.621-19.886,6.713-27.095,16.261c-6.833,9.049-10.682,19.457-11.947,30.521
		c-0.994,8.695-0.997,17.62-0.294,26.351c0.438,5.438,6.245,8.571,11.547,7.805c5.085-0.735,7.399-3.769,7.424-9.835
		c0.023-5.345-0.477-10.741,0.101-16.022c0.697-6.357,2.288-12.616,3.493-18.919c0.458,0.107,0.916,0.848,1.374,0.955
		c0,22.614,0.634,32.695,0.927,48.695h1.134C244.024,428,243.783,422.735,243.647,418.094z"/>
	<path fill="#FFFFFF" d="M290.004,402.393c-0.381,3.48-0.236,7.11-0.139,10.621c0.047,1.73,0.135,3.519,0.135,5.281
		c0,0.011,0,0.022,0,0.033c0,4.905,0.241,9.671,0.43,14.671h1.133c-0.394-10-0.767-21.332-1.047-34.269
		C290.318,399.976,290.141,401.152,290.004,402.393z"/>
	<path fill="#FFFFFF" d="M274.932,347.332c6.784-1.984,12.67-6.295,16.734-11.986c-0.227-0.345-0.467-0.681-0.68-1.031
		c-3.879,5.612-9.604,9.951-16.373,11.93l-4.969,1.453l5.121,0.757c5.946,0.878,11.188,2.56,15.776,5.022
		c0.351-0.254,0.703-0.5,1.06-0.74C286.771,350.059,281.223,348.261,274.932,347.332z"/>
	<path fill="#6F6F70" d="M298.62,318.314c-0.177,5.77-1.97,11.277-4.949,16.033c3.669,5.49,9.131,9.707,15.804,11.758l4.733,1.455
		l-4.896,0.75c-5.287,0.809-10.107,2.502-14.437,5.047c9.679,6.369,16.126,16.621,19.523,30.955
		c2.271,9.586,2.686,19.721,3.088,29.521c0.04,0.988,0.081,1.975,0.123,2.959c0.3,7.032-4.408,12.202-11.449,12.573
		c-6.209,0.328-10.171-3.524-10.563-10.154c-0.225-3.777-0.445-7.419-0.68-10.987c0.111,3.438,0.229,6.709,0.321,9.869
		c0.136,4.642,0.434,9.906,0.556,14.906h46.322c-0.11-3-0.215-5.676-0.315-8.494c-1.286,2.731-3.667,4.259-7.241,4.776
		c-0.579,0.084-1.174,0.108-1.768,0.108c-5.017,0-10.602-3.149-11.071-8.971c-0.751-9.331-0.649-18.275,0.298-26.574
		c1.338-11.695,5.432-22.154,12.17-31.076c2.628-3.481,5.582-6.44,8.842-8.879c-4.772-2.701-10.291-4.508-16.578-5.436l-5.121-0.757
		l4.968-1.453c7.215-2.11,13.241-6.896,17.113-13.052c-2.738-4.957-4.139-10.537-4.033-16.368
		c0.101-5.505,1.547-10.634,4.027-15.083c-1.056-1.635-2.282-3.186-3.673-4.633c-5.608-5.836-13.361-9.225-21.273-9.297h-0.283
		c-10.237,0-19.171,5.043-24.471,12.832C297.093,305.936,298.813,312.032,298.62,318.314z"/>
	<path fill="#6F6F70" d="M282.951,364.133c-6.49,8.596-10.436,18.678-11.727,29.967c-0.932,8.153-1.029,16.944-0.291,26.131
		c0.359,4.467,4.809,6.877,8.812,6.877c0.485,0,0.971-0.035,1.444-0.104c4.5-0.649,6.43-3.257,6.453-8.718
		c0.006-1.728-0.043-3.497-0.09-5.209c-0.099-3.587-0.201-7.297,0.196-10.931c0.34-3.108,0.901-6.213,1.515-9.271
		c-0.037-1.937-0.07-3.903-0.102-5.917c-0.02-1.279-0.094-2.684-0.089-4.045c0.003-0.609-0.075-1.205-0.075-1.775v-1.029l1.104-0.1
		c0.176-0.017,0.424-0.066,0.644-0.119c0.271-0.063,0.598-0.137,0.927-0.168l0.914-0.089l0.288,0.863
		c0.263,0.803,0.581,1.617,0.896,2.413c0.008,0.006,0.015,0.013,0.021,0.02c0.083,0.07-0.236,0.172-0.171,0.217l0.378,0.189v0.9
		c0,0.193,0.25,0.373,0.25,0.564c0.553,1.487,1.159,3.018,1.316,4.623c0.951,9.682,1.607,19.158,2.229,29.654
		c0.32,5.407,3.287,8.284,8.213,8.023c5.813-0.306,9.567-4.409,9.319-10.212c-0.042-0.985-0.074-1.974-0.115-2.963
		c-0.396-9.692-0.803-19.717-3.023-29.091c-3.347-14.119-9.789-24.07-19.485-30.102C289.064,357.217,285.807,360.35,282.951,364.133
		z"/>
	<path fill="#6F6F70" d="M292.35,332.168c2.412-4.191,3.853-8.953,4.006-13.923c0.166-5.451-1.227-10.753-3.985-15.44
		c-2.321,4.144-3.677,8.926-3.771,14.062C288.499,322.411,289.859,327.641,292.35,332.168z"/>
	<path fill="#6F6F70" d="M306.16,429.366c7.041-0.371,11.749-5.541,11.449-12.573c-0.043-0.984-0.083-1.971-0.123-2.959
		c-0.402-9.801-0.817-19.936-3.088-29.521c-3.397-14.334-9.846-24.586-19.523-30.955c-0.376,0.222-0.746,0.453-1.115,0.688
		c9.66,6.185,16.154,16.263,19.534,30.528c2.472,10.431,2.719,21.471,3.181,32.267c0.288,6.736-4.349,11.075-10.375,11.393
		c-5.607,0.296-9.021-3.151-9.373-9.09c-0.586-9.891-1.193-19.752-2.162-29.609c-0.01-0.114-0.034-0.226-0.049-0.341
		c0.053,7.496,0.223,13.566,0.401,19.029c0.233,3.569,0.455,7.21,0.679,10.987C295.989,425.842,299.952,429.694,306.16,429.366z"/>
	<path fill="#6F6F70" d="M290.293,381.139c0,1.842-0.025,3.965,0.004,5.807c0.005,0.287,0.01,0.568,0.014,0.854
		c0.323-1.543,0.648-3.11,0.945-4.661l0.221-1.16l0.793,0.185c-0.164-0.435-0.322-0.872-0.467-1.312
		C291.3,380.898,290.797,381.089,290.293,381.139z"/>
	<path fill="#6F6F70" d="M297.486,318.279c-0.168,5.474-1.805,10.603-4.488,15.041c0.213,0.351,0.445,0.687,0.672,1.027
		c2.98-4.756,4.771-10.264,4.949-16.033c0.193-6.281-1.527-12.379-4.913-17.672c-0.238,0.349-0.47,0.701-0.692,1.062
		C296.002,306.573,297.671,312.273,297.486,318.279z"/>
	<path fill="#6F6F70" d="M296.729,419.145c0.352,5.938,3.765,9.386,9.372,9.09c6.026-0.318,10.664-4.657,10.375-11.393
		c-0.462-10.797-0.709-21.836-3.181-32.267c-3.381-14.267-9.874-24.345-19.534-30.528c-0.354,0.225-0.708,0.451-1.056,0.689
		c9.697,6.029,16.141,15.981,19.487,30.101c2.221,9.374,2.632,19.397,3.027,29.091c0.041,0.99,0.081,1.979,0.123,2.963
		c0.248,5.803-3.491,9.906-9.303,10.213c-4.927,0.259-7.862-2.618-8.183-8.024c-0.621-10.496-1.215-19.972-2.166-29.654
		c-0.158-1.604-0.64-3.136-1.193-4.622c0.001,1.518,0.007,2.981,0.018,4.393c0.014,0.113,0.039,0.226,0.049,0.34
		C295.534,399.393,296.141,409.254,296.729,419.145z"/>
	<path fill="#6F6F70" d="M293.768,382.911c-0.314-0.796-0.635-1.61-0.897-2.413l-0.294-0.863l-0.926,0.088
		c-0.33,0.032-0.68,0.104-0.951,0.17c-0.221,0.051-0.42,0.102-0.596,0.119L289,380.109v1.029c0,0.57,0.078,1.166,0.075,1.775
		c-0.005,1.361,0.116,2.766,0.137,4.045c0.031,2.014,0.041,3.98,0.077,5.917c0.273-1.362,0.54-2.718,0.822-4.058
		c0.07-0.336,0.136-0.68,0.207-1.021c-0.006-0.286-0.014-0.565-0.018-0.854c-0.029-1.842-0.005-3.965-0.005-5.808
		c0.504-0.049,1.006-0.237,1.511-0.286c0.144,0.439,0.301,0.877,0.465,1.312l0.357,0.084
		C293.111,382.359,293.475,382.661,293.768,382.911z"/>
	<path fill="#6F6F70" d="M296.354,318.244c-0.151,4.97-1.592,9.732-4.006,13.923c0.213,0.388,0.422,0.776,0.65,1.153
		c2.684-4.438,4.32-9.568,4.488-15.043c0.185-6.004-1.485-11.705-4.473-16.574c-0.223,0.361-0.437,0.729-0.645,1.099
		C295.128,307.491,296.521,312.794,296.354,318.244z"/>
	<path fill="#FFFFFF" d="M330.911,346.963c5.641-2.507,10.409-6.592,13.809-11.607c-0.222-0.338-0.459-0.666-0.668-1.01
		c-4.073,6.19-10.255,10.887-17.434,12.986c6.619,0.979,12.41,2.923,17.411,5.836c0.346-0.243,0.693-0.484,1.047-0.717
		C340.914,349.961,336.21,348.12,330.911,346.963z"/>
	<path fill="#FFFFFF" d="M345.364,389.286c-0.063,0.3-0.125,0.604-0.188,0.905c0.197,2.031,0.379,4.059,0.548,6.088
		c-0.029-2.614-0.052-5.398-0.061-8.418C345.563,388.339,345.463,388.814,345.364,389.286z"/>
	<path fill="#FFFFFF" d="M318.471,286.678c10.588,0.098,20.03,5.713,25.567,13.986c0.215-0.354,0.439-0.699,0.669-1.042
		c-0.992-1.429-2.102-2.796-3.339-4.084c-6.028-6.272-14.369-9.915-22.887-9.993l-0.304-0.001c-10.713,0-20.095,5.132-25.852,13.12
		c0.247,0.33,0.488,0.663,0.722,1C298.65,291.705,307.94,286.581,318.471,286.678z"/>
	<path fill="#FFFFFF" d="M292.486,336.576c3.229,4.449,7.6,8.002,12.559,10.265c-4.477,1.086-8.6,2.825-12.359,5.192
		c0.371,0.211,0.734,0.429,1.096,0.65c4.695-2.859,9.849-4.651,15.359-5.494c-6.621-2.035-12.242-6.26-16.107-11.834
		c-0.227,0.332-0.471,0.652-0.709,0.977C292.381,336.412,292.43,336.497,292.486,336.576z"/>
	<path fill="#FFFFFF" d="M343.051,402.393c-0.381,3.48-0.281,7.11-0.184,10.621c0.047,1.73,0.097,3.519,0.089,5.281
		c-0.004,0.86-0.054,1.734-0.146,2.489c0.142,4.221,0.289,8.215,0.44,12.215h1.136c-0.416-11-0.76-21.362-1.02-32.912
		C343.253,400.88,343.137,401.603,343.051,402.393z"/>
	<path fill="#FFFFFF" d="M293.779,393.366c-0.108-1.216-0.223-2.466-0.342-3.687c-0.16-1.613-0.721-3.212-1.357-4.851
		c-0.206,1.034-0.417,2.06-0.635,3.091c0.029,1.753,0.059,3.471,0.091,5.157c0.256-1.271,0.519-2.538,0.78-3.789
		c0.1-0.472,0.199-0.948,0.3-1.427c0.041,12.974,0.298,21.806,0.546,30.304c0.136,4.633,0.275,9.835,0.375,14.835h1.133
		C294.419,419,293.92,409.988,293.779,393.366z"/>
	<path fill="#FFFFFF" d="M290.986,334.314c0.244-0.353,0.479-0.709,0.707-1.069c-2.776-4.786-4.338-10.392-4.229-16.399
		c0.1-5.535,1.641-10.684,4.25-15.109c-0.232-0.361-0.477-0.717-0.727-1.069c-2.861,4.688-4.549,10.203-4.656,16.157
		C286.219,323.096,287.823,329.087,290.986,334.314z"/>
	<path fill="#FFFFFF" d="M288.877,402.269c-0.578,5.281-0.079,10.678-0.102,16.022c-0.025,6.065-2.338,9.1-7.424,9.835
		c-5.302,0.767-11.108-2.366-11.547-7.805c-0.703-8.73-0.699-17.655,0.295-26.351c1.266-11.063,5.114-21.471,11.947-30.521
		c2.885-3.819,6.105-6.914,9.605-9.37c-0.363-0.21-0.738-0.405-1.11-0.604c-3.481,2.515-6.622,5.611-9.399,9.291
		c-6.738,8.922-10.832,19.379-12.17,31.074c-0.949,8.3-1.049,17.239-0.298,26.57c0.47,5.822,6.054,8.962,11.071,8.962
		c0.594,0,1.189-0.043,1.768-0.126c5.69-0.823,8.357-4.293,8.396-10.919c-0.204-6.325-0.382-12.821-0.53-19.732
		C289.188,399.819,289.012,401.042,288.877,402.269z"/>
	<path fill="#FFFFFF" d="M293.033,335.355c-0.229-0.332-0.453-0.666-0.67-1.006c-0.223,0.34-0.461,0.666-0.697,0.996
		c0.218,0.329,0.427,0.663,0.657,0.986C292.563,336.008,292.809,335.688,293.033,335.355z"/>
	<path fill="#FFFFFF" d="M290.516,398.662c0.297-1.869,0.647-3.736,1.021-5.589c-0.032-1.687-0.061-3.408-0.09-5.161
		c-0.352,1.68-0.709,3.359-1.047,5.042C290.438,394.896,290.475,396.798,290.516,398.662z"/>
	<path fill="#FFFFFF" d="M292.686,352.033c-0.363,0.229-0.727,0.46-1.084,0.701c0.364,0.203,0.715,0.425,1.071,0.638
		c0.365-0.24,0.737-0.463,1.109-0.688C293.421,352.462,293.057,352.245,292.686,352.033z"/>
	<path fill="#FFFFFF" d="M292.831,383.611c-0.154-0.119-0.308-0.226-0.461-0.262c-0.093,0.488-0.192,0.976-0.289,1.463
		c0.638,1.639,1.198,3.219,1.356,4.834c0.121,1.219,0.234,2.436,0.344,3.65c-0.02-2.273-0.031-4.679-0.035-7.248
		C293.467,385.234,293.15,384.423,292.831,383.611z"/>
	<path fill="#FFFFFF" d="M292.364,300.682c0.222-0.344,0.448-0.685,0.684-1.02c-0.233-0.337-0.475-0.67-0.722-1
		c-0.233,0.322-0.46,0.648-0.68,0.98C291.893,299.984,292.13,300.332,292.364,300.682z"/>
	<path fill="#FFFFFF" d="M291.602,352.734c-0.356,0.242-0.709,0.488-1.06,0.74c0.372,0.199,0.747,0.396,1.11,0.604
		c0.339-0.238,0.677-0.481,1.021-0.707C292.316,353.16,291.967,352.938,291.602,352.734z"/>
	<path fill="#FFFFFF" d="M289.425,398.597c0.148,6.911,0.575,13.407,0.575,19.732c0-0.011,0-0.022,0-0.033
		c0-1.763-0.087-3.551-0.135-5.281c-0.098-3.511-0.221-7.142,0.16-10.621c0.137-1.24,0.304-2.485,0.5-3.73
		c-0.039-1.864-0.062-3.765-0.098-5.708C290.052,394.831,289.721,396.711,289.425,398.597z"/>
	<path fill="#FFFFFF" d="M292.363,334.35c-0.231-0.363-0.453-0.731-0.67-1.105c-0.229,0.361-0.463,0.718-0.707,1.068
		c0.213,0.352,0.453,0.688,0.68,1.031C291.902,335.016,292.141,334.689,292.363,334.35z"/>
	<path fill="#FFFFFF" d="M291.716,301.736c0.21-0.356,0.425-0.707,0.648-1.053c-0.234-0.351-0.472-0.699-0.718-1.039
		c-0.225,0.336-0.445,0.676-0.656,1.022C291.239,301.02,291.482,301.375,291.716,301.736z"/>
	<path fill="#FFFFFF" d="M292.831,383.611c0.319,0.813,0.636,1.623,0.914,2.438c-0.001-0.598-0.002-1.197-0.002-1.814
		C293.439,384.164,293.135,383.85,292.831,383.611z"/>
	<path fill="#FFFFFF" d="M342.117,433h1.133c-0.151-4-0.299-7.994-0.44-12.215c-0.175,1.422-0.508,2.695-1.008,3.756
		C341.902,427.358,342.007,430,342.117,433z"/>
	<path fill="#FFFFFF" d="M326.618,347.332c7.179-2.1,13.362-6.795,17.434-12.986c-0.229-0.377-0.427-0.769-0.64-1.154
		c-3.871,6.156-9.898,10.942-17.113,13.052l-4.968,1.452l5.121,0.758c6.288,0.929,11.806,2.734,16.578,5.436
		c0.329-0.246,0.662-0.486,0.998-0.722C339.028,350.255,333.237,348.311,326.618,347.332z"/>
	<path fill="#FFFFFF" d="M309.142,347.189c-5.511,0.843-10.665,2.635-15.359,5.494c0.364,0.224,0.737,0.439,1.094,0.674
		c4.329-2.547,9.149-4.239,14.438-5.049l4.895-0.748l-4.733-1.455c-6.673-2.051-12.134-6.269-15.804-11.76
		c-0.211,0.338-0.415,0.68-0.638,1.008C296.898,340.93,302.521,345.154,309.142,347.189z"/>
	<path fill="#FFFFFF" d="M291.421,383.122c-0.005,1.288-0.009,2.61,0.011,3.808c0.004,0.332,0.01,0.653,0.016,0.982
		c0.216-1.033,0.427-2.066,0.634-3.1c-0.101-0.26-0.199-0.517-0.302-0.779C291.66,383.732,291.54,383.428,291.421,383.122z"/>
	<path fill="#FFFFFF" d="M295.238,418.094c-0.094-3.161-0.209-6.397-0.321-9.835c-0.333-5.074-0.694-9.946-1.138-14.876
		c0.14,16.622,0.64,25.617,0.891,39.617h1.124C295.673,428,295.375,422.735,295.238,418.094z"/>
	<path fill="#FFFFFF" d="M318.178,287.811h0.283c7.911,0.073,15.664,3.461,21.273,9.297c1.391,1.447,2.616,3,3.673,4.633
		c0.203-0.364,0.415-0.723,0.632-1.077c-5.536-8.274-14.979-13.888-25.567-13.986c-10.53-0.097-19.821,5.028-25.423,12.984
		c0.225,0.323,0.448,0.649,0.659,0.979C299.007,292.854,307.94,287.811,318.178,287.811z"/>
	<path fill="#FFFFFF" d="M291.693,333.245c0.225-0.354,0.445-0.713,0.656-1.077c-2.49-4.527-3.851-9.756-3.75-15.303
		c0.092-5.135,1.449-9.917,3.771-14.063c-0.211-0.359-0.427-0.716-0.654-1.068c-2.608,4.426-4.149,9.574-4.25,15.109
		C287.357,322.854,288.918,328.459,291.693,333.245z"/>
	<path fill="#FFFFFF" d="M287.75,402.146c-0.398,3.634-0.295,7.343-0.195,10.931c0.047,1.712,0.096,3.481,0.088,5.209
		c-0.022,5.46-1.953,8.066-6.453,8.718c-0.473,0.069-0.959,0.104-1.443,0.104c-4.003,0-8.452-2.41-8.811-6.877
		c-0.74-9.186-0.643-17.978,0.291-26.131c1.291-11.289,5.235-21.371,11.726-29.967c2.856-3.781,6.116-6.915,9.754-9.398
		c-0.351-0.217-0.694-0.446-1.054-0.654c-3.5,2.456-6.721,5.551-9.604,9.37c-6.833,9.049-10.683,19.456-11.946,30.521
		c-0.994,8.695-0.998,17.62-0.295,26.351c0.438,5.438,6.244,8.571,11.547,7.805c5.084-0.735,7.398-3.769,7.424-9.835
		c0.022-5.345-0.478-10.741,0.101-16.022c0.134-1.228,0.31-2.45,0.502-3.672c-0.04-1.875-0.078-3.778-0.114-5.721
		C288.652,395.934,288.091,399.038,287.75,402.146z"/>
	<path fill="#FFFFFF" d="M294.498,383.337l-0.627-0.19c-0.066-0.043,0.004-0.146-0.079-0.215c-0.007-0.007-0.017-0.014-0.024-0.021
		c0.039,0.096,0.076,0.194,0.113,0.29c0.208,0.527,0.416,1.063,0.617,1.6c0-0.191-0.001-0.371-0.001-0.564L294.498,383.337
		L294.498,383.337z"/>
	<path fill="#FFFFFF" d="M294.516,389.195c-0.138-1.067-0.416-2.111-0.771-3.147c0.004,2.57,0.016,4.976,0.034,7.248
		c0.443,4.93,0.805,9.854,1.138,14.928C294.739,402.761,294.57,396.69,294.516,389.195z"/>
	<path fill="#FFFFFF" d="M293.707,300.643c-0.212-0.332-0.436-0.656-0.659-0.98c-0.235,0.334-0.461,0.676-0.684,1.02
		c0.224,0.336,0.438,0.678,0.649,1.022C293.236,301.344,293.471,300.991,293.707,300.643z"/>
	<path fill="#FFFFFF" d="M292.673,353.373c0.367,0.219,0.729,0.443,1.087,0.673c0.369-0.233,0.739-0.466,1.115-0.688
		c-0.355-0.234-0.729-0.45-1.094-0.674C293.411,352.91,293.039,353.133,292.673,353.373z"/>
	<path fill="#FFFFFF" d="M293.033,335.355c0.223-0.33,0.426-0.672,0.638-1.008c-0.228-0.341-0.459-0.678-0.672-1.027
		c-0.209,0.346-0.414,0.693-0.636,1.029C292.58,334.689,292.805,335.023,293.033,335.355z"/>
	<path fill="#FFFFFF" d="M292.831,383.611c-0.19-0.481-0.379-0.965-0.562-1.449l-0.791-0.186l-0.222,1.16
		c-0.297,1.553-0.622,3.119-0.944,4.662c0.027,1.75,0.058,3.469,0.088,5.155c0.338-1.683,0.694-3.362,1.047-5.042
		c-0.006-0.329-0.012-0.651-0.016-0.982c-0.02-1.197-0.016-2.52-0.011-3.808c0.119,0.308,0.239,0.61,0.356,0.912
		c0.104,0.263,0.203,0.52,0.303,0.778c0.097-0.486,0.195-0.974,0.289-1.461C292.523,383.386,292.677,383.492,292.831,383.611z"/>
	<path fill="#FFFFFF" d="M293.761,354.046c-0.358-0.229-0.72-0.455-1.087-0.673c-0.345,0.227-0.682,0.469-1.021,0.707
		c0.359,0.208,0.701,0.438,1.053,0.654C293.053,354.497,293.406,354.271,293.761,354.046z"/>
	<path fill="#FFFFFF" d="M292.999,333.32c-0.229-0.375-0.437-0.766-0.649-1.152c-0.211,0.364-0.432,0.723-0.656,1.077
		c0.218,0.373,0.438,0.741,0.671,1.106C292.585,334.014,292.79,333.666,292.999,333.32z"/>
	<path fill="#FFFFFF" d="M289.266,392.876c0.035,1.942,0.073,3.846,0.113,5.721c0.297-1.886,0.645-3.766,1.021-5.643
		c-0.031-1.688-0.061-3.405-0.088-5.155c-0.071,0.34-0.143,0.686-0.213,1.021C289.816,390.158,289.538,391.514,289.266,392.876z"/>
	<path fill="#FFFFFF" d="M293.882,383.201c-0.038-0.096-0.075-0.194-0.112-0.29c-0.293-0.25-0.656-0.552-1.141-0.665l-0.357-0.084
		c0.182,0.484,0.371,0.968,0.561,1.449c0.304,0.238,0.607,0.553,0.913,0.623c0,0.615,0.001,1.217,0.002,1.814
		c0.353,1.035,0.633,2.08,0.771,3.146c-0.01-1.41-0.016-2.875-0.017-4.393C294.298,384.264,294.09,383.729,293.882,383.201z"/>
	<path fill="#FFFFFF" d="M292.37,302.803c0.208-0.371,0.422-0.738,0.646-1.099c-0.211-0.345-0.427-0.687-0.65-1.022
		c-0.223,0.346-0.439,0.698-0.648,1.053C291.943,302.087,292.159,302.443,292.37,302.803z"/>
	<path fill="#6F6F70" d="M350.307,318.314c-0.163,5.338-1.703,10.457-4.292,14.959c3.654,6.021,9.402,10.648,16.508,12.832
		l4.732,1.455l-4.895,0.75c-5.589,0.854-10.653,2.697-15.169,5.492c9.321,6.396,15.571,16.495,18.894,30.512
		c2.271,9.584,2.687,19.72,3.088,29.521c0.04,0.988,0.081,1.975,0.123,2.959c0.3,7.032-4.408,12.202-11.449,12.573
		c-4.257,0.225-7.45-1.443-9.169-4.688c0.063,2.659,0.121,5.322,0.173,8.322h46.313c-0.565-15-0.997-28.732-1.266-45.972
		c-0.021-1.279,0.039-2.719,0.045-4.079c0.003-0.609,0.058-1.24,0.058-1.812v-1.029l0.971-0.099
		c0.176-0.017,0.356-0.065,0.577-0.118c0.271-0.064,0.565-0.138,0.894-0.17l0.896-0.088l0.28,0.863
		c0.294,0.9,0.655,1.816,1.004,2.703c0.783,1.984,1.591,4.037,1.806,6.223c0.951,9.682,1.543,19.158,2.165,29.654
		c0.32,5.407,3.245,8.284,8.182,8.023c5.813-0.306,9.551-4.409,9.303-10.212c-0.042-0.985-0.082-1.974-0.123-2.963
		c-0.397-9.692-0.807-19.717-3.028-29.091c-5.099-21.516-17.341-33.415-37.427-36.382l-5.121-0.757l4.968-1.453
		c12.408-3.628,21.348-15.143,21.741-28c0.24-7.807-2.711-15.313-8.308-21.137c-5.608-5.836-13.361-9.225-21.273-9.297h-0.282
		c-10.703,0-19.982,5.51-25.173,13.91C349,306.757,350.486,312.454,350.307,318.314z"/>
	<path fill="#6F6F70" d="M343.107,383.122c-0.006,1.288-0.01,2.61,0.01,3.808c0.01,0.633,0.021,1.252,0.031,1.877
		c0.252-1.199,0.505-2.424,0.753-3.649c-0.143-0.372-0.287-0.744-0.437-1.124C343.346,383.732,343.226,383.428,343.107,383.122z"/>
	<path fill="#6F6F70" d="M344.717,330.898c1.994-3.875,3.187-8.178,3.324-12.653c0.153-4.97-0.993-9.817-3.287-14.187
		c-1.915,3.844-3.023,8.183-3.107,12.808C341.555,321.896,342.655,326.674,344.717,330.898z"/>
	<path fill="#6F6F70" d="M335.998,364.133c-6.49,8.596-10.436,18.678-11.727,29.967c-0.932,8.153-1.029,16.944-0.289,26.131
		c0.358,4.467,4.808,6.877,8.811,6.877c0.486,0,0.972-0.035,1.444-0.104c4.5-0.649,6.43-3.257,6.453-8.718
		c0.007-1.728-0.042-3.497-0.09-5.209c-0.099-3.587-0.2-7.297,0.196-10.931c0.082-0.747,0.192-1.493,0.297-2.239
		c-0.092-4.15-0.173-8.446-0.244-12.947c-0.02-1.28,0.063-2.685,0.068-4.045c0.003-0.608,0.082-1.205,0.082-1.776v-1.029
		l0.948-0.098c0.175-0.018,0.345-0.066,0.564-0.119c0.271-0.064,0.56-0.138,0.889-0.17l0.894-0.088l0.278,0.863
		c0.177,0.54,0.38,1.085,0.587,1.628l0.514,0.12c0.497,0.115,0.868,0.432,1.165,0.686c0.083,0.069,0.241,0.172,0.308,0.215
		l0.854,0.19v0.899c0,4.68,0.016,8.83,0.058,12.607c0.59,7.184,1.031,14.426,1.494,22.234c0.32,5.407,3.25,8.284,8.18,8.023
		c5.813-0.306,9.549-4.409,9.302-10.212c-0.042-0.985-0.083-1.974-0.124-2.963c-0.397-9.692-0.807-19.717-3.029-29.091
		c-3.263-13.768-9.467-23.579-18.763-29.65C341.734,357.594,338.686,360.573,335.998,364.133z"/>
	<path fill="#6F6F70" d="M341.98,381.139c0,1.842-0.025,3.965,0.004,5.807c0.037,2.388,0.078,4.716,0.122,6.988
		c0.335-1.72,0.686-3.43,1.04-5.113c0.001-0.006,0.002-0.01,0.003-0.014c-0.011-0.625-0.021-1.244-0.031-1.877
		c-0.02-1.197-0.016-2.52-0.01-3.808c0.118,0.308,0.238,0.61,0.356,0.912c0.149,0.379,0.294,0.752,0.437,1.124
		c0.136-0.674,0.273-1.35,0.401-2.02l0.01-0.047c-0.291-0.742-0.575-1.486-0.822-2.24
		C342.987,380.898,342.483,381.089,341.98,381.139z"/>
	<path fill="#6F6F70" d="M349.174,318.279c-0.152,4.99-1.523,9.697-3.797,13.854c0.209,0.382,0.412,0.769,0.638,1.14
		c2.589-4.502,4.128-9.621,4.292-14.959c0.181-5.859-1.307-11.558-4.255-16.594c-0.232,0.377-0.456,0.758-0.672,1.146
		C347.938,307.471,349.344,312.746,349.174,318.279z"/>
	<path fill="#6F6F70" d="M357.847,429.366c7.041-0.371,11.749-5.541,11.449-12.573c-0.043-0.984-0.083-1.971-0.123-2.959
		c-0.401-9.801-0.816-19.936-3.088-29.521c-3.321-14.016-9.572-24.113-18.894-30.511c-0.354,0.22-0.708,0.439-1.056,0.671
		c9.287,6.219,15.544,16.17,18.847,30.102c2.472,10.431,2.719,21.471,3.181,32.267c0.288,6.736-4.349,11.075-10.375,11.393
		c-5.138,0.271-8.425-2.606-9.212-7.655c0.036,1.32,0.07,2.663,0.103,4.03C350.396,427.854,353.59,429.59,357.847,429.366z"/>
	<path fill="#6F6F70" d="M344.304,379.635l-0.884,0.088c-0.329,0.032-0.597,0.104-0.868,0.17c-0.22,0.051-0.429,0.102-0.604,0.119
		L341,380.109v1.029c0,0.57-0.079,1.166-0.082,1.775c-0.005,1.361-0.127,2.766-0.107,4.045c0.07,4.501,0.172,8.797,0.264,12.947
		c0.279-2.002,0.635-3.995,1.021-5.973c-0.043-2.273-0.079-4.602-0.117-6.99c-0.028-1.84-0.001-3.965-0.001-5.807
		c0.505-0.049,1.009-0.238,1.513-0.287c0.247,0.754,0.532,1.498,0.821,2.24l0.214-1.113l0.638,0.149
		c-0.207-0.543-0.408-1.087-0.585-1.628L344.304,379.635z"/>
	<path fill="#6F6F70" d="M348.041,318.244c-0.137,4.477-1.329,8.779-3.324,12.652c0.205,0.422,0.436,0.828,0.66,1.236
		c2.273-4.156,3.645-8.865,3.797-13.855c0.169-5.532-1.237-10.808-3.795-15.411c-0.218,0.391-0.426,0.788-0.626,1.19
		C347.047,308.428,348.193,313.273,348.041,318.244z"/>
	<path fill="#6F6F70" d="M357.787,428.234c6.025-0.318,10.664-4.657,10.375-11.393c-0.462-10.797-0.709-21.836-3.181-32.267
		c-3.302-13.931-9.559-23.884-18.847-30.103c-0.345,0.229-0.682,0.473-1.02,0.713c9.296,6.071,15.5,15.883,18.763,29.65
		c2.221,9.374,2.632,19.397,3.029,29.091c0.041,0.99,0.081,1.979,0.123,2.963c0.248,5.803-3.49,9.906-9.304,10.212
		c-4.929,0.26-7.86-2.617-8.181-8.023c-0.463-7.808-0.909-15.051-1.499-22.234c0.092,8.313,0.27,14.82,0.456,21.181
		c0.024,0.837,0.047,1.697,0.071,2.554C349.362,425.628,352.649,428.505,357.787,428.234z"/>
	<path fill="#FFFFFF" d="M345.533,336.576c3.229,4.449,7.6,8.002,12.559,10.265c-4.739,1.149-9.083,3.026-13.016,5.609
		c0.361,0.216,0.734,0.42,1.089,0.646c4.872-3.102,10.252-5.023,16.024-5.906c-7.03-2.162-12.938-6.789-16.808-12.881
		c-0.219,0.35-0.43,0.705-0.662,1.047C344.989,335.764,345.244,336.178,345.533,336.576z"/>
	<path fill="#FFFFFF" d="M344.625,387.277c-0.467,2.244-0.945,4.486-1.384,6.734c0.039,2.042,0.081,4.044,0.125,6.007
		c0.47-3.296,1.132-6.596,1.81-9.827c-0.018-0.183-0.033-0.363-0.051-0.545C345.046,388.852,344.858,388.064,344.625,387.277z"/>
	<path fill="#FFFFFF" d="M347.411,420.567c-0.058-0.417-0.103-0.88-0.128-1.321c-0.479-8.065-0.94-15.542-1.56-22.95
		c0.1,8.613,0.294,15.357,0.485,21.877c0.136,4.633,0.276,9.827,0.375,14.827h1.133C347.635,428,347.526,424.519,347.411,420.567z"
		/>
	<path fill="#FFFFFF" d="M371.518,286.678c17.099,0.157,31.222,14.694,30.703,31.602c-0.42,13.729-9.97,25.373-22.556,29.053
		c20.452,3.021,33.123,15.128,38.364,37.242c2.472,10.431,2.719,21.471,3.181,32.267c0.288,6.736-4.349,11.075-10.375,11.393
		c-5.608,0.296-9.021-3.151-9.373-9.089c-0.586-9.892-1.194-19.753-2.162-29.61c-0.293-2.979-1.807-5.769-2.762-8.685
		c-0.504,0.049-1.007,0.238-1.511,0.287c0,1.842-0.025,4.035,0.004,5.877c0.283,18.145,0.758,32.986,1.266,45.986h1.137
		c-0.565-15-1-28.74-1.269-46.002c-0.019-1.197-0.015-2.553-0.01-3.842c0.119,0.307,0.238,0.594,0.356,0.894
		c0.76,1.925,1.477,3.734,1.659,5.604c0.947,9.641,1.538,19.09,2.159,29.562c0.393,6.63,4.347,10.48,10.563,10.152
		c7.041-0.371,11.749-5.542,11.449-12.574c-0.043-0.983-0.083-1.972-0.123-2.96c-0.401-9.801-0.816-19.936-3.088-29.521
		c-4.979-21.014-16.505-33.271-35.174-37.351c11.235-4.993,19.016-16.239,19.396-28.649c0.259-8.42-2.916-16.508-8.938-22.775
		c-6.028-6.273-14.37-9.915-22.887-9.993l-0.304-0.001c-11.137,0-20.835,5.544-26.518,14.079c0.242,0.349,0.48,0.699,0.708,1.056
		C350.926,292.145,360.547,286.577,371.518,286.678z"/>
	<path fill="#FFFFFF" d="M343.412,333.191c0.231-0.367,0.462-0.736,0.678-1.113c-2.368-4.521-3.678-9.707-3.578-15.233
		c0.092-5.058,1.388-9.793,3.601-13.948c-0.228-0.39-0.461-0.774-0.707-1.154c-2.48,4.449-3.928,9.578-4.027,15.083
		C339.273,322.654,340.675,328.234,343.412,333.191z"/>
	<path fill="#FFFFFF" d="M345.688,383.482c0.4,1.019,0.789,2.057,1.104,3.121c-0.002-0.775-0.002-1.563-0.002-2.369
		C346.423,384.148,346.055,383.712,345.688,383.482z"/>
	<path fill="#FFFFFF" d="M334.399,428.126c-5.303,0.767-11.109-2.366-11.548-7.805c-0.702-8.73-0.699-17.655,0.295-26.351
		c1.265-11.063,5.114-21.471,11.946-30.521c2.708-3.586,5.709-6.543,8.963-8.925c-0.344-0.209-0.672-0.438-1.024-0.637
		c-3.259,2.439-6.214,5.397-8.842,8.879c-6.738,8.922-10.832,19.379-12.17,31.074c-0.948,8.3-1.049,17.239-0.298,26.57
		c0.47,5.822,6.055,8.962,11.071,8.962c0.594,0,1.189-0.043,1.768-0.126c3.574-0.517,5.955-2.079,7.241-4.81
		c-0.044-1.258-0.088-2.518-0.13-3.783C341.091,425.154,338.772,427.494,334.399,428.126z"/>
	<path fill="#FFFFFF" d="M344.742,301.77c0.217-0.369,0.44-0.733,0.673-1.093c-0.227-0.356-0.466-0.706-0.708-1.055
		c-0.229,0.343-0.454,0.688-0.669,1.042C344.281,301.027,344.514,301.396,344.742,301.77z"/>
	<path fill="#FFFFFF" d="M342.228,399.865c0.167,7.51,0.366,14.402,0.582,20.851c0.094-0.755,0.144-1.56,0.146-2.42
		c0.008-1.763-0.042-3.551-0.089-5.281c-0.098-3.511-0.197-7.142,0.184-10.621c0.086-0.79,0.202-1.582,0.315-2.374
		c-0.044-1.963-0.086-3.965-0.125-6.008C342.86,395.957,342.507,397.907,342.228,399.865z"/>
	<path fill="#FFFFFF" d="M346.252,389.535c-0.15-1.528-0.622-3.006-1.174-4.475c-0.148,0.738-0.299,1.478-0.453,2.217
		c0.233,0.787,0.421,1.574,0.499,2.369c0.018,0.182,0.034,0.362,0.051,0.545c0.063-0.301,0.125-0.606,0.188-0.905
		c0.099-0.472,0.198-0.947,0.299-1.425c0.009,3.02,0.031,5.804,0.061,8.418c0.619,7.408,1.081,14.868,1.56,22.933
		c0.025,0.442,0.07,0.87,0.128,1.286c-0.213-7.358-0.445-14.589-0.555-24.24C346.669,394.018,346.473,391.775,346.252,389.535z"/>
	<path fill="#FFFFFF" d="M345.382,334.309c-0.223-0.353-0.436-0.709-0.645-1.07c-0.225,0.373-0.446,0.746-0.685,1.109
		c0.208,0.342,0.446,0.672,0.668,1.008C344.952,335.014,345.163,334.658,345.382,334.309z"/>
	<path fill="#FFFFFF" d="M345.076,352.45c-0.354,0.231-0.7,0.474-1.047,0.717c0.356,0.208,0.699,0.431,1.048,0.649
		c0.359-0.246,0.722-0.487,1.087-0.721C345.811,352.87,345.438,352.667,345.076,352.45z"/>
	<path fill="#FFFFFF" d="M344.112,302.895c0.202-0.379,0.412-0.754,0.63-1.125c-0.229-0.373-0.461-0.742-0.704-1.105
		c-0.217,0.355-0.429,0.713-0.632,1.077C343.651,302.121,343.886,302.506,344.112,302.895z"/>
	<path fill="#FFFFFF" d="M345.688,383.482c-0.091-0.056-0.181-0.111-0.271-0.133c-0.109,0.57-0.224,1.141-0.338,1.711
		c0.552,1.469,1.023,2.946,1.174,4.475c0.22,2.24,0.417,4.482,0.604,6.724c-0.034-2.965-0.057-6.161-0.063-9.655
		C346.477,385.539,346.088,384.501,345.688,383.482z"/>
	<path fill="#FFFFFF" d="M345.077,353.816c-0.349-0.217-0.692-0.44-1.048-0.648c-0.335,0.236-0.669,0.475-0.998,0.721
		c0.352,0.199,0.681,0.428,1.024,0.637C344.392,354.279,344.735,354.05,345.077,353.816z"/>
	<path fill="#FFFFFF" d="M344.737,333.238c-0.223-0.383-0.441-0.768-0.646-1.16c-0.216,0.378-0.446,0.746-0.678,1.113
		c0.213,0.386,0.411,0.777,0.64,1.156C344.291,333.984,344.513,333.609,344.737,333.238z"/>
	<path fill="#FFFFFF" d="M341.924,402.269c-0.578,5.281-0.078,10.678-0.101,16.022c-0.004,0.849-0.058,1.632-0.151,2.363
		c0.042,1.266,0.086,2.525,0.13,3.783c0.5-1.062,0.833-2.301,1.008-3.723c-0.215-6.448-0.413-13.341-0.582-20.851
		C342.115,400.665,342.012,401.466,341.924,402.269z"/>
	<path fill="#FFFFFF" d="M343.148,388.807c0.028,1.767,0.06,3.504,0.093,5.204c0.439-2.247,0.917-4.489,1.384-6.733
		c-0.207-0.701-0.451-1.406-0.724-2.12C343.653,386.382,343.4,387.605,343.148,388.807z"/>
	<path fill="#FFFFFF" d="M371.225,287.811h0.282c7.911,0.073,15.665,3.461,21.273,9.297c5.597,5.824,8.547,13.33,8.308,21.137
		c-0.394,12.857-9.334,24.372-21.741,28l-4.968,1.453l5.121,0.757c20.086,2.967,32.328,14.866,37.427,36.382
		c2.222,9.374,2.632,19.397,3.028,29.091c0.041,0.99,0.081,1.979,0.123,2.963c0.248,5.803-3.491,9.906-9.303,10.212
		c-4.937,0.26-7.862-2.617-8.183-8.023c-0.623-10.496-1.216-19.972-2.167-29.654c-0.215-2.186-1.026-4.238-1.81-6.223
		c-0.351-0.887-0.718-1.803-1.012-2.703l-0.296-0.863l-0.928,0.088c-0.329,0.032-0.685,0.104-0.956,0.17
		c-0.221,0.051-0.276,0.102-0.452,0.119L394,380.109v1.029c0,0.57-0.056,1.166-0.058,1.775c-0.006,1.361,0.06,2.834,0.079,4.113
		c0.27,17.239,0.577,30.972,1.143,45.972h1.133c-0.508-13-0.982-27.842-1.266-45.987c-0.029-1.841-0.004-4-0.004-5.841
		c0.504-0.049,1.007-0.255,1.511-0.304c0.955,2.915,2.469,5.695,2.762,8.676c0.969,9.858,1.576,19.715,2.162,29.606
		c0.352,5.938,3.765,9.383,9.373,9.087c6.026-0.318,10.664-4.658,10.375-11.395c-0.462-10.797-0.709-21.836-3.181-32.268
		c-5.24-22.114-17.912-34.223-38.364-37.243c12.586-3.681,22.136-15.325,22.556-29.054c0.519-16.906-13.604-31.443-30.703-31.601
		c-10.971-0.101-20.592,5.468-26.103,13.998c0.22,0.345,0.431,0.693,0.637,1.044C351.241,293.32,360.521,287.811,371.225,287.811z"
		/>
	<path fill="#FFFFFF" d="M362.189,347.189c-5.772,0.883-11.153,2.805-16.024,5.906c0.351,0.225,0.684,0.471,1.027,0.706
		c4.516-2.794,9.58-4.638,15.169-5.493l4.895-0.748l-4.732-1.455c-7.105-2.185-12.853-6.813-16.508-12.832
		c-0.201,0.351-0.419,0.69-0.633,1.033C349.251,340.402,355.159,345.027,362.189,347.189z"/>
	<path fill="#FFFFFF" d="M348.678,424.678c-0.624-1.178-1.052-2.521-1.266-4.076c0.115,3.952,0.224,7.398,0.306,12.398h1.133
		C348.798,430,348.741,427.337,348.678,424.678z"/>
	<path fill="#FFFFFF" d="M344.09,332.077c0.221-0.388,0.423-0.783,0.627-1.181c-2.062-4.224-3.163-9.002-3.072-14.032
		c0.085-4.624,1.193-8.964,3.108-12.808c-0.205-0.392-0.418-0.779-0.641-1.162c-2.213,4.155-3.508,8.891-3.601,13.948
		C340.412,322.37,341.722,327.557,344.09,332.077z"/>
	<path fill="#FFFFFF" d="M348,383.337l-0.855-0.19c-0.065-0.043-0.219-0.146-0.302-0.215c-0.297-0.254-0.67-0.57-1.166-0.686
		l-0.513-0.12c0.138,0.36,0.276,0.722,0.416,1.075c0.037,0.093,0.072,0.188,0.109,0.281c0.367,0.229,0.734,0.666,1.103,0.752
		c0,0.806,0.001,1.593,0.002,2.367c0.273,0.92,0.495,1.856,0.59,2.822c0.244,2.48,0.473,4.946,0.675,7.42
		c-0.042-3.777-0.058-7.928-0.058-12.606L348,383.337L348,383.337z"/>
	<path fill="#FFFFFF" d="M340.797,402.146c-0.397,3.634-0.295,7.343-0.196,10.931c0.048,1.712,0.097,3.481,0.09,5.209
		c-0.023,5.46-1.953,8.066-6.453,8.718c-0.474,0.069-0.959,0.104-1.444,0.104c-4.003,0-8.451-2.41-8.811-6.877
		c-0.739-9.186-0.643-17.978,0.289-26.131c1.291-11.289,5.236-21.371,11.727-29.967c2.688-3.561,5.736-6.539,9.118-8.947
		c-0.348-0.228-0.704-0.443-1.061-0.66c-3.254,2.382-6.255,5.338-8.963,8.925c-6.833,9.049-10.682,19.457-11.946,30.521
		c-0.994,8.695-0.997,17.62-0.295,26.351c0.438,5.438,6.245,8.571,11.548,7.805c4.374-0.632,6.691-2.971,7.272-7.471
		c-0.223-6.662-0.417-13.479-0.578-20.748C340.989,400.653,340.879,401.399,340.797,402.146z"/>
	<path fill="#FFFFFF" d="M348.575,420.579c-0.072-0.462-0.131-0.937-0.161-1.435c-0.453-7.643-0.923-15.267-1.558-22.887
		c0.11,9.65,0.342,16.882,0.555,24.24c0.214,1.555,0.642,2.932,1.266,4.11C348.645,423.242,348.611,421.899,348.575,420.579z"/>
	<path fill="#FFFFFF" d="M346.052,301.721c-0.206-0.351-0.417-0.699-0.637-1.044c-0.232,0.359-0.455,0.724-0.673,1.093
		c0.22,0.361,0.432,0.728,0.637,1.098C345.595,302.479,345.819,302.098,346.052,301.721z"/>
	<path fill="#FFFFFF" d="M345.382,334.309c0.214-0.344,0.431-0.685,0.633-1.035c-0.226-0.371-0.428-0.758-0.638-1.14
		c-0.204,0.374-0.421,0.739-0.641,1.104C344.946,333.6,345.159,333.957,345.382,334.309z"/>
	<path fill="#FFFFFF" d="M345.077,353.816c0.352,0.221,0.715,0.427,1.059,0.656c0.348-0.23,0.701-0.451,1.056-0.67
		c-0.343-0.234-0.677-0.48-1.027-0.705C345.799,353.329,345.438,353.57,345.077,353.816z"/>
	<path fill="#FFFFFF" d="M344.303,383.137c-0.128,0.67-0.266,1.346-0.401,2.021c0.272,0.714,0.517,1.419,0.724,2.12
		c0.154-0.739,0.305-1.478,0.453-2.217c-0.247-0.658-0.508-1.313-0.766-1.971L344.303,383.137z"/>
	<path fill="#FFFFFF" d="M343.145,388.82c-0.354,1.684-0.704,3.394-1.039,5.113c0.038,2.022,0.079,3.994,0.122,5.932
		c0.279-1.958,0.632-3.908,1.013-5.854c-0.033-1.701-0.063-3.438-0.094-5.205C343.147,388.811,343.146,388.814,343.145,388.82z"/>
	<path fill="#FFFFFF" d="M345.688,383.482c-0.037-0.092-0.072-0.188-0.109-0.28c-0.141-0.354-0.279-0.716-0.416-1.075l-0.637-0.148
		l-0.213,1.112c0.258,0.657,0.52,1.313,0.766,1.97c0.114-0.569,0.229-1.14,0.338-1.709
		C345.507,383.371,345.597,383.426,345.688,383.482z"/>
	<path fill="#FFFFFF" d="M348.049,396.844c-0.203-2.473-0.422-4.939-0.666-7.42c-0.095-0.966-0.316-1.902-0.59-2.822
		c0.007,3.496,0.029,6.691,0.063,9.656c0.635,7.619,1.104,15.244,1.558,22.887c0.03,0.498,0.089,0.973,0.161,1.435
		c-0.023-0.856-0.046-1.717-0.071-2.554C348.318,411.664,348.141,405.158,348.049,396.844z"/>
	<path fill="#FFFFFF" d="M344.754,304.057c0.2-0.402,0.408-0.8,0.626-1.19c-0.205-0.37-0.417-0.736-0.637-1.097
		c-0.218,0.369-0.427,0.744-0.63,1.125C344.336,303.277,344.548,303.666,344.754,304.057z"/>
	<path fill="#FFFFFF" d="M345.377,332.134c-0.225-0.409-0.454-0.815-0.66-1.235c-0.204,0.396-0.406,0.793-0.627,1.18
		c0.206,0.393,0.425,0.777,0.646,1.16C344.956,332.873,345.173,332.508,345.377,332.134z"/>
	<path fill="#FFFFFF" d="M344.056,354.525c0.356,0.217,0.713,0.433,1.061,0.66c0.338-0.242,0.675-0.483,1.02-0.713
		c-0.344-0.229-0.707-0.436-1.059-0.656C344.735,354.05,344.392,354.279,344.056,354.525z"/>
	<path fill="#FFFFFF" d="M341.094,399.907c0.161,7.269,0.355,14.085,0.578,20.748c0.094-0.732,0.148-1.516,0.151-2.363
		c0.022-5.345-0.478-10.741,0.101-16.022c0.088-0.803,0.191-1.604,0.304-2.404c-0.043-1.938-0.085-3.909-0.122-5.932
		C341.72,395.912,341.374,397.905,341.094,399.907z"/>
	<path fill="#6F6F70" d="M244.138,434h46.336c-0.016-0.38-0.031-1-0.045-1h-46.312C244.125,433,244.132,433.614,244.138,434z"/>
	<path fill="#6F6F70" d="M295.825,434h46.336c-0.015-0.38-0.03-1-0.045-1h-46.322C295.803,433,295.818,433.614,295.825,434z"/>
	<path fill="#6F6F70" d="M348.872,434h46.336c-0.015-0.38-0.03-1-0.044-1H348.85C348.857,433,348.865,433.614,348.872,434z"/>
</g>
</svg>
