<?xml version="1.0" encoding="utf-8"?>
<!-- Generator: Adobe Illustrator 16.0.0, SVG Export Plug-In . SVG Version: 6.00 Build 0)  -->
<!DOCTYPE svg PUBLIC "-//W3C//DTD SVG 1.1//EN" "http://www.w3.org/Graphics/SVG/1.1/DTD/svg11.dtd">
<svg version="1.1" id="Capa_1" xmlns="http://www.w3.org/2000/svg" xmlns:xlink="http://www.w3.org/1999/xlink" x="0px" y="0px"
	 width="208.24px" height="255.969px" viewBox="0 0 208.24 255.969" enable-background="new 0 0 208.24 255.969"
	 xml:space="preserve">
<path fill="#FFFFFF" d="M86.146,0c5.063,3.247,8.698,7.218,9.315,13.75c0.154,1.635,3.44,3.427,5.625,4.288
	c2.063,0.813,4.616,0.275,6.876,0.721c5.505,1.087,9.221,5.767,8.939,10.934c-0.315,5.805-4.57,10.173-10.787,10.333
	c-9.65,0.248-19.31,0.102-28.966,0.113c-5.994,0.007-11.99,0.111-17.98-0.04c-6.917-0.174-11.417-4.359-11.637-10.522
	c-0.205-5.758,4.013-10.319,10.483-11.218c1.474-0.205,2.99-0.19,4.484-0.156c4.17,0.096,6.574-1.632,6.894-6.038
	C69.845,5.933,73.964,2.508,79.146,0C81.48,0,83.813,0,86.146,0z M76.138,11.482c-0.014,0.786-0.029,1.572-0.043,2.358
	c1.996,1.412,3.835,3.616,6.024,4.05c3.212,0.637,5.225-1.655,5.315-4.973c0.091-3.352-1.986-5.671-5.087-5.284
	C80.152,7.907,78.199,10.13,76.138,11.482z"/>
<path fill="#FFFFFF" d="M39.773,25.657c0.425,3.189,0.512,5.853,1.165,8.371c1.916,7.392,7.638,12.904,15.188,13.086
	c17.308,0.416,34.648,0.574,51.945-0.01c10.146-0.342,15.367-7.777,16.353-20.693c9.409,0,18.89-0.726,28.197,0.231
	c7.383,0.759,11.659,6.399,11.683,13.442c0.119,35.988,0.061,71.977,0.049,107.966c0,0.468-0.207,0.937-0.336,1.487
	c-5.777,0.619-11.516,1.232-17.801,1.906c0-28.3,0-56.672,0-85.286c-42.811,0-85.067,0-127.68,0c0,48.432,0,96.817,0,145.911
	c1.718,0,3.476,0,5.234,0c24.659,0,49.319,0.089,73.977-0.092c3.859-0.027,5.161,1.121,5.532,4.914
	c0.415,4.248,1.746,8.408,2.813,13.211c-1.684,0.084-3.252,0.23-4.82,0.231c-27.825,0.015-55.65,0.028-83.475,0.001
	c-12.702-0.013-17.786-5.157-17.788-17.929C0.001,156.089-0.03,99.773,0.092,43.457C0.1,39.917,0.81,36.16,2.146,32.893
	c2.055-5.024,6.065-7.499,11.851-7.309C22.604,25.866,31.227,25.657,39.773,25.657z"/>
<path fill="#FFFFFF" d="M161.103,160.992c-25.981-0.235-47.935,21.597-47.819,47.557c0.114,25.88,21.647,47.375,47.506,47.42
	c25.887,0.045,47.337-21.361,47.45-47.354C208.353,182.646,187.151,161.229,161.103,160.992z M192.028,198.259
	c-2.799,3.712-6.065,7.075-9.157,10.564c-6.297,7.106-12.565,14.239-18.938,21.278c-4.447,4.914-7.729,5.15-12.938,1.062
	c-5.109-4.011-10.188-8.062-15.206-12.185c-4.345-3.569-5.243-7.748-2.593-11.246c2.764-3.646,7.146-3.694,11.867-0.045
	c3.666,2.836,7.272,5.75,11.297,8.94c7.654-8.603,14.843-16.688,22.043-24.765c0.996-1.116,1.957-2.295,3.1-3.245
	c3.098-2.577,6.521-2.757,9.557-0.187C194.349,191.216,194.549,194.918,192.028,198.259z"/>
<path fill="#FFFFFF" d="M80.108,84.07c14.975,0,29.952,0.079,44.925-0.05c4.212-0.036,6.633,1.046,6.558,5.839
	c-0.074,4.746-2.793,5.24-6.576,5.231c-29.784-0.07-59.568-0.067-89.352-0.003c-3.78,0.008-6.488-0.51-6.572-5.255
	c-0.085-4.853,2.432-5.839,6.591-5.807C50.49,84.139,65.299,84.07,80.108,84.07z"/>
<path fill="#FFFFFF" d="M80.127,117.014c14.978,0,29.956,0.058,44.935-0.04c3.834-0.025,6.451,0.636,6.531,5.32
	c0.082,4.842-2.406,5.773-6.591,5.759c-29.789-0.099-59.579-0.081-89.368-0.018c-3.8,0.008-6.466-0.572-6.544-5.299
	c-0.08-4.872,2.448-5.804,6.604-5.769C50.503,117.089,65.315,117.014,80.127,117.014z"/>
<path fill="#FFFFFF" d="M70.966,157.166c-11.972,0-23.946-0.068-35.917,0.04c-3.819,0.035-5.947-1.074-5.951-5.341
	c-0.004-4.071,1.757-5.699,5.71-5.691c24.277,0.046,48.555,0.046,72.832,0c3.961-0.008,5.672,1.623,5.672,5.703
	c-0.002,4.296-2.113,5.365-5.93,5.33C95.244,157.096,83.105,157.166,70.966,157.166z"/>
<path fill="#FFFFFF" d="M67.303,190.092c-10.802,0-21.605-0.086-32.406,0.045c-3.953,0.049-5.803-1.363-5.797-5.496
	c0.005-4.152,1.983-5.559,5.847-5.55c21.77,0.052,43.541,0.054,65.311-0.001c3.911-0.01,5.833,1.537,5.835,5.604
	c0.002,4.119-1.963,5.492-5.886,5.445C89.241,190.006,78.272,190.092,67.303,190.092z"/>
</svg>
