<?xml version="1.0" encoding="utf-8"?>
<!-- Generator: Adobe Illustrator 17.0.0, SVG Export Plug-In . SVG Version: 6.00 Build 0)  -->
<!DOCTYPE svg PUBLIC "-//W3C//DTD SVG 1.1//EN" "http://www.w3.org/Graphics/SVG/1.1/DTD/svg11.dtd">
<svg version="1.1" id="Capa_1" xmlns="http://www.w3.org/2000/svg" xmlns:xlink="http://www.w3.org/1999/xlink" x="0px" y="0px"
	 width="500px" height="500px" viewBox="0 0 500 500" enable-background="new 0 0 500 500" xml:space="preserve">
<linearGradient id="SVGID_1_" gradientUnits="userSpaceOnUse" x1="160.1111" y1="63.4722" x2="263.5833" y2="63.4722">
	<stop  offset="0" style="stop-color:#29ABE2"/>
	<stop  offset="0.2705" style="stop-color:#22A2DC"/>
	<stop  offset="0.7187" style="stop-color:#0F88CB"/>
	<stop  offset="1" style="stop-color:#0075BE"/>
</linearGradient>
<polygon fill="url(#SVGID_1_)" stroke="#FFFFFF" stroke-width="15" stroke-miterlimit="10" points="199.694,12.083 160.111,107.222 
	199.694,114.861 263.583,100.972 "/>
<linearGradient id="SVGID_2_" gradientUnits="userSpaceOnUse" x1="122.6111" y1="160.3472" x2="322.6111" y2="160.3472">
	<stop  offset="0" style="stop-color:#29CFAD"/>
	<stop  offset="0.2355" style="stop-color:#23C6AA"/>
	<stop  offset="0.6256" style="stop-color:#13ACA2"/>
	<stop  offset="1" style="stop-color:#008E98"/>
</linearGradient>
<polygon fill="url(#SVGID_2_)" stroke="#FFFFFF" stroke-width="15" stroke-miterlimit="10" points="322.611,180.833 
	263.583,100.972 199.694,114.861 160.111,107.222 122.611,198.889 199,219.722 "/>
<linearGradient id="SVGID_3_" gradientUnits="userSpaceOnUse" x1="83.0278" y1="257.9167" x2="385.8055" y2="257.9167">
	<stop  offset="0" style="stop-color:#FF3A18"/>
	<stop  offset="0.1672" style="stop-color:#FF571A"/>
	<stop  offset="0.3658" style="stop-color:#FF711C"/>
	<stop  offset="0.5691" style="stop-color:#FF841D"/>
	<stop  offset="0.7777" style="stop-color:#FF8F1E"/>
	<stop  offset="1" style="stop-color:#FF931E"/>
</linearGradient>
<polygon fill="url(#SVGID_3_)" stroke="#FFFFFF" stroke-width="15" stroke-miterlimit="10" points="385.806,268.333 
	322.611,180.833 199,219.722 122.611,198.889 83.028,298.194 199,335 "/>
<linearGradient id="SVGID_4_" gradientUnits="userSpaceOnUse" x1="53.1667" y1="348.1945" x2="432.3333" y2="348.1945">
	<stop  offset="0" style="stop-color:#9643D7"/>
	<stop  offset="0.9944" style="stop-color:#BF459E"/>
</linearGradient>
<polygon fill="url(#SVGID_4_)" stroke="#FFFFFF" stroke-width="15" stroke-miterlimit="10" points="432.333,331.528 
	385.806,268.333 199,335 83.028,298.194 53.167,371.111 200.389,428.056 "/>
<linearGradient id="SVGID_5_" gradientUnits="userSpaceOnUse" x1="34.4167" y1="409.6528" x2="458.7222" y2="409.6528">
	<stop  offset="0" style="stop-color:#5A8573"/>
	<stop  offset="0.9944" style="stop-color:#74CF49"/>
</linearGradient>
<polygon fill="url(#SVGID_5_)" stroke="#FFFFFF" stroke-width="15" stroke-miterlimit="10" points="458.722,366.944 
	432.333,331.528 200.389,428.056 53.167,371.111 34.417,417.639 199.694,487.778 "/>
</svg>
