<?xml version="1.0" encoding="utf-8"?>
<!-- Generator: Adobe Illustrator 16.0.0, SVG Export Plug-In . SVG Version: 6.00 Build 0)  -->
<!DOCTYPE svg PUBLIC "-//W3C//DTD SVG 1.1//EN" "http://www.w3.org/Graphics/SVG/1.1/DTD/svg11.dtd">
<svg version="1.1" id="Capa_1" xmlns="http://www.w3.org/2000/svg" xmlns:xlink="http://www.w3.org/1999/xlink" x="0px" y="0px"
	 width="1602.16px" height="1572.157px" viewBox="0 0 1602.16 1572.157" enable-background="new 0 0 1602.16 1572.157"
	 xml:space="preserve">
<g>
	
		<linearGradient id="SVGID_1_" gradientUnits="userSpaceOnUse" x1="75.1519" y1="166.4634" x2="1527.0078" y2="166.4634" gradientTransform="matrix(1 0 0 -1 0 1573.1572)">
		<stop  offset="0" style="stop-color:#5A8573"/>
		<stop  offset="0.9944" style="stop-color:#74CF49"/>
	</linearGradient>
	<polygon fill="url(#SVGID_1_)" points="169.306,1312.18 75.152,1501.208 1527.008,1501.208 1527.008,1501.208 1432.854,1312.18 	
		"/>
	<g>
		<path fill="#FFFFFF" d="M385.314,1414.137c0.201,7.777,2.827,11.414,9.493,11.414c5.655,0,8.687-3.535,8.687-8.889
			c0-6.768-8.08-8.383-16.16-11.514c-8.08-3.232-16.16-7.879-16.16-20.502c0-14.141,8.687-23.23,22.927-23.23
			c13.836,0,21.513,6.666,23.734,21.412h-14.948c-0.202-5.453-3.23-8.686-8.181-8.686c-4.848,0-7.776,3.637-7.776,8.182
			c0,7.068,8.08,8.383,16.159,11.613c8.08,3.232,16.16,8.281,16.16,22.523c0,14.037-10.504,22.623-24.745,22.623
			c-17.068,0-24.542-9.191-24.542-24.947H385.314L385.314,1414.137z"/>
		<path fill="#FFFFFF" d="M429.048,1362.932H444.4v74.738h-15.353V1362.932z"/>
		<path fill="#FFFFFF" d="M469.548,1414.137c0.202,7.777,2.828,11.414,9.494,11.414c5.656,0,8.686-3.535,8.686-8.889
			c0-6.768-8.079-8.383-16.159-11.514c-8.08-3.232-16.16-7.879-16.16-20.502c0-14.141,8.686-23.23,22.926-23.23
			c13.837,0,21.513,6.666,23.734,21.412h-14.947c-0.202-5.453-3.232-8.686-8.181-8.686c-4.849,0-7.777,3.637-7.777,8.182
			c0,7.068,8.08,8.383,16.16,11.613c8.08,3.232,16.159,8.281,16.159,22.523c0,14.037-10.505,22.623-24.744,22.623
			c-17.069,0-24.543-9.191-24.543-24.947H469.548L469.548,1414.137z"/>
		<path fill="#FFFFFF" d="M521.664,1377.073h-12.523v-14.141h40.399v14.141h-12.524v60.598h-15.352V1377.073z"/>
		<path fill="#FFFFFF" d="M558.831,1362.932h36.359v14.141h-21.009v14.342h21.009v14.141h-21.009v17.979h21.009v14.139h-36.359
			V1362.932z"/>
		<path fill="#FFFFFF" d="M608.927,1437.67v-74.738h22.321l10.302,48.178l10.302-48.178h22.32v74.738h-13.534v-57.973
			l-13.532,57.973h-11.11l-13.534-57.973v57.973H608.927z"/>
		<path fill="#FFFFFF" d="M696.595,1437.67h-15.554l20.401-74.738h14.14l21.21,74.738h-15.554l-3.838-14.24h-17.17L696.595,1437.67z
			 M708.715,1384.848l-4.747,24.441h9.494L708.715,1384.848z"/>
		<path fill="#FFFFFF" d="M755.781,1414.137c0.202,7.777,2.828,11.414,9.494,11.414c5.655,0,8.686-3.535,8.686-8.889
			c0-6.768-8.08-8.383-16.16-11.514c-8.08-3.232-16.16-7.879-16.16-20.502c0-14.141,8.687-23.23,22.927-23.23
			c13.837,0,21.513,6.666,23.733,21.412h-14.946c-0.202-5.453-3.232-8.686-8.182-8.686c-4.848,0-7.776,3.637-7.776,8.182
			c0,7.068,8.08,8.383,16.159,11.613c8.08,3.232,16.159,8.281,16.159,22.523c0,14.037-10.504,22.623-24.744,22.623
			c-17.068,0-24.543-9.191-24.543-24.947H755.781L755.781,1414.137z"/>
		<path fill="#FFFFFF" d="M827.491,1362.932h21.513c11.009,0,18.18,4.242,23.128,11.01c4.85,6.768,7.373,16.16,7.373,26.359
			c0,20.402-10.1,37.369-29.996,37.369h-22.018V1362.932z M842.843,1423.532h6.666c12.423,0,14.24-15.354,14.24-23.23
			c0-7.068-1.11-12.928-3.434-16.967c-2.223-3.938-5.556-6.262-11.313-6.262h-6.161L842.843,1423.532L842.843,1423.532z"/>
		<path fill="#FFFFFF" d="M890.009,1362.932h36.359v14.141h-21.007v14.342h21.007v14.141h-21.007v17.979h21.007v14.139h-36.359
			V1362.932z"/>
		<path fill="#FFFFFF" d="M970.204,1437.67H954.65l20.4-74.738h14.141l21.21,74.738h-15.555l-3.838-14.24h-17.17L970.204,1437.67z
			 M982.324,1384.848l-4.747,24.441h9.494L982.324,1384.848z"/>
		<path fill="#FFFFFF" d="M1038.884,1362.932c7.07,0,13.23,2.121,17.573,6.264c4.343,4.141,6.868,10.301,6.868,18.078
			c0,7.879-2.525,13.938-6.868,18.078c-4.343,4.143-10.503,6.262-17.573,6.262h-5.857v26.059h-15.353v-74.738h21.21V1362.932z
			 M1033.026,1397.473h5.655c3.03,0,5.252-0.707,6.666-2.424c1.516-1.615,2.223-4.039,2.223-7.775c0-3.838-0.707-6.264-2.223-7.877
			c-1.414-1.617-3.636-2.324-6.666-2.324h-5.655V1397.473z"/>
		<path fill="#FFFFFF" d="M1070.093,1400.2c0-23.33,9.09-38.682,27.472-38.682s27.472,15.352,27.472,38.783
			c0,23.43-9.09,38.783-27.472,38.783s-27.472-15.354-27.472-38.783V1400.2z M1085.849,1400.403
			c0,17.877,3.839,24.543,11.716,24.543c7.879,0,11.717-6.666,11.717-24.645s-3.838-24.645-11.717-24.645
			c-7.877,0-11.716,6.666-11.716,24.645V1400.403z"/>
		<path fill="#FFFFFF" d="M1143.52,1407.776l-17.978-44.844h15.756l9.999,30.5l9.796-30.5h15.755l-17.978,44.844v29.895h-15.353
			v-29.895H1143.52z"/>
		<path fill="#FFFFFF" d="M1177.255,1400.2c0-23.33,9.09-38.682,27.471-38.682c18.382,0,27.472,15.352,27.472,38.783
			c0,23.43-9.09,38.783-27.472,38.783c-18.381,0-27.471-15.354-27.471-38.783V1400.2z M1193.01,1400.403
			c0,17.877,3.838,24.543,11.716,24.543c7.877,0,11.716-6.666,11.716-24.645s-3.839-24.645-11.716-24.645
			c-7.878,0-11.716,6.666-11.716,24.645V1400.403z"/>
	</g>
</g>
<g>
	
		<linearGradient id="SVGID_2_" gradientUnits="userSpaceOnUse" x1="169.3062" y1="402.3853" x2="1432.8535" y2="402.3853" gradientTransform="matrix(1 0 0 -1 0 1573.1572)">
		<stop  offset="0" style="stop-color:#9643D7"/>
		<stop  offset="0.9944" style="stop-color:#BF459E"/>
	</linearGradient>
	<polygon fill="url(#SVGID_2_)" points="1291.364,1028.741 310.796,1028.741 169.306,1312.803 1432.854,1312.803 	"/>
	<g>
		<path fill="#FFFFFF" d="M604.434,1124.983c7.07,0,13.231,2.119,17.574,6.262c4.343,4.141,6.868,10.301,6.868,18.078
			c0,7.877-2.525,13.938-6.868,18.078s-10.504,6.262-17.574,6.262h-5.856v26.059h-15.353v-74.738H604.434L604.434,1124.983z
			 M598.577,1159.524h5.656c3.029,0,5.252-0.707,6.666-2.426c1.516-1.615,2.223-4.039,2.223-7.775c0-3.838-0.707-6.262-2.223-7.879
			c-1.414-1.615-3.637-2.322-6.666-2.322h-5.656V1159.524z"/>
		<path fill="#FFFFFF" d="M638.674,1124.983h19.393c10.604,0,17.372,2.727,20.604,6.563c3.838,4.646,6.061,10,6.061,17.271
			c0,4.041-0.707,7.979-2.223,11.313c-2.222,4.85-5.252,7.877-8.787,9.797l14.141,29.795h-17.17l-16.462-37.977
			c1.717,0,2.626,0,3.838-0.1c2.727-0.203,5.655-0.91,7.575-2.828c2.524-2.424,3.333-5.656,3.333-8.586
			c0-3.635-0.707-6.768-3.535-9.09c-1.615-1.414-4.142-2.02-7.877-2.02h-3.535v60.6h-15.353v-74.738H638.674z"/>
		<path fill="#FFFFFF" d="M691.8,1162.25c0-23.33,9.09-38.682,27.472-38.682c18.381,0,27.471,15.352,27.471,38.781
			c0,23.432-9.09,38.783-27.471,38.783c-18.382,0-27.472-15.352-27.472-38.783V1162.25z M707.556,1162.452
			c0,17.877,3.839,24.543,11.717,24.543c7.877,0,11.715-6.666,11.715-24.645c0-17.977-3.838-24.643-11.715-24.643
			c-7.878,0-11.717,6.666-11.717,24.643V1162.452z"/>
		<path fill="#FFFFFF" d="M756.035,1124.983h34.542v14.139h-19.19v14.141h19.19v14.141h-19.19v32.318h-15.352V1124.983z"/>
		<path fill="#FFFFFF" d="M802.089,1124.983h36.359v14.139h-21.007v14.342h21.007v14.141h-21.007v17.979h21.007v14.141h-36.359
			V1124.983z"/>
		<path fill="#FFFFFF" d="M864.305,1176.188c0.202,7.777,2.828,11.412,9.494,11.412c5.656,0,8.687-3.533,8.687-8.887
			c0-6.768-8.08-8.383-16.159-11.514c-8.08-3.232-16.16-7.879-16.16-20.504c0-14.141,8.686-23.229,22.927-23.229
			c13.837,0,21.514,6.666,23.734,21.412H881.88c-0.202-5.455-3.231-8.688-8.181-8.688c-4.849,0-7.777,3.637-7.777,8.182
			c0,7.07,8.08,8.383,16.16,11.615c8.08,3.23,16.16,8.281,16.16,22.521c0,14.039-10.504,22.623-24.745,22.623
			c-17.069,0-24.542-9.189-24.542-24.947h15.35V1176.188z"/>
		<path fill="#FFFFFF" d="M905.009,1162.25c0-23.33,9.09-38.682,27.472-38.682s27.472,15.352,27.472,38.781
			c0,23.432-9.09,38.783-27.472,38.783s-27.472-15.352-27.472-38.783V1162.25z M920.764,1162.452
			c0,17.877,3.838,24.543,11.717,24.543c7.878,0,11.716-6.666,11.716-24.645c0-17.977-3.838-24.643-11.716-24.643
			c-7.879,0-11.717,6.666-11.717,24.643V1162.452z"/>
		<path fill="#FFFFFF" d="M969.749,1124.983h19.392c10.605,0,17.372,2.727,20.604,6.563c3.838,4.646,6.06,10,6.06,17.271
			c0,4.041-0.707,7.979-2.222,11.313c-2.222,4.85-5.252,7.877-8.787,9.797l14.141,29.795h-17.171l-16.463-37.977
			c1.718,0,2.626,0,3.838-0.1c2.729-0.203,5.656-0.91,7.575-2.828c2.525-2.424,3.333-5.656,3.333-8.586
			c0-3.635-0.707-6.768-3.535-9.09c-1.615-1.414-4.141-2.02-7.878-2.02h-3.534v60.6h-15.353V1124.983L969.749,1124.983z"/>
	</g>
</g>
<g>
	
		<linearGradient id="SVGID_3_" gradientUnits="userSpaceOnUse" x1="310.7959" y1="722.9819" x2="1291.3643" y2="722.9819" gradientTransform="matrix(1 0 0 -1 0 1573.1572)">
		<stop  offset="0" style="stop-color:#FF3A18"/>
		<stop  offset="0.1672" style="stop-color:#FF571A"/>
		<stop  offset="0.3658" style="stop-color:#FF711C"/>
		<stop  offset="0.5691" style="stop-color:#FF841D"/>
		<stop  offset="0.7777" style="stop-color:#FF8F1E"/>
		<stop  offset="1" style="stop-color:#FF931E"/>
	</linearGradient>
	<polygon fill="url(#SVGID_3_)" points="1113.48,671.61 488.68,671.61 310.796,1028.741 1291.364,1028.741 	"/>
	<g>
		<path fill="#FFFFFF" d="M628.17,827.024v-74.738h22.32l10.302,48.175l10.302-48.175h22.321v74.738h-13.534v-57.973l-13.534,57.973
			h-11.108l-13.534-57.973v57.973H628.17z"/>
		<path fill="#FFFFFF" d="M703.415,789.553c0-23.331,9.09-38.681,27.471-38.681s27.472,15.352,27.472,38.783
			c0,23.432-9.091,38.783-27.472,38.783s-27.471-15.352-27.471-38.783V789.553z M719.17,789.756
			c0,17.875,3.838,24.541,11.716,24.541c7.877,0,11.715-6.666,11.715-24.643c0-17.979-3.838-24.645-11.715-24.645
			c-7.878,0-11.716,6.666-11.716,24.645V789.756z"/>
		<path fill="#FFFFFF" d="M768.054,752.286h21.513c11.009,0,18.18,4.242,23.129,11.009c4.848,6.768,7.373,16.16,7.373,26.36
			c0,20.4-10.101,37.369-29.997,37.369h-22.019L768.054,752.286L768.054,752.286z M783.406,812.885h6.666
			c12.422,0,14.241-15.352,14.241-23.229c0-7.071-1.111-12.928-3.435-16.969c-2.222-3.938-5.555-6.262-11.312-6.262h-6.161V812.885z
			"/>
		<path fill="#FFFFFF" d="M830.572,752.286h36.358v14.14h-21.008v14.342h21.008v14.141h-21.008v17.977h21.008v14.141h-36.358
			V752.286z"/>
		<path fill="#FFFFFF" d="M881.072,752.286h15.352v60.599h19.594v14.141h-34.944L881.072,752.286L881.072,752.286z"/>
		<path fill="#FFFFFF" d="M918.644,789.553c0-23.331,9.091-38.681,27.472-38.681c18.382,0,27.472,15.352,27.472,38.783
			c0,23.432-9.09,38.783-27.472,38.783c-18.381,0-27.472-15.352-27.472-38.783V789.553z M934.399,789.756
			c0,17.875,3.838,24.541,11.716,24.541s11.716-6.666,11.716-24.643c0-17.979-3.838-24.645-11.716-24.645
			s-11.716,6.666-11.716,24.645V789.756z"/>
		<path fill="#FFFFFF" d="M571.609,873.487h36.358v14.139h-21.007v14.342h21.007v14.141h-21.007v17.979h21.007v14.141h-36.358
			V873.487z"/>
		<path fill="#FFFFFF" d="M621.302,873.487h21.514c11.009,0,18.18,4.242,23.128,11.008c4.848,6.768,7.373,16.16,7.373,26.361
			c0,20.4-10.101,37.367-29.996,37.367h-22.019V873.487z M636.653,934.084h6.666c12.423,0,14.239-15.352,14.239-23.229
			c0-7.068-1.109-12.928-3.434-16.969c-2.222-3.938-5.555-6.262-11.313-6.262h-6.16L636.653,934.084L636.653,934.084z"/>
		<path fill="#FFFFFF" d="M698.262,873.487v50.902c0,3.736,0.606,6.465,2.121,8.182c1.414,1.816,3.736,2.625,7.171,2.625
			s5.757-0.809,7.271-2.625c1.414-1.717,2.02-4.445,2.02-8.182v-50.902h15.353v53.428c0,6.564-1.616,12.322-5.556,16.26
			c-3.938,4.041-10.1,6.465-19.088,6.465s-15.149-2.424-19.089-6.465c-3.838-3.938-5.555-9.693-5.555-16.26v-53.428H698.262z"/>
		<path fill="#FFFFFF" d="M795.927,919.239c-0.101,17.066-9.493,30.398-27.066,30.398c-16.361,0-27.067-12.625-27.067-38.781
			c0-26.158,10.706-38.783,27.067-38.783c18.079,0,27.27,13.635,27.066,31.006h-15.755c-0.404-13.332-4.242-16.463-10.1-16.463
			c-7.069,0-12.523,6.361-12.523,24.24c0,17.877,5.454,24.238,12.523,24.238c7.979,0,9.695-7.879,10.1-15.855H795.927z"/>
		<path fill="#FFFFFF" d="M812.392,948.225h-15.554l20.401-74.738h14.14l21.21,74.738h-15.554l-3.838-14.24h-17.17L812.392,948.225z
			 M824.512,895.403l-4.747,24.441h9.494L824.512,895.403z"/>
		<path fill="#FFFFFF" d="M859.964,887.625H847.44v-14.139h40.398v14.139h-12.522v60.6h-15.353V887.625z"/>
		<path fill="#FFFFFF" d="M896.423,873.487h15.353v74.736h-15.353V873.487z"/>
		<path fill="#FFFFFF" d="M919.047,873.487h14.948l12.423,51.408l12.625-51.408h14.342l-20.401,74.736H939.45L919.047,873.487z"/>
		<path fill="#FFFFFF" d="M975.608,910.754c0-23.33,9.09-38.682,27.472-38.682c18.381,0,27.471,15.352,27.471,38.783
			c0,23.43-9.09,38.781-27.471,38.781c-18.382,0-27.473-15.352-27.473-38.781L975.608,910.754L975.608,910.754z M991.364,910.958
			c0,17.875,3.838,24.541,11.716,24.541c7.877,0,11.715-6.666,11.715-24.643c0-17.979-3.838-24.645-11.715-24.645
			c-7.878,0-11.716,6.666-11.716,24.645V910.958z"/>
	</g>
</g>
<g>
	
		<linearGradient id="SVGID_4_" gradientUnits="userSpaceOnUse" x1="488.9023" y1="1057.9077" x2="1113.2578" y2="1057.9077" gradientTransform="matrix(1 0 0 -1 0 1573.1572)">
		<stop  offset="0" style="stop-color:#29CFAD"/>
		<stop  offset="0.2355" style="stop-color:#23C6AA"/>
		<stop  offset="0.6256" style="stop-color:#13ACA2"/>
		<stop  offset="1" style="stop-color:#008E98"/>
	</linearGradient>
	<polygon fill="url(#SVGID_4_)" points="488.902,671.61 1113.258,671.61 957.493,358.889 644.666,358.889 	"/>
	<g>
		<path fill="#FFFFFF" d="M636.098,549.438h-15.554l20.402-74.737h14.14l21.209,74.737h-15.554l-3.838-14.24h-17.169
			L636.098,549.438z M648.218,496.617l-4.747,24.44h9.494L648.218,496.617z"/>
		<path fill="#FFFFFF" d="M683.569,474.7h15.352v60.599h19.594v14.141H683.57L683.569,474.7L683.569,474.7z"/>
		<path fill="#FFFFFF" d="M742.854,474.7v50.903c0,3.736,0.606,6.464,2.121,8.181c1.414,1.817,3.737,2.626,7.172,2.626
			c3.434,0,5.757-0.809,7.271-2.626c1.414-1.717,2.021-4.444,2.021-8.181V474.7h15.353v53.428c0,6.565-1.616,12.322-5.555,16.261
			c-3.939,4.04-10.101,6.464-19.089,6.464c-8.989,0-15.149-2.424-19.09-6.464c-3.838-3.938-5.555-9.695-5.555-16.261V474.7H742.854z
			"/>
		<path fill="#FFFFFF" d="M789.717,549.438V474.7h22.321l10.302,48.176l10.302-48.176h22.32v74.738h-13.534v-57.974l-13.533,57.974
			h-11.109l-13.534-57.974v57.974L789.717,549.438L789.717,549.438z"/>
		<path fill="#FFFFFF" d="M903.038,518.634V474.7h13.534v74.737h-13.736l-21.007-47.872v47.872h-13.534V474.7h15.554
			L903.038,518.634z"/>
		<path fill="#FFFFFF" d="M926.673,511.968c0-23.331,9.09-38.682,27.471-38.682c18.383,0,27.473,15.352,27.473,38.783
			s-9.09,38.782-27.473,38.782c-18.381,0-27.471-15.352-27.471-38.782V511.968z M942.428,512.17
			c0,17.876,3.838,24.542,11.716,24.542s11.717-6.666,11.717-24.644c0-17.979-3.839-24.645-11.717-24.645
			s-11.716,6.666-11.716,24.645V512.17z"/>
	</g>
</g>
<linearGradient id="SVGID_5_" gradientUnits="userSpaceOnUse" x1="645.6689" y1="1368.5181" x2="956.4912" y2="1368.5181" gradientTransform="matrix(1 0 0 -1 0 1573.1572)">
	<stop  offset="0" style="stop-color:#29ABE2"/>
	<stop  offset="0.2705" style="stop-color:#22A2DC"/>
	<stop  offset="0.7187" style="stop-color:#0F88CB"/>
	<stop  offset="1" style="stop-color:#0075BE"/>
</linearGradient>
<polygon fill="url(#SVGID_5_)" points="802.076,49.633 800.084,49.633 645.669,359.645 956.491,359.645 "/>
</svg>
