<?xml version="1.0" encoding="utf-8"?>
<!-- Generator: Adobe Illustrator 16.0.0, SVG Export Plug-In . SVG Version: 6.00 Build 0)  -->
<!DOCTYPE svg PUBLIC "-//W3C//DTD SVG 1.1//EN" "http://www.w3.org/Graphics/SVG/1.1/DTD/svg11.dtd">
<svg version="1.1" id="Capa_1" xmlns="http://www.w3.org/2000/svg" xmlns:xlink="http://www.w3.org/1999/xlink" x="0px" y="0px"
	 width="500px" height="500px" viewBox="0 0 500 500" enable-background="new 0 0 500 500" xml:space="preserve">
<g>
	<g>
		<g>
			<path fill="#0071BC" d="M240.32,248.508c-7.825-87.848-49.679-105.377-49.679-105.377s-40.488-24.336-83.091,6.655
				c-27.61,25.125-33.991,63.509-38.345,100.571c-2.221,18.826,27.25,18.613,29.429,0c2.62-22.114,15.015-54.6,25.983-73.522
				l-2.535,31.623L88.829,311.071h26.873v81.394c0,8.769,6.414,15.866,15.41,15.866c9.005,0,16.318-7.098,16.318-15.866v-81.394
				h14.397c0,27.259,0,54.519,0,81.777c0,18.985,29.454,18.985,29.454,0c0-27.263,0-54.519,0-81.777h27.529L192.532,208.26
				c0.015-9.817-6.177-24.781-6.177-30.883c11.774,19.276,21.841,48.355,24.518,71.131
				C213.07,267.131,242.535,267.346,240.32,248.508z"/>
			<path fill="#0071BC" d="M154.75,72.947c15.677,0,28.383,12.703,28.383,28.372s-12.707,28.377-28.383,28.377
				c-15.662,0-28.372-12.708-28.372-28.377C126.382,85.649,139.089,72.947,154.75,72.947z"/>
		</g>
	</g>
	<g>
		<g>
			<path fill="#0071BC" d="M415.895,156.243h-18.857h-63.962h-18.858c-8.302,0-15.032,6.734-15.032,15.035v107.522
				c0,8.302,6.73,15.032,15.032,15.032c8.298,0,15.032-6.73,15.032-15.032v-94.045h3.823v93.208v2.382v105.141
				c0,8.298,6.729,15.034,15.036,15.034c8.295,0,15.032-6.736,15.032-15.034V280.346h3.814v105.141
				c0,8.298,6.736,15.034,15.03,15.034c8.308,0,15.044-6.736,15.044-15.034V280.346v-2.382v-93.208h3.82v94.045
				c0,8.302,6.732,15.032,15.029,15.032c8.305,0,15.036-6.73,15.036-15.032V171.278C430.93,162.978,424.195,156.243,415.895,156.243
				z"/>
			<circle fill="#0071BC" cx="365.059" cy="115.124" r="34.37"/>
		</g>
	</g>
</g>
<g opacity="0.9">
	<path fill="#FFFFFF" d="M240.447,432.061c-113.744,0-206.007-3.034-206.007-6.775c0-3.737,92.263-6.77,206.007-6.77
		c113.745,0,205.993,3.033,205.993,6.77C446.439,429.026,354.191,432.061,240.447,432.061L240.447,432.061z"/>
	<path fill="#FEFEFE" d="M240.472,431.98c-112.661,0-204.046-3.002-204.046-6.704c0-3.699,91.384-6.7,204.046-6.7
		c112.661,0,204.034,3.001,204.034,6.7C444.504,428.978,353.133,431.98,240.472,431.98L240.472,431.98z"/>
	<path fill="#FDFDFD" d="M240.498,431.899c-111.578,0-202.084-2.971-202.084-6.633c0-3.66,90.506-6.629,202.084-6.629
		c111.579,0,202.071,2.969,202.071,6.629C442.568,428.929,352.076,431.899,240.498,431.899L240.498,431.899z"/>
	<path fill="#FCFCFC" d="M240.523,431.818c-110.496,0-200.123-2.938-200.123-6.563c0-3.621,89.628-6.559,200.123-6.559
		c110.497,0,200.11,2.938,200.11,6.559C440.633,428.88,351.02,431.818,240.523,431.818L240.523,431.818z"/>
	<path fill="#FBFBFB" d="M240.548,431.737c-109.412,0-198.161-2.907-198.161-6.492c0-3.582,88.749-6.486,198.161-6.486
		c109.413,0,198.149,2.905,198.149,6.486C438.697,428.83,349.961,431.737,240.548,431.737L240.548,431.737z"/>
	<path fill="#FAFAFA" d="M240.576,431.657c-108.33,0-196.201-2.876-196.201-6.421c0-3.543,87.871-6.417,196.201-6.417
		c108.329,0,196.186,2.874,196.186,6.417C436.762,428.781,348.904,431.657,240.576,431.657L240.576,431.657z"/>
	<path fill="#F9F9F9" d="M240.601,431.576c-107.247,0-194.239-2.844-194.239-6.35c0-3.504,86.992-6.347,194.239-6.347
		s194.225,2.843,194.225,6.347C434.826,428.732,347.848,431.576,240.601,431.576L240.601,431.576z"/>
	<path fill="#F8F8F8" d="M240.626,431.495c-106.164,0-192.278-2.812-192.278-6.278c0-3.466,86.114-6.275,192.278-6.275
		c106.163,0,192.264,2.811,192.264,6.275C432.891,428.684,346.789,431.495,240.626,431.495L240.626,431.495z"/>
	<path fill="#F7F7F7" d="M240.652,431.415c-105.081,0-190.316-2.779-190.316-6.208c0-3.426,85.235-6.205,190.316-6.205
		c105.081,0,190.303,2.779,190.303,6.205C430.955,428.635,345.732,431.415,240.652,431.415L240.652,431.415z"/>
	<path fill="#F6F6F6" d="M240.677,431.334c-103.997,0-188.354-2.749-188.354-6.137c0-3.387,84.357-6.134,188.354-6.134
		s188.342,2.747,188.342,6.134C429.02,428.585,344.674,431.334,240.677,431.334L240.677,431.334z"/>
	<path fill="#F5F5F5" d="M240.705,431.253c-102.916,0-186.394-2.717-186.394-6.066c0-3.348,83.479-6.063,186.394-6.063
		c102.913,0,186.379,2.717,186.379,6.063C427.084,428.536,343.617,431.253,240.705,431.253L240.705,431.253z"/>
	<path fill="#F4F4F4" d="M240.73,431.173c-101.833,0-184.433-2.686-184.433-5.996c0-3.31,82.6-5.992,184.433-5.992
		c101.831,0,184.418,2.684,184.418,5.992C425.148,428.487,342.561,431.173,240.73,431.173L240.73,431.173z"/>
	<path fill="#F3F3F3" d="M240.755,431.093c-100.75,0-182.472-2.654-182.472-5.926c0-3.27,81.722-5.922,182.472-5.922
		c100.747,0,182.458,2.652,182.458,5.922C423.213,428.438,341.502,431.093,240.755,431.093L240.755,431.093z"/>
	<path fill="#F2F2F2" d="M240.781,431.012c-99.667,0-180.509-2.622-180.509-5.854c0-3.23,80.843-5.851,180.509-5.851
		c99.665,0,180.497,2.62,180.497,5.851C421.277,428.39,340.445,431.012,240.781,431.012L240.781,431.012z"/>
	<path fill="#F1F1F1" d="M240.808,430.931c-98.584,0-178.55-2.59-178.55-5.783c0-3.192,79.965-5.78,178.55-5.78
		c98.581,0,178.534,2.589,178.534,5.78C419.342,428.341,339.389,430.931,240.808,430.931L240.808,430.931z"/>
	<path fill="#F0F0F0" d="M240.833,430.851c-97.501,0-176.588-2.559-176.588-5.712s79.087-5.71,176.588-5.71
		c97.499,0,176.573,2.557,176.573,5.71C417.406,428.291,338.33,430.851,240.833,430.851L240.833,430.851z"/>
	<path fill="#EFEFEF" d="M240.859,430.77c-96.418,0-174.626-2.527-174.626-5.642c0-3.113,78.208-5.639,174.626-5.639
		c96.415,0,174.612,2.525,174.612,5.639C415.471,428.242,337.273,430.77,240.859,430.77L240.859,430.77z"/>
	<path fill="#EEEEEE" d="M240.884,430.688c-95.335,0-172.665-2.495-172.665-5.571c0-3.075,77.33-5.567,172.665-5.567
		c95.331,0,172.651,2.493,172.651,5.567C413.535,428.193,336.217,430.688,240.884,430.688L240.884,430.688z"/>
	<path fill="#EDEDED" d="M240.91,430.608c-94.251,0-170.703-2.463-170.703-5.5c0-3.036,76.451-5.498,170.703-5.498
		c94.249,0,170.69,2.462,170.69,5.498S335.158,430.608,240.91,430.608L240.91,430.608z"/>
	<path fill="#ECECEC" d="M240.937,430.527c-93.17,0-168.743-2.431-168.743-5.429c0-2.997,75.573-5.428,168.743-5.428
		c93.165,0,168.727,2.431,168.727,5.428S334.102,430.527,240.937,430.527L240.937,430.527z"/>
	<path fill="#EBEBEB" d="M240.96,430.446c-92.086,0-166.78-2.4-166.78-5.357c0-2.959,74.694-5.356,166.78-5.356
		c92.083,0,166.768,2.399,166.768,5.356S333.045,430.446,240.96,430.446L240.96,430.446z"/>
	<path fill="#EAEAEA" d="M240.988,430.365c-91.004,0-164.82-2.368-164.82-5.287s73.816-5.285,164.82-5.285
		c90.999,0,164.805,2.367,164.805,5.285C405.793,427.997,331.986,430.365,240.988,430.365L240.988,430.365z"/>
	<path fill="#E9E9E9" d="M241.013,430.285c-89.921,0-162.859-2.336-162.859-5.216s72.938-5.215,162.859-5.215
		c89.917,0,162.844,2.335,162.844,5.215C403.857,427.948,330.93,430.285,241.013,430.285L241.013,430.285z"/>
	<path fill="#E8E8E8" d="M241.039,430.204c-88.837,0-160.896-2.305-160.896-5.146s72.059-5.145,160.896-5.145
		c88.834,0,160.883,2.304,160.883,5.145S329.873,430.204,241.039,430.204L241.039,430.204z"/>
	<path fill="#E7E7E7" d="M241.066,430.123c-87.755,0-158.937-2.272-158.937-5.074c0-2.803,71.181-5.073,158.937-5.073
		c87.75,0,158.92,2.271,158.92,5.073S328.814,430.123,241.066,430.123L241.066,430.123z"/>
	<path fill="#E6E6E6" d="M241.089,430.043c-86.671,0-156.974-2.24-156.974-5.004c0-2.763,70.302-5.003,156.974-5.003
		c86.668,0,156.961,2.24,156.961,5.003S327.758,430.043,241.089,430.043L241.089,430.043z"/>
	<path fill="#E5E5E5" d="M241.117,429.962c-85.589,0-155.013-2.209-155.013-4.933s69.424-4.932,155.013-4.932
		c85.584,0,154.999,2.208,154.999,4.932C396.115,427.752,326.701,429.962,241.117,429.962L241.117,429.962z"/>
	<path fill="#E4E4E4" d="M241.142,429.882c-84.507,0-153.052-2.179-153.052-4.862c0-2.686,68.546-4.861,153.052-4.861
		c84.502,0,153.038,2.177,153.038,4.861C394.18,427.703,325.643,429.882,241.142,429.882L241.142,429.882z"/>
	<path fill="#E3E3E3" d="M241.167,429.801c-83.423,0-151.09-2.146-151.09-4.791c0-2.646,67.667-4.79,151.09-4.79
		c83.418,0,151.077,2.145,151.077,4.79C392.244,427.654,324.586,429.801,241.167,429.801L241.167,429.801z"/>
	<path fill="#E2E2E2" d="M241.193,429.721c-82.34,0-149.128-2.114-149.128-4.721s66.789-4.72,149.128-4.72
		c82.334,0,149.116,2.113,149.116,4.72C390.309,427.605,323.529,429.721,241.193,429.721L241.193,429.721z"/>
	<path fill="#E1E1E1" d="M241.218,429.64c-81.257,0-147.167-2.083-147.167-4.65c0-2.566,65.91-4.648,147.167-4.648
		c81.252,0,147.155,2.082,147.155,4.648C388.373,427.558,322.471,429.64,241.218,429.64L241.218,429.64z"/>
	<path fill="#E0E0E0" d="M241.246,429.559c-80.175,0-145.207-2.051-145.207-4.579c0-2.529,65.032-4.578,145.207-4.578
		c80.168,0,145.192,2.05,145.192,4.578C386.438,427.509,321.414,429.559,241.246,429.559L241.246,429.559z"/>
	<path fill="#DFDFDF" d="M241.271,429.479c-79.091,0-143.246-2.02-143.246-4.508c0-2.49,64.153-4.509,143.246-4.509
		c79.086,0,143.231,2.019,143.231,4.509C384.502,427.459,320.357,429.479,241.271,429.479L241.271,429.479z"/>
	<path fill="#DEDEDE" d="M241.296,429.397c-78.009,0-141.284-1.987-141.284-4.438c0-2.449,63.275-4.437,141.284-4.437
		c78.002,0,141.27,1.986,141.27,4.437S319.299,429.397,241.296,429.397L241.296,429.397z"/>
	<path fill="#DDDDDD" d="M241.322,429.316c-76.925,0-139.322-1.956-139.322-4.366c0-2.411,62.397-4.366,139.322-4.366
		c76.92,0,139.309,1.955,139.309,4.366S318.242,429.316,241.322,429.316L241.322,429.316z"/>
	<path fill="#DCDCDC" d="M241.349,429.236c-75.844,0-137.363-1.924-137.363-4.295c0-2.372,61.518-4.296,137.363-4.296
		c75.836,0,137.346,1.923,137.346,4.296C378.695,427.313,317.186,429.236,241.349,429.236L241.349,429.236z"/>
	<path fill="#DBDBDB" d="M241.375,429.155c-74.761,0-135.4-1.892-135.4-4.224c0-2.333,60.64-4.226,135.4-4.226
		c74.752,0,135.385,1.892,135.385,4.226C376.76,427.264,316.127,429.155,241.375,429.155L241.375,429.155z"/>
	<path fill="#DADADA" d="M241.4,429.074c-73.677,0-133.438-1.86-133.438-4.154s59.761-4.153,133.438-4.153
		c73.67,0,133.424,1.859,133.424,4.153C374.824,427.215,315.07,429.074,241.4,429.074L241.4,429.074z"/>
	<path fill="#D9D9D9" d="M241.425,428.993c-72.595,0-131.478-1.829-131.478-4.083c0-2.255,58.883-4.083,131.478-4.083
		c72.588,0,131.463,1.828,131.463,4.083S314.014,428.993,241.425,428.993L241.425,428.993z"/>
	<path fill="#D9D9D9" d="M241.451,428.913c-71.511,0-129.515-1.797-129.515-4.012c0-2.216,58.005-4.013,129.515-4.013
		c71.504,0,129.502,1.796,129.502,4.013C370.953,427.116,312.955,428.913,241.451,428.913L241.451,428.913z"/>
	<path fill="#D8D8D8" d="M241.478,428.832c-70.43,0-127.556-1.765-127.556-3.94c0-2.177,57.126-3.942,127.556-3.942
		c70.42,0,127.54,1.766,127.54,3.942C369.018,427.067,311.898,428.832,241.478,428.832L241.478,428.832z"/>
	<path fill="#D7D7D7" d="M241.503,428.751c-69.346,0-125.594-1.733-125.594-3.869c0-2.139,56.248-3.871,125.594-3.871
		c69.336,0,125.579,1.732,125.579,3.871C367.082,427.019,310.84,428.751,241.503,428.751L241.503,428.751z"/>
	<path fill="#D6D6D6" d="M241.529,428.671c-68.263,0-123.633-1.701-123.633-3.799c0-2.099,55.369-3.801,123.633-3.801
		c68.254,0,123.618,1.701,123.618,3.801C365.146,426.97,309.783,428.671,241.529,428.671L241.529,428.671z"/>
	<path fill="#D5D5D5" d="M241.554,428.591c-67.18,0-121.671-1.671-121.671-3.729c0-2.06,54.491-3.729,121.671-3.729
		c67.172,0,121.657,1.669,121.657,3.729C363.211,426.92,308.727,428.591,241.554,428.591L241.554,428.591z"/>
	<path fill="#D4D4D4" d="M241.58,428.51c-66.097,0-119.709-1.639-119.709-3.658c0-2.021,53.612-3.659,119.709-3.659
		c66.088,0,119.696,1.638,119.696,3.659C361.275,426.871,307.668,428.51,241.58,428.51L241.58,428.51z"/>
	<path fill="#D3D3D3" d="M241.607,428.429c-65.016,0-117.75-1.607-117.75-3.587c0-1.982,52.734-3.589,117.75-3.589
		c65.004,0,117.733,1.606,117.733,3.589C359.34,426.822,306.611,428.429,241.607,428.429L241.607,428.429z"/>
	<path fill="#D2D2D2" d="M241.63,428.349c-63.931,0-115.786-1.575-115.786-3.517c0-1.942,51.856-3.518,115.786-3.518
		c63.924,0,115.774,1.574,115.774,3.518C357.404,426.773,305.555,428.349,241.63,428.349L241.63,428.349z"/>
	<path fill="#D1D1D1" d="M241.658,428.268c-62.849,0-113.826-1.543-113.826-3.445c0-1.904,50.977-3.447,113.826-3.447
		c62.838,0,113.811,1.543,113.811,3.447C355.469,426.725,304.496,428.268,241.658,428.268L241.658,428.268z"/>
	<path fill="#D0D0D0" d="M241.683,428.187c-61.766,0-111.865-1.512-111.865-3.374c0-1.865,50.099-3.376,111.865-3.376
		c61.756,0,111.85,1.511,111.85,3.376C353.533,426.676,303.439,428.187,241.683,428.187L241.683,428.187z"/>
	<path fill="#CFCFCF" d="M241.708,428.106c-60.682,0-109.902-1.48-109.902-3.303c0-1.826,49.22-3.307,109.902-3.307
		c60.674,0,109.889,1.479,109.889,3.307C351.598,426.626,302.381,428.106,241.708,428.106L241.708,428.106z"/>
	<path fill="#CECECE" d="M241.736,428.025c-59.601,0-107.942-1.448-107.942-3.233c0-1.786,48.342-3.234,107.942-3.234
		c59.59,0,107.926,1.448,107.926,3.234C349.662,426.577,301.324,428.025,241.736,428.025L241.736,428.025z"/>
	<path fill="#CDCDCD" d="M241.759,427.944c-58.516,0-105.98-1.416-105.98-3.162c0-1.748,47.464-3.164,105.98-3.164
		c58.508,0,105.967,1.416,105.967,3.164C347.727,426.528,300.268,427.944,241.759,427.944L241.759,427.944z"/>
	<path fill="#CCCCCC" d="M241.787,427.864c-57.434,0-104.02-1.385-104.02-3.091c0-1.709,46.585-3.094,104.02-3.094
		c57.422,0,104.004,1.384,104.004,3.094C345.791,426.479,299.209,427.864,241.787,427.864L241.787,427.864z"/>
	<path fill="#CBCBCB" d="M241.812,427.783c-56.352,0-102.058-1.353-102.058-3.02c0-1.67,45.707-3.023,102.058-3.023
		c56.34,0,102.043,1.353,102.043,3.023C343.855,426.431,298.152,427.783,241.812,427.783L241.812,427.783z"/>
	<path fill="#CACACA" d="M241.837,427.702c-55.268,0-100.096-1.32-100.096-2.949c0-1.631,44.828-2.951,100.096-2.951
		c55.258,0,100.083,1.32,100.083,2.951C341.92,426.382,297.096,427.702,241.837,427.702L241.837,427.702z"/>
	<path fill="#C9C9C9" d="M241.863,427.621c-54.186,0-98.135-1.29-98.135-2.878c0-1.592,43.95-2.881,98.135-2.881
		c54.174,0,98.122,1.289,98.122,2.881C339.984,426.332,296.037,427.621,241.863,427.621L241.863,427.621z"/>
	<path fill="#C8C8C8" d="M241.89,427.541c-53.104,0-96.175-1.258-96.175-2.807c0-1.553,43.071-2.811,96.175-2.811
		c53.09,0,96.159,1.257,96.159,2.811C338.049,426.283,294.98,427.541,241.89,427.541L241.89,427.541z"/>
	<path fill="#C7C7C7" d="M241.916,427.46c-52.02,0-94.213-1.226-94.213-2.736c0-1.515,42.193-2.74,94.213-2.74
		c52.008,0,94.198,1.226,94.198,2.74C336.113,426.234,293.924,427.46,241.916,427.46L241.916,427.46z"/>
	<path fill="#C6C6C6" d="M241.941,427.38c-50.937,0-92.251-1.194-92.251-2.666c0-1.476,41.315-2.67,92.251-2.67
		c50.926,0,92.237,1.194,92.237,2.67C334.178,426.186,292.867,427.38,241.941,427.38L241.941,427.38z"/>
	<path fill="#C5C5C5" d="M241.966,427.3c-49.854,0-90.29-1.163-90.29-2.596c0-1.436,40.436-2.599,90.29-2.599
		c49.842,0,90.276,1.162,90.276,2.599C332.242,426.137,291.809,427.3,241.966,427.3L241.966,427.3z"/>
	<path fill="#C4C4C4" d="M241.992,427.219c-48.77,0-88.328-1.132-88.328-2.524c0-1.396,39.558-2.528,88.328-2.528
		c48.76,0,88.315,1.132,88.315,2.528C330.307,426.087,290.752,427.219,241.992,427.219L241.992,427.219z"/>
	<path fill="#C3C3C3" d="M242.019,427.138c-47.689,0-86.369-1.1-86.369-2.453c0-1.358,38.679-2.457,86.369-2.457
		c47.676,0,86.352,1.099,86.352,2.457C328.371,426.038,289.695,427.138,242.019,427.138L242.019,427.138z"/>
	<path fill="#C2C2C2" d="M242.044,427.058c-46.606,0-84.407-1.068-84.407-2.382c0-1.319,37.801-2.387,84.407-2.387
		c46.594,0,84.391,1.067,84.391,2.387C326.436,425.989,288.637,427.058,242.044,427.058L242.044,427.058z"/>
	<path fill="#C1C1C1" d="M242.07,426.977c-45.523,0-82.445-1.036-82.445-2.312c0-1.279,36.922-2.315,82.445-2.315
		c45.508,0,82.428,1.035,82.428,2.315C324.5,425.94,287.58,426.977,242.07,426.977L242.07,426.977z"/>
	<path fill="#C0C0C0" d="M242.095,426.896c-44.44,0-80.484-1.004-80.484-2.241c0-1.241,36.044-2.245,80.484-2.245
		c44.426,0,80.469,1.004,80.469,2.245C322.564,425.892,286.523,426.896,242.095,426.896L242.095,426.896z"/>
	<path fill="#BFBFBF" d="M242.121,426.814c-43.356,0-78.522-0.972-78.522-2.17c0-1.202,35.166-2.174,78.522-2.174
		c43.344,0,78.508,0.972,78.508,2.174C320.629,425.843,285.465,426.814,242.121,426.814L242.121,426.814z"/>
	<path fill="#BEBEBE" d="M242.148,426.734c-42.274,0-76.562-0.941-76.562-2.099c0-1.163,34.287-2.104,76.562-2.104
		c42.26,0,76.545,0.94,76.545,2.104C318.693,425.793,284.408,426.734,242.148,426.734L242.148,426.734z"/>
	<path fill="#BDBDBD" d="M242.173,426.653c-41.191,0-74.6-0.909-74.6-2.028c0-1.124,33.409-2.032,74.6-2.032
		c41.178,0,74.584,0.908,74.584,2.032C316.758,425.744,283.352,426.653,242.173,426.653L242.173,426.653z"/>
	<path fill="#BCBCBC" d="M242.199,426.572c-40.108,0-72.639-0.877-72.639-1.957c0-1.085,32.53-1.962,72.639-1.962
		c40.094,0,72.624,0.877,72.624,1.962C314.822,425.695,282.293,426.572,242.199,426.572L242.199,426.572z"/>
	<path fill="#BBBBBB" d="M242.224,426.492c-39.025,0-70.677-0.845-70.677-1.886c0-1.046,31.652-1.891,70.677-1.891
		c39.012,0,70.661,0.845,70.661,1.891C312.887,425.646,281.236,426.492,242.224,426.492L242.224,426.492z"/>
	<path fill="#BABABA" d="M242.25,426.411c-37.942,0-68.715-0.813-68.715-1.814c0-1.007,30.774-1.821,68.715-1.821
		c37.93,0,68.702,0.813,68.702,1.821C310.951,425.598,280.18,426.411,242.25,426.411L242.25,426.411z"/>
	<path fill="#B9B9B9" d="M242.277,426.33c-36.86,0-66.755-0.781-66.755-1.745c0-0.968,29.895-1.75,66.755-1.75
		c36.844,0,66.739,0.782,66.739,1.75C309.016,425.549,279.121,426.33,242.277,426.33L242.277,426.33z"/>
	<path fill="#B8B8B8" d="M242.3,426.249c-35.776,0-64.793-0.75-64.793-1.674c0-0.929,29.017-1.679,64.793-1.679
		c35.764,0,64.78,0.75,64.78,1.679C307.08,425.499,278.064,426.249,242.3,426.249L242.3,426.249z"/>
	<path fill="#B7B7B7" d="M242.328,426.169c-34.694,0-62.832-0.719-62.832-1.603c0-0.89,28.138-1.609,62.832-1.609
		c34.678,0,62.817,0.719,62.817,1.609C305.145,425.45,277.006,426.169,242.328,426.169L242.328,426.169z"/>
	<path fill="#B6B6B6" d="M242.353,426.089c-33.61,0-60.871-0.688-60.871-1.532c0-0.852,27.26-1.538,60.871-1.538
		c33.596,0,60.856,0.687,60.856,1.538C303.209,425.401,275.949,426.089,242.353,426.089L242.353,426.089z"/>
	<path fill="#B5B5B5" d="M242.378,426.008c-32.527,0-58.909-0.655-58.909-1.462c0-0.812,26.381-1.467,58.909-1.467
		c32.514,0,58.895,0.655,58.895,1.467C301.273,425.353,274.893,426.008,242.378,426.008L242.378,426.008z"/>
	<path fill="#B4B4B4" d="M242.404,425.928c-31.444,0-56.947-0.623-56.947-1.391c0-0.772,25.503-1.396,56.947-1.396
		c31.43,0,56.932,0.623,56.932,1.396C299.338,425.304,273.834,425.928,242.404,425.928L242.404,425.928z"/>
	<path fill="#B3B3B3" d="M242.431,425.847c-30.363,0-54.988-0.593-54.988-1.319c0-0.734,24.625-1.326,54.988-1.326
		c30.346,0,54.971,0.592,54.971,1.326C297.402,425.255,272.777,425.847,242.431,425.847L242.431,425.847z"/>
</g>
</svg>
